<?xml version="1.0" encoding="utf-8"?>
<!-- Generator: Adobe Illustrator 16.0.0, SVG Export Plug-In . SVG Version: 6.00 Build 0)  -->
<!DOCTYPE svg PUBLIC "-//W3C//DTD SVG 1.1//EN" "http://www.w3.org/Graphics/SVG/1.1/DTD/svg11.dtd">
<svg version="1.1" id="Capa_1" xmlns="http://www.w3.org/2000/svg" xmlns:xlink="http://www.w3.org/1999/xlink" x="0px" y="0px"
	 width="1279.967px" height="600.965px" viewBox="0 0 1279.967 600.965" enable-background="new 0 0 1279.967 600.965"
	 xml:space="preserve">
<g>
	<rect fill="#A0C219" fill-opacity="0.9" width="1279.967" height="600.965"/>
	<g>
		<defs>
			<polygon id="SVGID_11_" points="29.205,56.776 473.279,56.776 473.279,600.965 32.672,600.965 			"/>
		</defs>
		<clipPath id="SVGID_1_">
			<use xlink:href="#SVGID_11_"  overflow="visible"/>
		</clipPath>
		<g clip-path="url(#SVGID_1_)">
			<g>
				<path fill="#FFFFFF" d="M118.589,655.403c-1.354,0-2.702-0.1-4.012-0.296c-7.043-0.921-13.551-4.823-17.876-10.723
					c-3.265-4.483-5.167-9.683-5.38-14.674c-0.254-5.05,1.031-8.789,2.156-11.04c0.02-0.038,0.161-0.313,0.221-0.427
					c-2.988-1.816-5.826-3.801-8.482-5.943c-1.5-1.21-2.846-2.483-4.032-3.814c-1.562,0.113-3.055,0.169-4.499,0.169
					c-6.934,0-12.883-1.27-18.184-3.88c-6.037-2.912-10.821-7.302-13.839-12.698c-3.14-5.512-4.172-12.443-2.792-18.948
					c2.093-9.53,8.205-18.046,16.784-23.435c0.032-0.02,0.064-0.04,0.097-0.06c4.435-2.715,9.259-4.211,13.952-4.327
					c0.17-0.005,0.391-0.009,0.612-0.009c4.812,0,9.605,1.582,13.522,4.459c2.46,1.732,4.475,3.984,5.921,6.556
					c3.264-4.622,6.287-9.288,8.149-13.795c0.406-1.224,0.825-2.453,1.26-3.693c0.363-1.395,0.595-2.826,0.728-4.263
					c-3.049,0.656-6.013,1.189-8.818,1.694c-0.946,0.17-1.886,0.339-2.818,0.511c-5.828,1.037-10.303,1.495-14.567,1.495
					c-6.94,0-12.894-1.271-18.197-3.887c-6.037-2.912-10.818-7.3-13.833-12.694c-3.138-5.512-4.17-12.442-2.792-18.945
					c2.095-9.534,8.207-18.05,16.785-23.438c0.035-0.021,0.07-0.043,0.105-0.065c4.443-2.714,9.27-4.207,13.955-4.316
					c0.155-0.005,0.383-0.009,0.61-0.009c4.806,0,9.597,1.582,13.512,4.458c4.496,3.164,7.507,8.064,8.272,13.478
					c0.666,4.711-0.482,9.357-3.155,12.826c-3.532,4.908-9.025,7.827-14.764,7.827c-0.524,0-1.047-0.026-1.556-0.078
					c-0.119-0.013-0.238-0.026-0.357-0.043c-5.34-0.74-8.142-3.601-9.099-4.796c-0.823-1.03-1.42-2.19-1.781-3.411
					c-0.263,0.661-0.472,1.352-0.616,2.065c-0.229,1.188-0.074,2.415,0.439,3.299c0.774,1.353,2.237,2.579,4.052,3.432
					c0.045,0.021,0.09,0.042,0.135,0.063c2.063,1.007,4.682,1.497,8.005,1.496c2.923,0,6.339-0.377,10.749-1.188
					c0.917-0.173,1.876-0.349,2.839-0.525c3.618-0.665,7.126-1.31,10.49-2.124c-2.388-14.321-3.696-32.19,17.78-41.289
					c0.266-0.112,0.532-0.224,0.8-0.335c-1.516-15.564,3.145-31.335,12.785-43.389c0.312-5.654,2.135-10.637,5.44-14.854
					c2.696-3.441,5.99-5.915,9.547-7.804c-4.879-4.006-8.494-8.932-10.582-14.342c-4.633,2.48-9.745,3.873-14.912,3.873
					c-1.349,0-2.693-0.099-3.999-0.294c-7.051-0.917-13.563-4.818-17.888-10.722c-3.267-4.493-5.168-9.692-5.379-14.676
					c-0.246-5.026,1.027-8.76,2.142-11.009c0.027-0.055,0.056-0.11,0.084-0.165c0.92-1.774,3.721-7.174,10.08-7.174
					c1.015,0,2.02,0.154,2.979,0.454l0,0c0.266,0.082,0.527,0.176,0.784,0.28c0.67,0.271,1.312,0.616,1.912,1.029l-0.001,0.001
					c1.475,1.014,2.674,2.412,3.437,4.057c1.261,2.719,1.241,5.655-0.061,8.73c-0.234,0.554-0.437,1.033-0.314,2.172
					c0.073,0.694,0.511,1.932,1.51,3.191c0.4,0.496,1.613,1.795,3.303,1.957c0.108,0.01,0.216,0.022,0.324,0.036
					c0.2,0.025,0.415,0.039,0.639,0.039c2.253-0.001,5.051-1.22,7.369-3.38c-3.762-3.737-7.48-8.766-10.147-15.432
					c-4.329-10.858-3.998-23.916,0.81-36.452c-2.062-4.754-3.474-9.044-4.376-13.254c-3.116-14.558-0.38-31.063,7.706-46.478
					c7.266-13.86,17.781-25.281,27.109-34.624c1.163-1.165,2.351-2.337,3.558-3.512c-1.407-2.747-2.38-5.492-2.902-8.186
					c-1.698-8.625,1.146-16.757,7.814-22.361c5.224-4.954,13.028-8.328,20.529-10.339l-1.223-13.828
					c-1.256-14.157,1.065-28.254,6.714-40.765c10.935-24.247,33.42-40.28,58.681-41.84l18.64-1.137
					c1.377-0.085,2.78-0.128,4.164-0.128c26.951,0,51.991,16.032,65.348,41.84c5.069,9.793,8.136,20.394,9.114,31.504l1.27,14.357
					c6.841,0.848,15.721,2.859,22.384,7.577c6.861,4.283,10.874,10.978,11.311,18.897c0.145,2.632-0.12,5.381-0.787,8.173
					c-1.318,5.48-4.251,11.145-8.562,16.593c0.623,5.286,0.91,10.577,1.188,15.732c0.093,1.7,0.185,3.4,0.288,5.095
					c0.468,1.617,0.452,3.117,0.298,4.301c0.077,0.988,0.161,1.975,0.259,2.954c0.595,5.869,0.872,11.501,1.142,16.947
					c0.078,1.594,0.156,3.173,0.241,4.737c0.2,0.24,0.402,0.476,0.604,0.706c6.637,7.467,15.636,10.592,21.312,10.986
					c0.042,0.003,0.084,0.006,0.125,0.009c0.804,0.066,1.612,0.1,2.404,0.1c2.938,0,5.142-0.452,6.6-0.752
					c1.121-0.229,2.18-0.447,3.462-0.447c4.711,0,8.686,3.011,9.892,7.492h-0.001c0.604,2.257,0.405,4.688-0.58,6.824
					c-1.69,3.664-4.935,5.394-9.284,6.863c-1.489,0.514-3.61,1.095-6.32,1.481c8.23,4.543,16.613,9.31,23.539,15.495
					c9.146,7.867,15.204,18.162,16.647,28.28c1.98,12.164-2.077,20.759-3.919,23.896c-0.02,0.033-0.04,0.067-0.061,0.101
					c-1.409,2.338-3.017,4.386-4.648,5.922c-0.046,0.043-0.091,0.085-0.138,0.127c-1.491,1.353-3.988,3.616-8.028,3.616
					c-0.001,0-0.001,0-0.002,0c-2.553-0.001-5.028-0.985-6.882-2.73c0,0-0.19-0.184-0.264-0.258l0.001-0.001
					c-2.372-2.436-4.891-7.817-0.394-13.85c0.476-0.639,1.124-1.509,1.803-2.871c0.506-1.085,1.923-4.767,0.844-10.099
					c-0.017-0.082-0.032-0.163-0.047-0.245c-0.86-4.869-4.471-10.368-9.66-14.709c-0.05-0.042-0.1-0.085-0.148-0.128
					c-2.718-2.365-5.957-4.574-9.512-6.737c11.96,21.882,14.402,45.162,14.697,48.472c2.202,24.707-16.064,50.156-42.49,59.195
					c-8.572,2.935-18.012,4.424-28.055,4.424c-13.75,0-28.807-2.843-43.544-8.22c-1.016-0.37-1.679-0.521-2.066-0.582
					c-0.503,0.52-1.257,1.465-1.841,2.196c-1.329,1.667-2.945,3.693-5.117,5.666l0.231,3.208c6.945,1.988,13.642,4.506,19.994,7.52
					c34.224,10.228,59.789,40.863,73.964,88.654c10.397,35.058,11.127,66.883,11.152,68.221c0.052,2.685-0.979,5.278-2.858,7.195
					c-1.881,1.918-4.454,2.998-7.14,2.998H186.717c-2.131,3.103-5.407,6.101-10.426,8.278c-7.905,3.425-16.44,5.564-25.458,6.39
					C145.972,645.321,132.734,655.403,118.589,655.403z M112.387,626.771c-0.064,0.333-0.085,0.74-0.023,1.314
					c0.073,0.694,0.51,1.932,1.506,3.185c0.406,0.505,1.618,1.804,3.312,1.968c0.104,0.01,0.209,0.021,0.312,0.035
					c0.201,0.025,0.417,0.039,0.642,0.039c2.075,0,4.893-1.119,7.273-3.279C120.97,629.243,116.612,628.149,112.387,626.771z
					 M64.398,575.561c-0.263,0.662-0.473,1.354-0.617,2.068c-0.229,1.186-0.074,2.413,0.441,3.298
					c0.773,1.351,2.238,2.58,4.057,3.435c0.041,0.02,0.082,0.039,0.123,0.06c1.867,0.91,4.188,1.396,7.074,1.481
					c0.165-0.689,0.354-1.373,0.566-2.056c-0.134-0.011-0.267-0.021-0.397-0.035c-0.12-0.012-0.239-0.026-0.358-0.043
					c-5.359-0.737-8.167-3.617-9.125-4.821C65.348,577.924,64.757,576.771,64.398,575.561z"/>
			</g>
			<g>
				<g>
					<path fill="#161010" d="M270.988,436.023c16.975-2.842,13.064-19.918,29.231-14.023c20.436,7.457,44.352,10.776,64.935,3.729
						c20.586-7.041,37.697-27.182,35.766-48.848c-1.083-12.182-7.21-42.724-26.211-61.915
						c-18.288-18.475-14.59-41.349-17.205-67.208c-1.782-17.697-0.117-36.79-9.411-51.951c-6.65-10.842-18.087-17.973-30.009-22.405
						c-28.24-10.5-60.321-7.522-88.246,3.792c-27.928,11.305-52.098,30.388-73.39,51.71c-9.689,9.705-18.965,20.06-25.331,32.204
						c-6.371,12.146-9.653,26.331-6.783,39.737c4.469,20.862,23.1,38.077,22.044,59.389c-0.348,7.095-2.942,14.097-1.999,21.134
						c1.713,12.795,14.981,21.477,27.853,22.445c12.867,0.972,32.367,36.985,44.354,32.211"/>
					<g>
						<path fill="#161010" d="M106.396,359.512c-0.062-0.043-0.559,0.519-1.211,1.779c-0.631,1.271-1.253,3.369-1.113,6.11
							c0.108,2.727,1.156,6.06,3.457,9.223c2.275,3.106,6.173,6.104,11.203,6.728c9.936,1.55,22.334-6.048,25.875-18.819
							c1.881-6.221,2.014-13.147,0.811-19.975c-1.203-6.86-3.686-13.583-6.428-20.25c-5.563-13.183-11.081-25.978-10.158-38.205
							c0.705-12.175,6.498-22.178,11.928-29.619c5.533-7.513,10.877-12.966,14.493-16.775c3.661-3.773,5.69-5.873,5.549-6.027
							c-0.128-0.137-2.413,1.681-6.33,5.225c-3.871,3.578-9.473,8.844-15.337,16.358c-5.732,7.432-12.02,17.708-12.939,30.675
							c-1.109,13.051,4.643,26.392,10.139,39.459c2.719,6.612,5.136,13.14,6.311,19.652c1.186,6.487,1.098,12.987-0.578,18.727
							c-3.066,11.699-14.232,18.699-23.081,17.562c-4.45-0.428-7.952-2.924-10.185-5.698c-2.224-2.801-3.354-5.825-3.619-8.34
							C104.631,362.164,106.748,359.621,106.396,359.512z"/>
					</g>
					<g>
						<path fill="#161010" d="M103.633,621.36c-0.06-0.044-0.559,0.522-1.211,1.783c-0.632,1.267-1.256,3.362-1.111,6.107
							c0.108,2.727,1.152,6.059,3.455,9.223c2.277,3.104,6.172,6.104,11.202,6.73c9.938,1.55,22.337-6.048,25.874-18.821
							c1.882-6.221,2.015-13.146,0.81-19.973c-1.198-6.862-3.684-13.588-6.422-20.25c-5.565-13.188-11.081-25.981-10.159-38.207
							c0.703-12.172,6.494-22.183,11.926-29.619c5.535-7.514,10.874-12.968,14.496-16.778c3.66-3.773,5.687-5.875,5.545-6.026
							c-0.128-0.133-2.413,1.682-6.33,5.226c-3.869,3.582-9.473,8.847-15.334,16.361c-5.732,7.43-12.02,17.707-12.942,30.671
							c-1.106,13.05,4.643,26.396,10.143,39.461c2.716,6.614,5.135,13.137,6.311,19.649c1.183,6.488,1.095,12.989-0.579,18.729
							c-3.065,11.699-14.232,18.703-23.088,17.563c-4.445-0.431-7.949-2.926-10.178-5.698c-2.227-2.805-3.354-5.827-3.619-8.342
							C101.869,624.012,103.983,621.471,103.633,621.36z"/>
					</g>
					<g>
						<path fill="#161010" d="M357.225,242.23c-0.088-0.04-0.383,0.449-0.863,1.425c-0.512,0.966-1.107,2.452-1.76,4.426
							c-1.28,3.93-2.475,9.948-1.949,17.418c0.562,7.401,2.875,16.345,8.578,24.569c5.627,8.363,14.848,14.744,24.604,20.156
							c9.81,5.441,19.252,10.249,26.426,16.494c7.286,6.096,11.853,13.628,13.091,20.641c1.418,7.004,0.057,12.878-1.645,16.443
							c-1.77,3.586-3.492,5.148-3.29,5.339c0.071,0.072,0.522-0.272,1.339-1.015c0.799-0.748,1.853-2.001,2.939-3.801
							c2.111-3.597,3.902-9.825,2.656-17.327c-1.043-7.527-5.845-15.834-13.351-22.268c-7.405-6.638-17.069-11.63-26.756-17.008
							c-9.668-5.362-18.459-11.41-23.853-19.18c-5.5-7.67-7.928-16.138-8.722-23.226
							C353.197,250.846,357.932,242.354,357.225,242.23z"/>
					</g>
					<g>
						<path fill="#161010" d="M403.58,289.143c-0.148-0.55-5.175,1.661-13.518,0.977c-8.199-0.569-19.688-4.86-28.133-14.362
							c-8.418-9.578-11.954-21.078-13.509-29.27c-1.574-8.291-1.577-13.604-2.058-13.595c-0.31-0.021-1.037,5.317,0.057,13.921
							c1.074,8.472,4.412,20.649,13.363,30.849c9.039,10.177,21.463,14.416,30.164,14.481c4.393,0.086,7.92-0.591,10.225-1.382
							C402.477,289.979,403.641,289.294,403.58,289.143z"/>
					</g>
					<path fill="#A37151" d="M380.17,602.578c0,0,2.004-157.332-137.1-156.462C103.961,446.994,99.854,600.24,99.854,600.24
						L380.17,602.578z"/>
					<path fill="#2C2D6E" d="M383.111,606.471L205.854,452.573c0,0-66.502,17.521-74.148,78.432
						c-7.646,60.912-12.237,75.466-12.237,75.466H383.111z"/>
					<path fill="#2C2D6E" d="M304.484,458.794c76.191,22.048,78.627,147.677,78.627,147.677L258.925,498.653L304.484,458.794"/>
					<path fill="#161010" d="M173.174,355.65c11.729,9.17,19.713,39.309,6.635,47.015c-10.881,6.413-27.271,5.915-34.643,15.326
						c-10.693,13.643,8.308,33.495-0.787,47.972c-4.404,7.012-13.898,10.124-22.207,13.646
						c-26.062,11.04-3.746,37.862-10.443,62.179c-6.693,24.313-41.426,45.64-20.234,62.731
						c21.188,17.09,54.874,22.301,80.816,11.057c21.703-9.408-6.42-40.372-0.553-60.665c5.871-20.287,34.789-34.675,31.081-55.336
						c-3.707-20.662,2.462-36.325,0.345-57.149c-3.234-31.73,1.812-64.454-8.715-94.993"/>
					<path fill="#A37151" d="M335.029,194.613c0,0,14.051,71.258,12.353,133.117c-1.12,40.93-31.407,75.213-71.687,82.532
						l4.664,64.754l-71.217-22.443l-15.313-100.147c0,0-25.242,4.695-39.634-18.257c-15.631-24.929-5.207-70.423,17.855-49.606
						c27.021,24.379,32.861,24.103,32.861,24.103C210.683,269.729,182.15,181.634,335.029,194.613"/>
					<path fill="#8A6045" d="M185.47,328.008c-0.132-0.455-3.054,0.517-7.67-0.062c-4.524-0.486-10.862-3.155-14.354-9.251
						c-2.816-4.695-3.418-10.413-2.102-14.015c1.374-3.782,5.428-3.476,6.294-2.397l0.527-0.695
						c-0.954-0.267-1.444-0.318-1.509-0.18c-0.061,0.144,0.305,0.47,1.146,0.999l1.411,0.885l-0.885-1.581
						c-0.475-0.839-1.89-1.86-3.808-1.739c-1.877-0.018-4.238,1.419-5.281,3.765c-2.05,4.61-1.465,10.907,1.738,16.415
						c4.046,7.071,11.703,9.873,16.672,9.815C182.807,330.045,185.617,328.271,185.47,328.008"/>
					<path fill="#8A6045" d="M158.924,312c0.489,0.635,3.152-0.57,6.455,0.094c3.326,0.523,5.404,2.568,6.088,2.142
						c0.307-0.2,0.174-1.139-0.746-2.271c-0.891-1.124-2.646-2.295-4.838-2.688c-2.191-0.391-4.247,0.104-5.479,0.849
						C159.154,310.869,158.704,311.706,158.924,312"/>
					<path opacity="0.2" fill="#A37151" d="M219.787,316.896c-0.57,3.911,8.021,8.406,19.189,10.039
						c11.169,1.634,20.693-0.217,21.262-4.125c0.571-3.909-8.018-8.405-19.191-10.034
						C229.877,311.145,220.359,312.986,219.787,316.896"/>
					<path opacity="0.2" fill="#A37151" d="M314.552,322.317c0.659,3.895,7.722,5.953,15.782,4.595
						c8.062-1.36,14.061-5.622,13.406-9.518c-0.66-3.893-7.726-5.953-15.784-4.596C319.9,314.158,313.898,318.42,314.552,322.317"/>
					<path fill="#8A6045" d="M257.03,406.539c-0.381,0.673,2.161,2.722,6.013,3.221c3.851,0.525,6.842-0.788,6.65-1.533
						c-0.17-0.795-2.979-0.841-6.273-1.304C260.127,406.51,257.395,405.815,257.03,406.539"/>
					<path fill="#8A6045" d="M248.809,341.037c-0.314,0.082,0.086,3.261,2.676,7.667c2.511,4.348,7.602,9.788,14.992,12.673
						c7.395,2.862,14.826,2.295,19.623,0.781c4.877-1.496,7.326-3.577,7.146-3.849c-0.217-0.403-2.952,0.974-7.631,1.885
						c-4.633,0.928-11.406,1.106-18.102-1.484c-6.688-2.609-11.563-7.318-14.348-11.134
						C250.328,343.746,249.239,340.885,248.809,341.037"/>
					<path opacity="0.2" fill="#A37151" d="M252.834,353.291c-2.262,3.18,2.443,10.299,11.652,13.064
						c9.217,2.773,17.067-0.568,16.936-4.474c-0.074-3.994-5.981-7.121-12.814-9.232C261.752,350.645,255.1,350.001,252.834,353.291
						"/>
					<path fill="#161010" d="M351.709,279.44c-1.441-2.862-58.118-52.396-51.414-86.04c0,0-13.219,29.157-101.688,83.931
						l11.765-83.931l89.924-14.894l51.414,23.075V279.44z"/>
					<path fill="#161010" d="M161.33,369.496c-0.003-0.361-4.12,0.879-11.076-1.073c-6.696-1.926-16.428-8.173-20.953-20.203
						c-4.488-11.913-1.205-28.64,9.654-41.59c10.785-13.214,28.345-21.66,47.053-27.705c9.41-3.112,18.781-5.768,27.695-8.871
						c8.889-3.02,17.5-6.69,24.664-11.771c14.375-10.06,24.596-22.202,32.502-32.584c7.9-10.461,13.42-19.516,17.099-25.829
						c1.817-3.169,3.193-5.653,4.06-7.372c0.881-1.709,1.304-2.633,1.219-2.678c-0.088-0.054-0.674,0.776-1.717,2.389
						c-1.204,1.895-2.696,4.229-4.512,7.082c-3.959,6.11-9.716,14.963-17.754,25.174c-8.027,10.141-18.32,21.982-32.377,31.634
						c-6.99,4.867-15.218,8.314-24.096,11.305c-8.83,3.038-18.188,5.665-27.683,8.801c-18.879,6.113-36.987,14.814-48.196,28.759
						c-11.246,13.633-14.547,31.323-9.506,43.969c5.08,12.697,15.484,18.878,22.551,20.565c3.628,0.92,6.561,0.759,8.487,0.642
						C160.37,369.821,161.354,369.593,161.33,369.496"/>
					<path fill="#161010" d="M343.016,365.474c-0.03,0.086,0.584,0.39,1.838,0.777c1.261,0.319,3.223,0.63,5.729,0.3
						c4.882-0.576,12.296-4.139,16.394-12.477c4.029-8.261,3.56-19.753-0.338-30.707c-3.635-11.14-9.755-22.462-16.808-33.774
						c-14.358-22.515-28.682-41.868-36.383-57.441c-2.091-3.807-3.546-7.432-4.991-10.559c-1.26-3.193-2.236-5.997-3.082-8.265
						c-1.277-4.666-2.084-7.25-2.282-7.217c-0.188,0.036,0.243,2.696,1.212,7.521c0.691,2.35,1.523,5.24,2.662,8.54
						c1.315,3.221,2.673,6.974,4.666,10.88c7.346,16.011,21.532,35.725,35.769,58.058c7.003,11.223,13.076,22.323,16.733,33.083
						c3.914,10.603,4.477,21.332,1,29.045c-3.486,7.691-10.225,11.368-14.735,12.214
						C345.711,366.355,343.064,365.16,343.016,365.474"/>
					<path fill="#161010" d="M73.986,502.331c0,0,0.693,0.866,2.665,1.14c1.893,0.193,5.104-0.634,7.29-3.788
						c2.498-3.049,1.557-9.095-2.939-12.192c-2.129-1.593-4.977-2.671-8.053-2.574c-3.047,0.069-6.163,1.133-8.977,2.854
						c-5.523,3.467-10.615,9.278-12.32,17.04c-0.813,3.839-0.393,8.253,1.738,11.994c2.092,3.745,5.533,6.687,9.49,8.588
						c8.087,4.001,17.683,3.122,26.567,1.541c8.914-1.643,18.491-2.997,27.508-7.371c8.858-4.294,16.577-12.217,17.938-22.008
						c1.377-9.646-1.873-18.282-2.96-26.362c-2.577-16.275,3.739-31.203,12.079-40.179c8.481-9.163,18.396-12.981,25.092-14.603
						c6.832-1.592,10.806-1.36,10.789-1.646c0.002-0.092-0.979-0.197-2.854-0.239c-1.867,0.008-4.652,0.128-8.17,0.799
						c-6.916,1.318-17.275,4.927-26.334,14.31c-8.898,9.184-15.771,24.748-13.209,41.939c1.111,8.379,4.123,16.924,2.797,25.545
						c-1.203,8.612-8.126,15.832-16.434,19.874c-8.441,4.114-17.818,5.51-26.723,7.181c-8.789,1.617-17.721,2.372-24.947-1.156
						c-3.578-1.681-6.625-4.274-8.441-7.448c-1.842-3.163-2.266-6.883-1.602-10.308c1.392-6.908,6.044-12.507,11.068-15.771
						c5.053-3.405,11.186-3.633,15.011-0.704c3.996,2.666,4.935,7.567,2.948,10.288c-1.779,2.876-4.619,3.826-6.33,3.82
						C74.895,502.833,74.056,502.184,73.986,502.331"/>
					<path fill="#161010" d="M73.986,572.723c0,0,0.693,0.868,2.665,1.14c1.893,0.191,5.104-0.634,7.29-3.786
						c2.498-3.045,1.557-9.095-2.939-12.196c-2.129-1.589-4.977-2.667-8.053-2.575c-3.047,0.075-6.163,1.136-8.977,2.859
						c-5.523,3.468-10.615,9.275-12.32,17.039c-0.813,3.837-0.393,8.255,1.738,11.994c2.092,3.741,5.533,6.687,9.49,8.588
						c8.087,4.002,17.683,3.122,26.567,1.54c8.914-1.646,18.491-2.997,27.508-7.371c8.858-4.294,16.577-12.216,17.938-22.005
						c1.377-9.648-1.873-18.284-2.96-26.362c-2.577-16.279,3.739-31.205,12.079-40.179c8.481-9.167,18.396-12.989,25.092-14.605
						c6.832-1.591,10.806-1.358,10.789-1.647c0.002-0.092-0.979-0.196-2.854-0.239c-1.867,0.01-4.652,0.128-8.17,0.796
						c-6.916,1.325-17.275,4.931-26.334,14.314c-8.898,9.184-15.771,24.748-13.209,41.938c1.111,8.383,4.123,16.923,2.797,25.545
						c-1.203,8.615-8.126,15.836-16.434,19.874c-8.441,4.114-17.818,5.511-26.723,7.185c-8.789,1.615-17.721,2.365-24.947-1.157
						c-3.578-1.684-6.625-4.279-8.441-7.452c-1.842-3.16-2.266-6.88-1.602-10.304c1.392-6.907,6.044-12.509,11.068-15.772
						c5.053-3.405,11.186-3.634,15.011-0.701c3.996,2.663,4.935,7.565,2.948,10.285c-1.779,2.876-4.619,3.826-6.33,3.821
						C74.895,573.229,74.056,572.575,73.986,572.723"/>
					<path fill="#8A6045" d="M283.58,320.752"/>
					<path fill="#161010" d="M227.638,265.636c0.2,2.362,9.085,3.548,19.858,2.635c10.771-0.904,19.342-3.551,19.142-5.923
						c-0.204-2.357-9.092-3.536-19.868-2.631C236.008,260.627,227.434,263.274,227.638,265.636"/>
					<path fill="#161010" d="M311.101,270.867c1.274,2.059,7.343,0.689,14.24,2.104c5.105,0.843,9.193,2.747,11.813,3.268
						l10.178,2.03l-7.384-4.188c-0.933-0.527-1.7-0.655-2.253-0.345c-0.555,0.32-0.83,1.056-0.836,2.126l2.8-2.162
						c-0.667-2.834-5.431-7.955-12.805-9.181c-4.935-0.917-9.574,0.151-12.375,1.783
						C311.626,267.938,310.549,269.873,311.101,270.867"/>
					<path fill="#FFFFFF" d="M265.975,303.096c0,0,0.781-19.649-20.4-21.883c-17.792-1.878-21.469,18.285-21.469,18.285
						L265.975,303.096z"/>
					<path fill="#161010" d="M247.637,281.514l-5.184,19.566l23.521,2.016C265.975,303.096,265.951,283.617,247.637,281.514"/>
					<path fill="#161010" d="M223.373,296.171c0.469,0.191,1.533-3.293,5.477-7.084c3.756-3.75,11.112-7.626,19.164-6.144
						c8.041,1.626,13.416,7.978,15.502,12.852c2.245,4.994,1.934,8.618,2.445,8.615c0.256,0.097,1.379-3.659-0.568-9.367
						c-1.777-5.506-7.469-12.982-16.826-14.908c-9.4-1.702-17.471,3.104-21.176,7.55
						C223.458,292.255,223.094,296.156,223.373,296.171"/>
					<path fill="#FFFFFF" d="M344.539,304.458c0,0-0.848-19.649-22.144-20.12c-17.886-0.397-19.881,20.009-19.881,20.009
						L344.539,304.458z"/>
					<path fill="#161010" d="M324.475,284.467l-3.547,19.927l23.611,0.064C344.539,304.458,342.903,285.047,324.475,284.467"/>
					<path fill="#161010" d="M301.51,301.083c0.488,0.152,1.254-3.4,4.875-7.511c3.431-4.046,10.439-8.524,18.59-7.71
						c8.141,0.956,14.028,6.838,16.507,11.521c2.656,4.784,2.646,8.432,3.155,8.384c0.26,0.074,1.064-3.761-1.34-9.286
						c-2.227-5.344-8.523-12.323-18.01-13.462c-9.511-0.923-17.154,4.544-20.477,9.278
						C301.271,297.176,301.23,301.104,301.51,301.083"/>
					<g>
						<path fill="#161010" d="M215.729,556.698c0.062-0.044,0.559,0.518,1.211,1.779c0.632,1.267,1.252,3.366,1.114,6.109
							c-0.111,2.727-1.155,6.06-3.458,9.221c-2.275,3.108-6.169,6.105-11.202,6.727c-9.936,1.556-22.333-6.043-25.872-18.813
							c-1.882-6.223-2.014-13.15-0.812-19.977c1.198-6.86,3.684-13.584,6.422-20.25c5.565-13.188,11.085-25.979,10.162-38.207
							c-0.708-12.171-6.497-22.179-11.929-29.615c-5.532-7.516-10.874-12.969-14.492-16.776c-3.662-3.779-5.69-5.874-5.549-6.024
							c0.128-0.142,2.413,1.677,6.328,5.222c3.873,3.578,9.475,8.844,15.337,16.357c5.734,7.429,12.019,17.71,12.941,30.675
							c1.11,13.05-4.643,26.392-10.14,39.461c-2.721,6.609-5.137,13.142-6.312,19.649c-1.183,6.486-1.092,12.988,0.583,18.729
							c3.062,11.697,14.229,18.699,23.082,17.562c4.449-0.431,7.949-2.928,10.182-5.7c2.223-2.804,3.354-5.826,3.615-8.342
							C217.496,559.35,215.378,556.807,215.729,556.698z"/>
					</g>
					<g>
						<path fill="#8A6045" d="M298.253,280.021c0,0-0.697,1.057-1.873,2.923c-1.177,1.864-2.828,4.543-4.71,7.796
							c-1.854,3.266-3.959,7.104-5.844,11.35c-0.952,2.117-1.797,4.354-2.543,6.637c-0.734,2.285-1.3,4.654-1.504,7.009
							c-0.227,2.339-0.126,4.708,0.682,6.74l0.311,0.753l0.061,0.154l0.107,0.205l0.215,0.408c0.279,0.548,0.557,1.093,0.832,1.635
							s0.578,1.006,0.863,1.509c0.283,0.495,0.568,0.986,0.898,1.45c1.243,1.904,2.602,3.619,4.113,5.014
							c1.512,1.422,3.161,2.402,4.766,3.703c0.785,0.654,1.517,1.537,1.81,2.515c0.114,0.486,0.242,0.925,0.255,1.413
							c0.008,0.204,0.017,0.405,0.025,0.604c-0.001,0.209-0.034,0.451-0.053,0.668c-0.095,0.875-0.377,1.63-0.799,2.232
							c-0.392,0.615-0.891,1.056-1.354,1.398c-0.944,0.678-1.806,0.943-2.376,1.107c-0.578,0.154-0.894,0.188-0.894,0.188
							s0.306-0.09,0.837-0.34c0.527-0.25,1.286-0.686,2.049-1.412c0.746-0.717,1.429-1.871,1.391-3.221
							c-0.01-0.168,0.006-0.314-0.016-0.5c-0.032-0.195-0.064-0.395-0.098-0.596c-0.045-0.326-0.205-0.691-0.322-1.027
							c-0.301-0.659-0.807-1.183-1.514-1.672c-0.7-0.49-1.576-0.945-2.471-1.488c-0.902-0.527-1.801-1.18-2.699-1.875
							c-1.779-1.425-3.424-3.205-4.825-5.211c-0.374-0.484-0.712-1.008-1.047-1.541c-0.329-0.527-0.703-1.067-1-1.597
							c-0.298-0.529-0.599-1.062-0.899-1.598l-0.222-0.405l-0.11-0.203c-0.074-0.143-0.08-0.176-0.123-0.27l-0.412-0.956
							c-1.055-2.593-1.189-5.41-0.966-8.062c0.271-2.664,0.927-5.215,1.739-7.637c0.809-2.428,1.853-4.7,2.91-6.857
							c1.055-2.16,2.229-4.158,3.375-6.022c1.141-1.868,2.302-3.579,3.408-5.129c2.207-3.104,4.226-5.55,5.677-7.224
							C297.36,280.92,298.253,280.021,298.253,280.021z"/>
					</g>
					<g>
						<path fill="#8A6045" d="M287.76,347.432c0,0-0.892,0.483-2.293,0.898c-0.699,0.219-1.525,0.421-2.42,0.578
							c-0.893,0.164-1.855,0.284-2.826,0.34c-0.972,0.053-1.953,0.032-2.872-0.053c-0.921-0.091-1.784-0.25-2.508-0.485
							c-0.365-0.126-0.688-0.226-0.972-0.382c-0.282-0.148-0.518-0.275-0.699-0.41c-0.352-0.311-0.508-0.486-0.508-0.486
							s0.27,0.043,0.659,0.117c0.202,0.026,0.466,0.012,0.737,0.038c0.273,0.02,0.609-0.024,0.947-0.013
							c0.342-0.005,0.728-0.057,1.118-0.058c0.396-0.021,0.821-0.077,1.251-0.083c0.872-0.069,1.801-0.132,2.737-0.183
							c0.937-0.054,1.878-0.079,2.767-0.091c0.887-0.014,1.723-0.002,2.445,0.035C286.765,347.254,287.76,347.432,287.76,347.432z"
							/>
					</g>
					<g>
						<g>
							<g>
								<path fill="none" stroke="#E6007E" stroke-width="3" stroke-linecap="round" stroke-linejoin="round" d="M209.094,458.457
									c0.084-0.069-5.357-6.441-5.272-6.511c0.607-0.491,22.002,22.056,22.609,21.563c0.439-0.355-17.202-20.342-16.761-20.697
									c0.959-0.777,33.137,36.527,34.097,35.75c0.44-0.356-17.237-20.383-16.796-20.741c0.903-0.731,31.355,34.211,32.258,33.479
									c0.385-0.311-15.34-18.158-14.956-18.47"/>
							</g>
						</g>
					</g>
					<g>
						<g>
							<g>
								<path fill="none" stroke="#E6007E" stroke-width="3" stroke-linecap="round" stroke-linejoin="round" d="M297.088,462.131
									c0.049,0.086,6.834-4.059,6.883-3.974c0.355,0.616-22.762,16.939-22.406,17.556c0.254,0.439,20.814-12.604,21.068-12.164
									c0.561,0.969-37.152,24.775-36.592,25.745c0.254,0.441,20.861-12.633,21.115-12.191
									c0.469,0.812-30.791,21.312-30.322,22.125c0.164,0.284,14.682-8.854,14.846-8.57"/>
							</g>
						</g>
					</g>
				</g>
				<g>
					<g>
						<g>
							<g>
								<path fill="#1B1B1A" d="M189.278,188.101l-0.233-2.613c-8.815,1.141-19.27,4.57-24.539,9.757
									c-4.16,3.366-5.658,7.934-4.662,12.993C165.77,197.363,176.793,188.464,189.278,188.101z"/>
								<path fill="#1B1B1A" d="M361.703,190.985c1.153,1.075,2.181,2.244,3.084,3.488c-0.255-4.618-2.531-8.511-6.869-11.121
									c-6.127-4.483-17.047-6.465-25.971-6.512l0.374,4.23C343.061,179.319,353.76,183.491,361.703,190.985z"/>
								<path fill="#3A3938" d="M278.211,242.094c-30.167,5.715-60.506,2.353-90.479-9.731
									c-10.271-4.182-17.928-10.991-25.562-17.949c9.755,17.762,46.411,37.964,104.354,35.021
									c60.214-4.341,93.169-30.668,97.732-49.664C346.211,227.675,309.451,236.097,278.211,242.094z"/>
								<path fill="#282727" d="M187.732,232.362c29.973,12.084,60.312,15.446,90.479,9.731c31.24-5.997,68-14.419,86.047-42.324
									c0.44-1.845,0.621-3.623,0.529-5.296c-0.903-1.244-1.931-2.413-3.084-3.488c-7.943-7.494-18.643-11.666-29.382-9.914
									l0.985,11.114c-19.054,12.588-41.328,21.499-69.775,23.242c-28.47,1.754-52.067-4.479-73.123-14.594l-1.13-12.733
									c-12.485,0.363-23.509,9.263-29.435,20.137c0.387,1.996,1.175,4.068,2.327,6.176
									C169.805,221.371,177.462,228.181,187.732,232.362z"/>
								<path fill="#282727" d="M298.391,103.796c-13.675-8.383-28.723-10.543-44.685-10.681
									c-26.216-0.195-47.134,13.983-60.73,33.848c-4.794,10.62-7.011,22.875-5.867,35.768l0.76,8.584l1.299,14.713
									c20.177,9.685,45.661,14.761,72.92,13.086c27.255-1.672,51.568-9.814,69.82-21.862l-1.304-14.696l-0.758-8.591
									c-0.883-10.032-3.711-19.435-8.033-27.784C314.359,117.972,308.251,109.463,298.391,103.796z"/>
								<path fill="#1B1B1A" d="M261.791,89.853l-18.633,1.138c-22.498,1.388-41.039,15.696-50.183,35.973
									c13.597-19.864,34.515-34.043,60.73-33.848c15.962,0.138,31.01,2.298,44.685,10.681c9.86,5.667,15.969,14.176,23.422,22.384
									C309.969,103.298,286.902,88.307,261.791,89.853z"/>
							</g>
						</g>
					</g>
					<g>
						<path d="M263.555,215.537c28.447-1.747,50.725-10.652,69.774-23.238l-1.323-15.004l-0.076-0.01l0.004,0.067
							c-18.259,12.06-42.565,20.197-69.82,21.87c-27.256,1.677-52.721-3.396-72.889-13.079l-0.098,0.046l1.311,14.753
							C211.49,211.062,235.09,217.283,263.555,215.537z"/>
					</g>
				</g>
			</g>
		</g>
	</g>
	<g>
		<g>
			<g>
				<g>
					<path fill="#FFFFFF" d="M719.863,167.538h7.701l1.357,60.237h-10.414L719.863,167.538z M718.652,149.357h10.129v8.611h-10.129
						V149.357L718.652,149.357z"/>
					<path fill="#FFFFFF" d="M746.895,149.357h13.836c7.131,0,11.959,0.742,14.477,2.231c2.521,1.489,3.779,4.166,3.779,8.027
						v17.757c0,3.264-0.83,5.566-2.494,6.911c-1.666,1.349-4.613,2.163-8.846,2.447c4.518,0.213,7.656,0.991,9.418,2.34
						c1.756,1.348,2.639,3.686,2.639,7.016v21.427c0,3.864-1.26,6.54-3.781,8.027c-2.521,1.488-7.348,2.232-14.477,2.232h-14.551
						V149.357z M755.951,155.153v28.656h3.211c4.137,0,6.893-0.54,8.275-1.622c1.375-1.081,2.066-3.483,2.066-7.205v-10.897
						c0-3.755-0.689-6.186-2.066-7.281c-1.381-1.101-4.137-1.65-8.275-1.65H755.951L755.951,155.153z M755.951,189.655v32.324h3.354
						c4.377,0,7.262-0.539,8.666-1.62c1.4-1.082,2.104-3.464,2.104-7.151v-14.727c0-3.687-0.703-6.08-2.104-7.179
						c-1.404-1.098-4.291-1.647-8.666-1.647H755.951L755.951,189.655z"/>
					<path fill="#FFFFFF" d="M794.037,173.121h8.771v41.895c0,3.226,0.467,5.448,1.393,6.672c0.928,1.225,2.508,1.835,4.742,1.835
						c2.188,0,3.734-0.63,4.637-1.888s1.354-3.464,1.354-6.619v-41.893h8.916v54.653h-8.203l-0.715-3.35
						c-1.189,1.524-2.662,2.669-4.42,3.43c-1.76,0.761-3.828,1.141-6.207,1.141c-3.756,0-6.406-0.921-7.951-2.765
						c-1.547-1.842-2.318-5.067-2.318-9.674v-43.438H794.037z"/>
					<path fill="#FFFFFF" d="M866.785,187.369v16.217h-20.754v11.535c0,3.261,0.43,5.475,1.285,6.645
						c0.855,1.173,2.375,1.757,4.564,1.757c2.092,0,3.564-0.604,4.422-1.81c0.857-1.204,1.285-3.402,1.285-6.592v-6.062h9.197v4.466
						c0,6.028-1.092,10.129-3.279,12.306c-2.188,2.183-6.062,3.272-11.625,3.272c-5.518,0-9.377-1.109-11.592-3.323
						c-2.209-2.215-3.314-6.335-3.314-12.361v-26.053c0-6.059,1.08-10.172,3.244-12.334c2.164-2.159,6.049-3.242,11.662-3.242
						c5.516,0,9.377,1.108,11.59,3.323C865.68,177.33,866.785,181.415,866.785,187.369z M857.584,185.723
						c0-3.227-0.426-5.425-1.281-6.593c-0.859-1.171-2.332-1.757-4.422-1.757c-2.141,0-3.652,0.621-4.527,1.861
						c-0.881,1.242-1.322,3.402-1.322,6.486v12.334h11.553V185.723z"/>
					<path fill="#FFFFFF" d="M909.721,184.339v43.437h-8.773v-42.053c0-3.12-0.463-5.291-1.391-6.514
						c-0.926-1.224-2.508-1.834-4.742-1.834c-2.189,0-3.756,0.629-4.707,1.887s-1.428,3.411-1.428,6.461v42.053h-8.771v-54.654
						h8.201l0.57,3.349c1.188-1.521,2.699-2.683,4.529-3.483c1.83-0.797,3.934-1.195,6.312-1.195c3.707,0,6.334,0.932,7.879,2.792
						C908.947,176.443,909.721,179.696,909.721,184.339z"/>
					<path fill="#FFFFFF" d="M691.834,289.053v14.729h6.707v5.527h-6.707v40.617c0,1.524,0.393,2.58,1.18,3.163
						c0.783,0.587,2.199,0.878,4.242,0.878h1.285v5.688c-0.525,0.036-1.059,0.062-1.605,0.081c-0.549,0.018-1.318,0.026-2.318,0.026
						c-4.469,0-7.512-0.806-9.129-2.418c-1.617-1.613-2.424-5.201-2.424-10.767v-37.27h-4.781v-5.529h4.779v-12.067L691.834,289.053
						z"/>
					<path fill="#FFFFFF" d="M727.922,302.561v6.644h-1.498c-3.756,0-6.42,0.7-7.988,2.1s-2.354,3.82-2.354,7.257v39.874h-8.771
						v-54.655h8.203l0.568,3.351c1.238-1.49,2.746-2.641,4.531-3.455c1.783-0.815,3.717-1.226,5.811-1.226
						c0.145,0,0.381,0.021,0.713,0.054C727.471,302.541,727.732,302.561,727.922,302.561z"/>
					<path fill="#FFFFFF" d="M762.871,316.54v41.895h-8.203l-0.57-3.35c-1.188,1.522-2.701,2.684-4.529,3.483
						c-1.828,0.797-3.934,1.194-6.312,1.194c-3.707,0-6.336-0.93-7.881-2.79c-1.545-1.861-2.318-5.112-2.318-9.754v-10.899
						c0-4.289,1.557-7.337,4.67-9.145c3.115-1.809,8.572-2.818,16.371-3.032v-7.763c0-3.296-0.414-5.511-1.248-6.646
						c-0.832-1.132-2.318-1.699-4.457-1.699c-2.045,0-3.506,0.522-4.385,1.567c-0.881,1.047-1.32,2.843-1.32,5.396v3.032h-8.773
						v-1.49c0-5.457,1.07-9.169,3.211-11.138c2.141-1.968,5.943-2.953,11.412-2.953c5.322,0,9.045,0.993,11.16,2.978
						C761.809,307.415,762.871,311.117,762.871,316.54z M754.025,329.46c-4.566,0.142-7.666,0.745-9.307,1.81
						c-1.639,1.063-2.459,2.978-2.459,5.742v8.771c0,3.262,0.428,5.477,1.283,6.645c0.855,1.171,2.377,1.755,4.566,1.755
						c2.139,0,3.672-0.629,4.6-1.885c0.926-1.259,1.391-3.429,1.391-6.514L754.025,329.46z"/>
					<path fill="#FFFFFF" d="M776.277,280.015h8.775v27.115c1.188-1.523,2.697-2.685,4.527-3.482s3.934-1.198,6.311-1.198
						c3.711,0,6.338,0.932,7.885,2.792c1.543,1.862,2.314,5.112,2.314,9.755v32.22c0,4.643-0.771,7.895-2.314,9.756
						c-1.547,1.86-4.174,2.791-7.885,2.791c-2.377,0-4.48-0.401-6.311-1.196c-1.83-0.798-3.34-1.957-4.527-3.481l-0.57,3.349h-8.205
						V280.015L776.277,280.015z M796.889,316.38c0-3.226-0.426-5.423-1.285-6.592c-0.855-1.172-2.377-1.756-4.564-1.756
						c-2.139,0-3.672,0.63-4.6,1.888c-0.926,1.258-1.391,3.411-1.391,6.46v29.4c0,3.119,0.453,5.298,1.357,6.54
						c0.9,1.239,2.447,1.859,4.633,1.859s3.709-0.584,4.564-1.755c0.859-1.168,1.285-3.383,1.285-6.645V316.38L796.889,316.38z"/>
					<path fill="#FFFFFF" d="M847.883,316.54v41.895h-8.201l-0.572-3.35c-1.189,1.522-2.699,2.684-4.529,3.483
						c-1.828,0.797-3.932,1.194-6.311,1.194c-3.707,0-6.338-0.93-7.881-2.79c-1.545-1.861-2.318-5.112-2.318-9.754v-10.899
						c0-4.289,1.559-7.337,4.672-9.145c3.113-1.809,8.57-2.818,16.367-3.032v-7.763c0-3.296-0.414-5.511-1.246-6.646
						c-0.832-1.132-2.318-1.699-4.457-1.699c-2.045,0-3.506,0.522-4.385,1.567c-0.881,1.047-1.318,2.843-1.318,5.396v3.032h-8.775
						v-1.49c0-5.457,1.07-9.169,3.211-11.138c2.141-1.968,5.943-2.953,11.412-2.953c5.322,0,9.043,0.993,11.16,2.978
						C846.826,307.415,847.883,311.117,847.883,316.54z M839.041,329.46c-4.564,0.142-7.664,0.745-9.307,1.81
						c-1.641,1.063-2.461,2.978-2.461,5.742v8.771c0,3.262,0.43,5.477,1.283,6.645c0.857,1.171,2.379,1.755,4.566,1.755
						c2.141,0,3.674-0.629,4.6-1.885c0.928-1.259,1.391-3.429,1.391-6.514L839.041,329.46z"/>
					<path fill="#FFFFFF" d="M861.293,303.779h8.773v62.947c0,5.529-0.82,9.127-2.461,10.792c-1.641,1.669-4.719,2.501-9.236,2.501
						c-0.998,0-1.77-0.018-2.318-0.052c-0.545-0.035-1.035-0.073-1.461-0.108v-5.634h1.285c2.041,0,3.459-0.303,4.244-0.904
						c0.783-0.604,1.176-1.685,1.176-3.243v-66.299H861.293z M860.865,280.015h9.77v8.294h-9.77V280.015z"/>
					<path fill="#FFFFFF" d="M913.143,318.03v26.157c0,6.026-1.094,10.127-3.281,12.309c-2.189,2.18-6.062,3.271-11.625,3.271
						c-5.516,0-9.377-1.108-11.59-3.325c-2.209-2.214-3.318-6.335-3.318-12.361v-26.05c0-6.062,1.082-10.172,3.246-12.334
						c2.164-2.163,6.051-3.243,11.662-3.243c5.516,0,9.379,1.107,11.592,3.321C912.037,307.99,913.143,312.076,913.143,318.03z
						 M903.941,316.38c0-3.226-0.428-5.423-1.281-6.592c-0.857-1.172-2.33-1.756-4.424-1.756c-2.141,0-3.648,0.62-4.527,1.86
						c-0.881,1.243-1.322,3.402-1.322,6.487v29.4c0,3.262,0.43,5.477,1.285,6.645c0.855,1.171,2.377,1.755,4.564,1.755
						c2.094,0,3.566-0.602,4.424-1.808c0.855-1.204,1.283-3.403,1.283-6.592v-29.4H903.941z"/>
					<path fill="#FFFFFF" d="M929.189,280.015h10.414l-1.355,60.237h-7.703L929.189,280.015z M929.334,349.822h10.127v8.612h-10.127
						V349.822z"/>
				</g>
			</g>
		</g>
		<polygon fill="#3C9E39" points="690.609,405.102 707.018,461.852 921.549,450.21 934.697,405.102 		"/>
		<g>
			<g>
				<path fill="#FFFFFF" d="M750.201,415.722h10.764v2.165h-3.781v25.157h-3.205v-25.157h-3.777V415.722z"/>
				<path fill="#FFFFFF" d="M764.266,415.722h8.75v2.165h-5.59v9.837h5.342v2.148h-5.342v11.005h5.738v2.167h-8.898V415.722z"/>
				<path fill="#FFFFFF" d="M777.713,415.722h4.822c2.484,0,4.166,0.258,5.045,0.775c0.877,0.521,1.314,1.451,1.314,2.798v6.187
					c0,1.138-0.287,1.939-0.869,2.41c-0.578,0.469-1.607,0.751-3.082,0.853c1.576,0.072,2.67,0.345,3.281,0.813
					c0.613,0.468,0.922,1.285,0.922,2.446v11.04h-3.355v-10.208c0-1.283-0.244-2.117-0.732-2.501
					c-0.49-0.382-1.498-0.573-3.023-0.573h-1.168v13.282h-3.156v-27.322H777.713z M780.867,417.739v9.984h1.117
					c1.441,0,2.402-0.187,2.885-0.563c0.48-0.377,0.719-1.213,0.719-2.512v-3.799c0-1.31-0.238-2.153-0.719-2.537
					c-0.48-0.382-1.441-0.573-2.885-0.573H780.867z"/>
				<path fill="#FFFFFF" d="M794.66,415.722h5.49l3.555,25.155h0.248l3.479-25.155h5.344v27.322h-2.758v-25.268h-0.498
					l-3.578,25.268h-4.424l-3.703-25.268h-0.422v25.268h-2.732V415.722z"/>
				<path fill="#FFFFFF" d="M818.469,415.722h3.355v27.322h-3.355V415.722z"/>
				<path fill="#FFFFFF" d="M827.416,415.722h4.322l5.244,25.693h0.051l-0.475-25.693h2.857v27.322h-4.373l-5.195-25.343h-0.098
					l0.445,25.343h-2.781v-27.322H827.416z"/>
				<path fill="#FFFFFF" d="M848.191,415.722h4.621l5.293,27.322h-3.402l-1.268-7.596h-6.014l-1.369,7.596h-3.33L848.191,415.722z
					 M850.375,417.739l-2.656,15.708h5.293l-2.486-15.708H850.375z"/>
				<path fill="#FFFFFF" d="M861.461,415.722h4.822c2.484,0,4.166,0.258,5.043,0.775c0.879,0.521,1.316,1.451,1.316,2.798v6.187
					c0,1.138-0.289,1.939-0.867,2.41c-0.58,0.469-1.607,0.751-3.082,0.853c1.572,0.072,2.666,0.345,3.279,0.813
					s0.92,1.285,0.92,2.446v11.04h-3.354v-10.208c0-1.283-0.246-2.117-0.734-2.501c-0.488-0.382-1.498-0.573-3.021-0.573h-1.17
					v13.282h-3.152V415.722L861.461,415.722z M864.617,417.739v9.984h1.119c1.439,0,2.4-0.187,2.881-0.563s0.723-1.213,0.723-2.512
					v-3.799c0-1.31-0.242-2.153-0.723-2.537c-0.479-0.382-1.439-0.573-2.881-0.573H864.617z"/>
			</g>
		</g>
	</g>
</g>
</svg>
