<?xml version="1.0" encoding="utf-8"?>
<!-- Generator: Adobe Illustrator 16.0.0, SVG Export Plug-In . SVG Version: 6.00 Build 0)  -->
<!DOCTYPE svg PUBLIC "-//W3C//DTD SVG 1.1//EN" "http://www.w3.org/Graphics/SVG/1.1/DTD/svg11.dtd">
<svg version="1.1" id="Capa_1" xmlns="http://www.w3.org/2000/svg" xmlns:xlink="http://www.w3.org/1999/xlink" x="0px" y="0px"
	 width="109.493px" height="87.874px" viewBox="0 0 109.493 87.874" enable-background="new 0 0 109.493 87.874"
	 xml:space="preserve">
<g id="rxm7GP.tif_1_">
	<g>
		<g>
			<path fill-rule="evenodd" clip-rule="evenodd" fill="#A0C219" d="M36.201,87.874c-3.863-10.784-8.653-21.098-15.062-30.62
				C14.771,47.789,7.779,38.834,0,30.38c1.773,0.429,3.552,0.818,5.315,1.288c7.979,2.131,15.727,4.86,22.815,9.19
				c1.574,0.956,3.087,2.029,4.523,3.174c1.41,1.129,2.693,2.423,4.068,3.68C56.671,25.392,81.536,10.458,109.325,0
				c0.057,0.082,0.112,0.159,0.168,0.235c-2.285,2.203-4.58,4.396-6.849,6.614C90.741,18.492,78.909,30.202,67.822,42.631
				c-5.743,6.45-10.86,13.391-15.787,20.475c-5.188,7.441-9.89,15.19-14.464,23.015c-0.322,0.546-0.669,1.078-1.002,1.615
				C36.446,87.782,36.324,87.828,36.201,87.874z"/>
		</g>
	</g>
</g>
</svg>
