<?xml version="1.0" encoding="utf-8"?>
<!-- Generator: Adobe Illustrator 16.0.0, SVG Export Plug-In . SVG Version: 6.00 Build 0)  -->
<!DOCTYPE svg PUBLIC "-//W3C//DTD SVG 1.1//EN" "http://www.w3.org/Graphics/SVG/1.1/DTD/svg11.dtd">
<svg version="1.1" id="Capa_1" xmlns="http://www.w3.org/2000/svg" xmlns:xlink="http://www.w3.org/1999/xlink" x="0px" y="0px"
	 width="87.254px" height="408.646px" viewBox="0 0 87.254 408.646" enable-background="new 0 0 87.254 408.646"
	 xml:space="preserve">
<g>
	<g>
		<g>
			<polygon opacity="0.9" fill="#A0C219" enable-background="new    " points="87.254,202.528 87.254,343.308 42.465,369.728 
				38.574,216.378 43.344,215.017 			"/>
		</g>
		<g>
			<polygon opacity="0.8" fill="#331842" enable-background="new    " points="87.254,343.308 87.254,400.087 43.344,408.646 
				42.465,369.728 			"/>
		</g>
		<g>
			<g enable-background="new    ">
				<path fill="#FFFFFF" d="M72.898,337.74l0.236,3.425c-5.018,0-9.728,0.11-14.13,0.33l-0.246-3.92
					C63.4,337.677,68.113,337.731,72.898,337.74z"/>
				<path fill="#FFFFFF" d="M62.891,333.834l1.672-0.138c-0.889-0.385-1.34-1.398-1.354-3.04v-0.056
					c0-1.613,0.472-2.714,1.415-3.301c0.643-0.403,2.146-0.605,4.512-0.605c1.162,0,2.536,0.051,4.122,0.151v3.329
					c-2.112-0.119-3.75-0.179-4.912-0.179c-0.58,0-1.045,0.014-1.395,0.041c-1.025,0.092-1.537,0.532-1.537,1.321
					c0,0.788,0.273,1.283,0.82,1.484l7.434-0.137l0.021,3.232c-3.145,0-6.675,0.143-10.593,0.426L62.891,333.834z"/>
				<path fill="#FFFFFF" d="M70.049,325.718l-0.113-3.15h0.133c1.053,0,1.586-0.436,1.6-1.307v-0.055
					c0-0.844-0.304-1.266-0.912-1.266h-0.072c-0.67,0.037-1.209,0.869-1.619,2.496c-0.41,1.629-1.102,2.607-2.072,2.938
					c-0.342,0.119-0.67,0.179-0.984,0.179c-0.574,0-1.107-0.197-1.6-0.591c-0.752-0.605-1.182-1.523-1.291-2.752
					c-0.027-0.33-0.041-0.65-0.041-0.963c0-0.816,0.105-1.535,0.317-2.159c0.294-0.853,0.714-1.444,1.261-1.774
					c0.377-0.221,0.793-0.33,1.252-0.33c0.219,0,0.443,0.022,0.676,0.068l0.052,2.943c-0.171-0.027-0.328-0.041-0.472-0.041
					c-0.684,0-1.049,0.294-1.098,0.881c-0.006,0.064-0.01,0.129-0.01,0.192c0,0.604,0.229,1.013,0.688,1.224
					c0.156,0.074,0.301,0.11,0.43,0.11c0.322,0,0.599-0.202,0.831-0.604c0.328-0.568,0.661-1.41,1-2.525
					c0.338-1.113,0.914-1.863,1.728-2.248c0.308-0.138,0.615-0.207,0.923-0.207c0.52,0,1.042,0.202,1.569,0.605
					c0.84,0.643,1.329,1.637,1.466,2.984c0.034,0.295,0.052,0.583,0.052,0.867c0,1.009-0.195,1.944-0.585,2.807
					C72.656,325.14,71.621,325.7,70.049,325.718z"/>
				<path fill="#FFFFFF" d="M59.887,313.489l-0.154-3.123h3.395l-0.051-2.627l1.938-0.041l0.092,2.668h4.666
					c1.087,0,1.631-0.619,1.631-1.857c0-0.256-0.024-0.535-0.072-0.838l2.256,0.123c0.041,0.44,0.062,0.857,0.062,1.252
					c0,2.898-1.114,4.375-3.343,4.43h-5.014l0.102,2.256l-2.286,0.055l0.021-2.311L59.887,313.489z"/>
				<path fill="#FFFFFF" d="M66.336,302.897l7.435-0.138l0.021,3.37c-3.145,0-6.676,0.143-10.592,0.426l-0.205-2.53l1.671-0.138
					c-0.82-0.385-1.288-1.283-1.405-2.696c-0.014-0.211-0.02-0.413-0.02-0.604c0-1.109,0.27-1.954,0.81-2.531
					c0.643-0.67,1.665-1.01,3.065-1.019l0.227,3.054c-0.117-0.009-0.229-0.014-0.339-0.014c-1.094,0-1.641,0.381-1.641,1.143v0.055
					C65.396,302.154,65.721,302.696,66.336,302.897z"/>
				<path fill="#FFFFFF" d="M73.688,288.977l-1.671,0.138c0.889,0.385,1.336,1.422,1.343,3.109c0.007,0.018,0.011,0.031,0.011,0.041
					c0,1.669-0.561,2.773-1.682,3.314c-0.746,0.367-2.287,0.551-4.625,0.551c-1.203,0-2.621-0.051-4.256-0.152v-3.342
					c2.297,0.184,4.064,0.275,5.302,0.275c0.622,0,1.107-0.023,1.456-0.069c1.066-0.138,1.6-0.601,1.6-1.39
					c0-0.788-0.277-1.283-0.83-1.485l-7.117,0.138l-0.02-3.232c2.939,0,6.363-0.143,10.273-0.426L73.688,288.977z"/>
				<path fill="#FFFFFF" d="M69.464,279.678l0.153-3.274c2.469,0,3.719,1.527,3.754,4.581c0.006,0.037,0.01,0.069,0.01,0.097
					c0,2.906-1.645,4.36-4.932,4.36h-0.309c-3.527-0.092-5.308-1.642-5.342-4.649v-0.109c0-2.77,1.183-4.154,3.548-4.154
					c0.137,0,0.273,0.004,0.41,0.014l0.164,2.957h-0.246c-1.244,0-1.866,0.473-1.866,1.416c0,0.963,1.008,1.445,3.025,1.445h0.338
					c2.181-0.055,3.271-0.541,3.271-1.459v-0.082c-0.049-0.798-0.503-1.197-1.364-1.197
					C69.895,279.622,69.689,279.642,69.464,279.678z"/>
				<path fill="#FFFFFF" d="M69.464,269.636l0.153-3.273c2.469,0,3.719,1.527,3.754,4.58c0.006,0.037,0.01,0.069,0.01,0.097
					c0,2.907-1.645,4.36-4.932,4.36h-0.309c-3.527-0.092-5.308-1.641-5.342-4.648v-0.11c0-2.77,1.183-4.154,3.548-4.154
					c0.137,0,0.273,0.005,0.41,0.014l0.164,2.958h-0.246c-1.244,0-1.866,0.472-1.866,1.416c0,0.963,1.008,1.444,3.025,1.444h0.338
					c2.181-0.055,3.271-0.54,3.271-1.458v-0.082c-0.049-0.799-0.503-1.197-1.364-1.197C69.895,269.581,69.689,269.6,69.464,269.636z
					"/>
				<path fill="#FFFFFF" d="M60.799,261.369c0.418,0,0.773,0.197,1.066,0.591c0.295,0.395,0.441,0.872,0.441,1.432
					c0,0.55-0.146,1.022-0.441,1.416c-0.293,0.395-0.648,0.592-1.066,0.592c-0.41,0-0.762-0.197-1.056-0.592
					c-0.294-0.394-0.44-0.866-0.44-1.416c0-0.56,0.146-1.037,0.44-1.432C60.037,261.566,60.389,261.369,60.799,261.369z
					 M73.74,265.056c-4,0.064-7.455,0.096-10.367,0.096l-0.154-3.466c2.789,0.11,5.562,0.165,8.316,0.165
					c0.738,0,1.473-0.004,2.205-0.014V265.056z"/>
				<path fill="#FFFFFF" d="M63.158,255.771c0-3.117,1.613-4.678,4.84-4.678c0.129,0,0.26,0.006,0.389,0.015
					c3.494,0.128,5.258,1.788,5.291,4.979c0.008,0.037,0.011,0.073,0.011,0.109c0,3.036-1.651,4.554-4.952,4.554h-0.287
					C64.922,260.658,63.158,258.999,63.158,255.771z M65.496,256.224c0.15,0.578,0.707,0.973,1.671,1.184
					c0.574,0.129,1.151,0.193,1.733,0.193c0.389,0,0.782-0.028,1.179-0.083c0.984-0.147,1.493-0.619,1.528-1.417v-0.096
					c0-0.744-0.366-1.252-1.098-1.527c-0.608-0.229-1.33-0.344-2.164-0.344c-0.205,0-0.413,0.004-0.625,0.014
					c-1.101,0.073-1.787,0.293-2.061,0.66c-0.164,0.229-0.246,0.504-0.246,0.825C65.414,255.816,65.441,256.014,65.496,256.224z"/>
				<path fill="#FFFFFF" d="M62.891,247.806l1.672-0.137c-0.889-0.386-1.34-1.398-1.354-3.041v-0.055
					c0-1.613,0.472-2.715,1.415-3.301c0.643-0.404,2.146-0.605,4.512-0.605c1.162,0,2.536,0.051,4.122,0.15v3.33
					c-2.112-0.119-3.75-0.18-4.912-0.18c-0.58,0-1.045,0.014-1.395,0.041c-1.025,0.092-1.537,0.533-1.537,1.321
					s0.273,1.284,0.82,1.485l7.434-0.137l0.021,3.232c-3.145,0-6.675,0.142-10.593,0.426L62.891,247.806z"/>
				<path fill="#FFFFFF" d="M63.158,235.054c0-3.182,1.575-4.772,4.727-4.772c0.383,0,0.793,0.022,1.23,0.069v6.148
					c1.757,0,2.635-0.454,2.635-1.362v-0.097c-0.047-0.797-0.502-1.196-1.363-1.196c-0.185,0-0.39,0.019-0.615,0.056l-0.051-3.274
					c2.604,0,3.924,1.526,3.957,4.581c0.008,0.037,0.011,0.068,0.011,0.096c0,2.907-1.644,4.361-4.933,4.361h-0.307
					C64.922,239.571,63.158,238.034,63.158,235.054z M67.229,236.829v-3.109h-0.246c-1.244,0-1.866,0.473-1.866,1.417
					C65.116,236.155,65.82,236.719,67.229,236.829z"/>
				<path fill="#FFFFFF" d="M70.049,229.415l-0.113-3.15h0.133c1.053,0,1.586-0.436,1.6-1.307v-0.055
					c0-0.844-0.304-1.266-0.912-1.266h-0.072c-0.67,0.036-1.209,0.869-1.619,2.496c-0.41,1.628-1.102,2.607-2.072,2.938
					c-0.342,0.119-0.67,0.178-0.984,0.178c-0.574,0-1.107-0.197-1.6-0.591c-0.752-0.605-1.182-1.522-1.291-2.751
					c-0.027-0.33-0.041-0.651-0.041-0.963c0-0.816,0.105-1.536,0.317-2.16c0.294-0.853,0.714-1.443,1.261-1.774
					c0.377-0.22,0.793-0.33,1.252-0.33c0.219,0,0.443,0.022,0.676,0.069l0.052,2.943c-0.171-0.027-0.328-0.041-0.472-0.041
					c-0.684,0-1.049,0.293-1.098,0.88c-0.006,0.064-0.01,0.129-0.01,0.192c0,0.605,0.229,1.014,0.688,1.225
					c0.156,0.074,0.301,0.109,0.43,0.109c0.322,0,0.599-0.201,0.831-0.604c0.328-0.568,0.661-1.41,1-2.524
					c0.338-1.114,0.914-1.863,1.728-2.249c0.308-0.138,0.615-0.206,0.923-0.206c0.52,0,1.042,0.201,1.569,0.605
					c0.84,0.642,1.329,1.637,1.466,2.984c0.034,0.294,0.052,0.582,0.052,0.867c0,1.008-0.195,1.943-0.585,2.806
					C72.656,228.837,71.621,229.396,70.049,229.415z"/>
			</g>
		</g>
		<g>
			<path fill="#FFFFFF" d="M50.324,390.901c0.051-0.221,0.084-0.447,0.156-0.661c0.391-1.175,1.264-1.833,2.401-2.194
				c0.093-0.029,0.188-0.051,0.304-0.08c0-1.047,0-2.089,0-3.131c0-0.209-0.006-0.418,0.002-0.626
				c0.018-0.528,0.424-0.968,0.953-1.001c0.364-0.021,0.729-0.004,1.09-0.004c0.112-0.682,0.276-0.885,0.703-0.898
				c0.459-0.015,0.641,0.185,0.782,0.871c0.318,0,0.642,0,0.979,0c-0.112-0.512-0.067-0.992,0.355-1.312
				c0.225-0.167,0.535-0.308,0.807-0.31c4.947-0.019,9.896-0.017,14.843-0.013c0.771,0.001,1.332,0.685,1.198,1.438
				c-0.01,0.058-0.01,0.114-0.016,0.211c0.121,0,0.229,0,0.336,0c0.982,0,1.965-0.002,2.949,0c0.797,0.002,1.217,0.408,1.219,1.209
				c0.008,1.897,0.008,3.797,0,5.691c-0.002,0.807-0.416,1.21-1.217,1.213c-7.93,0-15.857,0-23.785-0.003
				c-0.801,0-1.199-0.407-1.201-1.216c0-0.179,0-0.355,0-0.537c-0.613,0.067-1.217,0.768-1.254,1.44
				c-0.053,0.921,0.521,1.666,1.516,1.937c0.761,0.206,1.535,0.284,2.326,0.271c1.051-0.018,2.111-0.074,3.152,0.047
				c2.154,0.249,3.904,1.307,5.283,2.973c0.375,0.449,0.242,0.894-0.352,1.302c-0.119,0-0.238,0-0.359,0
				c-0.139-0.123-0.277-0.247-0.418-0.37c-0.525-0.467-1.012-0.989-1.588-1.381c-1.363-0.926-2.918-1.146-4.537-1.129
				c-1.076,0.012-2.164,0.008-3.23-0.123c-1.299-0.156-2.328-0.847-2.961-2.009c-0.232-0.429-0.299-0.948-0.439-1.427
				C50.324,391.021,50.324,390.962,50.324,390.901z"/>
			<path fill="#FFFFFF" d="M64.393,363.657c0.287,0.066,0.586,0.107,0.861,0.207c1.652,0.604,2.705,1.758,2.992,3.504
				c0.291,1.76-0.34,3.195-1.752,4.275c-0.168,0.129-0.221,0.241-0.18,0.443c0.42,1.977,0.828,3.952,1.242,5.93
				c0.018,0.077,0.043,0.151,0.073,0.26c0.103,0,0.209,0,0.315,0c0.785,0,1.568-0.008,2.355,0.004
				c0.625,0.009,1.016,0.521,0.816,1.051c-0.057,0.152-0.139,0.234-0.326,0.234c-3-0.006-6-0.008-9,0
				c-0.271,0.002-0.344-0.154-0.375-0.36c-0.086-0.531,0.271-0.918,0.861-0.925c0.654-0.01,1.309-0.004,1.965-0.004
				c0.107,0,0.217,0,0.371,0c-0.117-0.565-0.227-1.104-0.338-1.644c-0.271-1.297-0.553-2.594-0.812-3.896
				c-0.039-0.205-0.123-0.27-0.313-0.299c-1.822-0.307-3.215-1.657-3.596-3.477c-0.521-2.486,1.172-4.893,3.688-5.252
				c0.045-0.006,0.088-0.035,0.135-0.055C63.717,363.657,64.055,363.657,64.393,363.657z M66.65,367.894
				c-0.047-1.047-0.4-1.787-1.201-2.27c-0.393-0.234-0.742-0.154-0.951,0.191c-0.203,0.332-0.111,0.576,0.309,0.841
				c0.521,0.325,0.744,0.896,0.586,1.491c-0.024,0.095-0.061,0.188-0.069,0.287c-0.033,0.299,0.202,0.631,0.483,0.7
				c0.279,0.069,0.551-0.086,0.652-0.42C66.555,368.407,66.607,368.083,66.65,367.894z"/>
			<path fill="#FFFFFF" d="M66.277,381.181c-2.246,0-4.49,0-6.734,0c-0.301,0-0.357-0.063-0.328-0.367
				c0.045-0.479,0.41-0.844,0.891-0.888c0.099-0.009,0.197-0.011,0.295-0.011c3.927,0,7.851,0.002,11.771-0.004
				c0.408,0,0.773,0.066,1.01,0.438c0.062,0.102,0.117,0.211,0.144,0.325c0.096,0.421,0.021,0.507-0.402,0.507
				C70.707,381.181,68.492,381.181,66.277,381.181z"/>
		</g>
	</g>
	<g>
		<g>
			<polygon opacity="0.9" fill="#8A368C" enable-background="new    " points="38.574,166.417 87.254,151.417 87.254,194.417 
				38.574,209.417 			"/>
		</g>
		<g>
			<polygon opacity="0.9" fill="#A0C219" enable-background="new    " points="38.574,116.378 87.254,101.378 87.254,144.378 
				38.574,159.378 			"/>
		</g>
		<g>
			<polygon opacity="0.9" fill="#F2961C" enable-background="new    " points="38.574,65.998 87.254,50.998 87.254,93.998 
				38.574,108.998 			"/>
		</g>
		<g>
			<polygon opacity="0.8" fill="#CF5D9F" enable-background="new    " points="38.574,15 87.254,0 87.254,43 38.574,58 			"/>
		</g>
		<g enable-background="new    ">
			<path fill="#FFFFFF" d="M66.762,16.01c-0.105,5.286-0.158,10.544-0.158,15.774c0,2.621,0.016,5.236,0.045,7.845l-5.588,0.218
				c-0.105-6.731-0.233-12.963-0.383-18.697c-1.263,0.19-2.976,0.661-5.139,1.411l-1.082-3.679l6.266-2.957L66.762,16.01z"/>
		</g>
		<g enable-background="new    ">
			<path fill="#FFFFFF" d="M54.902,75.305c-0.076-0.672-0.113-1.293-0.113-1.865c0-2.005,0.488-3.449,1.465-4.334
				c1.247-1.131,2.84-1.808,4.777-2.032c0.691-0.079,1.367-0.118,2.029-0.118c1.186,0,2.328,0.123,3.425,0.37
				c1.713,0.392,3.005,1.165,3.876,2.318c0.706,0.963,1.059,2.195,1.059,3.696c0,0.292-0.007,0.6-0.021,0.924
				c-0.181,1.926-0.958,3.698-2.333,5.317c-1.374,1.618-3.752,3.934-7.132,6.946l9.848,0.05l-0.068,4.216
				c-4.312,0.146-9.87,0.219-16.676,0.219l-0.519-4.586c4.087-3.292,7.001-5.823,8.744-7.593c1.593-1.624,2.389-3.22,2.389-4.788
				v-0.42c-0.165-1.68-1.112-2.52-2.839-2.52h-0.091c-1.503,0.033-2.253,1.053-2.253,3.057c0,0.381,0.021,0.79,0.066,1.227
				L54.902,75.305z"/>
		</g>
		<g enable-background="new    ">
			<path fill="#FFFFFF" d="M54.639,125.598c-0.061-0.594-0.09-1.148-0.09-1.663c0-1.781,0.36-3.153,1.082-4.116
				c0.916-1.232,2.418-1.994,4.506-2.285c1.021-0.146,1.998-0.219,2.93-0.219c0.947,0,1.849,0.079,2.705,0.235
				c1.668,0.302,3,0.98,4,2.033c0.999,1.053,1.536,2.498,1.611,4.334v0.504c0,1.59-0.33,2.75-0.992,3.478
				c-0.736,0.818-1.945,1.434-3.628,1.848c1.397,0.157,2.445,0.535,3.144,1.134c0.699,0.599,1.184,1.403,1.454,2.411
				c0.149,0.56,0.226,1.176,0.226,1.848c0,0.549-0.053,1.143-0.158,1.781c-0.225,1.4-0.988,2.61-2.287,3.628
				c-1.3,1.02-3.302,1.551-6.006,1.596h-0.361c-2.539,0-4.566-0.493-6.084-1.479c-1.578-1.008-2.366-3.175-2.366-6.501v-0.101
				l5.837-0.252c-0.016,0.191-0.023,0.375-0.023,0.555c0,2.352,0.826,3.567,2.479,3.645c0.12,0.012,0.233,0.017,0.339,0.017
				c1.562,0,2.501-0.616,2.816-1.848c0.09-0.347,0.135-0.677,0.135-0.991c0-0.884-0.338-1.651-1.014-2.301
				c-0.932-0.874-2.472-1.31-4.62-1.31l-0.271-3.192c0.256,0.011,0.496,0.017,0.721,0.017c1.879,0,3.17-0.403,3.877-1.209
				c0.66-0.75,0.992-1.725,0.992-2.923c0-0.235-0.016-0.476-0.046-0.723c-0.136-1.433-0.999-2.15-2.591-2.15h-0.293
				c-1.578,0.078-2.367,1.254-2.367,3.527c0,0.269,0.008,0.555,0.023,0.857L54.639,125.598z"/>
		</g>
		<g enable-background="new    ">
			<path fill="#FFFFFF" d="M53.547,184.457l-0.473-4.015c2.584-4.21,5.573-8.567,8.969-13.069l7.256,0.302l-0.09,12.969l3.178,0.05
				v4.015h-3.088v7.072l-5.453-0.151l0.068-7.005L53.547,184.457z M64.004,180.693l0.067-8.668
				c-1.653,2.845-3.411,5.706-5.273,8.584L64.004,180.693z"/>
		</g>
		<line fill="none" stroke="#645F61" stroke-width="0.5" stroke-miterlimit="10" x1="0" y1="15.542" x2="38.699" y2="15.542"/>
		<line fill="none" stroke="#645F61" stroke-width="0.5" stroke-miterlimit="10" x1="0" y1="57.375" x2="38.699" y2="57.375"/>
		<line fill="none" stroke="#645F61" stroke-width="0.5" stroke-miterlimit="10" x1="0" y1="66.917" x2="38.699" y2="66.917"/>
		<line fill="none" stroke="#645F61" stroke-width="0.5" stroke-miterlimit="10" x1="0" y1="108.75" x2="38.699" y2="108.75"/>
		<line fill="none" stroke="#645F61" stroke-width="0.5" stroke-miterlimit="10" x1="0" y1="116.823" x2="38.699" y2="116.823"/>
		<line fill="none" stroke="#645F61" stroke-width="0.5" stroke-miterlimit="10" x1="0" y1="158.656" x2="38.699" y2="158.656"/>
		<line fill="none" stroke="#645F61" stroke-width="0.5" stroke-miterlimit="10" x1="0" y1="166.834" x2="38.699" y2="166.834"/>
		<line fill="none" stroke="#645F61" stroke-width="0.5" stroke-miterlimit="10" x1="0" y1="208.667" x2="38.699" y2="208.667"/>
	</g>
</g>
</svg>
