<?xml version="1.0" encoding="utf-8"?>
<!-- Generator: Adobe Illustrator 16.0.0, SVG Export Plug-In . SVG Version: 6.00 Build 0)  -->
<!DOCTYPE svg PUBLIC "-//W3C//DTD SVG 1.1//EN" "http://www.w3.org/Graphics/SVG/1.1/DTD/svg11.dtd">
<svg version="1.1" id="Capa_1" xmlns="http://www.w3.org/2000/svg" xmlns:xlink="http://www.w3.org/1999/xlink" x="0px" y="0px"
	 width="939.604px" height="105.197px" viewBox="0 0 939.604 105.197" enable-background="new 0 0 939.604 105.197"
	 xml:space="preserve">
<g>
	<g>
		<rect opacity="0.8" fill="#B86EA4" width="507.303" height="105.197"/>
	</g>
	<g>
		<rect x="511.77" opacity="0.9" fill="#DC9B2F" width="139.131" height="105.197"/>
	</g>
	<g>
		<rect x="800.471" opacity="0.9" fill="#78428D" width="139.133" height="105.197"/>
	</g>
	<g>
		<rect x="655.951" opacity="0.9" fill="#ABC02F" width="139.131" height="105.197"/>
	</g>
	<g>
		<path fill="#FFFFFF" d="M450.693,13.364c-0.341,17.141-0.511,34.19-0.511,51.149c0,8.498,0.048,16.978,0.146,25.438l-18.122,0.708
			c-0.341-21.824-0.756-42.033-1.242-60.627c-4.093,0.617-9.646,2.143-16.661,4.575l-3.508-11.93l20.314-9.587L450.693,13.364z"/>
	</g>
	<g>
		<path fill="#FFFFFF" d="M555.357,38.64c-0.244-2.179-0.365-4.194-0.365-6.047c0-6.5,1.582-11.185,4.75-14.054
			c4.043-3.667,9.207-5.864,15.492-6.591c2.24-0.254,4.432-0.382,6.576-0.382c3.848,0,7.551,0.4,11.107,1.199
			c5.554,1.271,9.742,3.777,12.568,7.517c2.289,3.124,3.436,7.118,3.436,11.984c0,0.944-0.025,1.942-0.074,2.996
			c-0.584,6.246-3.105,11.993-7.562,17.24c-4.458,5.248-12.167,12.756-23.129,22.524l31.934,0.163l-0.219,13.673
			c-13.982,0.472-32.006,0.708-54.075,0.708L554.115,74.7c13.25-10.677,22.701-18.883,28.354-24.621
			c5.162-5.266,7.745-10.44,7.745-15.525v-1.361c-0.536-5.447-3.605-8.171-9.207-8.171h-0.292c-4.873,0.109-7.309,3.414-7.309,9.914
			c0,1.234,0.074,2.561,0.22,3.977L555.357,38.64z"/>
	</g>
	<g>
		<path fill="#FFFFFF" d="M701.078,38.095c-0.195-1.925-0.292-3.722-0.292-5.393c0-5.774,1.169-10.222,3.508-13.346
			c2.971-3.994,7.843-6.464,14.614-7.408c3.312-0.472,6.479-0.708,9.5-0.708c3.069,0,5.992,0.254,8.77,0.763
			c5.407,0.98,9.73,3.178,12.971,6.591c3.238,3.414,4.98,8.099,5.225,14.054v1.635c0,5.156-1.072,8.915-3.215,11.275
			c-2.389,2.651-6.311,4.648-11.766,5.992c4.531,0.509,7.929,1.734,10.193,3.677c2.266,1.943,3.837,4.548,4.714,7.816
			c0.486,1.816,0.73,3.813,0.73,5.992c0,1.779-0.171,3.704-0.511,5.774c-0.731,4.539-3.205,8.462-7.418,11.766
			c-4.214,3.305-10.705,5.03-19.475,5.175h-1.168c-8.234,0-14.811-1.598-19.73-4.794c-5.115-3.268-7.674-10.295-7.674-21.08v-0.327
			l18.927-0.817c-0.049,0.618-0.073,1.218-0.073,1.798c0,7.626,2.68,11.566,8.039,11.82c0.389,0.037,0.754,0.055,1.096,0.055
			c5.066,0,8.111-1.997,9.135-5.992c0.292-1.125,0.438-2.196,0.438-3.214c0-2.868-1.096-5.355-3.288-7.463
			c-3.021-2.832-8.015-4.248-14.979-4.248l-0.877-10.351c0.827,0.037,1.607,0.055,2.338,0.055c6.09,0,10.278-1.307,12.568-3.922
			c2.144-2.433,3.216-5.592,3.216-9.479c0-0.762-0.05-1.543-0.146-2.342c-0.438-4.648-3.24-6.973-8.403-6.973h-0.95
			c-5.115,0.255-7.673,4.067-7.673,11.439c0,0.871,0.024,1.798,0.073,2.778L701.078,38.095z"/>
	</g>
	<g>
		<path fill="#FFFFFF" d="M839.236,66.692l-1.535-13.019c8.379-13.653,18.073-27.781,29.084-42.379l23.529,0.98l-0.292,42.052
			l10.304,0.164V67.51h-10.012v22.933l-17.684-0.49l0.219-22.715L839.236,66.692z M873.143,54.491l0.219-28.108
			c-5.359,9.225-11.059,18.503-17.1,27.836L873.143,54.491z"/>
	</g>
	<g>
		<path fill="#DC9B2F" d="M119.8,63.975l-3.761,0.091l-2.21,0.055l-5.01,0.12l-0.61-25.206l15.986-0.39l8.335-0.2v0.74
			c-0.11,1.851-1.16,2.225-2.96,1.915c-1.021-0.181-2.041-0.205-3.041-0.101c-5.165,0.556-9.75,4.69-10.805,10.046
			c-0.58,2.935-0.306,5.98,0.834,8.595C117.284,61.31,118.364,62.8,119.8,63.975z"/>
		<path fill="#DC9A00" d="M301.957,59.54L126.32,63.815c-2.716-0.355-4.82-1.555-6.266-3.556c-0.16-0.225-0.311-0.455-0.45-0.695
			c-1.3-2.22-1.745-5.14-1.18-7.989c0.805-4.11,4.34-7.406,8.399-7.842c0.756-0.079,1.521-0.054,2.281,0.076
			c0.535,0.09,1.015,0.135,1.465,0.135c2.73,0,4.535-1.76,4.705-4.595l0.004-0.94v-0.034l166.062-4.046l0.506,20.797L301.957,59.54z
			"/>
		<path fill="#ABC02F" d="M132.455,66.905c0,4.311,0.03,8.351-0.02,12.331l-2.746,0.07l-15.48,0.374l-0.38-15.561l-0.104-4.15
			l-0.006-0.26l2.84-0.07c0.726,1.67,1.806,3.16,3.241,4.335c1.614,1.326,3.685,2.245,6.21,2.571
			c0.641,0.084,1.305,0.129,2.005,0.129C129.42,66.681,130.82,66.815,132.455,66.905z"/>
		<path fill="#DC9A00" d="M134.408,72.538c0.025-2.806,0.021,1.003,0.018-1.942c-0.004-1.211-0.004-2.44-0.004-3.69v-2.6
			l-5.387-0.146c-0.367-0.03-0.719-0.061-1.057-0.095c-0.775-0.07-1.508-0.141-2.273-0.141c-0.406,0-0.798-0.034-1.2-0.104
			c-0.011,0-0.019-0.005-0.029-0.005c-1.97-0.355-3.497-1.555-4.544-3.556c-0.117-0.225-0.226-0.455-0.327-0.695l132.192-4.438
			l50.034-1.682l0.352,13.338L134.408,72.538z"/>
		<path fill-rule="evenodd" clip-rule="evenodd" fill="#ABC02F" d="M132.387,25.061c-0.016-0.05-0.033-0.095-0.049-0.141
			c-0.091-0.219-0.207-0.396-0.348-0.553c0,0-0.008-0.005-0.012-0.013c-0.445-0.466-1.155-0.676-2.203-0.656
			c-4.85,0.086-9.697,0.025-14.55,0.017c-0.297,0-0.581-0.003-0.841-0.017h-0.005c-2.827-0.11-3.058-0.833-1.952-3.915
			c2.204-6.149-0.961-12.54-7.088-14.335c-0.884-0.261-1.758-0.416-2.621-0.483c-1.729-0.131-3.392,0.104-4.91,0.636
			c-5.051,1.774-8.488,6.833-7.254,12.557c1.205,5.582,1.205,5.569-4.787,5.541c-4.402-0.02-18.623-0.003-22.869-0.003v18.489
			c-0.354,1.791-1.488,2.079-3.895,1.25c-5.896-2.03-11.812,0.087-14.45,5.163c-2.149,4.137-1.526,9.424,1.519,12.906
			c2.963,3.388,8.24,4.683,12.635,3.094c2.6-0.94,3.717-0.915,4.139,0.658c-0.004,0-0.008-0.006-0.012-0.006v18.433
			c0.329,0.054,0.651,0.152,0.973,0.152h0.198c4.948,0.033,9.903,0.021,14.851,0.092c0.797,0.012,11.209,0.086,11.629,0.255
			c1.012,0.4,1.031,1.336,0.599,3.177c-0.532,2.287-1.019,4.857-0.503,7.062c1.312,5.606,6.474,8.83,12.114,8.284
			c0.957-0.09,1.931-0.293,2.905-0.61c6.119-1.996,8.867-8.202,6.47-14.611c-0.999-2.686-0.595-3.301,2.282-3.301
			c0.354,0,0.68-0.104,0.981-0.272c0.945,0,1.878,0,2.806,0.004h2.208c0.569,0.005,1.134,0.005,1.696,0h0.619
			c0.47,0,0.939,0,1.41-0.004c0.244,0,0.487,0,0.73-0.004c0.45,0,0.895-0.004,1.346-0.008c0.243,0,0.49,0,0.734-0.005
			c0.471-0.004,0.94-0.009,1.406-0.016c0.215-0.005,0.434-0.005,0.648-0.009c0.459-0.004,0.916-0.012,1.374-0.025
			c0.224,0,0.441-0.008,0.665-0.013c0.499-0.007,1.395-1.112,1.41-1.72c0.116-4.923,0.066-9.854,0.066-15.205
			c-1.634-0.092-3.033-0.228-4.439-0.231c-0.697,0-1.362-0.045-2.002-0.128c-8.298-1.061-11.648-8.591-10.287-15.502
			c1.053-5.352,5.641-9.491,10.808-10.044c0.998-0.107,2.018-0.078,3.036,0.1c1.799,0.31,2.852-0.066,2.963-1.915v-0.771
			c-0.008-3.961-0.008-7.919,0.05-11.88C132.594,25.947,132.531,25.456,132.387,25.061z"/>
		<g>
			<path fill-rule="evenodd" clip-rule="evenodd" fill="#FFFFFF" d="M71.498,68.093c0.07-0.305,0.117-0.62,0.217-0.914
				c0.54-1.623,1.746-2.532,3.317-3.031c0.13-0.04,0.263-0.07,0.419-0.112c0-1.444,0-2.883,0-4.324c0-0.288-0.006-0.576,0.004-0.863
				c0.022-0.73,0.586-1.338,1.316-1.384c0.503-0.029,1.009-0.005,1.504-0.005c0.156-0.941,0.383-1.222,0.973-1.24
				c0.635-0.021,0.885,0.253,1.082,1.203c0.439,0,0.883,0,1.353,0c-0.155-0.707-0.095-1.37,0.493-1.812
				c0.308-0.233,0.736-0.426,1.111-0.429c6.835-0.023,13.667-0.02,20.501-0.015c1.062,0,1.841,0.944,1.657,1.986
				c-0.014,0.078-0.012,0.158-0.021,0.292c0.167,0,0.314,0,0.461,0c1.358,0,2.717-0.004,4.075,0c1.103,0.003,1.681,0.562,1.683,1.67
				c0.013,2.62,0.011,5.24,0,7.86c-0.002,1.114-0.572,1.672-1.681,1.673c-10.951,0-21.9,0-32.851-0.001
				c-1.107,0-1.656-0.565-1.66-1.68c0-0.248,0-0.493,0-0.742c-0.846,0.093-1.68,1.06-1.732,1.99
				c-0.072,1.272,0.723,2.301,2.095,2.673c1.05,0.286,2.12,0.394,3.212,0.374c1.452-0.022,2.918-0.102,4.354,0.066
				c2.978,0.344,5.395,1.804,7.299,4.104c0.518,0.622,0.333,1.234-0.487,1.8c-0.164,0-0.329,0-0.495,0
				c-0.191-0.172-0.383-0.343-0.576-0.513c-0.727-0.643-1.398-1.365-2.194-1.906c-1.884-1.277-4.03-1.584-6.266-1.56
				c-1.488,0.015-2.99,0.011-4.462-0.17c-1.794-0.216-3.215-1.169-4.09-2.774c-0.32-0.592-0.412-1.31-0.609-1.971
				C71.498,68.257,71.498,68.174,71.498,68.093z"/>
			<path fill-rule="evenodd" clip-rule="evenodd" fill="#FFFFFF" d="M90.932,30.461c0.396,0.094,0.809,0.149,1.188,0.287
				c2.283,0.835,3.737,2.427,4.135,4.837c0.402,2.433-0.47,4.415-2.422,5.908c-0.23,0.178-0.305,0.332-0.246,0.611
				c0.579,2.73,1.146,5.46,1.717,8.19c0.021,0.108,0.058,0.211,0.101,0.36c0.142,0,0.29,0,0.437,0c1.085,0,2.169-0.012,3.253,0.003
				c0.864,0.013,1.403,0.72,1.13,1.451c-0.078,0.209-0.193,0.323-0.45,0.323c-4.144-0.007-8.288-0.01-12.432,0
				c-0.376,0.003-0.475-0.212-0.519-0.497c-0.118-0.733,0.375-1.268,1.188-1.277c0.905-0.013,1.81-0.003,2.717-0.003
				c0.147,0,0.298,0,0.511,0c-0.162-0.783-0.312-1.526-0.467-2.271c-0.375-1.791-0.762-3.583-1.119-5.381
				c-0.055-0.283-0.17-0.37-0.436-0.413c-2.517-0.422-4.438-2.289-4.965-4.802c-0.719-3.432,1.619-6.756,5.096-7.252
				c0.062-0.009,0.122-0.05,0.185-0.076C89.998,30.461,90.465,30.461,90.932,30.461z M94.049,36.312
				c-0.064-1.447-0.553-2.469-1.659-3.135c-0.542-0.324-1.025-0.213-1.313,0.265c-0.279,0.46-0.154,0.797,0.428,1.16
				c0.719,0.448,1.028,1.237,0.809,2.059c-0.035,0.133-0.084,0.264-0.098,0.398c-0.047,0.412,0.279,0.87,0.669,0.969
				c0.386,0.095,0.762-0.12,0.903-0.579C93.918,37.021,93.989,36.574,94.049,36.312z"/>
			<path fill-rule="evenodd" clip-rule="evenodd" fill="#FFFFFF" d="M93.535,54.664c-3.102,0-6.203,0-9.303,0
				c-0.416,0-0.492-0.089-0.453-0.508c0.062-0.662,0.566-1.166,1.229-1.226c0.137-0.013,0.273-0.017,0.41-0.017
				c5.421,0,10.84,0.004,16.259-0.003c0.563,0,1.068,0.092,1.394,0.606c0.087,0.138,0.162,0.291,0.199,0.446
				c0.13,0.582,0.028,0.7-0.559,0.7C99.652,54.664,96.594,54.664,93.535,54.664z"/>
		</g>
		<g>
			<path fill="#FFFFFF" d="M141.01,61.508c1.607-6.016,2.901-11.113,3.881-15.294l5.273-0.2c1.406,4.285,3.017,9.168,4.83,14.646
				l-3.587,0.64l-1.243-3.943l-4.375,0.113l-1.069,4.319L141.01,61.508z M149.975,54.413c-0.526-1.498-1.371-3.284-2.532-5.359
				c-0.808,1.79-1.481,3.641-2.023,5.551L149.975,54.413z"/>
			<path fill="#FFFFFF" d="M163.986,45.999l0.077,2.956l-5.561-0.012l0.103,3.932l4.991-0.225l0.2,2.839l-4.459,0.116l0.135,5.17
				l-3.899-0.035c0.052-1.967,0.052-3.946-0.001-5.938c-0.072-2.763-0.242-5.546-0.512-8.352
				C157.178,46.327,160.152,46.175,163.986,45.999z"/>
			<path fill="#FFFFFF" d="M169.556,60.375l-3.497,0.333c-0.133-5.131-0.371-9.944-0.715-14.44l4.004-0.355
				C169.367,50.661,169.438,55.482,169.556,60.375z"/>
			<path fill="#FFFFFF" d="M170.156,60.748c1.607-6.016,2.9-11.113,3.881-15.295l5.273-0.199c1.406,4.285,3.016,9.168,4.83,14.646
				l-3.588,0.64l-1.242-3.943l-4.375,0.113l-1.07,4.319L170.156,60.748z M179.121,53.653c-0.527-1.498-1.371-3.284-2.533-5.359
				c-0.808,1.79-1.481,3.641-2.023,5.551L179.121,53.653z"/>
			<path fill="#FFFFFF" d="M184.648,60.485c0.049-2.393,0.045-4.723-0.014-6.987c-0.068-2.614-0.21-5.146-0.424-7.597l4.132-0.255
				l4.005,7.798c-0.109-2.711-0.285-5.484-0.527-8.317l4.346-0.155c-0.32,4.296-0.423,8.629-0.309,12.997
				c0.015,0.588,0.035,1.175,0.059,1.762l-3.811,0.13l-4.271-8.345c0.203,3.114,0.392,6.009,0.564,8.684L184.648,60.485z"/>
			<path fill="#FFFFFF" d="M197.774,47.836l0.126-2.73c4.434-0.158,7.645-0.263,9.634-0.315l0.071,2.758
				c-2.381,3.65-4.329,6.702-5.842,9.155c1.089-0.008,2.12-0.024,3.096-0.05c1.135-0.029,2.194-0.071,3.178-0.125l0.217,2.922
				c-2.486-0.012-5.826,0.037-10.018,0.146l-0.375-3.054c2.627-3.58,4.586-6.541,5.877-8.883L197.774,47.836z"/>
			<path fill="#FFFFFF" d="M208.6,59.745c1.607-6.016,2.9-11.113,3.881-15.294l5.273-0.2c1.406,4.286,3.016,9.168,4.83,14.647
				l-3.588,0.64l-1.242-3.944l-4.375,0.114l-1.07,4.319L208.6,59.745z M217.564,52.65c-0.527-1.498-1.371-3.283-2.533-5.358
				c-0.807,1.79-1.481,3.641-2.023,5.551L217.564,52.65z"/>
			<path fill="#FFFFFF" d="M227.533,44.111l3.561,10.778l2.143-10.13l6.416-0.114c-0.054,2.275-0.051,4.569,0.01,6.883
				c0.067,2.579,0.206,5.188,0.416,7.827l-4.088,0.317c-0.072-2.782-0.203-6.183-0.393-10.199l-2.053,9.275l-4.355,0.334
				l-3.072-9.866l0.206,10.066l-3.427,0.269c0.005-2.302-0.021-4.585-0.08-6.85c-0.074-2.824-0.198-5.611-0.373-8.363
				L227.533,44.111z"/>
			<path fill="#FFFFFF" d="M245.247,58.402l-3.496,0.332c-0.134-5.131-0.372-9.944-0.715-14.44l4.003-0.355
				C245.059,48.688,245.129,53.51,245.247,58.402z"/>
			<path fill="#FFFFFF" d="M255.326,43.838l0.077,2.957l-5.561-0.023l0.089,3.439l4.991-0.234l0.2,2.839l-4.459,0.116l0.07,2.663
				l5.837-0.152l0.077,2.978l-9.736,0.149c0.053-1.967,0.052-3.947,0-5.94c-0.072-2.761-0.242-5.544-0.514-8.349
				C248.518,44.162,251.492,44.015,255.326,43.838z"/>
			<path fill="#FFFFFF" d="M258.061,58.571c0.051-2.393,0.046-4.722-0.014-6.986c-0.068-2.614-0.209-5.146-0.423-7.597l4.132-0.256
				l4.004,7.798c-0.107-2.711-0.283-5.483-0.526-8.317l4.345-0.155c-0.319,4.297-0.422,8.629-0.309,12.997
				c0.016,0.588,0.035,1.175,0.061,1.762l-3.811,0.131l-4.272-8.346c0.204,3.115,0.392,6.01,0.565,8.684L258.061,58.571z"/>
			<path fill="#FFFFFF" d="M271.01,46.137l-0.072-2.759c1.379-0.008,2.744-0.029,4.095-0.064c2.101-0.055,4.157-0.14,6.173-0.255
				l0.203,2.933l-3.545,0.092c0.13,4.971,0.303,8.911,0.52,11.823l-3.963,0.249c0.077-4.968,0.121-9.02,0.133-12.153L271.01,46.137z
				"/>
			<path fill="#FFFFFF" d="M289.133,42.601c3.947-0.103,5.986,2.362,6.118,7.395c0.132,5.04-1.918,7.616-6.147,7.726
				c-4.229,0.11-6.412-2.445-6.548-7.667C282.43,45.203,284.621,42.719,289.133,42.601z M286.523,50.506
				c-0.005,0.183-0.006,0.357-0.001,0.525c0.069,2.636,0.929,3.932,2.579,3.889c1.754-0.046,2.592-1.562,2.514-4.547
				c-0.078-2.984-0.933-4.456-2.564-4.413C287.41,46.002,286.567,47.519,286.523,50.506z"/>
		</g>
		<g>
			<path fill="#FFFFFF" d="M147.238,32.714l-0.739,2.433l-1.021,0.022l2.438-7.738l1.179-0.026l2.776,7.623l-1.054,0.023
				l-0.87-2.397L147.238,32.714z M149.738,31.883l-0.809-2.193c-0.182-0.498-0.305-0.952-0.428-1.394h-0.022
				c-0.104,0.447-0.206,0.929-0.354,1.399l-0.699,2.238L149.738,31.883z"/>
			<path fill="#FFFFFF" d="M159.127,34.674c-0.258,0.131-0.832,0.337-1.568,0.353c-1.655,0.037-2.757-1.067-2.794-2.754
				c-0.038-1.698,1.091-2.965,2.882-3.004c0.59-0.014,1.115,0.123,1.389,0.265l-0.209,0.769c-0.24-0.12-0.617-0.249-1.162-0.236
				c-1.258,0.027-1.917,0.988-1.893,2.128c0.029,1.276,0.863,2.045,1.951,2.021c0.566-0.012,0.938-0.157,1.218-0.289L159.127,34.674
				z"/>
			<path fill="#FFFFFF" d="M163.611,27.928l0.029,1.322l1.428-0.031l0.018,0.763l-1.429,0.031l0.065,2.975
				c0.016,0.683,0.217,1.066,0.772,1.054c0.272-0.006,0.431-0.032,0.577-0.081l0.062,0.763c-0.191,0.072-0.496,0.147-0.882,0.156
				c-0.465,0.01-0.842-0.141-1.086-0.397c-0.278-0.303-0.402-0.79-0.417-1.438l-0.066-3.009l-0.851,0.019l-0.017-0.763l0.851-0.019
				l-0.023-1.026L163.611,27.928z"/>
			<path fill="#FFFFFF" d="M169.53,27.568c0.007,0.343-0.224,0.621-0.62,0.63c-0.363,0.009-0.607-0.26-0.615-0.603
				c-0.008-0.342,0.236-0.633,0.61-0.641C169.268,26.947,169.522,27.216,169.53,27.568z M168.576,34.658l-0.122-5.515l0.997-0.021
				l0.122,5.515L168.576,34.658z"/>
			<path fill="#FFFFFF" d="M173.755,29.026l1.146,3.064c0.193,0.509,0.351,0.961,0.473,1.414l0.034-0.001
				c0.115-0.458,0.264-0.917,0.434-1.435l0.997-3.111l1.043-0.022l-2.031,5.562l-0.952,0.021l-2.208-5.469L173.755,29.026z"/>
			<path fill="#FFFFFF" d="M182.16,27.289c0.008,0.343-0.225,0.622-0.621,0.631c-0.362,0.008-0.606-0.261-0.613-0.604
				c-0.008-0.342,0.234-0.632,0.609-0.641C181.897,26.668,182.152,26.937,182.16,27.289z M181.206,34.379l-0.122-5.515l0.997-0.021
				l0.122,5.515L181.206,34.379z"/>
			<path fill="#FFFFFF" d="M190.67,26.075l0.146,6.667c0.012,0.489,0.047,1.048,0.078,1.423l-0.885,0.02l-0.066-0.956l-0.035,0.001
				c-0.28,0.622-0.928,1.103-1.822,1.123c-1.326,0.029-2.383-1.076-2.42-2.751c-0.053-1.835,1.068-2.977,2.395-3.006
				c0.85-0.019,1.414,0.368,1.674,0.795l0.021-0.001l-0.072-3.293L190.67,26.075z M189.79,30.917
				c-0.003-0.125-0.019-0.295-0.055-0.42c-0.161-0.624-0.717-1.137-1.466-1.12c-1.03,0.022-1.622,0.948-1.596,2.156
				c0.025,1.117,0.602,2.028,1.666,2.005c0.669-0.016,1.271-0.484,1.436-1.229c0.031-0.138,0.039-0.275,0.035-0.435L189.79,30.917z"
				/>
			<path fill="#FFFFFF" d="M198.601,32.673c0.011,0.478,0.044,0.945,0.108,1.319l-0.895,0.021l-0.096-0.694l-0.033,0.001
				c-0.297,0.44-0.878,0.84-1.66,0.857c-1.11,0.024-1.694-0.749-1.712-1.546c-0.03-1.334,1.133-2.09,3.253-2.125l-0.002-0.114
				c-0.01-0.444-0.153-1.273-1.275-1.236c-0.521,0.011-1.051,0.171-1.431,0.441l-0.241-0.668c0.447-0.293,1.111-0.502,1.803-0.518
				c1.678-0.037,2.111,1.104,2.135,2.198L198.601,32.673z M197.604,31.201c-1.089,0.002-2.319,0.222-2.296,1.293
				c0.014,0.66,0.451,0.948,0.95,0.937c0.726-0.016,1.181-0.481,1.329-0.952c0.031-0.114,0.04-0.229,0.038-0.32L197.604,31.201z"/>
			<path fill="#FFFFFF" d="M207.049,25.714l0.147,6.667c0.011,0.489,0.046,1.047,0.077,1.423l-0.885,0.02l-0.066-0.956h-0.034
				c-0.28,0.622-0.928,1.104-1.823,1.123c-1.326,0.029-2.383-1.076-2.42-2.751c-0.052-1.834,1.068-2.976,2.395-3.005
				c0.851-0.019,1.414,0.367,1.674,0.794h0.022l-0.073-3.293L207.049,25.714z M206.17,30.556c-0.004-0.125-0.019-0.296-0.055-0.421
				c-0.162-0.624-0.717-1.136-1.465-1.12c-1.031,0.023-1.623,0.949-1.598,2.157c0.025,1.117,0.602,2.027,1.666,2.004
				c0.67-0.015,1.271-0.484,1.436-1.229c0.031-0.138,0.039-0.274,0.036-0.434L206.17,30.556z"/>
		</g>
	</g>
</g>
</svg>
