<?xml version="1.0" encoding="utf-8"?>
<!-- Generator: Adobe Illustrator 16.0.0, SVG Export Plug-In . SVG Version: 6.00 Build 0)  -->
<!DOCTYPE svg PUBLIC "-//W3C//DTD SVG 1.1//EN" "http://www.w3.org/Graphics/SVG/1.1/DTD/svg11.dtd">
<svg version="1.1" id="Capa_1" xmlns="http://www.w3.org/2000/svg" xmlns:xlink="http://www.w3.org/1999/xlink" x="0px" y="0px"
	 width="157.01px" height="43.161px" viewBox="0 0 157.01 43.161" enable-background="new 0 0 157.01 43.161" xml:space="preserve">
<g>
	<path fill="#6F3A89" d="M157.01,31.901c0,6.218-5.041,11.26-11.26,11.26H11.26C5.041,43.161,0,38.119,0,31.901V11.26
		C0,5.041,5.041,0,11.26,0h134.49c6.219,0,11.26,5.041,11.26,11.26V31.901z"/>
	<g>
		<path fill="#E9E338" d="M36.996,15.727h-2.361l-0.938-2.44H29.4l-0.887,2.44h-2.301L30.398,4.98h2.295L36.996,15.727z M33,11.476
			l-1.48-3.987l-1.451,3.987H33z"/>
		<path fill="#E9E338" d="M38.132,15.727V4.98h2.06v10.746H38.132z"/>
		<path fill="#E9E338" d="M42.303,6.887V4.98h2.061v1.906H42.303z M42.303,15.727V7.942h2.061v7.784H42.303z"/>
		<path fill="#E9E338" d="M45.748,13.506l2.066-0.315c0.09,0.4,0.268,0.705,0.535,0.913c0.27,0.208,0.646,0.312,1.129,0.312
			c0.533,0,0.934-0.099,1.203-0.293c0.18-0.137,0.271-0.32,0.271-0.55c0-0.157-0.049-0.286-0.146-0.389
			c-0.104-0.098-0.334-0.188-0.689-0.271c-1.662-0.366-2.715-0.701-3.16-1.004c-0.615-0.421-0.923-1.005-0.923-1.752
			c0-0.675,0.267-1.242,0.798-1.701c0.533-0.459,1.359-0.689,2.479-0.689c1.066,0,1.857,0.174,2.375,0.521
			c0.518,0.347,0.875,0.86,1.07,1.539l-1.942,0.359C50.73,9.882,50.572,9.65,50.34,9.488c-0.23-0.16-0.562-0.241-0.992-0.241
			c-0.543,0-0.932,0.076-1.166,0.228c-0.156,0.107-0.234,0.246-0.234,0.418c0,0.146,0.068,0.271,0.205,0.373
			c0.186,0.137,0.828,0.33,1.924,0.579c1.098,0.249,1.863,0.555,2.299,0.917c0.43,0.366,0.645,0.877,0.645,1.531
			c0,0.714-0.297,1.327-0.895,1.84c-0.596,0.514-1.479,0.771-2.646,0.771c-1.061,0-1.898-0.216-2.518-0.646
			S45.939,14.244,45.748,13.506z"/>
		<path fill="#E9E338" d="M58.393,7.942v1.642h-1.406v3.138c0,0.635,0.014,1.005,0.039,1.11c0.027,0.105,0.088,0.191,0.184,0.26
			c0.096,0.069,0.212,0.104,0.348,0.104c0.191,0,0.467-0.066,0.83-0.198l0.175,1.599c-0.479,0.205-1.022,0.308-1.628,0.308
			c-0.371,0-0.705-0.062-1.004-0.188c-0.297-0.124-0.518-0.286-0.656-0.483c-0.139-0.198-0.234-0.466-0.289-0.803
			c-0.045-0.239-0.066-0.723-0.066-1.451V9.584h-0.945V7.942h0.945V6.396l2.068-1.202v2.749H58.393z"/>
		<path fill="#E9E338" d="M61.361,10.317L59.492,9.98c0.211-0.753,0.572-1.31,1.086-1.672c0.512-0.361,1.275-0.543,2.287-0.543
			c0.918,0,1.602,0.109,2.051,0.327c0.451,0.217,0.768,0.493,0.951,0.828c0.182,0.334,0.273,0.949,0.273,1.844l-0.021,2.404
			c0,0.685,0.033,1.188,0.1,1.514c0.064,0.325,0.189,0.673,0.369,1.044h-2.037c-0.055-0.136-0.121-0.34-0.199-0.607
			c-0.033-0.122-0.059-0.203-0.072-0.242c-0.352,0.342-0.729,0.598-1.129,0.77s-0.828,0.257-1.283,0.257
			c-0.801,0-1.434-0.218-1.895-0.653c-0.461-0.435-0.691-0.984-0.691-1.648c0-0.44,0.104-0.832,0.314-1.177
			c0.209-0.345,0.504-0.608,0.883-0.792s0.926-0.344,1.639-0.48c0.963-0.18,1.63-0.349,2-0.506v-0.205
			c0-0.396-0.098-0.678-0.293-0.846c-0.195-0.169-0.562-0.254-1.105-0.254c-0.367,0-0.653,0.072-0.859,0.217
			C61.656,9.702,61.488,9.955,61.361,10.317z M64.117,11.988c-0.263,0.088-0.682,0.193-1.252,0.315
			c-0.572,0.122-0.947,0.242-1.122,0.359c-0.269,0.19-0.403,0.433-0.403,0.726c0,0.289,0.107,0.538,0.322,0.748
			c0.215,0.209,0.488,0.314,0.82,0.314c0.372,0,0.727-0.121,1.064-0.366c0.248-0.187,0.412-0.413,0.49-0.682
			c0.055-0.176,0.08-0.511,0.08-1.004V11.988z"/>
		<path fill="#E9E338" d="M68.018,7.942h1.898v1.062c0.68-0.825,1.488-1.239,2.426-1.239c0.5,0,0.932,0.104,1.299,0.309
			c0.365,0.205,0.666,0.516,0.9,0.931c0.342-0.415,0.712-0.726,1.107-0.931c0.396-0.205,0.818-0.309,1.268-0.309
			c0.572,0,1.057,0.117,1.453,0.349c0.395,0.231,0.691,0.573,0.887,1.022c0.141,0.333,0.213,0.87,0.213,1.613v4.977h-2.061v-4.449
			c0-0.772-0.07-1.271-0.213-1.495c-0.19-0.294-0.484-0.44-0.879-0.44c-0.289,0-0.561,0.088-0.814,0.265
			c-0.254,0.176-0.438,0.433-0.549,0.773c-0.113,0.34-0.17,0.876-0.17,1.608v3.738h-2.059v-4.266c0-0.758-0.037-1.246-0.109-1.467
			c-0.074-0.22-0.188-0.383-0.342-0.49s-0.363-0.162-0.627-0.162c-0.318,0-0.604,0.086-0.857,0.257
			c-0.254,0.172-0.438,0.418-0.547,0.74c-0.109,0.323-0.164,0.858-0.164,1.605v3.782h-2.061V7.942z"/>
		<path fill="#E9E338" d="M81.52,6.887V4.98h2.061v1.906H81.52z M81.52,15.727V7.942h2.061v7.784H81.52z"/>
		<path fill="#E9E338" d="M90.199,13.249l2.053,0.345c-0.264,0.752-0.68,1.326-1.25,1.719c-0.568,0.394-1.281,0.591-2.137,0.591
			c-1.354,0-2.355-0.442-3.006-1.327c-0.512-0.708-0.77-1.603-0.77-2.683c0-1.29,0.338-2.301,1.012-3.031s1.527-1.097,2.559-1.097
			c1.158,0,2.072,0.383,2.742,1.147c0.67,0.766,0.988,1.937,0.961,3.516h-5.162c0.016,0.61,0.182,1.085,0.498,1.426
			c0.318,0.34,0.715,0.509,1.189,0.509c0.322,0,0.592-0.088,0.812-0.264S90.086,13.641,90.199,13.249z M90.316,11.168
			c-0.014-0.597-0.168-1.05-0.461-1.36s-0.65-0.466-1.07-0.466c-0.451,0-0.822,0.164-1.115,0.492
			c-0.293,0.326-0.436,0.771-0.432,1.334H90.316z"/>
		<path fill="#E9E338" d="M101.121,15.727h-2.059v-3.973c0-0.84-0.045-1.385-0.133-1.631s-0.23-0.439-0.428-0.575
			c-0.197-0.137-0.438-0.206-0.715-0.206c-0.357,0-0.678,0.099-0.961,0.294c-0.283,0.194-0.477,0.454-0.582,0.776
			c-0.105,0.323-0.158,0.92-0.158,1.789v3.525h-2.06V7.942h1.913v1.144c0.68-0.88,1.535-1.32,2.566-1.32
			c0.453,0,0.869,0.082,1.246,0.246c0.375,0.164,0.66,0.373,0.854,0.627s0.326,0.542,0.402,0.865
			c0.076,0.322,0.113,0.784,0.113,1.385V15.727z"/>
		<path fill="#E9E338" d="M106.781,7.942v1.642h-1.408v3.138c0,0.635,0.014,1.005,0.041,1.11s0.088,0.191,0.184,0.26
			c0.096,0.069,0.211,0.104,0.348,0.104c0.191,0,0.467-0.066,0.828-0.198l0.176,1.599c-0.479,0.205-1.021,0.308-1.627,0.308
			c-0.371,0-0.707-0.062-1.004-0.188c-0.299-0.124-0.518-0.286-0.656-0.483c-0.139-0.198-0.236-0.466-0.289-0.803
			c-0.045-0.239-0.066-0.723-0.066-1.451V9.584h-0.945V7.942h0.945V6.396l2.066-1.202v2.749H106.781z"/>
		<path fill="#E9E338" d="M107.734,11.725c0-0.685,0.168-1.346,0.506-1.986c0.336-0.641,0.814-1.129,1.433-1.467
			c0.618-0.337,1.308-0.506,2.071-0.506c1.178,0,2.143,0.383,2.896,1.147c0.75,0.766,1.127,1.731,1.127,2.899
			c0,1.178-0.379,2.154-1.139,2.929s-1.717,1.162-2.871,1.162c-0.713,0-1.393-0.161-2.041-0.484
			c-0.648-0.322-1.141-0.795-1.477-1.418C107.902,13.378,107.734,12.619,107.734,11.725z M109.846,11.835
			c0,0.772,0.184,1.363,0.549,1.773c0.367,0.411,0.818,0.616,1.357,0.616c0.537,0,0.988-0.205,1.352-0.616
			c0.363-0.41,0.547-1.007,0.547-1.788c0-0.763-0.184-1.35-0.547-1.76s-0.814-0.615-1.352-0.615c-0.539,0-0.99,0.205-1.357,0.615
			C110.029,10.471,109.846,11.062,109.846,11.835z"/>
		<path fill="#E9E338" d="M120.576,7.942h2.193l1.861,5.526l1.818-5.526h2.133l-2.75,7.491l-0.49,1.356
			c-0.182,0.454-0.354,0.802-0.518,1.041s-0.352,0.434-0.562,0.583c-0.215,0.148-0.475,0.265-0.785,0.348
			c-0.311,0.084-0.662,0.125-1.053,0.125c-0.395,0-0.783-0.041-1.166-0.125l-0.182-1.612c0.322,0.063,0.611,0.095,0.871,0.095
			c0.48,0,0.834-0.14,1.062-0.421c0.23-0.281,0.406-0.639,0.529-1.074L120.576,7.942z"/>
		<path fill="#E9E338" d="M10.471,28.145l-1.869-0.337c0.209-0.752,0.57-1.31,1.084-1.671c0.514-0.362,1.275-0.543,2.287-0.543
			c0.92,0,1.604,0.109,2.053,0.326s0.767,0.494,0.949,0.828c0.184,0.335,0.275,0.949,0.275,1.844l-0.021,2.404
			c0,0.685,0.033,1.188,0.098,1.514c0.066,0.326,0.19,0.674,0.371,1.045h-2.038c-0.054-0.137-0.12-0.34-0.198-0.608
			c-0.033-0.122-0.059-0.202-0.072-0.242c-0.353,0.342-0.729,0.599-1.129,0.771c-0.4,0.171-0.83,0.256-1.283,0.256
			c-0.803,0-1.434-0.217-1.895-0.652c-0.463-0.436-0.693-0.984-0.693-1.649c0-0.439,0.105-0.832,0.314-1.177
			c0.211-0.344,0.506-0.608,0.885-0.791c0.377-0.184,0.924-0.344,1.638-0.48c0.962-0.181,1.63-0.35,2.001-0.506V28.27
			c0-0.396-0.098-0.678-0.293-0.847s-0.564-0.253-1.107-0.253c-0.366,0-0.652,0.072-0.857,0.216
			C10.764,27.53,10.598,27.783,10.471,28.145z M13.227,29.816c-0.264,0.088-0.682,0.193-1.254,0.314
			c-0.572,0.122-0.945,0.242-1.121,0.359c-0.269,0.191-0.402,0.433-0.402,0.727c0,0.288,0.105,0.537,0.322,0.747
			c0.215,0.21,0.488,0.315,0.82,0.315c0.371,0,0.727-0.122,1.062-0.367c0.25-0.186,0.414-0.413,0.492-0.682
			c0.053-0.176,0.08-0.51,0.08-1.004V29.816z"/>
		<path fill="#E9E338" d="M24.361,33.555h-2.061v-3.973c0-0.841-0.043-1.385-0.131-1.632c-0.088-0.246-0.23-0.438-0.43-0.575
			c-0.197-0.137-0.436-0.205-0.714-0.205c-0.356,0-0.677,0.098-0.96,0.293s-0.479,0.455-0.584,0.777s-0.156,0.919-0.156,1.789v3.525
			h-2.061V25.77h1.914v1.144c0.678-0.88,1.533-1.319,2.564-1.319c0.455,0,0.871,0.082,1.246,0.246
			c0.377,0.164,0.66,0.373,0.855,0.626c0.191,0.254,0.326,0.543,0.402,0.865s0.113,0.784,0.113,1.386V33.555z"/>
		<path fill="#E9E338" d="M27.99,28.145l-1.869-0.337c0.209-0.752,0.572-1.31,1.086-1.671c0.512-0.362,1.274-0.543,2.285-0.543
			c0.92,0,1.604,0.109,2.053,0.326c0.45,0.217,0.766,0.494,0.949,0.828c0.184,0.335,0.275,0.949,0.275,1.844l-0.021,2.404
			c0,0.685,0.033,1.188,0.098,1.514c0.066,0.326,0.19,0.674,0.371,1.045h-2.039c-0.053-0.137-0.119-0.34-0.197-0.608
			c-0.033-0.122-0.059-0.202-0.072-0.242c-0.354,0.342-0.729,0.599-1.129,0.771c-0.4,0.171-0.828,0.256-1.283,0.256
			c-0.801,0-1.434-0.217-1.895-0.652c-0.463-0.436-0.693-0.984-0.693-1.649c0-0.439,0.105-0.832,0.314-1.177
			c0.211-0.344,0.506-0.608,0.885-0.791c0.377-0.184,0.924-0.344,1.637-0.48c0.965-0.181,1.631-0.35,2.002-0.506V28.27
			c0-0.396-0.098-0.678-0.293-0.847s-0.564-0.253-1.107-0.253c-0.365,0-0.652,0.072-0.857,0.216
			C28.283,27.53,28.117,27.783,27.99,28.145z M30.746,29.816c-0.264,0.088-0.682,0.193-1.254,0.314
			c-0.57,0.122-0.945,0.242-1.121,0.359c-0.268,0.191-0.402,0.433-0.402,0.727c0,0.288,0.105,0.537,0.322,0.747
			c0.215,0.21,0.488,0.315,0.82,0.315c0.371,0,0.727-0.122,1.062-0.367c0.25-0.186,0.414-0.413,0.492-0.682
			c0.055-0.176,0.08-0.51,0.08-1.004V29.816z M28.518,24.816l1.012-2.191h2.309l-2.016,2.191H28.518z"/>
		<path fill="#E9E338" d="M34.801,33.555V22.809h2.059v10.746H34.801z"/>
		<path fill="#E9E338" d="M38.971,24.714v-1.905h2.061v1.905H38.971z M38.971,33.555V25.77h2.061v7.785H38.971z"/>
		<path fill="#E9E338" d="M42.416,31.334l2.066-0.315c0.09,0.4,0.268,0.704,0.535,0.912c0.27,0.208,0.646,0.312,1.129,0.312
			c0.533,0,0.936-0.098,1.203-0.293c0.182-0.137,0.271-0.32,0.271-0.55c0-0.156-0.049-0.286-0.146-0.389
			c-0.103-0.098-0.334-0.188-0.689-0.271c-1.662-0.367-2.715-0.701-3.16-1.005c-0.615-0.421-0.924-1.004-0.924-1.752
			c0-0.675,0.268-1.241,0.801-1.7c0.531-0.459,1.357-0.689,2.477-0.689c1.066,0,1.857,0.174,2.375,0.521
			c0.518,0.348,0.875,0.86,1.07,1.539l-1.941,0.359c-0.084-0.304-0.242-0.535-0.474-0.696s-0.563-0.242-0.993-0.242
			c-0.543,0-0.932,0.076-1.166,0.228c-0.156,0.107-0.234,0.247-0.234,0.418c0,0.146,0.068,0.271,0.205,0.374
			c0.186,0.137,0.828,0.33,1.924,0.579c1.098,0.249,1.863,0.554,2.299,0.916c0.43,0.366,0.645,0.877,0.645,1.532
			c0,0.714-0.297,1.326-0.895,1.84c-0.596,0.514-1.477,0.77-2.646,0.77c-1.059,0-1.898-0.215-2.518-0.645
			C43.012,32.656,42.607,32.071,42.416,31.334z"/>
		<path fill="#E9E338" d="M51.492,24.714v-1.905h2.059v1.905H51.492z M51.492,33.555V25.77h2.059v7.785H51.492z"/>
		<path fill="#E9E338" d="M54.938,31.334l2.066-0.315c0.088,0.4,0.267,0.704,0.535,0.912c0.268,0.208,0.645,0.312,1.129,0.312
			c0.531,0,0.934-0.098,1.201-0.293c0.182-0.137,0.271-0.32,0.271-0.55c0-0.156-0.048-0.286-0.146-0.389
			c-0.102-0.098-0.332-0.188-0.689-0.271c-1.66-0.367-2.715-0.701-3.158-1.005c-0.615-0.421-0.924-1.004-0.924-1.752
			c0-0.675,0.266-1.241,0.799-1.7s1.359-0.689,2.479-0.689c1.064,0,1.857,0.174,2.375,0.521c0.518,0.348,0.875,0.86,1.07,1.539
			l-1.943,0.359c-0.084-0.304-0.24-0.535-0.473-0.696s-0.564-0.242-0.993-0.242c-0.542,0-0.931,0.076-1.165,0.228
			c-0.158,0.107-0.234,0.247-0.234,0.418c0,0.146,0.068,0.271,0.205,0.374c0.186,0.137,0.826,0.33,1.924,0.579
			s1.863,0.554,2.297,0.916c0.43,0.366,0.646,0.877,0.646,1.532c0,0.714-0.299,1.326-0.895,1.84c-0.598,0.514-1.479,0.77-2.646,0.77
			c-1.061,0-1.9-0.215-2.518-0.645C55.531,32.656,55.127,32.071,54.938,31.334z"/>
		<path fill="#E9E338" d="M75.322,33.555H73.41v-1.144c-0.318,0.444-0.693,0.776-1.127,0.993c-0.432,0.217-0.867,0.326-1.309,0.326
			c-0.893,0-1.66-0.36-2.297-1.081c-0.638-0.722-0.957-1.727-0.957-3.017c0-1.319,0.311-2.322,0.932-3.009
			c0.619-0.687,1.404-1.03,2.353-1.03c0.87,0,1.623,0.362,2.257,1.085v-3.87h2.061V33.555z M69.824,29.494
			c0,0.83,0.115,1.432,0.346,1.803c0.332,0.538,0.795,0.807,1.393,0.807c0.474,0,0.877-0.202,1.209-0.605
			c0.332-0.402,0.498-1.005,0.498-1.807c0-0.895-0.16-1.538-0.482-1.932c-0.324-0.393-0.736-0.59-1.24-0.59
			c-0.488,0-0.898,0.194-1.227,0.583C69.99,28.141,69.824,28.721,69.824,29.494z"/>
		<path fill="#E9E338" d="M81.861,31.077l2.053,0.345c-0.264,0.752-0.682,1.325-1.25,1.719c-0.568,0.393-1.281,0.59-2.137,0.59
			c-1.354,0-2.355-0.442-3.006-1.326c-0.513-0.709-0.77-1.604-0.77-2.684c0-1.29,0.338-2.301,1.012-3.031s1.527-1.096,2.559-1.096
			c1.158,0,2.072,0.382,2.74,1.147c0.67,0.765,0.99,1.937,0.961,3.515h-5.16c0.014,0.611,0.181,1.086,0.498,1.426
			c0.318,0.34,0.715,0.51,1.188,0.51c0.323,0,0.594-0.088,0.814-0.264C81.582,31.752,81.748,31.469,81.861,31.077z M81.979,28.995
			c-0.016-0.597-0.168-1.049-0.461-1.36c-0.295-0.311-0.65-0.465-1.07-0.465c-0.451,0-0.822,0.164-1.115,0.491
			s-0.438,0.772-0.432,1.334H81.979z"/>
		<path fill="#E9E338" d="M96.662,28.071l-2.031,0.366c-0.068-0.405-0.223-0.711-0.465-0.916s-0.557-0.308-0.943-0.308
			c-0.512,0-0.922,0.177-1.227,0.531c-0.306,0.354-0.459,0.946-0.459,1.778c0,0.923,0.154,1.575,0.465,1.957
			c0.312,0.381,0.729,0.571,1.251,0.571c0.392,0,0.71-0.11,0.96-0.333s0.426-0.605,0.527-1.147l2.023,0.345
			c-0.209,0.928-0.613,1.63-1.209,2.104c-0.598,0.474-1.396,0.711-2.396,0.711c-1.141,0-2.047-0.359-2.725-1.077
			c-0.676-0.719-1.016-1.713-1.016-2.983c0-1.286,0.342-2.287,1.02-3.002c0.68-0.716,1.599-1.074,2.758-1.074
			c0.947,0,1.701,0.204,2.26,0.612C96.016,26.613,96.416,27.236,96.662,28.071z"/>
		<path fill="#E9E338" d="M97.746,29.553c0-0.686,0.168-1.347,0.506-1.987c0.338-0.64,0.814-1.129,1.434-1.466
			s1.309-0.506,2.07-0.506c1.178,0,2.143,0.382,2.896,1.147c0.752,0.765,1.129,1.73,1.129,2.899c0,1.177-0.381,2.154-1.141,2.928
			c-0.76,0.774-1.717,1.162-2.869,1.162c-0.715,0-1.395-0.161-2.043-0.483c-0.646-0.323-1.139-0.796-1.477-1.419
			S97.746,30.446,97.746,29.553z M99.857,29.662c0,0.772,0.184,1.363,0.55,1.774c0.366,0.41,0.818,0.615,1.356,0.615
			c0.537,0,0.988-0.205,1.352-0.615c0.365-0.411,0.547-1.007,0.547-1.789c0-0.763-0.182-1.349-0.547-1.759
			c-0.363-0.411-0.814-0.616-1.352-0.616c-0.538,0-0.99,0.205-1.356,0.616C100.041,28.299,99.857,28.89,99.857,29.662z"/>
		<path fill="#E9E338" d="M114.475,33.555h-2.061v-3.973c0-0.841-0.043-1.385-0.131-1.632c-0.088-0.246-0.23-0.438-0.43-0.575
			c-0.197-0.137-0.436-0.205-0.715-0.205c-0.355,0-0.678,0.098-0.961,0.293c-0.281,0.195-0.477,0.455-0.582,0.777
			s-0.157,0.919-0.157,1.789v3.525h-2.06V25.77h1.913v1.144c0.679-0.88,1.534-1.319,2.565-1.319c0.455,0,0.869,0.082,1.246,0.246
			s0.66,0.373,0.854,0.626c0.193,0.254,0.328,0.543,0.404,0.865s0.113,0.784,0.113,1.386V33.555z"/>
		<path fill="#E9E338" d="M120.133,25.77v1.643h-1.406v3.137c0,0.635,0.014,1.006,0.039,1.111c0.027,0.105,0.089,0.191,0.184,0.26
			c0.096,0.068,0.213,0.103,0.348,0.103c0.191,0,0.467-0.065,0.83-0.198l0.176,1.599c-0.48,0.205-1.021,0.308-1.629,0.308
			c-0.369,0-0.705-0.062-1.004-0.187c-0.297-0.125-0.516-0.286-0.656-0.484c-0.139-0.198-0.234-0.465-0.289-0.803
			c-0.043-0.239-0.065-0.723-0.065-1.451v-3.394h-0.946V25.77h0.946v-1.547l2.067-1.202v2.749H120.133z"/>
		<path fill="#E9E338" d="M126.072,31.077l2.051,0.345c-0.264,0.752-0.68,1.325-1.25,1.719c-0.568,0.393-1.281,0.59-2.135,0.59
			c-1.355,0-2.357-0.442-3.008-1.326c-0.512-0.709-0.77-1.604-0.77-2.684c0-1.29,0.338-2.301,1.013-3.031s1.526-1.096,2.558-1.096
			c1.158,0,2.072,0.382,2.742,1.147c0.67,0.765,0.99,1.937,0.961,3.515h-5.162c0.016,0.611,0.182,1.086,0.5,1.426
			c0.317,0.34,0.713,0.51,1.188,0.51c0.322,0,0.594-0.088,0.812-0.264C125.793,31.752,125.959,31.469,126.072,31.077z
			 M126.188,28.995c-0.014-0.597-0.168-1.049-0.461-1.36c-0.293-0.311-0.65-0.465-1.07-0.465c-0.449,0-0.82,0.164-1.113,0.491
			c-0.295,0.327-0.438,0.772-0.434,1.334H126.188z"/>
		<path fill="#E9E338" d="M128.924,33.555l2.807-4.01l-2.69-3.775h2.515l1.377,2.141l1.451-2.141h2.42l-2.639,3.688l2.881,4.098
			h-2.529l-1.584-2.412l-1.598,2.412H128.924z"/>
		<path fill="#E9E338" d="M141.832,25.77v1.643h-1.408v3.137c0,0.635,0.014,1.006,0.041,1.111c0.026,0.105,0.088,0.191,0.184,0.26
			c0.095,0.068,0.211,0.103,0.348,0.103c0.19,0,0.467-0.065,0.828-0.198L142,33.423c-0.479,0.205-1.021,0.308-1.627,0.308
			c-0.371,0-0.707-0.062-1.004-0.187c-0.299-0.125-0.518-0.286-0.656-0.484c-0.141-0.198-0.236-0.465-0.291-0.803
			c-0.043-0.239-0.064-0.723-0.064-1.451v-3.394h-0.945V25.77h0.945v-1.547l2.066-1.202v2.749H141.832z"/>
		<path fill="#E9E338" d="M142.785,29.553c0-0.686,0.168-1.347,0.506-1.987c0.336-0.64,0.814-1.129,1.432-1.466
			c0.619-0.337,1.309-0.506,2.072-0.506c1.176,0,2.143,0.382,2.895,1.147c0.753,0.765,1.129,1.73,1.129,2.899
			c0,1.177-0.38,2.154-1.141,2.928c-0.758,0.774-1.715,1.162-2.869,1.162c-0.713,0-1.393-0.161-2.041-0.483
			c-0.648-0.323-1.141-0.796-1.477-1.419C142.953,31.205,142.785,30.446,142.785,29.553z M144.896,29.662
			c0,0.772,0.184,1.363,0.549,1.774c0.367,0.41,0.818,0.615,1.355,0.615c0.539,0,0.99-0.205,1.354-0.615
			c0.363-0.411,0.545-1.007,0.545-1.789c0-0.763-0.182-1.349-0.545-1.759c-0.363-0.411-0.814-0.616-1.354-0.616
			c-0.537,0-0.988,0.205-1.355,0.616C145.08,28.299,144.896,28.89,144.896,29.662z"/>
	</g>
</g>
</svg>
