<?xml version="1.0" encoding="utf-8"?>
<!-- Generator: Adobe Illustrator 16.0.0, SVG Export Plug-In . SVG Version: 6.00 Build 0)  -->
<!DOCTYPE svg PUBLIC "-//W3C//DTD SVG 1.1//EN" "http://www.w3.org/Graphics/SVG/1.1/DTD/svg11.dtd">
<svg version="1.1" id="Capa_1" xmlns="http://www.w3.org/2000/svg" xmlns:xlink="http://www.w3.org/1999/xlink" x="0px" y="0px"
	 width="157.008px" height="43.161px" viewBox="0 0 157.008 43.161" enable-background="new 0 0 157.008 43.161"
	 xml:space="preserve">
<g>
	<path fill="#6F3A89" d="M157.008,31.901c0,6.218-5.041,11.26-11.26,11.26H11.26C5.039,43.161,0,38.119,0,31.901V11.26
		C0,5.041,5.039,0,11.26,0h134.488c6.219,0,11.26,5.041,11.26,11.26V31.901z"/>
	<g>
		<path fill="#DDD841" d="M10.286,15.727V4.98h2.171v10.746H10.286z"/>
		<path fill="#DDD841" d="M21.59,15.727h-2.059v-3.973c0-0.84-0.045-1.385-0.133-1.631s-0.23-0.439-0.43-0.575
			c-0.197-0.137-0.436-0.206-0.714-0.206c-0.356,0-0.677,0.099-0.96,0.294c-0.283,0.194-0.478,0.454-0.584,0.776
			c-0.105,0.323-0.156,0.92-0.156,1.789v3.525h-2.061V7.942h1.914v1.144c0.679-0.88,1.533-1.32,2.564-1.32
			c0.455,0,0.87,0.082,1.247,0.246c0.376,0.164,0.661,0.373,0.854,0.627s0.326,0.542,0.402,0.865
			c0.076,0.322,0.113,0.784,0.113,1.385V15.727z"/>
		<path fill="#DDD841" d="M23.68,6.887V4.98h2.059v1.906H23.68z M23.68,15.727V7.942h2.059v7.784H23.68z"/>
		<path fill="#DDD841" d="M34.639,10.244l-2.031,0.366c-0.069-0.405-0.223-0.711-0.465-0.916c-0.242-0.206-0.557-0.308-0.941-0.308
			c-0.514,0-0.924,0.176-1.229,0.531c-0.305,0.354-0.457,0.946-0.457,1.777c0,0.924,0.155,1.576,0.466,1.957s0.727,0.572,1.25,0.572
			c0.391,0,0.711-0.111,0.959-0.334c0.25-0.223,0.426-0.604,0.528-1.146l2.024,0.344c-0.211,0.929-0.613,1.631-1.211,2.104
			c-0.596,0.475-1.395,0.712-2.396,0.712c-1.139,0-2.048-0.359-2.725-1.078c-0.676-0.718-1.014-1.712-1.014-2.983
			c0-1.285,0.34-2.286,1.019-3.002c0.679-0.715,1.599-1.074,2.756-1.074c0.948,0,1.702,0.205,2.262,0.613
			C33.992,8.786,34.395,9.408,34.639,10.244z"/>
		<path fill="#DDD841" d="M36.199,6.887V4.98h2.061v1.906H36.199z M36.199,15.727V7.942h2.061v7.784H36.199z"/>
		<path fill="#DDD841" d="M39.895,11.725c0-0.685,0.168-1.346,0.506-1.986c0.337-0.641,0.814-1.129,1.434-1.467
			c0.617-0.337,1.309-0.506,2.07-0.506c1.178,0,2.143,0.383,2.896,1.147c0.753,0.766,1.128,1.731,1.128,2.899
			c0,1.178-0.379,2.154-1.139,2.929s-1.717,1.162-2.87,1.162c-0.714,0-1.394-0.161-2.042-0.484c-0.648-0.322-1.14-0.795-1.477-1.418
			C40.062,13.378,39.895,12.619,39.895,11.725z M42.006,11.835c0,0.772,0.183,1.363,0.549,1.773
			c0.367,0.411,0.818,0.616,1.357,0.616c0.537,0,0.988-0.205,1.352-0.616c0.363-0.41,0.547-1.007,0.547-1.788
			c0-0.763-0.184-1.35-0.547-1.76s-0.814-0.615-1.352-0.615c-0.539,0-0.99,0.205-1.357,0.615
			C42.188,10.471,42.006,11.062,42.006,11.835z"/>
		<path fill="#DDD841" d="M60.852,15.727h-1.912v-1.143c-0.318,0.443-0.693,0.775-1.127,0.993c-0.432,0.217-0.867,0.326-1.307,0.326
			c-0.895,0-1.662-0.36-2.299-1.081c-0.638-0.722-0.957-1.727-0.957-3.018c0-1.318,0.311-2.322,0.932-3.009
			c0.619-0.687,1.404-1.03,2.354-1.03c0.869,0,1.623,0.362,2.258,1.086V4.98h2.059V15.727z M55.354,11.666
			c0,0.831,0.115,1.432,0.346,1.803c0.332,0.538,0.795,0.807,1.393,0.807c0.474,0,0.877-0.201,1.209-0.604s0.499-1.005,0.499-1.807
			c0-0.895-0.161-1.539-0.483-1.932c-0.322-0.394-0.736-0.591-1.238-0.591c-0.491,0-0.898,0.195-1.229,0.583
			C55.52,10.313,55.354,10.894,55.354,11.666z"/>
		<path fill="#DDD841" d="M67.391,13.249l2.053,0.345c-0.264,0.752-0.681,1.326-1.25,1.719c-0.568,0.394-1.281,0.591-2.137,0.591
			c-1.354,0-2.355-0.442-3.006-1.327c-0.513-0.708-0.77-1.603-0.77-2.683c0-1.29,0.338-2.301,1.012-3.031
			c0.675-0.73,1.527-1.097,2.559-1.097c1.158,0,2.072,0.383,2.742,1.147c0.669,0.766,0.988,1.937,0.959,3.516h-5.16
			c0.016,0.61,0.181,1.085,0.498,1.426c0.318,0.34,0.714,0.509,1.188,0.509c0.323,0,0.593-0.088,0.814-0.264
			C67.112,13.924,67.277,13.641,67.391,13.249z M67.508,11.168c-0.014-0.597-0.169-1.05-0.461-1.36
			c-0.295-0.311-0.65-0.466-1.07-0.466c-0.451,0-0.822,0.164-1.115,0.492c-0.293,0.326-0.438,0.771-0.432,1.334H67.508z"/>
		<path fill="#DDD841" d="M75.344,7.942h1.922v1.144c0.248-0.392,0.586-0.709,1.011-0.953s0.897-0.367,1.415-0.367
			c0.904,0,1.672,0.355,2.303,1.063c0.628,0.708,0.943,1.696,0.943,2.962c0,1.3-0.316,2.31-0.952,3.031
			c-0.636,0.721-1.404,1.081-2.31,1.081c-0.43,0-0.819-0.085-1.168-0.257c-0.35-0.172-0.718-0.465-1.104-0.88v3.922h-2.061V7.942z
			 M77.383,11.703c0,0.875,0.173,1.521,0.52,1.938c0.348,0.418,0.769,0.627,1.269,0.627c0.479,0,0.876-0.191,1.194-0.575
			c0.318-0.385,0.477-1.013,0.477-1.889c0-0.816-0.164-1.422-0.49-1.817c-0.328-0.396-0.732-0.594-1.217-0.594
			c-0.504,0-0.922,0.194-1.254,0.583S77.383,10.94,77.383,11.703z"/>
		<path fill="#DDD841" d="M84.573,15.727V4.98h2.06v10.746H84.573z"/>
		<path fill="#DDD841" d="M90.283,10.317L88.414,9.98c0.211-0.753,0.571-1.31,1.085-1.672c0.513-0.361,1.276-0.543,2.287-0.543
			c0.919,0,1.602,0.109,2.053,0.327c0.45,0.217,0.766,0.493,0.95,0.828c0.183,0.334,0.274,0.949,0.274,1.844l-0.022,2.404
			c0,0.685,0.033,1.188,0.1,1.514c0.065,0.325,0.189,0.673,0.369,1.044h-2.038c-0.054-0.136-0.119-0.34-0.198-0.607
			c-0.033-0.122-0.058-0.203-0.072-0.242c-0.352,0.342-0.729,0.598-1.129,0.77c-0.401,0.172-0.828,0.257-1.283,0.257
			c-0.801,0-1.433-0.218-1.895-0.653c-0.461-0.435-0.692-0.984-0.692-1.648c0-0.44,0.104-0.832,0.314-1.177s0.504-0.608,0.884-0.792
			c0.379-0.184,0.926-0.344,1.638-0.48c0.964-0.18,1.63-0.349,2.001-0.506v-0.205c0-0.396-0.098-0.678-0.293-0.846
			c-0.194-0.169-0.564-0.254-1.105-0.254c-0.367,0-0.654,0.072-0.858,0.217C90.578,9.702,90.41,9.955,90.283,10.317z M93.039,11.988
			c-0.263,0.088-0.682,0.193-1.253,0.315s-0.946,0.242-1.121,0.359c-0.269,0.19-0.403,0.433-0.403,0.726
			c0,0.289,0.107,0.538,0.322,0.748c0.216,0.209,0.488,0.314,0.821,0.314c0.371,0,0.726-0.121,1.063-0.366
			c0.248-0.187,0.412-0.413,0.49-0.682c0.055-0.176,0.08-0.511,0.08-1.004V11.988z"/>
		<path fill="#DDD841" d="M104.175,15.727h-2.06v-3.973c0-0.84-0.045-1.385-0.133-1.631s-0.23-0.439-0.428-0.575
			c-0.198-0.137-0.436-0.206-0.716-0.206c-0.356,0-0.677,0.099-0.96,0.294c-0.283,0.194-0.478,0.454-0.582,0.776
			c-0.105,0.323-0.158,0.92-0.158,1.789v3.525h-2.061V7.942h1.914v1.144c0.679-0.88,1.535-1.32,2.566-1.32
			c0.453,0,0.869,0.082,1.245,0.246s0.661,0.373,0.854,0.627s0.327,0.542,0.402,0.865c0.076,0.322,0.114,0.784,0.114,1.385V15.727z"
			/>
		<path fill="#DDD841" d="M110.772,13.249l2.052,0.345c-0.264,0.752-0.68,1.326-1.25,1.719c-0.568,0.394-1.281,0.591-2.138,0.591
			c-1.353,0-2.354-0.442-3.004-1.327c-0.513-0.708-0.771-1.603-0.771-2.683c0-1.29,0.338-2.301,1.013-3.031
			c0.674-0.73,1.527-1.097,2.558-1.097c1.158,0,2.071,0.383,2.742,1.147c0.67,0.766,0.99,1.937,0.959,3.516h-5.16
			c0.016,0.61,0.181,1.085,0.499,1.426c0.318,0.34,0.713,0.509,1.187,0.509c0.323,0,0.594-0.088,0.814-0.264
			S110.66,13.641,110.772,13.249z M110.889,11.168c-0.014-0.597-0.169-1.05-0.461-1.36c-0.293-0.311-0.65-0.466-1.07-0.466
			c-0.449,0-0.82,0.164-1.113,0.492c-0.293,0.326-0.438,0.771-0.434,1.334H110.889z"/>
		<path fill="#DDD841" d="M113.888,13.506l2.066-0.315c0.089,0.4,0.267,0.705,0.536,0.913c0.268,0.208,0.645,0.312,1.129,0.312
			c0.532,0,0.934-0.099,1.202-0.293c0.181-0.137,0.271-0.32,0.271-0.55c0-0.157-0.049-0.286-0.146-0.389
			c-0.102-0.098-0.332-0.188-0.689-0.271c-1.66-0.366-2.715-0.701-3.158-1.004c-0.617-0.421-0.924-1.005-0.924-1.752
			c0-0.675,0.267-1.242,0.798-1.701c0.532-0.459,1.36-0.689,2.479-0.689c1.064,0,1.856,0.174,2.375,0.521
			c0.518,0.347,0.875,0.86,1.069,1.539l-1.942,0.359c-0.084-0.304-0.242-0.535-0.473-0.697c-0.232-0.16-0.564-0.241-0.994-0.241
			c-0.542,0-0.93,0.076-1.165,0.228c-0.157,0.107-0.234,0.246-0.234,0.418c0,0.146,0.069,0.271,0.204,0.373
			c0.188,0.137,0.828,0.33,1.926,0.579c1.096,0.249,1.861,0.555,2.298,0.917c0.43,0.366,0.646,0.877,0.646,1.531
			c0,0.714-0.299,1.327-0.895,1.84c-0.598,0.514-1.479,0.771-2.646,0.771c-1.061,0-1.9-0.216-2.519-0.646
			S114.078,14.244,113.888,13.506z"/>
		<path fill="#DDD841" d="M134.273,15.727h-1.913v-1.143c-0.317,0.443-0.693,0.775-1.126,0.993
			c-0.432,0.217-0.867,0.326-1.308,0.326c-0.895,0-1.66-0.36-2.298-1.081c-0.639-0.722-0.958-1.727-0.958-3.018
			c0-1.318,0.312-2.322,0.933-3.009c0.619-0.687,1.404-1.03,2.352-1.03c0.871,0,1.623,0.362,2.259,1.086V4.98h2.06V15.727z
			 M128.775,11.666c0,0.831,0.115,1.432,0.346,1.803c0.332,0.538,0.795,0.807,1.393,0.807c0.472,0,0.877-0.201,1.209-0.604
			s0.497-1.005,0.497-1.807c0-0.895-0.159-1.539-0.482-1.932c-0.322-0.394-0.735-0.591-1.239-0.591
			c-0.488,0-0.897,0.195-1.229,0.583C128.941,10.313,128.775,10.894,128.775,11.666z"/>
		<path fill="#DDD841" d="M140.812,13.249l2.053,0.345c-0.264,0.752-0.682,1.326-1.25,1.719c-0.569,0.394-1.283,0.591-2.137,0.591
			c-1.354,0-2.356-0.442-3.007-1.327c-0.513-0.708-0.77-1.603-0.77-2.683c0-1.29,0.339-2.301,1.013-3.031
			c0.673-0.73,1.527-1.097,2.559-1.097c1.158,0,2.07,0.383,2.741,1.147c0.67,0.766,0.988,1.937,0.96,3.516h-5.16
			c0.015,0.61,0.18,1.085,0.498,1.426c0.318,0.34,0.713,0.509,1.187,0.509c0.322,0,0.595-0.088,0.815-0.264
			C140.533,13.924,140.699,13.641,140.812,13.249z M140.93,11.168c-0.015-0.597-0.168-1.05-0.462-1.36
			c-0.293-0.311-0.65-0.466-1.071-0.466c-0.449,0-0.82,0.164-1.113,0.492c-0.293,0.326-0.438,0.771-0.432,1.334H140.93z"/>
		<path fill="#DDD841" d="M11.404,25.77v1.643H9.998v3.137c0,0.635,0.014,1.006,0.039,1.111c0.027,0.105,0.088,0.191,0.183,0.26
			c0.097,0.068,0.213,0.103,0.35,0.103c0.19,0,0.466-0.065,0.827-0.198l0.177,1.599c-0.479,0.205-1.021,0.308-1.628,0.308
			c-0.371,0-0.705-0.062-1.004-0.187c-0.297-0.125-0.518-0.286-0.656-0.484s-0.234-0.465-0.289-0.803
			c-0.044-0.239-0.066-0.723-0.066-1.451v-3.394H6.984V25.77H7.93v-1.547l2.068-1.202v2.749H11.404z"/>
		<path fill="#DDD841" d="M14.807,33.555h-2.061V25.77h1.914v1.107c0.325-0.523,0.621-0.868,0.883-1.034
			c0.261-0.165,0.558-0.249,0.891-0.249c0.469,0,0.92,0.129,1.355,0.389l-0.637,1.796c-0.349-0.225-0.67-0.337-0.969-0.337
			c-0.288,0-0.531,0.079-0.732,0.238c-0.201,0.158-0.359,0.445-0.473,0.861c-0.115,0.415-0.172,1.285-0.172,2.609V33.555z"/>
		<path fill="#DDD841" d="M20.216,28.145l-1.869-0.337c0.21-0.752,0.571-1.31,1.085-1.671c0.514-0.362,1.275-0.543,2.287-0.543
			c0.918,0,1.603,0.109,2.053,0.326c0.448,0.217,0.766,0.494,0.948,0.828c0.185,0.335,0.276,0.949,0.276,1.844l-0.023,2.404
			c0,0.685,0.033,1.188,0.1,1.514c0.066,0.326,0.189,0.674,0.369,1.045h-2.037c-0.055-0.137-0.119-0.34-0.197-0.608
			c-0.035-0.122-0.059-0.202-0.074-0.242c-0.352,0.342-0.729,0.599-1.13,0.771c-0.399,0.171-0.827,0.256-1.282,0.256
			c-0.801,0-1.432-0.217-1.895-0.652c-0.461-0.436-0.691-0.984-0.691-1.649c0-0.439,0.104-0.832,0.314-1.177
			c0.211-0.344,0.505-0.608,0.883-0.791c0.379-0.184,0.926-0.344,1.639-0.48c0.962-0.181,1.631-0.35,2.001-0.506V28.27
			c0-0.396-0.098-0.678-0.292-0.847c-0.195-0.169-0.564-0.253-1.107-0.253c-0.367,0-0.652,0.072-0.857,0.216
			C20.51,27.53,20.344,27.783,20.216,28.145z M22.972,29.816c-0.263,0.088-0.681,0.193-1.253,0.314
			c-0.572,0.122-0.945,0.242-1.121,0.359c-0.27,0.191-0.404,0.433-0.404,0.727c0,0.288,0.107,0.537,0.323,0.747
			s0.487,0.315,0.821,0.315c0.371,0,0.725-0.122,1.062-0.367c0.249-0.186,0.412-0.413,0.491-0.682c0.054-0.176,0.08-0.51,0.08-1.004
			V29.816z"/>
		<path fill="#DDD841" d="M26.937,33.555V22.809h2.062v3.87c0.635-0.723,1.389-1.085,2.257-1.085c0.948,0,1.733,0.344,2.354,1.03
			s0.93,1.672,0.93,2.958c0,1.329-0.314,2.353-0.948,3.071c-0.633,0.718-1.401,1.077-2.305,1.077c-0.445,0-0.884-0.111-1.316-0.334
			c-0.432-0.223-0.805-0.55-1.117-0.985v1.144H26.937z M28.982,29.494c0,0.806,0.127,1.402,0.382,1.788
			c0.355,0.547,0.831,0.821,1.422,0.821c0.454,0,0.843-0.194,1.162-0.583s0.479-1.001,0.479-1.837c0-0.889-0.16-1.53-0.482-1.924
			c-0.323-0.393-0.736-0.59-1.24-0.59c-0.494,0-0.904,0.191-1.23,0.575C29.146,28.129,28.982,28.712,28.982,29.494z"/>
		<path fill="#DDD841" d="M37.736,28.145l-1.869-0.337c0.209-0.752,0.569-1.31,1.084-1.671c0.514-0.362,1.275-0.543,2.286-0.543
			c0.921,0,1.603,0.109,2.054,0.326c0.449,0.217,0.766,0.494,0.949,0.828c0.184,0.335,0.275,0.949,0.275,1.844l-0.021,2.404
			c0,0.685,0.031,1.188,0.098,1.514c0.066,0.326,0.189,0.674,0.371,1.045h-2.039c-0.054-0.137-0.12-0.34-0.197-0.608
			c-0.034-0.122-0.06-0.202-0.073-0.242c-0.353,0.342-0.729,0.599-1.129,0.771c-0.401,0.171-0.829,0.256-1.282,0.256
			c-0.803,0-1.434-0.217-1.896-0.652s-0.693-0.984-0.693-1.649c0-0.439,0.106-0.832,0.315-1.177c0.21-0.344,0.506-0.608,0.884-0.791
			c0.378-0.184,0.925-0.344,1.638-0.48c0.963-0.181,1.631-0.35,2.002-0.506V28.27c0-0.396-0.098-0.678-0.293-0.847
			c-0.196-0.169-0.564-0.253-1.107-0.253c-0.367,0-0.652,0.072-0.858,0.216C38.029,27.53,37.863,27.783,37.736,28.145z
			 M40.492,29.816c-0.264,0.088-0.682,0.193-1.255,0.314c-0.571,0.122-0.944,0.242-1.12,0.359c-0.27,0.191-0.403,0.433-0.403,0.727
			c0,0.288,0.106,0.537,0.321,0.747c0.216,0.21,0.489,0.315,0.822,0.315c0.371,0,0.726-0.122,1.062-0.367
			c0.25-0.186,0.414-0.413,0.49-0.682c0.055-0.176,0.082-0.51,0.082-1.004V29.816z"/>
		<path fill="#DDD841" d="M46.561,25.77v7.543c0,0.992-0.064,1.692-0.193,2.101c-0.13,0.407-0.379,0.727-0.748,0.956
			c-0.369,0.23-0.839,0.345-1.41,0.345c-0.206,0-0.427-0.019-0.664-0.055s-0.492-0.092-0.766-0.165l0.359-1.76
			c0.098,0.02,0.189,0.036,0.274,0.048c0.085,0.013,0.165,0.019,0.237,0.019c0.211,0,0.383-0.045,0.518-0.136
			s0.224-0.198,0.268-0.326c0.044-0.127,0.066-0.509,0.066-1.144V25.77H46.561z M44.502,24.714v-1.905h2.059v1.905H44.502z"/>
		<path fill="#DDD841" d="M48.24,29.553c0-0.686,0.168-1.347,0.506-1.987c0.337-0.64,0.814-1.129,1.434-1.466
			c0.617-0.337,1.307-0.506,2.07-0.506c1.178,0,2.143,0.382,2.895,1.147c0.752,0.765,1.129,1.73,1.129,2.899
			c0,1.177-0.379,2.154-1.139,2.928c-0.76,0.774-1.717,1.162-2.871,1.162c-0.713,0-1.394-0.161-2.041-0.483
			c-0.648-0.323-1.14-0.796-1.477-1.419C48.408,31.205,48.24,30.446,48.24,29.553z M50.352,29.662c0,0.772,0.184,1.363,0.549,1.774
			c0.367,0.41,0.818,0.615,1.357,0.615c0.537,0,0.988-0.205,1.352-0.615c0.363-0.411,0.547-1.007,0.547-1.789
			c0-0.763-0.184-1.349-0.547-1.759c-0.363-0.411-0.814-0.616-1.352-0.616c-0.539,0-0.99,0.205-1.357,0.616
			C50.535,28.299,50.352,28.89,50.352,29.662z"/>
		<path fill="#DDD841" d="M68.846,28.071l-2.03,0.366c-0.069-0.405-0.224-0.711-0.467-0.916c-0.241-0.205-0.555-0.308-0.94-0.308
			c-0.514,0-0.923,0.177-1.229,0.531c-0.305,0.354-0.457,0.946-0.457,1.778c0,0.923,0.154,1.575,0.465,1.957
			c0.311,0.381,0.727,0.571,1.249,0.571c0.392,0,0.712-0.11,0.96-0.333c0.25-0.223,0.425-0.605,0.529-1.147l2.023,0.345
			c-0.212,0.928-0.613,1.63-1.211,2.104c-0.596,0.474-1.395,0.711-2.396,0.711c-1.139,0-2.047-0.359-2.723-1.077
			c-0.678-0.719-1.016-1.713-1.016-2.983c0-1.286,0.34-2.287,1.019-3.002c0.679-0.716,1.598-1.074,2.757-1.074
			c0.947,0,1.701,0.204,2.262,0.612C68.201,26.613,68.602,27.236,68.846,28.071z"/>
		<path fill="#DDD841" d="M69.931,29.553c0-0.686,0.169-1.347,0.506-1.987c0.337-0.64,0.814-1.129,1.433-1.466
			c0.619-0.337,1.309-0.506,2.071-0.506c1.179,0,2.143,0.382,2.895,1.147c0.752,0.765,1.13,1.73,1.13,2.899
			c0,1.177-0.379,2.154-1.139,2.928c-0.761,0.774-1.717,1.162-2.872,1.162c-0.712,0-1.394-0.161-2.04-0.483
			c-0.648-0.323-1.141-0.796-1.478-1.419S69.931,30.446,69.931,29.553z M72.042,29.662c0,0.772,0.183,1.363,0.55,1.774
			c0.367,0.41,0.818,0.615,1.355,0.615c0.539,0,0.989-0.205,1.354-0.615c0.363-0.411,0.546-1.007,0.546-1.789
			c0-0.763-0.183-1.349-0.546-1.759c-0.364-0.411-0.814-0.616-1.354-0.616c-0.537,0-0.988,0.205-1.355,0.616
			C72.225,28.299,72.042,28.89,72.042,29.662z"/>
		<path fill="#DDD841" d="M86.658,33.555H84.6v-3.973c0-0.841-0.045-1.385-0.133-1.632c-0.088-0.246-0.23-0.438-0.429-0.575
			c-0.199-0.137-0.437-0.205-0.714-0.205c-0.357,0-0.678,0.098-0.961,0.293s-0.477,0.455-0.583,0.777
			c-0.104,0.322-0.158,0.919-0.158,1.789v3.525h-2.06V25.77h1.914v1.144c0.678-0.88,1.535-1.319,2.565-1.319
			c0.454,0,0.87,0.082,1.245,0.246c0.377,0.164,0.662,0.373,0.855,0.626c0.193,0.254,0.326,0.543,0.402,0.865
			s0.113,0.784,0.113,1.386V33.555z"/>
		<path fill="#DDD841" d="M95.535,28.071l-2.029,0.366c-0.069-0.405-0.225-0.711-0.467-0.916c-0.24-0.205-0.555-0.308-0.941-0.308
			c-0.513,0-0.922,0.177-1.228,0.531s-0.458,0.946-0.458,1.778c0,0.923,0.154,1.575,0.465,1.957c0.311,0.381,0.727,0.571,1.25,0.571
			c0.391,0,0.711-0.11,0.96-0.333s0.425-0.605,0.528-1.147l2.023,0.345c-0.211,0.928-0.613,1.63-1.209,2.104
			c-0.598,0.474-1.396,0.711-2.397,0.711c-1.14,0-2.047-0.359-2.724-1.077c-0.677-0.719-1.016-1.713-1.016-2.983
			c0-1.286,0.34-2.287,1.02-3.002c0.68-0.716,1.598-1.074,2.756-1.074c0.949,0,1.701,0.204,2.262,0.612
			C94.891,26.613,95.291,27.236,95.535,28.071z"/>
		<path fill="#DDD841" d="M101.604,31.077l2.054,0.345c-0.264,0.752-0.682,1.325-1.25,1.719c-0.569,0.393-1.281,0.59-2.137,0.59
			c-1.354,0-2.355-0.442-3.006-1.326c-0.514-0.709-0.77-1.604-0.77-2.684c0-1.29,0.338-2.301,1.012-3.031s1.527-1.096,2.558-1.096
			c1.159,0,2.073,0.382,2.742,1.147c0.669,0.765,0.989,1.937,0.96,3.515h-5.16c0.015,0.611,0.18,1.086,0.497,1.426
			c0.319,0.34,0.716,0.51,1.188,0.51c0.324,0,0.594-0.088,0.814-0.264C101.326,31.752,101.494,31.469,101.604,31.077z
			 M101.723,28.995c-0.014-0.597-0.168-1.049-0.461-1.36c-0.294-0.311-0.65-0.465-1.07-0.465c-0.451,0-0.822,0.164-1.115,0.491
			c-0.294,0.327-0.437,0.772-0.432,1.334H101.723z"/>
		<path fill="#DDD841" d="M107.418,33.555h-2.059V25.77h1.912v1.107c0.328-0.523,0.623-0.868,0.883-1.034
			c0.262-0.165,0.559-0.249,0.892-0.249c0.47,0,0.921,0.129,1.355,0.389l-0.638,1.796c-0.347-0.225-0.669-0.337-0.967-0.337
			c-0.289,0-0.533,0.079-0.732,0.238c-0.201,0.158-0.359,0.445-0.474,0.861c-0.114,0.415-0.173,1.285-0.173,2.609V33.555z"/>
		<path fill="#DDD841" d="M114.859,25.77v1.643h-1.408v3.137c0,0.635,0.014,1.006,0.041,1.111c0.025,0.105,0.088,0.191,0.184,0.26
			c0.094,0.068,0.211,0.103,0.348,0.103c0.19,0,0.467-0.065,0.828-0.198l0.176,1.599c-0.479,0.205-1.021,0.308-1.627,0.308
			c-0.371,0-0.707-0.062-1.004-0.187c-0.299-0.125-0.518-0.286-0.656-0.484c-0.14-0.198-0.237-0.465-0.289-0.803
			c-0.046-0.239-0.066-0.723-0.066-1.451v-3.394h-0.945V25.77h0.945v-1.547l2.066-1.202v2.749H114.859z"/>
		<path fill="#DDD841" d="M117.828,28.145l-1.869-0.337c0.209-0.752,0.57-1.31,1.084-1.671c0.514-0.362,1.275-0.543,2.287-0.543
			c0.92,0,1.603,0.109,2.053,0.326s0.766,0.494,0.949,0.828c0.184,0.335,0.275,0.949,0.275,1.844l-0.021,2.404
			c0,0.685,0.033,1.188,0.098,1.514c0.066,0.326,0.19,0.674,0.371,1.045h-2.038c-0.054-0.137-0.12-0.34-0.199-0.608
			c-0.032-0.122-0.058-0.202-0.071-0.242c-0.354,0.342-0.729,0.599-1.129,0.771c-0.401,0.171-0.83,0.256-1.283,0.256
			c-0.803,0-1.434-0.217-1.895-0.652c-0.463-0.436-0.693-0.984-0.693-1.649c0-0.439,0.105-0.832,0.314-1.177
			c0.211-0.344,0.506-0.608,0.884-0.791c0.377-0.184,0.925-0.344,1.639-0.48c0.963-0.181,1.63-0.35,2.001-0.506V28.27
			c0-0.396-0.098-0.678-0.293-0.847s-0.564-0.253-1.107-0.253c-0.366,0-0.652,0.072-0.857,0.216
			C118.121,27.53,117.954,27.783,117.828,28.145z M120.584,29.816c-0.264,0.088-0.682,0.193-1.254,0.314
			c-0.571,0.122-0.945,0.242-1.121,0.359c-0.269,0.191-0.404,0.433-0.404,0.727c0,0.288,0.108,0.537,0.324,0.747
			c0.215,0.21,0.488,0.315,0.82,0.315c0.371,0,0.727-0.122,1.062-0.367c0.25-0.186,0.414-0.413,0.491-0.682
			c0.054-0.176,0.081-0.51,0.081-1.004V29.816z"/>
		<path fill="#DDD841" d="M131.777,33.555h-1.913v-1.144c-0.317,0.444-0.693,0.776-1.126,0.993
			c-0.432,0.217-0.868,0.326-1.308,0.326c-0.894,0-1.661-0.36-2.298-1.081c-0.639-0.722-0.957-1.727-0.957-3.017
			c0-1.319,0.311-2.322,0.932-3.009c0.62-0.687,1.404-1.03,2.352-1.03c0.871,0,1.624,0.362,2.259,1.085v-3.87h2.06V33.555z
			 M126.279,29.494c0,0.83,0.115,1.432,0.346,1.803c0.332,0.538,0.794,0.807,1.393,0.807c0.473,0,0.877-0.202,1.209-0.605
			c0.332-0.402,0.498-1.005,0.498-1.807c0-0.895-0.16-1.538-0.482-1.932c-0.323-0.393-0.736-0.59-1.24-0.59
			c-0.488,0-0.897,0.194-1.229,0.583C126.445,28.141,126.279,28.721,126.279,29.494z"/>
		<path fill="#DDD841" d="M133.332,29.553c0-0.686,0.167-1.347,0.506-1.987c0.337-0.64,0.814-1.129,1.432-1.466
			c0.618-0.337,1.309-0.506,2.072-0.506c1.178,0,2.143,0.382,2.895,1.147c0.753,0.765,1.129,1.73,1.129,2.899
			c0,1.177-0.38,2.154-1.139,2.928c-0.76,0.774-1.717,1.162-2.871,1.162c-0.713,0-1.393-0.161-2.041-0.483
			c-0.647-0.323-1.14-0.796-1.477-1.419C133.499,31.205,133.332,30.446,133.332,29.553z M135.443,29.662
			c0,0.772,0.183,1.363,0.549,1.774c0.367,0.41,0.818,0.615,1.356,0.615s0.989-0.205,1.353-0.615
			c0.363-0.411,0.547-1.007,0.547-1.789c0-0.763-0.184-1.349-0.547-1.759c-0.363-0.411-0.814-0.616-1.353-0.616
			s-0.989,0.205-1.356,0.616C135.626,28.299,135.443,28.89,135.443,29.662z"/>
		<path fill="#DDD841" d="M142.252,31.334l2.068-0.315c0.088,0.4,0.266,0.704,0.535,0.912c0.267,0.208,0.644,0.312,1.129,0.312
			c0.532,0,0.934-0.098,1.201-0.293c0.182-0.137,0.271-0.32,0.271-0.55c0-0.156-0.049-0.286-0.146-0.389
			c-0.104-0.098-0.332-0.188-0.689-0.271c-1.66-0.367-2.716-0.701-3.158-1.005c-0.616-0.421-0.925-1.004-0.925-1.752
			c0-0.675,0.266-1.241,0.8-1.7c0.532-0.459,1.359-0.689,2.478-0.689c1.065,0,1.856,0.174,2.374,0.521
			c0.518,0.348,0.876,0.86,1.07,1.539l-1.941,0.359c-0.085-0.304-0.24-0.535-0.473-0.696s-0.564-0.242-0.994-0.242
			c-0.543,0-0.932,0.076-1.166,0.228c-0.156,0.107-0.233,0.247-0.233,0.418c0,0.146,0.068,0.271,0.206,0.374
			c0.186,0.137,0.826,0.33,1.924,0.579c1.096,0.249,1.862,0.554,2.297,0.916c0.43,0.366,0.646,0.877,0.646,1.532
			c0,0.714-0.298,1.326-0.894,1.84c-0.598,0.514-1.479,0.77-2.646,0.77c-1.061,0-1.901-0.215-2.52-0.645
			C142.848,32.656,142.443,32.071,142.252,31.334z"/>
	</g>
</g>
</svg>
