<?xml version="1.0" encoding="utf-8"?>
<!-- Generator: Adobe Illustrator 16.0.0, SVG Export Plug-In . SVG Version: 6.00 Build 0)  -->
<!DOCTYPE svg PUBLIC "-//W3C//DTD SVG 1.1//EN" "http://www.w3.org/Graphics/SVG/1.1/DTD/svg11.dtd">
<svg version="1.1" id="Capa_1" xmlns="http://www.w3.org/2000/svg" xmlns:xlink="http://www.w3.org/1999/xlink" x="0px" y="0px"
	 width="157.008px" height="43.161px" viewBox="0 0 157.008 43.161" enable-background="new 0 0 157.008 43.161"
	 xml:space="preserve">
<g>
	<path fill="#6F3A89" d="M157.008,31.901c0,6.218-5.039,11.26-11.259,11.26H11.26C5.041,43.161,0,38.119,0,31.901V11.26
		C0,5.041,5.041,0,11.26,0h134.489c6.22,0,11.259,5.041,11.259,11.26V31.901z"/>
	<g>
		<path fill="#DDD841" d="M44.165,15.727L40.324,4.98h2.352l2.721,7.953l2.633-7.953h2.301l-3.85,10.746H44.165z"/>
		<path fill="#DDD841" d="M52.133,10.317L50.264,9.98c0.209-0.753,0.572-1.31,1.084-1.672c0.514-0.361,1.277-0.543,2.288-0.543
			c0.919,0,1.603,0.109,2.053,0.327c0.45,0.217,0.767,0.493,0.948,0.828c0.184,0.334,0.275,0.949,0.275,1.844l-0.021,2.404
			c0,0.685,0.032,1.188,0.099,1.514s0.19,0.673,0.37,1.044h-2.037c-0.055-0.136-0.121-0.34-0.199-0.607
			c-0.033-0.122-0.059-0.203-0.072-0.242c-0.352,0.342-0.729,0.598-1.129,0.77c-0.401,0.172-0.828,0.257-1.283,0.257
			c-0.801,0-1.433-0.218-1.895-0.653c-0.463-0.435-0.693-0.984-0.693-1.648c0-0.44,0.105-0.832,0.316-1.177
			c0.209-0.345,0.504-0.608,0.883-0.792s0.924-0.344,1.639-0.48c0.963-0.18,1.629-0.349,2-0.506v-0.205
			c0-0.396-0.099-0.678-0.293-0.846c-0.195-0.169-0.564-0.254-1.106-0.254c-0.367,0-0.652,0.072-0.858,0.217
			C52.426,9.702,52.26,9.955,52.133,10.317z M54.889,11.988c-0.264,0.088-0.683,0.193-1.253,0.315
			c-0.571,0.122-0.946,0.242-1.122,0.359c-0.268,0.19-0.402,0.433-0.402,0.726c0,0.289,0.107,0.538,0.322,0.748
			c0.215,0.209,0.488,0.314,0.821,0.314c0.371,0,0.726-0.121,1.062-0.366c0.25-0.187,0.414-0.413,0.491-0.682
			c0.056-0.176,0.081-0.511,0.081-1.004V11.988z"/>
		<path fill="#DDD841" d="M58.943,15.727V4.98h2.06v10.746H58.943z"/>
		<path fill="#DDD841" d="M62.637,11.725c0-0.685,0.17-1.346,0.507-1.986s0.814-1.129,1.433-1.467
			c0.619-0.337,1.309-0.506,2.071-0.506c1.177,0,2.143,0.383,2.896,1.147c0.752,0.766,1.129,1.731,1.129,2.899
			c0,1.178-0.382,2.154-1.141,2.929s-1.715,1.162-2.869,1.162c-0.714,0-1.394-0.161-2.041-0.484
			c-0.649-0.322-1.141-0.795-1.478-1.418S62.637,12.619,62.637,11.725z M64.749,11.835c0,0.772,0.183,1.363,0.55,1.773
			c0.366,0.411,0.818,0.616,1.355,0.616c0.538,0,0.989-0.205,1.353-0.616c0.363-0.41,0.546-1.007,0.546-1.788
			c0-0.763-0.183-1.35-0.546-1.76s-0.814-0.615-1.353-0.615c-0.537,0-0.989,0.205-1.355,0.615
			C64.932,10.471,64.749,11.062,64.749,11.835z"/>
		<path fill="#DDD841" d="M74.256,15.727h-2.059V7.942h1.912v1.106c0.328-0.523,0.623-0.867,0.884-1.033s0.558-0.25,0.89-0.25
			c0.47,0,0.921,0.13,1.357,0.389l-0.639,1.797c-0.347-0.225-0.67-0.338-0.967-0.338c-0.289,0-0.533,0.08-0.733,0.238
			s-0.358,0.446-0.474,0.861c-0.113,0.415-0.172,1.285-0.172,2.609V15.727z"/>
		<path fill="#DDD841" d="M79.666,10.317L77.797,9.98c0.21-0.753,0.572-1.31,1.085-1.672c0.513-0.361,1.275-0.543,2.286-0.543
			c0.92,0,1.604,0.109,2.053,0.327c0.451,0.217,0.768,0.493,0.95,0.828c0.182,0.334,0.274,0.949,0.274,1.844l-0.022,2.404
			c0,0.685,0.034,1.188,0.099,1.514c0.066,0.325,0.191,0.673,0.371,1.044h-2.037c-0.055-0.136-0.121-0.34-0.198-0.607
			c-0.035-0.122-0.059-0.203-0.073-0.242c-0.352,0.342-0.729,0.598-1.129,0.77s-0.828,0.257-1.283,0.257
			c-0.802,0-1.434-0.218-1.895-0.653c-0.462-0.435-0.693-0.984-0.693-1.648c0-0.44,0.104-0.832,0.315-1.177
			c0.21-0.345,0.505-0.608,0.884-0.792c0.378-0.184,0.923-0.344,1.639-0.48c0.963-0.18,1.629-0.349,2-0.506v-0.205
			c0-0.396-0.098-0.678-0.293-0.846c-0.195-0.169-0.564-0.254-1.107-0.254c-0.365,0-0.651,0.072-0.857,0.217
			C79.958,9.702,79.793,9.955,79.666,10.317z M82.422,11.988c-0.265,0.088-0.682,0.193-1.254,0.315
			c-0.57,0.122-0.945,0.242-1.121,0.359c-0.268,0.19-0.402,0.433-0.402,0.726c0,0.289,0.107,0.538,0.322,0.748
			c0.215,0.209,0.488,0.314,0.819,0.314c0.371,0,0.728-0.121,1.064-0.366c0.249-0.187,0.413-0.413,0.491-0.682
			c0.055-0.176,0.08-0.511,0.08-1.004V11.988z"/>
		<path fill="#DDD841" d="M93.264,10.244l-2.031,0.366c-0.067-0.405-0.223-0.711-0.465-0.916c-0.24-0.206-0.557-0.308-0.941-0.308
			c-0.514,0-0.922,0.176-1.229,0.531c-0.305,0.354-0.458,0.946-0.458,1.777c0,0.924,0.155,1.576,0.466,1.957s0.727,0.572,1.25,0.572
			c0.391,0,0.711-0.111,0.961-0.334c0.248-0.223,0.424-0.604,0.527-1.146l2.023,0.344c-0.211,0.929-0.613,1.631-1.21,2.104
			c-0.597,0.475-1.396,0.712-2.397,0.712c-1.139,0-2.046-0.359-2.723-1.078c-0.678-0.718-1.016-1.712-1.016-2.983
			c0-1.285,0.34-2.286,1.02-3.002c0.679-0.715,1.598-1.074,2.756-1.074c0.948,0,1.701,0.205,2.262,0.613
			C92.618,8.786,93.02,9.408,93.264,10.244z"/>
		<path fill="#DDD841" d="M94.826,6.887V4.98h2.059v1.906H94.826z M94.826,15.727V7.942h2.059v7.784H94.826z"/>
		<path fill="#DDD841" d="M98.52,11.725c0-0.685,0.169-1.346,0.505-1.986c0.339-0.641,0.814-1.129,1.434-1.467
			c0.62-0.337,1.31-0.506,2.071-0.506c1.177,0,2.143,0.383,2.896,1.147c0.752,0.766,1.129,1.731,1.129,2.899
			c0,1.178-0.381,2.154-1.141,2.929s-1.717,1.162-2.869,1.162c-0.715,0-1.395-0.161-2.042-0.484
			c-0.647-0.322-1.14-0.795-1.479-1.418C98.688,13.378,98.52,12.619,98.52,11.725z M100.631,11.835c0,0.772,0.184,1.363,0.551,1.773
			c0.365,0.411,0.818,0.616,1.355,0.616s0.987-0.205,1.352-0.616c0.365-0.41,0.547-1.007,0.547-1.788c0-0.763-0.182-1.35-0.547-1.76
			c-0.364-0.41-0.814-0.615-1.352-0.615s-0.99,0.205-1.355,0.615C100.814,10.471,100.631,11.062,100.631,11.835z M101.496,6.989
			l1.011-2.192h2.31l-2.016,2.192H101.496z"/>
		<path fill="#DDD841" d="M115.248,15.727h-2.06v-3.973c0-0.84-0.044-1.385-0.133-1.631c-0.087-0.246-0.23-0.439-0.429-0.575
			c-0.197-0.137-0.436-0.206-0.715-0.206c-0.356,0-0.676,0.099-0.959,0.294c-0.283,0.194-0.479,0.454-0.584,0.776
			c-0.105,0.323-0.158,0.92-0.158,1.789v3.525h-2.059V7.942h1.912v1.144c0.68-0.88,1.535-1.32,2.566-1.32
			c0.455,0,0.869,0.082,1.246,0.246s0.661,0.373,0.854,0.627c0.192,0.254,0.327,0.542,0.403,0.865
			c0.076,0.322,0.113,0.784,0.113,1.385V15.727z"/>
		<path fill="#DDD841" d="M14.422,28.071l-2.031,0.366c-0.068-0.405-0.223-0.711-0.465-0.916s-0.557-0.308-0.941-0.308
			c-0.514,0-0.924,0.177-1.229,0.531s-0.458,0.946-0.458,1.778c0,0.923,0.155,1.575,0.466,1.957c0.31,0.381,0.726,0.571,1.25,0.571
			c0.391,0,0.71-0.11,0.959-0.333c0.25-0.223,0.426-0.605,0.528-1.147l2.023,0.345c-0.21,0.928-0.612,1.63-1.21,2.104
			c-0.596,0.474-1.395,0.711-2.396,0.711c-1.139,0-2.047-0.359-2.723-1.077C7.518,31.935,7.18,30.94,7.18,29.67
			c0-1.286,0.34-2.287,1.018-3.002c0.68-0.716,1.6-1.074,2.757-1.074c0.947,0,1.702,0.204,2.261,0.612
			C13.775,26.613,14.178,27.236,14.422,28.071z"/>
		<path fill="#DDD841" d="M15.507,29.553c0-0.686,0.168-1.347,0.505-1.987c0.338-0.64,0.814-1.129,1.434-1.466
			s1.309-0.506,2.07-0.506c1.178,0,2.145,0.382,2.896,1.147c0.752,0.765,1.129,1.73,1.129,2.899c0,1.177-0.381,2.154-1.141,2.928
			c-0.761,0.774-1.716,1.162-2.869,1.162c-0.715,0-1.395-0.161-2.042-0.483c-0.647-0.323-1.14-0.796-1.478-1.419
			C15.675,31.205,15.507,30.446,15.507,29.553z M17.617,29.662c0,0.772,0.184,1.363,0.551,1.774c0.366,0.41,0.818,0.615,1.355,0.615
			s0.988-0.205,1.354-0.615c0.363-0.411,0.545-1.007,0.545-1.789c0-0.763-0.182-1.349-0.545-1.759
			c-0.365-0.411-0.816-0.616-1.354-0.616s-0.989,0.205-1.355,0.616C17.801,28.299,17.617,28.89,17.617,29.662z"/>
		<path fill="#DDD841" d="M32.234,33.555h-2.06v-3.973c0-0.841-0.044-1.385-0.132-1.632c-0.089-0.246-0.23-0.438-0.43-0.575
			c-0.197-0.137-0.436-0.205-0.714-0.205c-0.356,0-0.677,0.098-0.96,0.293s-0.478,0.455-0.583,0.777s-0.157,0.919-0.157,1.789v3.525
			h-2.061V25.77h1.913v1.144c0.679-0.88,1.535-1.319,2.565-1.319c0.455,0,0.871,0.082,1.246,0.246
			c0.377,0.164,0.661,0.373,0.854,0.626c0.193,0.254,0.328,0.543,0.404,0.865s0.113,0.784,0.113,1.386V33.555z"/>
		<path fill="#DDD841" d="M37.895,25.77v1.643h-1.408v3.137c0,0.635,0.014,1.006,0.041,1.111c0.025,0.105,0.088,0.191,0.183,0.26
			c0.094,0.068,0.212,0.103,0.349,0.103c0.189,0,0.466-0.065,0.828-0.198l0.176,1.599c-0.48,0.205-1.021,0.308-1.627,0.308
			c-0.371,0-0.707-0.062-1.005-0.187c-0.298-0.125-0.517-0.286-0.655-0.484c-0.141-0.198-0.237-0.465-0.289-0.803
			c-0.046-0.239-0.067-0.723-0.067-1.451v-3.394h-0.946V25.77h0.946v-1.547l2.067-1.202v2.749H37.895z"/>
		<path fill="#DDD841" d="M39.322,24.714v-1.905h2.061v1.905H39.322z M39.322,33.555V25.77h2.061v7.785H39.322z"/>
		<path fill="#DDD841" d="M50.574,33.555h-2.059v-3.973c0-0.841-0.044-1.385-0.133-1.632c-0.088-0.246-0.23-0.438-0.429-0.575
			s-0.436-0.205-0.714-0.205c-0.357,0-0.678,0.098-0.961,0.293s-0.477,0.455-0.582,0.777c-0.106,0.322-0.159,0.919-0.159,1.789
			v3.525h-2.059V25.77h1.913v1.144c0.68-0.88,1.535-1.319,2.565-1.319c0.455,0,0.87,0.082,1.247,0.246
			c0.376,0.164,0.66,0.373,0.854,0.626c0.193,0.254,0.327,0.543,0.403,0.865s0.112,0.784,0.112,1.386V33.555z"/>
		<path fill="#DDD841" d="M57.789,33.555v-1.166c-0.283,0.416-0.656,0.744-1.118,0.982c-0.462,0.239-0.95,0.359-1.462,0.359
			c-0.523,0-0.994-0.114-1.408-0.345c-0.415-0.229-0.716-0.552-0.901-0.968c-0.187-0.414-0.278-0.989-0.278-1.723V25.77h2.059v3.577
			c0,1.095,0.039,1.767,0.114,2.013c0.076,0.246,0.213,0.442,0.415,0.586c0.2,0.145,0.453,0.217,0.762,0.217
			c0.352,0,0.666-0.097,0.945-0.29s0.469-0.433,0.572-0.718c0.103-0.286,0.154-0.986,0.154-2.101V25.77h2.059v7.785H57.789z"/>
		<path fill="#DDD841" d="M61.835,24.714v-1.905h2.06v1.905H61.835z M61.835,33.555V25.77h2.06v7.785H61.835z"/>
		<path fill="#DDD841" d="M73.146,33.555h-1.914v-1.144c-0.318,0.444-0.693,0.776-1.125,0.993c-0.433,0.217-0.869,0.326-1.309,0.326
			c-0.895,0-1.66-0.36-2.298-1.081c-0.638-0.722-0.958-1.727-0.958-3.017c0-1.319,0.312-2.322,0.932-3.009
			c0.621-0.687,1.404-1.03,2.354-1.03c0.869,0,1.623,0.362,2.258,1.085v-3.87h2.061V33.555z M67.648,29.494
			c0,0.83,0.114,1.432,0.344,1.803c0.333,0.538,0.797,0.807,1.393,0.807c0.475,0,0.877-0.202,1.21-0.605
			c0.333-0.402,0.499-1.005,0.499-1.807c0-0.895-0.162-1.538-0.484-1.932c-0.322-0.393-0.736-0.59-1.239-0.59
			c-0.487,0-0.897,0.194-1.228,0.583C67.812,28.141,67.648,28.721,67.648,29.494z"/>
		<path fill="#DDD841" d="M76.715,28.145l-1.868-0.337c0.209-0.752,0.571-1.31,1.085-1.671c0.514-0.362,1.274-0.543,2.287-0.543
			c0.92,0,1.603,0.109,2.053,0.326c0.449,0.217,0.766,0.494,0.948,0.828c0.185,0.335,0.274,0.949,0.274,1.844l-0.021,2.404
			c0,0.685,0.033,1.188,0.1,1.514c0.066,0.326,0.189,0.674,0.369,1.045h-2.037c-0.054-0.137-0.119-0.34-0.198-0.608
			c-0.034-0.122-0.058-0.202-0.073-0.242c-0.352,0.342-0.729,0.599-1.129,0.771c-0.4,0.171-0.829,0.256-1.283,0.256
			c-0.801,0-1.432-0.217-1.895-0.652c-0.461-0.436-0.692-0.984-0.692-1.649c0-0.439,0.104-0.832,0.315-1.177
			c0.208-0.344,0.505-0.608,0.883-0.791c0.379-0.184,0.924-0.344,1.639-0.48c0.963-0.181,1.631-0.35,2.002-0.506V28.27
			c0-0.396-0.099-0.678-0.294-0.847s-0.565-0.253-1.106-0.253c-0.367,0-0.652,0.072-0.857,0.216
			C77.008,27.53,76.844,27.783,76.715,28.145z M79.473,29.816c-0.266,0.088-0.683,0.193-1.254,0.314
			c-0.572,0.122-0.946,0.242-1.123,0.359c-0.268,0.191-0.402,0.433-0.402,0.727c0,0.288,0.107,0.537,0.322,0.747
			c0.216,0.21,0.488,0.315,0.822,0.315c0.371,0,0.725-0.122,1.062-0.367c0.248-0.186,0.412-0.413,0.49-0.682
			c0.055-0.176,0.082-0.51,0.082-1.004V29.816z"/>
		<path fill="#DDD841" d="M90.666,33.555h-1.914v-1.144c-0.318,0.444-0.692,0.776-1.125,0.993c-0.432,0.217-0.869,0.326-1.309,0.326
			c-0.896,0-1.661-0.36-2.298-1.081c-0.638-0.722-0.956-1.727-0.956-3.017c0-1.319,0.31-2.322,0.93-3.009
			c0.621-0.687,1.405-1.03,2.354-1.03c0.869,0,1.623,0.362,2.258,1.085v-3.87h2.061V33.555z M85.168,29.494
			c0,0.83,0.113,1.432,0.344,1.803c0.332,0.538,0.796,0.807,1.393,0.807c0.475,0,0.877-0.202,1.211-0.605
			c0.332-0.402,0.498-1.005,0.498-1.807c0-0.895-0.162-1.538-0.484-1.932c-0.322-0.393-0.736-0.59-1.238-0.59
			c-0.488,0-0.898,0.194-1.229,0.583C85.332,28.141,85.168,28.721,85.168,29.494z"/>
		<path fill="#DDD841" d="M96.391,29.553c0-0.686,0.168-1.347,0.506-1.987c0.336-0.64,0.814-1.129,1.434-1.466
			c0.617-0.337,1.309-0.506,2.07-0.506c1.178,0,2.143,0.382,2.895,1.147c0.754,0.765,1.129,1.73,1.129,2.899
			c0,1.177-0.379,2.154-1.139,2.928c-0.761,0.774-1.717,1.162-2.871,1.162c-0.713,0-1.393-0.161-2.041-0.483
			c-0.648-0.323-1.141-0.796-1.477-1.419C96.559,31.205,96.391,30.446,96.391,29.553z M98.502,29.662
			c0,0.772,0.184,1.363,0.55,1.774c0.366,0.41,0.817,0.615,1.356,0.615c0.537,0,0.988-0.205,1.352-0.615
			c0.363-0.411,0.547-1.007,0.547-1.789c0-0.763-0.184-1.349-0.547-1.759c-0.363-0.411-0.814-0.616-1.352-0.616
			c-0.539,0-0.99,0.205-1.356,0.616C98.686,28.299,98.502,28.89,98.502,29.662z"/>
		<path fill="#DDD841" d="M116.996,28.071l-2.03,0.366c-0.069-0.405-0.225-0.711-0.466-0.916c-0.242-0.205-0.555-0.308-0.941-0.308
			c-0.514,0-0.923,0.177-1.229,0.531s-0.457,0.946-0.457,1.778c0,0.923,0.154,1.575,0.465,1.957c0.311,0.381,0.727,0.571,1.25,0.571
			c0.391,0,0.711-0.11,0.959-0.333c0.25-0.223,0.425-0.605,0.529-1.147l2.023,0.345c-0.211,0.928-0.613,1.63-1.211,2.104
			c-0.596,0.474-1.395,0.711-2.396,0.711c-1.14,0-2.047-0.359-2.724-1.077c-0.678-0.719-1.015-1.713-1.015-2.983
			c0-1.286,0.34-2.287,1.019-3.002c0.679-0.716,1.598-1.074,2.757-1.074c0.947,0,1.701,0.204,2.261,0.612
			C116.351,26.613,116.752,27.236,116.996,28.071z"/>
		<path fill="#DDD841" d="M118.557,24.714v-1.905h2.061v1.905H118.557z M118.557,33.555V25.77h2.061v7.785H118.557z"/>
		<path fill="#DDD841" d="M127.236,31.077l2.053,0.345c-0.265,0.752-0.68,1.325-1.25,1.719c-0.568,0.393-1.281,0.59-2.138,0.59
			c-1.353,0-2.354-0.442-3.005-1.326c-0.512-0.709-0.77-1.604-0.77-2.684c0-1.29,0.338-2.301,1.012-3.031s1.527-1.096,2.559-1.096
			c1.158,0,2.071,0.382,2.742,1.147c0.67,0.765,0.988,1.937,0.96,3.515h-5.161c0.016,0.611,0.182,1.086,0.5,1.426
			c0.316,0.34,0.713,0.51,1.186,0.51c0.324,0,0.595-0.088,0.814-0.264S127.125,31.469,127.236,31.077z M127.354,28.995
			c-0.015-0.597-0.169-1.049-0.461-1.36c-0.293-0.311-0.651-0.465-1.071-0.465c-0.448,0-0.819,0.164-1.114,0.491
			c-0.293,0.327-0.436,0.772-0.432,1.334H127.354z"/>
		<path fill="#DDD841" d="M133.05,33.555h-2.061V25.77h1.915v1.107c0.326-0.523,0.62-0.868,0.882-1.034
			c0.261-0.165,0.558-0.249,0.892-0.249c0.469,0,0.92,0.129,1.355,0.389l-0.637,1.796c-0.348-0.225-0.67-0.337-0.969-0.337
			c-0.288,0-0.531,0.079-0.732,0.238c-0.201,0.158-0.359,0.445-0.473,0.861c-0.115,0.415-0.173,1.285-0.173,2.609V33.555z"/>
		<path fill="#DDD841" d="M138.892,33.555h-2.06V25.77h1.914v1.107c0.326-0.523,0.622-0.868,0.883-1.034
			c0.262-0.165,0.559-0.249,0.891-0.249c0.469,0,0.921,0.129,1.355,0.389l-0.637,1.796c-0.348-0.225-0.67-0.337-0.968-0.337
			c-0.288,0-0.532,0.079-0.733,0.238c-0.201,0.158-0.357,0.445-0.473,0.861c-0.115,0.415-0.173,1.285-0.173,2.609V33.555z"/>
		<path fill="#DDD841" d="M147.271,31.077l2.053,0.345c-0.265,0.752-0.682,1.325-1.251,1.719c-0.569,0.393-1.282,0.59-2.137,0.59
			c-1.353,0-2.355-0.442-3.005-1.326c-0.514-0.709-0.77-1.604-0.77-2.684c0-1.29,0.336-2.301,1.012-3.031
			c0.674-0.73,1.527-1.096,2.558-1.096c1.157,0,2.071,0.382,2.741,1.147c0.67,0.765,0.99,1.937,0.961,3.515h-5.161
			c0.015,0.611,0.181,1.086,0.499,1.426s0.715,0.51,1.187,0.51c0.323,0,0.595-0.088,0.814-0.264S147.157,31.469,147.271,31.077z
			 M147.388,28.995c-0.015-0.597-0.168-1.049-0.461-1.36c-0.294-0.311-0.649-0.465-1.07-0.465c-0.451,0-0.821,0.164-1.115,0.491
			c-0.292,0.327-0.437,0.772-0.433,1.334H147.388z"/>
	</g>
</g>
</svg>
