<?xml version="1.0" encoding="utf-8"?>
<!-- Generator: Adobe Illustrator 16.0.0, SVG Export Plug-In . SVG Version: 6.00 Build 0)  -->
<!DOCTYPE svg PUBLIC "-//W3C//DTD SVG 1.1//EN" "http://www.w3.org/Graphics/SVG/1.1/DTD/svg11.dtd">
<svg version="1.1" id="Capa_1" xmlns="http://www.w3.org/2000/svg" xmlns:xlink="http://www.w3.org/1999/xlink" x="0px" y="0px"
	 width="157.01px" height="43.161px" viewBox="0 0 157.01 43.161" enable-background="new 0 0 157.01 43.161" xml:space="preserve">
<g>
	<path fill="#6F3A89" d="M157.01,31.901c0,6.218-5.04,11.26-11.26,11.26H11.261C5.043,43.161,0,38.119,0,31.901V11.26
		C0,5.041,5.043,0,11.261,0H145.75c6.22,0,11.26,5.041,11.26,11.26V31.901z"/>
	<g>
		<path fill="#DDD841" d="M41.357,15.727h-2.361l-0.938-2.44h-4.295l-0.887,2.44h-2.303L34.76,4.98h2.295L41.357,15.727z
			 M37.362,11.476l-1.481-3.987l-1.451,3.987H37.362z"/>
		<path fill="#DDD841" d="M49.281,10.244l-2.029,0.366c-0.068-0.405-0.225-0.711-0.467-0.916c-0.242-0.206-0.555-0.308-0.941-0.308
			c-0.514,0-0.922,0.176-1.229,0.531c-0.305,0.354-0.457,0.946-0.457,1.777c0,0.924,0.155,1.576,0.465,1.957
			c0.312,0.381,0.729,0.572,1.25,0.572c0.393,0,0.711-0.111,0.959-0.334c0.25-0.223,0.426-0.604,0.529-1.146l2.023,0.344
			c-0.209,0.929-0.613,1.631-1.211,2.104c-0.595,0.475-1.395,0.712-2.396,0.712c-1.139,0-2.045-0.359-2.723-1.078
			c-0.678-0.718-1.016-1.712-1.016-2.983c0-1.285,0.341-2.286,1.02-3.002c0.68-0.715,1.598-1.074,2.756-1.074
			c0.949,0,1.703,0.205,2.262,0.613C48.637,8.786,49.037,9.408,49.281,10.244z"/>
		<path fill="#DDD841" d="M55.352,13.249l2.053,0.345c-0.266,0.752-0.682,1.326-1.25,1.719c-0.568,0.394-1.281,0.591-2.137,0.591
			c-1.354,0-2.355-0.442-3.006-1.327c-0.514-0.708-0.77-1.603-0.77-2.683c0-1.29,0.337-2.301,1.012-3.031
			c0.674-0.73,1.527-1.097,2.559-1.097c1.158,0,2.072,0.383,2.74,1.147c0.672,0.766,0.99,1.937,0.961,3.516h-5.16
			c0.014,0.61,0.182,1.085,0.498,1.426c0.318,0.34,0.715,0.509,1.188,0.509c0.322,0,0.594-0.088,0.814-0.264
			C55.072,13.924,55.238,13.641,55.352,13.249z M55.469,11.168c-0.016-0.597-0.169-1.05-0.463-1.36
			c-0.293-0.311-0.648-0.466-1.07-0.466c-0.449,0-0.82,0.164-1.113,0.492c-0.293,0.326-0.436,0.771-0.434,1.334H55.469z"/>
		<path fill="#DDD841" d="M61.164,15.727h-2.061V7.942h1.914v1.106c0.328-0.523,0.623-0.867,0.883-1.033
			c0.263-0.166,0.561-0.25,0.891-0.25c0.47,0,0.922,0.13,1.355,0.389L63.51,9.951c-0.346-0.225-0.67-0.338-0.967-0.338
			c-0.289,0-0.533,0.08-0.734,0.238c-0.199,0.158-0.357,0.446-0.473,0.861c-0.113,0.415-0.172,1.285-0.172,2.609V15.727z"/>
		<path fill="#DDD841" d="M71.822,10.244l-2.029,0.366c-0.068-0.405-0.225-0.711-0.467-0.916c-0.242-0.206-0.555-0.308-0.941-0.308
			c-0.514,0-0.922,0.176-1.229,0.531c-0.303,0.354-0.457,0.946-0.457,1.777c0,0.924,0.154,1.576,0.465,1.957
			c0.312,0.381,0.729,0.572,1.25,0.572c0.393,0,0.711-0.111,0.961-0.334c0.248-0.223,0.424-0.604,0.527-1.146l2.023,0.344
			c-0.209,0.929-0.613,1.631-1.21,2.104c-0.597,0.475-1.396,0.712-2.397,0.712c-1.138,0-2.045-0.359-2.723-1.078
			c-0.676-0.718-1.016-1.712-1.016-2.983c0-1.285,0.34-2.286,1.02-3.002c0.68-0.715,1.598-1.074,2.756-1.074
			c0.949,0,1.702,0.205,2.262,0.613C71.178,8.786,71.579,9.408,71.822,10.244z"/>
		<path fill="#DDD841" d="M74.924,10.317L73.055,9.98c0.21-0.753,0.57-1.31,1.084-1.672c0.514-0.361,1.275-0.543,2.287-0.543
			c0.92,0,1.604,0.109,2.053,0.327c0.451,0.217,0.766,0.493,0.949,0.828c0.184,0.334,0.275,0.949,0.275,1.844l-0.022,2.404
			c0,0.685,0.032,1.188,0.099,1.514s0.191,0.673,0.371,1.044h-2.039c-0.053-0.136-0.119-0.34-0.197-0.607
			c-0.033-0.122-0.059-0.203-0.074-0.242c-0.352,0.342-0.727,0.598-1.128,0.77c-0.399,0.172-0.828,0.257-1.282,0.257
			c-0.801,0-1.434-0.218-1.896-0.653c-0.461-0.435-0.691-0.984-0.691-1.648c0-0.44,0.105-0.832,0.314-1.177
			c0.211-0.345,0.506-0.608,0.883-0.792c0.381-0.184,0.926-0.344,1.639-0.48c0.965-0.18,1.633-0.349,2.002-0.506v-0.205
			c0-0.396-0.098-0.678-0.293-0.846c-0.195-0.169-0.564-0.254-1.107-0.254c-0.367,0-0.652,0.072-0.857,0.217
			C75.217,9.702,75.053,9.955,74.924,10.317z M77.68,11.988c-0.264,0.088-0.682,0.193-1.254,0.315s-0.945,0.242-1.121,0.359
			c-0.268,0.19-0.402,0.433-0.402,0.726c0,0.289,0.107,0.538,0.322,0.748c0.215,0.209,0.488,0.314,0.82,0.314
			c0.371,0,0.725-0.121,1.062-0.366c0.25-0.187,0.414-0.413,0.492-0.682c0.055-0.176,0.08-0.511,0.08-1.004V11.988z"/>
		<path fill="#DDD841" d="M81.58,7.942h1.898v1.062c0.68-0.825,1.487-1.239,2.425-1.239c0.499,0,0.933,0.104,1.298,0.309
			c0.366,0.205,0.667,0.516,0.901,0.931c0.344-0.415,0.712-0.726,1.108-0.931c0.396-0.205,0.818-0.309,1.268-0.309
			c0.572,0,1.055,0.117,1.451,0.349s0.693,0.573,0.886,1.022c0.146,0.333,0.214,0.87,0.214,1.613v4.977h-2.06v-4.449
			c0-0.772-0.069-1.271-0.212-1.495c-0.191-0.294-0.484-0.44-0.881-0.44c-0.287,0-0.559,0.088-0.812,0.265
			c-0.254,0.176-0.438,0.433-0.551,0.773c-0.111,0.34-0.168,0.876-0.168,1.608v3.738h-2.062v-4.266c0-0.758-0.034-1.246-0.108-1.467
			c-0.074-0.22-0.188-0.383-0.341-0.49c-0.154-0.107-0.364-0.162-0.626-0.162c-0.318,0-0.604,0.086-0.859,0.257
			c-0.252,0.172-0.436,0.418-0.545,0.74c-0.11,0.323-0.167,0.858-0.167,1.605v3.782H81.58V7.942z"/>
		<path fill="#DDD841" d="M95.082,6.887V4.98h2.061v1.906H95.082z M95.082,15.727V7.942h2.061v7.784H95.082z"/>
		<path fill="#DDD841" d="M103.762,13.249l2.053,0.345c-0.265,0.752-0.681,1.326-1.25,1.719c-0.568,0.394-1.281,0.591-2.137,0.591
			c-1.354,0-2.356-0.442-3.007-1.327c-0.513-0.708-0.769-1.603-0.769-2.683c0-1.29,0.336-2.301,1.012-3.031
			c0.673-0.73,1.527-1.097,2.558-1.097c1.158,0,2.073,0.383,2.741,1.147c0.672,0.766,0.989,1.937,0.961,3.516h-5.16
			c0.014,0.61,0.18,1.085,0.498,1.426c0.318,0.34,0.715,0.509,1.188,0.509c0.321,0,0.594-0.088,0.812-0.264
			C103.482,13.924,103.648,13.641,103.762,13.249z M103.879,11.168c-0.016-0.597-0.168-1.05-0.463-1.36
			c-0.293-0.311-0.648-0.466-1.07-0.466c-0.448,0-0.82,0.164-1.114,0.492c-0.292,0.326-0.436,0.771-0.433,1.334H103.879z"/>
		<path fill="#DDD841" d="M114.684,15.727h-2.061v-3.973c0-0.84-0.043-1.385-0.131-1.631c-0.089-0.246-0.231-0.439-0.43-0.575
			c-0.197-0.137-0.436-0.206-0.715-0.206c-0.355,0-0.676,0.099-0.959,0.294c-0.283,0.194-0.477,0.454-0.584,0.776
			c-0.104,0.323-0.158,0.92-0.158,1.789v3.525h-2.059V7.942h1.914v1.144c0.679-0.88,1.534-1.32,2.564-1.32
			c0.455,0,0.871,0.082,1.246,0.246c0.378,0.164,0.662,0.373,0.855,0.627s0.326,0.542,0.402,0.865
			c0.076,0.322,0.113,0.784,0.113,1.385V15.727z"/>
		<path fill="#DDD841" d="M120.342,7.942v1.642h-1.406v3.138c0,0.635,0.013,1.005,0.039,1.11c0.027,0.105,0.088,0.191,0.184,0.26
			c0.095,0.069,0.213,0.104,0.348,0.104c0.191,0,0.469-0.066,0.83-0.198l0.176,1.599c-0.479,0.205-1.021,0.308-1.628,0.308
			c-0.37,0-0.706-0.062-1.004-0.188c-0.296-0.124-0.517-0.286-0.657-0.483c-0.139-0.198-0.234-0.466-0.289-0.803
			c-0.043-0.239-0.065-0.723-0.065-1.451V9.584h-0.947V7.942h0.947V6.396l2.067-1.202v2.749H120.342z"/>
		<path fill="#DDD841" d="M121.295,11.725c0-0.685,0.17-1.346,0.506-1.986c0.337-0.641,0.816-1.129,1.434-1.467
			c0.619-0.337,1.309-0.506,2.07-0.506c1.18,0,2.145,0.383,2.896,1.147c0.752,0.766,1.129,1.731,1.129,2.899
			c0,1.178-0.379,2.154-1.141,2.929c-0.758,0.774-1.715,1.162-2.87,1.162c-0.712,0-1.392-0.161-2.041-0.484
			c-0.647-0.322-1.141-0.795-1.478-1.418C121.465,13.378,121.295,12.619,121.295,11.725z M123.406,11.835
			c0,0.772,0.184,1.363,0.551,1.773c0.366,0.411,0.818,0.616,1.355,0.616c0.539,0,0.989-0.205,1.353-0.616
			c0.364-0.41,0.546-1.007,0.546-1.788c0-0.763-0.182-1.35-0.546-1.76c-0.363-0.41-0.813-0.615-1.353-0.615
			c-0.537,0-0.989,0.205-1.355,0.615C123.59,10.471,123.406,11.062,123.406,11.835z"/>
		<path fill="#DDD841" d="M20.256,25.77h2.193l1.861,5.527l1.818-5.527h2.133l-2.749,7.492l-0.491,1.355
			c-0.18,0.455-0.352,0.803-0.518,1.041c-0.162,0.239-0.352,0.434-0.564,0.583s-0.473,0.265-0.783,0.349
			c-0.311,0.083-0.66,0.124-1.053,0.124c-0.395,0-0.783-0.041-1.166-0.124l-0.182-1.613c0.322,0.063,0.613,0.096,0.871,0.096
			c0.48,0,0.834-0.141,1.062-0.422c0.232-0.281,0.408-0.639,0.529-1.074L20.256,25.77z"/>
		<path fill="#DDD841" d="M35.725,33.555h-2.061V25.77h1.912v1.107c0.328-0.523,0.623-0.868,0.885-1.034
			c0.262-0.165,0.559-0.249,0.891-0.249c0.469,0,0.922,0.129,1.355,0.389l-0.637,1.796c-0.348-0.225-0.67-0.337-0.969-0.337
			c-0.287,0-0.531,0.079-0.732,0.238c-0.199,0.158-0.357,0.445-0.473,0.861c-0.113,0.415-0.172,1.285-0.172,2.609V33.555z"/>
		<path fill="#DDD841" d="M44.104,31.077l2.051,0.345c-0.264,0.752-0.68,1.325-1.25,1.719c-0.566,0.393-1.279,0.59-2.135,0.59
			c-1.354,0-2.355-0.442-3.006-1.326c-0.514-0.709-0.771-1.604-0.771-2.684c0-1.29,0.338-2.301,1.012-3.031
			c0.676-0.73,1.529-1.096,2.559-1.096c1.158,0,2.072,0.382,2.742,1.147c0.672,0.765,0.99,1.937,0.961,3.515h-5.162
			c0.016,0.611,0.182,1.086,0.5,1.426s0.715,0.51,1.188,0.51c0.322,0,0.594-0.088,0.812-0.264
			C43.824,31.752,43.99,31.469,44.104,31.077z M44.219,28.995c-0.014-0.597-0.168-1.049-0.461-1.36
			c-0.293-0.311-0.648-0.465-1.07-0.465c-0.449,0-0.82,0.164-1.113,0.491c-0.295,0.327-0.438,0.772-0.434,1.334H44.219z"/>
		<path fill="#DDD841" d="M54.732,28.071l-2.031,0.366c-0.068-0.405-0.224-0.711-0.465-0.916c-0.242-0.205-0.556-0.308-0.943-0.308
			c-0.512,0-0.922,0.177-1.227,0.531s-0.459,0.946-0.459,1.778c0,0.923,0.156,1.575,0.465,1.957c0.312,0.381,0.729,0.571,1.25,0.571
			c0.393,0,0.712-0.11,0.961-0.333c0.25-0.223,0.426-0.605,0.527-1.147l2.023,0.345c-0.209,0.928-0.611,1.63-1.209,2.104
			c-0.596,0.474-1.395,0.711-2.396,0.711c-1.139,0-2.045-0.359-2.725-1.077c-0.676-0.719-1.016-1.713-1.016-2.983
			c0-1.286,0.342-2.287,1.02-3.002c0.68-0.716,1.598-1.074,2.757-1.074c0.948,0,1.702,0.204,2.261,0.612
			C54.086,26.613,54.488,27.236,54.732,28.071z"/>
		<path fill="#DDD841" d="M55.816,29.553c0-0.686,0.168-1.347,0.506-1.987c0.338-0.64,0.816-1.129,1.434-1.466
			c0.619-0.337,1.309-0.506,2.07-0.506c1.178,0,2.145,0.382,2.895,1.147c0.754,0.765,1.131,1.73,1.131,2.899
			c0,1.177-0.381,2.154-1.141,2.928c-0.76,0.774-1.715,1.162-2.871,1.162c-0.712,0-1.393-0.161-2.041-0.483
			c-0.646-0.323-1.139-0.796-1.477-1.419S55.816,30.446,55.816,29.553z M57.928,29.662c0,0.772,0.184,1.363,0.55,1.774
			c0.366,0.41,0.819,0.615,1.356,0.615c0.539,0,0.988-0.205,1.352-0.615c0.365-0.411,0.547-1.007,0.547-1.789
			c0-0.763-0.182-1.349-0.547-1.759c-0.363-0.411-0.812-0.616-1.352-0.616c-0.537,0-0.99,0.205-1.356,0.616
			C58.111,28.299,57.928,28.89,57.928,29.662z"/>
		<path fill="#DDD841" d="M72.545,33.555h-2.061v-3.973c0-0.841-0.043-1.385-0.131-1.632c-0.088-0.246-0.232-0.438-0.43-0.575
			s-0.436-0.205-0.715-0.205c-0.355,0-0.676,0.098-0.961,0.293c-0.281,0.195-0.477,0.455-0.582,0.777
			c-0.104,0.322-0.157,0.919-0.157,1.789v3.525h-2.06V25.77h1.912v1.144c0.68-0.88,1.537-1.319,2.566-1.319
			c0.455,0,0.871,0.082,1.246,0.246c0.377,0.164,0.662,0.373,0.854,0.626c0.195,0.254,0.328,0.543,0.404,0.865
			s0.113,0.784,0.113,1.386V33.555z"/>
		<path fill="#DDD841" d="M74.156,29.553c0-0.686,0.17-1.347,0.507-1.987c0.337-0.64,0.815-1.129,1.433-1.466
			c0.62-0.337,1.309-0.506,2.072-0.506c1.178,0,2.143,0.382,2.895,1.147c0.754,0.765,1.129,1.73,1.129,2.899
			c0,1.177-0.379,2.154-1.139,2.928c-0.76,0.774-1.717,1.162-2.871,1.162c-0.713,0-1.393-0.161-2.041-0.483
			c-0.648-0.323-1.141-0.796-1.478-1.419S74.156,30.446,74.156,29.553z M76.27,29.662c0,0.772,0.182,1.363,0.549,1.774
			c0.367,0.41,0.818,0.615,1.355,0.615c0.539,0,0.99-0.205,1.354-0.615c0.365-0.411,0.545-1.007,0.545-1.789
			c0-0.763-0.18-1.349-0.545-1.759c-0.363-0.411-0.814-0.616-1.354-0.616c-0.537,0-0.988,0.205-1.355,0.616
			C76.451,28.299,76.27,28.89,76.27,29.662z"/>
		<path fill="#DDD841" d="M90.592,28.071l-2.03,0.366c-0.067-0.405-0.225-0.711-0.466-0.916s-0.555-0.308-0.941-0.308
			c-0.514,0-0.923,0.177-1.229,0.531c-0.305,0.354-0.457,0.946-0.457,1.778c0,0.923,0.156,1.575,0.465,1.957
			c0.311,0.381,0.727,0.571,1.25,0.571c0.393,0,0.711-0.11,0.961-0.333c0.248-0.223,0.423-0.605,0.527-1.147l2.023,0.345
			c-0.209,0.928-0.613,1.63-1.209,2.104c-0.597,0.474-1.396,0.711-2.398,0.711c-1.139,0-2.045-0.359-2.723-1.077
			c-0.676-0.719-1.016-1.713-1.016-2.983c0-1.286,0.341-2.287,1.02-3.002c0.68-0.716,1.597-1.074,2.756-1.074
			c0.949,0,1.702,0.204,2.261,0.612C89.947,26.613,90.348,27.236,90.592,28.071z"/>
		<path fill="#DDD841" d="M92.152,24.714v-1.905h2.061v1.905H92.152z M92.152,33.555V25.77h2.061v7.785H92.152z"/>
		<path fill="#DDD841" d="M96.169,25.77h1.899v1.063c0.682-0.826,1.488-1.239,2.428-1.239c0.498,0,0.93,0.103,1.297,0.308
			c0.367,0.206,0.668,0.517,0.902,0.932c0.341-0.415,0.711-0.726,1.106-0.932c0.396-0.205,0.818-0.308,1.269-0.308
			c0.571,0,1.055,0.116,1.451,0.348c0.396,0.232,0.691,0.573,0.887,1.023c0.142,0.332,0.212,0.869,0.212,1.612v4.978h-2.06v-4.449
			c0-0.772-0.069-1.271-0.213-1.496c-0.189-0.293-0.482-0.439-0.879-0.439c-0.287,0-0.559,0.088-0.814,0.264
			c-0.252,0.176-0.436,0.434-0.549,0.773c-0.111,0.34-0.17,0.876-0.17,1.609v3.738h-2.059v-4.267c0-0.758-0.037-1.246-0.11-1.466
			s-0.187-0.384-0.341-0.491c-0.155-0.107-0.363-0.161-0.627-0.161c-0.316,0-0.604,0.085-0.857,0.257
			c-0.254,0.171-0.437,0.417-0.547,0.74c-0.11,0.322-0.164,0.857-0.164,1.605v3.782h-2.062V25.77z"/>
		<path fill="#DDD841" d="M109.674,24.714v-1.905h2.059v1.905H109.674z M109.674,33.555V25.77h2.059v7.785H109.674z"/>
		<path fill="#DDD841" d="M118.352,31.077l2.052,0.345c-0.263,0.752-0.679,1.325-1.248,1.719c-0.569,0.393-1.282,0.59-2.137,0.59
			c-1.354,0-2.354-0.442-3.006-1.326c-0.513-0.709-0.77-1.604-0.77-2.684c0-1.29,0.337-2.301,1.011-3.031
			c0.676-0.73,1.529-1.096,2.559-1.096c1.157,0,2.073,0.382,2.741,1.147c0.672,0.765,0.991,1.937,0.962,3.515h-5.161
			c0.015,0.611,0.181,1.086,0.499,1.426s0.714,0.51,1.188,0.51c0.322,0,0.594-0.088,0.812-0.264
			C118.074,31.752,118.24,31.469,118.352,31.077z M118.47,28.995c-0.015-0.597-0.169-1.049-0.462-1.36
			c-0.293-0.311-0.648-0.465-1.07-0.465c-0.45,0-0.821,0.164-1.113,0.491c-0.294,0.327-0.438,0.772-0.434,1.334H118.47z"/>
		<path fill="#DDD841" d="M129.275,33.555h-2.061v-3.973c0-0.841-0.045-1.385-0.131-1.632c-0.089-0.246-0.232-0.438-0.43-0.575
			c-0.198-0.137-0.436-0.205-0.715-0.205c-0.355,0-0.676,0.098-0.961,0.293c-0.281,0.195-0.477,0.455-0.582,0.777
			c-0.104,0.322-0.158,0.919-0.158,1.789v3.525h-2.059V25.77h1.912v1.144c0.679-0.88,1.536-1.319,2.566-1.319
			c0.453,0,0.869,0.082,1.245,0.246c0.378,0.164,0.662,0.373,0.854,0.626c0.194,0.254,0.328,0.543,0.402,0.865
			c0.078,0.322,0.115,0.784,0.115,1.386V33.555z"/>
		<path fill="#DDD841" d="M134.934,25.77v1.643h-1.407v3.137c0,0.635,0.015,1.006,0.04,1.111c0.027,0.105,0.088,0.191,0.184,0.26
			s0.213,0.103,0.348,0.103c0.19,0,0.468-0.065,0.828-0.198l0.177,1.599c-0.478,0.205-1.021,0.308-1.628,0.308
			c-0.369,0-0.705-0.062-1.005-0.187c-0.296-0.125-0.517-0.286-0.655-0.484s-0.234-0.465-0.289-0.803
			c-0.045-0.239-0.066-0.723-0.066-1.451v-3.394h-0.945V25.77h0.945v-1.547l2.067-1.202v2.749H134.934z"/>
		<path fill="#DDD841" d="M135.886,29.553c0-0.686,0.169-1.347,0.507-1.987c0.338-0.64,0.816-1.129,1.434-1.466
			c0.619-0.337,1.308-0.506,2.07-0.506c1.179,0,2.145,0.382,2.896,1.147c0.752,0.765,1.128,1.73,1.128,2.899
			c0,1.177-0.38,2.154-1.14,2.928c-0.759,0.774-1.715,1.162-2.87,1.162c-0.714,0-1.393-0.161-2.043-0.483
			c-0.646-0.323-1.138-0.796-1.476-1.419S135.886,30.446,135.886,29.553z M137.998,29.662c0,0.772,0.184,1.363,0.55,1.774
			c0.366,0.41,0.819,0.615,1.355,0.615c0.54,0,0.99-0.205,1.353-0.615c0.364-0.411,0.547-1.007,0.547-1.789
			c0-0.763-0.183-1.349-0.547-1.759c-0.362-0.411-0.812-0.616-1.353-0.616c-0.536,0-0.989,0.205-1.355,0.616
			C138.182,28.299,137.998,28.89,137.998,29.662z"/>
	</g>
</g>
</svg>
