<?xml version="1.0" encoding="utf-8"?>
<!-- Generator: Adobe Illustrator 16.0.0, SVG Export Plug-In . SVG Version: 6.00 Build 0)  -->
<!DOCTYPE svg PUBLIC "-//W3C//DTD SVG 1.1//EN" "http://www.w3.org/Graphics/SVG/1.1/DTD/svg11.dtd">
<svg version="1.1" id="Capa_1" xmlns="http://www.w3.org/2000/svg" xmlns:xlink="http://www.w3.org/1999/xlink" x="0px" y="0px"
	 width="175.719px" height="30.978px" viewBox="0 0 175.719 30.978" enable-background="new 0 0 175.719 30.978"
	 xml:space="preserve">
<g>
	<g>
		<path fill="#DC9B2F" d="M5.873,20.436l-4.842,0.333c0-7.092-0.155-13.748-0.466-19.971L6.107,0.45
			C5.963,7.011,5.886,13.673,5.873,20.436z"/>
		<path fill="#DC9B2F" d="M11.395,6.29l0.194,2.363c0.545-1.257,1.977-1.895,4.298-1.914h0.077c2.281,0,3.837,0.668,4.667,2
			c0.571,0.909,0.856,3.034,0.856,6.377c0,1.644-0.072,3.585-0.214,5.826h-4.706c0.169-2.984,0.254-5.299,0.254-6.941
			c0-0.821-0.021-1.479-0.059-1.972c-0.13-1.449-0.752-2.174-1.867-2.174s-1.814,0.387-2.1,1.159l0.194,10.508L8.42,21.552
			c0-4.445-0.201-9.435-0.604-14.971L11.395,6.29z"/>
		<path fill="#DC9B2F" d="M37.798,1.044c-0.078,3.266-0.117,6.691-0.117,10.275c0,3.266,0.032,6.668,0.098,10.203l-4.608,0.016
			l-0.155-2.219c-0.96,1.073-2.236,1.609-3.83,1.609c-3.98,0-5.97-2.271-5.97-6.812c0-0.097,0.007-0.193,0.02-0.29
			C23.313,9.276,25.283,7,29.146,7c0.156,0,0.318,0.006,0.487,0.015c1.323,0.059,2.391,0.594,3.208,1.609
			c0-2.146-0.071-4.672-0.214-7.58H37.798z M32.938,16.349l-0.097-5.015c-0.752-0.763-1.524-1.146-2.314-1.146
			c-0.323,0-0.648,0.063-0.972,0.189c-1.024,0.396-1.536,1.507-1.536,3.334c0,0.212,0.007,0.43,0.02,0.652
			c0.129,2.212,0.79,3.381,1.983,3.506c0.116,0.01,0.232,0.016,0.35,0.016C31.408,17.886,32.264,17.373,32.938,16.349z"/>
		<path fill="#DC9B2F" d="M45.654,6.667c4.498,0,6.746,2.228,6.746,6.682c0,0.541-0.032,1.121-0.098,1.74h-8.691
			c0,2.482,0.643,3.724,1.926,3.724h0.135c1.128-0.067,1.693-0.71,1.693-1.928c0-0.261-0.027-0.55-0.078-0.87l4.627-0.072
			c0,3.682-2.158,5.547-6.475,5.596c-0.052,0.01-0.097,0.014-0.136,0.014c-4.108,0-6.163-2.324-6.163-6.971v-0.436
			C39.27,9.16,41.44,6.667,45.654,6.667z M43.146,12.421h4.394v-0.348c0-1.758-0.668-2.638-2.003-2.638
			C44.099,9.436,43.301,10.431,43.146,12.421z"/>
		<path fill="#DC9B2F" d="M56.988,6.362l0.078,2.32c0.7-1.112,1.51-1.803,2.431-2.073c0.544-0.155,1.095-0.232,1.653-0.232
			c0.414,0,0.828,0.038,1.244,0.116c1.01,0.193,1.729,0.967,2.157,2.318c0.337-1.053,0.921-1.755,1.75-2.107
			c0.829-0.354,1.75-0.535,2.761-0.545h0.078c0.984,0,1.932,0.18,2.839,0.537c0.919,0.367,1.623,1.056,2.108,2.064
			c0.487,1.01,0.743,2.395,0.769,4.153v8.421l-4.199,0.072c0.169-3.18,0.252-5.885,0.252-8.117s-0.571-3.435-1.711-3.608
			c-0.168-0.019-0.33-0.028-0.485-0.028c-0.907,0-1.607,0.435-2.1,1.305c-0.078,1.004-0.117,2.178-0.117,3.521
			c0,1.826,0.07,3.957,0.214,6.391l-4.86,0.029c0.182-3.738,0.272-6.463,0.272-8.174v-0.174c-0.013-1.691-0.461-2.58-1.342-2.667
			h-0.253c-0.791,0-1.556,0.338-2.294,1.015l0.038,10.609l-4.589,0.13v-2.376c0-4.213-0.083-8.422-0.252-12.625L56.988,6.362z"/>
		<path fill="#DC9B2F" d="M79.601,6.29l0.194,2.363c0.544-1.257,1.977-1.895,4.297-1.914h0.078c2.28,0,3.836,0.668,4.666,2
			c0.57,0.909,0.855,3.034,0.855,6.377c0,1.644-0.071,3.585-0.214,5.826h-4.705c0.168-2.984,0.253-5.299,0.253-6.941
			c0-0.821-0.02-1.479-0.059-1.972c-0.13-1.449-0.752-2.174-1.867-2.174c-1.114,0-1.814,0.387-2.1,1.159l0.195,10.508l-4.569,0.029
			c0-4.445-0.203-9.435-0.604-14.971L79.601,6.29z"/>
		<path fill="#DC9B2F" d="M96.75,3.333c0,0.59-0.278,1.092-0.836,1.508s-1.231,0.623-2.022,0.623c-0.777,0-1.445-0.207-2.003-0.623
			c-0.557-0.416-0.836-0.918-0.836-1.508c0-0.579,0.279-1.077,0.836-1.492c0.558-0.415,1.226-0.623,2.003-0.623
			c0.791,0,1.465,0.208,2.022,0.623S96.75,2.754,96.75,3.333z M91.539,21.624c-0.091-5.652-0.136-10.537-0.136-14.652l4.899-0.217
			c-0.156,3.941-0.233,7.859-0.233,11.754c0,1.043,0.007,2.082,0.02,3.115H91.539z"/>
		<path fill="#DC9B2F" d="M97.916,6.595c1.14,0.02,2.417,0.029,3.83,0.029c2.269,0,4.894-0.025,7.874-0.072l0.098,2.957
			l-6.922,8.695h6.922l-0.059,3.174c-3.253,0-7.214,0.049-11.88,0.145l-0.155-2.811l7.253-9.203c-2.321,0-4.609,0.062-6.864,0.188
			L97.916,6.595z"/>
		<path fill="#DC9B2F" d="M118.661,6.247c4.266,0.174,6.397,1.773,6.397,4.797v10.291l-4.53,0.059l-0.156-1.377
			c-0.933,0.792-2.171,1.188-3.712,1.188c-0.662,0-1.375-0.078-2.14-0.232c-2.294-0.425-3.442-1.748-3.442-3.971
			c0-0.271,0.021-0.561,0.059-0.87c0.26-2.29,2.443-3.435,6.554-3.435c0.789,0,1.658,0.044,2.604,0.131v-1.682
			c0-1.362-0.576-2.044-1.73-2.044h-0.077c-0.091-0.009-0.175-0.015-0.253-0.015c-1.258,0-1.887,0.764-1.887,2.291v0.217
			l-4.627-0.29c0-3.372,2.178-5.058,6.533-5.058H118.661z M120.295,17.697v-2.552c-0.558-0.086-1.063-0.13-1.517-0.13
			c-1.18,0-1.983,0.295-2.41,0.884c-0.26,0.357-0.39,0.691-0.39,1c0,0.387,0.208,0.73,0.623,1.029
			c0.323,0.231,0.744,0.348,1.263,0.348C118.525,18.276,119.335,18.083,120.295,17.697z"/>
		<path fill="#DC9B2F" d="M134.566,15.581l4.628,0.217c0,3.488-2.158,5.256-6.476,5.305c-0.052,0.01-0.097,0.015-0.135,0.015
			c-4.109,0-6.164-2.323-6.164-6.972v-0.434c0.128-4.986,2.32-7.504,6.572-7.553h0.155c3.914,0,5.872,1.672,5.872,5.016
			c0,0.193-0.007,0.387-0.021,0.58l-4.18,0.231v-0.349c0-1.758-0.668-2.637-2.003-2.637c-1.361,0-2.042,1.425-2.042,4.275v0.479
			c0.078,3.082,0.766,4.623,2.062,4.623h0.116c1.128-0.067,1.692-0.71,1.692-1.928C134.645,16.189,134.618,15.899,134.566,15.581z"
			/>
		<path fill="#DC9B2F" d="M146.252,3.333c0,0.59-0.279,1.092-0.836,1.508c-0.559,0.416-1.232,0.623-2.022,0.623
			c-0.777,0-1.446-0.207-2.003-0.623s-0.836-0.918-0.836-1.508c0-0.579,0.279-1.077,0.836-1.492s1.226-0.623,2.003-0.623
			c0.79,0,1.464,0.208,2.022,0.623C145.973,2.256,146.252,2.754,146.252,3.333z M141.041,21.624
			c-0.091-5.652-0.136-10.537-0.136-14.652l4.899-0.217c-0.156,3.941-0.233,7.859-0.233,11.754c0,1.043,0.007,2.082,0.019,3.115
			H141.041z"/>
		<path fill="#DC9B2F" d="M154.164,6.667c4.408,0,6.612,2.28,6.612,6.841c0,0.184-0.008,0.367-0.021,0.551
			c-0.182,4.938-2.527,7.431-7.038,7.479c-0.052,0.01-0.104,0.014-0.155,0.014c-4.291,0-6.436-2.333-6.436-7v-0.406
			C147.256,9.16,149.602,6.667,154.164,6.667z M153.523,9.972c-0.816,0.213-1.374,1-1.672,2.363
			c-0.182,0.811-0.272,1.627-0.272,2.448c0,0.551,0.039,1.106,0.117,1.667c0.207,1.392,0.874,2.111,2.003,2.16h0.135
			c1.051,0,1.77-0.518,2.158-1.551c0.324-0.861,0.486-1.88,0.486-3.059c0-0.289-0.006-0.584-0.02-0.885
			c-0.104-1.555-0.415-2.525-0.933-2.912c-0.325-0.232-0.714-0.349-1.167-0.349C154.1,9.855,153.821,9.894,153.523,9.972z
			 M151.638,3.841c1.517-1.344,2.761-2.623,3.732-3.841l3.188,1.884c-1.374,1.006-2.903,2.237-4.588,3.696L151.638,3.841z"/>
		<path fill="#DC9B2F" d="M165.422,6.29l0.194,2.363c0.545-1.257,1.977-1.895,4.298-1.914h0.078c2.279,0,3.836,0.668,4.666,2
			c0.57,0.909,0.855,3.034,0.855,6.377c0,1.644-0.072,3.585-0.214,5.826h-4.706c0.169-2.984,0.254-5.299,0.254-6.941
			c0-0.821-0.021-1.479-0.059-1.972c-0.13-1.449-0.752-2.174-1.867-2.174c-1.114,0-1.814,0.387-2.1,1.159l0.194,10.508l-4.569,0.029
			c0-4.445-0.201-9.435-0.604-14.971L165.422,6.29z"/>
	</g>
	<path fill="#DC9B2F" d="M175.719,29.37c0,0.889-0.719,1.607-1.607,1.607H1.606C0.719,30.978,0,30.259,0,29.37l0,0
		c0-0.887,0.719-1.605,1.606-1.605h172.505C175,27.765,175.719,28.483,175.719,29.37L175.719,29.37z"/>
</g>
</svg>
