<?xml version="1.0" encoding="utf-8"?>
<!-- Generator: Adobe Illustrator 16.0.0, SVG Export Plug-In . SVG Version: 6.00 Build 0)  -->
<!DOCTYPE svg PUBLIC "-//W3C//DTD SVG 1.1//EN" "http://www.w3.org/Graphics/SVG/1.1/DTD/svg11.dtd">
<svg version="1.1" id="Capa_1" xmlns="http://www.w3.org/2000/svg" xmlns:xlink="http://www.w3.org/1999/xlink" x="0px" y="0px"
	 width="37.462px" height="46.846px" viewBox="0 0 37.462 46.846" enable-background="new 0 0 37.462 46.846" xml:space="preserve">
<g>
	<rect fill="#577432" width="37.462" height="46.846"/>
	<g>
		<path fill="#FFFFFF" d="M26.922,13.684H15.656l-1.135,7.637c0.681-0.091,1.316-0.137,2.407-0.137c2.316,0,4.542,0.457,6.359,1.601
			c2.316,1.28,4.225,3.887,4.225,7.591c0,5.808-4.588,10.152-10.993,10.152c-3.225,0-5.905-0.914-7.358-1.829l0.999-3.064
			c1.227,0.732,3.634,1.646,6.359,1.646c3.725,0,6.996-2.469,6.95-6.447c0-3.842-2.589-6.54-8.449-6.54
			c-1.726,0-3.043,0.138-4.134,0.274L12.795,10.3h14.127V13.684z"/>
	</g>
</g>
</svg>
