<?xml version="1.0" encoding="utf-8"?>
<!-- Generator: Adobe Illustrator 16.0.0, SVG Export Plug-In . SVG Version: 6.00 Build 0)  -->
<!DOCTYPE svg PUBLIC "-//W3C//DTD SVG 1.1//EN" "http://www.w3.org/Graphics/SVG/1.1/DTD/svg11.dtd">
<svg version="1.1" id="Capa_1" xmlns="http://www.w3.org/2000/svg" xmlns:xlink="http://www.w3.org/1999/xlink" x="0px" y="0px"
	 width="25.74px" height="32.188px" viewBox="0 0 25.74 32.188" enable-background="new 0 0 25.74 32.188" xml:space="preserve">
<rect y="0" fill="#4E187A" width="25.74" height="32.188"/>
<g>
	<path fill="#FFFFFF" d="M7.045,24.359c0.78,0.471,2.56,1.257,4.495,1.257c3.497,0,4.621-2.231,4.59-3.959
		c-0.031-2.859-2.592-4.084-5.245-4.084H9.355v-2.074h1.529c1.998,0,4.527-1.036,4.527-3.456c0-1.634-1.03-3.078-3.56-3.078
		c-1.623,0-3.185,0.723-4.059,1.351L7.045,8.305c1.093-0.785,3.153-1.571,5.339-1.571c3.996,0,5.807,2.388,5.807,4.87
		c0,2.137-1.28,3.928-3.746,4.839v0.062c2.497,0.471,4.495,2.356,4.526,5.215c0,3.268-2.56,6.127-7.399,6.127
		c-2.278,0-4.276-0.723-5.275-1.383L7.045,24.359z"/>
</g>
</svg>
