<?xml version="1.0" encoding="utf-8"?>
<!-- Generator: Adobe Illustrator 16.0.0, SVG Export Plug-In . SVG Version: 6.00 Build 0)  -->
<!DOCTYPE svg PUBLIC "-//W3C//DTD SVG 1.1//EN" "http://www.w3.org/Graphics/SVG/1.1/DTD/svg11.dtd">
<svg version="1.1" id="Capa_1" xmlns="http://www.w3.org/2000/svg" xmlns:xlink="http://www.w3.org/1999/xlink" x="0px" y="0px"
	 width="25.74px" height="32.188px" viewBox="0 0 25.74 32.188" enable-background="new 0 0 25.74 32.188" xml:space="preserve">
<rect y="0" fill="#4E187A" width="25.74" height="32.188"/>
<g>
	<path fill="#FFFFFF" d="M18.504,9.404h-7.742l-0.78,5.247c0.469-0.063,0.905-0.095,1.654-0.095c1.593,0,3.122,0.314,4.371,1.1
		c1.592,0.88,2.903,2.671,2.903,5.216c0,3.99-3.153,6.975-7.555,6.975c-2.217,0-4.059-0.629-5.058-1.257l0.687-2.104
		c0.843,0.502,2.498,1.131,4.371,1.131c2.56,0,4.808-1.697,4.776-4.431c0-2.639-1.779-4.492-5.807-4.492
		c-1.187,0-2.092,0.094-2.841,0.188l1.311-9.803h9.709V9.404z"/>
</g>
</svg>
