<?xml version="1.0" encoding="utf-8"?>
<!-- Generator: Adobe Illustrator 16.0.0, SVG Export Plug-In . SVG Version: 6.00 Build 0)  -->
<!DOCTYPE svg PUBLIC "-//W3C//DTD SVG 1.1//EN" "http://www.w3.org/Graphics/SVG/1.1/DTD/svg11.dtd">
<svg version="1.1" id="Capa_1" xmlns="http://www.w3.org/2000/svg" xmlns:xlink="http://www.w3.org/1999/xlink" x="0px" y="0px"
	 width="159.812px" height="31.397px" viewBox="0 0 159.812 31.397" enable-background="new 0 0 159.812 31.397"
	 xml:space="preserve">
<g>
	<g>
		<path fill="#DC9B2F" d="M0.982,13.87l5.774-0.291c-0.078,0.6-0.116,1.141-0.116,1.624c0,2.194,0.731,3.29,2.197,3.29h0.077
			c1.775-0.039,2.664-0.743,2.664-2.115v-0.131c-0.065-1.459-1.744-2.89-5.035-4.29c-3.202-1.353-4.803-3.585-4.803-6.696
			c0-0.097,0.005-0.193,0.02-0.289C1.851,1.715,4.301,0.058,9.11,0h0.154c4.343,0,6.514,2.063,6.514,6.188
			c0,0.328-0.013,0.676-0.038,1.043l-5.075,0.218c0.051-0.435,0.078-0.836,0.078-1.202c0-1.73-0.564-2.596-1.691-2.596
			c-1.361,0-2.106,0.518-2.236,1.551c-0.014,0.146-0.02,0.291-0.02,0.436c0,0.859,0.344,1.662,1.03,2.406
			c0.79,0.859,2.148,1.646,4.073,2.362c1.926,0.716,3.27,1.696,4.035,2.942c0.544,0.898,0.816,1.854,0.816,2.869
			c0,0.387-0.039,0.783-0.117,1.188c-0.298,1.459-1.127,2.669-2.488,3.631c-1.361,0.961-3.19,1.485-5.483,1.573
			c-0.156,0.009-0.311,0.014-0.466,0.014c-2.088,0-3.831-0.57-5.23-1.71c-1.349-1.092-2.022-3.077-2.022-5.958
			C0.943,14.609,0.957,14.247,0.982,13.87z"/>
		<path fill="#DC9B2F" d="M25.946,6.667c4.266,0.174,6.397,1.773,6.397,4.797v10.291l-4.53,0.059l-0.156-1.377
			c-0.933,0.792-2.171,1.188-3.713,1.188c-0.661,0-1.373-0.078-2.139-0.232c-2.295-0.425-3.441-1.748-3.441-3.971
			c0-0.271,0.02-0.561,0.059-0.87c0.26-2.29,2.442-3.435,6.553-3.435c0.789,0,1.658,0.044,2.605,0.131v-1.682
			c0-1.362-0.577-2.044-1.731-2.044h-0.077c-0.092-0.009-0.175-0.015-0.253-0.015c-1.258,0-1.886,0.764-1.886,2.291v0.217
			l-4.628-0.29c0-3.372,2.178-5.058,6.533-5.058H25.946z M27.581,18.117v-2.552c-0.558-0.086-1.064-0.13-1.517-0.13
			c-1.18,0-1.984,0.295-2.41,0.884c-0.26,0.357-0.39,0.691-0.39,1c0,0.387,0.208,0.73,0.623,1.029
			c0.323,0.231,0.744,0.348,1.263,0.348C25.812,18.696,26.62,18.503,27.581,18.117z"/>
		<path fill="#DC9B2F" d="M37.146,2.464l4.413-0.217v4.797l3.714-0.072l0.059,2.739l-3.772,0.13v6.594
			c0,1.537,0.876,2.305,2.625,2.305c0.362,0,0.759-0.033,1.186-0.102l-0.175,3.189c-0.622,0.059-1.212,0.086-1.769,0.086
			c-4.096,0-6.183-1.574-6.261-4.725v-7.087l-3.188,0.145l-0.078-3.231l3.267,0.029L37.146,2.464z"/>
		<path fill="#DC9B2F" d="M52.39,3.753c0,0.59-0.279,1.092-0.836,1.508c-0.558,0.416-1.231,0.623-2.022,0.623
			c-0.777,0-1.445-0.207-2.003-0.623c-0.557-0.416-0.836-0.918-0.836-1.508c0-0.579,0.279-1.077,0.836-1.492
			c0.558-0.415,1.226-0.623,2.003-0.623c0.791,0,1.464,0.208,2.022,0.623C52.111,2.676,52.39,3.174,52.39,3.753z M47.179,22.044
			c-0.091-5.652-0.136-10.537-0.136-14.652l4.899-0.217c-0.156,3.941-0.233,7.859-0.233,11.754c0,1.043,0.007,2.082,0.021,3.115
			H47.179z"/>
		<path fill="#DC9B2F" d="M53.226,16.827l4.451-0.16v0.189c0,1.487,0.617,2.241,1.848,2.26h0.078c1.193,0,1.789-0.43,1.789-1.289
			v-0.102c-0.053-0.947-1.229-1.71-3.529-2.29c-2.301-0.579-3.684-1.556-4.15-2.928c-0.168-0.483-0.254-0.946-0.254-1.392
			c0-0.812,0.279-1.565,0.838-2.261c0.855-1.062,2.15-1.672,3.889-1.826c0.465-0.038,0.918-0.058,1.359-0.058
			c1.154,0,2.172,0.148,3.053,0.448c1.205,0.416,2.041,1.01,2.508,1.784c0.312,0.53,0.467,1.12,0.467,1.767
			c0,0.31-0.033,0.629-0.096,0.958l-4.162,0.072c0.039-0.242,0.059-0.465,0.059-0.668c0-0.965-0.414-1.482-1.244-1.55
			c-0.092-0.011-0.182-0.015-0.273-0.015c-0.855,0-1.432,0.323-1.729,0.971c-0.105,0.223-0.156,0.426-0.156,0.609
			c0,0.453,0.285,0.845,0.855,1.174c0.803,0.463,1.992,0.934,3.566,1.413c1.576,0.478,2.637,1.292,3.18,2.442
			c0.195,0.435,0.293,0.869,0.293,1.305c0,0.733-0.285,1.473-0.855,2.217c-0.908,1.188-2.314,1.879-4.221,2.072
			c-0.414,0.049-0.822,0.072-1.225,0.072c-1.426,0-2.748-0.275-3.967-0.826C54.042,20.513,53.251,19.049,53.226,16.827z"/>
		<path fill="#DC9B2F" d="M70.103,7.609c-0.027-0.262-0.039-0.527-0.039-0.798c0-0.908,0.123-1.84,0.369-2.797
			c0.297-1.246,1.205-2.241,2.723-2.986c1.127-0.56,2.553-0.84,4.277-0.84c0.57,0,1.178,0.033,1.826,0.102l-0.037,3.174
			c-0.389-0.039-0.752-0.058-1.09-0.058c-1.076,0-1.865,0.197-2.373,0.594c-0.557,0.415-0.836,1.228-0.836,2.435
			c0,0.29,0.021,0.609,0.059,0.957l4.162-0.044v2.942l-4.277,0.203c0.104,3.17,0.154,6.164,0.154,8.986
			c0,0.85-0.006,1.682-0.02,2.492l-4.938,0.159c0.039-3.217,0.104-7.023,0.193-11.421l-3.148,0.116L67.031,7.71L70.103,7.609z"/>
		<path fill="#DC9B2F" d="M88.378,6.667c4.266,0.174,6.396,1.773,6.396,4.797v10.291l-4.529,0.059l-0.156-1.377
			c-0.932,0.792-2.172,1.188-3.713,1.188c-0.662,0-1.373-0.078-2.139-0.232c-2.295-0.425-3.441-1.748-3.441-3.971
			c0-0.271,0.02-0.561,0.059-0.87c0.26-2.29,2.443-3.435,6.553-3.435c0.789,0,1.658,0.044,2.605,0.131v-1.682
			c0-1.362-0.578-2.044-1.732-2.044h-0.076c-0.092-0.009-0.176-0.015-0.254-0.015c-1.256,0-1.885,0.764-1.885,2.291v0.217
			l-4.629-0.29c0-3.372,2.178-5.058,6.533-5.058H88.378z M90.013,18.117v-2.552c-0.559-0.086-1.064-0.13-1.518-0.13
			c-1.18,0-1.982,0.295-2.41,0.884c-0.26,0.357-0.391,0.691-0.391,1c0,0.387,0.209,0.73,0.623,1.029
			c0.324,0.231,0.744,0.348,1.264,0.348C88.244,18.696,89.052,18.503,90.013,18.117z"/>
		<path fill="#DC9B2F" d="M104.283,16.001l4.627,0.217c0,3.488-2.158,5.256-6.475,5.305c-0.051,0.01-0.096,0.015-0.135,0.015
			c-4.109,0-6.164-2.323-6.164-6.972v-0.434c0.129-4.986,2.32-7.504,6.572-7.553h0.154c3.914,0,5.873,1.672,5.873,5.016
			c0,0.193-0.008,0.387-0.02,0.58l-4.18,0.231v-0.349c0-1.758-0.668-2.637-2.004-2.637c-1.361,0-2.041,1.425-2.041,4.275v0.479
			c0.078,3.082,0.764,4.623,2.061,4.623h0.117c1.127-0.067,1.691-0.71,1.691-1.928C104.361,16.609,104.335,16.319,104.283,16.001z"
			/>
		<path fill="#DC9B2F" d="M118.476,16.001l4.629,0.217c0,3.488-2.158,5.256-6.475,5.305c-0.053,0.01-0.098,0.015-0.137,0.015
			c-4.109,0-6.164-2.323-6.164-6.972v-0.434c0.129-4.986,2.32-7.504,6.572-7.553h0.156c3.914,0,5.871,1.672,5.871,5.016
			c0,0.193-0.006,0.387-0.02,0.58l-4.18,0.231v-0.349c0-1.758-0.668-2.637-2.002-2.637c-1.363,0-2.043,1.425-2.043,4.275v0.479
			c0.078,3.082,0.766,4.623,2.061,4.623h0.117c1.127-0.067,1.691-0.71,1.691-1.928C118.554,16.609,118.529,16.319,118.476,16.001z"
			/>
		<path fill="#DC9B2F" d="M130.162,3.753c0,0.59-0.277,1.092-0.836,1.508c-0.557,0.416-1.23,0.623-2.021,0.623
			c-0.777,0-1.445-0.207-2.004-0.623c-0.557-0.416-0.834-0.918-0.834-1.508c0-0.579,0.277-1.077,0.834-1.492
			c0.559-0.415,1.227-0.623,2.004-0.623c0.791,0,1.465,0.208,2.021,0.623C129.884,2.676,130.162,3.174,130.162,3.753z
			 M124.951,22.044c-0.09-5.652-0.135-10.537-0.135-14.652l4.898-0.217c-0.156,3.941-0.232,7.859-0.232,11.754
			c0,1.043,0.006,2.082,0.02,3.115H124.951z"/>
		<path fill="#DC9B2F" d="M138.076,7.087c4.406,0,6.611,2.28,6.611,6.841c0,0.184-0.008,0.367-0.02,0.551
			c-0.182,4.938-2.529,7.431-7.039,7.479c-0.053,0.01-0.104,0.014-0.156,0.014c-4.291,0-6.436-2.333-6.436-7v-0.406
			C131.166,9.58,133.513,7.087,138.076,7.087z M137.435,10.392c-0.818,0.213-1.375,1-1.674,2.363
			c-0.182,0.811-0.271,1.627-0.271,2.448c0,0.551,0.039,1.106,0.117,1.667c0.207,1.392,0.873,2.111,2.002,2.16h0.137
			c1.049,0,1.768-0.518,2.156-1.551c0.324-0.861,0.488-1.88,0.488-3.059c0-0.289-0.008-0.584-0.021-0.885
			c-0.104-1.555-0.414-2.525-0.932-2.912c-0.324-0.232-0.713-0.349-1.168-0.349C138.009,10.275,137.732,10.313,137.435,10.392z
			 M135.548,4.261c1.516-1.344,2.76-2.623,3.732-3.841l3.188,1.884C141.095,3.31,139.566,4.541,137.88,6L135.548,4.261z"/>
		<path fill="#DC9B2F" d="M149.333,6.71l0.193,2.363c0.545-1.257,1.977-1.895,4.297-1.914h0.078c2.281,0,3.836,0.668,4.666,2
			c0.57,0.909,0.855,3.034,0.855,6.377c0,1.644-0.07,3.585-0.213,5.826h-4.707c0.17-2.984,0.254-5.299,0.254-6.941
			c0-0.821-0.02-1.479-0.059-1.972c-0.129-1.449-0.752-2.174-1.867-2.174c-1.113,0-1.814,0.387-2.1,1.159l0.195,10.508l-4.568,0.029
			c0-4.445-0.203-9.435-0.604-14.971L149.333,6.71z"/>
	</g>
	<path fill="#DC9B2F" d="M159.812,29.79c0,0.889-0.748,1.607-1.67,1.607H1.668C0.747,31.397,0,30.679,0,29.79l0,0
		c0-0.887,0.747-1.605,1.668-1.605h156.474C159.064,28.185,159.812,28.903,159.812,29.79L159.812,29.79z"/>
</g>
</svg>
