<?xml version="1.0" encoding="utf-8"?>
<!-- Generator: Adobe Illustrator 16.0.0, SVG Export Plug-In . SVG Version: 6.00 Build 0)  -->
<!DOCTYPE svg PUBLIC "-//W3C//DTD SVG 1.1//EN" "http://www.w3.org/Graphics/SVG/1.1/DTD/svg11.dtd">
<svg version="1.1" id="Capa_1" xmlns="http://www.w3.org/2000/svg" xmlns:xlink="http://www.w3.org/1999/xlink" x="0px" y="0px"
	 width="37.462px" height="46.846px" viewBox="0 0 37.462 46.846" enable-background="new 0 0 37.462 46.846" xml:space="preserve">
<g>
	<rect fill="#577432" width="37.462" height="46.846"/>
	<g>
		<path fill="#FFFFFF" d="M10.251,35.451c1.136,0.687,3.725,1.829,6.541,1.829c5.088,0,6.724-3.246,6.678-5.762
			c-0.045-4.161-3.771-5.945-7.632-5.945h-2.226v-3.018h2.226c2.907,0,6.587-1.51,6.587-5.03c0-2.378-1.499-4.482-5.179-4.482
			c-2.361,0-4.633,1.052-5.905,1.967l-1.09-2.927c1.59-1.144,4.588-2.286,7.768-2.286c5.814,0,8.449,3.476,8.449,7.088
			c0,3.109-1.862,5.716-5.451,7.042v0.092c3.634,0.687,6.541,3.43,6.587,7.592c0,4.756-3.725,8.917-10.766,8.917
			c-3.316,0-6.224-1.052-7.677-2.012L10.251,35.451z"/>
	</g>
</g>
</svg>
