<?xml version="1.0" encoding="utf-8"?>
<!-- Generator: Adobe Illustrator 16.0.0, SVG Export Plug-In . SVG Version: 6.00 Build 0)  -->
<!DOCTYPE svg PUBLIC "-//W3C//DTD SVG 1.1//EN" "http://www.w3.org/Graphics/SVG/1.1/DTD/svg11.dtd">
<svg version="1.1" id="Capa_1" xmlns="http://www.w3.org/2000/svg" xmlns:xlink="http://www.w3.org/1999/xlink" x="0px" y="0px"
	 width="175.719px" height="31.209px" viewBox="0 0 175.719 31.209" enable-background="new 0 0 175.719 31.209"
	 xml:space="preserve">
<g>
	<g>
		<path fill="#DC9B2F" d="M2.396,21.363c0.156-3.305,0.234-6.522,0.234-9.652c0-3.614-0.104-7.116-0.311-10.508L8.035,1l5.25,10.914
			c-0.053-3.75-0.193-7.586-0.428-11.508l6.008-0.059c-0.596,5.923-0.895,11.904-0.895,17.943c0,0.811,0.006,1.622,0.02,2.435
			l-5.27,0.044l-5.6-11.682c0.168,4.309,0.324,8.313,0.467,12.014L2.396,21.363z"/>
		<path fill="#DC9B2F" d="M27.42,6.898c4.406,0,6.611,2.28,6.611,6.841c0,0.184-0.008,0.367-0.02,0.551
			c-0.182,4.938-2.527,7.431-7.039,7.479c-0.053,0.01-0.104,0.014-0.156,0.014c-4.289,0-6.434-2.333-6.434-7v-0.406
			C20.512,9.392,22.857,6.898,27.42,6.898z M26.779,10.203c-0.818,0.213-1.375,1-1.674,2.363c-0.182,0.811-0.271,1.627-0.271,2.448
			c0,0.551,0.039,1.106,0.117,1.667c0.207,1.392,0.875,2.111,2.002,2.16h0.137c1.049,0,1.77-0.518,2.158-1.551
			c0.322-0.861,0.486-1.88,0.486-3.059c0-0.289-0.008-0.584-0.02-0.885c-0.104-1.555-0.416-2.525-0.934-2.912
			c-0.324-0.232-0.713-0.349-1.166-0.349C27.355,10.087,27.076,10.125,26.779,10.203z"/>
		<path fill="#DC9B2F" d="M42.664,21.58c0.078-2.764,0.115-5.546,0.115-8.348c0-4.29-0.09-8.624-0.271-13.001
			C44.516,0.077,46.318,0,47.912,0c4.434,0,7.26,0.604,8.477,1.812c1.141,1.13,1.711,2.376,1.711,3.739
			c0,0.618-0.109,1.256-0.33,1.913c-0.752,2.126-2.332,3.474-4.744,4.044c1.686,0.174,2.963,0.85,3.83,2.028
			c0.83,1.141,1.244,4.011,1.244,8.609v0.623l-5.871,0.059c0.064-1.218,0.098-2.31,0.098-3.276c0-2.927-0.318-4.72-0.953-5.377
			c-0.725-0.733-1.588-1.101-2.586-1.101c-0.193,0-0.395,0.015-0.602,0.044c0.077,2.945,0.246,5.738,0.504,8.377L42.664,21.58z
			 M47.641,3.608l0.135,6.204c2.412-0.088,3.941-0.697,4.59-1.827c0.35-0.599,0.525-1.183,0.525-1.753
			c0-0.494-0.131-0.977-0.391-1.449c-0.465-0.822-1.625-1.232-3.48-1.232C48.594,3.551,48.133,3.57,47.641,3.608z"/>
		<path fill="#DC9B2F" d="M66.072,6.898c4.498,0,6.746,2.228,6.746,6.682c0,0.541-0.031,1.121-0.096,1.74h-8.691
			c0,2.482,0.641,3.724,1.926,3.724h0.135c1.127-0.067,1.691-0.71,1.691-1.928c0-0.261-0.025-0.55-0.078-0.87l4.629-0.072
			c0,3.682-2.158,5.547-6.477,5.596c-0.051,0.01-0.096,0.014-0.135,0.014c-4.109,0-6.164-2.324-6.164-6.971v-0.436
			C59.688,9.392,61.859,6.898,66.072,6.898z M63.564,12.652h4.395v-0.348c0-1.758-0.668-2.638-2.002-2.638
			C64.518,9.667,63.721,10.662,63.564,12.652z"/>
		<path fill="#DC9B2F" d="M74.395,27.566c0.078-3.256,0.117-6.721,0.117-10.392c0-3.343-0.033-6.851-0.098-10.522l4.607-0.015
			l0.156,2.232c0.959-1.083,2.236-1.624,3.83-1.624c3.979,0,5.969,2.344,5.969,7.029v0.291c-0.09,4.695-2.074,7.043-5.949,7.043
			c-0.156,0-0.311-0.005-0.467-0.014c-1.322-0.049-2.391-0.585-3.209-1.609c0,2.145,0.072,4.672,0.215,7.58H74.395z M79.256,11.842
			l0.096,5.449c0.752,0.763,1.512,1.145,2.275,1.145c0.311,0,0.623-0.067,0.934-0.203c0.945-0.387,1.42-1.541,1.42-3.465
			c0-0.23-0.008-0.473-0.02-0.725c-0.129-2.357-0.758-3.598-1.887-3.724c-0.115-0.011-0.227-0.015-0.33-0.015
			C80.76,10.305,79.93,10.816,79.256,11.842z"/>
		<path fill="#DC9B2F" d="M96.832,6.898c4.498,0,6.746,2.228,6.746,6.682c0,0.541-0.033,1.121-0.098,1.74h-8.691
			c0,2.482,0.643,3.724,1.926,3.724h0.137c1.127-0.067,1.691-0.71,1.691-1.928c0-0.261-0.027-0.55-0.078-0.87l4.627-0.072
			c0,3.682-2.158,5.547-6.475,5.596c-0.051,0.01-0.098,0.014-0.135,0.014c-4.109,0-6.164-2.324-6.164-6.971v-0.436
			C90.447,9.392,92.619,6.898,96.832,6.898z M94.324,12.652h4.395v-0.348c0-1.758-0.67-2.638-2.004-2.638
			C95.275,9.667,94.479,10.662,94.324,12.652z"/>
		<path fill="#DC9B2F" d="M108.283,2.275l4.414-0.217v4.797l3.715-0.072l0.057,2.739l-3.771,0.13v6.594
			c0,1.537,0.875,2.305,2.625,2.305c0.363,0,0.758-0.033,1.186-0.102l-0.174,3.189c-0.623,0.059-1.213,0.086-1.77,0.086
			c-4.096,0-6.184-1.574-6.262-4.725V9.913l-3.188,0.145l-0.078-3.231l3.266,0.029L108.283,2.275z"/>
		<path fill="#DC9B2F" d="M123.527,3.564c0,0.59-0.279,1.092-0.836,1.508c-0.559,0.416-1.232,0.623-2.023,0.623
			c-0.777,0-1.445-0.207-2.002-0.623s-0.836-0.918-0.836-1.508c0-0.579,0.279-1.077,0.836-1.492s1.225-0.623,2.002-0.623
			c0.791,0,1.465,0.208,2.023,0.623C123.248,2.487,123.527,2.985,123.527,3.564z M118.316,21.855
			c-0.09-5.652-0.137-10.537-0.137-14.652l4.9-0.217c-0.156,3.941-0.234,7.859-0.234,11.754c0,1.043,0.008,2.082,0.021,3.115
			H118.316z"/>
		<path fill="#DC9B2F" d="M132.549,15.812l4.627,0.217c0,3.488-2.158,5.256-6.475,5.305c-0.051,0.01-0.098,0.015-0.135,0.015
			c-4.109,0-6.164-2.323-6.164-6.972v-0.434c0.129-4.986,2.32-7.504,6.572-7.553h0.154c3.914,0,5.873,1.672,5.873,5.016
			c0,0.193-0.008,0.387-0.02,0.58l-4.18,0.231v-0.349c0-1.758-0.668-2.637-2.004-2.637c-1.361,0-2.041,1.425-2.041,4.275v0.479
			c0.078,3.082,0.764,4.623,2.061,4.623h0.117c1.127-0.067,1.691-0.71,1.691-1.928C132.627,16.421,132.602,16.131,132.549,15.812z"
			/>
		<path fill="#DC9B2F" d="M144.234,3.564c0,0.59-0.279,1.092-0.836,1.508c-0.559,0.416-1.232,0.623-2.023,0.623
			c-0.777,0-1.445-0.207-2.002-0.623s-0.836-0.918-0.836-1.508c0-0.579,0.279-1.077,0.836-1.492s1.225-0.623,2.002-0.623
			c0.791,0,1.465,0.208,2.023,0.623C143.955,2.487,144.234,2.985,144.234,3.564z M139.023,21.855
			c-0.092-5.652-0.137-10.537-0.137-14.652l4.9-0.217c-0.156,3.941-0.234,7.859-0.234,11.754c0,1.043,0.008,2.082,0.021,3.115
			H139.023z"/>
		<path fill="#DC9B2F" d="M152.146,6.898c4.407,0,6.611,2.28,6.611,6.841c0,0.184-0.008,0.367-0.02,0.551
			c-0.182,4.938-2.527,7.431-7.039,7.479c-0.051,0.01-0.104,0.014-0.154,0.014c-4.291,0-6.436-2.333-6.436-7v-0.406
			C145.238,9.392,147.584,6.898,152.146,6.898z M151.506,10.203c-0.816,0.213-1.373,1-1.672,2.363
			c-0.182,0.811-0.271,1.627-0.271,2.448c0,0.551,0.037,1.106,0.115,1.667c0.207,1.392,0.875,2.111,2.004,2.16h0.135
			c1.051,0,1.77-0.518,2.158-1.551c0.324-0.861,0.486-1.88,0.486-3.059c0-0.289-0.006-0.584-0.02-0.885
			c-0.104-1.555-0.414-2.525-0.934-2.912c-0.324-0.232-0.713-0.349-1.166-0.349C152.082,10.087,151.803,10.125,151.506,10.203z
			 M149.619,4.072c1.518-1.344,2.762-2.623,3.734-3.841l3.188,1.884c-1.373,1.006-2.903,2.237-4.588,3.696L149.619,4.072z"/>
		<path fill="#DC9B2F" d="M163.404,6.521l0.195,2.363c0.545-1.257,1.975-1.895,4.297-1.914h0.078c2.279,0,3.836,0.668,4.666,2
			c0.57,0.909,0.855,3.034,0.855,6.377c0,1.644-0.072,3.585-0.215,5.826h-4.705c0.168-2.984,0.254-5.299,0.254-6.941
			c0-0.821-0.02-1.479-0.059-1.972c-0.131-1.449-0.752-2.174-1.867-2.174s-1.814,0.387-2.101,1.159L165,21.754l-4.57,0.029
			c0-4.445-0.201-9.435-0.604-14.971L163.404,6.521z"/>
	</g>
	<path fill="#DC9B2F" d="M175.719,29.602c0,0.889-0.719,1.607-1.607,1.607H1.605C0.719,31.209,0,30.49,0,29.602l0,0
		c0-0.887,0.719-1.605,1.605-1.605h172.506C175,27.996,175.719,28.715,175.719,29.602L175.719,29.602z"/>
</g>
</svg>
