<?xml version="1.0" encoding="utf-8"?>
<!-- Generator: Adobe Illustrator 16.0.0, SVG Export Plug-In . SVG Version: 6.00 Build 0)  -->
<!DOCTYPE svg PUBLIC "-//W3C//DTD SVG 1.1//EN" "http://www.w3.org/Graphics/SVG/1.1/DTD/svg11.dtd">
<svg version="1.1" id="Capa_1" xmlns="http://www.w3.org/2000/svg" xmlns:xlink="http://www.w3.org/1999/xlink" x="0px" y="0px"
	 width="176.443px" height="31.209px" viewBox="0 0 176.443 31.209" enable-background="new 0 0 176.443 31.209"
	 xml:space="preserve">
<g>
	<g>
		<path fill="#DC9B2F" d="M0.154,21.58c0.078-2.764,0.117-5.546,0.117-8.348C0.271,8.942,0.18,4.608,0,0.231
			C2.008,0.077,3.811,0,5.404,0c4.433,0,7.258,0.604,8.477,1.812c1.141,1.13,1.711,2.376,1.711,3.739
			c0,0.618-0.109,1.256-0.33,1.913c-0.752,2.126-2.333,3.474-4.744,4.044c1.685,0.174,2.962,0.85,3.83,2.028
			c0.829,1.141,1.244,4.011,1.244,8.609v0.623l-5.871,0.059c0.064-1.218,0.098-2.31,0.098-3.276c0-2.927-0.318-4.72-0.953-5.377
			c-0.726-0.733-1.588-1.101-2.586-1.101c-0.194,0-0.396,0.015-0.604,0.044c0.078,2.945,0.247,5.738,0.506,8.377L0.154,21.58z
			 M5.133,3.608l0.135,6.204c2.412-0.088,3.941-0.697,4.59-1.827c0.35-0.599,0.524-1.183,0.524-1.753c0-0.494-0.13-0.977-0.39-1.449
			c-0.466-0.822-1.626-1.232-3.48-1.232C6.085,3.551,5.625,3.57,5.133,3.608z"/>
		<path fill="#DC9B2F" d="M23.564,6.898c4.498,0,6.746,2.228,6.746,6.682c0,0.541-0.032,1.121-0.097,1.74h-8.691
			c0,2.482,0.642,3.724,1.925,3.724h0.136c1.128-0.067,1.692-0.71,1.692-1.928c0-0.261-0.026-0.55-0.078-0.87l4.628-0.072
			c0,3.682-2.158,5.547-6.476,5.596c-0.052,0.01-0.097,0.014-0.135,0.014c-4.109,0-6.164-2.324-6.164-6.971v-0.436
			C17.18,9.392,19.352,6.898,23.564,6.898z M21.057,12.652h4.394v-0.348c0-1.758-0.668-2.638-2.003-2.638
			C22.009,9.667,21.212,10.662,21.057,12.652z"/>
		<path fill="#DC9B2F" d="M36.396,1.015l0.195,8.159c0.544-1.256,1.814-1.894,3.811-1.913h0.059c1.97,0,3.37,0.667,4.199,2
			c0.57,0.909,0.855,3.034,0.855,6.377c0,1.644-0.071,3.585-0.214,5.827h-4.899c0.169-2.986,0.253-5.301,0.253-6.942
			c0-0.821-0.02-1.479-0.059-1.972c-0.129-1.449-0.688-2.174-1.672-2.174c-0.985,0-1.621,0.387-1.906,1.159l0.195,10.508
			l-4.764,0.029c0-4.444-0.266-11.416-0.798-20.914L36.396,1.015z"/>
		<path fill="#DC9B2F" d="M54.672,6.479c4.265,0.174,6.396,1.773,6.396,4.797v10.291l-4.529,0.059l-0.156-1.377
			c-0.933,0.792-2.172,1.188-3.713,1.188c-0.662,0-1.374-0.078-2.139-0.232c-2.295-0.425-3.442-1.748-3.442-3.971
			c0-0.271,0.02-0.561,0.059-0.87c0.26-2.29,2.443-3.435,6.553-3.435c0.79,0,1.658,0.044,2.605,0.131v-1.682
			c0-1.362-0.577-2.044-1.731-2.044h-0.076c-0.092-0.009-0.176-0.015-0.254-0.015c-1.257,0-1.886,0.764-1.886,2.291v0.217
			l-4.628-0.29c0-3.372,2.178-5.058,6.533-5.058H54.672z M56.306,17.929v-2.552c-0.559-0.086-1.063-0.13-1.518-0.13
			c-1.178,0-1.982,0.295-2.41,0.884c-0.26,0.357-0.39,0.691-0.39,1c0,0.387,0.208,0.73,0.623,1.029
			c0.324,0.231,0.744,0.348,1.264,0.348C54.536,18.508,55.346,18.314,56.306,17.929z"/>
		<path fill="#DC9B2F" d="M67.913,1.275c-0.142,2.908-0.213,5.435-0.213,7.58c0.687-0.918,1.562-1.455,2.625-1.609
			c0.182-0.009,0.356-0.015,0.524-0.015c4.226,0,6.384,2.276,6.476,6.827v0.261c0,4.561-2.25,6.841-6.747,6.841
			c-1.076,0-2.094-0.536-3.054-1.609l-0.155,2.219l-4.607-0.016c0.065-3.535,0.097-6.938,0.097-10.203
			c0-3.584-0.038-7.01-0.116-10.275H67.913z M67.699,11.565l-0.098,5.015c0.674,1.024,1.529,1.537,2.566,1.537
			c0.117,0,0.234-0.006,0.351-0.016c1.192-0.125,1.852-1.318,1.983-3.579c0.013-0.232,0.02-0.454,0.02-0.667
			c0-1.855-0.506-2.961-1.518-3.318c-0.311-0.106-0.615-0.16-0.914-0.16C69.274,10.377,68.477,10.773,67.699,11.565z"/>
		<path fill="#DC9B2F" d="M84.303,3.564c0,0.59-0.278,1.092-0.835,1.508c-0.559,0.416-1.232,0.623-2.022,0.623
			c-0.777,0-1.445-0.207-2.003-0.623s-0.836-0.918-0.836-1.508c0-0.579,0.278-1.077,0.836-1.492s1.226-0.623,2.003-0.623
			c0.79,0,1.464,0.208,2.022,0.623C84.024,2.487,84.303,2.985,84.303,3.564z M79.092,21.855c-0.09-5.652-0.135-10.537-0.135-14.652
			l4.899-0.217c-0.156,3.941-0.233,7.859-0.233,11.754c0,1.043,0.006,2.082,0.02,3.115H79.092z"/>
		<path fill="#DC9B2F" d="M90.836,21.537l-4.842,0.333c0.052-3.198,0.078-6.276,0.078-9.231c0-4.155-0.052-8.073-0.155-11.755
			l4.764-0.058c-0.052,2.367-0.077,4.797-0.077,7.29C90.604,12.416,90.681,16.89,90.836,21.537z"/>
		<path fill="#DC9B2F" d="M97.952,3.564c0,0.59-0.278,1.092-0.835,1.508c-0.559,0.416-1.232,0.623-2.023,0.623
			c-0.777,0-1.445-0.207-2.002-0.623c-0.558-0.416-0.836-0.918-0.836-1.508c0-0.579,0.278-1.077,0.836-1.492
			c0.557-0.415,1.225-0.623,2.002-0.623c0.791,0,1.465,0.208,2.023,0.623C97.674,2.487,97.952,2.985,97.952,3.564z M92.741,21.855
			c-0.09-5.652-0.136-10.537-0.136-14.652l4.9-0.217c-0.156,3.941-0.234,7.859-0.234,11.754c0,1.043,0.007,2.082,0.021,3.115H92.741
			z"/>
		<path fill="#DC9B2F" d="M102.269,2.275l4.414-0.217v4.797l3.714-0.072l0.057,2.739l-3.771,0.13v6.594
			c0,1.537,0.875,2.305,2.624,2.305c0.363,0,0.759-0.033,1.187-0.102l-0.175,3.189c-0.623,0.059-1.213,0.086-1.77,0.086
			c-4.096,0-6.183-1.574-6.261-4.725V9.913L99.1,10.058l-0.078-3.231l3.266,0.029L102.269,2.275z"/>
		<path fill="#DC9B2F" d="M119.592,6.479c4.266,0.174,6.396,1.773,6.396,4.797v10.291l-4.529,0.059l-0.156-1.377
			c-0.933,0.792-2.171,1.188-3.713,1.188c-0.661,0-1.374-0.078-2.139-0.232c-2.295-0.425-3.441-1.748-3.441-3.971
			c0-0.271,0.02-0.561,0.058-0.87c0.26-2.29,2.443-3.435,6.553-3.435c0.79,0,1.659,0.044,2.605,0.131v-1.682
			c0-1.362-0.577-2.044-1.731-2.044h-0.077c-0.092-0.009-0.176-0.015-0.254-0.015c-1.257,0-1.886,0.764-1.886,2.291v0.217
			l-4.627-0.29c0-3.372,2.177-5.058,6.533-5.058H119.592z M121.226,17.929v-2.552c-0.558-0.086-1.063-0.13-1.517-0.13
			c-1.18,0-1.983,0.295-2.41,0.884c-0.26,0.357-0.391,0.691-0.391,1c0,0.387,0.209,0.73,0.623,1.029
			c0.324,0.231,0.745,0.348,1.264,0.348C119.456,18.508,120.266,18.314,121.226,17.929z"/>
		<path fill="#DC9B2F" d="M135.497,15.812l4.628,0.217c0,3.488-2.158,5.256-6.476,5.305c-0.052,0.01-0.097,0.015-0.136,0.015
			c-4.108,0-6.163-2.323-6.163-6.972v-0.434c0.129-4.986,2.319-7.504,6.571-7.553h0.156c3.914,0,5.871,1.672,5.871,5.016
			c0,0.193-0.006,0.387-0.02,0.58l-4.18,0.231v-0.349c0-1.758-0.668-2.637-2.003-2.637c-1.361,0-2.042,1.425-2.042,4.275v0.479
			c0.079,3.082,0.766,4.623,2.061,4.623h0.117c1.128-0.067,1.692-0.71,1.692-1.928C135.575,16.421,135.549,16.131,135.497,15.812z"
			/>
		<path fill="#DC9B2F" d="M147.182,3.564c0,0.59-0.278,1.092-0.835,1.508c-0.559,0.416-1.232,0.623-2.022,0.623
			c-0.777,0-1.446-0.207-2.003-0.623c-0.558-0.416-0.836-0.918-0.836-1.508c0-0.579,0.278-1.077,0.836-1.492
			c0.557-0.415,1.226-0.623,2.003-0.623c0.79,0,1.463,0.208,2.022,0.623C146.903,2.487,147.182,2.985,147.182,3.564z
			 M141.971,21.855c-0.09-5.652-0.135-10.537-0.135-14.652l4.899-0.217c-0.157,3.941-0.233,7.859-0.233,11.754
			c0,1.043,0.006,2.082,0.02,3.115H141.971z"/>
		<path fill="#DC9B2F" d="M155.095,6.898c4.407,0,6.612,2.28,6.612,6.841c0,0.184-0.008,0.367-0.021,0.551
			c-0.182,4.938-2.527,7.431-7.038,7.479c-0.053,0.01-0.104,0.014-0.156,0.014c-4.29,0-6.435-2.333-6.435-7v-0.406
			C148.187,9.392,150.532,6.898,155.095,6.898z M154.454,10.203c-0.817,0.213-1.374,1-1.672,2.363
			c-0.182,0.811-0.271,1.627-0.271,2.448c0,0.551,0.039,1.106,0.117,1.667c0.207,1.392,0.874,2.111,2.002,2.16h0.136
			c1.05,0,1.77-0.518,2.158-1.551c0.323-0.861,0.486-1.88,0.486-3.059c0-0.289-0.007-0.584-0.02-0.885
			c-0.104-1.555-0.415-2.525-0.933-2.912c-0.324-0.232-0.714-0.349-1.167-0.349C155.03,10.087,154.752,10.125,154.454,10.203z
			 M152.568,4.072c1.516-1.344,2.76-2.623,3.732-3.841l3.188,1.884c-1.374,1.006-2.903,2.237-4.588,3.696L152.568,4.072z"/>
		<path fill="#DC9B2F" d="M166.353,6.521l0.194,2.363c0.545-1.257,1.977-1.895,4.297-1.914h0.078c2.28,0,3.836,0.668,4.666,2
			c0.57,0.909,0.855,3.034,0.855,6.377c0,1.644-0.071,3.585-0.213,5.826h-4.706c0.169-2.984,0.253-5.299,0.253-6.941
			c0-0.821-0.02-1.479-0.059-1.972c-0.129-1.449-0.752-2.174-1.867-2.174c-1.113,0-1.815,0.387-2.1,1.159l0.195,10.508l-4.569,0.029
			c0-4.445-0.201-9.435-0.604-14.971L166.353,6.521z"/>
	</g>
	<path fill="#DC9B2F" d="M176.032,29.602c0,0.889-0.719,1.607-1.606,1.607H1.92c-0.887,0-1.606-0.719-1.606-1.607l0,0
		c0-0.887,0.72-1.605,1.606-1.605h172.506C175.313,27.996,176.032,28.715,176.032,29.602L176.032,29.602z"/>
</g>
</svg>
