<?xml version="1.0" encoding="utf-8"?>
<!-- Generator: Adobe Illustrator 16.0.0, SVG Export Plug-In . SVG Version: 6.00 Build 0)  -->
<!DOCTYPE svg PUBLIC "-//W3C//DTD SVG 1.1//EN" "http://www.w3.org/Graphics/SVG/1.1/DTD/svg11.dtd">
<svg version="1.1" id="Capa_1" xmlns="http://www.w3.org/2000/svg" xmlns:xlink="http://www.w3.org/1999/xlink" x="0px" y="0px"
	 width="34.83px" height="261.172px" viewBox="0 0 34.83 261.172" enable-background="new 0 0 34.83 261.172" xml:space="preserve">
<g>
	<rect fill="#422D67" width="34.83" height="261.172"/>
	<g>
		<path fill="#E9E338" d="M14.731,232.04c4.977,0,7.648,3.038,7.648,6.744c0,3.856-2.995,6.528-7.391,6.528
			c-4.61,0-7.627-2.844-7.627-6.723C7.362,234.604,10.4,232.04,14.731,232.04z M14.946,243.33c3.124,0,5.903-1.681,5.903-4.654
			c0-2.973-2.735-4.653-6.032-4.653c-2.908,0-5.926,1.508-5.926,4.632C8.892,241.779,11.779,243.33,14.946,243.33z"/>
		<path fill="#E9E338" d="M14.968,229.67c-1.229,0-2.283,0.021-3.253,0.087v-1.659l2.068-0.086v-0.065
			c-1.401-0.474-2.284-1.637-2.284-2.908c0-0.194,0.021-0.345,0.043-0.517h1.789c-0.043,0.193-0.043,0.388-0.043,0.646
			c0,1.336,0.99,2.284,2.412,2.543c0.259,0.043,0.582,0.064,0.884,0.064h5.559v1.896H14.968z"/>
		<path fill="#E9E338" d="M8.784,220.428c0.646,0,1.164,0.453,1.164,1.207c0,0.689-0.518,1.142-1.164,1.142S7.6,222.303,7.6,221.592
			C7.6,220.902,8.116,220.428,8.784,220.428z M22.143,222.539H11.715v-1.896h10.428V222.539z"/>
		<path fill="#E9E338" d="M17.273,216.441c2.563-0.043,3.62-1.658,3.62-3.576c0-1.357-0.238-2.197-0.539-2.887l1.357-0.345
			c0.301,0.668,0.668,1.831,0.668,3.49c0,3.21-2.133,5.128-5.279,5.128c-3.146,0-5.602-1.854-5.602-4.892
			c0-3.425,2.974-4.309,4.891-4.309c0.389,0,0.668,0.021,0.884,0.064V216.441z M15.916,210.883c-1.185-0.021-3.06,0.496-3.06,2.629
			c0,1.939,1.745,2.758,3.06,2.908V210.883z"/>
		<path fill="#E9E338" d="M14.537,206.703c-1.099,0-1.961,0.021-2.822,0.087v-1.681l1.724-0.107v-0.044
			c-0.97-0.517-1.939-1.724-1.939-3.447c0-1.443,0.861-3.684,4.438-3.684h6.205v1.896h-6.011c-1.682,0-3.082,0.625-3.082,2.413
			c0,1.229,0.884,2.198,1.939,2.543c0.237,0.086,0.561,0.129,0.884,0.129h6.27v1.896H14.537z"/>
		<path fill="#E9E338" d="M9.216,192.549h2.499v-2.715h1.443v2.715h5.623c1.293,0,2.025-0.366,2.025-1.422
			c0-0.518-0.043-0.819-0.129-1.1l1.443-0.086c0.13,0.366,0.259,0.948,0.259,1.681c0,0.884-0.302,1.595-0.797,2.047
			c-0.582,0.518-1.509,0.732-2.736,0.732h-5.688v1.616h-1.443v-1.616H9.775L9.216,192.549z"/>
		<path fill="#E9E338" d="M19.644,180.375c0.904,0,1.788-0.043,2.499-0.15v1.702l-1.314,0.15v0.064
			c0.819,0.582,1.552,1.702,1.552,3.189c0,2.111-1.486,3.188-2.995,3.188c-2.521,0-3.899-2.241-3.878-6.27h-0.216
			c-0.841,0-2.413,0.236-2.392,2.369c0,0.991,0.28,2.004,0.775,2.736l-1.271,0.432c-0.539-0.862-0.905-2.133-0.905-3.447
			c0-3.189,2.176-3.965,4.244-3.965H19.644z M16.821,182.207c-0.043,2.068,0.322,4.416,2.348,4.416c1.25,0,1.811-0.818,1.811-1.767
			c0-1.379-0.862-2.262-1.746-2.563c-0.215-0.064-0.43-0.086-0.603-0.086H16.821z"/>
		<path fill="#E9E338" d="M21.776,169.883c0.236,0.495,0.604,1.594,0.604,2.995c0,3.146-2.133,5.192-5.322,5.192
			c-3.21,0-5.559-2.198-5.559-5.603c0-1.12,0.28-2.111,0.561-2.628l1.443,0.431c-0.237,0.452-0.496,1.163-0.496,2.197
			c0,2.392,1.789,3.685,3.943,3.685c2.413,0,3.899-1.551,3.899-3.619c0-1.078-0.259-1.789-0.495-2.327L21.776,169.883z"/>
		<path fill="#E9E338" d="M8.784,165.552c0.646,0,1.164,0.453,1.164,1.207c0,0.689-0.518,1.142-1.164,1.142S7.6,167.427,7.6,166.716
			C7.6,166.026,8.116,165.552,8.784,165.552z M22.143,167.663H11.715v-1.896h10.428V167.663z"/>
		<path fill="#E9E338" d="M16.843,153.186c3.856,0,5.537,2.693,5.537,5.192c0,2.801-2.068,4.999-5.365,4.999
			c-3.469,0-5.516-2.306-5.516-5.171C11.499,155.211,13.675,153.186,16.843,153.186z M16.95,161.438
			c2.283,0,4.008-1.293,4.008-3.146c0-1.81-1.703-3.167-4.051-3.167c-1.768,0-3.986,0.883-3.986,3.124
			C12.921,160.468,14.989,161.438,16.95,161.438z"/>
		<path fill="#E9E338" d="M14.537,150.794c-1.099,0-1.961,0.022-2.822,0.087V149.2l1.724-0.108v-0.043
			c-0.97-0.517-1.939-1.724-1.939-3.447c0-1.443,0.861-3.684,4.438-3.684h6.205v1.896h-6.011c-1.682,0-3.082,0.625-3.082,2.413
			c0,1.229,0.884,2.198,1.939,2.543c0.237,0.086,0.561,0.129,0.884,0.129h6.27v1.896H14.537z"/>
		<path fill="#E9E338" d="M17.273,137.78c2.563-0.043,3.62-1.658,3.62-3.576c0-1.357-0.238-2.197-0.539-2.887l1.357-0.345
			c0.301,0.668,0.668,1.831,0.668,3.49c0,3.21-2.133,5.128-5.279,5.128c-3.146,0-5.602-1.854-5.602-4.892
			c0-3.426,2.974-4.309,4.891-4.309c0.389,0,0.668,0.021,0.884,0.064V137.78z M15.916,132.222c-1.185-0.021-3.06,0.496-3.06,2.629
			c0,1.938,1.745,2.758,3.06,2.908V132.222z"/>
		<path fill="#E9E338" d="M20.226,128.301c0.344-0.582,0.732-1.572,0.732-2.521c0-1.357-0.668-2.004-1.552-2.004
			c-0.905,0-1.379,0.539-1.896,1.918c-0.689,1.896-1.703,2.779-2.952,2.779c-1.681,0-3.06-1.379-3.06-3.599
			c0-1.056,0.28-1.982,0.646-2.542l1.379,0.452c-0.259,0.409-0.625,1.164-0.625,2.133c0,1.121,0.646,1.724,1.422,1.724
			c0.862,0,1.25-0.603,1.789-1.96c0.668-1.789,1.572-2.736,3.123-2.736c1.854,0,3.146,1.443,3.146,3.878
			c0,1.142-0.302,2.197-0.732,2.931L20.226,128.301z"/>
		<path fill="#E9E338" d="M15.334,107.381v5.624h5.235v-6.291h1.573v8.187H7.621v-7.863h1.573v5.968h4.589v-5.624H15.334z"/>
		<path fill="#E9E338" d="M20.226,104.602c0.344-0.582,0.732-1.572,0.732-2.521c0-1.357-0.668-2.004-1.552-2.004
			c-0.905,0-1.379,0.539-1.896,1.918c-0.689,1.896-1.703,2.779-2.952,2.779c-1.681,0-3.06-1.379-3.06-3.599
			c0-1.056,0.28-1.982,0.646-2.542l1.379,0.452c-0.259,0.409-0.625,1.164-0.625,2.133c0,1.121,0.646,1.724,1.422,1.724
			c0.862,0,1.25-0.603,1.789-1.96c0.668-1.789,1.572-2.736,3.123-2.736c1.854,0,3.146,1.443,3.146,3.878
			c0,1.142-0.302,2.197-0.732,2.931L20.226,104.602z"/>
		<path fill="#E9E338" d="M15.118,95.812c-1.335,0-2.412,0.044-3.403,0.087v-1.681l1.788-0.108v-0.043
			c-1.271-0.754-2.004-2.003-2.004-3.705c0-2.543,2.133-4.438,5.279-4.438c3.748,0,5.602,2.305,5.602,4.762
			c0,1.379-0.604,2.585-1.638,3.21v0.043h5.667v1.874H15.118z M17.897,93.938c0.281,0,0.539-0.021,0.776-0.086
			c1.314-0.345,2.22-1.487,2.22-2.844c0-2.004-1.639-3.168-4.029-3.168c-2.068,0-3.857,1.1-3.857,3.103
			c0,1.293,0.905,2.521,2.327,2.866c0.237,0.064,0.518,0.129,0.755,0.129H17.897z"/>
		<path fill="#E9E338" d="M17.273,82.496c2.563-0.043,3.62-1.658,3.62-3.576c0-1.357-0.238-2.197-0.539-2.887l1.357-0.345
			c0.301,0.668,0.668,1.831,0.668,3.49c0,3.21-2.133,5.128-5.279,5.128c-3.146,0-5.602-1.854-5.602-4.892
			c0-3.425,2.974-4.309,4.891-4.309c0.389,0,0.668,0.021,0.884,0.064V82.496z M15.916,76.938c-1.185-0.021-3.06,0.496-3.06,2.629
			c0,1.939,1.745,2.758,3.06,2.908V76.938z"/>
		<path fill="#E9E338" d="M21.776,65.325c0.236,0.495,0.604,1.595,0.604,2.995c0,3.146-2.133,5.192-5.322,5.192
			c-3.21,0-5.559-2.198-5.559-5.603c0-1.12,0.28-2.111,0.561-2.628l1.443,0.431c-0.237,0.452-0.496,1.163-0.496,2.197
			c0,2.392,1.789,3.685,3.943,3.685c2.413,0,3.899-1.551,3.899-3.619c0-1.078-0.259-1.789-0.495-2.327L21.776,65.325z"/>
		<path fill="#E9E338" d="M7.212,59.249l3.08,2.629v1.336l-3.08-1.896V59.249z M22.143,63.105H11.715V61.21h10.428V63.105z"/>
		<path fill="#E9E338" d="M22.143,57.871h-8.984v1.443h-1.443v-1.443h-0.582c-2.736,0-4.524-1.616-4.524-4.546
			c0-0.97,0.302-2.111,0.689-2.65l1.443,0.539c-0.323,0.474-0.604,1.271-0.604,2.197c0,2.004,1.4,2.585,3.06,2.585h0.518v-6.054
			h10.428v1.896h-8.984v4.158h8.984V57.871z"/>
		<path fill="#E9E338" d="M21.776,39.363c0.236,0.495,0.604,1.594,0.604,2.995c0,3.146-2.133,5.192-5.322,5.192
			c-3.21,0-5.559-2.198-5.559-5.603c0-1.12,0.28-2.111,0.561-2.628l1.443,0.431c-0.237,0.452-0.496,1.163-0.496,2.197
			c0,2.392,1.789,3.685,3.943,3.685c2.413,0,3.899-1.551,3.899-3.619c0-1.078-0.259-1.789-0.495-2.327L21.776,39.363z"/>
		<path fill="#E9E338" d="M19.644,29.818c0.904,0,1.788-0.043,2.499-0.15v1.702l-1.314,0.15v0.064
			c0.819,0.582,1.552,1.702,1.552,3.189c0,2.111-1.486,3.188-2.995,3.188c-2.521,0-3.899-2.241-3.878-6.27h-0.216
			c-0.841,0-2.413,0.236-2.392,2.369c0,0.991,0.28,2.004,0.775,2.736l-1.271,0.432c-0.539-0.862-0.905-2.133-0.905-3.447
			c0-3.189,2.176-3.965,4.244-3.965H19.644z M16.821,31.65c-0.043,2.068,0.322,4.416,2.348,4.416c1.25,0,1.811-0.818,1.811-1.767
			c0-1.379-0.862-2.262-1.746-2.563c-0.215-0.064-0.43-0.086-0.603-0.086H16.821z"/>
		<path fill="#E9E338" d="M20.226,27.019c0.344-0.581,0.732-1.572,0.732-2.521c0-1.357-0.668-2.004-1.552-2.004
			c-0.905,0-1.379,0.539-1.896,1.918c-0.689,1.896-1.703,2.779-2.952,2.779c-1.681,0-3.06-1.379-3.06-3.599
			c0-1.056,0.28-1.981,0.646-2.542l1.379,0.452c-0.259,0.409-0.625,1.164-0.625,2.133c0,1.121,0.646,1.724,1.422,1.724
			c0.862,0,1.25-0.603,1.789-1.96c0.668-1.788,1.572-2.736,3.123-2.736c1.854,0,3.146,1.443,3.146,3.878
			c0,1.142-0.302,2.197-0.732,2.93L20.226,27.019z"/>
	</g>
</g>
</svg>
