<?xml version="1.0" encoding="utf-8"?>
<!-- Generator: Adobe Illustrator 16.0.0, SVG Export Plug-In . SVG Version: 6.00 Build 0)  -->
<!DOCTYPE svg PUBLIC "-//W3C//DTD SVG 1.1//EN" "http://www.w3.org/Graphics/SVG/1.1/DTD/svg11.dtd">
<svg version="1.1" id="Capa_1" xmlns="http://www.w3.org/2000/svg" xmlns:xlink="http://www.w3.org/1999/xlink" x="0px" y="0px"
	 width="62.198px" height="36.154px" viewBox="0 0 62.198 36.154" enable-background="new 0 0 62.198 36.154" xml:space="preserve">
<g>
	<rect fill="#B4C52C" width="26.32" height="32.916"/>
	<rect x="34.344" fill="#B4C52C" width="26.32" height="32.916"/>
	<g>
		<path fill="#FFFFFF" d="M12.799,9.869h-0.063L9.128,11.83L8.586,9.677l4.532-2.442h2.395v20.888h-2.714V9.869z"/>
	</g>
	<g>
		<path fill="#FFFFFF" d="M40.876,28.122v-1.735l2.202-2.153c5.299-5.077,7.726-7.776,7.726-10.926c0-2.121-0.99-4.081-4.086-4.081
			c-1.884,0-3.448,0.964-4.405,1.768l-0.894-1.992c1.404-1.189,3.479-2.121,5.841-2.121c4.47,0,6.353,3.085,6.353,6.073
			c0,3.856-2.777,6.974-7.15,11.216l-1.628,1.542v0.064h9.289v2.346H40.876z"/>
	</g>
</g>
</svg>
