<?xml version="1.0" encoding="utf-8"?>
<!-- Generator: Adobe Illustrator 16.0.0, SVG Export Plug-In . SVG Version: 6.00 Build 0)  -->
<!DOCTYPE svg PUBLIC "-//W3C//DTD SVG 1.1//EN" "http://www.w3.org/Graphics/SVG/1.1/DTD/svg11.dtd">
<svg version="1.1" id="Capa_1" xmlns="http://www.w3.org/2000/svg" xmlns:xlink="http://www.w3.org/1999/xlink" x="0px" y="0px"
	 width="167.199px" height="48.68px" viewBox="0 0 167.199 48.68" enable-background="new 0 0 167.199 48.68" xml:space="preserve">
<polygon fill="#2B1C48" points="167.199,48.679 26.418,48.679 0,3.891 153.35,-0.001 154.709,4.769 "/>
<g>
	<path fill="#FFFFFF" d="M50.734,19.465v1.715h-4.588v-2.023c0-0.607-0.087-1.035-0.262-1.283c-0.176-0.246-0.479-0.37-0.912-0.37
		c-0.422,0-0.716,0.121-0.88,0.362c-0.165,0.242-0.247,0.673-0.247,1.291v1.482c0,0.576,0.142,1.089,0.425,1.537
		c0.283,0.447,0.826,0.971,1.629,1.567l1.932,1.452c0.103,0.072,0.257,0.186,0.463,0.34c0.927,0.68,1.561,1.303,1.9,1.869
		c0.257,0.422,0.442,0.893,0.556,1.413s0.17,1.146,0.17,1.877v1.39c0,1.762-0.543,3.115-1.63,4.062
		c-1.086,0.947-2.639,1.422-4.657,1.422c-2.06,0-3.539-0.443-4.44-1.329s-1.352-2.353-1.352-4.401v-1.685h4.711v1.931
		c0,0.701,0.103,1.197,0.31,1.49c0.205,0.294,0.556,0.441,1.05,0.441s0.839-0.137,1.035-0.41c0.195-0.272,0.293-0.779,0.293-1.521
		v-0.88c0-0.639-0.139-1.192-0.417-1.661c-0.277-0.469-0.937-1.083-1.977-1.846l-1.931-1.467c-0.927-0.689-1.592-1.432-1.993-2.225
		s-0.603-1.734-0.603-2.826v-1.993c0-1.534,0.554-2.772,1.661-3.715c1.106-0.942,2.587-1.413,4.44-1.413
		c1.751,0,3.074,0.455,3.97,1.367C50.286,16.337,50.734,17.684,50.734,19.465z"/>
	<path fill="#FFFFFF" d="M53.421,14.398h4.464v3.676h-4.464V14.398z M53.421,21.303h4.464v15.879h-4.464V21.303z"/>
	<path fill="#FFFFFF" d="M66.907,23.141l0.123-1.838h4.325v16.93c0,1.956-0.394,3.308-1.182,4.055
		c-0.787,0.746-2.206,1.119-4.255,1.119c-1.916,0-3.301-0.34-4.155-1.02c-0.855-0.68-1.282-1.781-1.282-3.305v-0.294h4.464v0.231
		c0,0.546,0.077,0.961,0.231,1.244c0.155,0.283,0.381,0.424,0.68,0.424c0.381,0,0.651-0.162,0.812-0.486
		c0.159-0.324,0.239-0.888,0.239-1.691v-3.893c-0.443,0.772-0.917,1.334-1.421,1.684c-0.505,0.351-1.097,0.525-1.776,0.525
		c-1.103,0-1.921-0.371-2.456-1.111c-0.536-0.742-0.804-1.875-0.804-3.398v-6.904c0-1.524,0.271-2.654,0.812-3.391
		c0.54-0.736,1.377-1.105,2.51-1.105c0.639,0,1.21,0.178,1.715,0.533C65.99,21.805,66.463,22.369,66.907,23.141z M66.907,26.076
		c0-0.701-0.08-1.197-0.239-1.491c-0.16-0.294-0.42-0.44-0.78-0.44c-0.34,0-0.582,0.139-0.726,0.418
		c-0.145,0.277-0.217,0.782-0.217,1.514v5.606c0,0.741,0.072,1.249,0.217,1.521c0.144,0.272,0.396,0.409,0.757,0.409
		c0.35,0,0.602-0.148,0.757-0.447c0.154-0.299,0.231-0.793,0.231-1.483V26.076z"/>
	<path fill="#FFFFFF" d="M73.981,21.303h4.494v11.105c0,0.752,0.072,1.262,0.217,1.529c0.144,0.268,0.396,0.402,0.757,0.402
		c0.35,0,0.603-0.149,0.757-0.448s0.231-0.793,0.231-1.483V21.303h4.464v15.879h-4.34l-0.124-1.838
		c-0.515,0.762-1.048,1.323-1.599,1.684s-1.146,0.541-1.784,0.541c-1.133,0-1.928-0.336-2.387-1.004
		c-0.458-0.67-0.687-1.9-0.687-3.692V21.303z"/>
	<path fill="#FFFFFF" d="M87.558,14.398h4.464v3.676h-4.464V14.398z M87.558,21.303h4.464v15.879h-4.464V21.303z"/>
	<path fill="#FFFFFF" d="M105.785,28.037v1.9h-6.704v2.688c0,0.834,0.085,1.411,0.255,1.73c0.17,0.318,0.461,0.479,0.873,0.479
		c0.463,0,0.79-0.162,0.98-0.486s0.286-0.898,0.286-1.723v-0.572h4.31v0.541c0,1.751-0.433,3.018-1.298,3.801
		c-0.865,0.782-2.255,1.174-4.17,1.174c-2.143,0-3.628-0.508-4.457-1.521c-0.829-1.015-1.243-2.881-1.243-5.6v-2.41
		c0-2.708,0.406-4.572,1.221-5.592c0.812-1.02,2.26-1.529,4.34-1.529c2.121,0,3.586,0.5,4.395,1.499S105.785,25.288,105.785,28.037z
		 M101.475,25.798c0-0.886-0.091-1.499-0.271-1.839c-0.181-0.34-0.486-0.51-0.919-0.51c-0.443,0-0.755,0.168-0.935,0.502
		c-0.181,0.336-0.271,0.951-0.271,1.847v1.606h2.395V25.798z"/>
	<path fill="#FFFFFF" d="M119.3,25.597v11.585h-4.495V26.076c0-0.731-0.072-1.236-0.216-1.514c-0.145-0.279-0.392-0.418-0.741-0.418
		c-0.361,0-0.618,0.146-0.772,0.44c-0.155,0.294-0.232,0.79-0.232,1.491v11.105h-4.464V21.303h4.341l0.123,1.838
		c0.516-0.762,1.048-1.322,1.599-1.684c0.551-0.36,1.146-0.541,1.784-0.541c1.133,0,1.929,0.336,2.387,1.004
		C119.071,22.59,119.3,23.815,119.3,25.597z"/>
	<path fill="#FFFFFF" d="M126.9,17.225v4.078h2.055v2.688H126.9v8.062c0,0.896,0.083,1.486,0.247,1.77
		c0.165,0.283,0.459,0.425,0.881,0.425c0.165,0,0.34-0.013,0.525-0.039c0.186-0.025,0.411-0.069,0.68-0.131v3.136
		c-0.618,0.113-1.159,0.201-1.622,0.262c-0.464,0.062-0.86,0.094-1.189,0.094c-1.545,0-2.595-0.33-3.151-0.989
		c-0.556-0.659-0.834-2.069-0.834-4.231V23.99h-1.684v-2.688h1.684v-2.348L126.9,17.225z"/>
	<path fill="#FFFFFF" d="M141.883,28.037v1.9h-6.704v2.688c0,0.834,0.085,1.411,0.255,1.73c0.17,0.318,0.461,0.479,0.873,0.479
		c0.463,0,0.79-0.162,0.98-0.486s0.286-0.898,0.286-1.723v-0.572h4.31v0.541c0,1.751-0.433,3.018-1.298,3.801
		c-0.865,0.782-2.255,1.174-4.17,1.174c-2.143,0-3.628-0.508-4.457-1.521c-0.829-1.015-1.243-2.881-1.243-5.6v-2.41
		c0-2.708,0.406-4.572,1.221-5.592c0.812-1.02,2.26-1.529,4.34-1.529c2.121,0,3.586,0.5,4.395,1.499S141.883,25.288,141.883,28.037z
		 M137.574,25.798c0-0.886-0.091-1.499-0.271-1.839c-0.181-0.34-0.486-0.51-0.919-0.51c-0.443,0-0.755,0.168-0.935,0.502
		c-0.181,0.336-0.271,0.951-0.271,1.847v1.606h2.395V25.798z"/>
</g>
</svg>
