<?xml version="1.0" encoding="utf-8"?>
<!-- Generator: Adobe Illustrator 16.0.0, SVG Export Plug-In . SVG Version: 6.00 Build 0)  -->
<!DOCTYPE svg PUBLIC "-//W3C//DTD SVG 1.1//EN" "http://www.w3.org/Graphics/SVG/1.1/DTD/svg11.dtd">
<svg version="1.1" id="Capa_1" xmlns="http://www.w3.org/2000/svg" xmlns:xlink="http://www.w3.org/1999/xlink" x="0px" y="0px"
	 width="88.004px" height="152.487px" viewBox="0 0 88.004 152.487" enable-background="new 0 0 88.004 152.487"
	 xml:space="preserve">
<g>
	<path fill-rule="evenodd" clip-rule="evenodd" fill="#A09FA4" d="M88.004,150.982c-1.309,0.54-2.609,0.92-3.92,1.16
		c-8.699,1.641-17.189-2.66-20.02-11.2c-1.109-3.36-0.709-7.43-0.199-11.06c0.42-2.93,0.26-4.391-1.371-4.87
		c-0.68-0.2-1.609-0.229-2.85-0.141c-7.711,0.581-15.43,1.291-23.131,1.931l-0.309,0.029c-0.5,0.04-1.01-0.069-1.541-0.1
		l-2.57-28.689c0,0,0.012,0,0.021,0c-0.881-2.391-2.621-2.271-6.541-0.441c-6.609,3.082-15.01,1.801-20.09-3.049
		c-5.23-5-6.939-13.14-4.17-19.881c3.391-8.27,12.311-12.389,21.77-10.06c3.861,0.96,5.59,0.351,5.891-2.49l-2.58-28.78
		c6.609-0.59,13.449-1.229,20.311-1.809c9.33-0.801,9.33-0.781,6.67-9.301c-2.721-8.74,1.93-17.09,9.539-20.561
		c2.291-1.039,4.84-1.639,7.551-1.67c1.359-0.02,2.74,0.1,4.15,0.381c1.199,0.239,2.33,0.59,3.398,1.039L88.004,150.982z"/>
	<g>
		<g>
			<path fill="#FFFFFF" d="M56.125,103.574c-4.51,1.534-9.21,3.293-14.101,5.276l-0.669-3.992l11.035-3.363
				c-4.042-0.849-7.69-1.511-10.946-1.987l0.007-3.844c6.377,1.37,11.086,2.396,14.126,3.075L56.125,103.574z"/>
			<path fill="#FFFFFF" d="M44.753,90.15c-0.28-3.12,1.195-4.825,4.423-5.115c0.13-0.012,0.261-0.018,0.391-0.021
				c3.507-0.186,5.421,1.317,5.742,4.508c0.01,0.036,0.017,0.072,0.021,0.108c0.272,3.038-1.243,4.705-4.547,5.002l-0.287,0.025
				C46.957,94.884,45.043,93.381,44.753,90.15z M47.133,90.395c0.202,0.564,0.795,0.909,1.779,1.034
				c0.586,0.077,1.17,0.089,1.751,0.037c0.39-0.035,0.781-0.099,1.173-0.188c0.972-0.235,1.439-0.754,1.401-1.556l-0.009-0.096
				c-0.066-0.743-0.478-1.22-1.235-1.43c-0.629-0.175-1.361-0.225-2.196-0.149c-0.206,0.018-0.414,0.041-0.625,0.069
				c-1.095,0.173-1.762,0.454-2.003,0.846c-0.144,0.244-0.201,0.527-0.172,0.849C47.015,89.994,47.06,90.188,47.133,90.395z"/>
			<path fill="#FFFFFF" d="M54.282,79.915l0.543,3.406c-2.267,0.167-4.448,0.344-6.542,0.532c-2.941,0.264-5.712,0.549-8.312,0.856
				l-0.344-3.369c1.679-0.113,3.401-0.25,5.166-0.408C47.839,80.66,51.001,80.32,54.282,79.915z"/>
			<path fill="#FFFFFF" d="M53.853,76.18c-3.856,1.512-7.164,2.854-9.92,4.025L43.5,76.873l7.308-2.363
				c-2.87-0.631-5.478-1.104-7.823-1.421l0.013-3.317c2.959,0.78,6.454,1.683,10.483,2.709L53.853,76.18z"/>
			<path fill="#FFFFFF" d="M42.478,64.795c-0.286-3.185,1.148-4.918,4.302-5.201c0.383-0.034,0.795-0.048,1.238-0.042l0.552,6.153
				c1.758-0.158,2.597-0.69,2.515-1.6l-0.008-0.096c-0.12-0.794-0.61-1.153-1.472-1.075c-0.185,0.017-0.388,0.054-0.611,0.11
				l-0.345-3.271c2.606-0.234,4.063,1.175,4.372,4.229c0.01,0.036,0.017,0.067,0.019,0.095c0.261,2.909-1.253,4.512-4.544,4.807
				l-0.308,0.027C44.648,69.156,42.745,67.777,42.478,64.795z M46.71,66.205l-0.279-3.111l-0.246,0.022
				c-1.245,0.111-1.825,0.64-1.74,1.585C44.536,65.72,45.292,66.221,46.71,66.205z"/>
			<path fill="#FFFFFF" d="M44.809,55.039l7.427-0.806l0.323,3.371c-3.147,0.282-6.667,0.741-10.562,1.378l-0.433-2.515l1.66-0.288
				c-0.855-0.312-1.405-1.169-1.648-2.571c-0.033-0.21-0.058-0.411-0.075-0.604c-0.1-1.109,0.095-1.979,0.583-2.605
				c0.583-0.728,1.575-1.158,2.977-1.294l0.5,3.036c-0.117,0.001-0.23,0.007-0.34,0.017c-1.094,0.099-1.607,0.528-1.539,1.29
				l0.005,0.055C43.801,54.38,44.175,54.893,44.809,55.039z"/>
			<path fill="#FFFFFF" d="M60.748,106.407l10.148-0.911c3.126-0.28,4.861,1.497,5.206,5.333l0.027,0.303
				c0.015,3.237-1.146,5.016-3.483,5.336c-4.686,0.421-8.374,0.816-11.065,1.188l-0.328-3.662c1.554-0.047,3.375-0.164,5.461-0.351
				c1.464-0.132,3.062-0.299,4.796-0.5c1.271-0.133,1.852-0.805,1.743-2.016c0.007-0.001,0.01-0.006,0.009-0.015
				c-0.108-1.202-0.976-1.73-2.604-1.585l-9.455,0.918L60.748,106.407z"/>
			<path fill="#FFFFFF" d="M64.649,102.282l1.66-0.288c-0.923-0.305-1.466-1.278-1.627-2.92l-0.005-0.055
				c-0.145-1.615,0.228-2.759,1.119-3.431c0.607-0.462,2.094-0.799,4.461-1.011c1.163-0.105,2.542-0.178,4.139-0.22l0.299,3.332
				c-2.125,0.07-3.769,0.157-4.931,0.262c-0.582,0.052-1.045,0.107-1.392,0.167c-1.018,0.184-1.491,0.67-1.42,1.459
				s0.389,1.261,0.954,1.413l7.427-0.805l0.311,3.232c-3.146,0.282-6.667,0.742-10.562,1.378L64.649,102.282z"/>
			<path fill="#FFFFFF" d="M61.466,90.329c0.417-0.037,0.791,0.128,1.12,0.496c0.33,0.368,0.52,0.833,0.57,1.393
				c0.049,0.55-0.055,1.036-0.314,1.457s-0.597,0.65-1.014,0.688c-0.411,0.037-0.781-0.129-1.11-0.497
				c-0.33-0.367-0.519-0.827-0.568-1.378c-0.05-0.56,0.054-1.05,0.312-1.472C60.721,90.595,61.056,90.366,61.466,90.329z
				 M74.747,92.856c-3.996,0.423-7.451,0.766-10.366,1.027l-0.465-3.455c2.801-0.141,5.58-0.334,8.336-0.582
				c0.739-0.066,1.474-0.137,2.205-0.211L74.747,92.856z"/>
			<path fill="#FFFFFF" d="M58.843,79.311c2.317-0.152,4.745-0.342,7.283-0.569c2.312-0.208,4.718-0.446,7.217-0.718l0.303,3.262
				l-1.56,0.251c0.82,0.611,1.281,1.481,1.382,2.609c0.253,2.817-1.228,4.37-4.443,4.659c-0.068,0.006-0.137,0.008-0.207,0.005
				c-3.227,0.233-4.963-1.017-5.208-3.751c-0.01-0.11-0.017-0.226-0.021-0.346c-0.042-0.939,0.269-1.73,0.936-2.373
				c-1.519,0.137-3.303,0.348-5.353,0.633L58.843,79.311z M69.988,81.78l-3.544,0.388c-0.493,0.58-0.714,1.15-0.664,1.711
				c0.021,0.229,0.086,0.455,0.195,0.676c0.346,0.699,1.165,0.992,2.458,0.876c0.15-0.014,0.304-0.032,0.46-0.056
				c1.559-0.232,2.345-0.774,2.357-1.627c0-0.083-0.004-0.166-0.012-0.248C71.173,82.766,70.756,82.192,69.988,81.78z"/>
			<path fill="#FFFFFF" d="M61.952,72.566c-0.148-3.03,0.849-4.642,2.99-4.834l7.286-0.653l0.329,3.203l-0.965,0.198
				c0.62,0.61,0.979,1.461,1.078,2.554c0.042,0.468,0.032,0.978-0.029,1.528c-0.155,1.651-1.019,2.548-2.593,2.688
				c-0.191,0.018-0.398,0.022-0.619,0.015c-1.638-0.038-2.587-1.512-2.848-4.421c-0.05-0.56-0.075-1.178-0.073-1.853l-1.19,0.106
				c-0.965,0.087-1.41,0.538-1.337,1.354l0.005,0.056c-0.001,0.064,0.001,0.125,0.006,0.18c0.08,0.89,0.66,1.286,1.741,1.189
				l0.154-0.014l0.089,3.295c-2.387,0.214-3.72-1.221-3.997-4.304L61.952,72.566z M69.954,70.683l-1.806,0.162
				c-0.026,0.399-0.025,0.761,0.004,1.081c0.075,0.836,0.335,1.386,0.779,1.651c0.27,0.161,0.514,0.231,0.732,0.212
				c0.274-0.024,0.504-0.193,0.689-0.506c0.144-0.244,0.199-0.55,0.166-0.917C70.477,71.898,70.289,71.337,69.954,70.683z"/>
			<path fill="#FFFFFF" d="M56.829,56.86c2.317-0.152,4.745-0.343,7.282-0.57c2.312-0.208,4.718-0.446,7.218-0.718l0.303,3.262
				l-1.56,0.251c0.82,0.611,1.281,1.481,1.382,2.609c0.252,2.817-1.228,4.37-4.443,4.659c-0.068,0.006-0.137,0.008-0.207,0.005
				c-3.227,0.233-4.963-1.017-5.208-3.751c-0.01-0.11-0.017-0.226-0.021-0.346c-0.043-0.939,0.269-1.73,0.936-2.373
				c-1.519,0.137-3.303,0.348-5.353,0.633L56.829,56.86z M67.973,59.329l-3.544,0.388c-0.493,0.58-0.714,1.15-0.664,1.711
				c0.021,0.229,0.086,0.455,0.195,0.676c0.346,0.7,1.165,0.992,2.458,0.876c0.151-0.014,0.304-0.032,0.46-0.056
				c1.559-0.232,2.344-0.774,2.357-1.627c0-0.083-0.004-0.166-0.012-0.248C69.158,60.314,68.741,59.741,67.973,59.329z"/>
			<path fill="#FFFFFF" d="M60.311,50.941c-0.286-3.185,1.148-4.918,4.302-5.201c0.383-0.034,0.795-0.048,1.237-0.041l0.552,6.152
				c1.759-0.157,2.597-0.69,2.515-1.599l-0.009-0.097c-0.119-0.794-0.61-1.152-1.472-1.075c-0.185,0.017-0.388,0.054-0.61,0.11
				L66.48,45.92c2.606-0.234,4.064,1.176,4.372,4.229c0.01,0.036,0.017,0.067,0.019,0.095c0.261,2.909-1.253,4.512-4.544,4.808
				l-0.308,0.027C62.481,55.303,60.579,53.924,60.311,50.941z M64.543,52.352l-0.279-3.111l-0.247,0.022
				c-1.245,0.112-1.825,0.641-1.74,1.586C62.37,51.867,63.125,52.368,64.543,52.352z"/>
			<path fill="#FFFFFF" d="M66.7,44.679l-0.396-3.142l0.133-0.012c1.053-0.095,1.548-0.578,1.483-1.452l-0.005-0.055
				c-0.076-0.845-0.418-1.239-1.027-1.185l-0.072,0.007c-0.667,0.097-1.133,0.979-1.397,2.644c-0.265,1.666-0.868,2.707-1.81,3.125
				c-0.331,0.15-0.654,0.239-0.969,0.268c-0.575,0.051-1.126-0.098-1.654-0.448c-0.807-0.538-1.32-1.417-1.54-2.638
				c-0.057-0.328-0.099-0.647-0.127-0.959c-0.073-0.817-0.032-1.547,0.124-2.19c0.218-0.88,0.585-1.509,1.103-1.889
				c0.356-0.254,0.764-0.401,1.222-0.442c0.219-0.02,0.447-0.018,0.684,0.008l0.315,2.941c-0.173-0.013-0.332-0.012-0.476,0.001
				c-0.684,0.062-1.024,0.388-1.019,0.979c-0.001,0.064,0.001,0.129,0.007,0.193c0.055,0.605,0.32,0.993,0.797,1.163
				c0.164,0.06,0.311,0.083,0.441,0.072c0.322-0.029,0.581-0.256,0.777-0.681c0.277-0.599,0.535-1.471,0.774-2.615
				c0.239-1.146,0.748-1.947,1.527-2.406c0.296-0.165,0.597-0.262,0.905-0.289c0.52-0.047,1.062,0.107,1.624,0.465
				c0.899,0.566,1.478,1.519,1.735,2.854c0.061,0.291,0.104,0.579,0.129,0.863c0.09,1.01-0.021,1.963-0.333,2.86
				C69.258,43.867,68.272,44.52,66.7,44.679z"/>
		</g>
	</g>
</g>
</svg>
