<?xml version="1.0" encoding="utf-8"?>
<!-- Generator: Adobe Illustrator 16.0.0, SVG Export Plug-In . SVG Version: 6.00 Build 0)  -->
<!DOCTYPE svg PUBLIC "-//W3C//DTD SVG 1.1//EN" "http://www.w3.org/Graphics/SVG/1.1/DTD/svg11.dtd">
<svg version="1.1" id="Capa_1" xmlns="http://www.w3.org/2000/svg" xmlns:xlink="http://www.w3.org/1999/xlink" x="0px" y="0px"
	 width="232.97px" height="34px" viewBox="0 0 232.97 34" enable-background="new 0 0 232.97 34" xml:space="preserve">
<g>
	<polygon fill="#81AD38" points="229.97,34 0,34 6,4 232.97,0 	"/>
	<g>
		<g>
			<path fill="#FFFFFF" d="M8.206,10.785v-2.95c1.475,0.029,2.935,0.045,4.379,0.045c2.247,0,4.449-0.034,6.606-0.102l0.136,3.142
				h-3.793c0,5.317,0.075,9.535,0.227,12.653l-4.244,0.157c0.221-5.31,0.381-9.64,0.481-12.99L8.206,10.785z"/>
			<path fill="#FFFFFF" d="M25.542,12.523c3.48,0,5.222,1.725,5.222,5.172c0,0.419-0.025,0.867-0.075,1.346h-6.727
				c0,1.923,0.496,2.884,1.489,2.884h0.105c0.873-0.053,1.31-0.55,1.31-1.492c0-0.202-0.021-0.427-0.061-0.673l3.582-0.057
				c0,2.85-1.671,4.293-5.012,4.33c-0.04,0.008-0.075,0.012-0.105,0.012c-3.181,0-4.771-1.799-4.771-5.396v-0.336
				C20.601,14.453,22.281,12.523,25.542,12.523z M23.601,16.978h3.4v-0.27c0-1.361-0.517-2.042-1.55-2.042
				C24.338,14.666,23.721,15.437,23.601,16.978z"/>
			<path fill="#FFFFFF" d="M34.662,12.232l0.15,1.828c0.421-0.972,1.529-1.466,3.326-1.48h0.06c1.766,0,2.97,0.516,3.612,1.548
				c0.441,0.703,0.662,2.349,0.662,4.936c0,1.271-0.056,2.775-0.166,4.51h-3.642c0.13-2.311,0.195-4.102,0.195-5.373
				c0-0.636-0.015-1.145-0.045-1.525c-0.101-1.122-0.582-1.684-1.444-1.684c-0.863,0-1.405,0.3-1.626,0.897l0.15,8.134l-3.536,0.022
				c0-3.44-0.155-7.304-0.467-11.589L34.662,12.232z"/>
			<path fill="#FFFFFF" d="M44.143,25.346l3.536-0.146c-0.01,0.09-0.015,0.18-0.015,0.27c0,0.814,0.437,1.26,1.31,1.334
				c0.14,0.016,0.271,0.022,0.391,0.022c0.753,0,1.289-0.224,1.61-0.673c0.281-0.403,0.422-1.159,0.422-2.266
				c0-0.299-0.011-0.628-0.03-0.987c-0.562,0.838-1.605,1.294-3.131,1.368c-2.979-0.022-4.469-1.91-4.469-5.665v-0.078
				c0.02-3.799,1.79-5.71,5.312-5.732c0.964,0,1.826,0.419,2.589,1.257l0.045-1.784l3.296,0.112c0,6.17-0.025,9.991-0.075,11.465
				c-0.051,1.473-0.349,2.654-0.896,3.545c-0.547,0.89-1.478,1.458-2.792,1.705c-0.691,0.135-1.379,0.202-2.062,0.202
				c-0.612,0-1.219-0.053-1.82-0.157c-1.285-0.225-2.167-0.647-2.649-1.268c-0.401-0.509-0.602-1.175-0.602-1.997
				C44.112,25.709,44.122,25.532,44.143,25.346z M51.336,20.903v-4.555c-0.492-0.74-1.113-1.11-1.866-1.11
				c-0.15,0-0.306,0.016-0.467,0.045c-0.973,0.172-1.51,1.171-1.61,2.995c-0.01,0.194-0.015,0.382-0.015,0.562
				c0,1.488,0.371,2.4,1.113,2.736c0.251,0.12,0.517,0.18,0.798,0.18C49.911,21.756,50.593,21.472,51.336,20.903z"/>
			<path fill="#FFFFFF" d="M61.99,12.198c3.301,0.135,4.951,1.373,4.951,3.713v7.965l-3.507,0.045l-0.12-1.065
				c-0.723,0.613-1.681,0.92-2.874,0.92c-0.512,0-1.063-0.06-1.655-0.18c-1.776-0.329-2.664-1.354-2.664-3.073
				c0-0.21,0.016-0.434,0.045-0.674c0.201-1.772,1.892-2.658,5.072-2.658c0.611,0,1.284,0.033,2.017,0.101V15.99
				c0-1.055-0.447-1.582-1.34-1.582h-0.061c-0.07-0.007-0.135-0.011-0.195-0.011c-0.974,0-1.46,0.591-1.46,1.772v0.168l-3.581-0.225
				c0-2.609,1.686-3.915,5.056-3.915H61.99z M63.255,21.061v-1.975c-0.432-0.067-0.823-0.101-1.174-0.101
				c-0.913,0-1.535,0.229-1.866,0.685c-0.201,0.276-0.301,0.534-0.301,0.773c0,0.3,0.16,0.565,0.481,0.797
				c0.25,0.18,0.576,0.27,0.978,0.27C61.885,21.51,62.512,21.359,63.255,21.061z"/>
			<path fill="#FFFFFF" d="M78.649,12.523c3.48,0,5.222,1.725,5.222,5.172c0,0.419-0.025,0.867-0.075,1.346h-6.727
				c0,1.923,0.496,2.884,1.489,2.884h0.105c0.873-0.053,1.31-0.55,1.31-1.492c0-0.202-0.021-0.427-0.061-0.673l3.582-0.057
				c0,2.85-1.671,4.293-5.012,4.33c-0.04,0.008-0.075,0.012-0.105,0.012c-3.181,0-4.771-1.799-4.771-5.396v-0.336
				C73.708,14.453,75.389,12.523,78.649,12.523z M76.708,16.978h3.4v-0.27c0-1.361-0.517-2.042-1.55-2.042
				C77.445,14.666,76.828,15.437,76.708,16.978z"/>
			<path fill="#FFFFFF" d="M87.77,12.232l0.15,1.828c0.421-0.972,1.529-1.466,3.326-1.48h0.06c1.766,0,2.97,0.516,3.612,1.548
				c0.441,0.703,0.662,2.349,0.662,4.936c0,1.271-0.056,2.775-0.166,4.51h-3.642c0.13-2.311,0.195-4.102,0.195-5.373
				c0-0.636-0.015-1.145-0.045-1.525c-0.101-1.122-0.582-1.684-1.444-1.684c-0.863,0-1.405,0.3-1.626,0.897l0.15,8.134l-3.536,0.022
				c0-3.44-0.155-7.304-0.467-11.589L87.77,12.232z"/>
			<path fill="#FFFFFF" d="M108.597,19.423l3.582,0.168c0,2.7-1.671,4.068-5.012,4.106c-0.04,0.007-0.075,0.011-0.105,0.011
				c-3.181,0-4.771-1.799-4.771-5.396v-0.337c0.101-3.859,1.796-5.807,5.087-5.845h0.12c3.03,0,4.545,1.294,4.545,3.882
				c0,0.149-0.005,0.299-0.015,0.448l-3.236,0.18v-0.27c0-1.36-0.517-2.041-1.55-2.041c-1.053,0-1.58,1.103-1.58,3.309v0.371
				c0.061,2.386,0.592,3.578,1.596,3.578h0.09c0.873-0.053,1.31-0.55,1.31-1.492C108.657,19.894,108.637,19.67,108.597,19.423z"/>
			<path fill="#FFFFFF" d="M121.237,24.045l-0.15-1.829c-0.421,0.973-1.555,1.463-3.401,1.47c-0.02,0.008-0.035,0.012-0.045,0.012
				c-1.826,0-3.035-0.613-3.627-1.84c-0.401-0.815-0.602-2.502-0.602-5.06c0-1.316,0.055-2.868,0.166-4.655h3.656
				c-0.2,2.513-0.301,4.446-0.301,5.8c0,0.681,0.024,1.211,0.075,1.593c0.15,1.166,0.657,1.75,1.52,1.75
				c0.863,0,1.405-0.303,1.626-0.909l-0.15-7.785l3.536-0.022c0,3.216,0.155,6.963,0.467,11.24L121.237,24.045z"/>
			<path fill="#FFFFFF" d="M130.147,12.523c3.48,0,5.222,1.725,5.222,5.172c0,0.419-0.025,0.867-0.075,1.346h-6.727
				c0,1.923,0.496,2.884,1.489,2.884h0.105c0.873-0.053,1.31-0.55,1.31-1.492c0-0.202-0.021-0.427-0.061-0.673l3.582-0.057
				c0,2.85-1.671,4.293-5.012,4.33c-0.04,0.008-0.075,0.012-0.105,0.012c-3.181,0-4.771-1.799-4.771-5.396v-0.336
				C125.206,14.453,126.887,12.523,130.147,12.523z M128.206,16.978h3.4v-0.27c0-1.361-0.517-2.042-1.55-2.042
				C128.943,14.666,128.326,15.437,128.206,16.978z"/>
			<path fill="#FFFFFF" d="M139.267,12.232l0.15,1.828c0.421-0.972,1.529-1.466,3.326-1.48h0.06c1.766,0,2.97,0.516,3.612,1.548
				c0.441,0.703,0.662,2.349,0.662,4.936c0,1.271-0.056,2.775-0.166,4.51h-3.642c0.13-2.311,0.195-4.102,0.195-5.373
				c0-0.636-0.015-1.145-0.045-1.525c-0.101-1.122-0.582-1.684-1.444-1.684c-0.863,0-1.405,0.3-1.626,0.897l0.15,8.134l-3.536,0.022
				c0-3.44-0.155-7.304-0.467-11.589L139.267,12.232z"/>
			<path fill="#FFFFFF" d="M150.839,8.945l3.416-0.168v3.713l2.874-0.057l0.046,2.12l-2.92,0.102v5.104
				c0,1.188,0.677,1.783,2.031,1.783c0.281,0,0.587-0.026,0.918-0.078l-0.135,2.468c-0.481,0.045-0.938,0.067-1.37,0.067
				c-3.17,0-4.785-1.219-4.846-3.657v-5.485l-2.468,0.112l-0.061-2.502l2.528,0.022L150.839,8.945z"/>
			<path fill="#FFFFFF" d="M164.247,12.198c3.301,0.135,4.951,1.373,4.951,3.713v7.965l-3.507,0.045l-0.12-1.065
				c-0.723,0.613-1.681,0.92-2.874,0.92c-0.512,0-1.063-0.06-1.655-0.18c-1.776-0.329-2.664-1.354-2.664-3.073
				c0-0.21,0.016-0.434,0.045-0.674c0.201-1.772,1.892-2.658,5.072-2.658c0.611,0,1.284,0.033,2.017,0.101V15.99
				c0-1.055-0.447-1.582-1.34-1.582h-0.061c-0.07-0.007-0.135-0.011-0.195-0.011c-0.974,0-1.46,0.591-1.46,1.772v0.168l-3.581-0.225
				c0-2.609,1.686-3.915,5.056-3.915H164.247z M165.512,21.061v-1.975c-0.432-0.067-0.823-0.101-1.174-0.101
				c-0.913,0-1.535,0.229-1.866,0.685c-0.201,0.276-0.301,0.534-0.301,0.773c0,0.3,0.16,0.565,0.481,0.797
				c0.25,0.18,0.576,0.27,0.978,0.27C164.142,21.51,164.769,21.359,165.512,21.061z"/>
			<path fill="#FFFFFF" d="M183.615,29.081c0.011-2.4,0.016-4.431,0.016-6.091c-0.582,0.793-1.636,1.208-3.16,1.245
				c-2.939,0-4.415-1.907-4.425-5.722c-0.01-0.015-0.015-0.029-0.015-0.044c0-3.784,1.766-5.677,5.297-5.677
				c1.033,0,1.921,0.419,2.664,1.257l0.12-1.728l3.266,0.011c-0.051,2.954-0.075,5.751-0.075,8.391c0,2.902,0.03,5.613,0.09,8.134
				L183.615,29.081z M183.631,20.903v-4.555c-0.492-0.74-1.113-1.11-1.866-1.11c-0.15,0-0.306,0.016-0.467,0.045
				c-0.973,0.172-1.51,1.171-1.61,2.995c-0.01,0.194-0.015,0.382-0.015,0.562c0,1.488,0.371,2.4,1.113,2.736
				c0.251,0.12,0.517,0.18,0.798,0.18C182.206,21.756,182.888,21.472,183.631,20.903z"/>
			<path fill="#FFFFFF" d="M196.392,24.045l-0.15-1.829c-0.421,0.973-1.555,1.463-3.401,1.47c-0.02,0.008-0.035,0.012-0.045,0.012
				c-1.826,0-3.035-0.613-3.627-1.84c-0.401-0.815-0.602-2.502-0.602-5.06c0-1.316,0.055-2.868,0.166-4.655h3.656
				c-0.2,2.513-0.301,4.446-0.301,5.8c0,0.681,0.024,1.211,0.075,1.593c0.15,1.166,0.657,1.75,1.52,1.75
				c0.863,0,1.405-0.303,1.626-0.909l-0.15-7.785l3.536-0.022c0,3.216,0.155,6.963,0.467,11.24L196.392,24.045z"/>
			<path fill="#FFFFFF" d="M205.301,12.523c3.48,0,5.222,1.725,5.222,5.172c0,0.419-0.025,0.867-0.075,1.346h-6.727
				c0,1.923,0.496,2.884,1.489,2.884h0.105c0.873-0.053,1.31-0.55,1.31-1.492c0-0.202-0.021-0.427-0.061-0.673l3.582-0.057
				c0,2.85-1.671,4.293-5.012,4.33c-0.04,0.008-0.075,0.012-0.105,0.012c-3.181,0-4.771-1.799-4.771-5.396v-0.336
				C200.359,14.453,202.04,12.523,205.301,12.523z M203.359,16.978h3.4v-0.27c0-1.361-0.517-2.042-1.55-2.042
				C204.097,14.666,203.479,15.437,203.359,16.978z"/>
			<path fill="#FFFFFF" d="M213.849,24.101c-0.602,0-1.118-0.161-1.55-0.482s-0.647-0.707-0.647-1.155
				c0-0.456,0.216-0.845,0.647-1.167c0.432-0.321,0.948-0.482,1.55-0.482c0.612,0,1.134,0.161,1.565,0.482
				c0.432,0.322,0.647,0.711,0.647,1.167c0,0.448-0.216,0.834-0.647,1.155S214.461,24.101,213.849,24.101z M219.612,24.101
				c-0.602,0-1.118-0.161-1.55-0.482s-0.647-0.707-0.647-1.155c0-0.456,0.216-0.845,0.647-1.167c0.432-0.321,0.948-0.482,1.55-0.482
				c0.612,0,1.134,0.161,1.565,0.482c0.432,0.322,0.647,0.711,0.647,1.167c0,0.448-0.216,0.834-0.647,1.155
				S220.225,24.101,219.612,24.101z M225.376,24.101c-0.602,0-1.118-0.161-1.55-0.482s-0.646-0.707-0.646-1.155
				c0-0.456,0.215-0.845,0.646-1.167c0.432-0.321,0.948-0.482,1.55-0.482c0.612,0,1.134,0.161,1.565,0.482
				c0.432,0.322,0.647,0.711,0.647,1.167c0,0.448-0.216,0.834-0.647,1.155S225.988,24.101,225.376,24.101z"/>
		</g>
	</g>
</g>
</svg>
