<?xml version="1.0" encoding="utf-8"?>
<!-- Generator: Adobe Illustrator 16.0.0, SVG Export Plug-In . SVG Version: 6.00 Build 0)  -->
<!DOCTYPE svg PUBLIC "-//W3C//DTD SVG 1.1//EN" "http://www.w3.org/Graphics/SVG/1.1/DTD/svg11.dtd">
<svg version="1.1" id="Capa_1" xmlns="http://www.w3.org/2000/svg" xmlns:xlink="http://www.w3.org/1999/xlink" x="0px" y="0px"
	 width="357.967px" height="384.801px" viewBox="0 0 357.967 384.801" enable-background="new 0 0 357.967 384.801"
	 xml:space="preserve">
<g>
	<g>
		<path fill="#DC9B2F" d="M344.861,275.024c-5.819-0.046-11.811-0.069-17.976-0.069c-6.182,0-12.527,0.023-19.038,0.069
			c-0.241-2.663-0.362-5.119-0.362-7.366c0-6.254,0.932-10.863,2.797-13.829c2.556-4.03,7.278-6.139,14.168-6.324h1.865
			c5.906,0,10.119,0.765,12.64,2.294c2.78,1.69,4.627,4.783,5.542,9.277c0.536,2.595,0.803,5.443,0.803,8.547
			C345.302,269.94,345.155,272.407,344.861,275.024z M315.256,266.407c5.681,0.395,11.172,0.591,16.473,0.591
			c2.003,0,3.972-0.022,5.905-0.069c0.139-0.811,0.208-1.587,0.208-2.328c0-2.038-0.527-3.753-1.58-5.143
			c-1.416-1.899-4.593-2.85-9.532-2.85h-0.104c-4.973,0.023-8.237,0.95-9.791,2.78c-1.174,1.413-1.761,3.093-1.761,5.038
			C315.075,265.053,315.136,265.713,315.256,266.407z"/>
		<path fill="#DC9B2F" d="M319.245,233.606c0-8.038,3.98-12.057,11.94-12.057c0.967,0,2.003,0.058,3.108,0.174v15.531
			c4.438,0,6.657-1.146,6.657-3.439v-0.243c-0.121-2.016-1.269-3.023-3.445-3.023c-0.466,0-0.984,0.047-1.554,0.139l-0.129-8.27
			c6.579,0,9.912,3.857,9.998,11.57c0.017,0.094,0.026,0.174,0.026,0.244c0,7.343-4.153,11.015-12.458,11.015h-0.777
			C323.7,245.016,319.245,241.135,319.245,233.606z M329.528,238.089v-7.853h-0.622c-3.143,0-4.714,1.193-4.714,3.579
			C324.192,236.387,325.971,237.811,329.528,238.089z"/>
		<path fill="#DC9B2F" d="M327.274,209.7l18.778-0.347l0.052,8.513c-7.943,0-16.862,0.359-26.756,1.077l-0.518-6.394l4.222-0.348
			c-2.072-0.973-3.254-3.243-3.548-6.811c-0.034-0.532-0.052-1.042-0.052-1.528c0-2.803,0.682-4.935,2.046-6.394
			c1.623-1.69,4.205-2.548,7.744-2.571l0.57,7.714c-0.293-0.022-0.578-0.035-0.854-0.035c-2.763,0-4.145,0.962-4.145,2.885v0.139
			C324.9,207.824,325.72,209.191,327.274,209.7z"/>
		<path fill="#DC9B2F" d="M319.245,181.278c0-8.038,3.98-12.057,11.94-12.057c0.967,0,2.003,0.058,3.108,0.174v15.531
			c4.438,0,6.657-1.146,6.657-3.439v-0.243c-0.121-2.016-1.269-3.023-3.445-3.023c-0.466,0-0.984,0.047-1.554,0.139l-0.129-8.27
			c6.579,0,9.912,3.857,9.998,11.57c0.017,0.094,0.026,0.174,0.026,0.244c0,7.343-4.153,11.015-12.458,11.015h-0.777
			C323.7,192.688,319.245,188.807,319.245,181.278z M329.528,185.761v-7.853h-0.622c-3.143,0-4.714,1.193-4.714,3.579
			C324.192,184.059,325.971,185.482,329.528,185.761z"/>
		<path fill="#DC9B2F" d="M335.174,152.403l0.388-8.27c6.234,0,9.394,3.857,9.48,11.57c0.018,0.094,0.026,0.174,0.026,0.244
			c0,7.343-4.152,11.015-12.458,11.015h-0.777c-8.91-0.231-13.408-4.146-13.495-11.745v-0.277c0-6.996,2.988-10.494,8.962-10.494
			c0.346,0,0.691,0.013,1.036,0.035l0.414,7.471h-0.622c-3.143,0-4.714,1.193-4.714,3.579c0,2.432,2.547,3.648,7.641,3.648h0.854
			c5.508-0.14,8.263-1.367,8.263-3.684v-0.208c-0.121-2.016-1.27-3.023-3.445-3.023
			C336.262,152.265,335.744,152.312,335.174,152.403z"/>
		<path fill="#DC9B2F" d="M308.729,132.98l14.583-0.348c-2.245-0.973-3.384-3.243-3.419-6.811v-0.104
			c0-3.521,1.191-6.022,3.574-7.505c1.624-1.02,5.422-1.529,11.396-1.529c2.936,0,6.407,0.128,10.413,0.383v8.756
			c-5.336-0.301-9.471-0.452-12.407-0.452c-1.468,0-2.642,0.035-3.523,0.104c-2.59,0.232-3.885,1.229-3.885,2.988
			c0,1.761,0.69,2.896,2.072,3.405l18.779-0.348l0.052,8.513c-7.943,0-20.401,0.476-37.376,1.425L308.729,132.98z"/>
		<path fill="#DC9B2F" d="M319.245,101.534c0-7.875,4.075-11.813,12.225-11.813c0.328,0,0.657,0.012,0.984,0.035
			c8.824,0.324,13.279,4.517,13.365,12.578c0.017,0.093,0.026,0.186,0.026,0.277c0,7.668-4.17,11.502-12.51,11.502h-0.726
			C323.7,113.882,319.245,109.688,319.245,101.534z M325.15,102.682c0.38,1.459,1.787,2.455,4.222,2.988
			c1.45,0.324,2.91,0.486,4.377,0.486c0.984,0,1.978-0.07,2.979-0.209c2.486-0.37,3.773-1.563,3.859-3.579v-0.243
			c0-1.876-0.923-3.162-2.771-3.856c-1.537-0.579-3.358-0.869-5.465-0.869c-0.518,0-1.044,0.013-1.58,0.035
			c-2.78,0.186-4.515,0.741-5.206,1.668c-0.415,0.579-0.622,1.274-0.622,2.085C324.943,101.65,325.012,102.148,325.15,102.682z"/>
		<path fill="#DC9B2F" d="M336.65,88.228l-0.285-7.957h0.337c2.659,0,4.006-1.101,4.041-3.301v-0.14
			c0-2.131-0.768-3.196-2.305-3.196h-0.182c-1.692,0.093-3.056,2.195-4.092,6.307c-1.036,4.112-2.78,6.584-5.232,7.418
			c-0.863,0.302-1.692,0.452-2.487,0.452c-1.45,0-2.797-0.498-4.041-1.494c-1.899-1.529-2.987-3.845-3.264-6.949
			c-0.068-0.834-0.104-1.645-0.104-2.433c0-2.062,0.268-3.88,0.803-5.455c0.743-2.154,1.804-3.648,3.186-4.482
			c0.95-0.556,2.003-0.834,3.16-0.834c0.553,0,1.123,0.059,1.709,0.174l0.129,7.436c-0.431-0.069-0.829-0.104-1.191-0.104
			c-1.727,0-2.65,0.741-2.771,2.224c-0.017,0.162-0.026,0.324-0.026,0.486c0,1.528,0.579,2.56,1.735,3.092
			c0.397,0.187,0.76,0.278,1.088,0.278c0.812,0,1.511-0.509,2.098-1.528c0.829-1.437,1.67-3.562,2.525-6.376
			c0.854-2.814,2.31-4.709,4.364-5.682c0.777-0.348,1.554-0.521,2.331-0.521c1.312,0,2.633,0.51,3.963,1.529
			c2.124,1.622,3.359,4.135,3.704,7.54c0.086,0.741,0.129,1.472,0.129,2.188c0,2.549-0.492,4.912-1.477,7.089
			C343.238,86.768,340.623,88.181,336.65,88.228z"/>
	</g>
	<g>
		<defs>
			<rect id="SVGID_1_" width="319.121" height="384.801"/>
		</defs>
		<clipPath id="SVGID_2_">
			<use xlink:href="#SVGID_1_"  overflow="visible"/>
		</clipPath>
		<g clip-path="url(#SVGID_2_)">
			<g opacity="0.3">
				<g opacity="0.4">
					<path fill="#666565" d="M246.128,120.735c2.517-2.996,6.907-12.163,8.878-15.305c1.971-3.14,5.153-4.336,2.162-6.991
						c-2.996-2.658-8.502-0.356-11.242,1.432c-4.658,3.035-7.768,9.189-10.567,12.869c-0.115,0.153-0.229,0.301-0.337,0.445
						c-0.068,0.088-0.132,0.174-0.197,0.259c-0.042,0.055-0.082,0.108-0.124,0.162c-0.063,0.085-0.129,0.171-0.192,0.253
						c-0.025,0.031-0.048,0.064-0.072,0.096c-0.182,0.235-0.356,0.457-0.522,0.662l-0.003,0.004c-0.08,0.1-0.159,0.195-0.238,0.286
						c-0.012,0.013-0.023,0.026-0.033,0.04c-0.072,0.082-0.141,0.162-0.21,0.237c-0.008,0.009-0.019,0.021-0.026,0.03
						c-0.236,0.258-0.459,0.473-0.674,0.633c0,0-0.002,0.002-0.004,0.002c-0.069,0.055-0.139,0.1-0.205,0.142
						c-0.005,0.002-0.01,0.004-0.01,0.004c-0.284,0.168-0.55,0.235-0.811,0.179l-0.002-0.002c-0.066-0.015-0.131-0.035-0.195-0.065
						l0,0c-0.657-0.304-1.297-1.423-2.062-3.72c-1.986-5.949,3.469-22.534,4.777-27.751c1.312-5.216,5.207-18.52,6.217-22.084
						c1.014-3.566,3.021-9.462-3.013-11.331c-6.032-1.872-8.114,9.531-9.251,12.129c-1.135,2.602-3.016,9.186-4.157,12.197
						c-1.14,3.015-5.052,17.284-8.101,16.969c-3.051-0.317-1.193-11.858-0.998-15.988c0.191-4.129,0.174-13.077-0.082-16.247
						c-0.256-3.171-0.138-8.538-0.093-11.845c0.043-3.305-1.278-7.316-5.685-7.375c-4.402-0.059-4.866,3.514-5.016,5.304
						c-0.149,1.788-0.268,8.532-0.441,11.423c-0.176,2.889-0.831,10.728-1.307,15.129c-0.471,4.4-1.021,14.582-0.924,17.75
						c0.094,3.169-2.674,4.369-3.857,2.152c-1.178-2.22-6.662-18.541-7.445-21.72c-0.787-3.176-2.203-10.355-3.957-15.75
						c-1.757-5.393-4.42-6.531-7.049-5.601c-2.629,0.928-3.899,3.251-3.646,5.459c0.254,2.205,3.266,12.574,3.947,16.99
						c0.682,4.413,3.071,13.671,4.257,17.541c1.188,3.874,1.669,9.111,0.142,9.915c-1.525,0.808-4.084-3.496-6.383-6.556
						c-2.299-3.062-8.104-11.812-10.927-16.811c-2.825-4.991-6.128-5.174-7.929-4.37c-1.801,0.801-2.938,3.542-1.479,7.553
						c1.459,4.013,7.127,12.902,9.282,16.236c2.161,3.331,7.673,13.183,7.673,13.183c0.463,4.649,1.219,7.36,1.734,11.35
						c0.381,2.944,1.85,8.801,2.432,12.664s3.736,12.992,4.931,16.314c0.377,1.044,0.653,2.282,0.856,3.555
						c-0.004,0.004-0.01,0.007-0.012,0.01l-0.018,0.002c0.219,1.361,0.328,2.764,0.391,4.016c0.002,0.039,0.013,0.073,0.016,0.109
						c0.014,0.274,0.044,0.542,0.057,0.801c0.002,0.023,0.035,0.05,0.037,0.078c0.013,0.262,0.11,0.507,0.114,0.746
						c0.002,0.076,0.162,0.149,0.163,0.223c0.002,0.158,0.262,0.311,0.262,0.453c0,0.076,0,0.15,0,0.223
						c0,0.194-0.263,0.381-0.269,0.543c-0.011,0.35-0.302,9.881-0.78,25.098c-8.111-1.693-6.237,8.432-7.055,13.973
						c-0.442,2.988,0.748,4.325,2.916,5.045c-0.958,30.451-4.76,149.889-6.153,175.458l49.993-2.536
						c0.279-20.812,1.494-139.707,0.678-170.518c1.402-0.185,2.325-0.66,2.398-1.619c0.271-3.561,2.408-14.309,0.098-17.394
						c-0.982-1.312-3.195-1.435-5.848-1.157c0.117-19.467,0.391-31.65,0.916-31.904c0.123-0.059,0.258-0.139,0.395-0.227
						c0.033-0.021,0.065-0.04,0.098-0.062c0.138-0.092,0.281-0.191,0.434-0.307c0.022-0.019,0.045-0.034,0.064-0.052
						c0.139-0.106,0.281-0.222,0.426-0.347c0.036-0.031,0.074-0.062,0.112-0.094c0.163-0.14,0.327-0.286,0.495-0.444
						c0.041-0.036,0.084-0.074,0.125-0.115c0.144-0.134,0.291-0.273,0.438-0.419c0.043-0.041,0.086-0.081,0.128-0.124
						c0.171-0.168,0.344-0.344,0.519-0.523c0.062-0.064,0.127-0.129,0.188-0.194c0.139-0.144,0.276-0.289,0.417-0.438
						c0.073-0.077,0.146-0.155,0.217-0.235c0.146-0.156,0.293-0.315,0.44-0.478c0.085-0.094,0.173-0.191,0.259-0.286
						c0.105-0.12,0.215-0.243,0.324-0.366c0.149-0.17,0.303-0.341,0.451-0.516c0.072-0.08,0.143-0.164,0.214-0.244
						c0.117-0.136,0.233-0.271,0.349-0.407c1.244-1.461,2.408-2.922,3.267-4.049c2.382-3.135,7.757-8.503,10.366-13.218
						C242.928,128.838,243.607,123.728,246.128,120.735z M184.702,152.208c0,0,0.001-0.002,0.005-0.004
						c2.486,2.49,5.844,4.038,9.369,4.255C190.553,156.242,187.189,154.696,184.702,152.208z"/>
					<path fill="#666565" d="M153.59,209.945c-0.602-6.354-1.031-10.68-1.229-12.102c0,0-0.283,0.102-0.789,0.268
						c-0.4,0.133-0.956,0.311-1.631,0.514c-0.48-3.92-0.575-5.713-0.229-5.992c0.537-0.438,1.52-1.646,2.648-3.19
						c0,0,4.146-3.6,7.225-10.509c2.746-6.166,4.996-15.219,3.218-20.749c-2.289-7.114-5.093-7.71-7.712-7.98
						c-1.583-0.163-2.799-0.323-4.926,0.391c-0.17-0.511-0.319-1.075-0.447-1.686c-0.021-0.163-0.041-0.329-0.059-0.492
						c-0.224-1.935-0.418-3.842-0.594-5.646c-0.006-0.104-0.009-0.206-0.014-0.312c-0.008-0.001-0.012-0.002-0.019-0.003
						c-0.405-4.196-0.706-7.79-0.972-9.764c-0.117-0.865-0.229-1.426-0.342-1.576c-0.651-0.883-3.1-4.268-8.288-3.881
						c-5.187,0.386-5.931,4.69-6.058,5.783c-0.053,0.431-0.844-1.375-0.844-1.375c-1.109-0.637-3.264-1.55-6.291-1.371
						c-4.564,0.273-5.106,3.318-5.33,4.508c-0.084,0.445,0.289,2.752,0.826,5.655c-0.068,0.021-0.135,0.038-0.202,0.059
						c0.034,0.083,0.071,0.173,0.106,0.255c-0.238-0.564-0.457-1.069-0.646-1.484c-0.352-0.78-0.611-1.271-0.752-1.376
						c-0.807-0.615-3.865-2.999-8.112-0.917c-4.248,2.08-3.603,6.388-3.39,7.462c0.084,0.424,0.712,1.903,1.659,3.971
						c-1.122-0.232-3.202-0.382-5.696,0.788c-3.756,1.768-3.313,4.821-3.149,6.018c0.14,1.021,2.364,5.41,4.839,10.117
						c0.728,3.494,2.131,8.623,4.713,14.594c1.363,3.149,5.799,10.363,7.484,12.965c1.688,2.6,2.812,5.932,3.197,7.83
						c0.008,0.042,0.016,0.18,0.023,0.396c-0.641-0.15-1.273-0.321-1.891-0.521c-0.315-0.103-0.632-0.204-0.939-0.322
						c0,0-0.097,6.229,0,12.325l0.535-0.041c0.49,36.819,2.027,150.844,2.492,165.771l39.697-2.381l4.238-0.532
						c0,0-9.506-126.7-12.876-165.427L153.59,209.945z"/>
					<path fill="#666565" d="M92.238,174.929c0.141-4.198,0.098-7.149-2.461-6.538c-0.039,0.009-0.087,0.02-0.133,0.029
						c-0.013-0.418-0.023-0.826-0.037-1.236c-0.01-0.334-0.021-0.671-0.029-0.998c-0.012-0.396-0.021-0.781-0.029-1.168
						c-0.01-0.334-0.021-0.668-0.028-0.994c-0.009-0.375-0.018-0.74-0.026-1.107c-0.004-0.328-0.02-0.658-0.021-0.98
						c-0.009-0.359-0.024-0.711-0.028-1.064c-0.004-0.316-0.032-0.633-0.035-0.944c-0.002-0.349-0.052-0.688-0.055-1.028
						c0-0.305-0.098-0.611-0.098-0.91c0-0.332,0-0.658,0-0.986c0-0.292,0.098-0.585,0.101-0.871c0-0.321,0.101-0.637,0.104-0.949
						c0.002-0.283,0.008-0.566,0.012-0.846c0.002-0.304,0.011-0.602,0.016-0.902c0.01-0.271,0.013-0.543,0.02-0.811
						c0.008-0.29,0.018-0.576,0.027-0.858c0.008-0.266,0.018-0.526,0.027-0.785c0.012-0.273,0.021-0.546,0.035-0.815
						c0.012-0.251,0.023-0.5,0.038-0.747c0.013-0.264,0.028-0.524,0.04-0.778c0.016-0.24,0.033-0.474,0.047-0.708
						c0.018-0.251,0.035-0.501,0.053-0.745c0.018-0.229,0.035-0.449,0.057-0.67c0.02-0.236,0.037-0.474,0.061-0.705
						c0.021-0.215,0.042-0.427,0.064-0.64c0.025-0.221,0.047-0.444,0.072-0.661c0.022-0.206,0.047-0.402,0.074-0.602
						c0.025-0.21,0.053-0.421,0.08-0.627c0.025-0.189,0.055-0.372,0.083-0.558c0.029-0.198,0.058-0.402,0.093-0.595
						c0.027-0.176,0.061-0.346,0.093-0.518c0.032-0.188,0.064-0.379,0.101-0.561c0.033-0.164,0.067-0.318,0.102-0.477
						c0.039-0.176,0.076-0.356,0.115-0.524c0.035-0.151,0.07-0.29,0.107-0.436c0.041-0.162,0.082-0.333,0.125-0.488
						c0.002,0,0.002,0,0.002,0c0.254-0.905,0.537-1.692,0.859-2.364c1.18-2.469,7.469-7.807,9.988-11.377s8.265-9.736,10.973-15.066
						c1.403-2.757,1.953-8.449,4.629-11.869c2.677-3.421,7.184-13.761,9.246-17.322c2.061-3.557,5.543-5.012,2.119-7.839
						c-3.426-2.829-9.441-0.059-12.412,2.031c-5.042,3.551-8.249,10.499-11.211,14.688c-2.964,4.193-4.141,6.357-6.577-0.158
						c-2.437-6.52,2.96-25.129,4.208-30.964c1.244-5.834,5.04-20.743,6.021-24.737c0.98-3.994,2.975-10.609-3.789-12.446
						c-6.768-1.837-8.624,10.888-9.783,13.817c-1.154,2.928-2.979,10.304-4.127,13.691c-1.148,3.388-4.92,19.365-8.316,19.135
						c-3.395-0.23-1.791-13.103-1.736-17.69c0.052-4.586-0.32-14.51-0.73-18.014c-0.408-3.507-0.49-9.465-0.572-13.132
						c-0.08-3.668-1.705-8.062-6.593-7.954c-4.886,0.108-5.259,4.089-5.354,6.078c-0.095,1.99,0.043,9.475-0.041,12.686
						c-0.08,3.21-0.496,11.931-0.848,16.831c-0.35,4.898-0.558,16.209-0.326,19.719c0.229,3.508-2.794,4.951-4.189,2.54
						c-1.396-2.415-8.123-20.301-9.119-23.792c-0.994-3.493-2.851-11.397-5.007-17.312c-2.159-5.913-5.159-7.067-8.038-5.935
						c-2.879,1.132-4.197,3.762-3.829,6.196c0.368,2.438,4.12,13.818,5.048,18.688c0.932,4.868,3.945,15.04,5.412,19.285
						c1.47,4.248,2.209,10.038,0.549,10.992c-1.66,0.953-4.666-3.717-7.338-7.021c-2.67-3.304-9.451-12.779-12.779-18.209
						c-3.33-5.426-7-5.498-8.967-4.535c-1.963,0.959-3.123,4.041-1.344,8.433c1.777,4.391,8.406,14.027,10.93,17.639
						c2.527,3.612,9.025,14.318,9.025,14.318s0.676,5.374,1.891,10.194c0.807,3.19,2.842,12.012,3.64,16.271
						c0.796,4.262,4.605,14.261,6.06,17.897c1.348,3.359,2.717,8.028,2.717,10.652c0,0.217,0.129,0.425,0.131,0.612
						c0.002,0.352-0.762,11.103-1.687,25.312c-0.149-0.024-0.28-0.047-0.385-0.061c-2.897-0.45-1.685,6.789-1.685,6.789
						s0.076,0.02,0.227,0.056c-3.276,35.671-10.226,215.743-10.226,215.743l65.902-3.395
						c-1.008-19.555-9.827-183.809-11.408-213.274C92.213,174.938,92.238,174.929,92.238,174.929z M89.2,139.157
						c0,0-0.003,0-0.005,0c-6.158-0.052-12.301-2.538-17.707-5.888c0,0,0.006-0.002,0.008-0.004
						C76.901,136.615,83.043,139.105,89.2,139.157z"/>
				</g>
			</g>
			<g>
				<path fill="#F0D6AF" d="M195.365,202.734c-2.062,0.103,1.122-13.043,1.025-16.414c-2.92,2.215-10.244-5.42-12.25-2.765
					c-5.422,7.181-5.846-0.247-9.652-4.146c-0.984-1.008-5.832,17.123-6.631,15.118c-3.15-1.391-6.129-3.278-8.586-4.423
					c0,0,15.186,10.82,2.98,25.192c1.181,1.421,2.199,2.528,2.744,2.915c0.744,0.529-0.005,7.654-1.393,27.024
					c3.592,0.74,19.324,3.64,29.979,0.061c-0.736-12.437-1.216-20.567-1.16-20.976c0.258-1.852,1.143-5.133,2.612-7.743
					c1.47-2.612,5.312-9.839,6.435-12.957c2.131-5.914,3.174-10.948,3.666-14.362c-0.363,0.814-0.736,1.637-1.107,2.453
					C201.523,197.242,198.247,202.59,195.365,202.734z"/>
				<path fill="#CE9977" d="M187.994,165.988c-1.387-0.273-2.781-0.502-4.188-0.656c-0.076,0.023-2.6-0.121-3.066-0.12
					c-1.572,0.007-3.148,0.085-4.705,0.313c-0.34,0.086-1.477,0.33-1.662,0.383c-0.573,0.156-1.143,0.324-1.707,0.499
					c-3.211,1.019-6.355,2.222-9.564,3.239c-0.164,0.053-0.332,0.089-0.5,0.134c0.086,3.032-0.038,5.89-0.584,7.913
					c0.771,0.207,1.667,0.518,2.758,0.979c1.098,0.463,2.644,1.371,4.336,2.445c0.977-0.748,2.255-1.271,3.896-1.479
					c3.549-0.449,7.648-0.662,11.561-0.475c1.834-5.094,3.432-10.043,4.459-12.943C188.686,166.138,188.341,166.056,187.994,165.988
					z"/>
				<path fill="#CE9977" d="M173.008,179.639c-1.642,0.207-2.92,0.73-3.896,1.479c3.562,2.262,7.775,5.271,9.832,6.466
					c0.676,0.394,1.359,0.678,2,0.924c0.152-0.404,0.311-0.816,0.494-1.25c1.077-2.535,2.139-5.335,3.131-8.093
					C180.656,178.977,176.557,179.189,173.008,179.639z"/>
				<path fill="#EECF9A" d="M162.91,192.866c1.672,2.411,4.518,2.329,6.57,1.425c2.918-1.287,4.733-7.301,5.768-13.9
					c-0.176,1.98-0.379,3.92-0.609,5.662c-0.321,2.414-2.086,7.517-1.609,8.78c1.193,3.152,4.305,3.173,6.445,2.296
					c3-1.229,6.664-10.875,7.52-17.056c0.124-0.913,0.25-1.833,0.372-2.741c0.701-5.235,2.161-15.695,1.919-16.66
					c-0.289-1.135-0.997-4.038-5.413-4.027c-2.933,0.013-4.954,1.023-5.986,1.705c0,0-0.655,1.785-0.73,1.373
					c-0.191-1.043-1.167-5.15-6.194-5.209c-5.026-0.061-7.184,3.353-7.762,4.242c-0.098,0.154-0.172,0.701-0.232,1.543
					c-0.201,2.785-0.26,8.873-0.59,15.264c-0.156,2.985-0.369,6.036-0.684,8.844c-0.055,0.48-0.089,0.932-0.117,1.371
					C160.834,187.955,162.91,192.866,162.91,192.866z"/>
				<path fill="#E8C741" d="M163.936,224.819c-0.484-0.1-0.758-0.162-0.758-0.162c-0.783,7.769-5.66,170.935-5.66,170.935
					l4.123,0.259l38.435-0.102c-0.542-17.239-5.292-171.174-5.292-171.174c-0.286,0.108-0.578,0.206-0.871,0.305
					C183.258,228.459,167.527,225.561,163.936,224.819z"/>
				<path fill="#F2F2F2" d="M195.849,235.615c-0.276-5.888-0.744-11.889-0.744-11.889c-0.291,0.129-0.59,0.248-0.889,0.367
					c-10.856,4.289-26.997,0.485-30.683-0.482c-0.496-0.129-0.778-0.211-0.778-0.211c-0.101,1.385-0.255,5.582-0.45,11.748
					L195.849,235.615z"/>
				<path fill="#EECF9A" d="M205.788,173.596c-2.475-0.979-4.476-0.71-5.542-0.418c0.789-2.051,1.304-3.518,1.359-3.93
					c0.139-1.049,0.504-5.244-3.719-6.994c-4.225-1.751-7.031,0.732-7.771,1.377c-0.127,0.11-0.349,0.601-0.643,1.373
					c-0.973,2.552-2.781,8.26-4.904,14.16c-0.992,2.758-2.054,5.558-3.131,8.093c-0.184,0.434-0.342,0.846-0.494,1.25
					c-0.108-0.04-0.217-0.087-0.327-0.131c-0.113,0.196-0.224,0.394-0.349,0.585c-0.006,0.02-0.014,0.046-0.021,0.068
					c0.605-0.857,0.174-0.119-0.152,0.473c-0.072,0.229-0.137,0.471-0.169,0.649c0.007,0.105,0.015,0.229,0.022,0.381
					c0.037,0.813,0.098,1.627,0.133,2.439c0.042,0.993,1.223,2.743,1.194,3.688c0.79,2.636,3.124,3.467,5.058,3.314
					c2.834-0.226,4.922-6.062,7.697-11.922c-0.719,1.803-1.451,3.56-2.147,5.119c-0.968,2.162-1.331,3.879-1.292,5.227
					c0.097,3.373,2.713,4.438,4.775,4.336c2.882-0.145,6.158-5.492,8.662-11.021c0.371-0.816,0.744-1.639,1.107-2.453
					c2.103-4.689,3.982-9.059,4.056-10.052C209.277,178.043,209.518,175.074,205.788,173.596z"/>
				<path fill="#F0D6AF" d="M182.584,191.797c0.355-3.344-0.418-1.848-0.699-2.743c-0.337-0.162-0.652-0.353-0.957-0.554
					c-0.637-0.246-1.313-0.526-1.984-0.917c-2.057-1.195-6.271-4.204-9.832-6.466c-1.692-1.074-3.238-1.982-4.336-2.445
					c-1.091-0.461-1.986-0.771-2.758-0.979c-2.093-0.561-3.256-0.332-4.773-0.08c-2.51,0.419-5.178,1.162-6.955,8.164
					c-1.383,5.441,1.336,14.039,4.357,19.82c3.387,6.479,7.605,9.7,7.605,9.7c12.205-14.372-2.98-25.192-2.98-25.192
					c2.457,1.145,5.436,3.032,8.586,4.423c1.936,0.854,3.936,1.519,5.924,1.706c1.535,0.145,3.693,0.09,5.643-0.436
					C179.424,195.799,182.227,195.141,182.584,191.797z"/>
			</g>
			<g>
				<g>
					<g>
						<path fill="#FFFFFF" d="M127.609,256.242c-0.023,0.094-0.049,0.186-0.07,0.283
							C127.561,256.428,127.586,256.336,127.609,256.242z"/>
						<path fill="#FFFFFF" d="M130.176,314.996c0.02,0.265,0.039,0.539,0.058,0.807
							C130.215,315.535,130.195,315.261,130.176,314.996z"/>
						<path fill="#FFFFFF" d="M130.018,312.854c0.017,0.221,0.035,0.446,0.051,0.671
							C130.053,313.301,130.034,313.075,130.018,312.854z"/>
						<path fill="#FFFFFF" d="M130.332,317.157c0.021,0.29,0.043,0.587,0.062,0.882
							C130.375,317.744,130.354,317.447,130.332,317.157z"/>
						<path fill="#FFFFFF" d="M130.492,319.415c0.021,0.282,0.042,0.567,0.062,0.852
							C130.534,319.982,130.514,319.697,130.492,319.415z"/>
						<path fill="#FFFFFF" d="M129.866,310.777c0.004,0.065,0.011,0.133,0.014,0.197C129.877,310.91,129.87,310.843,129.866,310.777
							z"/>
						<path fill="#FFFFFF" d="M130.652,321.646c0.021,0.335,0.046,0.675,0.069,1.014C130.698,322.32,130.674,321.98,130.652,321.646
							z"/>
						<path fill="#FFFFFF" d="M127.67,281.177c0.004,0.04,0.006,0.084,0.01,0.127C127.676,281.261,127.674,281.217,127.67,281.177z"
							/>
						<path fill="#FFFFFF" d="M127.98,285.625c0.002,0.041,0.005,0.084,0.008,0.126C127.985,285.709,127.982,285.666,127.98,285.625
							z"/>
						<path fill="#FFFFFF" d="M127.58,279.805c0.004,0.025,0.004,0.051,0.005,0.076C127.584,279.855,127.584,279.83,127.58,279.805z
							"/>
						<path fill="#FFFFFF" d="M146.658,222.281c-1.762-1.429-4.817,0.014-6.324,1.092c-2.56,1.835-4.164,5.396-5.656,7.546
							c-1.492,2.153-2.084,3.263-3.357-0.049c-1.271-3.316,1.398-12.839,2.008-15.821c0.608-2.984,2.479-10.61,2.963-12.651
							c0.482-2.044,1.469-5.429-1.991-6.335c-3.46-0.907-4.351,5.596-4.929,7.097c-0.578,1.497-1.475,5.269-2.045,7.003
							s-2.424,9.906-4.158,9.803c-1.733-0.102-0.975-6.677-0.967-9.021c0.006-2.34-0.229-7.401-0.455-9.188
							c-0.223-1.789-0.291-4.828-0.349-6.699c-0.058-1.873-0.909-4.107-3.401-4.029c-2.494,0.076-2.666,2.11-2.705,3.125
							c-0.039,1.016,0.064,4.835,0.037,6.475c-0.026,1.639-0.201,6.092-0.357,8.594c-0.156,2.5-0.213,8.276-0.078,10.066
							c0.133,1.788-1.404,2.54-2.127,1.314c-0.723-1.229-4.238-10.326-4.758-12.104c-0.525-1.776-1.51-5.802-2.637-8.81
							c-1.129-3.009-2.664-3.584-4.131-2.992c-1.461,0.59-2.122,1.938-1.924,3.18c0.199,1.243,2.164,7.032,2.66,9.513
							c0.496,2.482,2.081,7.659,2.85,9.819c0.77,2.16,1.174,5.113,0.33,5.607c-0.842,0.492-2.399-1.877-3.779-3.551
							c-1.375-1.674-4.879-6.479-6.602-9.234c-1.725-2.754-3.596-2.774-4.598-2.275c-0.998,0.5-1.572,2.076-0.646,4.311
							c0.927,2.232,4.355,7.121,5.658,8.953c1.308,1.83,4.673,7.266,4.673,7.266s0.377,2.739,1.02,5.193
							c0.426,1.625,1.517,6.118,1.943,8.287c0.425,2.172,2.438,7.26,3.197,9.107c0.703,1.706,1.371,4.084,1.486,5.422
							c0.442-0.182,0.877-0.377,1.296-0.602c0.409-0.221,0.798-0.47,1.169-0.734c0.816-0.127,1.627-0.359,2.41-0.705
							c1.883-0.829,3.658-1.875,5.288-3.104c2.775,1.686,5.698,2.925,8.842,2.921c0.309,0,0.701,0.006,0.701-0.025v0.002
							c0-0.45,0.486-0.866,0.648-1.21c0.592-1.265,3.888-4.016,5.157-5.848c1.27-1.835,4.227-5.006,5.586-7.74
							c0.705-1.412,0.985-4.318,2.336-6.076c1.349-1.756,3.616-7.056,4.655-8.88C146.634,224.467,148.418,223.707,146.658,222.281z"
							/>
						<path fill="#FFFFFF" d="M146.658,222.281c-1.762-1.429-4.817,0.014-6.324,1.092c-2.56,1.835-4.164,5.396-5.656,7.546
							c-1.033,1.489-1.633,2.478-2.327,1.852c-0.117,0.028-0.244,0.046-0.38,0.05c-5.377,0.154-10.395,2.622-13.084,7.451
							c-1.744,3.124-3.182,6.872-1.828,10.461c0.373,0.987,0.914,1.857,1.293,2.807c2.611,1.479,5.547,2.534,8.439,2.53
							c0.308,0,0.977,0.006,0.977-0.025v0.002c0-0.45,0.211-0.866,0.371-1.21c0.593-1.265,3.751-4.016,5.02-5.848
							c1.268-1.835,4.16-5.006,5.52-7.74c0.704-1.412,0.951-4.318,2.301-6.076c1.35-1.756,3.598-7.056,4.639-8.88
							C146.652,224.467,148.418,223.707,146.658,222.281z"/>
						<path fill="#FFFFFF" d="M127.814,284.135c0.002,0.03,0.004,0.059,0.007,0.087
							C127.818,284.193,127.816,284.165,127.814,284.135z"/>
						<path fill="#FFFFFF" d="M127.77,282.629c0.002,0.038,0.005,0.08,0.008,0.118C127.774,282.709,127.771,282.667,127.77,282.629z
							"/>
						<path fill="#FFFFFF" d="M131.605,335.892c0.025,0.425,0.054,0.853,0.081,1.282
							C131.659,336.744,131.631,336.316,131.605,335.892z"/>
						<path fill="#FFFFFF" d="M131.762,338.41c0.027,0.434,0.055,0.865,0.082,1.303C131.816,339.275,131.789,338.844,131.762,338.41
							z"/>
						<path fill="#FFFFFF" d="M131.92,340.979c0.023,0.427,0.052,0.854,0.078,1.285C131.972,341.834,131.943,341.406,131.92,340.979
							z"/>
						<path fill="#FFFFFF" d="M132.076,343.607c0.025,0.423,0.051,46.711,0.076,47.136
							C132.127,390.318,132.102,344.03,132.076,343.607z"/>
						<path fill="#FFFFFF" d="M131.127,328.572c0.027,0.4,0.055,0.803,0.08,1.205C131.182,329.375,131.154,328.973,131.127,328.572z
							"/>
						<path fill="#FFFFFF" d="M130.966,326.204c0.028,0.401,0.056,0.807,0.083,1.208
							C131.021,327.011,130.994,326.605,130.966,326.204z"/>
						<path fill="#FFFFFF" d="M131.447,333.406c0.026,0.42,0.054,0.843,0.08,1.268C131.501,334.249,131.474,333.826,131.447,333.406
							z"/>
						<path fill="#FFFFFF" d="M131.286,330.965c0.028,0.422,0.056,0.845,0.084,1.268
							C131.342,331.81,131.314,331.387,131.286,330.965z"/>
						<path fill="#FFFFFF" d="M130.807,323.898c0.027,0.373,0.053,0.748,0.08,1.125
							C130.859,324.646,130.834,324.271,130.807,323.898z"/>
						<path fill="#FFFFFF" d="M126.973,262.144c-0.002,0.108-0.005,0.218-0.008,0.327
							C126.968,262.361,126.971,262.252,126.973,262.144z"/>
						<path fill="#FFFFFF" d="M127.002,261.34c-0.004,0.107-0.008,0.213-0.012,0.324
							C126.994,261.553,126.998,261.447,127.002,261.34z"/>
						<path fill="#FFFFFF" d="M127.043,260.574c-0.007,0.106-0.014,0.213-0.02,0.32
							C127.029,260.787,127.036,260.681,127.043,260.574z"/>
						<path fill="#FFFFFF" d="M126.943,263.856c-0.002,0.113-0.004,0.228-0.004,0.343
							C126.939,264.084,126.941,263.97,126.943,263.856z"/>
						<path fill="#FFFFFF" d="M126.954,262.98c-0.002,0.112-0.004,0.226-0.007,0.338C126.95,263.206,126.952,263.093,126.954,262.98
							z"/>
						<path fill="#FFFFFF" d="M127.09,259.85c-0.008,0.102-0.016,0.204-0.022,0.31C127.074,260.054,127.082,259.951,127.09,259.85z"
							/>
						<path fill="#FFFFFF" d="M126.939,264.775c0,0.109,0,0.221,0.002,0.333C126.939,264.996,126.939,264.885,126.939,264.775z"/>
						<path fill="#FFFFFF" d="M127.148,259.162c-0.01,0.098-0.02,0.195-0.027,0.297C127.129,259.357,127.139,259.26,127.148,259.162
							z"/>
						<path fill="#FFFFFF" d="M127.488,256.773c-0.017,0.088-0.037,0.174-0.053,0.264
							C127.451,256.947,127.472,256.861,127.488,256.773z"/>
						<path fill="#FFFFFF" d="M127.386,257.318c-0.015,0.09-0.03,0.176-0.044,0.268
							C127.355,257.494,127.371,257.408,127.386,257.318z"/>
						<path fill="#FFFFFF" d="M127.217,258.512c-0.012,0.095-0.023,0.188-0.034,0.286
							C127.193,258.699,127.205,258.606,127.217,258.512z"/>
						<path fill="#FFFFFF" d="M127.295,257.9c-0.012,0.09-0.026,0.18-0.038,0.273C127.269,258.08,127.283,257.99,127.295,257.9z"/>
						<path fill="#FFFFFF" d="M127.216,269.922c0,0.018,0,0.036,0,0.057C127.216,269.958,127.216,269.939,127.216,269.922z"/>
						<path fill="#FFFFFF" d="M126.947,265.727c0,0.107,0.003,0.219,0.005,0.326C126.95,265.945,126.947,265.834,126.947,265.727z"
							/>
						<path fill="#FFFFFF" d="M127.015,268.814c0.001,0.068,0.004,0.138,0.007,0.205
							C127.019,268.952,127.016,268.883,127.015,268.814z"/>
						<path fill="#FFFFFF" d="M126.963,266.72c0,0.101,0.004,0.202,0.005,0.305C126.967,266.922,126.963,266.82,126.963,266.72z"/>
						<path fill="#FFFFFF" d="M126.983,267.748c0.004,0.089,0.005,0.182,0.009,0.271
							C126.988,267.93,126.987,267.837,126.983,267.748z"/>
						<path fill="#FFFFFF" d="M126.515,256.069c-3.145,0.004-6.177-1.237-8.952-2.923c-1.633,1.229-3.35,2.276-5.231,3.105
							c-0.785,0.345-1.569,0.578-2.385,0.705c-0.371,0.264-0.743,0.566-1.153,0.787c-0.418,0.227-0.831,0.654-1.283,0.654l0,0
							c0,0,0.015,0.164,0.017,0.262c0.004,0.359-1.423,22.028-1.95,36.52c-0.743,20.389-2.008,81.595-2.618,110.984l29.932-1.813
							c-0.047-0.938-0.095-1.873-0.142-2.799c-0.018-0.327-0.033-0.649-0.052-0.976c-0.03-0.598-0.063-1.195-0.096-1.787
							c-0.021-0.4-0.042-0.795-0.063-1.193c-0.029-0.504-0.056-1.01-0.082-1.512c-0.025-0.421-0.049-0.84-0.071-1.259
							c-0.026-0.483-0.055-0.97-0.082-1.451c-0.022-0.411-0.046-0.815-0.07-1.225c-0.026-0.47-0.054-0.938-0.081-1.406
							c-0.025-0.425-0.051-46.713-0.076-47.136c-0.024-0.449-0.053-0.896-0.078-1.343c-0.026-0.431-0.055-0.858-0.078-1.285
							c-0.025-0.423-0.051-0.846-0.076-1.267c-0.027-0.438-0.055-0.869-0.082-1.303c-0.025-0.414-0.051-0.826-0.075-1.236
							c-0.027-0.43-0.056-0.857-0.081-1.282c-0.025-0.408-0.053-0.814-0.078-1.218c-0.026-0.425-0.054-0.848-0.08-1.268
							c-0.027-0.391-0.053-0.782-0.077-1.174c-0.028-0.423-0.056-0.846-0.084-1.268c-0.026-0.396-0.051-0.792-0.079-1.188
							c-0.025-0.402-0.053-0.805-0.08-1.205c-0.025-0.387-0.052-0.775-0.078-1.16c-0.027-0.401-0.055-0.807-0.083-1.208
							c-0.026-0.394-0.053-0.788-0.079-1.181c-0.027-0.377-0.053-0.752-0.08-1.125c-0.026-0.416-0.055-0.827-0.085-1.239
							c-0.023-0.339-0.048-0.679-0.069-1.014c-0.033-0.463-0.065-0.92-0.099-1.379c-0.02-0.284-0.04-0.569-0.062-0.852
							c-0.031-0.464-0.064-0.921-0.098-1.376c-0.02-0.295-0.041-0.592-0.062-0.882c-0.032-0.455-0.064-0.905-0.099-1.354
							c-0.019-0.268-0.038-0.542-0.058-0.807c-0.037-0.494-0.072-0.982-0.107-1.471c-0.016-0.225-0.034-0.45-0.051-0.671
							c-0.046-0.632-0.092-1.257-0.138-1.88c-0.003-0.064-0.01-0.132-0.014-0.197c-0.707-9.52-1.366-17.863-1.878-25.026
							c-0.003-0.042-0.035-0.081-0.037-0.124c-0.035-0.474-0.094-0.941-0.13-1.405c-0.003-0.028-0.005-0.057-0.007-0.087
							c-0.037-0.465-0.037-0.93-0.064-1.387c-0.003-0.039,0.007-0.079,0.005-0.119c-0.032-0.446-0.055-0.889-0.082-1.325
							c-0.003-0.043-0.003-0.087-0.005-0.127c-0.029-0.436-0.057-0.869-0.084-1.296c-0.002-0.025-0.002-0.051-0.004-0.076
							c-0.238-3.652-0.416-6.928-0.525-9.826c0-0.021,0-0.039-0.002-0.057c-0.012-0.307-0.023-0.605-0.031-0.902
							c-0.003-0.067-0.006-0.137-0.007-0.205c-0.009-0.271-0.017-0.533-0.022-0.795c-0.004-0.09-0.005-0.183-0.009-0.271
							c-0.004-0.244-0.011-0.483-0.016-0.724c-0.001-0.103-0.005-0.204-0.005-0.305c-0.006-0.226-0.009-0.448-0.011-0.667
							c-0.002-0.107-0.005-0.219-0.005-0.326c-0.002-0.209,0.132-0.414,0.132-0.618c0-0.112,0.137-0.224,0.137-0.333
							c0-0.193,0-0.389,0-0.576c0-0.115-0.137-0.229-0.137-0.343c0.002-0.181-0.063-0.36-0.061-0.538
							c0.002-0.112-0.032-0.226-0.03-0.338c0.006-0.172-0.011-0.342-0.007-0.51c0.003-0.109-0.003-0.219,0-0.327
							c0.005-0.163,0.005-0.323,0.013-0.479c0.005-0.111,0.006-0.217,0.01-0.324c0.006-0.151,0.011-0.299,0.021-0.445
							c0.004-0.107,0.011-0.214,0.017-0.32c0.008-0.14,0.016-0.281,0.023-0.415c0.008-0.105,0.016-0.208,0.024-0.31
							c0.009-0.131,0.02-0.265,0.031-0.391c0.008-0.102,0.018-0.199,0.027-0.297c0.011-0.123,0.022-0.246,0.034-0.364
							c0.011-0.099,0.022-0.191,0.034-0.286c0.013-0.113,0.027-0.23,0.04-0.338c0.012-0.094,0.026-0.184,0.038-0.273
							c0.016-0.105,0.031-0.213,0.047-0.314c0.014-0.092,0.029-0.178,0.044-0.268c0.017-0.092,0.032-0.189,0.05-0.281
							c0.016-0.09,0.036-0.176,0.053-0.264c0.018-0.082,0.034-0.168,0.051-0.248c0.021-0.098-0.172-0.193-0.149-0.286
							c0.016-0.063-0.174-0.136-0.174-0.193v-0.002C127.216,256.075,126.824,256.069,126.515,256.069z"/>
					</g>
					<g>
						<defs>
							<path id="XMLID_9_" d="M128.264,272.024c0,0,6.053,121.782,6.713,132.743l-33.615,2.031c0,0,3.141-120.103,4.612-133.428
								C105.974,273.371,122.871,273.816,128.264,272.024z"/>
						</defs>
						<clipPath id="XMLID_4_">
							<use xlink:href="#XMLID_9_"  overflow="visible"/>
						</clipPath>
						<g clip-path="url(#XMLID_4_)">
							<g>
								<path fill="#FFFFFF" d="M138.16,314.889c-14.975,5.518-28.398,5.734-43.545,0.707c0.238-0.598,0.356-0.898,0.592-1.494
									c14.719,4.886,27.762,4.674,42.314-0.688C137.777,314.004,137.905,314.3,138.16,314.889z"/>
							</g>
							<g>
								<path fill="#FFFFFF" d="M138.252,320.502c-14.975,5.516-28.398,5.734-43.545,0.705c0.236-0.598,0.355-0.898,0.593-1.496
									c14.718,4.889,27.761,4.676,42.312-0.686C137.869,319.615,137.996,319.912,138.252,320.502z"/>
							</g>
							<g>
								<path fill="#FFFFFF" d="M138.526,337.334c-14.976,5.518-28.399,5.737-43.546,0.708c0.236-0.6,0.355-0.897,0.591-1.494
									c14.718,4.886,27.764,4.674,42.315-0.688C138.143,336.451,138.27,336.744,138.526,337.334z"/>
							</g>
						</g>
					</g>
				</g>
				<g>
					<g>
						<path fill="#EAC6AE" d="M127.609,256.242c-0.023,0.094-0.049,0.186-0.07,0.283
							C127.561,256.428,127.586,256.336,127.609,256.242z"/>
						<path fill="#EAC6AE" d="M130.176,314.996c0.02,0.265,0.039,0.539,0.058,0.807
							C130.215,315.535,130.195,315.261,130.176,314.996z"/>
						<path fill="#EAC6AE" d="M130.018,312.854c0.017,0.221,0.035,0.446,0.051,0.671
							C130.053,313.301,130.034,313.075,130.018,312.854z"/>
						<path fill="#EAC6AE" d="M130.332,317.157c0.021,0.29,0.043,0.587,0.062,0.882
							C130.375,317.744,130.354,317.447,130.332,317.157z"/>
						<path fill="#EAC6AE" d="M130.492,319.415c0.021,0.282,0.042,0.567,0.062,0.852
							C130.534,319.982,130.514,319.697,130.492,319.415z"/>
						<path fill="#EAC6AE" d="M129.866,310.777c0.004,0.065,0.011,0.133,0.014,0.197C129.877,310.91,129.87,310.843,129.866,310.777
							z"/>
						<path fill="#EAC6AE" d="M130.652,321.646c0.021,0.335,0.046,0.675,0.069,1.014C130.698,322.32,130.674,321.98,130.652,321.646
							z"/>
						<path fill="#EAC6AE" d="M127.67,281.177c0.004,0.04,0.006,0.084,0.01,0.127C127.676,281.261,127.674,281.217,127.67,281.177z"
							/>
						<path fill="#EAC6AE" d="M127.98,285.625c0.002,0.041,0.005,0.084,0.008,0.126C127.985,285.709,127.982,285.666,127.98,285.625
							z"/>
						<path fill="#EAC6AE" d="M127.58,279.805c0.004,0.025,0.004,0.051,0.005,0.076C127.584,279.855,127.584,279.83,127.58,279.805z
							"/>
						<path fill="#E0AE8D" d="M146.658,222.281c-1.762-1.429-4.817,0.014-6.324,1.092c-2.56,1.835-4.164,5.396-5.656,7.546
							c-1.492,2.153-2.084,3.263-3.357-0.049c-1.271-3.316,1.398-12.839,2.008-15.821c0.608-2.984,2.479-10.61,2.963-12.651
							c0.482-2.044,1.469-5.429-1.991-6.335c-3.46-0.907-4.351,5.596-4.929,7.097c-0.578,1.497-1.475,5.269-2.045,7.003
							s-2.424,9.906-4.158,9.803c-1.733-0.102-0.975-6.677-0.967-9.021c0.006-2.34-0.229-7.401-0.455-9.188
							c-0.223-1.789-0.291-4.828-0.349-6.699c-0.058-1.873-0.909-4.107-3.401-4.029c-2.494,0.076-2.666,2.11-2.705,3.125
							c-0.039,1.016,0.064,4.835,0.037,6.475c-0.026,1.639-0.201,6.092-0.357,8.594c-0.156,2.5-0.213,8.276-0.078,10.066
							c0.133,1.788-1.404,2.54-2.127,1.314c-0.723-1.229-4.238-10.326-4.758-12.104c-0.525-1.776-1.51-5.802-2.637-8.81
							c-1.129-3.009-2.664-3.584-4.131-2.992c-1.461,0.59-2.122,1.938-1.924,3.18c0.199,1.243,2.164,7.032,2.66,9.513
							c0.496,2.482,2.081,7.659,2.85,9.819c0.77,2.16,1.174,5.113,0.33,5.607c-0.842,0.492-2.399-1.877-3.779-3.551
							c-1.375-1.674-4.879-6.479-6.602-9.234c-1.725-2.754-3.596-2.774-4.598-2.275c-0.998,0.5-1.572,2.076-0.646,4.311
							c0.927,2.232,4.355,7.121,5.658,8.953c1.308,1.83,4.673,7.266,4.673,7.266s0.377,2.739,1.02,5.193
							c0.426,1.625,1.517,6.118,1.943,8.287c0.425,2.172,2.438,7.26,3.197,9.107c0.703,1.706,1.371,4.084,1.486,5.422
							c0.442-0.182,0.877-0.377,1.296-0.602c0.409-0.221,0.798-0.47,1.169-0.734c0.816-0.127,1.627-0.359,2.41-0.705
							c1.883-0.829,3.658-1.875,5.288-3.104c2.775,1.686,5.698,2.925,8.842,2.921c0.309,0,0.701,0.006,0.701-0.025v0.002
							c0-0.45,0.486-0.866,0.648-1.21c0.592-1.265,3.888-4.016,5.157-5.848c1.27-1.835,4.227-5.006,5.586-7.74
							c0.705-1.412,0.985-4.318,2.336-6.076c1.349-1.756,3.616-7.056,4.655-8.88C146.634,224.467,148.418,223.707,146.658,222.281z"
							/>
						<path fill="#DCA37A" d="M146.658,222.281c-1.762-1.429-4.817,0.014-6.324,1.092c-2.56,1.835-4.164,5.396-5.656,7.546
							c-1.033,1.489-1.633,2.478-2.327,1.852c-0.117,0.028-0.244,0.046-0.38,0.05c-5.377,0.154-10.395,2.622-13.084,7.451
							c-1.744,3.124-3.182,6.872-1.828,10.461c0.373,0.987,0.914,1.857,1.293,2.807c2.611,1.479,5.547,2.534,8.439,2.53
							c0.308,0,0.977,0.006,0.977-0.025v0.002c0-0.45,0.211-0.866,0.371-1.21c0.593-1.265,3.751-4.016,5.02-5.848
							c1.268-1.835,4.16-5.006,5.52-7.74c0.704-1.412,0.951-4.318,2.301-6.076c1.35-1.756,3.598-7.056,4.639-8.88
							C146.652,224.467,148.418,223.707,146.658,222.281z"/>
						<path fill="#EAC6AE" d="M127.814,284.135c0.002,0.03,0.004,0.059,0.007,0.087
							C127.818,284.193,127.816,284.165,127.814,284.135z"/>
						<path fill="#EAC6AE" d="M127.77,282.629c0.002,0.038,0.005,0.08,0.008,0.118C127.774,282.709,127.771,282.667,127.77,282.629z
							"/>
						<path fill="#EAC6AE" d="M131.605,335.892c0.025,0.425,0.054,0.853,0.081,1.282
							C131.659,336.744,131.631,336.316,131.605,335.892z"/>
						<path fill="#EAC6AE" d="M131.762,338.41c0.027,0.434,0.055,0.865,0.082,1.303C131.816,339.275,131.789,338.844,131.762,338.41
							z"/>
						<path fill="#EAC6AE" d="M131.92,340.979c0.023,0.427,0.052,0.854,0.078,1.285C131.972,341.834,131.943,341.406,131.92,340.979
							z"/>
						<path fill="#EAC6AE" d="M132.076,343.607c0.025,0.423,0.051,46.711,0.076,47.136
							C132.127,390.318,132.102,344.03,132.076,343.607z"/>
						<path fill="#EAC6AE" d="M131.127,328.572c0.027,0.4,0.055,0.803,0.08,1.205C131.182,329.375,131.154,328.973,131.127,328.572z
							"/>
						<path fill="#EAC6AE" d="M130.966,326.204c0.028,0.401,0.056,0.807,0.083,1.208
							C131.021,327.011,130.994,326.605,130.966,326.204z"/>
						<path fill="#EAC6AE" d="M131.447,333.406c0.026,0.42,0.054,0.843,0.08,1.268C131.501,334.249,131.474,333.826,131.447,333.406
							z"/>
						<path fill="#EAC6AE" d="M131.286,330.965c0.028,0.422,0.056,0.845,0.084,1.268
							C131.342,331.81,131.314,331.387,131.286,330.965z"/>
						<path fill="#EAC6AE" d="M130.807,323.898c0.027,0.373,0.053,0.748,0.08,1.125
							C130.859,324.646,130.834,324.271,130.807,323.898z"/>
						<path fill="#EAC6AE" d="M126.973,262.144c-0.002,0.108-0.005,0.218-0.008,0.327
							C126.968,262.361,126.971,262.252,126.973,262.144z"/>
						<path fill="#EAC6AE" d="M127.002,261.34c-0.004,0.107-0.008,0.213-0.012,0.324
							C126.994,261.553,126.998,261.447,127.002,261.34z"/>
						<path fill="#EAC6AE" d="M127.043,260.574c-0.007,0.106-0.014,0.213-0.02,0.32
							C127.029,260.787,127.036,260.681,127.043,260.574z"/>
						<path fill="#EAC6AE" d="M126.943,263.856c-0.002,0.113-0.004,0.228-0.004,0.343
							C126.939,264.084,126.941,263.97,126.943,263.856z"/>
						<path fill="#EAC6AE" d="M126.954,262.98c-0.002,0.112-0.004,0.226-0.007,0.338C126.95,263.206,126.952,263.093,126.954,262.98
							z"/>
						<path fill="#EAC6AE" d="M127.09,259.85c-0.008,0.102-0.016,0.204-0.022,0.31C127.074,260.054,127.082,259.951,127.09,259.85z"
							/>
						<path fill="#EAC6AE" d="M126.939,264.775c0,0.109,0,0.221,0.002,0.333C126.939,264.996,126.939,264.885,126.939,264.775z"/>
						<path fill="#EAC6AE" d="M127.148,259.162c-0.01,0.098-0.02,0.195-0.027,0.297C127.129,259.357,127.139,259.26,127.148,259.162
							z"/>
						<path fill="#EAC6AE" d="M127.488,256.773c-0.017,0.088-0.037,0.174-0.053,0.264
							C127.451,256.947,127.472,256.861,127.488,256.773z"/>
						<path fill="#EAC6AE" d="M127.386,257.318c-0.015,0.09-0.03,0.176-0.044,0.268
							C127.355,257.494,127.371,257.408,127.386,257.318z"/>
						<path fill="#EAC6AE" d="M127.217,258.512c-0.012,0.095-0.023,0.188-0.034,0.286
							C127.193,258.699,127.205,258.606,127.217,258.512z"/>
						<path fill="#EAC6AE" d="M127.295,257.9c-0.012,0.09-0.026,0.18-0.038,0.273C127.269,258.08,127.283,257.99,127.295,257.9z"/>
						<path fill="#EAC6AE" d="M127.216,269.922c0,0.018,0,0.036,0,0.057C127.216,269.958,127.216,269.939,127.216,269.922z"/>
						<path fill="#EAC6AE" d="M126.947,265.727c0,0.107,0.003,0.219,0.005,0.326C126.95,265.945,126.947,265.834,126.947,265.727z"
							/>
						<path fill="#EAC6AE" d="M127.015,268.814c0.001,0.068,0.004,0.138,0.007,0.205
							C127.019,268.952,127.016,268.883,127.015,268.814z"/>
						<path fill="#EAC6AE" d="M126.963,266.72c0,0.101,0.004,0.202,0.005,0.305C126.967,266.922,126.963,266.82,126.963,266.72z"/>
						<path fill="#EAC6AE" d="M126.983,267.748c0.004,0.089,0.005,0.182,0.009,0.271
							C126.988,267.93,126.987,267.837,126.983,267.748z"/>
						<path fill="#DCA37A" d="M126.515,256.069c-3.145,0.004-6.177-1.237-8.952-2.923c-1.633,1.229-3.35,2.276-5.231,3.105
							c-0.785,0.345-1.569,0.578-2.385,0.705c-0.371,0.264-0.743,0.566-1.153,0.787c-0.418,0.227-0.831,0.654-1.283,0.654l0,0
							c0,0,0.015,0.164,0.017,0.262c0.004,0.359-1.423,22.028-1.95,36.52c-0.743,20.389-2.008,81.595-2.618,110.984l29.932-1.813
							c-0.047-0.938-0.095-1.873-0.142-2.799c-0.018-0.327-0.033-0.649-0.052-0.976c-0.03-0.598-0.063-1.195-0.096-1.787
							c-0.021-0.4-0.042-0.795-0.063-1.193c-0.029-0.504-0.056-1.01-0.082-1.512c-0.025-0.421-0.049-0.84-0.071-1.259
							c-0.026-0.483-0.055-0.97-0.082-1.451c-0.022-0.411-0.046-0.815-0.07-1.225c-0.026-0.47-0.054-0.938-0.081-1.406
							c-0.025-0.425-0.051-46.713-0.076-47.136c-0.024-0.449-0.053-0.896-0.078-1.343c-0.026-0.431-0.055-0.858-0.078-1.285
							c-0.025-0.423-0.051-0.846-0.076-1.267c-0.027-0.438-0.055-0.869-0.082-1.303c-0.025-0.414-0.051-0.826-0.075-1.236
							c-0.027-0.43-0.056-0.857-0.081-1.282c-0.025-0.408-0.053-0.814-0.078-1.218c-0.026-0.425-0.054-0.848-0.08-1.268
							c-0.027-0.391-0.053-0.782-0.077-1.174c-0.028-0.423-0.056-0.846-0.084-1.268c-0.026-0.396-0.051-0.792-0.079-1.188
							c-0.025-0.402-0.053-0.805-0.08-1.205c-0.025-0.387-0.052-0.775-0.078-1.16c-0.027-0.401-0.055-0.807-0.083-1.208
							c-0.026-0.394-0.053-0.788-0.079-1.181c-0.027-0.377-0.053-0.752-0.08-1.125c-0.026-0.416-0.055-0.827-0.085-1.239
							c-0.023-0.339-0.048-0.679-0.069-1.014c-0.033-0.463-0.065-0.92-0.099-1.379c-0.02-0.284-0.04-0.569-0.062-0.852
							c-0.031-0.464-0.064-0.921-0.098-1.376c-0.02-0.295-0.041-0.592-0.062-0.882c-0.032-0.455-0.064-0.905-0.099-1.354
							c-0.019-0.268-0.038-0.542-0.058-0.807c-0.037-0.494-0.072-0.982-0.107-1.471c-0.016-0.225-0.034-0.45-0.051-0.671
							c-0.046-0.632-0.092-1.257-0.138-1.88c-0.003-0.064-0.01-0.132-0.014-0.197c-0.707-9.52-1.366-17.863-1.878-25.026
							c-0.003-0.042-0.035-0.081-0.037-0.124c-0.035-0.474-0.094-0.941-0.13-1.405c-0.003-0.028-0.005-0.057-0.007-0.087
							c-0.037-0.465-0.037-0.93-0.064-1.387c-0.003-0.039,0.007-0.079,0.005-0.119c-0.032-0.446-0.055-0.889-0.082-1.325
							c-0.003-0.043-0.003-0.087-0.005-0.127c-0.029-0.436-0.057-0.869-0.084-1.296c-0.002-0.025-0.002-0.051-0.004-0.076
							c-0.238-3.652-0.416-6.928-0.525-9.826c0-0.021,0-0.039-0.002-0.057c-0.012-0.307-0.023-0.605-0.031-0.902
							c-0.003-0.067-0.006-0.137-0.007-0.205c-0.009-0.271-0.017-0.533-0.022-0.795c-0.004-0.09-0.005-0.183-0.009-0.271
							c-0.004-0.244-0.011-0.483-0.016-0.724c-0.001-0.103-0.005-0.204-0.005-0.305c-0.006-0.226-0.009-0.448-0.011-0.667
							c-0.002-0.107-0.005-0.219-0.005-0.326c-0.002-0.209,0.132-0.414,0.132-0.618c0-0.112,0.137-0.224,0.137-0.333
							c0-0.193,0-0.389,0-0.576c0-0.115-0.137-0.229-0.137-0.343c0.002-0.181-0.063-0.36-0.061-0.538
							c0.002-0.112-0.032-0.226-0.03-0.338c0.006-0.172-0.011-0.342-0.007-0.51c0.003-0.109-0.003-0.219,0-0.327
							c0.005-0.163,0.005-0.323,0.013-0.479c0.005-0.111,0.006-0.217,0.01-0.324c0.006-0.151,0.011-0.299,0.021-0.445
							c0.004-0.107,0.011-0.214,0.017-0.32c0.008-0.14,0.016-0.281,0.023-0.415c0.008-0.105,0.016-0.208,0.024-0.31
							c0.009-0.131,0.02-0.265,0.031-0.391c0.008-0.102,0.018-0.199,0.027-0.297c0.011-0.123,0.022-0.246,0.034-0.364
							c0.011-0.099,0.022-0.191,0.034-0.286c0.013-0.113,0.027-0.23,0.04-0.338c0.012-0.094,0.026-0.184,0.038-0.273
							c0.016-0.105,0.031-0.213,0.047-0.314c0.014-0.092,0.029-0.178,0.044-0.268c0.017-0.092,0.032-0.189,0.05-0.281
							c0.016-0.09,0.036-0.176,0.053-0.264c0.018-0.082,0.034-0.168,0.051-0.248c0.021-0.098-0.172-0.193-0.149-0.286
							c0.016-0.063-0.174-0.136-0.174-0.193v-0.002C127.216,256.075,126.824,256.069,126.515,256.069z"/>
					</g>
					<g>
						<defs>
							<path id="XMLID_8_" d="M128.264,272.024c0,0,6.053,121.782,6.713,132.743l-33.615,2.031c0,0,3.141-120.103,4.612-133.428
								C105.974,273.371,122.871,273.816,128.264,272.024z"/>
						</defs>
						<use xlink:href="#XMLID_8_"  overflow="visible" fill="#9E2E31"/>
						<clipPath id="XMLID_5_">
							<use xlink:href="#XMLID_8_"  overflow="visible"/>
						</clipPath>
						<g clip-path="url(#XMLID_5_)">
							<g>
								<path fill="#D68E35" d="M138.16,314.889c-14.975,5.518-28.398,5.734-43.545,0.707c0.238-0.598,0.356-0.898,0.592-1.494
									c14.719,4.886,27.762,4.674,42.314-0.688C137.777,314.004,137.905,314.3,138.16,314.889z"/>
							</g>
							<g>
								<path fill="#D68E35" d="M138.252,320.502c-14.975,5.516-28.398,5.734-43.545,0.705c0.236-0.598,0.355-0.898,0.593-1.496
									c14.718,4.889,27.761,4.676,42.312-0.686C137.869,319.615,137.996,319.912,138.252,320.502z"/>
							</g>
							<g>
								<path fill="#D68E35" d="M138.526,337.334c-14.976,5.518-28.399,5.737-43.546,0.708c0.236-0.6,0.355-0.897,0.591-1.494
									c14.718,4.886,27.764,4.674,42.315-0.688C138.143,336.451,138.27,336.744,138.526,337.334z"/>
							</g>
						</g>
					</g>
				</g>
				<g>
					<g>
						<defs>
							<path id="XMLID_7_" d="M128.264,272.024c0,0,6.053,121.782,6.713,132.743l-33.615,2.031c0,0,3.141-120.103,4.612-133.428
								C105.974,273.371,122.871,273.816,128.264,272.024z"/>
						</defs>
						<clipPath id="XMLID_6_">
							<use xlink:href="#XMLID_7_"  overflow="visible"/>
						</clipPath>
					</g>
				</g>
			</g>
			<g>
				<g>
					<path fill="#9B755B" d="M259.5,171.362c-0.002,0.075-0.003,0.147-0.004,0.219C259.497,171.51,259.498,171.438,259.5,171.362z"
						/>
					<path fill="#9B755B" d="M218.988,163.466c-0.084-0.091-0.166-0.183-0.25-0.275
						C218.823,163.283,218.904,163.375,218.988,163.466z"/>
					<path fill="#9B755B" d="M259.58,170.568c-0.002,0.023-0.004,0.051-0.004,0.076C259.576,170.619,259.578,170.592,259.58,170.568
						z"/>
					<path fill="#9B755B" d="M218.424,162.838c-0.144-0.164-0.29-0.33-0.436-0.498C218.134,162.508,218.279,162.674,218.424,162.838
						z"/>
					<path fill="#9B755B" d="M219.625,164.155c-0.072-0.075-0.142-0.151-0.213-0.226
						C219.483,164.004,219.553,164.08,219.625,164.155z"/>
					<path fill="#9B755B" d="M265.561,146.593c0.561-3.733,1.98-9.395,2.348-12.239c0.5-3.855,1.23-6.477,1.678-10.969
						c0,0,5.327-9.521,7.415-12.742c2.085-3.221,7.562-11.814,8.974-15.691c1.408-3.877,0.31-6.525-1.431-7.299
						c-1.739-0.776-4.933-0.6-7.663,4.224c-2.729,4.831-8.338,13.287-10.558,16.247c-2.225,2.957-4.696,7.116-6.171,6.336
						c-1.476-0.776-1.012-5.839,0.136-9.582c1.146-3.74,3.456-12.689,4.115-16.954c0.657-4.268,3.567-14.289,3.814-16.421
						c0.245-2.134-0.983-4.379-3.524-5.275c-2.541-0.898-5.115,0.2-6.812,5.414c-1.697,5.212-3.065,12.15-3.823,15.222
						c-0.76,3.071-6.06,18.846-7.196,20.991c-1.145,2.141-3.82,0.981-3.729-2.08c0.093-3.063-0.439-12.902-0.895-17.157
						c-0.46-4.252-1.091-11.828-1.262-14.62c-0.17-2.795-0.283-9.312-0.427-11.041c-0.144-1.729-0.591-5.184-4.846-5.125
						c-4.261,0.056-5.538,3.933-5.495,7.128c0.043,3.194,0.157,8.382-0.09,11.447c-0.248,3.064-0.266,11.711-0.078,15.702
						c0.186,3.991,1.982,15.146-0.967,15.452c-2.946,0.305-6.726-13.485-7.828-16.398c-1.104-2.911-2.923-9.275-4.02-11.79
						c-1.097-2.512-3.109-13.531-8.939-11.722c-5.83,1.806-3.89,7.504-2.912,10.95c0.979,3.447,4.741,16.304,6.01,21.346
						c1.263,5.041,6.537,21.07,4.616,26.82c-1.919,5.748-3.011,3.896-5.721,0.341c-2.704-3.558-5.713-9.505-10.213-12.438
						c-2.647-1.726-7.971-3.952-10.866-1.381c-2.889,2.564,0.185,3.721,2.09,6.756c1.904,3.036,6.148,11.897,8.58,14.791
						c2.438,2.892,3.094,7.831,4.397,10.188c2.524,4.557,7.716,9.743,10.02,12.773c0.829,1.09,1.956,2.502,3.155,3.914
						c0.658,0.656,1.303,1.329,1.932,2.014c4.742,5.187,13.609,4.031,18.543-0.266c0.748,0.846,1.495,1.688,2.244,2.535
						c2.754,2.374,6.389,3.59,10.016,3.369c3.408-0.209,6.653-1.706,9.058-4.111c0.241,0.189,0.483,0.375,0.729,0.556
						c0.195-1.233,0.464-2.433,0.83-3.446C261.948,159.15,264.997,150.326,265.561,146.593z"/>
					<path fill="#906B57" d="M238.068,162.643c-0.298-1.304-0.492-2.668-0.857-3.964c-0.182-0.362-0.986-2.389-1.156-2.77
						c-1.272-2.846-2.634-5.659-4.193-8.36c-0.738-1.281-1.507-2.549-2.314-3.786c-0.219-0.271-1.609-2.22-1.896-2.573
						c-1.079-1.328-2.188-2.638-3.399-3.85c-0.531-0.529-1.065-1.058-1.621-1.563c-0.01-0.005-0.014-0.01-0.021-0.016
						c-1.094-0.849-2.207-1.675-3.4-2.384c-0.461-0.275-0.928-0.543-1.398-0.805c-0.124-0.053-0.277-0.118-0.488-0.211
						c-1.221-0.515-2.334-1.196-3.314-2.001c-1.01,0.467-2.064-1.069-3.728-3.254c-2.704-3.558-5.713-9.505-10.213-12.438
						c-2.647-1.726-7.971-3.952-10.866-1.381c-2.889,2.564,0.185,3.721,2.09,6.756c1.904,3.036,6.148,11.897,8.58,14.791
						c2.438,2.892,3.094,7.831,4.397,10.188c2.524,4.557,7.716,9.743,10.02,12.773c0.829,1.09,1.956,2.502,3.155,3.914
						c0.658,0.656,1.303,1.329,1.932,2.014c4.742,5.187,13.609,4.031,18.543-0.266c0.174,0.199,0.35,0.397,0.525,0.594
						C238.305,163.588,238.177,163.117,238.068,162.643z"/>
					<path fill="#9B755B" d="M259.617,169.795c0.004-0.035,0.006-0.07,0.006-0.107C259.623,169.726,259.621,169.76,259.617,169.795z
						"/>
					<path fill="#9B755B" d="M217.783,162.103c-0.113-0.132-0.227-0.262-0.34-0.394
						C217.557,161.841,217.669,161.971,217.783,162.103z"/>
					<path fill="#9B755B" d="M220.207,164.769c-0.06-0.062-0.121-0.125-0.181-0.188
						C220.086,164.644,220.147,164.707,220.207,164.769z"/>
					<path fill="#9B755B" d="M221.965,166.43c-0.036-0.031-0.072-0.061-0.109-0.092C221.893,166.369,221.929,166.398,221.965,166.43
						z"/>
					<path fill="#9B755B" d="M222.439,166.813c-0.021-0.015-0.043-0.032-0.064-0.05
						C222.396,166.781,222.418,166.799,222.439,166.813z"/>
					<path fill="#9B755B" d="M258.216,172.019c0,0.073,0,0.146,0,0.217C258.216,172.166,258.216,172.09,258.216,172.019z"/>
					<path fill="#9B755B" d="M222.951,167.171c-0.03-0.021-0.064-0.04-0.096-0.06C222.887,167.131,222.918,167.15,222.951,167.171z"
						/>
					<path fill="#9B755B" d="M220.832,165.395c-0.039-0.041-0.08-0.079-0.123-0.121
						C220.752,165.315,220.793,165.354,220.832,165.395z"/>
					<path fill="#9B755B" d="M221.377,165.912c-0.04-0.035-0.08-0.075-0.121-0.113C221.297,165.837,221.337,165.877,221.377,165.912
						z"/>
					<path fill="#906B57" d="M250.178,169.361c-3.627,0.221-7.262-0.995-10.016-3.369c-0.749-0.848-1.496-1.689-2.244-2.535
						c-4.934,4.297-13.801,5.452-18.543,0.266c-0.629-0.685-1.273-1.357-1.932-2.014l0,0l0,0c0.113,0.132,0.227,0.262,0.34,0.394
						c0.067,0.077,0.137,0.157,0.205,0.237c0.146,0.168,0.292,0.334,0.436,0.498c0.106,0.117,0.211,0.236,0.314,0.353
						c0.084,0.093,0.166,0.185,0.25,0.275c0.143,0.157,0.283,0.312,0.424,0.464c0.071,0.074,0.141,0.15,0.213,0.226
						c0.133,0.146,0.268,0.287,0.401,0.425c0.06,0.063,0.121,0.127,0.181,0.188c0.17,0.173,0.337,0.343,0.502,0.505
						c0.043,0.042,0.084,0.08,0.123,0.121c0.146,0.14,0.285,0.275,0.424,0.404c0.041,0.038,0.081,0.078,0.121,0.113
						c0.162,0.15,0.32,0.293,0.479,0.426c0.037,0.031,0.073,0.061,0.109,0.092c0.139,0.121,0.277,0.232,0.41,0.334
						c0.021,0.018,0.043,0.035,0.064,0.05c0.145,0.112,0.285,0.21,0.416,0.298c0.031,0.02,0.065,0.039,0.096,0.06
						c0.133,0.085,0.264,0.162,0.383,0.219c1.658,0.802,0.725,124.861,0.318,215.233l42.934,2.178
						c-2.996-70.078-7.684-210.703-7.722-212.043c-0.005-0.156-0.647-0.337-0.647-0.522c0-0.071,0-0.144,0-0.217
						c0-0.139,0.639-0.286,0.641-0.438c0-0.071,0.35-0.142,0.353-0.217c0.002-0.229,0.193-0.47,0.205-0.72
						c0.004-0.025,0.083-0.053,0.084-0.076c0.013-0.25,0.065-0.508,0.08-0.773c0-0.035,0.026-0.069,0.028-0.107
						c0.061-1.208,0.171-2.562,0.382-3.88l-0.016-0.002c-0.245-0.179-0.489-0.366-0.731-0.556
						C256.835,167.656,253.586,169.152,250.178,169.361z"/>
				</g>
				<path fill="#476A78" d="M269.951,384.971c-1.547-28.379-6.164-176.424-6.164-176.424l-42.482,2.744
					c-1.376,10.434,0.029,148.957,0.33,171.229L269.951,384.971z"/>
				<path id="XMLID_2_" fill="#76A0AE" d="M235.08,199.614c-5.504,0.095-14.28-3.253-16.513-0.271
					c-2.236,2.98-0.171,13.369,0.093,16.811c0.266,3.442,11.779,0.475,17.006,0.428c5.223-0.049,15.041,0.622,21.18-0.1
					c6.139-0.721,10.771-0.587,9.979-5.963c-0.794-5.376,1.037-15.225-6.913-13.486C251.961,198.771,248.438,199.385,235.08,199.614
					z"/>
			</g>
			<g>
				<g>
					<path fill="#9B755B" d="M40.714,201.528c0.002,0.071,0.003,0.136,0.005,0.202C40.718,201.664,40.716,201.598,40.714,201.528z"
						/>
					<path fill="#9B755B" d="M78.271,193.426c0.076-0.086,0.151-0.175,0.229-0.262C78.422,193.251,78.348,193.34,78.271,193.426z"/>
					<path fill="#9B755B" d="M40.669,200.786c0.002,0.023,0.004,0.048,0.005,0.071C40.673,200.834,40.671,200.81,40.669,200.786z"/>
					<path fill="#9B755B" d="M78.783,192.828c0.135-0.155,0.266-0.312,0.398-0.471C79.049,192.516,78.918,192.673,78.783,192.828z"
						/>
					<path fill="#9B755B" d="M77.691,194.078c0.064-0.07,0.129-0.143,0.194-0.213C77.82,193.936,77.756,194.008,77.691,194.078z"/>
					<path fill="#EAC6AE" d="M34.611,178.586c-0.592-3.464-2.019-8.707-2.415-11.348c-0.536-3.58-1.267-6.007-1.764-10.178
						c0,0-5.138-8.764-7.14-11.722c-2.002-2.961-7.259-10.856-8.645-14.44c-1.385-3.581-0.409-6.066,1.195-6.818
						c1.605-0.756,4.578-0.65,7.211,3.788c2.631,4.444,8.009,12.214,10.131,14.927c2.124,2.71,4.502,6.535,5.861,5.782
						c1.359-0.751,0.832-5.454-0.307-8.919c-1.135-3.458-3.453-11.745-4.144-15.701c-0.692-3.961-3.588-13.232-3.857-15.213
						c-0.269-1.981,0.835-4.096,3.183-4.977c2.348-0.883,4.765,0.093,6.441,4.911c1.675,4.82,3.078,11.255,3.842,14.099
						c0.764,2.845,5.99,17.426,7.088,19.405c1.105,1.972,3.574,0.842,3.432-2.007c-0.144-2.849,0.168-12.018,0.513-15.984
						c0.35-3.969,0.796-11.031,0.903-13.633c0.106-2.605,0.091-8.673,0.193-10.285c0.102-1.611,0.453-4.834,4.414-4.859
						c3.966-0.027,5.227,3.558,5.248,6.532c0.018,2.974,0.009,7.804,0.297,10.651c0.287,2.847,0.465,10.896,0.365,14.614
						c-0.102,3.719-1.565,14.133,1.184,14.365c2.751,0.229,6.011-12.678,6.984-15.41c0.973-2.729,2.544-8.687,3.52-11.047
						c0.976-2.358,2.643-12.654,8.104-11.077c5.46,1.574,3.759,6.91,2.914,10.139c-0.847,3.226-4.109,15.262-5.196,19.979
						c-1.082,4.717-5.693,19.732-3.799,25.049c1.893,5.315,2.873,3.574,5.33,0.211c2.453-3.359,5.142-8.951,9.275-11.766
						c2.434-1.657,7.346-3.828,10.086-1.489c2.739,2.334-0.102,3.47-1.818,6.329c-1.715,2.86-5.5,11.187-7.709,13.926
						c-2.215,2.736-2.733,7.346-3.904,9.562c-2.265,4.289-7.002,9.214-9.088,12.076c-0.75,1.029-1.774,2.367-2.867,3.699
						c-0.598,0.626-1.187,1.262-1.758,1.912c-4.316,4.917-12.594,4.006-17.263,0.1c-0.681,0.801-1.362,1.601-2.044,2.402
						c-2.517,2.26-5.88,3.459-9.259,3.32c-3.177-0.133-6.224-1.465-8.507-3.66c-0.221,0.182-0.442,0.36-0.668,0.533
						c-0.205-1.145-0.477-2.256-0.836-3.193C38.205,190.206,35.203,182.053,34.611,178.586z"/>
					<path fill="#E6BA99" d="M60.498,193.014c0.254-1.221,0.408-2.492,0.724-3.707c0.162-0.34,0.874-2.24,1.025-2.597
						c1.13-2.673,2.347-5.317,3.745-7.86c0.664-1.207,1.355-2.4,2.086-3.568c0.197-0.256,1.455-2.096,1.717-2.43
						c0.979-1.256,1.985-2.497,3.092-3.646c0.483-0.502,0.973-1.004,1.479-1.482c0.01-0.009,0.012-0.013,0.021-0.02
						c1.003-0.809,2.024-1.602,3.12-2.283c0.425-0.263,0.854-0.521,1.287-0.771c0.115-0.051,0.256-0.116,0.449-0.206
						c1.129-0.501,2.15-1.157,3.049-1.925c0.949,0.418,1.9-1.033,3.408-3.098c2.453-3.359,5.142-8.951,9.275-11.766
						c2.434-1.657,7.346-3.828,10.086-1.489c2.739,2.334-0.102,3.47-1.818,6.329c-1.715,2.86-5.5,11.187-7.709,13.926
						c-2.215,2.736-2.733,7.346-3.904,9.562c-2.265,4.289-7.002,9.214-9.088,12.076c-0.75,1.029-1.774,2.367-2.867,3.699
						c-0.598,0.626-1.187,1.262-1.758,1.912c-4.316,4.917-12.594,4.006-17.263,0.1c-0.161,0.188-0.319,0.375-0.481,0.563
						C60.295,193.896,60.405,193.457,60.498,193.014z"/>
					<path fill="#9B755B" d="M40.618,200.068c-0.003-0.033-0.005-0.065-0.007-0.099C40.613,200.003,40.615,200.035,40.618,200.068z"
						/>
					<path fill="#9B755B" d="M79.369,192.132c0.104-0.124,0.203-0.248,0.305-0.374C79.572,191.884,79.473,192.008,79.369,192.132z"
						/>
					<path fill="#9B755B" d="M77.16,194.659c0.055-0.06,0.111-0.118,0.166-0.179C77.271,194.541,77.215,194.6,77.16,194.659z"/>
					<path fill="#9B755B" d="M75.557,196.239c0.033-0.029,0.068-0.06,0.099-0.089C75.625,196.18,75.59,196.21,75.557,196.239z"/>
					<path fill="#9B755B" d="M75.123,196.605c0.02-0.014,0.037-0.032,0.058-0.049C75.16,196.573,75.143,196.592,75.123,196.605z"/>
					<path fill="#9B755B" d="M40.73,202.139c0,0.068,0.002,0.135,0.004,0.2C40.732,202.273,40.73,202.205,40.73,202.139z"/>
					<path fill="#9B755B" d="M74.652,196.946c0.029-0.019,0.057-0.036,0.086-0.057C74.709,196.91,74.682,196.928,74.652,196.946z"/>
					<path fill="#9B755B" d="M76.592,195.254c0.035-0.037,0.074-0.075,0.111-0.115C76.666,195.179,76.627,195.217,76.592,195.254z"
						/>
					<path fill="#9B755B" d="M76.094,195.746c0.037-0.035,0.074-0.072,0.109-0.108C76.168,195.674,76.131,195.711,76.094,195.746z"
						/>
					<path fill="#E6BA99" d="M49.351,199.492c3.379,0.139,6.742-1.061,9.259-3.32c0.682-0.802,1.363-1.602,2.044-2.402
						c4.669,3.906,12.946,4.817,17.263-0.1c0.571-0.65,1.16-1.286,1.758-1.912l0,0l0,0c-0.102,0.126-0.201,0.25-0.305,0.374
						c-0.064,0.075-0.127,0.151-0.188,0.226c-0.133,0.158-0.264,0.315-0.398,0.471c-0.095,0.113-0.189,0.225-0.283,0.336
						c-0.078,0.087-0.153,0.176-0.229,0.262c-0.128,0.148-0.257,0.293-0.385,0.439c-0.065,0.07-0.13,0.143-0.194,0.213
						c-0.121,0.137-0.244,0.271-0.365,0.402c-0.055,0.061-0.111,0.119-0.166,0.179c-0.154,0.165-0.307,0.325-0.457,0.479
						c-0.037,0.04-0.076,0.078-0.111,0.115c-0.133,0.133-0.262,0.262-0.389,0.384c-0.035,0.036-0.072,0.073-0.109,0.108
						c-0.15,0.143-0.295,0.278-0.438,0.404c-0.03,0.029-0.065,0.06-0.099,0.089c-0.129,0.113-0.254,0.221-0.376,0.317
						c-0.021,0.017-0.038,0.035-0.058,0.049c-0.136,0.105-0.262,0.199-0.385,0.284c-0.029,0.021-0.057,0.038-0.086,0.057
						c-0.123,0.081-0.242,0.155-0.354,0.21c-1.529,0.778,0.795,119.407,2.854,203.515l-39.921,2.825
						c1.485-65.281,3.49-199.422,3.504-200.669c0-0.146,0-0.312-0.002-0.488c-0.002-0.065-0.004-0.132-0.004-0.2
						c-0.002-0.13-0.008-0.266-0.012-0.408c-0.002-0.066-0.006-0.131-0.01-0.202c-0.009-0.214-0.018-0.436-0.035-0.671
						c-0.001-0.023-0.003-0.048-0.005-0.071c-0.017-0.231-0.033-0.472-0.051-0.718c-0.003-0.033-0.005,0.041-0.007,0.008
						c-0.079-1.125-0.225-2.498-0.443-3.498h0.005c0.227-1,0.448-0.456,0.669-0.639C43.125,198.136,46.174,199.359,49.351,199.492z"
						/>
				</g>
				<path fill="#97B94F" d="M34.105,403.72c0.91-26.444,3.309-167.501,3.309-167.501l39.592,1.764
					c1.475,9.686,1.889,141.817,2.024,162.554L34.105,403.72z"/>
				<g>
					<defs>
						<path id="XMLID_12_" d="M63.967,227.369c5.123-0.015,13.23-3.291,15.365-0.559s0.405,12.438,0.225,15.646
							c-0.182,3.211-10.955,0.663-15.818,0.716c-4.863,0.054-13.987,0.86-19.717,0.302c-5.729-0.555-10.037-0.346-9.398-5.364
							c0.639-5.021-1.248-14.15,6.184-12.682C48.238,226.898,51.527,227.404,63.967,227.369z"/>
					</defs>
					<use xlink:href="#XMLID_12_"  overflow="visible" fill="#508B4A"/>
					<clipPath id="XMLID_10_">
						<use xlink:href="#XMLID_12_"  overflow="visible"/>
					</clipPath>
				</g>
			</g>
		</g>
	</g>
</g>
</svg>
