<?xml version="1.0" encoding="utf-8"?>
<!-- Generator: Adobe Illustrator 16.0.0, SVG Export Plug-In . SVG Version: 6.00 Build 0)  -->
<!DOCTYPE svg PUBLIC "-//W3C//DTD SVG 1.1//EN" "http://www.w3.org/Graphics/SVG/1.1/DTD/svg11.dtd">
<svg version="1.1" id="Capa_1" xmlns="http://www.w3.org/2000/svg" xmlns:xlink="http://www.w3.org/1999/xlink" x="0px" y="0px"
	 width="56.525px" height="57.075px" viewBox="0 0 56.525 57.075" enable-background="new 0 0 56.525 57.075" xml:space="preserve">
<g>
	<g>
		<circle fill="#444242" cx="4.825" cy="4.826" r="4.825"/>
		<circle fill="#444242" cx="16.543" cy="4.826" r="4.827"/>
		<circle fill="#444242" cx="28.262" cy="4.826" r="4.825"/>
		<circle fill="#444242" cx="16.543" cy="16.682" r="4.827"/>
		<circle fill="#444242" cx="28.262" cy="16.682" r="4.825"/>
		<circle fill="#444242" cx="39.98" cy="16.682" r="4.823"/>
		<circle fill="#444242" cx="28.262" cy="28.536" r="4.825"/>
		<circle fill="#444242" cx="39.98" cy="28.536" r="4.823"/>
		<path fill="#444242" d="M56.525,28.536c0,2.665-2.159,4.827-4.827,4.827c-2.666,0-4.824-2.162-4.824-4.827
			s2.158-4.826,4.824-4.826C54.366,23.71,56.525,25.871,56.525,28.536z"/>
		<circle fill="#444242" cx="16.543" cy="40.394" r="4.827"/>
		<circle fill="#444242" cx="28.262" cy="40.394" r="4.825"/>
		<circle fill="#444242" cx="39.98" cy="40.394" r="4.823"/>
		<path fill="#444242" d="M9.649,52.251c0,2.663-2.16,4.824-4.822,4.824C2.161,57.075,0,54.914,0,52.251
			c0-2.665,2.161-4.827,4.827-4.827C7.489,47.424,9.649,49.586,9.649,52.251z"/>
		<circle fill="#444242" cx="16.543" cy="52.251" r="4.827"/>
		<circle fill="#444242" cx="28.262" cy="52.251" r="4.825"/>
	</g>
</g>
</svg>
