<?xml version="1.0" encoding="utf-8"?>
<!-- Generator: Adobe Illustrator 16.0.0, SVG Export Plug-In . SVG Version: 6.00 Build 0)  -->
<!DOCTYPE svg PUBLIC "-//W3C//DTD SVG 1.1//EN" "http://www.w3.org/Graphics/SVG/1.1/DTD/svg11.dtd">
<svg version="1.1" id="Capa_1" xmlns="http://www.w3.org/2000/svg" xmlns:xlink="http://www.w3.org/1999/xlink" x="0px" y="0px"
	 width="56.525px" height="57.075px" viewBox="0 0 56.525 57.075" enable-background="new 0 0 56.525 57.075" xml:space="preserve">
<g>
	<g>
		<circle fill="#444242" cx="51.701" cy="52.249" r="4.825"/>
		<circle fill="#444242" cx="39.982" cy="52.249" r="4.827"/>
		<circle fill="#444242" cx="28.263" cy="52.249" r="4.825"/>
		<circle fill="#444242" cx="39.982" cy="40.394" r="4.827"/>
		<circle fill="#444242" cx="28.263" cy="40.394" r="4.825"/>
		<circle fill="#444242" cx="16.545" cy="40.394" r="4.823"/>
		<circle fill="#444242" cx="28.263" cy="28.539" r="4.825"/>
		<circle fill="#444242" cx="16.545" cy="28.539" r="4.823"/>
		<path fill="#444242" d="M0,28.539c0-2.665,2.159-4.827,4.827-4.827c2.666,0,4.824,2.162,4.824,4.827s-2.158,4.826-4.824,4.826
			C2.159,33.365,0,31.204,0,28.539z"/>
		<circle fill="#444242" cx="39.982" cy="16.682" r="4.827"/>
		<circle fill="#444242" cx="28.263" cy="16.682" r="4.825"/>
		<circle fill="#444242" cx="16.545" cy="16.682" r="4.823"/>
		<path fill="#444242" d="M46.876,4.824c0-2.663,2.16-4.824,4.822-4.824c2.666,0,4.827,2.161,4.827,4.824
			c0,2.665-2.161,4.827-4.827,4.827C49.036,9.651,46.876,7.489,46.876,4.824z"/>
		<circle fill="#444242" cx="39.982" cy="4.824" r="4.827"/>
		<circle fill="#444242" cx="28.263" cy="4.824" r="4.825"/>
	</g>
</g>
</svg>
