<?xml version="1.0" encoding="utf-8"?>
<!-- Generator: Adobe Illustrator 16.0.0, SVG Export Plug-In . SVG Version: 6.00 Build 0)  -->
<!DOCTYPE svg PUBLIC "-//W3C//DTD SVG 1.0//EN" "http://www.w3.org/TR/2001/REC-SVG-20010904/DTD/svg10.dtd">
<svg version="1.0" id="Capa_1" xmlns="http://www.w3.org/2000/svg" xmlns:xlink="http://www.w3.org/1999/xlink" x="0px" y="0px"
	 width="1266.229px" height="584.266px" viewBox="0 0 1266.229 584.266" enable-background="new 0 0 1266.229 584.266"
	 xml:space="preserve">
<path fill="#7E378C" d="M1258.033,572.415c0,6.629-5.371,12-12,12H12.965c-6.627,0-12-5.371-12-12V22.543c0-6.627,5.373-12,12-12
	h1233.068c6.628,0,12,5.373,12,12V572.415L1258.033,572.415z"/>
<g>
	<path fill="#461E55" d="M1267.194,25.881c0-0.057-0.001-0.111-0.005-0.166c-0.018-0.943-0.223-1.871-0.62-2.674
		c-0.154-0.324-0.332-0.633-0.539-0.92c-0.238-0.324-0.539-0.611-0.89-0.859c-1.522-1.258-3.59-1.582-5.711-0.836
		c-0.984,0.348-1.461,0.297-1.647-0.312c-0.037-0.207-0.058-0.463-0.058-0.775c-0.004-2.422,0.022-4.846,0.027-7.27
		c0-0.756-0.021-1.189-0.201-1.439c-0.189-0.42-0.599-0.586-1.277-0.574c-2.595,0.043-5.188,0.02-7.782,0.051
		c-0.138,0.002-0.261,0.008-0.377,0.016c-0.687-0.256-0.734-0.859-0.315-2.043c0.909-2.58,0.14-5.271-1.964-6.842
		c-1.889-1.412-4.77-1.453-6.698-0.094c-2.158,1.52-2.996,4.146-2.162,6.781c0.454,1.426,0.433,2.012-0.403,2.219
		c-2.368-0.016-4.735-0.025-7.104,0.012c-0.271-0.004-0.543-0.01-0.813-0.014c-0.214-0.004-0.407,0.008-0.581,0.039
		c-0.009,0-0.019,0-0.026,0c-0.046,0-0.099,0.018-0.15,0.041c-0.51,0.152-0.771,0.545-0.734,1.395
		c0.005,0.121,0.009,0.244,0.011,0.367c-0.03,1.139,0,2.279,0.002,3.42c0,1.348-0.047,2.697,0.015,4.043
		c0,0.143-0.002,0.271-0.008,0.389c-0.046,0.561-0.302,0.82-0.729,0.895c-0.228-0.006-0.521-0.037-0.91-0.078
		c-0.327-0.035-0.658-0.045-0.986-0.051c-0.4-0.029-0.801-0.041-1.192-0.021h-0.019c-0.803,0.043-1.594,0.215-2.357,0.633
		c-1.555,0.844-2.49,2.68-2.465,4.615c0,0.02,0,0.037,0,0.055c0,0.018,0,0.035,0,0.055c-0.025,1.936,0.91,3.771,2.465,4.615
		c0.766,0.418,1.557,0.59,2.357,0.631c0.008,0.002,0.013,0.002,0.013,0.002c0.397,0.02,0.798,0.008,1.194-0.021
		c0.332-0.006,0.663-0.016,0.99-0.051c0.391-0.041,0.686-0.074,0.91-0.078c0.428,0.074,0.684,0.334,0.729,0.895
		c0.006,0.115,0.008,0.246,0.008,0.389c-0.062,1.346-0.015,2.695-0.015,4.043c-0.002,1.141-0.032,2.283-0.002,3.42
		c-0.003,0.123-0.006,0.244-0.011,0.367c-0.034,0.848,0.227,1.242,0.734,1.395c0.054,0.025,0.104,0.039,0.15,0.041
		c0.01,0,0.021,0,0.026,0c0.174,0.031,0.366,0.043,0.581,0.039c0.271-0.004,0.542-0.01,0.813-0.014
		c2.366,0.035,4.733,0.027,7.104,0.012c0.836,0.207,0.857,0.793,0.403,2.219c-0.834,2.635,0.004,5.262,2.162,6.781
		c1.931,1.359,4.812,1.318,6.698-0.094c2.104-1.57,2.873-4.262,1.964-6.842c-0.419-1.184-0.369-1.787,0.315-2.045
		c0.116,0.01,0.239,0.016,0.377,0.018c2.596,0.031,5.188,0.008,7.782,0.049c0.681,0.012,1.088-0.152,1.277-0.572
		c0.182-0.25,0.201-0.684,0.201-1.439c-0.005-2.424-0.031-4.848-0.027-7.271c0-0.311,0.021-0.566,0.058-0.775
		c0.188-0.607,0.663-0.658,1.647-0.311c2.121,0.746,4.188,0.422,5.711-0.836c0.351-0.248,0.65-0.535,0.89-0.859
		c0.207-0.287,0.385-0.596,0.539-0.92c0.397-0.803,0.604-1.73,0.62-2.674C1267.193,25.993,1267.194,25.936,1267.194,25.881z"/>
	<path fill="#FFFFFF" d="M1233.021,26.395c0.308,5.348,4.892,9.436,10.237,9.131c5.352-0.307,9.439-4.891,9.134-10.24
		c-0.306-5.349-4.892-9.438-10.241-9.131C1236.801,16.459,1232.715,21.045,1233.021,26.395z M1242.634,25.901l-3.835-3.416
		c-0.312-0.283-0.34-0.76-0.062-1.074c0.282-0.305,0.761-0.334,1.069-0.061l3.835,3.414l3.419-3.83
		c0.276-0.312,0.759-0.332,1.062-0.062c0.314,0.283,0.351,0.76,0.07,1.074l-3.416,3.834l3.828,3.416
		c0.31,0.281,0.336,0.76,0.062,1.074c-0.278,0.312-0.759,0.34-1.072,0.061l-3.833-3.418l-3.418,3.832
		c-0.279,0.314-0.756,0.342-1.071,0.062c-0.312-0.281-0.339-0.76-0.062-1.074L1242.634,25.901z"/>
</g>
<g>
	<path fill="none" stroke="#E97734" stroke-width="3" stroke-miterlimit="10" d="M497.965,335.52
		c0,6.271-5.086,11.354-11.356,11.354H151.483c-6.271,0-11.356-5.084-11.356-11.354v-86.811c0-6.272,5.085-11.357,11.356-11.357
		h335.125c6.271,0,11.356,5.085,11.356,11.357V335.52z"/>
	<g>
		<path fill="#1B97CC" d="M680.452,73.893c0,4.099-3.321,7.421-7.421,7.421h-79.127c-4.1,0-7.42-3.322-7.42-7.421V27.934
			c0-4.099,3.32-7.421,7.42-7.421h79.127c4.1,0,7.421,3.322,7.421,7.421V73.893z"/>
		<g id="OB1yQF_53_">
			<g>
				<path fill="#60C0EB" d="M687.092,86.123c-0.465,0.085-0.94,0.174-1.418,0.261c-2.959,0.537-5.918,1.073-8.879,1.614
					c-0.123,0.023-0.246,0.072-0.355,0.137c-2.942,1.754-5.885,3.511-8.825,5.268c-0.062,0.038-0.125,0.071-0.188,0.106
					c0.863-7.661,1.729-15.312,2.589-22.94C675.694,75.74,681.388,80.928,687.092,86.123z"/>
				<path fill="#60C0EB" d="M679.465,77.258c-0.512-0.471-1.013-0.929-1.504-1.378c0.211-0.391,0.432-0.754,0.608-1.138
					c1.86-4.068,0.707-8.763-2.877-11.437c-4.229-3.156-10.062-2.243-13.087,1.918c-1.807,2.485-2.314,5.246-1.475,8.211
					c0.596,2.092,1.829,3.754,3.608,5.002c0.815,0.569,1.696,0.998,2.647,1.279c0.131,0.039,0.187,0.088,0.164,0.243
					c-0.082,0.626-0.147,1.256-0.219,1.885c-3.427-0.79-7.593-3.71-8.505-9.356c-0.838-5.18,2.067-10.269,6.899-12.226
					c4.98-2.016,10.597-0.405,13.673,3.948C682.598,68.731,681.745,74.051,679.465,77.258z"/>
				<path fill="#60C0EB" d="M675.795,73.906c-0.505-0.467-0.998-0.918-1.484-1.377c-0.036-0.035-0.059-0.133-0.036-0.184
					c0.743-2.051-0.015-4.227-1.867-5.361c-2.045-1.246-4.735-0.637-6.06,1.37c-1.283,1.953-0.766,4.687,1.147,6.052
					c0.155,0.111,0.324,0.2,0.479,0.314c0.054,0.037,0.112,0.121,0.104,0.179c-0.065,0.642-0.146,1.282-0.225,1.923
					c-0.001,0.021-0.017,0.044-0.025,0.066c-2.103-0.754-4.183-2.918-4.239-5.954c-0.058-2.941,1.819-5.47,4.435-6.325
					c2.887-0.945,5.893,0.12,7.518,2.594C677.139,69.631,676.723,72.431,675.795,73.906z"/>
			</g>
		</g>
		<g>
			<path fill="#FFFFFF" d="M594.443,58.492c0.061-1.95,0.089-3.945,0.089-5.984c0-3.129-0.068-6.369-0.209-9.721
				c1.701-0.178,3.203-0.267,4.506-0.267c2.051,0,3.592,0.222,4.626,0.667c1.602,0.69,2.4,2.102,2.4,4.238v0.367
				c-0.099,2.343-0.811,3.843-2.133,4.499s-2.954,1.006-4.896,1.051c-0.01,0.229-0.016,0.467-0.016,0.711
				c0,1.231,0.085,2.688,0.255,4.371L594.443,58.492z M598.262,45.368l0.104,5.438c1.851-0.074,2.935-0.567,3.252-1.479
				c0.148-0.415,0.226-0.842,0.226-1.279c0-0.511-0.101-1.038-0.299-1.579c-0.3-0.793-1.044-1.19-2.238-1.19
				C598.988,45.279,598.64,45.308,598.262,45.368z"/>
			<path fill="#FFFFFF" d="M606.452,58.38c1.87-6.332,3.383-11.7,4.536-16.104l5.596-0.067c1.372,4.582,2.943,9.802,4.715,15.66
				l-3.818,0.579l-1.209-4.215h-4.641l-1.254,4.549L606.452,58.38z M616.152,51.106c-0.519-1.602-1.363-3.518-2.536-5.75
				c-0.904,1.876-1.672,3.819-2.298,5.828L616.152,51.106z"/>
			<path fill="#FFFFFF" d="M621.881,58.492c0.061-1.95,0.089-3.945,0.089-5.984c0-3.129-0.068-6.369-0.209-9.721
				c1.701-0.178,3.203-0.267,4.506-0.267c2.051,0,3.592,0.222,4.626,0.667c1.602,0.69,2.4,2.102,2.4,4.238v0.367
				c-0.099,2.343-0.811,3.843-2.133,4.499s-2.954,1.006-4.896,1.051c-0.01,0.229-0.016,0.467-0.016,0.711
				c0,1.231,0.086,2.688,0.255,4.371L621.881,58.492z M625.699,45.368l0.104,5.438c1.851-0.074,2.935-0.567,3.252-1.479
				c0.148-0.415,0.226-0.842,0.226-1.279c0-0.511-0.101-1.038-0.3-1.579c-0.299-0.793-1.044-1.19-2.237-1.19
				C626.426,45.279,626.077,45.308,625.699,45.368z"/>
			<path fill="#FFFFFF" d="M634.935,52.608l4.433-0.222c-0.061,0.459-0.09,0.875-0.09,1.246c0,1.683,0.562,2.524,1.688,2.524h0.061
				c1.361-0.029,2.044-0.571,2.044-1.624v-0.1c-0.051-1.12-1.339-2.217-3.864-3.292c-2.457-1.038-3.687-2.751-3.687-5.139
				c0-0.074,0.006-0.148,0.017-0.222c0.068-2.499,1.949-3.771,5.641-3.815h0.119c3.332,0,4.998,1.583,4.998,4.749
				c0,0.252-0.011,0.519-0.029,0.801l-3.896,0.167c0.04-0.334,0.061-0.642,0.061-0.923c0-1.327-0.434-1.991-1.298-1.991
				c-1.045,0-1.616,0.396-1.717,1.19c-0.01,0.111-0.015,0.223-0.015,0.333c0,0.66,0.263,1.275,0.79,1.847
				c0.606,0.66,1.648,1.264,3.125,1.812c1.479,0.549,2.51,1.301,3.097,2.258c0.418,0.689,0.627,1.424,0.627,2.202
				c0,0.297-0.028,0.601-0.09,0.912c-0.229,1.12-0.865,2.048-1.909,2.786c-1.045,0.738-2.446,1.14-4.208,1.207
				c-0.118,0.008-0.237,0.011-0.356,0.011c-1.603,0-2.938-0.438-4.014-1.312c-1.035-0.837-1.553-2.361-1.553-4.571
				C634.906,53.175,634.914,52.897,634.935,52.608z"/>
			<path fill="#FFFFFF" d="M652.511,57.969l-3.715,0.256c0-5.442-0.119-10.551-0.358-15.326l4.254-0.267
				C652.579,47.666,652.521,52.779,652.511,57.969z"/>
			<path fill="#FFFFFF" d="M657.345,58.336c-1.213-4.998-2.649-10.221-4.312-15.671l4.355-0.334l2.553,12.19
				c1.303-4.263,2.366-8.123,3.191-11.578l4.134,0.378c-2.089,6.725-3.646,11.689-4.671,14.892L657.345,58.336z"/>
			<path fill="#FFFFFF" d="M671.818,57.969l-3.716,0.256c0-5.442-0.118-10.551-0.357-15.326l4.253-0.267
				C671.887,47.666,671.826,52.779,671.818,57.969z"/>
		</g>
	</g>
	<g>
		<path fill="#E8701C" d="M466.047,206.337c0,4.83-3.916,8.746-8.746,8.746H194.037c-4.83,0-8.746-3.916-8.746-8.746v-31.475
			c0-4.831,3.916-8.747,8.746-8.747h263.264c4.83,0,8.746,3.916,8.746,8.747V206.337L466.047,206.337z"/>
		<g>
			<path fill="#FFFFFF" d="M234.501,196.55c1.627-5.51,2.941-10.182,3.947-14.015l4.868-0.058c1.194,3.988,2.562,8.531,4.104,13.628
				l-3.324,0.503l-1.052-3.668h-4.038l-1.091,3.959L234.501,196.55z M242.941,190.22c-0.449-1.394-1.187-3.062-2.207-5.004
				c-0.788,1.632-1.454,3.323-2,5.072L242.941,190.22z"/>
			<path fill="#FFFFFF" d="M249.887,183.91l2.947-0.145v3.204l2.479-0.048l0.039,1.829l-2.52,0.087v4.404
				c0,1.026,0.585,1.539,1.753,1.539c0.242,0,0.507-0.022,0.792-0.067l-0.116,2.129c-0.416,0.039-0.81,0.058-1.182,0.058
				c-2.735,0-4.129-1.052-4.182-3.156v-4.733l-2.13,0.097l-0.052-2.159l2.182,0.02L249.887,183.91z"/>
			<path fill="#FFFFFF" d="M260.652,186.997c3.004,0,4.507,1.487,4.507,4.462c0,0.362-0.022,0.749-0.065,1.162h-5.804
				c0,1.659,0.429,2.487,1.285,2.487h0.091c0.753-0.045,1.13-0.474,1.13-1.287c0-0.174-0.019-0.368-0.052-0.581l3.09-0.048
				c0,2.458-1.441,3.704-4.323,3.736c-0.035,0.006-0.065,0.01-0.091,0.01c-2.744,0-4.116-1.552-4.116-4.656v-0.29
				C256.388,188.662,257.838,186.997,260.652,186.997z M258.977,190.84h2.936v-0.232c0-1.174-0.446-1.762-1.339-1.762
				C259.613,188.846,259.08,189.511,258.977,190.84z"/>
			<path fill="#FFFFFF" d="M268.52,186.746l0.13,1.578c0.364-0.839,1.32-1.265,2.87-1.278h0.052c1.523,0,2.562,0.445,3.116,1.336
				c0.381,0.606,0.571,2.026,0.571,4.259c0,1.097-0.048,2.394-0.143,3.891h-3.144c0.112-1.994,0.169-3.539,0.169-4.636
				c0-0.548-0.013-0.987-0.039-1.316c-0.087-0.968-0.502-1.452-1.246-1.452c-0.745,0-1.213,0.258-1.401,0.774l0.13,7.017
				l-3.052,0.02c0-2.968-0.136-6.301-0.402-9.999L268.52,186.746z"/>
			<path fill="#FFFFFF" d="M281.647,192.95l3.09,0.145c0,2.33-1.44,3.51-4.322,3.542c-0.035,0.007-0.065,0.01-0.092,0.01
				c-2.743,0-4.115-1.552-4.115-4.655v-0.291c0.086-3.33,1.549-5.01,4.389-5.042h0.104c2.613,0,3.922,1.116,3.922,3.349
				c0,0.129-0.005,0.258-0.015,0.387l-2.791,0.155v-0.232c0-1.174-0.445-1.761-1.338-1.761c-0.908,0-1.362,0.952-1.362,2.855v0.319
				c0.052,2.059,0.511,3.088,1.377,3.088h0.076c0.753-0.045,1.131-0.475,1.131-1.288
				C281.698,193.356,281.681,193.163,281.647,192.95z"/>
			<path fill="#FFFFFF" d="M289.45,184.771c0,0.394-0.188,0.729-0.56,1.007c-0.372,0.278-0.822,0.416-1.351,0.416
				c-0.521,0-0.965-0.139-1.337-0.416c-0.373-0.277-0.56-0.613-0.56-1.007c0-0.387,0.187-0.719,0.56-0.997
				c0.372-0.277,0.816-0.416,1.337-0.416c0.527,0,0.979,0.139,1.351,0.416C289.264,184.052,289.45,184.384,289.45,184.771z
				 M285.97,196.986c-0.061-3.775-0.091-7.037-0.091-9.785l3.271-0.146c-0.104,2.633-0.155,5.25-0.155,7.85
				c0,0.697,0.005,1.391,0.014,2.081H285.97z"/>
			<path fill="#FFFFFF" d="M294.735,186.997c2.943,0,4.415,1.523,4.415,4.568c0,0.123-0.005,0.246-0.014,0.368
				c-0.121,3.297-1.688,4.962-4.7,4.994c-0.034,0.006-0.068,0.01-0.104,0.01c-2.865,0-4.298-1.559-4.298-4.675v-0.271
				C290.12,188.662,291.688,186.997,294.735,186.997z M294.306,189.204c-0.545,0.142-0.917,0.668-1.116,1.578
				c-0.121,0.542-0.182,1.087-0.182,1.636c0,0.368,0.025,0.739,0.077,1.113c0.139,0.929,0.585,1.41,1.338,1.442h0.091
				c0.701,0,1.182-0.345,1.441-1.036c0.216-0.574,0.323-1.255,0.323-2.042c0-0.193-0.004-0.39-0.013-0.59
				c-0.069-1.039-0.277-1.687-0.623-1.945c-0.217-0.155-0.477-0.232-0.778-0.232C294.692,189.126,294.505,189.152,294.306,189.204z
				 M293.047,185.11c1.013-0.897,1.844-1.752,2.492-2.565l2.13,1.258c-0.918,0.671-1.939,1.494-3.064,2.468L293.047,185.11z"/>
			<path fill="#FFFFFF" d="M302.252,186.746l0.13,1.578c0.364-0.839,1.32-1.265,2.87-1.278h0.052c1.522,0,2.562,0.445,3.116,1.336
				c0.381,0.606,0.57,2.026,0.57,4.259c0,1.097-0.048,2.394-0.144,3.891h-3.143c0.111-1.994,0.169-3.539,0.169-4.636
				c0-0.548-0.014-0.987-0.039-1.316c-0.087-0.968-0.502-1.452-1.246-1.452c-0.745,0-1.213,0.258-1.402,0.774l0.13,7.017
				l-3.052,0.02c0-2.968-0.135-6.301-0.402-9.999L302.252,186.746z"/>
			<path fill="#FFFFFF" d="M315.119,196.647c0.053-1.697,0.077-3.433,0.077-5.207c0-2.723-0.062-5.543-0.183-8.459
				c1.479-0.155,2.787-0.232,3.922-0.232c1.782,0,3.124,0.194,4.024,0.581c1.394,0.6,2.091,1.829,2.091,3.688v0.319
				c-0.087,2.039-0.706,3.344-1.855,3.915c-1.15,0.571-2.571,0.876-4.26,0.915c-0.009,0.2-0.014,0.407-0.014,0.62
				c0,1.071,0.072,2.339,0.221,3.804L315.119,196.647z M318.444,185.226l0.091,4.733c1.609-0.064,2.555-0.494,2.831-1.287
				c0.13-0.361,0.193-0.732,0.193-1.113c0-0.445-0.086-0.903-0.26-1.375c-0.261-0.69-0.908-1.036-1.947-1.036
				C319.074,185.148,318.773,185.174,318.444,185.226z"/>
			<path fill="#FFFFFF" d="M326.169,193.501l2.974-0.106v0.126c0,0.994,0.411,1.497,1.233,1.51h0.052
				c0.797,0,1.194-0.287,1.194-0.861v-0.068c-0.034-0.632-0.819-1.142-2.356-1.529c-1.535-0.387-2.46-1.039-2.771-1.955
				c-0.112-0.323-0.169-0.632-0.169-0.929c0-0.542,0.187-1.045,0.56-1.51c0.57-0.71,1.438-1.116,2.598-1.22
				c0.312-0.026,0.613-0.039,0.907-0.039c0.771,0,1.45,0.1,2.039,0.3c0.806,0.278,1.362,0.674,1.676,1.19
				c0.207,0.355,0.312,0.749,0.312,1.181c0,0.207-0.021,0.419-0.063,0.639l-2.778,0.048c0.025-0.161,0.039-0.31,0.039-0.445
				c0-0.645-0.276-0.99-0.831-1.036c-0.062-0.006-0.121-0.01-0.183-0.01c-0.57,0-0.956,0.216-1.154,0.649
				c-0.068,0.148-0.104,0.284-0.104,0.406c0,0.303,0.189,0.565,0.57,0.784c0.537,0.31,1.331,0.624,2.384,0.943
				c1.052,0.32,1.76,0.863,2.122,1.631c0.131,0.291,0.195,0.581,0.195,0.871c0,0.491-0.189,0.984-0.571,1.479
				c-0.604,0.794-1.546,1.255-2.817,1.384c-0.275,0.032-0.55,0.048-0.816,0.048c-0.952,0-1.836-0.184-2.648-0.552
				C326.715,195.963,326.188,194.986,326.169,193.501z"/>
			<path fill="#FFFFFF" d="M339.18,184.771c0,0.394-0.188,0.729-0.56,1.007c-0.372,0.278-0.821,0.416-1.352,0.416
				c-0.52,0-0.965-0.139-1.337-0.416c-0.373-0.277-0.56-0.613-0.56-1.007c0-0.387,0.187-0.719,0.56-0.997
				c0.372-0.277,0.816-0.416,1.337-0.416c0.528,0,0.979,0.139,1.352,0.416C338.992,184.052,339.18,184.384,339.18,184.771z
				 M335.698,196.986c-0.062-3.775-0.091-7.037-0.091-9.785l3.271-0.146c-0.104,2.633-0.156,5.25-0.156,7.85
				c0,0.697,0.005,1.391,0.015,2.081H335.698z"/>
			<path fill="#FFFFFF" d="M345.203,192.95l3.091,0.145c0,2.33-1.441,3.51-4.323,3.542c-0.035,0.007-0.064,0.01-0.091,0.01
				c-2.744,0-4.116-1.552-4.116-4.655v-0.291c0.086-3.33,1.55-5.01,4.39-5.042h0.104c2.613,0,3.922,1.116,3.922,3.349
				c0,0.129-0.005,0.258-0.015,0.387l-2.791,0.155v-0.232c0-1.174-0.445-1.761-1.338-1.761c-0.907,0-1.362,0.952-1.362,2.855v0.319
				c0.052,2.059,0.511,3.088,1.377,3.088h0.077c0.753-0.045,1.13-0.475,1.13-1.288C345.256,193.356,345.239,193.163,345.203,192.95z
				"/>
			<path fill="#FFFFFF" d="M353.943,186.997c2.942,0,4.415,1.523,4.415,4.568c0,0.123-0.006,0.246-0.015,0.368
				c-0.121,3.297-1.688,4.962-4.7,4.994c-0.033,0.006-0.068,0.01-0.104,0.01c-2.864,0-4.298-1.559-4.298-4.675v-0.271
				C349.327,188.662,350.896,186.997,353.943,186.997z M353.514,189.204c-0.545,0.142-0.917,0.668-1.115,1.578
				c-0.121,0.542-0.183,1.087-0.183,1.636c0,0.368,0.024,0.739,0.077,1.113c0.139,0.929,0.585,1.41,1.338,1.442h0.091
				c0.701,0,1.183-0.345,1.44-1.036c0.217-0.574,0.324-1.255,0.324-2.042c0-0.193-0.004-0.39-0.014-0.59
				c-0.068-1.039-0.276-1.687-0.623-1.945c-0.217-0.155-0.477-0.232-0.778-0.232C353.9,189.126,353.713,189.152,353.514,189.204z"/>
			<path fill="#FFFFFF" d="M358.914,193.501l2.975-0.106v0.126c0,0.994,0.411,1.497,1.232,1.51h0.053
				c0.797,0,1.194-0.287,1.194-0.861v-0.068c-0.034-0.632-0.819-1.142-2.356-1.529c-1.536-0.387-2.46-1.039-2.771-1.955
				c-0.112-0.323-0.169-0.632-0.169-0.929c0-0.542,0.187-1.045,0.56-1.51c0.57-0.71,1.438-1.116,2.597-1.22
				c0.312-0.026,0.614-0.039,0.908-0.039c0.771,0,1.45,0.1,2.039,0.3c0.806,0.278,1.362,0.674,1.675,1.19
				c0.208,0.355,0.312,0.749,0.312,1.181c0,0.207-0.021,0.419-0.063,0.639l-2.778,0.048c0.025-0.161,0.039-0.31,0.039-0.445
				c0-0.645-0.277-0.99-0.831-1.036c-0.062-0.006-0.121-0.01-0.183-0.01c-0.57,0-0.956,0.216-1.154,0.649
				c-0.069,0.148-0.104,0.284-0.104,0.406c0,0.303,0.189,0.565,0.57,0.784c0.537,0.31,1.331,0.624,2.383,0.943
				c1.053,0.32,1.761,0.863,2.123,1.631c0.131,0.291,0.195,0.581,0.195,0.871c0,0.491-0.189,0.984-0.571,1.479
				c-0.605,0.794-1.546,1.255-2.817,1.384c-0.275,0.032-0.55,0.048-0.816,0.048c-0.952,0-1.836-0.184-2.648-0.552
				C359.461,195.963,358.933,194.986,358.914,193.501z"/>
			<path fill="#FFFFFF" d="M372.861,186.997c2.942,0,4.415,1.523,4.415,4.568c0,0.123-0.005,0.246-0.015,0.368
				c-0.121,3.297-1.688,4.962-4.7,4.994c-0.033,0.006-0.068,0.01-0.104,0.01c-2.864,0-4.298-1.559-4.298-4.675v-0.271
				C368.245,188.662,369.814,186.997,372.861,186.997z M372.432,189.204c-0.545,0.142-0.917,0.668-1.115,1.578
				c-0.121,0.542-0.183,1.087-0.183,1.636c0,0.368,0.024,0.739,0.077,1.113c0.139,0.929,0.585,1.41,1.338,1.442h0.091
				c0.701,0,1.183-0.345,1.44-1.036c0.217-0.574,0.324-1.255,0.324-2.042c0-0.193-0.004-0.39-0.014-0.59
				c-0.068-1.039-0.276-1.687-0.623-1.945c-0.217-0.155-0.477-0.232-0.778-0.232C372.818,189.126,372.631,189.152,372.432,189.204z"
				/>
			<path fill="#FFFFFF" d="M383.3,192.95l3.09,0.145c0,2.33-1.44,3.51-4.322,3.542c-0.035,0.007-0.064,0.01-0.092,0.01
				c-2.743,0-4.115-1.552-4.115-4.655v-0.291c0.086-3.33,1.549-5.01,4.389-5.042h0.104c2.614,0,3.923,1.116,3.923,3.349
				c0,0.129-0.006,0.258-0.015,0.387l-2.791,0.155v-0.232c0-1.174-0.445-1.761-1.338-1.761c-0.908,0-1.363,0.952-1.363,2.855v0.319
				c0.053,2.059,0.512,3.088,1.378,3.088h0.076c0.753-0.045,1.13-0.475,1.13-1.288C383.352,193.356,383.334,193.163,383.3,192.95z"
				/>
			<path fill="#FFFFFF" d="M391.104,184.771c0,0.394-0.188,0.729-0.559,1.007c-0.372,0.278-0.822,0.416-1.352,0.416
				c-0.521,0-0.965-0.139-1.337-0.416c-0.373-0.277-0.56-0.613-0.56-1.007c0-0.387,0.187-0.719,0.56-0.997
				c0.372-0.277,0.816-0.416,1.337-0.416c0.527,0,0.979,0.139,1.352,0.416C390.916,184.052,391.104,184.384,391.104,184.771z
				 M387.622,196.986c-0.062-3.775-0.091-7.037-0.091-9.785l3.271-0.146c-0.104,2.633-0.155,5.25-0.155,7.85
				c0,0.697,0.005,1.391,0.014,2.081H387.622z"/>
			<path fill="#FFFFFF" d="M396.842,186.716c2.849,0.116,4.271,1.185,4.271,3.204v6.872l-3.024,0.039l-0.104-0.919
				c-0.623,0.529-1.449,0.793-2.479,0.793c-0.44,0-0.918-0.051-1.43-0.155c-1.531-0.284-2.298-1.168-2.298-2.652
				c0-0.181,0.014-0.375,0.039-0.581c0.173-1.529,1.632-2.294,4.376-2.294c0.526,0,1.106,0.029,1.738,0.087v-1.123
				c0-0.91-0.385-1.365-1.154-1.365h-0.053c-0.062-0.006-0.116-0.009-0.169-0.009c-0.84,0-1.26,0.51-1.26,1.529v0.145l-3.09-0.194
				c0-2.251,1.453-3.378,4.361-3.378L396.842,186.716L396.842,186.716z M397.933,194.363v-1.704
				c-0.372-0.058-0.71-0.087-1.013-0.087c-0.788,0-1.324,0.197-1.61,0.59c-0.173,0.239-0.259,0.461-0.259,0.668
				c0,0.258,0.139,0.487,0.415,0.687c0.216,0.155,0.498,0.232,0.844,0.232C396.751,194.75,397.291,194.621,397.933,194.363z"/>
			<path fill="#FFFFFF" d="M405.802,196.773l-3.232,0.223c0.034-2.136,0.052-4.191,0.052-6.166c0-2.774-0.033-5.391-0.104-7.85
				l3.183-0.039c-0.035,1.581-0.053,3.204-0.053,4.868C405.646,190.682,405.698,193.669,405.802,196.773z"/>
		</g>
		<g id="OB1yQF_52_">
			<g>
				<path fill="#ED8D56" d="M473.098,219.912c-0.549,0.1-1.106,0.204-1.671,0.307c-3.489,0.634-6.978,1.266-10.466,1.904
					c-0.146,0.027-0.291,0.084-0.422,0.159c-3.468,2.068-6.936,4.14-10.402,6.21c-0.071,0.045-0.146,0.084-0.219,0.125
					c1.018-9.03,2.036-18.049,3.051-27.041C459.661,207.672,466.375,213.789,473.098,219.912z"/>
				<path fill="#ED8D56" d="M464.109,209.462c-0.604-0.555-1.196-1.096-1.771-1.625c0.245-0.461,0.508-0.889,0.716-1.342
					c2.193-4.795,0.836-10.329-3.391-13.48c-4.985-3.721-11.859-2.645-15.426,2.261c-2.13,2.931-2.729,6.184-1.735,9.68
					c0.699,2.466,2.153,4.425,4.253,5.896c0.96,0.671,2,1.176,3.122,1.509c0.153,0.046,0.219,0.104,0.192,0.286
					c-0.099,0.738-0.173,1.48-0.259,2.222c-4.038-0.931-8.95-4.373-10.024-11.029c-0.985-6.105,2.438-12.104,8.137-14.411
					c5.868-2.376,12.488-0.477,16.113,4.655C467.801,199.41,466.797,205.681,464.109,209.462z"/>
				<path fill="#ED8D56" d="M459.781,205.509c-0.597-0.549-1.176-1.08-1.75-1.623c-0.045-0.041-0.067-0.156-0.045-0.216
					c0.879-2.417-0.015-4.982-2.199-6.319c-2.408-1.47-5.583-0.752-7.144,1.614c-1.512,2.303-0.899,5.526,1.354,7.134
					c0.183,0.131,0.384,0.236,0.564,0.37c0.061,0.045,0.131,0.144,0.125,0.212c-0.078,0.756-0.175,1.512-0.265,2.266
					c-0.002,0.025-0.02,0.053-0.029,0.079c-2.479-0.889-4.932-3.439-5.002-7.02c-0.065-3.467,2.146-6.447,5.228-7.456
					c3.404-1.113,6.947,0.142,8.861,3.059C461.364,200.471,460.875,203.772,459.781,205.509z"/>
			</g>
		</g>
	</g>
	<g>
		<path fill="#6AAE26" d="M1072.541,206.337c0,4.83-3.916,8.746-8.746,8.746H800.531c-4.83,0-8.746-3.916-8.746-8.746v-31.475
			c0-4.831,3.916-8.747,8.746-8.747h263.265c4.83,0,8.746,3.916,8.746,8.747L1072.541,206.337L1072.541,206.337z"/>
		<g>
			<path fill="#FFFFFF" d="M817.204,187.415c1.628-5.51,2.942-10.182,3.947-14.015l4.868-0.058
				c1.194,3.988,2.562,8.531,4.104,13.628l-3.324,0.503l-1.052-3.668h-4.038l-1.092,3.959L817.204,187.415z M825.645,181.085
				c-0.449-1.394-1.188-3.062-2.206-5.004c-0.788,1.632-1.454,3.323-2,5.072L825.645,181.085z"/>
			<path fill="#FFFFFF" d="M832.591,174.774l2.946-0.145v3.204l2.479-0.048l0.039,1.829l-2.521,0.087v4.404
				c0,1.026,0.585,1.539,1.753,1.539c0.242,0,0.508-0.022,0.792-0.067l-0.115,2.129c-0.416,0.039-0.811,0.058-1.183,0.058
				c-2.734,0-4.129-1.052-4.182-3.156v-4.733l-2.13,0.097l-0.053-2.159l2.183,0.02L832.591,174.774z"/>
			<path fill="#FFFFFF" d="M843.356,177.862c3.004,0,4.506,1.487,4.506,4.462c0,0.362-0.021,0.749-0.064,1.162h-5.805
				c0,1.659,0.43,2.487,1.285,2.487h0.091c0.753-0.045,1.13-0.474,1.13-1.287c0-0.174-0.019-0.368-0.052-0.581l3.09-0.048
				c0,2.458-1.44,3.704-4.322,3.736c-0.035,0.006-0.064,0.01-0.092,0.01c-2.743,0-4.115-1.552-4.115-4.656v-0.29
				C839.092,179.527,840.541,177.862,843.356,177.862z M841.681,181.705h2.936v-0.232c0-1.174-0.445-1.762-1.338-1.762
				C842.317,179.71,841.783,180.375,841.681,181.705z"/>
			<path fill="#FFFFFF" d="M851.224,177.61l0.13,1.578c0.364-0.839,1.32-1.265,2.87-1.278h0.053c1.522,0,2.562,0.445,3.115,1.336
				c0.382,0.606,0.571,2.026,0.571,4.259c0,1.097-0.049,2.394-0.144,3.891h-3.144c0.111-1.994,0.169-3.539,0.169-4.636
				c0-0.548-0.014-0.987-0.039-1.316c-0.087-0.968-0.502-1.452-1.245-1.452c-0.745,0-1.214,0.258-1.402,0.774l0.131,7.017
				l-3.053,0.02c0-2.968-0.135-6.301-0.401-9.999L851.224,177.61z"/>
			<path fill="#FFFFFF" d="M864.351,183.814l3.091,0.145c0,2.33-1.44,3.51-4.323,3.542c-0.034,0.007-0.064,0.01-0.091,0.01
				c-2.744,0-4.116-1.552-4.116-4.655v-0.291c0.086-3.33,1.55-5.01,4.39-5.042h0.104c2.614,0,3.922,1.116,3.922,3.349
				c0,0.129-0.005,0.258-0.014,0.387l-2.791,0.155v-0.232c0-1.174-0.446-1.761-1.339-1.761c-0.907,0-1.362,0.952-1.362,2.855v0.319
				c0.052,2.059,0.511,3.088,1.377,3.088h0.077c0.753-0.045,1.13-0.475,1.13-1.288C864.403,184.221,864.385,184.027,864.351,183.814
				z"/>
			<path fill="#FFFFFF" d="M872.155,175.636c0,0.396-0.188,0.729-0.56,1.007s-0.821,0.416-1.352,0.416
				c-0.521,0-0.965-0.139-1.337-0.416c-0.373-0.277-0.56-0.613-0.56-1.007c0-0.387,0.187-0.719,0.56-0.997
				c0.372-0.277,0.816-0.416,1.337-0.416c0.528,0,0.979,0.139,1.352,0.416C871.968,174.917,872.155,175.249,872.155,175.636z
				 M868.674,187.851c-0.062-3.775-0.092-7.037-0.092-9.785l3.271-0.146c-0.104,2.633-0.155,5.25-0.155,7.85
				c0,0.697,0.005,1.391,0.015,2.081H868.674z"/>
			<path fill="#FFFFFF" d="M877.439,177.862c2.942,0,4.414,1.523,4.414,4.568c0,0.123-0.005,0.246-0.014,0.368
				c-0.121,3.297-1.688,4.962-4.7,4.994c-0.033,0.006-0.068,0.01-0.104,0.01c-2.864,0-4.298-1.559-4.298-4.675v-0.271
				C872.823,179.527,874.392,177.862,877.439,177.862z M877.01,180.069c-0.545,0.142-0.917,0.668-1.116,1.578
				c-0.12,0.542-0.182,1.087-0.182,1.636c0,0.368,0.024,0.739,0.076,1.113c0.14,0.929,0.585,1.41,1.339,1.442h0.091
				c0.701,0,1.183-0.345,1.44-1.036c0.217-0.574,0.324-1.255,0.324-2.042c0-0.193-0.005-0.39-0.014-0.59
				c-0.068-1.039-0.276-1.687-0.623-1.945c-0.217-0.155-0.478-0.232-0.778-0.232C877.396,179.991,877.209,180.017,877.01,180.069z
				 M875.75,175.975c1.014-0.897,1.845-1.752,2.492-2.565l2.13,1.258c-0.918,0.671-1.938,1.494-3.063,2.468L875.75,175.975z"/>
			<path fill="#FFFFFF" d="M884.955,177.61l0.131,1.578c0.363-0.839,1.319-1.265,2.869-1.278h0.053c1.522,0,2.562,0.445,3.115,1.336
				c0.382,0.606,0.571,2.026,0.571,4.259c0,1.097-0.048,2.394-0.144,3.891h-3.144c0.111-1.994,0.169-3.539,0.169-4.636
				c0-0.548-0.014-0.987-0.039-1.316c-0.087-0.968-0.502-1.452-1.245-1.452c-0.745,0-1.214,0.258-1.402,0.774l0.13,7.017
				l-3.052,0.02c0-2.968-0.135-6.301-0.401-9.999L884.955,177.61z"/>
			<path fill="#FFFFFF" d="M901.265,187.057l-3.232,0.222c0-4.736-0.104-9.182-0.312-13.337l3.701-0.232
				C901.324,178.091,901.274,182.54,901.265,187.057z"/>
			<path fill="#FFFFFF" d="M904.951,177.61l0.131,1.578c0.363-0.839,1.319-1.265,2.869-1.278h0.053c1.522,0,2.562,0.445,3.115,1.336
				c0.382,0.606,0.57,2.026,0.57,4.259c0,1.097-0.048,2.394-0.143,3.891h-3.144c0.111-1.994,0.169-3.539,0.169-4.636
				c0-0.548-0.014-0.987-0.039-1.316c-0.087-0.968-0.502-1.452-1.245-1.452c-0.745,0-1.214,0.258-1.402,0.774l0.13,7.017
				l-3.052,0.02c0-2.968-0.135-6.301-0.401-9.999L904.951,177.61z"/>
			<path fill="#FFFFFF" d="M914.938,174.774l2.946-0.145v3.204l2.479-0.048l0.039,1.829l-2.521,0.087v4.404
				c0,1.026,0.585,1.539,1.753,1.539c0.242,0,0.507-0.022,0.792-0.067l-0.116,2.129c-0.416,0.039-0.81,0.058-1.182,0.058
				c-2.735,0-4.13-1.052-4.182-3.156v-4.733l-2.13,0.097l-0.053-2.159l2.183,0.02L914.938,174.774z"/>
			<path fill="#FFFFFF" d="M925.7,177.862c3.004,0,4.506,1.487,4.506,4.462c0,0.362-0.021,0.749-0.064,1.162h-5.804
				c0,1.659,0.429,2.487,1.284,2.487h0.092c0.753-0.045,1.13-0.474,1.13-1.287c0-0.174-0.019-0.368-0.053-0.581l3.091-0.048
				c0,2.458-1.44,3.704-4.323,3.736c-0.034,0.006-0.064,0.01-0.091,0.01c-2.744,0-4.116-1.552-4.116-4.656v-0.29
				C921.438,179.527,922.888,177.862,925.7,177.862z M924.027,181.705h2.936v-0.232c0-1.174-0.446-1.762-1.339-1.762
				C924.661,179.71,924.13,180.375,924.027,181.705z"/>
			<path fill="#FFFFFF" d="M931.544,188.925l3.052-0.125c-0.009,0.077-0.014,0.155-0.014,0.232c0,0.704,0.377,1.087,1.13,1.152
				c0.12,0.013,0.232,0.02,0.338,0.02c0.648,0,1.111-0.194,1.39-0.581c0.241-0.348,0.363-1,0.363-1.955
				c0-0.258-0.009-0.542-0.025-0.852c-0.483,0.723-1.385,1.116-2.7,1.181c-2.57-0.019-3.855-1.648-3.855-4.888v-0.068
				c0.018-3.278,1.545-4.926,4.583-4.946c0.831,0,1.575,0.361,2.232,1.084l0.039-1.539l2.845,0.097c0,5.323-0.021,8.621-0.065,9.892
				c-0.043,1.271-0.301,2.291-0.771,3.059s-1.273,1.258-2.407,1.471c-0.599,0.116-1.189,0.174-1.778,0.174
				c-0.528,0-1.053-0.045-1.571-0.136c-1.106-0.193-1.869-0.558-2.285-1.094c-0.346-0.439-0.519-1.013-0.519-1.723
				C931.519,189.238,931.527,189.086,931.544,188.925z M937.75,185.092v-3.93c-0.425-0.639-0.961-0.958-1.609-0.958
				c-0.13,0-0.266,0.013-0.401,0.039c-0.841,0.148-1.304,1.01-1.391,2.584c-0.009,0.168-0.013,0.329-0.013,0.484
				c0,1.284,0.319,2.071,0.961,2.362c0.216,0.103,0.444,0.155,0.688,0.155C936.521,185.828,937.11,185.583,937.75,185.092z"/>
			<path fill="#FFFFFF" d="M945.371,180.862l0.13,7.017l-3.182,0.02c0-2.968-0.136-6.301-0.401-9.998l2.389-0.194l0.131,1.578
				c0.363-0.774,1.211-1.216,2.545-1.326c0.198-0.013,0.39-0.02,0.57-0.02c1.048,0,1.844,0.255,2.391,0.765
				c0.632,0.606,0.951,1.571,0.961,2.894l-2.883,0.213c0.009-0.11,0.013-0.216,0.013-0.319c0-1.032-0.358-1.549-1.077-1.549h-0.053
				C946.073,179.975,945.562,180.282,945.371,180.862z"/>
			<path fill="#FFFFFF" d="M956.798,177.581c2.849,0.116,4.271,1.185,4.271,3.204v6.872l-3.024,0.039l-0.104-0.919
				c-0.623,0.529-1.449,0.793-2.479,0.793c-0.44,0-0.918-0.051-1.429-0.155c-1.532-0.284-2.298-1.168-2.298-2.652
				c0-0.181,0.013-0.375,0.038-0.581c0.174-1.529,1.633-2.294,4.377-2.294c0.526,0,1.106,0.029,1.738,0.087v-1.123
				c0-0.91-0.385-1.365-1.154-1.365h-0.053c-0.062-0.006-0.117-0.009-0.169-0.009c-0.841,0-1.261,0.51-1.261,1.529v0.145
				l-3.09-0.194c0-2.251,1.454-3.378,4.361-3.378L956.798,177.581L956.798,177.581z M957.889,185.228v-1.704
				c-0.372-0.058-0.71-0.087-1.014-0.087c-0.787,0-1.323,0.197-1.609,0.59c-0.173,0.239-0.259,0.461-0.259,0.668
				c0,0.258,0.138,0.487,0.415,0.687c0.216,0.155,0.498,0.232,0.844,0.232C956.706,185.615,957.247,185.486,957.889,185.228z"/>
			<path fill="#FFFFFF" d="M965.758,187.638l-3.232,0.223c0.035-2.136,0.052-4.191,0.052-6.166c0-2.774-0.033-5.391-0.104-7.85
				l3.183-0.039c-0.035,1.581-0.054,3.204-0.054,4.868C965.602,181.546,965.655,184.534,965.758,187.638z"/>
			<path fill="#FFFFFF" d="M975.938,177.862c3.004,0,4.506,1.487,4.506,4.462c0,0.362-0.021,0.749-0.064,1.162h-5.805
				c0,1.659,0.43,2.487,1.285,2.487h0.091c0.753-0.045,1.13-0.474,1.13-1.287c0-0.174-0.018-0.368-0.052-0.581l3.09-0.048
				c0,2.458-1.44,3.704-4.322,3.736c-0.035,0.006-0.065,0.01-0.092,0.01c-2.744,0-4.115-1.552-4.115-4.656v-0.29
				C971.673,179.527,973.122,177.862,975.938,177.862z M974.262,181.705h2.936v-0.232c0-1.174-0.445-1.762-1.338-1.762
				C974.898,179.71,974.365,180.375,974.262,181.705z"/>
			<path fill="#FFFFFF" d="M983.805,177.61l0.131,1.578c0.363-0.839,1.319-1.265,2.869-1.278h0.053c1.522,0,2.562,0.445,3.115,1.336
				c0.381,0.606,0.571,2.026,0.571,4.259c0,1.097-0.049,2.394-0.144,3.891h-3.144c0.111-1.994,0.169-3.539,0.169-4.636
				c0-0.548-0.014-0.987-0.039-1.316c-0.087-0.968-0.502-1.452-1.246-1.452s-1.213,0.258-1.401,0.774l0.13,7.017l-3.052,0.02
				c0-2.968-0.136-6.301-0.401-9.999L983.805,177.61z"/>
			<path fill="#FFFFFF" d="M996.619,182.392l3.855-0.193c-0.052,0.4-0.078,0.761-0.078,1.084c0,1.465,0.489,2.197,1.469,2.197h0.053
				c1.186-0.026,1.778-0.497,1.778-1.414v-0.087c-0.044-0.974-1.165-1.929-3.362-2.865c-2.139-0.903-3.207-2.396-3.207-4.472
				c0-0.064,0.004-0.129,0.014-0.194c0.061-2.174,1.695-3.281,4.907-3.32h0.104c2.899,0,4.352,1.378,4.352,4.133
				c0,0.22-0.009,0.452-0.025,0.697l-3.39,0.145c0.034-0.291,0.052-0.558,0.052-0.803c0-1.155-0.377-1.733-1.13-1.733
				c-0.909,0-1.405,0.345-1.493,1.036c-0.009,0.097-0.013,0.194-0.013,0.291c0,0.574,0.229,1.11,0.688,1.607
				c0.526,0.574,1.436,1.1,2.721,1.578c1.284,0.478,2.184,1.132,2.693,1.965c0.362,0.6,0.545,1.239,0.545,1.916
				c0,0.258-0.024,0.523-0.077,0.794c-0.198,0.974-0.754,1.783-1.662,2.424c-0.908,0.642-2.13,0.992-3.661,1.05
				c-0.104,0.006-0.207,0.01-0.312,0.01c-1.395,0-2.559-0.381-3.492-1.142c-0.899-0.729-1.352-2.055-1.352-3.978
				C996.595,182.885,996.604,182.644,996.619,182.392z"/>
			<path fill="#FFFFFF" d="M1013.291,177.581c2.849,0.116,4.271,1.185,4.271,3.204v6.872l-3.024,0.039l-0.104-0.919
				c-0.623,0.529-1.448,0.793-2.479,0.793c-0.44,0-0.918-0.051-1.43-0.155c-1.531-0.284-2.297-1.168-2.297-2.652
				c0-0.181,0.013-0.375,0.038-0.581c0.173-1.529,1.632-2.294,4.376-2.294c0.526,0,1.106,0.029,1.739,0.087v-1.123
				c0-0.91-0.386-1.365-1.155-1.365h-0.052c-0.062-0.006-0.117-0.009-0.169-0.009c-0.841,0-1.261,0.51-1.261,1.529v0.145
				l-3.09-0.194c0-2.251,1.454-3.378,4.361-3.378L1013.291,177.581L1013.291,177.581z M1014.383,185.228v-1.704
				c-0.372-0.058-0.71-0.087-1.014-0.087c-0.788,0-1.323,0.197-1.609,0.59c-0.173,0.239-0.259,0.461-0.259,0.668
				c0,0.258,0.138,0.487,0.415,0.687c0.216,0.155,0.497,0.232,0.844,0.232C1013.2,185.615,1013.741,185.486,1014.383,185.228z"/>
			<path fill="#FFFFFF" d="M1022.252,187.638l-3.232,0.223c0.034-2.136,0.052-4.191,0.052-6.166c0-2.774-0.034-5.391-0.104-7.85
				l3.183-0.039c-0.035,1.581-0.054,3.204-0.054,4.868C1022.096,181.546,1022.148,184.534,1022.252,187.638z"/>
			<path fill="#FFFFFF" d="M1030.107,187.802l-0.131-1.578c-0.362,0.839-1.342,1.262-2.934,1.268
				c-0.019,0.006-0.031,0.009-0.039,0.009c-1.576,0-2.619-0.529-3.13-1.587c-0.347-0.704-0.52-2.159-0.52-4.365
				c0-1.136,0.047-2.475,0.144-4.017h3.154c-0.174,2.168-0.26,3.836-0.26,5.004c0,0.587,0.021,1.045,0.063,1.374
				c0.13,1.007,0.566,1.51,1.312,1.51c0.746,0,1.213-0.262,1.402-0.784l-0.13-6.717l3.052-0.019c0,2.774,0.135,6.007,0.401,9.698
				L1030.107,187.802z"/>
			<path fill="#FFFFFF" d="M1043.391,174.106c-0.053,2.181-0.078,4.469-0.078,6.862c0,2.181,0.021,4.453,0.064,6.814l-3.077,0.01
				l-0.104-1.481c-0.642,0.716-1.493,1.075-2.56,1.075c-2.656,0-3.984-1.517-3.984-4.549c0-0.064,0.004-0.129,0.013-0.193
				c0.053-3.04,1.367-4.559,3.947-4.559c0.104,0,0.212,0.003,0.323,0.01c0.884,0.039,1.599,0.397,2.144,1.074
				c0-1.432-0.048-3.12-0.144-5.062L1043.391,174.106L1043.391,174.106z M1040.145,184.328l-0.063-3.349
				c-0.502-0.51-1.019-0.765-1.546-0.765c-0.217,0-0.434,0.042-0.648,0.126c-0.685,0.265-1.024,1.006-1.024,2.226
				c0,0.142,0.004,0.287,0.013,0.436c0.086,1.478,0.528,2.258,1.324,2.342c0.078,0.006,0.156,0.01,0.232,0.01
				C1039.123,185.354,1039.695,185.012,1040.145,184.328z"/>
			<path fill="#FFFFFF" d="M838.337,202.036l3.09,0.145c0,2.33-1.44,3.51-4.323,3.542c-0.034,0.007-0.064,0.01-0.091,0.01
				c-2.744,0-4.116-1.552-4.116-4.655v-0.291c0.087-3.33,1.55-5.01,4.39-5.042h0.104c2.614,0,3.922,1.116,3.922,3.349
				c0,0.129-0.005,0.258-0.014,0.387l-2.791,0.155v-0.232c0-1.174-0.446-1.761-1.339-1.761c-0.907,0-1.362,0.952-1.362,2.855v0.319
				c0.053,2.059,0.512,3.088,1.377,3.088h0.077c0.753-0.045,1.13-0.475,1.13-1.288C838.389,202.443,838.37,202.249,838.337,202.036z
				"/>
			<path fill="#FFFFFF" d="M847.074,196.083c2.942,0,4.415,1.523,4.415,4.568c0,0.123-0.005,0.246-0.015,0.368
				c-0.121,3.297-1.688,4.962-4.699,4.994c-0.034,0.006-0.068,0.01-0.104,0.01c-2.865,0-4.299-1.559-4.299-4.675v-0.271
				C842.461,197.749,844.029,196.083,847.074,196.083z M846.646,198.291c-0.545,0.142-0.916,0.668-1.115,1.578
				c-0.121,0.542-0.183,1.087-0.183,1.636c0,0.368,0.024,0.739,0.077,1.113c0.139,0.929,0.585,1.41,1.338,1.442h0.092
				c0.7,0,1.182-0.345,1.44-1.036c0.216-0.574,0.323-1.255,0.323-2.042c0-0.193-0.004-0.39-0.014-0.59
				c-0.068-1.039-0.276-1.687-0.622-1.945c-0.218-0.155-0.478-0.232-0.779-0.232C847.031,198.213,846.846,198.239,846.646,198.291z"
				/>
			<path fill="#FFFFFF" d="M854.593,195.832l0.13,1.578c0.364-0.839,1.32-1.265,2.87-1.278h0.052c1.523,0,2.562,0.445,3.116,1.336
				c0.381,0.606,0.571,2.026,0.571,4.259c0,1.097-0.049,2.394-0.144,3.891h-3.144c0.111-1.994,0.169-3.539,0.169-4.636
				c0-0.548-0.014-0.987-0.039-1.316c-0.087-0.968-0.502-1.452-1.246-1.452c-0.745,0-1.213,0.258-1.401,0.774l0.13,7.017
				l-3.052,0.02c0-2.968-0.136-6.301-0.402-9.999L854.593,195.832z"/>
			<path fill="#FFFFFF" d="M875.602,192.086v2.729l-5.129-0.155v3.175l4.608-0.097l0.117,2.623h-4.116v2.458h5.39v2.749
				l-8.984-0.097c0.096-1.813,0.144-3.639,0.144-5.478c0-2.549-0.092-5.12-0.271-7.714
				C869.312,192.222,872.062,192.157,875.602,192.086z"/>
			<path fill="#FFFFFF" d="M880.003,195.832l0.13,1.578c0.363-0.839,1.319-1.265,2.87-1.278h0.052c1.522,0,2.562,0.445,3.116,1.336
				c0.381,0.606,0.57,2.026,0.57,4.259c0,1.097-0.048,2.394-0.144,3.891h-3.144c0.112-1.994,0.17-3.539,0.17-4.636
				c0-0.548-0.014-0.987-0.039-1.316c-0.088-0.968-0.502-1.452-1.246-1.452c-0.745,0-1.213,0.258-1.401,0.774l0.13,7.017
				l-3.053,0.02c0-2.968-0.135-6.301-0.401-9.999L880.003,195.832z"/>
			<path fill="#FFFFFF" d="M889.715,196.432c-0.019-0.174-0.025-0.352-0.025-0.532c0-0.606,0.083-1.229,0.246-1.868
				c0.199-0.833,0.806-1.497,1.817-1.994c0.754-0.375,1.706-0.562,2.856-0.562c0.381,0,0.787,0.022,1.22,0.068l-0.024,2.12
				c-0.26-0.026-0.502-0.039-0.729-0.039c-0.719,0-1.246,0.132-1.584,0.397c-0.372,0.277-0.56,0.82-0.56,1.626
				c0,0.194,0.015,0.407,0.039,0.639l2.779-0.029v1.965l-2.856,0.136c0.068,2.116,0.104,4.117,0.104,6
				c0,0.568-0.005,1.123-0.013,1.665l-3.299,0.106c0.025-2.149,0.068-4.691,0.13-7.627l-2.104,0.077l-0.053-2.081L889.715,196.432z"
				/>
			<path fill="#FFFFFF" d="M901.466,196.083c2.942,0,4.415,1.523,4.415,4.568c0,0.123-0.006,0.246-0.015,0.368
				c-0.121,3.297-1.688,4.962-4.7,4.994c-0.033,0.006-0.068,0.01-0.104,0.01c-2.864,0-4.298-1.559-4.298-4.675v-0.271
				C896.852,197.749,898.419,196.083,901.466,196.083z M901.036,198.291c-0.545,0.142-0.917,0.668-1.115,1.578
				c-0.121,0.542-0.183,1.087-0.183,1.636c0,0.368,0.024,0.739,0.077,1.113c0.139,0.929,0.585,1.41,1.338,1.442h0.091
				c0.701,0,1.183-0.345,1.441-1.036c0.216-0.574,0.323-1.255,0.323-2.042c0-0.193-0.004-0.39-0.014-0.59
				c-0.068-1.039-0.276-1.687-0.623-1.945c-0.217-0.155-0.477-0.232-0.778-0.232C901.423,198.213,901.237,198.239,901.036,198.291z"
				/>
			<path fill="#FFFFFF" d="M913.152,210.37c0.009-2.071,0.014-3.823,0.014-5.255c-0.503,0.684-1.41,1.042-2.729,1.074
				c-2.535,0-3.809-1.646-3.816-4.937c-0.009-0.013-0.014-0.025-0.014-0.039c0-3.265,1.523-4.897,4.57-4.897
				c0.893,0,1.658,0.361,2.299,1.084l0.104-1.491l2.817,0.01c-0.044,2.549-0.064,4.962-0.064,7.24c0,2.504,0.025,4.843,0.078,7.018
				L913.152,210.37z M913.164,203.314v-3.93c-0.425-0.639-0.961-0.958-1.609-0.958c-0.13,0-0.266,0.013-0.401,0.039
				c-0.841,0.148-1.304,1.01-1.391,2.584c-0.009,0.168-0.013,0.329-0.013,0.484c0,1.284,0.319,2.071,0.961,2.362
				c0.216,0.103,0.444,0.155,0.688,0.155C911.936,204.049,912.524,203.804,913.164,203.314z"/>
			<path fill="#FFFFFF" d="M924.175,206.024l-0.13-1.578c-0.363,0.839-1.343,1.262-2.935,1.268
				c-0.019,0.006-0.031,0.009-0.039,0.009c-1.576,0-2.619-0.529-3.13-1.587c-0.347-0.704-0.52-2.159-0.52-4.365
				c0-1.136,0.047-2.475,0.144-4.017h3.154c-0.174,2.168-0.26,3.836-0.26,5.004c0,0.587,0.021,1.045,0.063,1.374
				c0.13,1.007,0.566,1.51,1.312,1.51s1.212-0.262,1.401-0.784l-0.13-6.717l3.052-0.019c0,2.774,0.135,6.007,0.401,9.698
				L924.175,206.024z"/>
			<path fill="#FFFFFF" d="M931.863,196.083c3.004,0,4.506,1.487,4.506,4.462c0,0.362-0.021,0.749-0.064,1.162H930.5
				c0,1.659,0.43,2.487,1.285,2.487h0.091c0.754-0.045,1.131-0.474,1.131-1.287c0-0.174-0.019-0.368-0.053-0.581l3.09-0.048
				c0,2.458-1.44,3.704-4.322,3.736c-0.035,0.006-0.064,0.01-0.091,0.01c-2.744,0-4.116-1.552-4.116-4.656v-0.29
				C927.599,197.749,929.049,196.083,931.863,196.083z M930.188,199.926h2.936v-0.232c0-1.174-0.445-1.762-1.338-1.762
				C930.823,197.932,930.291,198.597,930.188,199.926z"/>
			<path fill="#FFFFFF" d="M942.393,205.733c0.053-1.697,0.077-3.433,0.077-5.207c0-2.723-0.062-5.543-0.183-8.459
				c1.48-0.155,2.787-0.232,3.923-0.232c1.781,0,3.124,0.194,4.023,0.581c1.395,0.6,2.091,1.829,2.091,3.688v0.319
				c-0.087,2.039-0.706,3.344-1.855,3.915c-1.15,0.571-2.57,0.876-4.259,0.915c-0.01,0.2-0.015,0.407-0.015,0.62
				c0,1.071,0.072,2.339,0.222,3.804L942.393,205.733z M945.716,194.312l0.091,4.733c1.609-0.064,2.555-0.494,2.831-1.287
				c0.13-0.361,0.193-0.732,0.193-1.113c0-0.445-0.086-0.903-0.26-1.375c-0.261-0.69-0.908-1.036-1.947-1.036
				C946.348,194.235,946.045,194.261,945.716,194.312z"/>
			<path fill="#FFFFFF" d="M953.442,202.588l2.975-0.106v0.126c0,0.994,0.41,1.497,1.231,1.51h0.053
				c0.797,0,1.195-0.287,1.195-0.861v-0.068c-0.035-0.632-0.82-1.142-2.357-1.529c-1.535-0.387-2.46-1.039-2.771-1.955
				c-0.112-0.323-0.169-0.632-0.169-0.929c0-0.542,0.187-1.045,0.56-1.51c0.57-0.71,1.438-1.116,2.598-1.22
				c0.312-0.026,0.613-0.039,0.907-0.039c0.771,0,1.45,0.1,2.039,0.3c0.806,0.278,1.362,0.674,1.676,1.19
				c0.208,0.355,0.312,0.749,0.312,1.181c0,0.207-0.021,0.419-0.063,0.639l-2.779,0.048c0.025-0.161,0.039-0.31,0.039-0.445
				c0-0.645-0.276-0.99-0.83-1.036c-0.062-0.006-0.121-0.01-0.184-0.01c-0.57,0-0.955,0.216-1.154,0.649
				c-0.068,0.148-0.104,0.284-0.104,0.406c0,0.303,0.189,0.565,0.57,0.784c0.537,0.31,1.332,0.624,2.384,0.943
				c1.052,0.32,1.76,0.863,2.123,1.631c0.13,0.291,0.194,0.581,0.194,0.871c0,0.491-0.189,0.984-0.57,1.481
				c-0.606,0.794-1.547,1.255-2.818,1.384c-0.275,0.032-0.55,0.048-0.816,0.048c-0.951,0-1.836-0.184-2.648-0.552
				C953.988,205.05,953.459,204.072,953.442,202.588z"/>
			<path fill="#FFFFFF" d="M966.451,193.857c0,0.394-0.188,0.729-0.56,1.007c-0.372,0.278-0.821,0.416-1.352,0.416
				c-0.521,0-0.965-0.139-1.337-0.416c-0.372-0.277-0.559-0.613-0.559-1.007c0-0.387,0.186-0.719,0.559-0.997
				c0.372-0.277,0.816-0.416,1.337-0.416c0.528,0,0.979,0.139,1.352,0.416C966.266,193.138,966.451,193.47,966.451,193.857z
				 M962.972,206.072c-0.062-3.775-0.091-7.037-0.091-9.785l3.271-0.146c-0.104,2.633-0.156,5.25-0.156,7.85
				c0,0.697,0.006,1.391,0.015,2.081H962.972z"/>
			<path fill="#FFFFFF" d="M972.477,202.036l3.091,0.145c0,2.33-1.44,3.51-4.323,3.542c-0.034,0.007-0.064,0.01-0.091,0.01
				c-2.744,0-4.116-1.552-4.116-4.655v-0.291c0.086-3.33,1.55-5.01,4.39-5.042h0.104c2.613,0,3.922,1.116,3.922,3.349
				c0,0.129-0.005,0.258-0.014,0.387l-2.791,0.155v-0.232c0-1.174-0.446-1.761-1.338-1.761c-0.908,0-1.363,0.952-1.363,2.855v0.319
				c0.052,2.059,0.511,3.088,1.377,3.088h0.077c0.753-0.045,1.13-0.475,1.13-1.288C972.529,202.443,972.511,202.249,972.477,202.036
				z"/>
			<path fill="#FFFFFF" d="M981.215,196.083c2.942,0,4.415,1.523,4.415,4.568c0,0.123-0.005,0.246-0.015,0.368
				c-0.121,3.297-1.688,4.962-4.699,4.994c-0.034,0.006-0.069,0.01-0.104,0.01c-2.865,0-4.299-1.559-4.299-4.675v-0.271
				C976.602,197.749,978.168,196.083,981.215,196.083z M980.785,198.291c-0.545,0.142-0.917,0.668-1.115,1.578
				c-0.121,0.542-0.183,1.087-0.183,1.636c0,0.368,0.024,0.739,0.077,1.113c0.139,0.929,0.585,1.41,1.338,1.442h0.091
				c0.701,0,1.183-0.345,1.44-1.036c0.217-0.574,0.324-1.255,0.324-2.042c0-0.193-0.004-0.39-0.014-0.59
				c-0.068-1.039-0.276-1.687-0.623-1.945c-0.217-0.155-0.477-0.232-0.778-0.232C981.172,198.213,980.986,198.239,980.785,198.291z"
				/>
			<path fill="#FFFFFF" d="M986.188,202.588l2.975-0.106v0.126c0,0.994,0.411,1.497,1.232,1.51h0.053
				c0.797,0,1.194-0.287,1.194-0.861v-0.068c-0.034-0.632-0.819-1.142-2.356-1.529c-1.536-0.387-2.46-1.039-2.771-1.955
				c-0.112-0.323-0.169-0.632-0.169-0.929c0-0.542,0.187-1.045,0.56-1.51c0.57-0.71,1.438-1.116,2.597-1.22
				c0.312-0.026,0.614-0.039,0.908-0.039c0.771,0,1.45,0.1,2.039,0.3c0.806,0.278,1.362,0.674,1.675,1.19
				c0.208,0.355,0.312,0.749,0.312,1.181c0,0.207-0.021,0.419-0.064,0.639l-2.778,0.048c0.025-0.161,0.039-0.31,0.039-0.445
				c0-0.645-0.276-0.99-0.831-1.036c-0.062-0.006-0.121-0.01-0.183-0.01c-0.57,0-0.956,0.216-1.154,0.649
				c-0.069,0.148-0.104,0.284-0.104,0.406c0,0.303,0.189,0.565,0.57,0.784c0.537,0.31,1.331,0.624,2.384,0.943
				c1.052,0.32,1.76,0.863,2.123,1.631c0.129,0.291,0.194,0.581,0.194,0.871c0,0.491-0.19,0.984-0.571,1.481
				c-0.605,0.794-1.546,1.255-2.817,1.384c-0.275,0.032-0.55,0.048-0.816,0.048c-0.952,0-1.836-0.184-2.648-0.552
				C986.734,205.05,986.204,204.072,986.188,202.588z"/>
			<path fill="#FFFFFF" d="M1000.133,196.083c2.942,0,4.415,1.523,4.415,4.568c0,0.123-0.005,0.246-0.015,0.368
				c-0.121,3.297-1.688,4.962-4.699,4.994c-0.034,0.006-0.069,0.01-0.104,0.01c-2.865,0-4.299-1.559-4.299-4.675v-0.271
				C995.52,197.749,997.086,196.083,1000.133,196.083z M999.703,198.291c-0.545,0.142-0.917,0.668-1.115,1.578
				c-0.121,0.542-0.183,1.087-0.183,1.636c0,0.368,0.024,0.739,0.077,1.113c0.139,0.929,0.585,1.41,1.338,1.442h0.091
				c0.701,0,1.183-0.345,1.44-1.036c0.217-0.574,0.324-1.255,0.324-2.042c0-0.193-0.004-0.39-0.014-0.59
				c-0.068-1.039-0.276-1.687-0.623-1.945c-0.217-0.155-0.477-0.232-0.778-0.232C1000.09,198.213,999.904,198.239,999.703,198.291z"
				/>
			<path fill="#FFFFFF" d="M1010.573,202.036l3.09,0.145c0,2.33-1.44,3.51-4.322,3.542c-0.035,0.007-0.064,0.01-0.092,0.01
				c-2.743,0-4.115-1.552-4.115-4.655v-0.291c0.086-3.33,1.55-5.01,4.39-5.042h0.104c2.614,0,3.923,1.116,3.923,3.349
				c0,0.129-0.005,0.258-0.015,0.387l-2.791,0.155v-0.232c0-1.174-0.445-1.761-1.338-1.761c-0.908,0-1.363,0.952-1.363,2.855v0.319
				c0.053,2.059,0.512,3.088,1.378,3.088h0.076c0.753-0.045,1.131-0.475,1.131-1.288
				C1010.623,202.443,1010.607,202.249,1010.573,202.036z"/>
			<path fill="#FFFFFF" d="M1018.375,193.857c0,0.394-0.188,0.729-0.559,1.007c-0.372,0.278-0.822,0.416-1.352,0.416
				c-0.521,0-0.966-0.139-1.337-0.416c-0.373-0.277-0.56-0.613-0.56-1.007c0-0.387,0.187-0.719,0.56-0.997
				c0.371-0.277,0.816-0.416,1.337-0.416c0.527,0,0.979,0.139,1.352,0.416C1018.189,193.138,1018.375,193.47,1018.375,193.857z
				 M1014.896,206.072c-0.062-3.775-0.092-7.037-0.092-9.785l3.271-0.146c-0.104,2.633-0.155,5.25-0.155,7.85
				c0,0.697,0.005,1.391,0.014,2.081H1014.896z"/>
			<path fill="#FFFFFF" d="M1024.115,195.803c2.849,0.116,4.271,1.185,4.271,3.204v6.872l-3.024,0.039l-0.104-0.919
				c-0.623,0.529-1.449,0.793-2.479,0.793c-0.44,0-0.918-0.051-1.43-0.155c-1.531-0.284-2.298-1.168-2.298-2.652
				c0-0.181,0.013-0.375,0.039-0.581c0.173-1.529,1.632-2.294,4.376-2.294c0.526,0,1.106,0.029,1.738,0.087v-1.123
				c0-0.91-0.385-1.365-1.154-1.365h-0.053c-0.061-0.006-0.116-0.009-0.169-0.009c-0.84,0-1.261,0.51-1.261,1.529v0.145l-3.09-0.194
				c0-2.251,1.454-3.378,4.362-3.378L1024.115,195.803L1024.115,195.803z M1025.204,203.449v-1.704
				c-0.372-0.058-0.71-0.087-1.013-0.087c-0.788,0-1.324,0.197-1.609,0.59c-0.174,0.239-0.26,0.461-0.26,0.668
				c0,0.258,0.139,0.487,0.415,0.687c0.216,0.155,0.498,0.232,0.845,0.232C1024.024,203.836,1024.564,203.708,1025.204,203.449z"/>
			<path fill="#FFFFFF" d="M1033.073,205.859l-3.232,0.223c0.034-2.136,0.052-4.191,0.052-6.166c0-2.774-0.033-5.391-0.104-7.85
				l3.183-0.039c-0.035,1.581-0.053,3.204-0.053,4.868C1032.918,199.768,1032.971,202.756,1033.073,205.859z"/>
		</g>
		<g id="OB1yQF_50_">
			<g>
				<path fill="#94BD30" d="M1079.773,220.422c-0.549,0.1-1.108,0.204-1.672,0.308c-3.487,0.633-6.978,1.265-10.465,1.903
					c-0.146,0.027-0.293,0.085-0.422,0.16c-3.47,2.067-6.937,4.139-10.402,6.209c-0.073,0.045-0.147,0.084-0.221,0.126
					c1.021-9.031,2.037-18.051,3.053-27.042C1066.336,208.183,1073.049,214.299,1079.773,220.422z"/>
				<path fill="#94BD30" d="M1070.782,209.973c-0.604-0.555-1.194-1.096-1.772-1.625c0.248-0.46,0.508-0.889,0.717-1.341
					c2.195-4.796,0.837-10.329-3.391-13.481c-4.984-3.721-11.859-2.644-15.424,2.261c-2.132,2.931-2.732,6.184-1.738,9.68
					c0.699,2.467,2.156,4.426,4.254,5.896c0.961,0.671,2,1.176,3.121,1.509c0.154,0.045,0.219,0.103,0.194,0.285
					c-0.099,0.738-0.175,1.48-0.258,2.222c-4.041-0.931-8.951-4.373-10.026-11.029c-0.986-6.105,2.438-12.104,8.137-14.411
					c5.87-2.376,12.488-0.477,16.115,4.655C1074.476,199.921,1073.473,206.192,1070.782,209.973z"/>
				<path fill="#94BD30" d="M1066.454,206.02c-0.594-0.549-1.176-1.08-1.748-1.622c-0.045-0.042-0.067-0.156-0.045-0.217
					c0.877-2.417-0.016-4.982-2.201-6.319c-2.407-1.469-5.583-0.751-7.142,1.614c-1.513,2.303-0.901,5.526,1.354,7.135
					c0.184,0.131,0.384,0.235,0.562,0.369c0.062,0.046,0.134,0.145,0.125,0.212c-0.077,0.757-0.172,1.512-0.262,2.265
					c-0.004,0.026-0.021,0.053-0.031,0.08c-2.479-0.889-4.93-3.439-5-7.02c-0.065-3.466,2.146-6.447,5.227-7.455
					c3.405-1.115,6.948,0.142,8.864,3.058C1068.038,200.983,1067.549,204.283,1066.454,206.02z"/>
			</g>
		</g>
	</g>
	<path fill="none" stroke="#66A528" stroke-width="3" stroke-miterlimit="10" d="M1107.865,335.52
		c0,6.271-5.085,11.354-11.355,11.354H761.381c-6.271,0-11.355-5.084-11.355-11.354v-86.811c0-6.272,5.085-11.357,11.355-11.357
		h335.127c6.271,0,11.355,5.085,11.355,11.357L1107.865,335.52L1107.865,335.52z"/>
	<g>
		<path fill="none" stroke="#218DBC" stroke-width="3" stroke-miterlimit="10" d="M1068.183,112.597
			c0-6.273-5.085-11.357-11.356-11.357H196.649c-6.272,0-11.356,5.084-11.356,11.357v26.021c0,6.272,5.084,11.356,11.356,11.356
			h860.177c6.271,0,11.357-5.084,11.357-11.356L1068.183,112.597L1068.183,112.597z"/>
	</g>
	<line fill="none" stroke="#218DBC" stroke-width="3" stroke-miterlimit="10" x1="629.354" y1="81.314" x2="629.354" y2="99.537"/>
	
		<line fill="none" stroke="#218DBC" stroke-width="3" stroke-miterlimit="10" x1="629.354" y1="150.718" x2="629.354" y2="368.614"/>
	
		<line fill="none" stroke="#218DBC" stroke-width="3" stroke-miterlimit="10" x1="201.946" y1="368.609" x2="1052.068" y2="368.609"/>
	
		<line fill="none" stroke="#218DBC" stroke-width="3" stroke-miterlimit="10" x1="201.946" y1="436.146" x2="1052.068" y2="436.146"/>
	
		<line fill="none" stroke="#218DBC" stroke-width="3" stroke-miterlimit="10" x1="201.946" y1="379.784" x2="201.946" y2="368.609"/>
	
		<line fill="none" stroke="#218DBC" stroke-width="3" stroke-miterlimit="10" x1="371.312" y1="379.784" x2="371.312" y2="368.609"/>
	
		<line fill="none" stroke="#218DBC" stroke-width="3" stroke-miterlimit="10" x1="540.678" y1="379.784" x2="540.678" y2="368.609"/>
	
		<line fill="none" stroke="#218DBC" stroke-width="3" stroke-miterlimit="10" x1="710.045" y1="379.784" x2="710.045" y2="368.609"/>
	
		<line fill="none" stroke="#218DBC" stroke-width="3" stroke-miterlimit="10" x1="879.411" y1="379.784" x2="879.411" y2="368.609"/>
	
		<line fill="none" stroke="#218DBC" stroke-width="3" stroke-miterlimit="10" x1="201.946" y1="453.724" x2="201.946" y2="421.413"/>
	
		<line fill="none" stroke="#218DBC" stroke-width="3" stroke-miterlimit="10" x1="1052.068" y1="453.724" x2="1052.068" y2="421.413"/>
	
		<line fill="none" stroke="#218DBC" stroke-width="3" stroke-miterlimit="10" x1="1052.068" y1="379.788" x2="1052.068" y2="368.614"/>
	<path fill="none" stroke="#63BBBE" stroke-width="3" stroke-miterlimit="10" d="M263.768,409.52
		c0,6.567-5.326,11.896-11.895,11.896h-99.855c-6.566,0-11.893-5.326-11.893-11.896v-17.841c0-6.568,5.325-11.895,11.893-11.895
		h99.855c6.567,0,11.895,5.324,11.895,11.895V409.52z"/>
	<path fill="none" stroke="#CBA7CC" stroke-width="3" stroke-miterlimit="10" d="M299.547,482.052
		c0,6.57-5.326,11.896-11.895,11.896H116.24c-6.567,0-11.895-5.324-11.895-11.896v-17.84c0-6.567,5.326-11.893,11.895-11.893
		h171.413c6.567,0,11.895,5.322,11.895,11.893L299.547,482.052L299.547,482.052z"/>
	<path fill="none" stroke="#CBA7CC" stroke-width="3" stroke-miterlimit="10" d="M582.77,482.052c0,6.57-5.324,11.896-11.893,11.896
		H399.462c-6.567,0-11.895-5.324-11.895-11.896v-17.84c0-6.567,5.325-11.893,11.895-11.893h171.415
		c6.566,0,11.893,5.322,11.893,11.893V482.052z"/>
	<path fill="none" stroke="#CBA7CC" stroke-width="3" stroke-miterlimit="10" d="M865.993,482.052
		c0,6.57-5.325,11.896-11.895,11.896H682.686c-6.567,0-11.896-5.324-11.896-11.896v-17.84c0-6.567,5.326-11.893,11.896-11.893
		h171.415c6.567,0,11.895,5.322,11.895,11.893L865.993,482.052L865.993,482.052z"/>
	<path fill="none" stroke="#CBA7CC" stroke-width="3" stroke-miterlimit="10" d="M1149.217,482.052
		c0,6.57-5.326,11.896-11.896,11.896H965.907c-6.567,0-11.894-5.324-11.894-11.896v-17.84c0-6.567,5.324-11.893,11.894-11.893
		h171.414c6.567,0,11.896,5.322,11.896,11.893V482.052z"/>
	<path fill="none" stroke="#CBA7CC" stroke-width="3" stroke-miterlimit="10" d="M299.547,530.583
		c0,6.568-5.326,11.893-11.895,11.893H116.24c-6.567,0-11.895-5.322-11.895-11.893v-17.842c0-6.568,5.326-11.895,11.895-11.895
		h171.413c6.567,0,11.895,5.324,11.895,11.895L299.547,530.583L299.547,530.583z"/>
	<path fill="none" stroke="#CBA7CC" stroke-width="3" stroke-miterlimit="10" d="M582.77,530.583
		c0,6.568-5.324,11.893-11.893,11.893H399.462c-6.567,0-11.895-5.322-11.895-11.893v-17.842c0-6.568,5.325-11.895,11.895-11.895
		h171.415c6.566,0,11.893,5.324,11.893,11.895V530.583z"/>
	<path fill="none" stroke="#CBA7CC" stroke-width="3" stroke-miterlimit="10" d="M865.993,530.583
		c0,6.568-5.325,11.893-11.895,11.893H682.686c-6.567,0-11.896-5.322-11.896-11.893v-17.842c0-6.568,5.326-11.895,11.896-11.895
		h171.415c6.567,0,11.895,5.324,11.895,11.895L865.993,530.583L865.993,530.583z"/>
	<path fill="none" stroke="#CBA7CC" stroke-width="3" stroke-miterlimit="10" d="M1149.217,530.583
		c0,6.568-5.326,11.893-11.896,11.893H965.907c-6.567,0-11.894-5.322-11.894-11.893v-17.842c0-6.568,5.324-11.895,11.894-11.895
		h171.414c6.567,0,11.896,5.324,11.896,11.895V530.583z"/>
	<path fill="none" stroke="#63BBBE" stroke-width="3" stroke-miterlimit="10" d="M433.133,409.52
		c0,6.567-5.325,11.896-11.894,11.896h-99.854c-6.567,0-11.896-5.326-11.896-11.896v-17.841c0-6.568,5.326-11.895,11.896-11.895
		h99.854c6.566,0,11.894,5.324,11.894,11.895V409.52z"/>
	<path fill="none" stroke="#63BBBE" stroke-width="3" stroke-miterlimit="10" d="M602.497,409.52
		c0,6.567-5.323,11.896-11.894,11.896H490.75c-6.568,0-11.895-5.326-11.895-11.896v-17.841c0-6.568,5.324-11.895,11.895-11.895
		h99.854c6.568,0,11.894,5.324,11.894,11.895V409.52z"/>
	<path fill="none" stroke="#63BBBE" stroke-width="3" stroke-miterlimit="10" d="M771.865,409.52
		c0,6.567-5.323,11.896-11.894,11.896h-99.854c-6.567,0-11.895-5.326-11.895-11.896v-17.841c0-6.568,5.325-11.895,11.895-11.895
		h99.854c6.567,0,11.894,5.324,11.894,11.895V409.52z"/>
	<path fill="none" stroke="#63BBBE" stroke-width="3" stroke-miterlimit="10" d="M941.232,409.52
		c0,6.567-5.325,11.896-11.894,11.896h-99.854c-6.57,0-11.896-5.326-11.896-11.896v-17.841c0-6.568,5.323-11.895,11.896-11.895
		h99.854c6.566,0,11.894,5.324,11.894,11.895V409.52z"/>
	<path fill="none" stroke="#63BBBE" stroke-width="3" stroke-miterlimit="10" d="M1110.598,409.52
		c0,6.567-5.323,11.896-11.895,11.896H998.85c-6.567,0-11.896-5.326-11.896-11.896v-17.841c0-6.568,5.326-11.895,11.896-11.895
		h99.854c6.569,0,11.895,5.324,11.895,11.895L1110.598,409.52L1110.598,409.52z"/>
	
		<line fill="none" stroke="#E97734" stroke-width="3" stroke-miterlimit="10" x1="319.045" y1="215.607" x2="319.045" y2="236.462"/>
	
		<line fill="none" stroke="#66A528" stroke-width="3" stroke-miterlimit="10" x1="927.034" y1="215.607" x2="927.034" y2="236.462"/>
</g>
<g>
	<path fill="#C59AC4" d="M499.646,552.706h5.365v1.629h-3.372v2.005h3.149v1.613h-3.149v3.527h-1.993V552.706z"/>
	<path fill="#C59AC4" d="M508.227,553.344c0,0.548-0.417,0.991-1.069,0.991c-0.625,0-1.041-0.443-1.03-0.991
		c-0.013-0.572,0.403-1.002,1.042-1.002C507.808,552.342,508.215,552.771,508.227,553.344z M506.182,561.482v-6.367h1.979v6.367
		H506.182z"/>
	<path fill="#C59AC4" d="M515.83,555.113c-0.025,0.405-0.051,0.939-0.051,1.89v3.554c0,1.226-0.248,2.228-0.964,2.866
		c-0.704,0.597-1.654,0.782-2.592,0.782c-0.833,0-1.718-0.17-2.29-0.497l0.391-1.496c0.403,0.235,1.105,0.481,1.849,0.481
		c0.938,0,1.653-0.508,1.653-1.68v-0.416H513.8c-0.378,0.532-0.99,0.832-1.718,0.832c-1.577,0-2.697-1.274-2.697-3.11
		c0-2.045,1.33-3.347,2.891-3.347c0.873,0,1.42,0.378,1.744,0.9h0.025l0.066-0.756h1.719L515.83,555.113L515.83,555.113z
		 M513.8,557.706c0-0.131-0.014-0.26-0.04-0.364c-0.144-0.522-0.521-0.873-1.067-0.873c-0.718,0-1.303,0.651-1.303,1.81
		c0,0.949,0.468,1.692,1.303,1.692c0.506,0,0.91-0.339,1.041-0.808c0.051-0.144,0.064-0.351,0.064-0.521L513.8,557.706
		L513.8,557.706z"/>
	<path fill="#C59AC4" d="M523.371,559.437c0,0.834,0.025,1.513,0.051,2.046h-1.718l-0.091-0.899h-0.039
		c-0.248,0.392-0.846,1.042-1.993,1.042c-1.29,0-2.24-0.808-2.24-2.774v-3.737h1.993v3.426c0,0.926,0.299,1.485,0.989,1.485
		c0.547,0,0.859-0.378,0.99-0.689c0.052-0.117,0.064-0.274,0.064-0.43v-3.79h1.993V559.437L523.371,559.437z"/>
	<path fill="#C59AC4" d="M524.959,557.212c0-0.938-0.025-1.55-0.051-2.097h1.706l0.066,1.171h0.051
		c0.327-0.924,1.107-1.314,1.719-1.314c0.182,0,0.272,0,0.417,0.025v1.862c-0.145-0.025-0.312-0.051-0.533-0.051
		c-0.729,0-1.225,0.39-1.355,1.002c-0.026,0.131-0.039,0.285-0.039,0.442v3.229h-1.979v-4.271H524.959z"/>
	<path fill="#C59AC4" d="M533.384,561.482l-0.116-0.64h-0.04c-0.417,0.509-1.068,0.782-1.823,0.782c-1.29,0-2.058-0.937-2.058-1.953
		c0-1.653,1.483-2.447,3.736-2.434v-0.091c0-0.339-0.181-0.821-1.158-0.821c-0.652,0-1.342,0.22-1.759,0.482l-0.365-1.276
		c0.443-0.248,1.315-0.56,2.473-0.56c2.123,0,2.8,1.25,2.8,2.747v2.214c0,0.612,0.026,1.196,0.091,1.549H533.384L533.384,561.482z
		 M533.149,558.475c-1.042-0.014-1.849,0.234-1.849,1.003c0,0.508,0.338,0.755,0.782,0.755c0.495,0,0.899-0.325,1.028-0.729
		c0.026-0.104,0.04-0.221,0.04-0.338v-0.69H533.149z"/>
	<path fill="#C59AC4" d="M541.549,554.776h-0.026l-1.614,0.768l-0.325-1.484l2.239-1.04h1.642v8.463h-1.915L541.549,554.776
		L541.549,554.776z"/>
	<path fill="#C59AC4" d="M546.354,560.427c0-0.703,0.482-1.211,1.172-1.211s1.159,0.494,1.159,1.211c0,0.69-0.469,1.195-1.173,1.195
		C546.835,561.625,546.354,561.117,546.354,560.427z"/>
	<path fill="#C59AC4" d="M552.708,552.706h4.726v0.95h-3.593v2.917h3.32v0.938h-3.32v3.971h-1.132L552.708,552.706L552.708,552.706z
		"/>
	<path fill="#C59AC4" d="M563.829,559.764c0,0.65,0.014,1.224,0.051,1.719h-1.015l-0.065-1.028h-0.026
		c-0.3,0.508-0.964,1.171-2.084,1.171c-0.988,0-2.174-0.548-2.174-2.761v-3.685h1.146v3.489c0,1.197,0.366,2.005,1.406,2.005
		c0.768,0,1.302-0.534,1.51-1.042c0.066-0.168,0.104-0.377,0.104-0.585v-3.867h1.146V559.764L563.829,559.764z"/>
	<path fill="#C59AC4" d="M565.73,556.888c0-0.653-0.015-1.188-0.052-1.708h1.015l0.066,1.042h0.025
		c0.312-0.599,1.041-1.185,2.084-1.185c0.873,0,2.226,0.52,2.226,2.682v3.762h-1.145v-3.632c0-1.017-0.377-1.862-1.459-1.862
		c-0.754,0-1.34,0.533-1.536,1.171c-0.052,0.144-0.08,0.34-0.08,0.534v3.789h-1.145V556.888L565.73,556.888z"/>
	<path fill="#C59AC4" d="M578.4,552.236v7.616c0,0.561,0.014,1.199,0.052,1.628h-1.028l-0.053-1.093h-0.025
		c-0.352,0.703-1.119,1.234-2.149,1.234c-1.523,0-2.696-1.287-2.696-3.2c-0.014-2.098,1.29-3.385,2.826-3.385
		c0.964,0,1.613,0.454,1.9,0.962h0.025v-3.763H578.4z M577.253,557.745c0-0.144-0.014-0.339-0.051-0.482
		c-0.17-0.728-0.794-1.328-1.653-1.328c-1.186,0-1.887,1.042-1.887,2.437c0,1.275,0.624,2.33,1.862,2.33
		c0.768,0,1.471-0.507,1.678-1.366c0.039-0.157,0.051-0.313,0.051-0.496V557.745z"/>
	<path fill="#C59AC4" d="M583.792,561.482l-0.091-0.794h-0.04c-0.352,0.495-1.03,0.937-1.928,0.937c-1.275,0-1.928-0.898-1.928-1.81
		c0-1.521,1.354-2.356,3.789-2.344v-0.13c0-0.521-0.145-1.458-1.432-1.458c-0.587,0-1.197,0.182-1.641,0.469l-0.261-0.755
		c0.521-0.339,1.276-0.56,2.07-0.56c1.928,0,2.396,1.314,2.396,2.577v2.357c0,0.546,0.027,1.081,0.104,1.51H583.792L583.792,561.482
		z M583.622,558.266c-1.25-0.027-2.668,0.195-2.668,1.419c0,0.742,0.494,1.095,1.081,1.095c0.82,0,1.342-0.521,1.523-1.056
		c0.04-0.115,0.065-0.246,0.065-0.364V558.266z"/>
	<path fill="#C59AC4" d="M586.578,556.888c0-0.653-0.013-1.188-0.052-1.708h1.003l0.052,1.016h0.04
		c0.352-0.598,0.938-1.158,1.979-1.158c0.86,0,1.51,0.52,1.784,1.262h0.025c0.195-0.352,0.443-0.624,0.703-0.82
		c0.378-0.286,0.794-0.441,1.393-0.441c0.833,0,2.069,0.546,2.069,2.733v3.71h-1.12v-3.565c0-1.213-0.441-1.941-1.366-1.941
		c-0.652,0-1.159,0.483-1.355,1.043c-0.051,0.157-0.09,0.363-0.09,0.57v3.894h-1.12v-3.775c0-1.003-0.443-1.732-1.315-1.732
		c-0.717,0-1.237,0.573-1.42,1.146c-0.066,0.171-0.091,0.366-0.091,0.56v3.803h-1.119V556.888L586.578,556.888z"/>
	<path fill="#C59AC4" d="M598.077,558.539c0.025,1.549,1.015,2.187,2.161,2.187c0.82,0,1.316-0.144,1.744-0.324l0.196,0.82
		c-0.404,0.181-1.096,0.389-2.096,0.389c-1.94,0-3.1-1.275-3.1-3.176c0-1.899,1.12-3.397,2.956-3.397
		c2.058,0,2.604,1.808,2.604,2.969c0,0.232-0.026,0.416-0.04,0.532L598.077,558.539L598.077,558.539z M601.436,557.72
		c0.015-0.73-0.299-1.864-1.587-1.864c-1.159,0-1.667,1.07-1.757,1.864H601.436z"/>
	<path fill="#C59AC4" d="M603.964,556.888c0-0.653-0.014-1.188-0.052-1.708h1.016l0.064,1.042h0.027
		c0.312-0.599,1.041-1.185,2.083-1.185c0.873,0,2.226,0.52,2.226,2.682v3.762h-1.146v-3.632c0-1.017-0.376-1.862-1.457-1.862
		c-0.755,0-1.341,0.533-1.537,1.171c-0.051,0.144-0.079,0.34-0.079,0.534v3.789h-1.145V556.888L603.964,556.888z"/>
	<path fill="#C59AC4" d="M612.519,553.369v1.811h1.642v0.873h-1.642v3.398c0,0.781,0.221,1.225,0.86,1.225
		c0.3,0,0.521-0.04,0.664-0.078l0.051,0.856c-0.221,0.092-0.572,0.159-1.015,0.159c-0.532,0-0.963-0.171-1.237-0.483
		c-0.326-0.339-0.442-0.897-0.442-1.639v-3.438h-0.976v-0.873h0.976v-1.51L612.519,553.369z"/>
	<path fill="#C59AC4" d="M621.073,558.278c0,2.332-1.615,3.347-3.139,3.347c-1.707,0-3.021-1.251-3.021-3.242
		c0-2.109,1.381-3.345,3.125-3.345C619.849,555.038,621.073,556.352,621.073,558.278z M616.073,558.344
		c0,1.38,0.793,2.422,1.914,2.422c1.094,0,1.914-1.029,1.914-2.448c0-1.067-0.534-2.422-1.888-2.422
		C616.659,555.896,616.073,557.147,616.073,558.344z"/>
	<path fill="#C59AC4" d="M622.363,560.311c0.337,0.221,0.938,0.455,1.512,0.455c0.833,0,1.224-0.417,1.224-0.938
		c0-0.549-0.326-0.847-1.171-1.159c-1.131-0.403-1.667-1.028-1.667-1.784c0-1.016,0.82-1.848,2.174-1.848
		c0.638,0,1.198,0.182,1.548,0.389l-0.286,0.834c-0.247-0.156-0.703-0.364-1.289-0.364c-0.678,0-1.055,0.391-1.055,0.859
		c0,0.521,0.377,0.754,1.196,1.068c1.094,0.415,1.654,0.964,1.654,1.9c0,1.106-0.86,1.887-2.357,1.887
		c-0.688,0-1.327-0.169-1.771-0.427L622.363,560.311z"/>
	<path fill="#C59AC4" d="M634.929,561.248c-0.302,0.155-0.964,0.365-1.811,0.365c-1.899,0-3.138-1.289-3.138-3.218
		c0-1.938,1.327-3.347,3.385-3.347c0.676,0,1.277,0.171,1.589,0.327l-0.263,0.885c-0.272-0.155-0.701-0.299-1.327-0.299
		c-1.445,0-2.225,1.068-2.225,2.382c0,1.458,0.937,2.356,2.187,2.356c0.65,0,1.08-0.169,1.406-0.312L634.929,561.248z"/>
	<path fill="#C59AC4" d="M641.894,558.278c0,2.332-1.613,3.347-3.138,3.347c-1.707,0-3.021-1.251-3.021-3.242
		c0-2.109,1.381-3.345,3.125-3.345C640.671,555.038,641.894,556.352,641.894,558.278z M636.896,558.344
		c0,1.38,0.793,2.422,1.914,2.422c1.094,0,1.913-1.029,1.913-2.448c0-1.067-0.533-2.422-1.888-2.422
		S636.896,557.147,636.896,558.344z"/>
	<path fill="#C59AC4" d="M643.34,556.888c0-0.653-0.013-1.188-0.05-1.708h1.014l0.067,1.042h0.024
		c0.312-0.599,1.041-1.185,2.084-1.185c0.872,0,2.226,0.52,2.226,2.682v3.762h-1.146v-3.632c0-1.017-0.379-1.862-1.457-1.862
		c-0.756,0-1.342,0.533-1.536,1.171c-0.052,0.144-0.08,0.34-0.08,0.534v3.789h-1.146V556.888z"/>
	<path fill="#C59AC4" d="M655.061,561.248c-0.302,0.155-0.963,0.365-1.81,0.365c-1.9,0-3.139-1.289-3.139-3.218
		c0-1.938,1.327-3.347,3.385-3.347c0.678,0,1.276,0.171,1.589,0.327l-0.261,0.885c-0.273-0.155-0.703-0.299-1.328-0.299
		c-1.445,0-2.225,1.068-2.225,2.382c0,1.458,0.938,2.356,2.187,2.356c0.651,0,1.08-0.169,1.406-0.312L655.061,561.248z"/>
	<path fill="#C59AC4" d="M656.962,558.539c0.025,1.549,1.013,2.187,2.159,2.187c0.82,0,1.317-0.144,1.745-0.324l0.196,0.82
		c-0.405,0.181-1.096,0.389-2.099,0.389c-1.938,0-3.098-1.275-3.098-3.176c0-1.899,1.121-3.397,2.955-3.397
		c2.06,0,2.603,1.808,2.603,2.969c0,0.232-0.024,0.416-0.038,0.532L656.962,558.539L656.962,558.539z M660.321,557.72
		c0.013-0.73-0.3-1.864-1.589-1.864c-1.159,0-1.666,1.07-1.758,1.864H660.321z"/>
	<path fill="#C59AC4" d="M662.849,557.238c0-0.809-0.025-1.459-0.052-2.059h1.027l0.053,1.08h0.026
		c0.467-0.768,1.21-1.223,2.239-1.223c1.523,0,2.669,1.289,2.669,3.201c0,2.267-1.38,3.387-2.864,3.387
		c-0.834,0-1.563-0.365-1.94-0.989h-0.024v3.425h-1.134V557.238L662.849,557.238z M663.979,558.917c0,0.169,0.025,0.325,0.053,0.468
		c0.207,0.796,0.897,1.341,1.717,1.341c1.212,0,1.914-0.989,1.914-2.436c0-1.26-0.664-2.343-1.874-2.343
		c-0.783,0-1.509,0.561-1.732,1.42c-0.039,0.144-0.077,0.312-0.077,0.468V558.917L663.979,558.917z"/>
	<path fill="#C59AC4" d="M671.637,553.369v1.811h1.641v0.873h-1.641v3.398c0,0.781,0.22,1.225,0.859,1.225
		c0.3,0,0.522-0.04,0.664-0.078l0.051,0.856c-0.221,0.092-0.572,0.159-1.015,0.159c-0.534,0-0.965-0.171-1.236-0.483
		c-0.327-0.339-0.443-0.897-0.443-1.639v-3.438h-0.977v-0.873h0.977v-1.51L671.637,553.369z"/>
	<path fill="#C59AC4" d="M679.839,559.764c0,0.65,0.015,1.224,0.052,1.719h-1.015l-0.064-1.028h-0.026
		c-0.3,0.508-0.965,1.171-2.084,1.171c-0.99,0-2.175-0.548-2.175-2.761v-3.685h1.146v3.489c0,1.197,0.366,2.005,1.407,2.005
		c0.768,0,1.301-0.534,1.511-1.042c0.065-0.168,0.104-0.377,0.104-0.585v-3.867h1.145V559.764z"/>
	<path fill="#C59AC4" d="M685.231,561.482l-0.092-0.794h-0.04c-0.352,0.495-1.028,0.937-1.927,0.937
		c-1.276,0-1.928-0.898-1.928-1.81c0-1.521,1.354-2.356,3.788-2.344v-0.13c0-0.521-0.145-1.458-1.433-1.458
		c-0.588,0-1.197,0.182-1.64,0.469l-0.262-0.755c0.522-0.339,1.276-0.56,2.07-0.56c1.929,0,2.396,1.314,2.396,2.577v2.357
		c0,0.546,0.027,1.081,0.105,1.51H685.231L685.231,561.482z M685.062,558.266c-1.249-0.027-2.668,0.195-2.668,1.419
		c0,0.742,0.495,1.095,1.081,1.095c0.818,0,1.341-0.521,1.521-1.056c0.041-0.115,0.065-0.246,0.065-0.364V558.266z"/>
	<path fill="#C59AC4" d="M688.018,552.236h1.146v9.244h-1.146V552.236z"/>
	<path fill="#C59AC4" d="M691.729,558.539c0.024,1.549,1.015,2.187,2.16,2.187c0.822,0,1.317-0.144,1.746-0.324l0.195,0.82
		c-0.404,0.181-1.095,0.389-2.098,0.389c-1.938,0-3.098-1.275-3.098-3.176c0-1.899,1.118-3.397,2.954-3.397
		c2.059,0,2.604,1.808,2.604,2.969c0,0.232-0.027,0.416-0.039,0.532L691.729,558.539L691.729,558.539z M695.088,557.72
		c0.014-0.73-0.302-1.864-1.587-1.864c-1.159,0-1.669,1.07-1.76,1.864H695.088z"/>
	<path fill="#C59AC4" d="M697.458,560.311c0.338,0.221,0.938,0.455,1.512,0.455c0.833,0,1.224-0.417,1.224-0.938
		c0-0.549-0.324-0.847-1.171-1.159c-1.132-0.403-1.667-1.028-1.667-1.784c0-1.016,0.819-1.848,2.174-1.848
		c0.638,0,1.198,0.182,1.55,0.389l-0.285,0.834c-0.248-0.156-0.705-0.364-1.291-0.364c-0.678,0-1.056,0.391-1.056,0.859
		c0,0.521,0.378,0.754,1.196,1.068c1.095,0.415,1.655,0.964,1.655,1.9c0,1.106-0.859,1.887-2.356,1.887
		c-0.689,0-1.329-0.169-1.771-0.427L697.458,560.311z"/>
	<path fill="#C59AC4" d="M710.975,552.236v7.616c0,0.561,0.014,1.199,0.052,1.628h-1.028l-0.052-1.093h-0.025
		c-0.352,0.703-1.121,1.234-2.15,1.234c-1.522,0-2.696-1.287-2.696-3.2c-0.013-2.098,1.29-3.385,2.826-3.385
		c0.964,0,1.613,0.454,1.899,0.962h0.026v-3.763H710.975z M709.829,557.745c0-0.144-0.015-0.339-0.052-0.482
		c-0.17-0.728-0.794-1.328-1.652-1.328c-1.187,0-1.887,1.042-1.887,2.437c0,1.275,0.621,2.33,1.86,2.33
		c0.769,0,1.472-0.507,1.679-1.366c0.04-0.157,0.052-0.313,0.052-0.496V557.745z"/>
	<path fill="#C59AC4" d="M713.515,558.539c0.023,1.549,1.015,2.187,2.159,2.187c0.821,0,1.317-0.144,1.745-0.324l0.196,0.82
		c-0.403,0.181-1.096,0.389-2.097,0.389c-1.938,0-3.1-1.275-3.1-3.176c0-1.899,1.119-3.397,2.955-3.397
		c2.059,0,2.604,1.808,2.604,2.969c0,0.232-0.024,0.416-0.039,0.532L713.515,558.539L713.515,558.539z M716.874,557.72
		c0.013-0.73-0.299-1.864-1.588-1.864c-1.158,0-1.668,1.07-1.759,1.864H716.874z"/>
	<path fill="#C59AC4" d="M719.399,552.236h1.146v9.244h-1.146V552.236z"/>
	<path fill="#C59AC4" d="M725.273,552.81c0.547-0.093,1.261-0.169,2.176-0.169c1.118,0,1.938,0.261,2.46,0.729
		c0.481,0.417,0.767,1.054,0.767,1.836c0,0.794-0.235,1.42-0.677,1.875c-0.598,0.639-1.576,0.964-2.682,0.964
		c-0.338,0-0.651-0.015-0.909-0.079v3.516h-1.135V552.81L725.273,552.81z M726.404,557.042c0.248,0.065,0.56,0.091,0.938,0.091
		c1.367,0,2.2-0.664,2.2-1.874c0-1.159-0.817-1.719-2.069-1.719c-0.494,0-0.872,0.04-1.069,0.092V557.042z"/>
	<path fill="#C59AC4" d="M735.314,561.482l-0.093-0.794h-0.039c-0.352,0.495-1.03,0.937-1.929,0.937
		c-1.274,0-1.926-0.898-1.926-1.81c0-1.521,1.353-2.356,3.788-2.344v-0.13c0-0.521-0.145-1.458-1.433-1.458
		c-0.588,0-1.197,0.182-1.642,0.469l-0.26-0.755c0.521-0.339,1.276-0.56,2.07-0.56c1.926,0,2.396,1.314,2.396,2.577v2.357
		c0,0.546,0.027,1.081,0.104,1.51H735.314L735.314,561.482z M735.143,558.266c-1.249-0.027-2.668,0.195-2.668,1.419
		c0,0.742,0.495,1.095,1.08,1.095c0.82,0,1.342-0.521,1.523-1.056c0.038-0.115,0.064-0.246,0.064-0.364V558.266z"/>
	<path fill="#C59AC4" d="M738.1,557.238c0-0.809-0.026-1.459-0.051-2.059h1.028l0.051,1.08h0.026
		c0.468-0.768,1.211-1.223,2.239-1.223c1.523,0,2.669,1.289,2.669,3.201c0,2.267-1.381,3.387-2.864,3.387
		c-0.833,0-1.562-0.365-1.938-0.989h-0.027v3.425H738.1V557.238z M739.232,558.917c0,0.169,0.024,0.325,0.051,0.468
		c0.208,0.796,0.897,1.341,1.719,1.341c1.21,0,1.915-0.989,1.915-2.436c0-1.26-0.665-2.343-1.877-2.343
		c-0.781,0-1.511,0.561-1.732,1.42c-0.038,0.144-0.077,0.312-0.077,0.468L739.232,558.917L739.232,558.917z"/>
	<path fill="#C59AC4" d="M745.354,560.311c0.337,0.221,0.938,0.455,1.511,0.455c0.833,0,1.225-0.417,1.225-0.938
		c0-0.549-0.324-0.847-1.172-1.159c-1.133-0.403-1.666-1.028-1.666-1.784c0-1.016,0.819-1.848,2.173-1.848
		c0.64,0,1.199,0.182,1.55,0.389l-0.286,0.834c-0.247-0.156-0.704-0.364-1.29-0.364c-0.678,0-1.055,0.391-1.055,0.859
		c0,0.521,0.377,0.754,1.196,1.068c1.095,0.415,1.654,0.964,1.654,1.9c0,1.106-0.858,1.887-2.356,1.887
		c-0.689,0-1.327-0.169-1.771-0.427L745.354,560.311z"/>
	<path fill="#C59AC4" d="M751.942,553.409c0.013,0.391-0.272,0.703-0.729,0.703c-0.403,0-0.689-0.312-0.689-0.703
		c0-0.402,0.3-0.717,0.717-0.717C751.67,552.692,751.942,553.007,751.942,553.409z M750.666,561.482v-6.303h1.146v6.303H750.666z"/>
	<path fill="#C59AC4" d="M754.155,555.18l1.236,3.541c0.209,0.572,0.379,1.094,0.509,1.614h0.039
		c0.144-0.521,0.326-1.042,0.533-1.614l1.224-3.541h1.197l-2.474,6.303h-1.094l-2.395-6.303H754.155z"/>
	<path fill="#C59AC4" d="M761.25,553.409c0.016,0.391-0.271,0.703-0.728,0.703c-0.403,0-0.69-0.312-0.69-0.703
		c0-0.402,0.301-0.717,0.718-0.717C760.979,552.692,761.25,553.007,761.25,553.409z M759.976,561.482v-6.303h1.146v6.303H759.976z"
		/>
	<path fill="#C59AC4" d="M762.75,560.805c0-0.48,0.326-0.819,0.782-0.819c0.455,0,0.768,0.339,0.768,0.819
		c0,0.468-0.3,0.82-0.782,0.82C763.061,561.625,762.75,561.272,762.75,560.805z"/>
	<path fill="#C59AC4" d="M566.903,568.332h5.365v1.628h-3.372v2.006h3.15v1.614h-3.15v3.527h-1.993V568.332z"/>
	<path fill="#C59AC4" d="M579.338,575.064c0,0.833,0.025,1.511,0.051,2.044h-1.719l-0.091-0.897h-0.039
		c-0.248,0.39-0.846,1.041-1.993,1.041c-1.29,0-2.24-0.81-2.24-2.775v-3.737h1.993v3.426c0,0.926,0.299,1.485,0.99,1.485
		c0.547,0,0.86-0.377,0.99-0.688c0.051-0.119,0.065-0.275,0.065-0.431v-3.79h1.993V575.064L579.338,575.064z"/>
	<path fill="#C59AC4" d="M582.452,574.556c0.064,0.821,0.873,1.211,1.797,1.211c0.678,0,1.225-0.091,1.757-0.259l0.261,1.34
		c-0.651,0.261-1.446,0.391-2.305,0.391c-2.161,0-3.4-1.25-3.4-3.241c0-1.614,1.003-3.399,3.216-3.399
		c2.059,0,2.838,1.603,2.838,3.176c0,0.341-0.039,0.639-0.065,0.782H582.452L582.452,574.556z M584.782,573.204
		c0-0.483-0.208-1.29-1.121-1.29c-0.833,0-1.17,0.754-1.224,1.29H584.782z"/>
	<path fill="#C59AC4" d="M587.803,572.773c0-0.795-0.025-1.473-0.051-2.032h1.719l0.091,0.872h0.039
		c0.261-0.402,0.911-1.016,1.966-1.016c1.302,0,2.279,0.861,2.279,2.736v3.775h-1.979v-3.528c0-0.82-0.287-1.38-1.004-1.38
		c-0.547,0-0.873,0.377-1.002,0.741c-0.052,0.118-0.079,0.313-0.079,0.494v3.674h-1.979L587.803,572.773L587.803,572.773z"/>
	<path fill="#C59AC4" d="M597.57,568.918v1.823h1.419v1.459h-1.419v2.305c0,0.769,0.182,1.121,0.782,1.121
		c0.247,0,0.442-0.028,0.586-0.053l0.014,1.498c-0.261,0.103-0.729,0.168-1.29,0.168c-0.638,0-1.171-0.222-1.484-0.547
		c-0.365-0.378-0.546-0.989-0.546-1.888v-2.604h-0.846v-1.46h0.846v-1.379L597.57,568.918z"/>
	<path fill="#C59AC4" d="M601.593,574.556c0.066,0.821,0.874,1.211,1.798,1.211c0.677,0,1.226-0.091,1.757-0.259l0.26,1.34
		c-0.65,0.261-1.444,0.391-2.304,0.391c-2.161,0-3.399-1.25-3.399-3.241c0-1.614,1.004-3.399,3.217-3.399
		c2.058,0,2.838,1.603,2.838,3.176c0,0.341-0.04,0.639-0.066,0.782H601.593L601.593,574.556z M603.923,573.204
		c0-0.483-0.207-1.29-1.12-1.29c-0.833,0-1.17,0.754-1.224,1.29H603.923z"/>
	<path fill="#C59AC4" d="M606.803,571.86c0-0.703,0.48-1.195,1.171-1.195c0.689,0,1.146,0.48,1.16,1.195
		c0,0.679-0.469,1.187-1.172,1.187C607.283,573.047,606.803,572.537,606.803,571.86z M606.803,576.068
		c0-0.691,0.48-1.198,1.171-1.198c0.689,0,1.146,0.495,1.16,1.198c0,0.675-0.469,1.184-1.172,1.184
		C607.283,577.252,606.803,576.743,606.803,576.068z"/>
	<path fill="#C59AC4" d="M620.553,573.255c-0.065-1.226-0.145-2.696-0.131-3.788h-0.04c-0.3,1.028-0.664,2.121-1.106,3.332
		l-1.549,4.259h-0.859l-1.419-4.18c-0.417-1.236-0.769-2.37-1.015-3.41h-0.026c-0.025,1.093-0.09,2.564-0.169,3.88l-0.236,3.762
		h-1.08l0.612-8.775h1.445l1.497,4.244c0.366,1.08,0.665,2.044,0.885,2.955h0.04c0.222-0.885,0.533-1.849,0.925-2.955l1.563-4.244
		h1.445l0.547,8.775h-1.105L620.553,573.255z"/>
	<path fill="#C59AC4" d="M625.019,569.034c0.015,0.392-0.272,0.703-0.729,0.703c-0.402,0-0.689-0.312-0.689-0.703
		c0-0.401,0.301-0.715,0.72-0.715C624.744,568.319,625.019,568.633,625.019,569.034z M623.745,577.108v-6.303h1.144v6.303H623.745z"
		/>
	<path fill="#C59AC4" d="M626.79,572.513c0-0.652-0.013-1.187-0.05-1.707h1.014l0.066,1.042h0.025
		c0.312-0.599,1.042-1.186,2.084-1.186c0.872,0,2.225,0.521,2.225,2.684v3.762h-1.145v-3.633c0-1.016-0.375-1.862-1.457-1.862
		c-0.755,0-1.341,0.534-1.537,1.172c-0.051,0.145-0.079,0.338-0.079,0.534v3.789h-1.146V572.513L626.79,572.513z"/>
	<path fill="#C59AC4" d="M633.901,575.729c0.508,0.312,1.249,0.572,2.029,0.572c1.161,0,1.836-0.611,1.836-1.496
		c0-0.822-0.468-1.29-1.653-1.746c-1.432-0.507-2.317-1.249-2.317-2.487c0-1.366,1.133-2.381,2.839-2.381
		c0.898,0,1.548,0.206,1.94,0.431l-0.313,0.923c-0.286-0.155-0.872-0.417-1.666-0.417c-1.197,0-1.653,0.717-1.653,1.315
		c0,0.819,0.532,1.224,1.744,1.693c1.483,0.571,2.241,1.288,2.241,2.577c0,1.355-1.005,2.526-3.075,2.526
		c-0.847,0-1.771-0.247-2.24-0.56L633.901,575.729z"/>
	<path fill="#C59AC4" d="M643.965,577.108l-0.091-0.795h-0.039c-0.353,0.495-1.029,0.938-1.929,0.938
		c-1.275,0-1.927-0.899-1.927-1.81c0-1.523,1.354-2.356,3.787-2.344v-0.131c0-0.521-0.144-1.459-1.431-1.459
		c-0.587,0-1.197,0.184-1.642,0.47l-0.261-0.756c0.521-0.338,1.276-0.558,2.069-0.558c1.929,0,2.396,1.313,2.396,2.577v2.355
		c0,0.548,0.026,1.082,0.105,1.512L643.965,577.108L643.965,577.108z M643.798,573.893c-1.252-0.025-2.671,0.196-2.671,1.42
		c0,0.741,0.498,1.094,1.082,1.094c0.818,0,1.341-0.522,1.523-1.055c0.037-0.117,0.065-0.247,0.065-0.365V573.893z"/>
	<path fill="#C59AC4" d="M646.752,567.864h1.146v9.244h-1.146V567.864z"/>
	<path fill="#C59AC4" d="M655.098,575.389c0,0.651,0.015,1.226,0.053,1.72h-1.016l-0.065-1.028h-0.026
		c-0.301,0.507-0.965,1.172-2.082,1.172c-0.99,0-2.178-0.548-2.178-2.761v-3.687h1.146v3.49c0,1.199,0.367,2.004,1.406,2.004
		c0.769,0,1.304-0.532,1.512-1.04c0.065-0.168,0.104-0.377,0.104-0.587v-3.867h1.146V575.389L655.098,575.389z"/>
	<path fill="#C59AC4" d="M662.442,567.864v7.615c0,0.561,0.014,1.199,0.051,1.629h-1.028l-0.052-1.095h-0.026
		c-0.351,0.704-1.118,1.238-2.147,1.238c-1.523,0-2.696-1.29-2.696-3.204c-0.014-2.096,1.291-3.386,2.826-3.386
		c0.963,0,1.613,0.456,1.899,0.965h0.026v-3.764L662.442,567.864L662.442,567.864z M661.298,573.371
		c0-0.143-0.014-0.339-0.053-0.482c-0.169-0.729-0.793-1.327-1.653-1.327c-1.184,0-1.886,1.041-1.886,2.436
		c0,1.276,0.623,2.332,1.86,2.332c0.77,0,1.473-0.51,1.679-1.367c0.04-0.157,0.053-0.313,0.053-0.498V573.371L661.298,573.371z"/>
	<path fill="#C59AC4" d="M669.592,568.072c-0.949,1.275-1.642,2.97-1.642,5.326c0,2.316,0.717,3.983,1.642,5.285h-0.899
		c-0.818-1.081-1.706-2.747-1.706-5.285c0.013-2.567,0.886-4.232,1.706-5.326H669.592z"/>
	<path fill="#C59AC4" d="M670.439,577.108v-0.703l0.898-0.873c2.161-2.058,3.139-3.149,3.151-4.426c0-0.859-0.417-1.655-1.681-1.655
		c-0.767,0-1.407,0.392-1.796,0.717l-0.365-0.807c0.586-0.495,1.419-0.859,2.396-0.859c1.824,0,2.592,1.248,2.592,2.461
		c0,1.562-1.133,2.825-2.919,4.545l-0.677,0.624v0.024h3.802v0.952H670.439z"/>
	<path fill="#C59AC4" d="M682.743,572.785c0,2.88-1.068,4.467-2.943,4.467c-1.653,0-2.773-1.549-2.799-4.35
		c0-2.838,1.225-4.4,2.943-4.4C681.728,568.502,682.743,570.091,682.743,572.785z M678.147,572.915c0,2.201,0.677,3.45,1.719,3.45
		c1.172,0,1.73-1.367,1.73-3.527c0-2.084-0.532-3.451-1.719-3.451C678.876,569.387,678.147,570.61,678.147,572.915z"/>
	<path fill="#C59AC4" d="M686.285,569.712h-0.025l-1.471,0.795l-0.223-0.872l1.85-0.99h0.976v8.464h-1.106V569.712z"/>
	<path fill="#C59AC4" d="M690.376,574.959c0-1.068,0.637-1.822,1.678-2.264l-0.015-0.04c-0.937-0.443-1.341-1.173-1.341-1.901
		c0-1.341,1.134-2.252,2.617-2.252c1.642,0,2.462,1.029,2.462,2.082c0,0.717-0.352,1.486-1.393,1.979v0.039
		c1.054,0.417,1.706,1.161,1.706,2.189c0,1.471-1.262,2.46-2.877,2.46C691.442,577.252,690.376,576.198,690.376,574.959z
		 M694.931,574.907c0-1.028-0.717-1.522-1.863-1.849c-0.987,0.287-1.521,0.938-1.521,1.746c-0.039,0.857,0.611,1.613,1.692,1.613
		C694.268,576.418,694.931,575.781,694.931,574.907z M691.781,570.676c0,0.847,0.638,1.303,1.614,1.563
		c0.729-0.249,1.29-0.77,1.29-1.537c0-0.678-0.403-1.379-1.433-1.379C692.301,569.323,691.781,569.948,691.781,570.676z"/>
	<path fill="#C59AC4" d="M696.833,578.685c0.925-1.289,1.642-2.982,1.642-5.326c0-2.331-0.704-3.997-1.642-5.286h0.886
		c0.834,1.068,1.706,2.733,1.706,5.3c0,2.552-0.872,4.204-1.706,5.312H696.833L696.833,578.685z"/>
</g>
</svg>
