<?xml version="1.0" encoding="utf-8"?>
<!-- Generator: Adobe Illustrator 16.0.0, SVG Export Plug-In . SVG Version: 6.00 Build 0)  -->
<!DOCTYPE svg PUBLIC "-//W3C//DTD SVG 1.1//EN" "http://www.w3.org/Graphics/SVG/1.1/DTD/svg11.dtd">
<svg version="1.1" id="Capa_1" xmlns="http://www.w3.org/2000/svg" xmlns:xlink="http://www.w3.org/1999/xlink" x="0px" y="0px"
	 width="1032.732px" height="349.165px" viewBox="0 0 1032.732 349.165" enable-background="new 0 0 1032.732 349.165"
	 xml:space="preserve">
<g>
	<path fill-rule="evenodd" clip-rule="evenodd" fill="#F5E76A" d="M1023.441,337.165c0,6.627-5.372,12-12,12H12
		c-6.627,0-12-5.373-12-12V22.597c0-6.629,5.373-12,12-12h999.441c6.628,0,12,5.371,12,12V337.165z"/>
	<g>
		<path fill-rule="evenodd" clip-rule="evenodd" fill="#D3B620" d="M1032.732,25.731c0-0.057-0.002-0.111-0.004-0.166
			c-0.018-0.943-0.224-1.871-0.622-2.674c-0.153-0.324-0.332-0.633-0.538-0.92c-0.238-0.324-0.539-0.611-0.889-0.859
			c-1.524-1.258-3.591-1.582-5.711-0.836c-0.986,0.348-1.463,0.297-1.648-0.312c-0.039-0.207-0.057-0.463-0.057-0.775
			c-0.004-2.422,0.021-4.846,0.025-7.27c0.002-0.756-0.02-1.189-0.2-1.439c-0.19-0.42-0.599-0.586-1.278-0.574
			c-2.594,0.043-5.188,0.02-7.781,0.051c-0.139,0.002-0.261,0.008-0.377,0.016c-0.686-0.256-0.736-0.859-0.317-2.043
			c0.909-2.58,0.139-5.271-1.964-6.842c-1.887-1.412-4.769-1.453-6.698-0.094c-2.159,1.52-2.995,4.146-2.161,6.781
			c0.453,1.426,0.431,2.012-0.405,2.219c-2.368-0.016-4.735-0.025-7.103,0.012c-0.271-0.004-0.543-0.01-0.814-0.014
			c-0.215-0.004-0.408,0.008-0.582,0.039c0,0-0.016,0-0.025,0c-0.046,0-0.099,0.018-0.152,0.041
			c-0.509,0.152-0.768,0.545-0.734,1.395c0.005,0.121,0.008,0.244,0.012,0.367c-0.033,1.139,0,2.279,0.001,3.42
			c0,1.348-0.046,2.697,0.013,4.043c0,0.143,0,0.273-0.006,0.389c-0.047,0.561-0.301,0.82-0.73,0.895
			c-0.225-0.006-0.52-0.037-0.909-0.078c-0.327-0.035-0.658-0.045-0.987-0.051c-0.401-0.029-0.8-0.041-1.193-0.021h-0.016
			c-0.804,0.043-1.594,0.215-2.36,0.633c-1.554,0.844-2.491,2.68-2.464,4.615c0,0.02,0,0.037,0,0.055s0,0.035,0,0.055
			c-0.027,1.936,0.91,3.771,2.464,4.615c0.767,0.418,1.557,0.59,2.36,0.631c0.005,0.002,0.01,0.002,0.01,0.002
			c0.399,0.02,0.798,0.008,1.197-0.021c0.331-0.006,0.662-0.016,0.989-0.051c0.39-0.041,0.685-0.074,0.909-0.078
			c0.43,0.074,0.684,0.334,0.73,0.895c0.006,0.115,0.006,0.246,0.006,0.389c-0.059,1.346-0.013,2.695-0.013,4.043
			c-0.001,1.141-0.034,2.283-0.001,3.42c-0.004,0.123-0.007,0.244-0.012,0.367c-0.033,0.848,0.226,1.242,0.734,1.395
			c0.054,0.025,0.106,0.039,0.152,0.041c0.01,0,0.019,0,0.019,0c0.181,0.031,0.374,0.043,0.589,0.039
			c0.271-0.004,0.543-0.01,0.814-0.014c2.367,0.035,4.734,0.027,7.103,0.012c0.836,0.207,0.858,0.793,0.405,2.219
			c-0.834,2.635,0.002,5.262,2.161,6.781c1.93,1.359,4.812,1.318,6.698-0.094c2.103-1.57,2.873-4.262,1.964-6.842
			c-0.419-1.184-0.368-1.787,0.317-2.045c0.116,0.01,0.238,0.016,0.377,0.018c2.594,0.031,5.188,0.008,7.781,0.049
			c0.68,0.012,1.088-0.152,1.278-0.572c0.181-0.25,0.202-0.684,0.2-1.439c-0.004-2.424-0.029-4.848-0.025-7.271
			c0-0.311,0.018-0.566,0.057-0.775c0.186-0.607,0.662-0.658,1.648-0.311c2.12,0.746,4.187,0.422,5.711-0.836
			c0.35-0.248,0.65-0.535,0.889-0.859c0.206-0.287,0.385-0.596,0.538-0.92c0.398-0.803,0.604-1.73,0.622-2.674
			C1032.73,25.843,1032.732,25.786,1032.732,25.731z"/>
		<path fill="#3F2354" d="M998.559,26.245c0.307,5.348,4.891,9.436,10.238,9.131c5.352-0.307,9.441-4.891,9.135-10.24
			c-0.308-5.35-4.893-9.438-10.244-9.131C1002.338,16.31,998.254,20.896,998.559,26.245z M1008.172,25.751l-3.834-3.416
			c-0.312-0.283-0.34-0.76-0.061-1.074c0.281-0.305,0.76-0.334,1.07-0.061l3.834,3.414l3.419-3.83
			c0.278-0.312,0.758-0.332,1.063-0.062c0.316,0.283,0.35,0.76,0.07,1.074l-3.416,3.834l3.83,3.416
			c0.308,0.281,0.336,0.76,0.062,1.074c-0.281,0.312-0.76,0.34-1.074,0.061l-3.833-3.418l-3.417,3.832
			c-0.28,0.314-0.756,0.342-1.072,0.062c-0.312-0.281-0.34-0.76-0.061-1.074L1008.172,25.751z"/>
	</g>
</g>
</svg>
