<?xml version="1.0" encoding="utf-8"?>
<!-- Generator: Adobe Illustrator 16.0.0, SVG Export Plug-In . SVG Version: 6.00 Build 0)  -->
<!DOCTYPE svg PUBLIC "-//W3C//DTD SVG 1.1//EN" "http://www.w3.org/Graphics/SVG/1.1/DTD/svg11.dtd">
<svg version="1.1" id="Capa_1" xmlns="http://www.w3.org/2000/svg" xmlns:xlink="http://www.w3.org/1999/xlink" x="0px" y="0px"
	 width="522.297px" height="361.924px" viewBox="0 0 522.297 361.924" enable-background="new 0 0 522.297 361.924"
	 xml:space="preserve">
<g>
	<path fill-rule="evenodd" clip-rule="evenodd" fill="#8B8B8C" d="M522.297,349.924c0,6.628-5.372,12-12,12H39.656
		c-6.628,0-12-5.372-12-12V20.808c0-6.627,5.372-12,12-12h470.641c6.628,0,12,5.373,12,12V349.924z"/>
	<g>
		<path fill-rule="evenodd" clip-rule="evenodd" fill="#6B6B6B" d="M48.678,25.731c0-0.057-0.002-0.111-0.004-0.166
			c-0.018-0.943-0.224-1.871-0.622-2.674c-0.153-0.324-0.332-0.633-0.538-0.92c-0.238-0.324-0.539-0.611-0.889-0.859
			c-1.524-1.258-3.591-1.582-5.712-0.836c-0.985,0.348-1.461,0.297-1.647-0.312c-0.039-0.207-0.057-0.463-0.057-0.775
			c-0.005-2.422,0.022-4.846,0.026-7.27c0.001-0.756-0.021-1.189-0.201-1.439c-0.19-0.42-0.599-0.586-1.279-0.574
			c-2.593,0.043-5.187,0.02-7.78,0.051c-0.138,0.002-0.261,0.008-0.377,0.016c-0.686-0.256-0.736-0.859-0.317-2.043
			c0.91-2.58,0.139-5.271-1.964-6.842c-1.887-1.412-4.769-1.453-6.698-0.094c-2.159,1.52-2.996,4.146-2.161,6.781
			c0.453,1.426,0.431,2.012-0.405,2.219c-2.368-0.016-4.735-0.025-7.103,0.012c-0.271-0.004-0.543-0.01-0.814-0.014
			C9.921,9.987,9.727,9.999,9.554,10.03c-0.008,0-0.017,0-0.026,0c-0.046,0-0.099,0.018-0.152,0.041
			c-0.509,0.152-0.768,0.545-0.734,1.395c0.005,0.121,0.008,0.244,0.012,0.367c-0.032,1.139,0,2.279,0.001,3.42
			c0,1.348-0.046,2.697,0.013,4.043c0,0.143-0.001,0.273-0.006,0.389c-0.047,0.561-0.301,0.82-0.729,0.895
			c-0.227-0.006-0.521-0.037-0.91-0.078c-0.327-0.035-0.658-0.045-0.987-0.051c-0.401-0.029-0.8-0.041-1.193-0.021H4.824
			c-0.804,0.043-1.594,0.215-2.36,0.633C0.91,21.905-0.026,23.741,0,25.677c0,0.02,0,0.037,0,0.055s0,0.035,0,0.055
			c-0.026,1.936,0.91,3.771,2.464,4.615c0.767,0.418,1.557,0.59,2.36,0.631c0.005,0.002,0.01,0.002,0.01,0.002
			c0.399,0.02,0.798,0.008,1.197-0.021c0.331-0.006,0.662-0.016,0.989-0.051c0.39-0.041,0.684-0.074,0.91-0.078
			c0.429,0.074,0.683,0.334,0.729,0.895c0.005,0.115,0.006,0.246,0.006,0.389c-0.059,1.346-0.013,2.695-0.013,4.043
			c-0.001,1.141-0.033,2.283-0.001,3.42c-0.004,0.123-0.007,0.244-0.012,0.367c-0.033,0.848,0.226,1.242,0.734,1.395
			c0.054,0.025,0.106,0.039,0.152,0.041c0.01,0,0.019,0,0.026,0c0.173,0.031,0.367,0.043,0.581,0.039
			c0.271-0.004,0.543-0.01,0.814-0.014c2.367,0.035,4.734,0.027,7.103,0.012c0.836,0.207,0.858,0.793,0.405,2.219
			c-0.835,2.635,0.002,5.262,2.161,6.781c1.93,1.359,4.812,1.318,6.698-0.094c2.103-1.57,2.874-4.262,1.964-6.842
			c-0.419-1.184-0.368-1.787,0.317-2.045c0.116,0.01,0.239,0.016,0.377,0.018c2.594,0.031,5.188,0.008,7.78,0.049
			c0.681,0.012,1.089-0.152,1.279-0.572c0.181-0.25,0.202-0.684,0.201-1.439c-0.004-2.424-0.031-4.848-0.026-7.271
			c0-0.311,0.018-0.566,0.057-0.775c0.187-0.607,0.662-0.658,1.647-0.311c2.121,0.746,4.188,0.422,5.712-0.836
			c0.35-0.248,0.65-0.535,0.889-0.859c0.206-0.287,0.385-0.596,0.538-0.92c0.398-0.803,0.604-1.73,0.622-2.674
			C48.676,25.843,48.678,25.786,48.678,25.731z"/>
		<path fill="#FFFFFF" d="M15.505,26.245c0.306,5.348,4.89,9.436,10.237,9.131c5.352-0.307,9.44-4.891,9.135-10.24
			c-0.308-5.35-4.893-9.438-10.243-9.131C19.284,16.31,15.199,20.896,15.505,26.245z M24.117,25.751l-3.834-3.416
			c-0.312-0.283-0.34-0.76-0.061-1.074c0.282-0.305,0.76-0.334,1.07-0.061l3.834,3.414l3.419-3.83
			c0.278-0.312,0.758-0.332,1.063-0.062c0.316,0.283,0.35,0.76,0.07,1.074l-3.416,3.834l3.83,3.416
			c0.308,0.281,0.336,0.76,0.062,1.074c-0.28,0.312-0.76,0.34-1.074,0.061l-3.833-3.418l-3.418,3.832
			c-0.279,0.314-0.755,0.342-1.071,0.062c-0.312-0.281-0.339-0.76-0.061-1.074L24.117,25.751z"/>
	</g>
</g>
</svg>
