<?xml version="1.0" encoding="utf-8"?>
<!-- Generator: Adobe Illustrator 16.0.0, SVG Export Plug-In . SVG Version: 6.00 Build 0)  -->
<!DOCTYPE svg PUBLIC "-//W3C//DTD SVG 1.1//EN" "http://www.w3.org/Graphics/SVG/1.1/DTD/svg11.dtd">
<svg version="1.1" id="Capa_1" xmlns="http://www.w3.org/2000/svg" xmlns:xlink="http://www.w3.org/1999/xlink" x="0px" y="0px"
	 width="186.15px" height="197.989px" viewBox="0 0 186.15 197.989" enable-background="new 0 0 186.15 197.989"
	 xml:space="preserve">
<g id="pyeX5i.tif">
	<g>
		<path fill-rule="evenodd" clip-rule="evenodd" fill="#81AD38" d="M186.15,34.409c-1.709,2.77-3.076,5.836-5.189,8.251
			c-6.838,7.824-20.7,13.531-32.943,2.492c-1.004-0.904-2.088-1.736-3.01-2.719c-4.057-4.329-9.236-6.046-14.943-6.067
			c-23.191-0.082-46.384-0.061-69.575,0.004c-2.883,0.008-5.784,0.371-8.642,0.795c-3.781,0.561-7.025,2.342-9.941,4.807
			c-2.016,1.7-4.176,3.226-6.244,4.866c-10.365,8.223-22.104,3.924-28.715-2.062c-1.721-1.559-3.135-3.454-5.014-5.558
			c6.234-0.883,11.807-1.748,17.402-2.439c5.021-0.621,6.921-2.596,7.184-7.705c0.191-3.738-0.311-7.324-2.1-10.65
			c-1.857-3.453-3.594-4.193-7.418-3.59c-5.016,0.791-10.055,1.443-15.086,2.143C1.363,17.052,0.797,17.034,0,17.071
			c1.592-4.62,4.245-8.246,7.832-11.198c3.654-3.009,7.836-4.88,12.552-5.508c0.364-0.049,0.711-0.24,1.065-0.365
			c1.547,0,3.092,0,4.639,0c6.542,1.62,11.551,5.622,16.259,10.209c1.386,1.351,3.229,2.533,5.071,3.043
			c3.248,0.899,6.646,1.636,9.998,1.71c9.725,0.219,19.457,0.115,29.188,0.066c14.107-0.068,28.217-0.1,42.322-0.354
			c5.854-0.105,11.221-1.929,15.781-5.861c4.395-3.789,9.026-7.248,14.767-8.813c2.062,0,4.124,0,6.187,0
			c0.406,0.143,0.803,0.331,1.22,0.42c6.431,1.368,11.634,4.666,15.59,9.915c0.397,0.527,0.696,1.129,1.138,1.854
			c-6.548,0.927-12.767,1.863-19.004,2.66c-2.297,0.293-3.68,1.566-4.314,3.584c-1.808,5.732-1.104,11.178,2.339,16.158
			c1.183,1.713,2.88,2.455,5.032,2.131c6.159-0.928,12.326-1.803,18.49-2.699C186.15,34.151,186.15,34.28,186.15,34.409z"/>
		<path fill-rule="evenodd" clip-rule="evenodd" fill="#81AD38" d="M92.733,146.988c-1.591,5.869-3.192,11.734-4.769,17.607
			c-2.35,8.744-4.67,17.498-7.021,26.242c-1.403,5.219-6.309,8.184-11.228,6.82c-5.164-1.432-7.914-6.314-6.467-11.594
			c3.612-13.193,7.256-26.379,10.867-39.572c0.217-0.795,0.336-1.641,0.338-2.463c0.021-12.82,0.047-25.641-0.034-38.463
			c-0.009-1.322-0.421-2.809-1.107-3.941c-8.94-14.744-17.972-29.434-26.958-44.15c-3.016-4.938-0.842-10.445,4.547-11.645
			c2.969-0.662,6.004,0.736,7.832,3.709c5.02,8.166,10.006,16.354,15.01,24.531c2.25,3.678,4.461,7.381,6.805,10.998
			c0.39,0.602,1.369,1.152,2.083,1.16c6.764,0.09,13.529,0.018,20.294,0.088c1.32,0.014,2.066-0.402,2.75-1.529
			c7.111-11.715,14.264-23.406,21.434-35.088c1.937-3.154,4.896-4.553,7.928-3.879c5.15,1.146,7.531,6.539,4.842,11.141
			c-2.207,3.777-4.526,7.488-6.811,11.221c-6.822,11.139-13.678,22.258-20.434,33.436c-0.684,1.133-1.096,2.615-1.104,3.938
			c-0.081,12.949-0.21,25.902,0.062,38.848c0.069,3.312,1.437,6.617,2.332,9.893c2.896,10.592,5.86,21.166,8.779,31.754
			c1.447,5.248-1.316,10.176-6.469,11.607c-4.926,1.369-9.84-1.602-11.234-6.805c-3.758-14.02-7.507-28.043-11.265-42.062
			c-0.161-0.604-0.381-1.195-0.573-1.791C93.02,146.994,92.877,146.992,92.733,146.988z"/>
		<path fill-rule="evenodd" clip-rule="evenodd" fill="#81AD38" d="M93.085,49.91c8.561,0.01,15.675,7.188,15.665,15.805
			c-0.011,8.607-7.158,15.803-15.695,15.801c-8.715-0.002-15.863-7.137-15.855-15.828C77.205,56.99,84.345,49.9,93.085,49.91z"/>
	</g>
</g>
</svg>
