<?xml version="1.0" encoding="utf-8"?>
<!-- Generator: Adobe Illustrator 16.0.0, SVG Export Plug-In . SVG Version: 6.00 Build 0)  -->
<!DOCTYPE svg PUBLIC "-//W3C//DTD SVG 1.1//EN" "http://www.w3.org/Graphics/SVG/1.1/DTD/svg11.dtd">
<svg version="1.1" id="Capa_1" xmlns="http://www.w3.org/2000/svg" xmlns:xlink="http://www.w3.org/1999/xlink" x="0px" y="0px"
	 width="45.788px" height="43.691px" viewBox="0 0 45.788 43.691" enable-background="new 0 0 45.788 43.691" xml:space="preserve">
<g>
	<path fill-rule="evenodd" clip-rule="evenodd" fill="#951B81" d="M8.795,10.161c0.109,0.459,0.266,0.919,0.484,1.33
		c0.399,0.738,0.858,1.428,1.294,2.142c3.314,5.396,6.617,10.791,9.932,16.186c0.521,0.848,1.064,1.682,1.609,2.54
		c-0.387,0.254-0.762,0.484-1.161,0.738c-1.5-2.371-2.988-4.718-4.488-7.089c-0.75,0.738-1.392,1.488-1.912,2.347
		c-0.497,0.811-0.823,1.693-0.847,2.638c-0.024,1.608,0.69,2.927,1.766,4.053c1.029,1.088,2.287,1.863,3.653,2.443
		c1.767,0.726,3.569,1.392,5.359,2.045c1.416,0.508,2.782,1.076,4.004,1.983c0.907,0.689,1.839,1.354,2.746,2.045
		c0.229,0.169,0.362,0.169,0.592,0.023c3.557-2.165,7.125-4.319,10.694-6.484c1.076-0.653,2.153-1.307,3.266-1.972
		c-0.036-0.108-0.06-0.181-0.084-0.254c-0.762-1.887-1.5-3.786-2.262-5.661c-1.101-2.686-2.214-5.347-3.338-8.021
		c-0.545-1.295-1.125-2.589-1.912-3.763c-1.258-1.935-2.565-3.846-3.847-5.77c-0.483-0.738-1.101-0.907-1.887-0.484
		c-0.484,0.266-0.943,0.593-1.416,0.896c-0.133,0.097-0.266,0.206-0.411,0.314c1.367,2.25,2.722,4.476,4.077,6.727
		c-0.412,0.241-0.787,0.472-1.174,0.7c-0.036-0.072-0.06-0.108-0.084-0.144c-1.355-2.239-2.71-4.465-4.065-6.69
		c-0.459-0.738-1.148-1.149-1.996-1.101c-1.088,0.048-1.863,0.689-2.492,1.523c-0.036,0.061-0.024,0.194,0.012,0.268
		c0.097,0.217,0.242,0.411,0.363,0.616c0.944,1.572,1.9,3.133,2.843,4.693c0.314,0.508,0.617,1.017,0.931,1.536
		c-0.411,0.242-0.786,0.473-1.173,0.715c-0.447-0.727-0.871-1.429-1.294-2.117c-1.101-1.827-2.214-3.654-3.314-5.48
		c-0.387-0.63-1.198-1.041-1.887-0.87c-1.174,0.289-2.093,1.016-2.927,1.861v0.037c1.802,2.987,3.617,5.977,5.431,8.976
		c-0.399,0.254-0.786,0.484-1.173,0.714c-0.061-0.096-0.109-0.169-0.158-0.241c-2.625-4.344-5.25-8.674-7.875-13.005
		c-0.472-0.774-0.932-1.561-1.439-2.299c-0.339-0.508-0.811-0.896-1.404-1.053c-1.004-0.266-1.826,0.134-2.54,0.787
		C8.807,8.963,8.638,9.544,8.795,10.161z"/>
	<path fill-rule="evenodd" clip-rule="evenodd" fill="#951B81" d="M22.037,8.459c0.006,0.722-0.094,1.461-0.466,2.139
		c-0.194,0.356-0.486,0.467-0.964,0.38c-0.352-0.065-0.54-0.264-0.564-0.673c-0.016-0.243,0.021-0.493,0.066-0.734
		c0.604-3.311-1.088-6.303-4.38-7.466c-0.232-0.082-0.472-0.146-0.701-0.239c-0.43-0.171-0.711-0.622-0.662-1.033
		c0.05-0.406,0.414-0.775,0.84-0.826c0.132-0.017,0.278,0.003,0.405,0.042c2.821,0.87,4.791,2.673,5.888,5.417
		C21.841,6.314,21.997,7.224,22.037,8.459z"/>
	<path fill-rule="evenodd" clip-rule="evenodd" fill="#951B81" d="M0,11.734c0.006-0.933,0.108-1.661,0.484-2.327
		c0.195-0.348,0.479-0.451,0.97-0.351C1.8,9.126,1.987,9.312,1.984,9.714c-0.001,0.419-0.083,0.836-0.121,1.253
		c-0.236,2.568,0.644,4.63,2.783,6.119c0.661,0.46,1.386,0.778,2.158,0.995c0.337,0.094,0.628,0.252,0.771,0.601
		c0.142,0.348,0.143,0.676-0.11,0.981c-0.267,0.322-0.612,0.44-1.008,0.324c-3.705-1.081-5.908-4.084-6.353-7.177
		C0.045,12.395,0.022,11.974,0,11.734z"/>
	<path fill-rule="evenodd" clip-rule="evenodd" fill="#951B81" d="M3.743,10.846c0.074-0.302,0.118-0.72,0.278-1.089
		C4.271,9.175,4.874,9.08,5.354,9.492c0.221,0.19,0.237,0.446,0.239,0.703c0.002,0.191-0.025,0.384-0.054,0.574
		C5.269,12.572,6.35,14.23,8.1,14.729c0.271,0.076,0.564,0.202,0.753,0.396c0.232,0.238,0.248,0.584,0.07,0.896
		c-0.189,0.329-0.49,0.466-0.854,0.439c-0.198-0.014-0.401-0.058-0.587-0.13c-1.934-0.752-3.194-2.09-3.567-4.176
		C3.844,11.759,3.809,11.358,3.743,10.846z"/>
	<path fill-rule="evenodd" clip-rule="evenodd" fill="#951B81" d="M18.322,9.068c-0.088,0.389-0.131,0.797-0.278,1.162
		c-0.245,0.609-0.874,0.744-1.334,0.302c-0.141-0.137-0.223-0.377-0.246-0.579c-0.028-0.26,0.015-0.53,0.053-0.792
		c0.237-1.626-0.844-3.438-2.533-3.844c-0.133-0.033-0.266-0.074-0.393-0.122c-0.429-0.161-0.629-0.502-0.56-0.948
		c0.055-0.366,0.411-0.705,0.819-0.674c0.365,0.029,0.743,0.123,1.078,0.273C17.173,4.85,18.175,6.662,18.322,9.068z"/>
</g>
</svg>
