<?xml version="1.0" encoding="utf-8"?>
<!-- Generator: Adobe Illustrator 16.0.0, SVG Export Plug-In . SVG Version: 6.00 Build 0)  -->
<!DOCTYPE svg PUBLIC "-//W3C//DTD SVG 1.1//EN" "http://www.w3.org/Graphics/SVG/1.1/DTD/svg11.dtd">
<svg version="1.1" id="Capa_1" xmlns="http://www.w3.org/2000/svg" xmlns:xlink="http://www.w3.org/1999/xlink" x="0px" y="0px"
	 width="1218.579px" height="414.391px" viewBox="0 0 1218.579 414.391" enable-background="new 0 0 1218.579 414.391"
	 xml:space="preserve">
<g>
	<path fill="#BEDBDD" d="M1218.581,401.998c0,6.844-5.373,12.393-12,12.393H11.999c-6.627,0-12-5.549-12-12.393V14.177
		c0-6.845,5.373-12.394,12-12.394h1194.582c6.627,0,12,5.549,12,12.394V401.998z"/>
	<g>
		<path d="M26.792,48.041c1.314-0.211,3.027-0.352,4.811-0.352c3.028,0,4.999,0.563,6.501,1.689
			c1.643,1.221,2.676,3.168,2.676,5.961c0,3.027-1.104,5.116-2.605,6.407c-1.666,1.384-4.224,2.041-7.322,2.041
			c-1.854,0-3.191-0.117-4.06-0.234V48.041z M30.359,60.925c0.305,0.07,0.821,0.07,1.243,0.07c3.263,0.024,5.398-1.76,5.398-5.538
			c0-3.285-1.925-5.022-5.022-5.022c-0.774,0-1.314,0.071-1.619,0.142V60.925z"/>
		<path d="M45.758,59.024c0.094,1.479,1.572,2.183,3.238,2.183c1.221,0,2.206-0.164,3.168-0.493l0.47,2.417
			c-1.174,0.493-2.605,0.728-4.154,0.728c-3.896,0-6.125-2.253-6.125-5.843c0-2.91,1.807-6.126,5.797-6.126
			c3.708,0,5.116,2.887,5.116,5.727c0,0.61-0.071,1.15-0.118,1.408H45.758z M49.958,56.584c0-0.869-0.375-2.323-2.019-2.323
			c-1.502,0-2.111,1.384-2.205,2.323H49.958z"/>
		<path d="M55.382,60.526c0.657,0.398,2.019,0.845,3.074,0.845c1.079,0,1.525-0.352,1.525-0.938c0-0.61-0.352-0.892-1.666-1.338
			c-2.394-0.798-3.31-2.089-3.286-3.45c0-2.159,1.831-3.778,4.671-3.778c1.337,0,2.511,0.329,3.215,0.681l-0.61,2.465
			c-0.517-0.282-1.525-0.657-2.487-0.657c-0.868,0-1.361,0.352-1.361,0.915s0.446,0.845,1.854,1.338
			c2.183,0.751,3.075,1.877,3.099,3.543c0,2.159-1.667,3.731-4.952,3.731c-1.502,0-2.84-0.352-3.708-0.821L55.382,60.526z"/>
		<path d="M74.204,63.319c-0.633,0.305-1.83,0.539-3.191,0.539c-3.708,0-6.078-2.276-6.078-5.867c0-3.355,2.3-6.102,6.571-6.102
			c0.938,0,1.971,0.165,2.722,0.446l-0.562,2.651c-0.423-0.188-1.057-0.352-1.995-0.352c-1.877,0-3.098,1.338-3.074,3.215
			c0,2.089,1.408,3.216,3.145,3.216c0.845,0,1.502-0.142,2.042-0.376L74.204,63.319z"/>
		<path d="M76.178,55.927c0-1.689-0.023-2.793-0.094-3.778h3.051l0.141,2.112h0.094c0.587-1.69,1.972-2.395,3.098-2.395
			c0.329,0,0.493,0.023,0.751,0.07v3.356c-0.281-0.047-0.562-0.094-0.962-0.094c-1.314,0-2.206,0.704-2.44,1.807
			c-0.047,0.235-0.07,0.517-0.07,0.798v5.82h-3.567V55.927z"/>
		<path d="M88.781,48.956c0,0.986-0.728,1.784-1.925,1.784c-1.126,0-1.854-0.798-1.854-1.784c0-1.009,0.751-1.783,1.9-1.783
			C88.054,47.173,88.758,47.947,88.781,48.956z M85.097,63.624V52.148h3.567v11.476H85.097z"/>
		<path d="M91.528,55.997c0-1.502-0.047-2.77-0.094-3.849h3.098l0.164,1.596h0.047c0.845-1.197,2.159-1.854,3.825-1.854
			c2.512,0,4.765,2.183,4.765,5.844c0,4.178-2.652,6.148-5.21,6.148c-1.385,0-2.465-0.562-2.98-1.313h-0.047v5.702h-3.567V55.997z
			 M95.096,58.695c0,0.282,0.023,0.517,0.07,0.751c0.234,0.963,1.056,1.69,2.089,1.69c1.549,0,2.464-1.291,2.464-3.239
			c0-1.83-0.821-3.215-2.417-3.215c-1.01,0-1.901,0.751-2.136,1.807c-0.047,0.188-0.07,0.423-0.07,0.634V58.695z"/>
		<path d="M114.247,63.319c-0.633,0.305-1.83,0.539-3.191,0.539c-3.708,0-6.078-2.276-6.078-5.867c0-3.355,2.3-6.102,6.571-6.102
			c0.938,0,1.971,0.165,2.722,0.446l-0.562,2.651c-0.423-0.188-1.057-0.352-1.995-0.352c-1.877,0-3.098,1.338-3.074,3.215
			c0,2.089,1.408,3.216,3.145,3.216c0.845,0,1.502-0.142,2.042-0.376L114.247,63.319z"/>
		<path d="M119.905,48.956c0,0.986-0.728,1.784-1.925,1.784c-1.126,0-1.854-0.798-1.854-1.784c0-1.009,0.751-1.783,1.9-1.783
			C119.178,47.173,119.882,47.947,119.905,48.956z M116.221,63.624V52.148h3.567v11.476H116.221z"/>
		<path d="M133.986,57.757c0,4.201-2.98,6.125-6.055,6.125c-3.356,0-5.938-2.206-5.938-5.914c0-3.73,2.44-6.102,6.148-6.102
			C131.64,51.866,133.986,54.284,133.986,57.757z M125.679,57.874c0,1.972,0.821,3.45,2.347,3.45c1.408,0,2.276-1.385,2.276-3.474
			c0-1.689-0.657-3.426-2.276-3.426C126.336,54.425,125.679,56.185,125.679,57.874z M131.71,47.149l-2.863,3.567h-2.44l2.019-3.567
			H131.71z"/>
		<path d="M136.195,55.81c0-1.432-0.047-2.629-0.094-3.661h3.098l0.164,1.596h0.07c0.47-0.751,1.619-1.854,3.544-1.854
			c2.347,0,4.106,1.572,4.106,4.952v6.782h-3.566v-6.359c0-1.479-0.517-2.488-1.808-2.488c-0.985,0-1.572,0.681-1.83,1.338
			c-0.094,0.234-0.117,0.563-0.117,0.892v6.618h-3.567V55.81z"/>
	</g>
	<g>
		<path d="M57.151,336.98c-0.07-1.901-0.141-4.201-0.141-6.501h-0.047c-0.517,2.019-1.174,4.271-1.784,6.125l-1.924,6.173h-2.793
			l-1.689-6.102c-0.517-1.878-1.033-4.131-1.432-6.196h-0.047c-0.07,2.136-0.164,4.576-0.259,6.548l-0.305,6.008h-3.309
			l1.009-15.817h4.764l1.549,5.28c0.517,1.83,0.986,3.802,1.338,5.656h0.094c0.423-1.831,0.963-3.92,1.502-5.68l1.666-5.257h4.694
			l0.845,15.817h-3.474L57.151,336.98z"/>
		<path d="M66.331,338.436c0.094,1.479,1.572,2.183,3.238,2.183c1.22,0,2.206-0.164,3.168-0.493l0.47,2.417
			c-1.174,0.493-2.605,0.728-4.154,0.728c-3.896,0-6.125-2.253-6.125-5.843c0-2.91,1.807-6.126,5.797-6.126
			c3.708,0,5.116,2.887,5.116,5.727c0,0.61-0.071,1.15-0.118,1.408H66.331z M70.531,335.995c0-0.869-0.375-2.323-2.019-2.323
			c-1.502,0-2.111,1.384-2.205,2.323H70.531z"/>
		<path d="M87.103,326.373v13.235c0,1.291,0.047,2.652,0.094,3.427h-3.168l-0.142-1.666h-0.07c-0.704,1.267-2.111,1.924-3.59,1.924
			c-2.723,0-4.905-2.323-4.905-5.891c-0.023-3.872,2.394-6.125,5.14-6.125c1.432,0,2.511,0.517,3.027,1.291h0.047v-6.195H87.103z
			 M83.535,336.417c0-0.188,0-0.445-0.047-0.657c-0.211-0.938-0.985-1.736-2.089-1.736c-1.643,0-2.464,1.455-2.464,3.262
			c0,1.948,0.962,3.169,2.44,3.169c1.032,0,1.878-0.704,2.089-1.714c0.047-0.258,0.07-0.539,0.07-0.821V336.417z"/>
		<path d="M93.652,328.367c0,0.986-0.728,1.784-1.925,1.784c-1.126,0-1.854-0.798-1.854-1.784c0-1.009,0.751-1.783,1.9-1.783
			C92.925,326.584,93.629,327.358,93.652,328.367z M89.968,343.035V331.56h3.567v11.476H89.968z"/>
		<path d="M107.523,326.373v13.235c0,1.291,0.047,2.652,0.094,3.427h-3.168l-0.142-1.666h-0.07c-0.704,1.267-2.111,1.924-3.59,1.924
			c-2.723,0-4.905-2.323-4.905-5.891c-0.023-3.872,2.394-6.125,5.14-6.125c1.432,0,2.511,0.517,3.027,1.291h0.047v-6.195H107.523z
			 M103.956,336.417c0-0.188,0-0.445-0.047-0.657c-0.211-0.938-0.985-1.736-2.089-1.736c-1.643,0-2.464,1.455-2.464,3.262
			c0,1.948,0.962,3.169,2.44,3.169c1.032,0,1.878-0.704,2.089-1.714c0.047-0.258,0.07-0.539,0.07-0.821V336.417z"/>
		<path d="M119.94,340.266c0,1.08,0.047,2.136,0.188,2.77h-3.215l-0.212-1.15h-0.07c-0.751,0.916-1.924,1.408-3.285,1.408
			c-2.323,0-3.708-1.689-3.708-3.52c0-2.98,2.675-4.389,6.735-4.389v-0.141c0-0.634-0.329-1.502-2.089-1.502
			c-1.173,0-2.417,0.398-3.168,0.868l-0.657-2.3c0.798-0.446,2.37-1.033,4.459-1.033c3.825,0,5.022,2.253,5.022,4.976V340.266z
			 M116.49,337.614c-1.877,0-3.332,0.445-3.332,1.807c0,0.915,0.609,1.361,1.407,1.361c0.869,0,1.62-0.587,1.854-1.314
			c0.047-0.188,0.07-0.398,0.07-0.61V337.614z"/>
		<path d="M122.759,339.938c0.657,0.398,2.019,0.845,3.074,0.845c1.079,0,1.525-0.352,1.525-0.938c0-0.61-0.352-0.892-1.666-1.338
			c-2.394-0.798-3.31-2.089-3.286-3.45c0-2.159,1.831-3.778,4.671-3.778c1.337,0,2.511,0.329,3.215,0.681l-0.61,2.465
			c-0.517-0.282-1.525-0.657-2.487-0.657c-0.868,0-1.361,0.352-1.361,0.915s0.446,0.845,1.854,1.338
			c2.183,0.751,3.075,1.877,3.099,3.543c0,2.159-1.667,3.731-4.952,3.731c-1.502,0-2.84-0.352-3.708-0.821L122.759,339.938z"/>
	</g>
	<g>
		<g>
			<path d="M37.627,141.717h3.567v12.813h6.289v3.004h-9.856V141.717z"/>
			<path d="M49.48,157.534v-11.476h3.567v11.476H49.48z M55.065,141.06l-2.862,3.567h-2.441l2.019-3.567H55.065z"/>
			<path d="M55.911,149.72c0-1.432-0.047-2.629-0.094-3.661h3.098l0.164,1.596h0.07c0.47-0.751,1.619-1.854,3.544-1.854
				c2.347,0,4.106,1.572,4.106,4.952v6.782h-3.566v-6.359c0-1.479-0.517-2.488-1.808-2.488c-0.985,0-1.572,0.681-1.83,1.338
				c-0.094,0.234-0.117,0.563-0.117,0.892v6.618h-3.567V149.72z"/>
			<path d="M72.412,152.935c0.094,1.479,1.572,2.183,3.238,2.183c1.22,0,2.206-0.164,3.168-0.493l0.47,2.417
				c-1.174,0.493-2.605,0.728-4.154,0.728c-3.896,0-6.125-2.253-6.125-5.843c0-2.91,1.807-6.126,5.797-6.126
				c3.708,0,5.116,2.887,5.116,5.727c0,0.61-0.071,1.15-0.118,1.408H72.412z M76.612,150.494c0-0.869-0.375-2.323-2.019-2.323
				c-1.502,0-2.111,1.384-2.205,2.323H76.612z"/>
			<path d="M91.611,154.765c0,1.08,0.047,2.136,0.188,2.77h-3.215l-0.212-1.15h-0.07c-0.751,0.916-1.924,1.408-3.285,1.408
				c-2.323,0-3.708-1.689-3.708-3.52c0-2.98,2.675-4.389,6.735-4.389v-0.141c0-0.634-0.329-1.502-2.089-1.502
				c-1.173,0-2.417,0.398-3.168,0.868l-0.657-2.3c0.798-0.446,2.37-1.033,4.459-1.033c3.825,0,5.022,2.253,5.022,4.976V154.765z
				 M88.161,152.113c-1.877,0-3.332,0.445-3.332,1.807c0,0.915,0.609,1.361,1.407,1.361c0.869,0,1.62-0.587,1.854-1.314
				c0.047-0.188,0.07-0.398,0.07-0.61V152.113z"/>
			<path d="M94.43,154.437c0.657,0.398,2.019,0.845,3.074,0.845c1.079,0,1.525-0.352,1.525-0.938c0-0.61-0.352-0.892-1.666-1.338
				c-2.394-0.798-3.31-2.089-3.286-3.45c0-2.158,1.831-3.778,4.671-3.778c1.337,0,2.511,0.329,3.215,0.681l-0.61,2.465
				c-0.517-0.282-1.525-0.657-2.487-0.657c-0.868,0-1.361,0.352-1.361,0.915s0.446,0.845,1.854,1.338
				c2.183,0.751,3.075,1.877,3.099,3.543c0,2.159-1.667,3.731-4.952,3.731c-1.502,0-2.84-0.352-3.708-0.821L94.43,154.437z"/>
			<path d="M120.506,140.872v13.235c0,1.291,0.047,2.652,0.094,3.427h-3.168l-0.142-1.666h-0.07
				c-0.704,1.267-2.111,1.924-3.59,1.924c-2.723,0-4.905-2.323-4.905-5.89c-0.023-3.873,2.394-6.126,5.14-6.126
				c1.432,0,2.511,0.517,3.027,1.291h0.047v-6.195H120.506z M116.938,150.916c0-0.188,0-0.445-0.047-0.657
				c-0.211-0.938-0.985-1.736-2.089-1.736c-1.643,0-2.464,1.455-2.464,3.262c0,1.948,0.962,3.169,2.44,3.169
				c1.032,0,1.878-0.704,2.089-1.714c0.047-0.258,0.07-0.539,0.07-0.821V150.916z"/>
			<path d="M126.117,152.935c0.094,1.479,1.572,2.183,3.238,2.183c1.22,0,2.206-0.164,3.168-0.493l0.47,2.417
				c-1.174,0.493-2.605,0.728-4.154,0.728c-3.896,0-6.125-2.253-6.125-5.843c0-2.91,1.807-6.126,5.797-6.126
				c3.708,0,5.116,2.887,5.116,5.727c0,0.61-0.071,1.15-0.118,1.408H126.117z M130.317,150.494c0-0.869-0.375-2.323-2.019-2.323
				c-1.502,0-2.111,1.384-2.205,2.323H130.317z"/>
			<path d="M36.781,178.475l-1.127,4.06h-3.684l4.811-15.817h4.693l4.929,15.817h-3.872l-1.221-4.06H36.781z M40.794,175.799
				l-0.985-3.355c-0.281-0.939-0.563-2.112-0.798-3.051h-0.047c-0.234,0.938-0.47,2.135-0.728,3.051l-0.938,3.355H40.794z"/>
			<path d="M56.661,182.229c-0.633,0.305-1.83,0.539-3.191,0.539c-3.708,0-6.078-2.276-6.078-5.866c0-3.356,2.3-6.103,6.571-6.103
				c0.938,0,1.971,0.165,2.722,0.446l-0.562,2.652c-0.423-0.188-1.057-0.353-1.995-0.353c-1.878,0-3.098,1.338-3.074,3.215
				c0,2.089,1.408,3.216,3.145,3.216c0.845,0,1.502-0.142,2.042-0.376L56.661,182.229z"/>
			<path d="M66.989,182.229c-0.633,0.305-1.83,0.539-3.191,0.539c-3.708,0-6.078-2.276-6.078-5.866c0-3.356,2.3-6.103,6.571-6.103
				c0.938,0,1.971,0.165,2.722,0.446l-0.562,2.652c-0.423-0.188-1.057-0.353-1.995-0.353c-1.878,0-3.098,1.338-3.074,3.215
				c0,2.089,1.408,3.216,3.145,3.216c0.845,0,1.502-0.142,2.042-0.376L66.989,182.229z"/>
			<path d="M72.647,167.866c0,0.986-0.728,1.784-1.925,1.784c-1.126,0-1.854-0.798-1.854-1.784c0-1.009,0.751-1.783,1.9-1.783
				C71.92,166.083,72.624,166.857,72.647,167.866z M68.963,182.534v-11.476h3.567v11.476H68.963z"/>
			<path d="M86.729,176.667c0,4.201-2.98,6.125-6.055,6.125c-3.356,0-5.938-2.206-5.938-5.914c0-3.731,2.44-6.102,6.148-6.102
				C84.382,170.776,86.729,173.194,86.729,176.667z M78.421,176.784c0,1.972,0.821,3.45,2.347,3.45c1.408,0,2.276-1.385,2.276-3.474
				c0-1.689-0.657-3.426-2.276-3.426C79.078,173.335,78.421,175.095,78.421,176.784z M84.452,166.06l-2.863,3.567h-2.44l2.019-3.567
				H84.452z"/>
			<path d="M88.938,174.72c0-1.432-0.047-2.629-0.094-3.661h3.098l0.164,1.596h0.07c0.47-0.751,1.619-1.854,3.544-1.854
				c2.347,0,4.106,1.572,4.106,4.952v6.782H96.26v-6.359c0-1.479-0.517-2.488-1.808-2.488c-0.985,0-1.572,0.681-1.83,1.338
				c-0.094,0.234-0.117,0.563-0.117,0.892v6.618h-3.567V174.72z"/>
			<path d="M118.558,165.872v13.235c0,1.291,0.047,2.652,0.094,3.427h-3.168l-0.142-1.666h-0.07
				c-0.704,1.267-2.111,1.924-3.59,1.924c-2.723,0-4.905-2.323-4.905-5.89c-0.023-3.873,2.394-6.126,5.14-6.126
				c1.432,0,2.511,0.517,3.027,1.291h0.047v-6.195H118.558z M114.99,175.916c0-0.188,0-0.445-0.047-0.657
				c-0.211-0.938-0.985-1.736-2.089-1.736c-1.643,0-2.464,1.455-2.464,3.262c0,1.948,0.962,3.169,2.44,3.169
				c1.032,0,1.878-0.704,2.089-1.714c0.047-0.258,0.07-0.539,0.07-0.821V175.916z"/>
			<path d="M124.169,177.935c0.094,1.479,1.572,2.183,3.238,2.183c1.221,0,2.206-0.164,3.168-0.493l0.47,2.417
				c-1.174,0.493-2.605,0.728-4.154,0.728c-3.896,0-6.125-2.253-6.125-5.843c0-2.91,1.807-6.126,5.797-6.126
				c3.708,0,5.116,2.887,5.116,5.727c0,0.61-0.071,1.15-0.118,1.408H124.169z M128.369,175.494c0-0.869-0.375-2.323-2.019-2.323
				c-1.502,0-2.111,1.384-2.205,2.323H128.369z"/>
			<path d="M133.816,165.872h3.567v16.662h-3.567V165.872z"/>
			<path d="M32.931,207.111c-0.634,0.306-2.136,0.681-4.037,0.681c-5.468,0-8.284-3.426-8.284-7.932
				c0-5.397,3.849-8.378,8.637-8.378c1.854,0,3.262,0.352,3.896,0.704l-0.751,2.815c-0.704-0.305-1.714-0.586-3.004-0.586
				c-2.816,0-5.022,1.713-5.022,5.232c0,3.169,1.878,5.163,5.046,5.163c1.103,0,2.276-0.211,3.004-0.516L32.931,207.111z"/>
			<path d="M46.074,201.667c0,4.201-2.98,6.125-6.055,6.125c-3.356,0-5.938-2.206-5.938-5.914c0-3.731,2.44-6.102,6.148-6.102
				C43.728,195.776,46.074,198.194,46.074,201.667z M37.767,201.784c0,1.972,0.821,3.45,2.347,3.45c1.408,0,2.276-1.385,2.276-3.474
				c0-1.689-0.657-3.426-2.276-3.426C38.424,198.335,37.767,200.095,37.767,201.784z"/>
			<path d="M48.283,199.72c0-1.432-0.047-2.629-0.094-3.661h3.027l0.141,1.549h0.07c0.493-0.751,1.525-1.831,3.474-1.831
				c1.502,0,2.651,0.774,3.145,1.972h0.047c0.446-0.61,0.938-1.079,1.502-1.408c0.634-0.352,1.338-0.563,2.183-0.563
				c2.206,0,3.872,1.549,3.872,4.999v6.759h-3.474v-6.242c0-1.667-0.539-2.629-1.689-2.629c-0.845,0-1.408,0.563-1.666,1.244
				c-0.07,0.258-0.117,0.61-0.117,0.915v6.712h-3.474v-6.454c0-1.432-0.517-2.417-1.666-2.417c-0.915,0-1.455,0.704-1.666,1.268
				c-0.117,0.281-0.141,0.61-0.141,0.915v6.688h-3.474V199.72z"/>
			<path d="M68.469,199.907c0-1.502-0.047-2.77-0.094-3.849h3.098l0.164,1.596h0.047c0.845-1.197,2.159-1.854,3.825-1.854
				c2.512,0,4.765,2.183,4.765,5.844c0,4.178-2.652,6.148-5.21,6.148c-1.385,0-2.465-0.562-2.98-1.313h-0.047v5.702h-3.567V199.907z
				 M72.036,202.605c0,0.282,0.023,0.517,0.07,0.751c0.234,0.963,1.056,1.69,2.089,1.69c1.549,0,2.464-1.291,2.464-3.239
				c0-1.83-0.821-3.215-2.417-3.215c-1.01,0-1.901,0.751-2.136,1.808c-0.047,0.188-0.07,0.422-0.07,0.633V202.605z"/>
			<path d="M93.91,201.667c0,4.201-2.98,6.125-6.055,6.125c-3.356,0-5.938-2.206-5.938-5.914c0-3.731,2.44-6.102,6.148-6.102
				C91.563,195.776,93.91,198.194,93.91,201.667z M85.603,201.784c0,1.972,0.821,3.45,2.347,3.45c1.408,0,2.276-1.385,2.276-3.474
				c0-1.689-0.657-3.426-2.276-3.426C86.26,198.335,85.603,200.095,85.603,201.784z"/>
			<path d="M96.119,199.72c0-1.432-0.047-2.629-0.094-3.661h3.098l0.164,1.596h0.07c0.47-0.751,1.619-1.854,3.544-1.854
				c2.347,0,4.106,1.572,4.106,4.952v6.782h-3.566v-6.359c0-1.479-0.517-2.488-1.808-2.488c-0.985,0-1.572,0.681-1.83,1.338
				c-0.094,0.234-0.117,0.563-0.117,0.892v6.618h-3.567V199.72z"/>
			<path d="M112.62,202.935c0.094,1.479,1.572,2.183,3.238,2.183c1.221,0,2.206-0.164,3.168-0.493l0.47,2.417
				c-1.174,0.493-2.605,0.728-4.154,0.728c-3.896,0-6.125-2.253-6.125-5.843c0-2.91,1.807-6.126,5.797-6.126
				c3.708,0,5.116,2.887,5.116,5.727c0,0.61-0.071,1.15-0.118,1.408H112.62z M116.82,200.494c0-0.869-0.375-2.323-2.019-2.323
				c-1.502,0-2.111,1.384-2.205,2.323H116.82z"/>
			<path d="M122.268,199.72c0-1.432-0.047-2.629-0.094-3.661h3.098l0.164,1.596h0.07c0.47-0.751,1.619-1.854,3.544-1.854
				c2.347,0,4.106,1.572,4.106,4.952v6.782h-3.566v-6.359c0-1.479-0.517-2.488-1.808-2.488c-0.985,0-1.572,0.681-1.83,1.338
				c-0.094,0.234-0.117,0.563-0.117,0.892v6.618h-3.567V199.72z"/>
			<path d="M139.871,192.961v3.098h2.559v2.628h-2.559v4.154c0,1.385,0.353,2.018,1.408,2.018c0.493,0,0.728-0.023,1.056-0.094
				l0.024,2.699c-0.446,0.164-1.314,0.305-2.301,0.305c-1.149,0-2.111-0.398-2.698-0.985c-0.657-0.681-0.985-1.783-0.985-3.403
				v-4.693h-1.525v-2.628h1.525v-2.136L139.871,192.961z"/>
			<path d="M147.125,202.935c0.094,1.479,1.572,2.183,3.238,2.183c1.22,0,2.206-0.164,3.168-0.493l0.47,2.417
				c-1.174,0.493-2.605,0.728-4.154,0.728c-3.896,0-6.125-2.253-6.125-5.843c0-2.91,1.807-6.126,5.797-6.126
				c3.708,0,5.116,2.887,5.116,5.727c0,0.61-0.071,1.15-0.118,1.408H147.125z M151.325,200.494c0-0.869-0.375-2.323-2.019-2.323
				c-1.502,0-2.111,1.384-2.205,2.323H151.325z"/>
		</g>
	</g>
	<line fill="none" stroke="#FFFFFF" stroke-miterlimit="10" x1="-0.001" y1="100.826" x2="1218.581" y2="100.826"/>
	<line fill="none" stroke="#FFFFFF" stroke-miterlimit="10" x1="-0.001" y1="244.606" x2="1218.581" y2="244.606"/>
	<line fill="none" stroke="#FFFFFF" stroke-miterlimit="10" x1="175.29" y1="0" x2="175.29" y2="412.392"/>
</g>
</svg>
