<?xml version="1.0" encoding="utf-8"?>
<!-- Generator: Adobe Illustrator 16.0.0, SVG Export Plug-In . SVG Version: 6.00 Build 0)  -->
<!DOCTYPE svg PUBLIC "-//W3C//DTD SVG 1.1//EN" "http://www.w3.org/Graphics/SVG/1.1/DTD/svg11.dtd">
<svg version="1.1" id="Capa_1" xmlns="http://www.w3.org/2000/svg" xmlns:xlink="http://www.w3.org/1999/xlink" x="0px" y="0px"
	 width="79.956px" height="14.21px" viewBox="0 0 79.956 14.21" enable-background="new 0 0 79.956 14.21" xml:space="preserve">
<g>
	<g>
		<g>
			<path fill="#DEDE45" d="M10.207,14.21v-3.362l8.245-3.713V7.074l-8.245-3.696V0l11.772,5.797v2.616L10.207,14.21z"/>
		</g>
		<g>
			<path fill="#DEDE45" d="M0,14.21v-3.362l8.245-3.713V7.074L0,3.378V0l11.772,5.797v2.616L0,14.21z"/>
		</g>
	</g>
	<g>
		<g>
			<path fill="#DEDE45" d="M69.747,0v3.362l-8.244,3.712v0.061l8.244,3.697v3.378L57.976,8.413V5.796L69.747,0z"/>
		</g>
		<g>
			<path fill="#DEDE45" d="M79.956,0v3.362L71.71,7.074v0.061l8.246,3.697v3.378L68.185,8.413V5.796L79.956,0z"/>
		</g>
	</g>
</g>
</svg>
