<?xml version="1.0" encoding="utf-8"?>
<!-- Generator: Adobe Illustrator 16.0.0, SVG Export Plug-In . SVG Version: 6.00 Build 0)  -->
<!DOCTYPE svg PUBLIC "-//W3C//DTD SVG 1.1//EN" "http://www.w3.org/Graphics/SVG/1.1/DTD/svg11.dtd">
<svg version="1.1" id="Capa_1" xmlns="http://www.w3.org/2000/svg" xmlns:xlink="http://www.w3.org/1999/xlink" x="0px" y="0px"
	 width="287.567px" height="141.344px" viewBox="0 0 287.567 141.344" enable-background="new 0 0 287.567 141.344"
	 xml:space="preserve">
<g>
	<path fill-rule="evenodd" clip-rule="evenodd" fill="#FFFFFF" d="M279.865,84.609c3.884-5.917,3.657-9.697-0.849-16.336
		c-0.998,2.297-2.055,4.516-2.926,6.872c-0.244,0.663-0.162,1.933,0.142,2.573C277.325,80.037,278.578,82.207,279.865,84.609z"/>
	<path fill-rule="evenodd" clip-rule="evenodd" fill="#FFFFFF" d="M274.312,78.734c-1.129,1.723-2.176,3.169-3.071,4.784
		c-0.246,0.444-0.203,1.513-0.003,2.093c0.839,2.426,1.788,4.776,2.824,7.488c1.386-1.83,2.707-3.488,3.933-5.279
		c0.243-0.356,0.32-1.424,0.125-1.821C276.935,83.574,275.647,81.247,274.312,78.734z"/>
	<path fill-rule="evenodd" clip-rule="evenodd" fill="#FFFFFF" d="M268.13,99.467c1.574-1.661,2.898-3.059,4.371-4.614
		c-1.078-2.858-2.115-5.607-3.229-8.561c-1.093,1.16-2.123,2.07-2.976,3.244c-0.347,0.479-0.553,1.646-0.395,2.287
		C266.51,94.285,267.292,96.66,268.13,99.467z"/>
	<path fill-rule="evenodd" clip-rule="evenodd" fill="#FFFFFF" d="M284.073,73.48c1.756-8.253,2.125-7.451-2.652-14.221
		c-0.451,1.754-0.936,3.38-1.259,5.066c-0.108,0.555,0.09,1.373,0.336,1.895C281.63,68.624,282.825,70.965,284.073,73.48z"/>
	<path fill-rule="evenodd" clip-rule="evenodd" fill="#FFFFFF" d="M285.542,60.873c0.568-4.48,0.233-8.381-2.853-10.862
		C281.491,55.113,281.933,56.819,285.542,60.873z"/>
	<path fill-rule="evenodd" clip-rule="evenodd" fill="#FFFFFF" d="M285.187,48.912c-0.285-6.254-0.436-6.694-2.549-7.496
		C282.118,45.318,282.495,46.428,285.187,48.912z"/>
	<path fill-rule="evenodd" clip-rule="evenodd" fill="#FFFFFF" d="M277.979,22.736c1.057,2.993,2.112,5.987,3.168,8.98
		c0.263-0.205,0.526-0.41,0.789-0.616c-1.17-2.907-2.338-5.815-3.508-8.724C278.28,22.496,278.13,22.617,277.979,22.736z"/>
	<path fill-rule="evenodd" clip-rule="evenodd" fill="#FFFFFF" d="M281.241,34.94c0.588,1.331,1.178,2.663,1.769,3.995
		c0.192-0.17,0.386-0.341,0.579-0.51c-0.265-1.641-0.053-3.682-1.813-4.066C281.597,34.552,281.419,34.747,281.241,34.94z"/>
	<path fill-rule="evenodd" clip-rule="evenodd" fill="#2B1C48" d="M97.736,140.669c-1.096,1.155-1.913,0.832-2.039-1.015
		c-0.252-3.69-1.457-7.026-1.334-10.956c0.142-4.555-0.701-9.164-1.062-13.758c-0.191-2.445-0.865-3.363-2.797-3.377
		c-8.999-0.065-17.801-1.922-25.759-8.297C55.88,96.167,50,85.805,49.118,71.007c-0.702-11.791,3.189-20.998,9.188-28.623
		c6.725-8.549,14.945-12.617,23.63-14.602c20.098-4.594,40.233-8.887,60.376-13.078c18.626-3.875,37.271-7.584,55.931-11.13
		c16.035-3.048,32.127-4.362,48.332-3.095c9.866,0.771,18.792,4.932,27.092,12.273c7.587,6.709,10.812,17.5,12.817,28.941
		c1.104,6.307,1.116,13.113,1.068,19.687c-0.084,11.524-2.93,21.542-9,29.61c-10.888,14.469-23.743,23.22-38.408,26.6
		c-18.167,4.187-36.524,5.331-54.882,6.125c-7.295,0.316-14.604,0.045-21.904-0.098c-4.873-0.096-9.744-0.333-14.609-0.69
		c-4.793-0.354-9.587-0.796-14.362-1.461c-4.733-0.66-9.487-0.786-14.224-1.431c-3.62-0.492-7.302-0.11-10.955-0.09
		c-0.37,0.002-0.75,0.15-1.106,0.314c-0.786,0.359-1.561,0.771-2.339,1.162c-0.896,0.868-0.797,1.9,0.175,2.981
		c0.448,0.501,0.624,1.491,0.924,2.261c-0.583,0.264-1.167,0.527-2.057,0.929C103.534,132.828,101.047,137.179,97.736,140.669z
		 M276.489,30.556C269.636,13.937,259.54,5.168,245.903,4.64c0.247-0.199,0.484-0.432,0.746-0.588
		c0.25-0.15,0.524-0.222,0.787-0.328c-0.018-0.256-0.033-0.512-0.051-0.769c-7.605,0-15.221-0.346-22.816,0.067
		c-20.271,1.102-40.262,5.847-60.297,9.934c-19.966,4.072-39.929,8.188-59.87,12.486c-9.171,1.977-18.343,4.08-27.414,6.796
		c-6.895,2.065-13.207,6.343-18.38,13.437c-9.986,13.701-10.228,32.422-0.692,46.756c6.099,9.168,13.794,13.699,22.376,15.299
		c4.871,0.907,9.834,0.917,14.76,1.135c1.329,0.057,1.991,0.545,2.254,2.419c0.447,3.187,1.017,6.337,1.824,9.56
		c0.277-3.273,0.605-6.54,0.812-9.822c0.123-1.979,0.646-2.775,2.147-2.746c1.476,0.027,3.198,1.016,4.396-1.293
		c0.092-0.182,0.722-0.128,0.847,0.098c1.016,1.84,2.431,1.273,3.72,1.286c3.978,0.036,7.955,0.036,11.93-0.053
		c0.774-0.017,1.544-0.502,2.317-0.759c0.299-0.1,0.654-0.352,0.897-0.217c3.148,1.74,6.274,0.952,9.477,0.252
		c1.821-0.398,3.752,0.348,5.633,0.342c4.553-0.016,9.105-0.146,13.66-0.273c3.396-0.094,6.795-0.201,10.188-0.428
		c0.661-0.044,1.304-0.664,1.871-0.604c2.546,0.094,5.099,0.405,7.636,0.248c11.462-0.717,22.93-1.361,34.378-2.425
		c10.546-0.981,21.073-2.411,31.602-3.769c2.061-0.266,4.251-0.613,6.077-1.836c1.606-1.076,3.001-1.836,4.84-2.011
		c1.756-0.168,3.974-0.664,4.933-3.72c0.072-0.23,0.472-0.447,0.667-0.379c2.497,0.871,3.905-1.834,5.66-3.393
		c0.898-0.797,1.863-1.473,2.688-2.398c8.556-9.611,13.935-21.762,15.062-37.42c1.531-21.33-9.767-41.713-24.838-44.615
		c-0.182-0.035-0.373,0.035-0.92,0.095C266.103,10.25,275.201,20.839,276.489,30.556z M198.779,108.976
		c-0.171-0.443-0.682-0.899-1.026-0.886c-2.799,0.114-5.594,0.337-8.84,0.558c2.006,4.049,3.803,7.707,5.639,11.327
		c0.145,0.286,0.551,0.426,0.836,0.43c2.354,0.033,4.708,0.019,7.062,0.019c0.087-0.311,0.173-0.622,0.26-0.933
		C201.407,115.98,200.126,112.453,198.779,108.976z M179.032,110.541c-0.242-0.53-0.785-1.088-1.199-1.105
		c-2.475-0.103-4.951-0.051-8.092-0.051c2.305,4.206,4.241,7.781,6.225,11.305c0.199,0.352,0.677,0.535,1.027,0.543
		c2.076,0.051,4.152,0.025,6.754,0.025C181.918,117.072,180.51,113.773,179.032,110.541z M204.74,118.85
		c0.205,0.513,0.933,0.876,1.408,0.853c1.776-0.085,3.548-0.359,5.591-0.595c-0.883-4.142-2.02-7.87-4.051-10.931
		c-0.333-0.502-1.007-0.795-1.516-0.772c-1.764,0.071-3.524,0.323-5.539,0.534C202.05,111.748,203.342,115.342,204.74,118.85z
		 M217.616,106.582c-2.338,0.178-4.856,0.368-7.415,0.562c1.192,3.783,2.265,7.338,3.455,10.812c0.166,0.48,0.923,0.814,1.393,0.785
		c1.913-0.119,3.821-0.406,5.881-0.649C219.796,114.154,218.765,110.568,217.616,106.582z M185.167,119.662
		c0.314,0.684,1.102,1.282,1.683,1.304c1.71,0.063,3.425-0.184,5.577-0.341c-1.193-2.438-2.467-4.372-3.19-6.656
		c-1.727-5.45-4.731-5.771-8.492-4.582C182.253,112.931,183.646,116.355,185.167,119.662z M166.741,120.9c1.855,0,4.206,0,6.896,0
		c-1.901-3.555-3.608-6.887-5.448-10.067c-0.373-0.646-1.238-0.992-1.882-1.005c-1.722-0.032-3.445,0.189-5.647,0.344
		C162.755,113.869,164.632,117.179,166.741,120.9z M222.835,116.648c0.18,0.517,0.893,0.941,1.354,0.93
		c1.271-0.029,2.534-0.312,4.153-0.547c-0.404-3.819-0.791-7.492-1.205-11.398c-2.559,0.256-4.826,0.482-7.598,0.76
		C220.725,110.136,221.72,113.433,222.835,116.648z M257.235,97.027c-2.023,1.066-3.975,2.095-6.149,3.242
		c0.952,3.036,1.893,6.041,2.933,9.359c2.221-1.359,4.414-2.702,6.789-4.156C259.571,102.549,258.433,99.857,257.235,97.027z
		 M236.136,115.712c-0.299-3.346-0.527-6.483-0.902-9.584c-0.069-0.568-0.745-1.428-1.119-1.406c-1.639,0.09-3.27,0.457-4.959,0.732
		c0.368,3.756,0.716,7.304,1.103,11.26C232.251,116.375,234.136,116.054,236.136,115.712z M238.101,115.227
		c2.166-0.546,4.076-1.027,6.23-1.571c-0.523-3.635-1.01-7.02-1.526-10.609c-1.85,0.391-3.587,0.758-5.731,1.211
		C237.421,107.98,237.743,111.417,238.101,115.227z M279.017,68.273c-0.998,2.297-2.055,4.516-2.926,6.872
		c-0.244,0.663-0.162,1.933,0.142,2.573c1.093,2.318,2.346,4.488,3.633,6.891C283.749,78.692,283.522,74.912,279.017,68.273z
		 M144.726,110.871c-2.124,0-4.201,0-6.41,0c1.047,2.798,1.961,5.361,2.975,7.842c0.2,0.49,0.772,0.922,1.186,0.945
		c1.774,0.104,3.553,0.045,5.437,0.045C146.808,116.644,145.743,113.691,144.726,110.871z M271.24,83.518
		c-0.246,0.444-0.203,1.513-0.003,2.093c0.839,2.426,1.788,4.776,2.824,7.488c1.386-1.83,2.707-3.488,3.933-5.279
		c0.243-0.356,0.32-1.424,0.125-1.821c-1.185-2.425-2.472-4.752-3.808-7.265C273.183,80.457,272.136,81.903,271.24,83.518z
		 M252.19,110.549c-0.832-2.64-1.656-4.979-2.305-7.413c-0.496-1.852-1.245-2.234-2.486-1.593c-0.768,0.396-1.59,0.585-2.648,0.958
		c0.479,3.396,0.943,6.707,1.479,10.513C248.364,112.132,250.235,111.358,252.19,110.549z M157.479,119.566
		c0.239,0.612,0.95,1.145,1.468,1.193c1.65,0.149,3.313,0.055,5.357,0.055c-0.992-1.646-1.837-3.013-2.654-4.41
		c-0.53-0.904-1.161-1.76-1.507-2.797c-1.228-3.684-3.259-3.997-5.837-2.896C155.393,113.793,156.368,116.734,157.479,119.566z
		 M129.268,111.134c1.258,6.254,3.957,8.473,9.82,7.95C136.831,110.958,136.023,110.32,129.268,111.134z M150.234,119.294
		c0.294,0.631,1.146,0.929,1.77,1.023c1.065,0.162,2.153,0.045,3.576,0.045c-1.196-3.213-2.274-6.236-3.464-9.172
		c-0.18-0.441-0.863-0.623-1.324-0.658c-1.208-0.09-2.422-0.029-4.214-0.029C147.965,113.898,149.013,116.677,150.234,119.294z
		 M263.825,92.008c-1.629,1.304-3.106,2.487-4.816,3.855c1.17,2.745,2.306,5.404,3.514,8.234c1.319-1.068,2.573-2.082,3.934-3.183
		C265.569,97.913,264.719,95.033,263.825,92.008z M272.501,94.853c-1.078-2.858-2.115-5.607-3.229-8.561
		c-1.093,1.16-2.123,2.07-2.976,3.244c-0.347,0.479-0.553,1.646-0.395,2.287c0.608,2.461,1.391,4.836,2.229,7.644
		C269.704,97.806,271.028,96.409,272.501,94.853z M129.368,117.951c-1.076-6.009-2.985-7.277-10.318-6.787
		C121.137,117.688,125.104,118.353,129.368,117.951z M281.421,59.259c-0.451,1.754-0.936,3.38-1.259,5.066
		c-0.108,0.555,0.09,1.373,0.336,1.895c1.132,2.403,2.327,4.745,3.575,7.26C285.829,65.227,286.198,66.029,281.421,59.259z
		 M109.75,111.441c1.104,1.77,2.156,3.455,3.446,5.525c1.792,0,4.012,0,6.425,0C117.228,111.849,114.063,110.044,109.75,111.441z
		 M101.491,131.51c-0.691-0.593-1.223-1.05-1.56-1.34c-0.664,0.796-1.188,1.425-1.712,2.053c-0.284-0.897-0.72-1.761-0.829-2.7
		c-0.626-5.429-1.169-10.877-1.761-16.314c-0.054-0.488-0.249-0.945-0.749-1.298c0.233,1.843,0.525,3.678,0.686,5.534
		c0.364,4.219,0.542,8.479,1.038,12.662c0.235,1.982,1.031,3.83,1.573,5.739c0.255-0.039,0.51-0.077,0.765-0.115
		C99.761,134.375,100.58,133.02,101.491,131.51z M104.541,114.345c2.302,3.439,2.266,3.484,5.685,2.572
		c-2.456-5.66-6.428-7.951-8.146-5.148C102.906,112.617,103.851,113.312,104.541,114.345z M282.689,50.01
		c-1.198,5.103-0.757,6.809,2.853,10.862C286.11,56.392,285.775,52.492,282.689,50.01z M282.638,41.416
		c-0.52,3.902-0.143,5.013,2.549,7.496C284.901,42.658,284.751,42.217,282.638,41.416z M101.092,122.572
		c-1.407,3.813-1.3,4.4,1.25,6.157C103.479,125.025,103.428,124.789,101.092,122.572z M104.472,118.361
		c-0.821-1.305-1.611-2.562-2.438-3.875c-1.027,3.602-1.004,3.742,1.141,6.538C103.663,120.023,104.048,119.23,104.472,118.361z
		 M281.147,31.716c0.263-0.205,0.526-0.41,0.789-0.616c-1.17-2.907-2.338-5.815-3.508-8.724c-0.148,0.119-0.299,0.24-0.449,0.359
		C279.036,25.729,280.092,28.723,281.147,31.716z M283.01,38.935c0.192-0.17,0.386-0.341,0.579-0.51
		c-0.265-1.641-0.053-3.682-1.813-4.066c-0.179,0.193-0.356,0.388-0.534,0.581C281.829,36.271,282.419,37.603,283.01,38.935z"/>
	<path fill-rule="evenodd" clip-rule="evenodd" fill="#FFFFFF" d="M255.729,4.91c15.071,2.902,26.369,23.285,24.838,44.615
		c-1.127,15.658-6.506,27.809-15.062,37.42c-0.825,0.926-1.79,1.602-2.688,2.398c-1.755,1.559-3.163,4.264-5.66,3.393
		c-0.195-0.068-0.595,0.148-0.667,0.379c-0.959,3.056-3.177,3.552-4.933,3.72c-1.839,0.175-3.233,0.935-4.84,2.011
		c-1.826,1.223-4.017,1.57-6.077,1.836c-10.528,1.357-21.056,2.787-31.602,3.769c-11.448,1.063-22.916,1.708-34.378,2.425
		c-2.537,0.157-5.09-0.154-7.636-0.248c-0.567-0.061-1.21,0.56-1.871,0.604c-3.394,0.227-6.792,0.334-10.188,0.428
		c-4.555,0.127-9.107,0.258-13.66,0.273c-1.881,0.006-3.812-0.74-5.633-0.342c-3.202,0.7-6.328,1.488-9.477-0.252
		c-0.243-0.135-0.599,0.117-0.897,0.217c-0.773,0.257-1.543,0.742-2.317,0.759c-3.975,0.089-7.952,0.089-11.93,0.053
		c-1.289-0.013-2.704,0.554-3.72-1.286c-0.125-0.226-0.755-0.279-0.847-0.098c-1.197,2.309-2.92,1.32-4.396,1.293
		c-1.502-0.029-2.024,0.768-2.147,2.746c-0.207,3.282-0.535,6.549-0.812,9.822c-0.808-3.223-1.377-6.373-1.824-9.56
		c-0.263-1.874-0.925-2.362-2.254-2.419c-4.926-0.218-9.889-0.228-14.76-1.135c-8.582-1.6-16.277-6.131-22.376-15.299
		c-9.535-14.334-9.294-33.055,0.692-46.756c5.173-7.094,11.485-11.371,18.38-13.437c9.071-2.716,18.243-4.819,27.414-6.796
		c19.941-4.299,39.904-8.414,59.87-12.486c20.035-4.087,40.025-8.832,60.297-9.934c7.596-0.413,15.211-0.067,22.816-0.067
		c0.018,0.257,0.033,0.513,0.051,0.769c-0.263,0.106-0.537,0.178-0.787,0.328c-0.262,0.156-0.499,0.389-0.746,0.588
		c13.637,0.528,23.732,9.297,30.586,25.916c-1.288-9.717-10.387-20.306-21.68-25.552C255.356,4.945,255.548,4.875,255.729,4.91z
		 M52.763,72.71c-0.99-8.367,0.782-15.395,5.398-21.11c-0.246-0.229-0.493-0.459-0.74-0.688c-0.968,1.387-2.107,2.605-2.876,4.186
		c-3.872,7.967-4.004,16.555-1.132,24.97c1.499,4.396,3.955,8.14,6.019,12.138c0.254,0.493,0.753,0.734,1.136,1.092
		c0.16-0.208,0.321-0.416,0.48-0.626C57.118,86.957,53.723,80.832,52.763,72.71z M244.002,4.873c-0.87-1.313-4.085-1.629-6.278,0
		C239.802,4.873,241.881,4.873,244.002,4.873z"/>
	<path fill-rule="evenodd" clip-rule="evenodd" fill="#FFFFFF" d="M202.71,119.491c-1.303-3.511-2.584-7.038-3.931-10.515
		c-0.171-0.443-0.682-0.899-1.026-0.886c-2.799,0.114-5.594,0.337-8.84,0.558c2.006,4.049,3.803,7.707,5.639,11.327
		c0.145,0.286,0.551,0.426,0.836,0.43c2.354,0.033,4.708,0.019,7.062,0.019C202.537,120.113,202.623,119.801,202.71,119.491z"/>
	<path fill-rule="evenodd" clip-rule="evenodd" fill="#FFFFFF" d="M183.747,121.257c-1.829-4.186-3.237-7.484-4.715-10.717
		c-0.242-0.53-0.785-1.088-1.199-1.105c-2.475-0.103-4.951-0.051-8.092-0.051c2.305,4.206,4.241,7.781,6.225,11.305
		c0.199,0.352,0.677,0.535,1.027,0.543C179.069,121.283,181.146,121.257,183.747,121.257z"/>
	<path fill-rule="evenodd" clip-rule="evenodd" fill="#FFFFFF" d="M200.634,107.939c1.416,3.809,2.708,7.403,4.106,10.911
		c0.205,0.513,0.933,0.876,1.408,0.853c1.776-0.085,3.548-0.359,5.591-0.595c-0.883-4.142-2.02-7.87-4.051-10.931
		c-0.333-0.502-1.007-0.795-1.516-0.772C204.409,107.476,202.648,107.728,200.634,107.939z"/>
	<path fill-rule="evenodd" clip-rule="evenodd" fill="#FFFFFF" d="M220.93,118.092c-1.134-3.938-2.165-7.524-3.313-11.511
		c-2.338,0.178-4.856,0.368-7.415,0.562c1.192,3.783,2.265,7.338,3.455,10.812c0.166,0.48,0.923,0.814,1.393,0.785
		C216.962,118.623,218.87,118.335,220.93,118.092z"/>
	<path fill-rule="evenodd" clip-rule="evenodd" fill="#FFFFFF" d="M180.744,109.386c1.509,3.545,2.901,6.969,4.423,10.275
		c0.314,0.684,1.102,1.282,1.683,1.304c1.71,0.063,3.425-0.184,5.577-0.341c-1.193-2.438-2.467-4.372-3.19-6.656
		C187.51,108.518,184.505,108.197,180.744,109.386z"/>
	<path fill-rule="evenodd" clip-rule="evenodd" fill="#FFFFFF" d="M160.659,110.171c2.096,3.697,3.973,7.008,6.082,10.729
		c1.855,0,4.206,0,6.896,0c-1.901-3.555-3.608-6.887-5.448-10.067c-0.373-0.646-1.238-0.992-1.882-1.005
		C164.585,109.795,162.861,110.017,160.659,110.171z"/>
	<path fill-rule="evenodd" clip-rule="evenodd" fill="#FFFFFF" d="M219.54,106.392c1.185,3.744,2.18,7.041,3.295,10.256
		c0.18,0.517,0.893,0.941,1.354,0.93c1.271-0.029,2.534-0.312,4.153-0.547c-0.404-3.819-0.791-7.492-1.205-11.398
		C224.579,105.888,222.312,106.115,219.54,106.392z"/>
	<path fill-rule="evenodd" clip-rule="evenodd" fill="#FFFFFF" d="M260.808,105.472c-1.236-2.923-2.375-5.615-3.572-8.445
		c-2.023,1.066-3.975,2.095-6.149,3.242c0.952,3.036,1.893,6.041,2.933,9.359C256.239,108.269,258.433,106.926,260.808,105.472z"/>
	<path fill-rule="evenodd" clip-rule="evenodd" fill="#FFFFFF" d="M230.258,116.714c1.993-0.34,3.878-0.66,5.878-1.002
		c-0.299-3.346-0.527-6.483-0.902-9.584c-0.069-0.568-0.745-1.428-1.119-1.406c-1.639,0.09-3.27,0.457-4.959,0.732
		C229.523,109.21,229.871,112.758,230.258,116.714z"/>
	<path fill-rule="evenodd" clip-rule="evenodd" fill="#FFFFFF" d="M237.073,104.257c0.348,3.723,0.67,7.16,1.027,10.97
		c2.166-0.546,4.076-1.027,6.23-1.571c-0.523-3.635-1.01-7.02-1.526-10.609C240.955,103.437,239.218,103.804,237.073,104.257z"/>
	<path fill-rule="evenodd" clip-rule="evenodd" fill="#FFFFFF" d="M147.912,119.703c-1.104-3.059-2.169-6.012-3.187-8.832
		c-2.124,0-4.201,0-6.41,0c1.047,2.798,1.961,5.361,2.975,7.842c0.2,0.49,0.772,0.922,1.186,0.945
		C144.25,119.761,146.028,119.703,147.912,119.703z"/>
	<path fill-rule="evenodd" clip-rule="evenodd" fill="#FFFFFF" d="M246.229,113.014c2.135-0.882,4.006-1.656,5.961-2.465
		c-0.832-2.64-1.656-4.979-2.305-7.413c-0.496-1.852-1.245-2.234-2.486-1.593c-0.768,0.396-1.59,0.585-2.648,0.958
		C245.229,105.898,245.694,109.208,246.229,113.014z"/>
	<path fill-rule="evenodd" clip-rule="evenodd" fill="#FFFFFF" d="M154.306,110.71c1.087,3.083,2.062,6.023,3.173,8.855
		c0.239,0.612,0.95,1.145,1.468,1.193c1.65,0.149,3.313,0.055,5.357,0.055c-0.992-1.646-1.837-3.013-2.654-4.41
		c-0.53-0.904-1.161-1.76-1.507-2.797C158.915,109.923,156.884,109.61,154.306,110.71z"/>
	<path fill-rule="evenodd" clip-rule="evenodd" fill="#FFFFFF" d="M139.088,119.084c-2.257-8.126-3.064-8.765-9.82-7.95
		C130.525,117.388,133.225,119.607,139.088,119.084z"/>
	<path fill-rule="evenodd" clip-rule="evenodd" fill="#FFFFFF" d="M146.578,110.503c1.387,3.395,2.435,6.174,3.656,8.791
		c0.294,0.631,1.146,0.929,1.77,1.023c1.065,0.162,2.153,0.045,3.576,0.045c-1.196-3.213-2.274-6.236-3.464-9.172
		c-0.18-0.441-0.863-0.623-1.324-0.658C149.584,110.443,148.37,110.503,146.578,110.503z"/>
	<path fill-rule="evenodd" clip-rule="evenodd" fill="#FFFFFF" d="M266.456,100.916c-0.887-3.003-1.737-5.883-2.631-8.907
		c-1.629,1.304-3.106,2.487-4.816,3.855c1.17,2.745,2.306,5.404,3.514,8.234C263.842,103.03,265.096,102.016,266.456,100.916z"/>
	<path fill-rule="evenodd" clip-rule="evenodd" fill="#FFFFFF" d="M119.05,111.164c2.087,6.524,6.055,7.189,10.318,6.787
		C128.292,111.942,126.383,110.673,119.05,111.164z"/>
	<path fill-rule="evenodd" clip-rule="evenodd" fill="#FFFFFF" d="M119.621,116.966c-2.394-5.117-5.558-6.922-9.871-5.525
		c1.104,1.77,2.156,3.455,3.446,5.525C114.988,116.966,117.208,116.966,119.621,116.966z"/>
	<path fill-rule="evenodd" clip-rule="evenodd" fill="#FFFFFF" d="M98.942,135.731c0.818-1.355,1.638-2.711,2.549-4.221
		c-0.691-0.593-1.223-1.05-1.56-1.34c-0.664,0.796-1.188,1.425-1.712,2.053c-0.284-0.897-0.72-1.761-0.829-2.7
		c-0.626-5.429-1.169-10.877-1.761-16.314c-0.054-0.488-0.249-0.945-0.749-1.298c0.233,1.843,0.525,3.678,0.686,5.534
		c0.364,4.219,0.542,8.479,1.038,12.662c0.235,1.982,1.031,3.83,1.573,5.739C98.433,135.807,98.688,135.769,98.942,135.731z"/>
	<path fill-rule="evenodd" clip-rule="evenodd" fill="#FFFFFF" d="M102.08,111.769c0.826,0.848,1.771,1.543,2.461,2.576
		c2.302,3.439,2.266,3.484,5.685,2.572C107.77,111.257,103.798,108.966,102.08,111.769z"/>
	<path fill-rule="evenodd" clip-rule="evenodd" fill="#FFFFFF" d="M102.342,128.729c1.138-3.704,1.086-3.94-1.25-6.157
		C99.685,126.385,99.792,126.972,102.342,128.729z"/>
	<path fill-rule="evenodd" clip-rule="evenodd" fill="#FFFFFF" d="M103.175,121.024c0.488-1.001,0.873-1.794,1.297-2.663
		c-0.821-1.305-1.611-2.562-2.438-3.875C101.007,118.087,101.03,118.228,103.175,121.024z"/>
	<path fill-rule="evenodd" clip-rule="evenodd" d="M61.048,92.67c-3.93-5.714-7.325-11.839-8.285-19.96
		c-0.99-8.367,0.782-15.395,5.398-21.11c-0.246-0.229-0.493-0.459-0.74-0.688c-0.968,1.387-2.107,2.605-2.876,4.186
		c-3.872,7.967-4.004,16.555-1.132,24.97c1.499,4.396,3.955,8.14,6.019,12.138c0.254,0.493,0.753,0.734,1.136,1.092
		C60.728,93.088,60.889,92.88,61.048,92.67z"/>
	<path fill-rule="evenodd" clip-rule="evenodd" d="M237.724,4.873c2.078,0,4.157,0,6.278,0
		C243.132,3.559,239.917,3.244,237.724,4.873z"/>
	<g>
		<g>
			<path fill="#2B1C48" d="M112.103,38.63c0.313,0,0.584,0.084,0.81,0.252c0.225,0.168,0.338,0.369,0.338,0.604
				c0,0.238-0.113,0.441-0.338,0.609c-0.226,0.168-0.496,0.252-0.81,0.252c-0.32,0-0.593-0.084-0.818-0.252
				c-0.225-0.168-0.338-0.371-0.338-0.609c0-0.234,0.113-0.436,0.338-0.604C111.51,38.714,111.782,38.63,112.103,38.63z
				 M111.135,46.88c0.074-1.988,0.124-3.953,0.149-5.895l1.745-0.029c0.053,1.664,0.113,3.639,0.181,5.924H111.135z"/>
			<path fill="#2B1C48" d="M118.735,36.216v1.652l-3.104-0.088v2.197l2.791-0.053l0.07,1.588H116v2.889l-2.177-0.076
				c0.058-1.098,0.086-2.203,0.086-3.316c0-1.543-0.055-3.1-0.165-4.67C114.929,36.3,116.593,36.259,118.735,36.216z"/>
			<path fill="#2B1C48" d="M121.982,38.759c1.818,0,2.728,0.9,2.728,2.701c0,0.219-0.014,0.453-0.039,0.703h-3.514
				c0,1.004,0.259,1.506,0.778,1.506h0.055c0.456-0.027,0.684-0.287,0.684-0.779c0-0.105-0.011-0.223-0.031-0.352l1.871-0.029
				c0,1.488-0.873,2.242-2.618,2.262c-0.021,0.004-0.039,0.006-0.055,0.006c-1.661,0-2.492-0.939-2.492-2.818v-0.176
				C119.401,39.767,120.279,38.759,121.982,38.759z M120.969,41.085h1.776v-0.141c0-0.711-0.271-1.066-0.81-1.066
				C121.354,39.878,121.031,40.281,120.969,41.085z"/>
			<path fill="#2B1C48" d="M127.509,44.677l-1.957,0.135c0.021-1.293,0.031-2.537,0.031-3.732c0-1.68-0.021-3.264-0.063-4.752
				l1.926-0.023c-0.021,0.957-0.031,1.939-0.031,2.947C127.414,40.99,127.445,42.798,127.509,44.677z"/>
			<path fill="#2B1C48" d="M130.386,37.412c0,0.238-0.113,0.441-0.338,0.609c-0.226,0.168-0.498,0.252-0.818,0.252
				c-0.313,0-0.584-0.084-0.81-0.252c-0.225-0.168-0.338-0.371-0.338-0.609c0-0.234,0.113-0.436,0.338-0.604
				c0.226-0.168,0.496-0.252,0.81-0.252c0.32,0,0.593,0.084,0.818,0.252C130.272,36.976,130.386,37.177,130.386,37.412z
				 M128.279,44.806c-0.037-2.285-0.056-4.26-0.056-5.924l1.981-0.088c-0.063,1.594-0.095,3.178-0.095,4.752
				c0,0.422,0.003,0.842,0.008,1.26H128.279z"/>
			<path fill="#2B1C48" d="M134.032,42.363l1.871,0.088c0,1.41-0.873,2.125-2.618,2.145c-0.021,0.004-0.039,0.006-0.055,0.006
				c-1.661,0-2.492-0.939-2.492-2.818v-0.176c0.053-2.016,0.938-3.033,2.657-3.053h0.062c1.583,0,2.374,0.676,2.374,2.027
				c0,0.078-0.003,0.156-0.008,0.234l-1.689,0.094v-0.141c0-0.711-0.271-1.066-0.81-1.066c-0.551,0-0.826,0.576-0.826,1.729v0.193
				c0.032,1.246,0.31,1.869,0.834,1.869h0.047c0.456-0.027,0.684-0.287,0.684-0.779C134.063,42.609,134.053,42.492,134.032,42.363z"
				/>
			<path fill="#2B1C48" d="M138.757,37.412c0,0.238-0.113,0.441-0.338,0.609c-0.226,0.168-0.498,0.252-0.818,0.252
				c-0.313,0-0.584-0.084-0.81-0.252c-0.225-0.168-0.338-0.371-0.338-0.609c0-0.234,0.113-0.436,0.338-0.604
				c0.226-0.168,0.496-0.252,0.81-0.252c0.32,0,0.593,0.084,0.818,0.252C138.644,36.976,138.757,37.177,138.757,37.412z
				 M136.65,44.806c-0.037-2.285-0.056-4.26-0.056-5.924l1.981-0.088c-0.063,1.594-0.095,3.178-0.095,4.752
				c0,0.422,0.003,0.842,0.008,1.26H136.65z"/>
			<path fill="#2B1C48" d="M140.501,36.89l1.784-0.088v1.939l1.502-0.029l0.023,1.107l-1.525,0.053v2.666
				c0,0.621,0.354,0.932,1.062,0.932c0.146,0,0.307-0.014,0.479-0.041l-0.071,1.289c-0.251,0.023-0.489,0.035-0.715,0.035
				c-1.656,0-2.5-0.637-2.531-1.91v-2.865l-1.289,0.059l-0.031-1.307l1.32,0.012L140.501,36.89z"/>
			<path fill="#2B1C48" d="M147.505,38.589c1.724,0.07,2.586,0.717,2.586,1.939v4.16l-1.831,0.023l-0.063-0.557
				c-0.377,0.32-0.878,0.48-1.501,0.48c-0.268,0-0.556-0.031-0.865-0.094c-0.927-0.172-1.391-0.707-1.391-1.605
				c0-0.109,0.008-0.227,0.023-0.352c0.104-0.926,0.987-1.389,2.648-1.389c0.32,0,0.671,0.018,1.054,0.053v-0.68
				c0-0.551-0.233-0.826-0.699-0.826h-0.032c-0.036-0.004-0.07-0.006-0.102-0.006c-0.509,0-0.763,0.309-0.763,0.926v0.088
				l-1.871-0.117c0-1.363,0.881-2.045,2.642-2.045H147.505z M148.165,43.218v-1.031c-0.226-0.035-0.43-0.053-0.613-0.053
				c-0.477,0-0.802,0.119-0.975,0.357c-0.104,0.145-0.157,0.279-0.157,0.404c0,0.156,0.084,0.295,0.252,0.416
				c0.131,0.094,0.301,0.141,0.511,0.141C147.45,43.453,147.777,43.375,148.165,43.218z"/>
			<path fill="#2B1C48" d="M153.935,42.363l1.871,0.088c0,1.41-0.873,2.125-2.618,2.145c-0.021,0.004-0.039,0.006-0.055,0.006
				c-1.661,0-2.492-0.939-2.492-2.818v-0.176c0.053-2.016,0.938-3.033,2.657-3.053h0.062c1.583,0,2.374,0.676,2.374,2.027
				c0,0.078-0.003,0.156-0.008,0.234l-1.689,0.094v-0.141c0-0.711-0.271-1.066-0.81-1.066c-0.551,0-0.826,0.576-0.826,1.729v0.193
				c0.032,1.246,0.31,1.869,0.834,1.869h0.047c0.456-0.027,0.684-0.287,0.684-0.779C153.966,42.609,153.955,42.492,153.935,42.363z"
				/>
			<path fill="#2B1C48" d="M158.659,37.412c0,0.238-0.113,0.441-0.338,0.609c-0.226,0.168-0.498,0.252-0.818,0.252
				c-0.313,0-0.584-0.084-0.81-0.252c-0.225-0.168-0.338-0.371-0.338-0.609c0-0.234,0.113-0.436,0.338-0.604
				c0.226-0.168,0.496-0.252,0.81-0.252c0.32,0,0.593,0.084,0.818,0.252C158.546,36.976,158.659,37.177,158.659,37.412z
				 M156.553,44.806c-0.037-2.285-0.056-4.26-0.056-5.924l1.981-0.088c-0.063,1.594-0.095,3.178-0.095,4.752
				c0,0.422,0.003,0.842,0.008,1.26H156.553z"/>
			<path fill="#2B1C48" d="M161.857,38.759c1.782,0,2.673,0.922,2.673,2.766c0,0.074-0.003,0.148-0.008,0.223
				c-0.073,1.996-1.022,3.004-2.846,3.023c-0.021,0.004-0.042,0.006-0.062,0.006c-1.734,0-2.603-0.943-2.603-2.83v-0.164
				C159.064,39.767,160.013,38.759,161.857,38.759z M161.599,40.095c-0.33,0.086-0.556,0.404-0.677,0.955
				c-0.073,0.328-0.109,0.658-0.109,0.99c0,0.223,0.016,0.447,0.047,0.674c0.084,0.562,0.354,0.854,0.81,0.873h0.055
				c0.425,0,0.716-0.209,0.873-0.627c0.131-0.348,0.196-0.76,0.196-1.236c0-0.117-0.003-0.236-0.008-0.357
				c-0.042-0.629-0.168-1.021-0.377-1.178c-0.132-0.094-0.289-0.141-0.472-0.141C161.831,40.048,161.719,40.064,161.599,40.095z"/>
			<path fill="#2B1C48" d="M166.409,38.607l0.078,0.955c0.221-0.508,0.8-0.766,1.737-0.773h0.031c0.923,0,1.552,0.27,1.887,0.809
				c0.23,0.367,0.346,1.227,0.346,2.578c0,0.664-0.028,1.449-0.086,2.355H168.5c0.068-1.207,0.103-2.143,0.103-2.807
				c0-0.332-0.008-0.598-0.024-0.797c-0.052-0.586-0.304-0.879-0.754-0.879c-0.451,0-0.734,0.156-0.849,0.469l0.078,4.248
				l-1.848,0.012c0-1.797-0.081-3.814-0.243-6.053L166.409,38.607z"/>
			<path fill="#2B1C48" d="M173.696,38.759c1.818,0,2.728,0.9,2.728,2.701c0,0.219-0.014,0.453-0.039,0.703h-3.514
				c0,1.004,0.259,1.506,0.778,1.506h0.055c0.456-0.027,0.684-0.287,0.684-0.779c0-0.105-0.011-0.223-0.031-0.352l1.871-0.029
				c0,1.488-0.873,2.242-2.618,2.262c-0.021,0.004-0.039,0.006-0.055,0.006c-1.661,0-2.492-0.939-2.492-2.818v-0.176
				C171.115,39.767,171.993,38.759,173.696,38.759z M172.683,41.085h1.776v-0.141c0-0.711-0.271-1.066-0.81-1.066
				C173.067,39.878,172.745,40.281,172.683,41.085z"/>
			<path fill="#2B1C48" d="M176.919,42.697l1.801-0.064v0.076c0,0.602,0.248,0.906,0.746,0.914h0.031
				c0.482,0,0.724-0.174,0.724-0.521V43.06c-0.021-0.383-0.497-0.691-1.427-0.926s-1.489-0.629-1.678-1.184
				c-0.068-0.195-0.103-0.383-0.103-0.562c0-0.328,0.112-0.633,0.338-0.914c0.346-0.43,0.87-0.676,1.572-0.738
				c0.188-0.016,0.372-0.023,0.55-0.023c0.467,0,0.878,0.061,1.234,0.182c0.487,0.168,0.825,0.408,1.014,0.721
				c0.126,0.215,0.188,0.453,0.188,0.715c0,0.125-0.013,0.254-0.039,0.387l-1.682,0.029c0.016-0.098,0.023-0.188,0.023-0.27
				c0-0.391-0.168-0.6-0.503-0.627c-0.037-0.004-0.073-0.006-0.11-0.006c-0.346,0-0.579,0.131-0.699,0.393
				c-0.042,0.09-0.063,0.172-0.063,0.246c0,0.184,0.115,0.342,0.346,0.475c0.325,0.188,0.807,0.378,1.442,0.571
				c0.637,0.193,1.065,0.522,1.285,0.987c0.079,0.176,0.118,0.352,0.118,0.527c0,0.297-0.115,0.596-0.346,0.896
				c-0.367,0.48-0.936,0.76-1.706,0.838c-0.167,0.02-0.332,0.029-0.495,0.029c-0.576,0-1.11-0.111-1.604-0.334
				C177.249,44.187,176.93,43.595,176.919,42.697z"/>
			<path fill="#2B1C48" d="M183.64,44.806c-0.313,0-0.584-0.084-0.81-0.252c-0.225-0.168-0.338-0.369-0.338-0.604
				c0-0.238,0.113-0.441,0.338-0.609c0.226-0.168,0.496-0.252,0.81-0.252c0.32,0,0.593,0.084,0.818,0.252
				c0.225,0.168,0.338,0.371,0.338,0.609c0,0.234-0.113,0.436-0.338,0.604C184.232,44.722,183.96,44.806,183.64,44.806z
				 M184.607,36.556c-0.074,1.988-0.124,3.953-0.149,5.895l-1.745,0.029c-0.053-1.664-0.113-3.639-0.181-5.924H184.607z"/>
			<path fill="#2B1C48" d="M185.228,45.533c0.582-0.125,0.92-0.365,1.014-0.721c-0.403-0.102-0.668-0.223-0.794-0.363
				c-0.125-0.141-0.188-0.299-0.188-0.475s0.05-0.331,0.149-0.466s0.242-0.237,0.429-0.308c0.186-0.07,0.37-0.107,0.554-0.111h0.016
				c0.173,0,0.341,0.023,0.503,0.07c0.163,0.051,0.295,0.127,0.397,0.229s0.174,0.21,0.216,0.325s0.065,0.253,0.071,0.413v0.023
				c0,0.156-0.029,0.328-0.087,0.516c-0.058,0.199-0.157,0.389-0.299,0.568s-0.347,0.351-0.617,0.513
				c-0.27,0.162-0.672,0.259-1.206,0.29L185.228,45.533z"/>
			<path fill="#2B1C48" d="M197.128,38.589c1.724,0.07,2.586,0.717,2.586,1.939v4.16l-1.831,0.023l-0.063-0.557
				c-0.377,0.32-0.878,0.48-1.501,0.48c-0.268,0-0.556-0.031-0.865-0.094c-0.927-0.172-1.391-0.707-1.391-1.605
				c0-0.109,0.008-0.227,0.023-0.352c0.104-0.926,0.987-1.389,2.648-1.389c0.32,0,0.671,0.018,1.054,0.053v-0.68
				c0-0.551-0.233-0.826-0.699-0.826h-0.032c-0.036-0.004-0.07-0.006-0.102-0.006c-0.509,0-0.763,0.309-0.763,0.926v0.088
				l-1.871-0.117c0-1.363,0.881-2.045,2.642-2.045H197.128z M197.788,43.218v-1.031c-0.226-0.035-0.43-0.053-0.613-0.053
				c-0.477,0-0.802,0.119-0.975,0.357c-0.104,0.145-0.157,0.279-0.157,0.404c0,0.156,0.084,0.295,0.252,0.416
				c0.131,0.094,0.301,0.141,0.511,0.141C197.073,43.453,197.4,43.375,197.788,43.218z"/>
			<path fill="#2B1C48" d="M203.558,42.363l1.871,0.088c0,1.41-0.873,2.125-2.618,2.145c-0.021,0.004-0.039,0.006-0.055,0.006
				c-1.661,0-2.492-0.939-2.492-2.818v-0.176c0.053-2.016,0.938-3.033,2.657-3.053h0.062c1.583,0,2.374,0.676,2.374,2.027
				c0,0.078-0.003,0.156-0.008,0.234l-1.689,0.094v-0.141c0-0.711-0.271-1.066-0.81-1.066c-0.551,0-0.826,0.576-0.826,1.729v0.193
				c0.032,1.246,0.31,1.869,0.834,1.869h0.047c0.456-0.027,0.684-0.287,0.684-0.779C203.589,42.609,203.578,42.492,203.558,42.363z"
				/>
			<path fill="#2B1C48" d="M209.123,38.589c1.724,0.07,2.586,0.717,2.586,1.939v4.16l-1.831,0.023l-0.063-0.557
				c-0.377,0.32-0.878,0.48-1.501,0.48c-0.268,0-0.556-0.031-0.865-0.094c-0.927-0.172-1.391-0.707-1.391-1.605
				c0-0.109,0.008-0.227,0.023-0.352c0.104-0.926,0.987-1.389,2.648-1.389c0.32,0,0.671,0.018,1.054,0.053v-0.68
				c0-0.551-0.233-0.826-0.699-0.826h-0.032c-0.036-0.004-0.07-0.006-0.102-0.006c-0.509,0-0.763,0.309-0.763,0.926v0.088
				l-1.871-0.117c0-1.363,0.881-2.045,2.642-2.045H209.123z M209.783,43.218v-1.031c-0.226-0.035-0.43-0.053-0.613-0.053
				c-0.477,0-0.802,0.119-0.975,0.357c-0.104,0.145-0.157,0.279-0.157,0.404c0,0.156,0.084,0.295,0.252,0.416
				c0.131,0.094,0.301,0.141,0.511,0.141C209.068,43.453,209.396,43.375,209.783,43.218z"/>
			<path fill="#2B1C48" d="M214.476,36.486c-0.058,1.176-0.086,2.197-0.086,3.064c0.277-0.371,0.631-0.588,1.061-0.65
				c0.073-0.004,0.145-0.006,0.213-0.006c1.708,0,2.58,0.92,2.617,2.76v0.105c0,1.844-0.909,2.766-2.728,2.766
				c-0.435,0-0.847-0.217-1.234-0.65l-0.062,0.896l-1.863-0.006c0.026-1.43,0.04-2.805,0.04-4.125c0-1.449-0.017-2.834-0.048-4.154
				H214.476z M214.39,40.646l-0.039,2.027c0.271,0.414,0.618,0.621,1.037,0.621c0.047,0,0.095-0.002,0.142-0.006
				c0.481-0.051,0.749-0.533,0.802-1.447c0.005-0.094,0.008-0.184,0.008-0.27c0-0.75-0.204-1.197-0.613-1.342
				c-0.126-0.043-0.249-0.064-0.369-0.064C215.026,40.166,214.704,40.326,214.39,40.646z"/>
			<path fill="#2B1C48" d="M221.943,38.589c1.724,0.07,2.586,0.717,2.586,1.939v4.16l-1.831,0.023l-0.063-0.557
				c-0.377,0.32-0.878,0.48-1.501,0.48c-0.268,0-0.556-0.031-0.865-0.094c-0.927-0.172-1.391-0.707-1.391-1.605
				c0-0.109,0.008-0.227,0.023-0.352c0.104-0.926,0.987-1.389,2.648-1.389c0.32,0,0.671,0.018,1.054,0.053v-0.68
				c0-0.551-0.233-0.826-0.699-0.826h-0.032c-0.036-0.004-0.07-0.006-0.102-0.006c-0.509,0-0.763,0.309-0.763,0.926v0.088
				l-1.871-0.117c0-1.363,0.881-2.045,2.642-2.045H221.943z M222.604,43.218v-1.031c-0.226-0.035-0.43-0.053-0.613-0.053
				c-0.477,0-0.802,0.119-0.975,0.357c-0.104,0.145-0.157,0.279-0.157,0.404c0,0.156,0.084,0.295,0.252,0.416
				c0.131,0.094,0.301,0.141,0.511,0.141C221.889,43.453,222.216,43.375,222.604,43.218z"/>
			<path fill="#2B1C48" d="M234.032,36.486c-0.031,1.32-0.047,2.705-0.047,4.154c0,1.32,0.013,2.695,0.039,4.125l-1.863,0.006
				l-0.062-0.896c-0.388,0.434-0.904,0.65-1.549,0.65c-1.608,0-2.413-0.918-2.413-2.754c0-0.039,0.003-0.078,0.008-0.117
				c0.031-1.84,0.828-2.76,2.39-2.76c0.063,0,0.129,0.002,0.196,0.006c0.535,0.023,0.967,0.24,1.298,0.65
				c0-0.867-0.029-1.889-0.087-3.064H234.032z M232.067,42.673l-0.039-2.027c-0.305-0.309-0.616-0.463-0.936-0.463
				c-0.132,0-0.263,0.025-0.394,0.076c-0.414,0.16-0.621,0.609-0.621,1.348c0,0.086,0.003,0.174,0.008,0.264
				c0.053,0.895,0.32,1.367,0.802,1.418c0.048,0.004,0.095,0.006,0.142,0.006C231.449,43.294,231.795,43.087,232.067,42.673z"/>
			<path fill="#2B1C48" d="M237.208,38.759c1.818,0,2.728,0.9,2.728,2.701c0,0.219-0.014,0.453-0.039,0.703h-3.514
				c0,1.004,0.259,1.506,0.778,1.506h0.055c0.456-0.027,0.684-0.287,0.684-0.779c0-0.105-0.011-0.223-0.031-0.352l1.871-0.029
				c0,1.488-0.873,2.242-2.618,2.262c-0.021,0.004-0.039,0.006-0.055,0.006c-1.661,0-2.492-0.939-2.492-2.818v-0.176
				C234.627,39.767,235.505,38.759,237.208,38.759z M236.194,41.085h1.776v-0.141c0-0.711-0.271-1.066-0.81-1.066
				C236.579,39.878,236.257,40.281,236.194,41.085z"/>
			<path fill="#2B1C48" d="M97.214,51.29l1.784-0.088v1.939l1.502-0.029l0.023,1.107l-1.525,0.053v2.666
				c0,0.621,0.354,0.932,1.062,0.932c0.146,0,0.307-0.014,0.479-0.041l-0.071,1.289c-0.251,0.023-0.489,0.035-0.715,0.035
				c-1.656,0-2.5-0.637-2.531-1.91v-2.865l-1.289,0.059l-0.031-1.307l1.32,0.012L97.214,51.29z"/>
			<path fill="#2B1C48" d="M103.73,53.159c1.818,0,2.728,0.9,2.728,2.701c0,0.219-0.014,0.453-0.039,0.703h-3.514
				c0,1.004,0.259,1.506,0.778,1.506h0.055c0.456-0.027,0.684-0.287,0.684-0.779c0-0.105-0.011-0.223-0.031-0.352l1.871-0.029
				c0,1.488-0.873,2.242-2.618,2.262c-0.021,0.004-0.039,0.006-0.055,0.006c-1.661,0-2.492-0.939-2.492-2.818v-0.176
				C101.149,54.167,102.027,53.159,103.73,53.159z M102.717,55.485h1.776v-0.141c0-0.711-0.271-1.066-0.81-1.066
				C103.102,54.278,102.779,54.681,102.717,55.485z"/>
			<path fill="#2B1C48" d="M109.139,54.976l0.078,4.248l-1.926,0.012c0-1.797-0.081-3.814-0.243-6.053l1.446-0.117l0.078,0.955
				c0.221-0.469,0.734-0.736,1.541-0.803c0.12-0.008,0.236-0.012,0.346-0.012c0.634,0,1.116,0.154,1.446,0.463
				c0.383,0.367,0.576,0.951,0.582,1.752l-1.745,0.129c0.005-0.066,0.008-0.131,0.008-0.193c0-0.625-0.218-0.938-0.652-0.938h-0.031
				C109.563,54.438,109.254,54.624,109.139,54.976z"/>
			<path fill="#2B1C48" d="M114.279,53.036l0.031,0.938c0.283-0.449,0.61-0.729,0.982-0.838c0.221-0.062,0.443-0.094,0.668-0.094
				c0.168,0,0.336,0.016,0.503,0.047c0.409,0.078,0.7,0.391,0.873,0.938c0.136-0.426,0.372-0.71,0.707-0.853
				c0.336-0.143,0.708-0.216,1.116-0.22h0.031c0.398,0,0.781,0.072,1.148,0.217c0.372,0.148,0.656,0.427,0.853,0.835
				s0.3,0.968,0.311,1.679v3.404l-1.698,0.029c0.068-1.285,0.103-2.379,0.103-3.281s-0.23-1.389-0.691-1.459
				c-0.068-0.008-0.134-0.012-0.197-0.012c-0.366,0-0.649,0.176-0.849,0.527c-0.031,0.406-0.047,0.881-0.047,1.424
				c0,0.738,0.028,1.6,0.086,2.584l-1.965,0.012c0.073-1.512,0.11-2.613,0.11-3.305v-0.07c-0.006-0.684-0.187-1.043-0.543-1.078
				h-0.102c-0.32,0-0.629,0.137-0.928,0.41l0.016,4.289l-1.854,0.053v-0.961c0-1.703-0.034-3.404-0.103-5.104L114.279,53.036z"/>
			<path fill="#2B1C48" d="M124.176,51.812c0,0.238-0.113,0.441-0.338,0.609c-0.226,0.168-0.498,0.252-0.818,0.252
				c-0.313,0-0.584-0.084-0.81-0.252c-0.225-0.168-0.338-0.371-0.338-0.609c0-0.234,0.113-0.436,0.338-0.604
				c0.226-0.168,0.496-0.252,0.81-0.252c0.32,0,0.593,0.084,0.818,0.252C124.062,51.376,124.176,51.577,124.176,51.812z
				 M122.069,59.206c-0.037-2.285-0.056-4.26-0.056-5.924l1.981-0.088c-0.063,1.594-0.095,3.178-0.095,4.752
				c0,0.422,0.003,0.842,0.008,1.26H122.069z"/>
			<path fill="#2B1C48" d="M126.054,53.007l0.078,0.955c0.221-0.508,0.8-0.766,1.737-0.773h0.031c0.923,0,1.552,0.27,1.887,0.809
				c0.23,0.367,0.346,1.227,0.346,2.578c0,0.664-0.028,1.449-0.086,2.355h-1.902c0.068-1.207,0.103-2.143,0.103-2.807
				c0-0.332-0.008-0.598-0.024-0.797c-0.052-0.586-0.304-0.879-0.754-0.879c-0.451,0-0.734,0.156-0.849,0.469l0.078,4.248
				l-1.848,0.012c0-1.797-0.081-3.814-0.243-6.053L126.054,53.007z"/>
			<path fill="#2B1C48" d="M133.828,52.989c1.724,0.07,2.586,0.717,2.586,1.939v4.16l-1.831,0.023l-0.063-0.557
				c-0.377,0.32-0.878,0.48-1.501,0.48c-0.268,0-0.556-0.031-0.865-0.094c-0.927-0.172-1.391-0.707-1.391-1.605
				c0-0.109,0.008-0.227,0.023-0.352c0.104-0.926,0.987-1.389,2.648-1.389c0.32,0,0.671,0.018,1.054,0.053v-0.68
				c0-0.551-0.233-0.826-0.699-0.826h-0.032c-0.036-0.004-0.07-0.006-0.102-0.006c-0.509,0-0.763,0.309-0.763,0.926v0.088
				l-1.871-0.117c0-1.363,0.881-2.045,2.642-2.045H133.828z M134.488,57.618v-1.031c-0.226-0.035-0.43-0.053-0.613-0.053
				c-0.477,0-0.802,0.119-0.975,0.357c-0.104,0.145-0.157,0.279-0.157,0.404c0,0.156,0.084,0.295,0.252,0.416
				c0.131,0.094,0.301,0.141,0.511,0.141C133.773,57.853,134.101,57.774,134.488,57.618z"/>
			<path fill="#2B1C48" d="M139.134,54.976l0.078,4.248l-1.926,0.012c0-1.797-0.081-3.814-0.243-6.053l1.446-0.117l0.078,0.955
				c0.221-0.469,0.734-0.736,1.541-0.803c0.12-0.008,0.236-0.012,0.346-0.012c0.634,0,1.116,0.154,1.446,0.463
				c0.383,0.367,0.576,0.951,0.582,1.752l-1.745,0.129c0.005-0.066,0.008-0.131,0.008-0.193c0-0.625-0.218-0.938-0.652-0.938h-0.031
				C139.559,54.438,139.249,54.624,139.134,54.976z"/>
			<path fill="#2B1C48" d="M148.495,53.159c1.818,0,2.728,0.9,2.728,2.701c0,0.219-0.014,0.453-0.039,0.703h-3.514
				c0,1.004,0.259,1.506,0.778,1.506h0.055c0.456-0.027,0.684-0.287,0.684-0.779c0-0.105-0.011-0.223-0.031-0.352l1.871-0.029
				c0,1.488-0.873,2.242-2.618,2.262c-0.021,0.004-0.039,0.006-0.055,0.006c-1.661,0-2.492-0.939-2.492-2.818v-0.176
				C145.914,54.167,146.792,53.159,148.495,53.159z M147.481,55.485h1.776v-0.141c0-0.711-0.271-1.066-0.81-1.066
				C147.866,54.278,147.544,54.681,147.481,55.485z"/>
			<path fill="#2B1C48" d="M154.021,59.077l-1.957,0.135c0.021-1.293,0.031-2.537,0.031-3.732c0-1.68-0.021-3.264-0.063-4.752
				l1.926-0.023c-0.021,0.957-0.031,1.939-0.031,2.947C153.927,55.39,153.958,57.198,154.021,59.077z"/>
			<path fill="#2B1C48" d="M157.676,61.515c0.031-1.316,0.048-2.717,0.048-4.201c0-1.352-0.014-2.77-0.04-4.254l1.863-0.006
				l0.062,0.902c0.388-0.438,0.904-0.656,1.549-0.656c1.608,0,2.413,0.947,2.413,2.842v0.117c-0.037,1.898-0.839,2.848-2.405,2.848
				c-0.062,0-0.126-0.002-0.188-0.006c-0.534-0.02-0.967-0.236-1.297-0.65c0,0.867,0.028,1.889,0.086,3.064H157.676z
				 M159.642,55.157l0.039,2.203c0.304,0.309,0.61,0.463,0.919,0.463c0.126,0,0.252-0.027,0.378-0.082
				c0.382-0.156,0.573-0.623,0.573-1.4c0-0.094-0.002-0.191-0.008-0.293c-0.052-0.953-0.307-1.455-0.762-1.506
				c-0.048-0.004-0.092-0.006-0.134-0.006C160.249,54.536,159.913,54.743,159.642,55.157z"/>
			<path fill="#2B1C48" d="M166.283,54.976l0.078,4.248l-1.926,0.012c0-1.797-0.081-3.814-0.243-6.053l1.446-0.117l0.078,0.955
				c0.221-0.469,0.734-0.736,1.541-0.803c0.12-0.008,0.236-0.012,0.346-0.012c0.634,0,1.116,0.154,1.446,0.463
				c0.383,0.367,0.576,0.951,0.582,1.752l-1.745,0.129c0.005-0.066,0.008-0.131,0.008-0.193c0-0.625-0.218-0.938-0.652-0.938h-0.031
				C166.708,54.438,166.398,54.624,166.283,54.976z"/>
			<path fill="#2B1C48" d="M172.359,51.812c0,0.238-0.113,0.441-0.338,0.609c-0.226,0.168-0.498,0.252-0.818,0.252
				c-0.313,0-0.584-0.084-0.81-0.252c-0.225-0.168-0.338-0.371-0.338-0.609c0-0.234,0.113-0.436,0.338-0.604
				c0.226-0.168,0.496-0.252,0.81-0.252c0.32,0,0.593,0.084,0.818,0.252C172.246,51.376,172.359,51.577,172.359,51.812z
				 M170.253,59.206c-0.037-2.285-0.056-4.26-0.056-5.924l1.981-0.088c-0.063,1.594-0.095,3.178-0.095,4.752
				c0,0.422,0.003,0.842,0.008,1.26H170.253z"/>
			<path fill="#2B1C48" d="M174.057,53.036l0.031,0.938c0.283-0.449,0.61-0.729,0.982-0.838c0.221-0.062,0.443-0.094,0.668-0.094
				c0.168,0,0.336,0.016,0.503,0.047c0.409,0.078,0.7,0.391,0.873,0.938c0.136-0.426,0.372-0.71,0.707-0.853
				c0.336-0.143,0.708-0.216,1.116-0.22h0.031c0.398,0,0.781,0.072,1.148,0.217c0.372,0.148,0.656,0.427,0.853,0.835
				s0.3,0.968,0.311,1.679v3.404l-1.698,0.029c0.068-1.285,0.103-2.379,0.103-3.281s-0.23-1.389-0.691-1.459
				c-0.068-0.008-0.134-0.012-0.197-0.012c-0.366,0-0.649,0.176-0.849,0.527c-0.031,0.406-0.047,0.881-0.047,1.424
				c0,0.738,0.028,1.6,0.086,2.584l-1.965,0.012c0.073-1.512,0.11-2.613,0.11-3.305v-0.07c-0.006-0.684-0.187-1.043-0.543-1.078
				h-0.102c-0.32,0-0.629,0.137-0.928,0.41l0.016,4.289l-1.854,0.053v-0.961c0-1.703-0.034-3.404-0.103-5.104L174.057,53.036z"/>
			<path fill="#2B1C48" d="M184.307,53.159c1.818,0,2.728,0.9,2.728,2.701c0,0.219-0.014,0.453-0.039,0.703h-3.514
				c0,1.004,0.259,1.506,0.778,1.506h0.055c0.456-0.027,0.684-0.287,0.684-0.779c0-0.105-0.011-0.223-0.031-0.352l1.871-0.029
				c0,1.488-0.873,2.242-2.618,2.262c-0.021,0.004-0.039,0.006-0.055,0.006c-1.661,0-2.492-0.939-2.492-2.818v-0.176
				C181.726,54.167,182.604,53.159,184.307,53.159z M183.293,55.485h1.776v-0.141c0-0.711-0.271-1.066-0.81-1.066
				C183.678,54.278,183.355,54.681,183.293,55.485z"/>
			<path fill="#2B1C48" d="M189.715,54.976l0.078,4.248l-1.926,0.012c0-1.797-0.081-3.814-0.243-6.053l1.446-0.117l0.078,0.955
				c0.221-0.469,0.734-0.736,1.541-0.803c0.12-0.008,0.236-0.012,0.346-0.012c0.634,0,1.116,0.154,1.446,0.463
				c0.383,0.367,0.576,0.951,0.582,1.752l-1.745,0.129c0.005-0.066,0.008-0.131,0.008-0.193c0-0.625-0.218-0.938-0.652-0.938h-0.031
				C190.14,54.438,189.83,54.624,189.715,54.976z"/>
			<path fill="#2B1C48" d="M197.834,51.29l1.784-0.088v1.939l1.502-0.029l0.023,1.107l-1.525,0.053v2.666
				c0,0.621,0.354,0.932,1.062,0.932c0.146,0,0.307-0.014,0.479-0.041l-0.071,1.289c-0.251,0.023-0.489,0.035-0.715,0.035
				c-1.656,0-2.5-0.637-2.531-1.91v-2.865l-1.289,0.059l-0.031-1.307l1.32,0.012L197.834,51.29z"/>
			<path fill="#2B1C48" d="M204.351,53.159c1.818,0,2.728,0.9,2.728,2.701c0,0.219-0.014,0.453-0.039,0.703h-3.514
				c0,1.004,0.259,1.506,0.778,1.506h0.055c0.456-0.027,0.684-0.287,0.684-0.779c0-0.105-0.011-0.223-0.031-0.352l1.871-0.029
				c0,1.488-0.873,2.242-2.618,2.262c-0.021,0.004-0.039,0.006-0.055,0.006c-1.661,0-2.492-0.939-2.492-2.818v-0.176
				C201.77,54.167,202.647,53.159,204.351,53.159z M203.337,55.485h1.776v-0.141c0-0.711-0.271-1.066-0.81-1.066
				C203.722,54.278,203.399,54.681,203.337,55.485z"/>
			<path fill="#2B1C48" d="M208.934,53.036l0.031,0.938c0.283-0.449,0.61-0.729,0.982-0.838c0.221-0.062,0.443-0.094,0.668-0.094
				c0.168,0,0.336,0.016,0.503,0.047c0.409,0.078,0.7,0.391,0.873,0.938c0.136-0.426,0.372-0.71,0.707-0.853
				c0.336-0.143,0.708-0.216,1.116-0.22h0.031c0.398,0,0.781,0.072,1.148,0.217c0.372,0.148,0.656,0.427,0.853,0.835
				s0.3,0.968,0.311,1.679v3.404l-1.698,0.029c0.068-1.285,0.103-2.379,0.103-3.281s-0.23-1.389-0.691-1.459
				c-0.068-0.008-0.134-0.012-0.197-0.012c-0.366,0-0.649,0.176-0.849,0.527c-0.031,0.406-0.047,0.881-0.047,1.424
				c0,0.738,0.028,1.6,0.086,2.584l-1.965,0.012c0.073-1.512,0.11-2.613,0.11-3.305v-0.07c-0.006-0.684-0.187-1.043-0.543-1.078
				h-0.102c-0.32,0-0.629,0.137-0.928,0.41l0.016,4.289l-1.854,0.053v-0.961c0-1.703-0.034-3.404-0.103-5.104L208.934,53.036z"/>
			<path fill="#2B1C48" d="M219.671,52.989c1.724,0.07,2.586,0.717,2.586,1.939v4.16l-1.831,0.023l-0.063-0.557
				c-0.377,0.32-0.878,0.48-1.501,0.48c-0.268,0-0.556-0.031-0.865-0.094c-0.927-0.172-1.391-0.707-1.391-1.605
				c0-0.109,0.008-0.227,0.023-0.352c0.104-0.926,0.987-1.389,2.648-1.389c0.32,0,0.671,0.018,1.054,0.053v-0.68
				c0-0.551-0.233-0.826-0.699-0.826H219.6c-0.036-0.004-0.07-0.006-0.102-0.006c-0.509,0-0.763,0.309-0.763,0.926v0.088
				l-1.871-0.117c0-1.363,0.881-2.045,2.642-2.045H219.671z M220.331,57.618v-1.031c-0.226-0.035-0.43-0.053-0.613-0.053
				c-0.477,0-0.802,0.119-0.975,0.357c-0.104,0.145-0.157,0.279-0.157,0.404c0,0.156,0.084,0.295,0.252,0.416
				c0.131,0.094,0.301,0.141,0.511,0.141C219.616,57.853,219.943,57.774,220.331,57.618z"/>
			<path fill="#2B1C48" d="M225.723,57.097l1.801-0.064v0.076c0,0.602,0.248,0.906,0.746,0.914h0.031
				c0.482,0,0.724-0.174,0.724-0.521V57.46c-0.021-0.383-0.497-0.691-1.427-0.926s-1.489-0.629-1.678-1.184
				c-0.068-0.195-0.103-0.383-0.103-0.562c0-0.328,0.112-0.633,0.338-0.914c0.346-0.43,0.87-0.676,1.572-0.738
				c0.188-0.016,0.372-0.023,0.55-0.023c0.467,0,0.878,0.061,1.234,0.182c0.487,0.168,0.825,0.408,1.014,0.721
				c0.126,0.215,0.188,0.453,0.188,0.715c0,0.125-0.013,0.254-0.039,0.387l-1.682,0.029c0.016-0.098,0.023-0.188,0.023-0.27
				c0-0.391-0.168-0.6-0.503-0.627c-0.037-0.004-0.073-0.006-0.11-0.006c-0.346,0-0.579,0.131-0.699,0.393
				c-0.042,0.09-0.063,0.172-0.063,0.246c0,0.184,0.115,0.342,0.346,0.475c0.325,0.188,0.807,0.378,1.442,0.571
				c0.637,0.193,1.065,0.522,1.285,0.987c0.079,0.176,0.118,0.352,0.118,0.527c0,0.297-0.115,0.596-0.346,0.896
				c-0.367,0.48-0.936,0.76-1.706,0.838c-0.167,0.02-0.332,0.029-0.495,0.029c-0.576,0-1.11-0.111-1.604-0.334
				C226.053,58.587,225.733,57.995,225.723,57.097z"/>
			<path fill="#2B1C48" d="M234.165,53.159c1.782,0,2.673,0.922,2.673,2.766c0,0.074-0.003,0.148-0.008,0.223
				c-0.073,1.996-1.022,3.004-2.846,3.023c-0.021,0.004-0.042,0.006-0.062,0.006c-1.734,0-2.603-0.943-2.603-2.83v-0.164
				C231.372,54.167,232.32,53.159,234.165,53.159z M233.906,54.495c-0.33,0.086-0.556,0.404-0.677,0.955
				c-0.073,0.328-0.109,0.658-0.109,0.99c0,0.223,0.016,0.447,0.047,0.674c0.084,0.562,0.354,0.854,0.81,0.873h0.055
				c0.425,0,0.716-0.209,0.873-0.627c0.131-0.348,0.196-0.76,0.196-1.236c0-0.117-0.003-0.236-0.008-0.357
				c-0.042-0.629-0.168-1.021-0.377-1.178c-0.132-0.094-0.289-0.141-0.472-0.141C234.139,54.448,234.026,54.464,233.906,54.495z"/>
			<path fill="#2B1C48" d="M239.408,50.886c-0.058,1.176-0.086,2.197-0.086,3.064c0.277-0.371,0.631-0.588,1.061-0.65
				c0.073-0.004,0.145-0.006,0.213-0.006c1.708,0,2.58,0.92,2.617,2.76v0.105c0,1.844-0.909,2.766-2.728,2.766
				c-0.435,0-0.847-0.217-1.234-0.65l-0.062,0.896l-1.863-0.006c0.026-1.43,0.04-2.805,0.04-4.125c0-1.449-0.017-2.834-0.048-4.154
				H239.408z M239.322,55.046l-0.039,2.027c0.271,0.414,0.618,0.621,1.037,0.621c0.047,0,0.095-0.002,0.142-0.006
				c0.481-0.051,0.749-0.533,0.802-1.447c0.005-0.094,0.008-0.184,0.008-0.27c0-0.75-0.204-1.197-0.613-1.342
				c-0.126-0.043-0.249-0.064-0.369-0.064C239.959,54.565,239.637,54.726,239.322,55.046z"/>
			<path fill="#2B1C48" d="M245.925,54.976l0.078,4.248l-1.926,0.012c0-1.797-0.081-3.814-0.243-6.053l1.446-0.117l0.078,0.955
				c0.221-0.469,0.734-0.736,1.541-0.803c0.12-0.008,0.236-0.012,0.346-0.012c0.634,0,1.116,0.154,1.446,0.463
				c0.383,0.367,0.576,0.951,0.582,1.752l-1.745,0.129c0.005-0.066,0.008-0.131,0.008-0.193c0-0.625-0.218-0.938-0.652-0.938h-0.031
				C246.35,54.438,246.04,54.624,245.925,54.976z"/>
			<path fill="#2B1C48" d="M252.354,53.159c1.818,0,2.728,0.9,2.728,2.701c0,0.219-0.014,0.453-0.039,0.703h-3.514
				c0,1.004,0.259,1.506,0.778,1.506h0.055c0.456-0.027,0.684-0.287,0.684-0.779c0-0.105-0.011-0.223-0.031-0.352l1.871-0.029
				c0,1.488-0.873,2.242-2.618,2.262c-0.021,0.004-0.039,0.006-0.055,0.006c-1.661,0-2.492-0.939-2.492-2.818v-0.176
				C249.773,54.167,250.651,53.159,252.354,53.159z M251.341,55.485h1.776v-0.141c0-0.711-0.271-1.066-0.81-1.066
				C251.726,54.278,251.403,54.681,251.341,55.485z"/>
			<path fill="#2B1C48" d="M102.563,73.477l-1.957,0.135c0.021-1.293,0.031-2.537,0.031-3.732c0-1.68-0.021-3.264-0.063-4.752
				l1.926-0.023c-0.021,0.957-0.031,1.939-0.031,2.947C102.469,69.79,102.5,71.598,102.563,73.477z"/>
			<path fill="#2B1C48" d="M106.281,67.389c1.724,0.07,2.586,0.717,2.586,1.939v4.16l-1.831,0.023l-0.063-0.557
				c-0.377,0.32-0.878,0.48-1.501,0.48c-0.268,0-0.556-0.031-0.865-0.094c-0.927-0.172-1.391-0.707-1.391-1.605
				c0-0.109,0.008-0.227,0.023-0.352c0.104-0.926,0.987-1.389,2.648-1.389c0.32,0,0.671,0.018,1.054,0.053v-0.68
				c0-0.551-0.233-0.826-0.699-0.826h-0.032c-0.036-0.004-0.07-0.006-0.102-0.006c-0.509,0-0.763,0.309-0.763,0.926v0.088
				l-1.871-0.117c0-1.363,0.881-2.045,2.642-2.045H106.281z M106.941,72.018v-1.031c-0.226-0.035-0.43-0.053-0.613-0.053
				c-0.477,0-0.802,0.119-0.975,0.357c-0.104,0.145-0.157,0.279-0.157,0.404c0,0.156,0.084,0.295,0.252,0.416
				c0.131,0.094,0.301,0.141,0.511,0.141C106.227,72.252,106.554,72.174,106.941,72.018z"/>
			<path fill="#2B1C48" d="M114.856,64.764c-0.094,2.035-0.142,3.779-0.142,5.232c0,0.578,0.008,1.111,0.023,1.6l3.506-0.129
				l0.056,1.91l-5.612,0.094c0.005-0.516,0.008-1.029,0.008-1.541c0-2.348-0.068-4.684-0.205-7.008L114.856,64.764z"/>
			<path fill="#2B1C48" d="M121.601,67.559c1.818,0,2.728,0.9,2.728,2.701c0,0.219-0.014,0.453-0.039,0.703h-3.514
				c0,1.004,0.259,1.506,0.778,1.506h0.055c0.456-0.027,0.684-0.287,0.684-0.779c0-0.105-0.011-0.223-0.031-0.352l1.871-0.029
				c0,1.488-0.873,2.242-2.618,2.262c-0.021,0.004-0.039,0.006-0.055,0.006c-1.661,0-2.492-0.939-2.492-2.818v-0.176
				C119.02,68.567,119.897,67.559,121.601,67.559z M120.587,69.885h1.776v-0.141c0-0.711-0.271-1.066-0.81-1.066
				C120.972,68.678,120.649,69.081,120.587,69.885z"/>
			<path fill="#2B1C48" d="M124.902,67.536l2.06-0.123c-0.048,1.172-0.071,2.137-0.071,2.895c0,0.285,0.006,0.541,0.016,0.768
				c0.021,0.836,0.272,1.266,0.755,1.289c0.031,0.004,0.061,0.006,0.087,0.006c0.43,0,0.702-0.184,0.817-0.551
				c0.062-0.215,0.094-0.725,0.094-1.529c0-0.645-0.021-1.477-0.062-2.496l1.934-0.105c0.021,1.191,0.031,2.215,0.031,3.07
				c0,1.066-0.016,1.871-0.047,2.414c-0.053,0.977-0.428,1.719-1.124,2.227c-0.629,0.461-1.512,0.691-2.649,0.691
				c-0.131,0-0.265-0.004-0.4-0.012l-0.221-1.43c0.1,0.004,0.197,0.006,0.291,0.006c0.881,0,1.483-0.115,1.809-0.346
				c0.335-0.238,0.503-0.621,0.503-1.148v-0.094c-0.299,0.352-0.758,0.527-1.376,0.527h-0.11c-0.676-0.023-1.199-0.222-1.571-0.595
				s-0.575-0.896-0.609-1.57S124.971,69.458,124.902,67.536z"/>
			<path fill="#2B1C48" d="M138.256,64.987c-0.036,1.844-0.055,3.678-0.055,5.502c0,0.914,0.005,1.826,0.016,2.736l-1.949,0.076
				c-0.037-2.348-0.081-4.521-0.134-6.521c-0.439,0.066-1.037,0.23-1.792,0.492l-0.377-1.283l2.185-1.031L138.256,64.987z"/>
			<path fill="#2B1C48" d="M138.894,70.723l-0.165-1.4c0.901-1.469,1.944-2.988,3.128-4.559l2.531,0.105l-0.031,4.523l1.108,0.018
				v1.4h-1.077v2.467l-1.902-0.053l0.023-2.443L138.894,70.723z M142.541,69.411l0.023-3.023c-0.577,0.992-1.189,1.99-1.84,2.994
				L142.541,69.411z"/>
			<path fill="#2B1C48" d="M146.133,70.723l-0.165-1.4c0.901-1.469,1.944-2.988,3.128-4.559l2.531,0.105l-0.031,4.523l1.108,0.018
				v1.4h-1.077v2.467l-1.902-0.053l0.023-2.443L146.133,70.723z M149.78,69.411l0.023-3.023c-0.577,0.992-1.189,1.99-1.84,2.994
				L149.78,69.411z"/>
			<path fill="#2B1C48" d="M157.821,69.153c0.712,0.238,1.155,0.582,1.328,1.031c0.12,0.312,0.181,0.633,0.181,0.961
				c0,0.148-0.013,0.299-0.039,0.451c-0.079,0.488-0.345,0.91-0.798,1.266s-1.151,0.541-2.095,0.557h-0.126
				c-0.886,0-1.593-0.172-2.122-0.516c-0.556-0.355-0.844-0.857-0.865-1.506c-0.005-0.043-0.008-0.086-0.008-0.129
				c0-0.59,0.152-1.061,0.456-1.412c0.325-0.375,0.726-0.611,1.203-0.709c-0.352-0.105-0.708-0.315-1.069-0.63
				s-0.548-0.767-0.558-1.356v-0.053c0-0.562,0.156-1.055,0.471-1.477c0.32-0.43,0.844-0.695,1.572-0.797
				c0.356-0.051,0.697-0.076,1.022-0.076c0.33,0,0.645,0.027,0.943,0.082c0.581,0.105,1.046,0.342,1.395,0.709
				s0.536,0.852,0.562,1.453v0.17c0,0.523-0.115,0.93-0.346,1.219C158.673,68.715,158.303,68.969,157.821,69.153z M156.335,69.745
				c-0.534,0.211-0.849,0.461-0.942,0.75c-0.053,0.164-0.079,0.322-0.079,0.475c0,0.117,0.016,0.23,0.047,0.34
				c0.073,0.258,0.213,0.441,0.417,0.551c0.146,0.082,0.317,0.123,0.511,0.123c0.073,0,0.152-0.006,0.236-0.018
				c0.293-0.039,0.507-0.134,0.641-0.284c0.133-0.15,0.21-0.358,0.231-0.624c0.005-0.031,0.008-0.064,0.008-0.1
				c0-0.227-0.062-0.441-0.188-0.645C157.069,70.079,156.775,69.889,156.335,69.745z M156.319,68.268
				c0.545-0.176,0.862-0.459,0.951-0.85c0.037-0.148,0.056-0.285,0.056-0.41c0-0.195-0.045-0.359-0.134-0.492
				c-0.142-0.215-0.391-0.33-0.747-0.346h-0.07c-0.325,0-0.579,0.102-0.763,0.305c-0.146,0.164-0.22,0.375-0.22,0.633
				c0,0.094,0.01,0.195,0.031,0.305C155.497,67.815,155.796,68.1,156.319,68.268z"/>
			<path fill="#2B1C48" d="M168.699,65.286c-0.031,1.32-0.047,2.705-0.047,4.154c0,1.32,0.013,2.695,0.039,4.125l-1.863,0.006
				l-0.062-0.896c-0.388,0.434-0.904,0.65-1.549,0.65c-1.608,0-2.413-0.918-2.413-2.754c0-0.039,0.003-0.078,0.008-0.117
				c0.031-1.84,0.828-2.76,2.39-2.76c0.063,0,0.129,0.002,0.196,0.006c0.535,0.023,0.967,0.24,1.298,0.65
				c0-0.867-0.029-1.889-0.087-3.064H168.699z M166.734,71.473l-0.039-2.027c-0.305-0.309-0.616-0.463-0.936-0.463
				c-0.132,0-0.263,0.025-0.394,0.076c-0.414,0.16-0.621,0.609-0.621,1.348c0,0.086,0.003,0.174,0.008,0.264
				c0.053,0.895,0.32,1.367,0.802,1.418c0.048,0.004,0.095,0.006,0.142,0.006C166.116,72.094,166.462,71.887,166.734,71.473z"/>
			<path fill="#2B1C48" d="M171.875,67.559c1.818,0,2.728,0.9,2.728,2.701c0,0.219-0.014,0.453-0.039,0.703h-3.514
				c0,1.004,0.259,1.506,0.778,1.506h0.055c0.456-0.027,0.684-0.287,0.684-0.779c0-0.105-0.011-0.223-0.031-0.352l1.871-0.029
				c0,1.488-0.873,2.242-2.618,2.262c-0.021,0.004-0.039,0.006-0.055,0.006c-1.661,0-2.492-0.939-2.492-2.818v-0.176
				C169.294,68.567,170.172,67.559,171.875,67.559z M170.861,69.885h1.776v-0.141c0-0.711-0.271-1.066-0.81-1.066
				C171.246,68.678,170.924,69.081,170.861,69.885z"/>
			<path fill="#2B1C48" d="M178.376,67.706c-0.026-0.234-0.04-0.451-0.04-0.65c0-0.699,0.171-1.203,0.511-1.512
				c0.436-0.395,0.991-0.631,1.667-0.709c0.241-0.027,0.477-0.041,0.707-0.041c0.414,0,0.812,0.043,1.195,0.129
				c0.597,0.137,1.048,0.406,1.352,0.809c0.246,0.336,0.369,0.766,0.369,1.289c0,0.102-0.002,0.209-0.008,0.322
				c-0.062,0.672-0.334,1.29-0.813,1.854s-1.309,1.372-2.487,2.423l3.435,0.018l-0.023,1.471c-1.504,0.051-3.442,0.076-5.816,0.076
				l-0.181-1.6c1.425-1.148,2.441-2.031,3.05-2.648c0.555-0.566,0.833-1.123,0.833-1.67V67.12c-0.058-0.586-0.388-0.879-0.99-0.879
				h-0.031c-0.524,0.012-0.786,0.367-0.786,1.066c0,0.133,0.008,0.275,0.023,0.428L178.376,67.706z"/>
			<path fill="#2B1C48" d="M188.279,64.823c2.07,0,3.105,1.406,3.105,4.219c0,2.816-1.108,4.225-3.325,4.225
				s-3.325-1.459-3.325-4.377C184.734,66.178,185.916,64.823,188.279,64.823z M186.865,69.083c-0.006,0.105-0.008,0.207-0.008,0.305
				c0,1.543,0.427,2.314,1.28,2.314c0.901,0,1.353-0.873,1.353-2.619s-0.422-2.619-1.266-2.619S186.928,67.336,186.865,69.083z"/>
			<path fill="#2B1C48" d="M195.982,64.987c-0.036,1.844-0.055,3.678-0.055,5.502c0,0.914,0.005,1.826,0.016,2.736l-1.949,0.076
				c-0.037-2.348-0.081-4.521-0.134-6.521c-0.439,0.066-1.037,0.23-1.792,0.492l-0.377-1.283l2.185-1.031L195.982,64.987z"/>
			<path fill="#2B1C48" d="M200.723,64.987c-0.036,1.844-0.055,3.678-0.055,5.502c0,0.914,0.005,1.826,0.016,2.736l-1.949,0.076
				c-0.037-2.348-0.081-4.521-0.134-6.521c-0.439,0.066-1.037,0.23-1.792,0.492l-0.377-1.283l2.185-1.031L200.723,64.987z"/>
			<path fill="#2B1C48" d="M201.368,74.333c0.582-0.125,0.92-0.365,1.014-0.721c-0.403-0.102-0.668-0.223-0.794-0.363
				c-0.125-0.141-0.188-0.299-0.188-0.475s0.05-0.331,0.149-0.466s0.242-0.237,0.429-0.308c0.186-0.07,0.37-0.107,0.554-0.111h0.016
				c0.173,0,0.341,0.023,0.503,0.07c0.163,0.051,0.295,0.127,0.397,0.229s0.174,0.21,0.216,0.325s0.065,0.253,0.071,0.413v0.023
				c0,0.156-0.029,0.328-0.087,0.516c-0.058,0.199-0.157,0.389-0.299,0.568s-0.347,0.351-0.617,0.513
				c-0.27,0.162-0.672,0.259-1.206,0.29L201.368,74.333z"/>
			<path fill="#2B1C48" d="M210.51,71.163l1.871,0.088c0,1.41-0.873,2.125-2.618,2.145c-0.021,0.004-0.039,0.006-0.055,0.006
				c-1.661,0-2.492-0.939-2.492-2.818v-0.176c0.053-2.016,0.938-3.033,2.657-3.053h0.062c1.583,0,2.374,0.676,2.374,2.027
				c0,0.078-0.003,0.156-0.008,0.234l-1.689,0.094v-0.141c0-0.711-0.271-1.066-0.81-1.066c-0.551,0-0.826,0.576-0.826,1.729v0.193
				c0.032,1.246,0.31,1.869,0.834,1.869h0.047c0.456-0.027,0.684-0.287,0.684-0.779C210.541,71.409,210.53,71.292,210.51,71.163z"/>
			<path fill="#2B1C48" d="M215.8,67.559c1.782,0,2.673,0.922,2.673,2.766c0,0.074-0.003,0.148-0.008,0.223
				c-0.073,1.996-1.022,3.004-2.846,3.023c-0.021,0.004-0.042,0.006-0.062,0.006c-1.734,0-2.603-0.943-2.603-2.83v-0.164
				C213.007,68.567,213.955,67.559,215.8,67.559z M215.541,68.895c-0.33,0.086-0.556,0.404-0.677,0.955
				c-0.073,0.328-0.109,0.658-0.109,0.99c0,0.223,0.016,0.447,0.047,0.674c0.084,0.562,0.354,0.854,0.81,0.873h0.055
				c0.425,0,0.716-0.209,0.873-0.627c0.131-0.348,0.196-0.76,0.196-1.236c0-0.117-0.003-0.236-0.008-0.357
				c-0.042-0.629-0.168-1.021-0.377-1.178c-0.132-0.094-0.289-0.141-0.472-0.141C215.773,68.848,215.661,68.864,215.541,68.895z"/>
			<path fill="#2B1C48" d="M220.352,67.407l0.078,0.955c0.221-0.508,0.8-0.766,1.737-0.773h0.031c0.923,0,1.552,0.27,1.887,0.809
				c0.23,0.367,0.346,1.227,0.346,2.578c0,0.664-0.028,1.449-0.086,2.355h-1.902c0.068-1.207,0.103-2.143,0.103-2.807
				c0-0.332-0.008-0.598-0.024-0.797c-0.052-0.586-0.304-0.879-0.754-0.879c-0.451,0-0.734,0.156-0.849,0.469l0.078,4.248
				l-1.848,0.012c0-1.797-0.081-3.814-0.243-6.053L220.352,67.407z"/>
			<path fill="#2B1C48" d="M226.396,65.69l1.784-0.088v1.939l1.502-0.029l0.023,1.107l-1.525,0.053v2.666
				c0,0.621,0.354,0.932,1.062,0.932c0.146,0,0.307-0.014,0.479-0.041l-0.071,1.289c-0.251,0.023-0.489,0.035-0.715,0.035
				c-1.656,0-2.5-0.637-2.531-1.91v-2.865l-1.289,0.059l-0.031-1.307l1.32,0.012L226.396,65.69z"/>
			<path fill="#2B1C48" d="M232.56,66.211c0,0.238-0.113,0.441-0.338,0.609c-0.226,0.168-0.498,0.252-0.818,0.252
				c-0.313,0-0.584-0.084-0.81-0.252c-0.225-0.168-0.338-0.371-0.338-0.609c0-0.234,0.113-0.436,0.338-0.604
				c0.226-0.168,0.496-0.252,0.81-0.252c0.32,0,0.593,0.084,0.818,0.252C232.446,65.776,232.56,65.977,232.56,66.211z
				 M230.453,73.606c-0.037-2.285-0.056-4.26-0.056-5.924l1.981-0.088c-0.063,1.594-0.095,3.178-0.095,4.752
				c0,0.422,0.003,0.842,0.008,1.26H230.453z"/>
			<path fill="#2B1C48" d="M234.438,67.407l0.078,0.955c0.221-0.508,0.8-0.766,1.737-0.773h0.031c0.923,0,1.552,0.27,1.887,0.809
				c0.23,0.367,0.346,1.227,0.346,2.578c0,0.664-0.028,1.449-0.086,2.355h-1.902c0.068-1.207,0.103-2.143,0.103-2.807
				c0-0.332-0.008-0.598-0.024-0.797c-0.052-0.586-0.304-0.879-0.754-0.879c-0.451,0-0.734,0.156-0.849,0.469l0.078,4.248
				l-1.848,0.012c0-1.797-0.081-3.814-0.243-6.053L234.438,67.407z"/>
			<path fill="#2B1C48" d="M243.249,73.577l-0.078-0.955c-0.22,0.508-0.812,0.764-1.776,0.768c-0.011,0.004-0.019,0.006-0.023,0.006
				c-0.954,0-1.586-0.32-1.895-0.961c-0.21-0.426-0.314-1.307-0.314-2.643c0-0.688,0.028-1.498,0.086-2.432h1.91
				c-0.104,1.312-0.157,2.322-0.157,3.029c0,0.355,0.014,0.633,0.04,0.832c0.078,0.609,0.343,0.914,0.794,0.914
				c0.45,0,0.733-0.158,0.849-0.475l-0.079-4.066l1.848-0.012c0,1.68,0.081,3.637,0.243,5.871L243.249,73.577z M241.001,66.247
				c0.613-0.543,1.116-1.061,1.51-1.553l1.289,0.762c-0.556,0.406-1.174,0.904-1.855,1.494L241.001,66.247z"/>
			<path fill="#2B1C48" d="M247.903,67.559c1.818,0,2.728,0.9,2.728,2.701c0,0.219-0.014,0.453-0.039,0.703h-3.514
				c0,1.004,0.259,1.506,0.778,1.506h0.055c0.456-0.027,0.684-0.287,0.684-0.779c0-0.105-0.011-0.223-0.031-0.352l1.871-0.029
				c0,1.488-0.873,2.242-2.618,2.262c-0.021,0.004-0.039,0.006-0.055,0.006c-1.661,0-2.492-0.939-2.492-2.818v-0.176
				C245.322,68.567,246.2,67.559,247.903,67.559z M246.89,69.885h1.776v-0.141c0-0.711-0.271-1.066-0.81-1.066
				C247.274,68.678,246.952,69.081,246.89,69.885z"/>
			<path fill="#2B1C48" d="M140.097,85.562l1.871,0.088c0,1.41-0.873,2.125-2.618,2.145c-0.021,0.004-0.039,0.006-0.055,0.006
				c-1.661,0-2.492-0.939-2.492-2.818v-0.176c0.053-2.016,0.938-3.033,2.657-3.053h0.062c1.583,0,2.374,0.676,2.374,2.027
				c0,0.078-0.003,0.156-0.008,0.234l-1.689,0.094v-0.141c0-0.711-0.271-1.066-0.81-1.066c-0.551,0-0.826,0.576-0.826,1.729v0.193
				c0.032,1.246,0.31,1.869,0.834,1.869h0.047c0.456-0.027,0.684-0.287,0.684-0.779C140.128,85.809,140.117,85.691,140.097,85.562z"
				/>
			<path fill="#2B1C48" d="M145.387,81.959c1.782,0,2.673,0.922,2.673,2.766c0,0.074-0.003,0.148-0.008,0.223
				c-0.073,1.996-1.022,3.004-2.846,3.023c-0.021,0.004-0.042,0.006-0.062,0.006c-1.734,0-2.603-0.943-2.603-2.83v-0.164
				C142.594,82.967,143.542,81.959,145.387,81.959z M145.128,83.295c-0.33,0.086-0.556,0.404-0.677,0.955
				c-0.073,0.328-0.109,0.658-0.109,0.99c0,0.223,0.016,0.447,0.047,0.674c0.084,0.562,0.354,0.854,0.81,0.873h0.055
				c0.425,0,0.716-0.209,0.873-0.627c0.131-0.348,0.196-0.76,0.196-1.236c0-0.117-0.003-0.236-0.008-0.357
				c-0.042-0.629-0.168-1.021-0.377-1.178c-0.132-0.094-0.289-0.141-0.472-0.141C145.36,83.248,145.248,83.264,145.128,83.295z"/>
			<path fill="#2B1C48" d="M149.938,81.807l0.078,0.955c0.221-0.508,0.8-0.766,1.737-0.773h0.031c0.923,0,1.552,0.27,1.887,0.809
				c0.23,0.367,0.346,1.227,0.346,2.578c0,0.664-0.028,1.449-0.086,2.355h-1.902c0.068-1.207,0.103-2.143,0.103-2.807
				c0-0.332-0.008-0.598-0.024-0.797c-0.052-0.586-0.304-0.879-0.754-0.879c-0.451,0-0.734,0.156-0.849,0.469l0.078,4.248
				l-1.848,0.012c0-1.797-0.081-3.814-0.243-6.053L149.938,81.807z"/>
			<path fill="#2B1C48" d="M159.812,87.877l-1.957,0.135c0.021-1.293,0.031-2.537,0.031-3.732c0-1.68-0.021-3.264-0.063-4.752
				l1.926-0.023c-0.021,0.957-0.031,1.939-0.031,2.947C159.717,84.189,159.748,85.998,159.812,87.877z"/>
			<path fill="#2B1C48" d="M163.529,81.789c1.724,0.07,2.586,0.717,2.586,1.939v4.16l-1.831,0.023l-0.063-0.557
				c-0.377,0.32-0.878,0.48-1.501,0.48c-0.268,0-0.556-0.031-0.865-0.094c-0.927-0.172-1.391-0.707-1.391-1.605
				c0-0.109,0.008-0.227,0.023-0.352c0.104-0.926,0.987-1.389,2.648-1.389c0.32,0,0.671,0.018,1.054,0.053v-0.68
				c0-0.551-0.233-0.826-0.699-0.826h-0.032c-0.036-0.004-0.07-0.006-0.102-0.006c-0.509,0-0.763,0.309-0.763,0.926v0.088
				l-1.871-0.117c0-1.363,0.881-2.045,2.642-2.045H163.529z M164.189,86.418v-1.031c-0.226-0.035-0.43-0.053-0.613-0.053
				c-0.477,0-0.802,0.119-0.975,0.357c-0.104,0.145-0.157,0.279-0.157,0.404c0,0.156,0.084,0.295,0.252,0.416
				c0.131,0.094,0.301,0.141,0.511,0.141C163.475,86.652,163.802,86.574,164.189,86.418z"/>
			<path fill="#2B1C48" d="M176.152,79.387v5.795c0,1.785-1.095,2.678-3.285,2.678h-0.173c-1.834-0.156-2.783-0.904-2.846-2.244
				c0-2.676-0.037-4.785-0.11-6.328h2.091c-0.052,0.883-0.078,1.92-0.078,3.111c0,0.836,0.013,1.75,0.039,2.742
				c0.011,0.727,0.361,1.09,1.054,1.09c0,0.004,0.002,0.006,0.008,0.006c0.687,0,1.029-0.465,1.029-1.395l-0.039-5.402
				L176.152,79.387z"/>
			<path fill="#2B1C48" d="M178.291,81.807l0.078,0.955c0.221-0.508,0.8-0.766,1.737-0.773h0.031c0.923,0,1.552,0.27,1.887,0.809
				c0.23,0.367,0.346,1.227,0.346,2.578c0,0.664-0.028,1.449-0.086,2.355h-1.902c0.068-1.207,0.103-2.143,0.103-2.807
				c0-0.332-0.008-0.598-0.024-0.797c-0.052-0.586-0.304-0.879-0.754-0.879c-0.451,0-0.734,0.156-0.849,0.469l0.078,4.248
				l-1.848,0.012c0-1.797-0.081-3.814-0.243-6.053L178.291,81.807z"/>
			<path fill="#2B1C48" d="M185.225,80.611c0,0.238-0.113,0.441-0.338,0.609c-0.226,0.168-0.498,0.252-0.818,0.252
				c-0.313,0-0.584-0.084-0.81-0.252c-0.225-0.168-0.338-0.371-0.338-0.609c0-0.234,0.113-0.436,0.338-0.604
				c0.226-0.168,0.496-0.252,0.81-0.252c0.32,0,0.593,0.084,0.818,0.252C185.111,80.176,185.225,80.377,185.225,80.611z
				 M183.118,88.006c-0.037-2.285-0.056-4.26-0.056-5.924l1.981-0.088c-0.063,1.594-0.095,3.178-0.095,4.752
				c0,0.422,0.003,0.842,0.008,1.26H183.118z"/>
			<path fill="#2B1C48" d="M191.599,79.686c-0.031,1.32-0.047,2.705-0.047,4.154c0,1.32,0.013,2.695,0.039,4.125l-1.863,0.006
				l-0.062-0.896c-0.388,0.434-0.904,0.65-1.549,0.65c-1.608,0-2.413-0.918-2.413-2.754c0-0.039,0.003-0.078,0.008-0.117
				c0.031-1.84,0.828-2.76,2.39-2.76c0.063,0,0.129,0.002,0.196,0.006c0.535,0.023,0.967,0.24,1.298,0.65
				c0-0.867-0.029-1.889-0.087-3.064H191.599z M189.634,85.873l-0.039-2.027c-0.305-0.309-0.616-0.463-0.936-0.463
				c-0.132,0-0.263,0.025-0.394,0.076c-0.414,0.16-0.621,0.609-0.621,1.348c0,0.086,0.003,0.174,0.008,0.264
				c0.053,0.895,0.32,1.367,0.802,1.418c0.048,0.004,0.095,0.006,0.142,0.006C189.016,86.494,189.361,86.287,189.634,85.873z"/>
			<path fill="#2B1C48" d="M195.262,81.789c1.724,0.07,2.586,0.717,2.586,1.939v4.16l-1.831,0.023l-0.063-0.557
				c-0.377,0.32-0.878,0.48-1.501,0.48c-0.268,0-0.556-0.031-0.865-0.094c-0.927-0.172-1.391-0.707-1.391-1.605
				c0-0.109,0.008-0.227,0.023-0.352c0.104-0.926,0.987-1.389,2.648-1.389c0.32,0,0.671,0.018,1.054,0.053v-0.68
				c0-0.551-0.233-0.826-0.699-0.826h-0.032c-0.036-0.004-0.07-0.006-0.102-0.006c-0.509,0-0.763,0.309-0.763,0.926v0.088
				l-1.871-0.117c0-1.363,0.881-2.045,2.642-2.045H195.262z M195.922,86.418v-1.031c-0.226-0.035-0.43-0.053-0.613-0.053
				c-0.477,0-0.802,0.119-0.975,0.357c-0.104,0.145-0.157,0.279-0.157,0.404c0,0.156,0.084,0.295,0.252,0.416
				c0.131,0.094,0.301,0.141,0.511,0.141C195.207,86.652,195.534,86.574,195.922,86.418z"/>
			<path fill="#2B1C48" d="M204.419,79.686c-0.031,1.32-0.047,2.705-0.047,4.154c0,1.32,0.013,2.695,0.039,4.125l-1.863,0.006
				l-0.062-0.896c-0.388,0.434-0.904,0.65-1.549,0.65c-1.608,0-2.413-0.918-2.413-2.754c0-0.039,0.003-0.078,0.008-0.117
				c0.031-1.84,0.828-2.76,2.39-2.76c0.063,0,0.129,0.002,0.196,0.006c0.535,0.023,0.967,0.24,1.298,0.65
				c0-0.867-0.029-1.889-0.087-3.064H204.419z M202.454,85.873l-0.039-2.027c-0.305-0.309-0.616-0.463-0.936-0.463
				c-0.132,0-0.263,0.025-0.394,0.076c-0.414,0.16-0.621,0.609-0.621,1.348c0,0.086,0.003,0.174,0.008,0.264
				c0.053,0.895,0.32,1.367,0.802,1.418c0.048,0.004,0.095,0.006,0.142,0.006C201.836,86.494,202.182,86.287,202.454,85.873z"/>
			<path fill="#2B1C48" d="M208.224,82.105c-0.026-0.234-0.04-0.451-0.04-0.65c0-0.699,0.171-1.203,0.511-1.512
				c0.436-0.395,0.991-0.631,1.667-0.709c0.241-0.027,0.477-0.041,0.707-0.041c0.414,0,0.812,0.043,1.195,0.129
				c0.597,0.137,1.048,0.406,1.352,0.809c0.246,0.336,0.369,0.766,0.369,1.289c0,0.102-0.002,0.209-0.008,0.322
				c-0.062,0.672-0.334,1.29-0.813,1.854s-1.309,1.372-2.487,2.423l3.435,0.018l-0.023,1.471c-1.504,0.051-3.442,0.076-5.816,0.076
				l-0.181-1.6c1.425-1.148,2.441-2.031,3.05-2.648c0.555-0.566,0.833-1.123,0.833-1.67V81.52c-0.058-0.586-0.388-0.879-0.99-0.879
				h-0.031c-0.524,0.012-0.786,0.367-0.786,1.066c0,0.133,0.008,0.275,0.023,0.428L208.224,82.105z"/>
		</g>
	</g>
	<g>
		<g>
			<path d="M50.89,90.104c3.932-0.658,3.026-4.613,6.771-3.246c4.733,1.727,10.273,2.495,15.04,0.862
				c4.769-1.63,8.731-6.296,8.284-11.313c-0.252-2.822-1.67-9.895-6.071-14.34c-4.235-4.28-3.379-9.577-3.984-15.567
				c-0.413-4.099-0.027-8.521-2.181-12.032c-1.539-2.511-4.188-4.162-6.949-5.189c-6.541-2.432-13.972-1.742-20.439,0.878
				c-6.469,2.62-12.067,7.039-16.997,11.978c-2.244,2.247-4.394,4.646-5.868,7.459c-1.476,2.812-2.235,6.098-1.571,9.203
				c1.035,4.832,5.352,8.819,5.106,13.754c-0.081,1.645-0.682,3.267-0.464,4.896c0.397,2.963,3.471,4.975,6.451,5.199
				s7.496,8.565,10.273,7.459"/>
			<g>
				<path d="M12.769,72.383c-0.015-0.01-0.129,0.12-0.28,0.412c-0.147,0.295-0.29,0.781-0.257,1.415
					c0.025,0.633,0.268,1.403,0.801,2.137c0.525,0.719,1.43,1.413,2.594,1.558c2.301,0.36,5.173-1.399,5.992-4.357
					c0.437-1.441,0.467-3.046,0.188-4.627c-0.277-1.589-0.853-3.146-1.487-4.69c-1.288-3.053-2.567-6.018-2.353-8.85
					c0.163-2.818,1.504-5.136,2.762-6.858c1.282-1.74,2.52-3.004,3.357-3.887c0.848-0.874,1.317-1.36,1.285-1.396
					c-0.031-0.03-0.56,0.39-1.467,1.211c-0.896,0.829-2.193,2.048-3.551,3.788c-1.328,1.722-2.785,4.102-2.998,7.104
					c-0.257,3.022,1.076,6.112,2.349,9.14c0.63,1.531,1.189,3.043,1.462,4.552c0.274,1.503,0.254,3.008-0.134,4.338
					c-0.711,2.708-3.298,4.33-5.347,4.067c-1.031-0.1-1.842-0.678-2.359-1.32c-0.515-0.649-0.775-1.349-0.837-1.932
					C12.36,72.999,12.851,72.409,12.769,72.383z"/>
			</g>
			<g>
				<path d="M12.13,133.031c-0.016-0.009-0.13,0.121-0.281,0.413c-0.146,0.293-0.291,0.778-0.258,1.415
					c0.025,0.632,0.268,1.403,0.801,2.136c0.527,0.719,1.43,1.414,2.594,1.559c2.303,0.359,5.174-1.399,5.993-4.357
					c0.437-1.441,0.467-3.047,0.188-4.628c-0.278-1.589-0.854-3.146-1.488-4.689c-1.289-3.056-2.567-6.018-2.354-8.849
					c0.164-2.82,1.505-5.138,2.762-6.86c1.283-1.74,2.52-3.004,3.357-3.886c0.849-0.876,1.318-1.361,1.285-1.396
					c-0.029-0.031-0.559,0.389-1.467,1.21c-0.896,0.83-2.193,2.049-3.551,3.789c-1.328,1.721-2.783,4.102-2.997,7.104
					c-0.257,3.023,1.075,6.113,2.349,9.139c0.629,1.532,1.189,3.044,1.462,4.552c0.274,1.503,0.254,3.009-0.134,4.338
					c-0.711,2.71-3.297,4.332-5.348,4.068c-1.029-0.101-1.842-0.678-2.358-1.321c-0.515-0.647-0.776-1.348-0.837-1.931
					C11.72,133.645,12.21,133.056,12.13,133.031z"/>
			</g>
			<g>
				<path d="M70.864,45.22c-0.021-0.009-0.089,0.104-0.2,0.329c-0.119,0.224-0.258,0.569-0.408,1.025
					c-0.297,0.912-0.572,2.305-0.451,4.034c0.13,1.715,0.666,3.785,1.986,5.69c1.304,1.937,3.439,3.415,5.699,4.669
					c2.271,1.261,4.458,2.374,6.12,3.82c1.687,1.412,2.746,3.155,3.032,4.779c0.328,1.623,0.014,2.982-0.381,3.809
					c-0.411,0.831-0.81,1.192-0.762,1.237c0.017,0.016,0.121-0.063,0.31-0.234c0.185-0.174,0.431-0.463,0.681-0.881
					c0.49-0.833,0.904-2.275,0.615-4.013c-0.241-1.744-1.354-3.667-3.092-5.158c-1.715-1.537-3.953-2.692-6.197-3.938
					c-2.24-1.242-4.275-2.643-5.523-4.442c-1.273-1.777-1.837-3.737-2.021-5.379C69.932,47.215,71.027,45.25,70.864,45.22z"/>
			</g>
			<g>
				<path d="M81.6,56.085c-0.034-0.127-1.199,0.385-3.131,0.226c-1.898-0.132-4.561-1.126-6.515-3.326
					c-1.95-2.219-2.77-4.882-3.13-6.779c-0.365-1.92-0.365-3.15-0.477-3.148c-0.07-0.005-0.24,1.231,0.014,3.224
					c0.248,1.962,1.021,4.782,3.095,7.146c2.094,2.356,4.972,3.339,6.987,3.354c1.018,0.02,1.834-0.138,2.367-0.32
					C81.345,56.28,81.615,56.121,81.6,56.085z"/>
			</g>
			<path fill="#8D6F54" d="M76.178,128.681c0,0,0.465-36.44-31.754-36.238c-32.219,0.203-33.171,35.696-33.171,35.696
				L76.178,128.681z"/>
			<path fill="#00345E" d="M76.859,129.581L35.805,93.938c0,0-15.402,4.058-17.174,18.165c-1.771,14.108-2.835,17.478-2.835,17.478
				H76.859z"/>
			<path fill="#00345E" d="M58.648,95.378c17.646,5.106,18.211,34.202,18.211,34.202L48.097,104.61L58.648,95.378"/>
			<path d="M28.235,71.489c2.717,2.125,4.565,9.105,1.537,10.89c-2.521,1.485-6.316,1.37-8.024,3.549
				c-2.477,3.16,1.925,7.758-0.183,11.111c-1.02,1.624-3.219,2.345-5.143,3.161c-6.036,2.556-0.868,8.769-2.419,14.4
				c-1.551,5.633-9.595,10.571-4.688,14.529c4.907,3.959,12.71,5.166,18.719,2.562c5.026-2.18-1.487-9.353-0.128-14.052
				s8.058-8.03,7.198-12.815c-0.858-4.786,0.57-8.414,0.08-13.237c-0.749-7.35,0.42-14.928-2.019-22.001"/>
			<path fill="#8D6F54" d="M65.723,34.192c0,0,3.254,16.503,2.861,30.831c-0.26,9.479-7.274,17.42-16.604,19.115l1.081,14.998
				l-16.495-5.198L33.02,70.743c0,0-5.846,1.087-9.179-4.229c-3.621-5.773-1.207-16.312,4.136-11.489
				c6.257,5.646,7.61,5.583,7.61,5.583C36.923,51.588,30.314,31.185,65.723,34.192"/>
			<path fill="#755D43" d="M31.083,65.087c-0.03-0.105-0.707,0.12-1.776-0.015c-1.047-0.112-2.517-0.731-3.325-2.144
				c-0.651-1.086-0.791-2.411-0.486-3.245c0.318-0.877,1.258-0.806,1.459-0.556l0.121-0.161c-0.221-0.062-0.334-0.074-0.35-0.042
				c-0.014,0.033,0.07,0.108,0.267,0.231l0.326,0.205l-0.206-0.366c-0.108-0.194-0.438-0.43-0.881-0.401
				c-0.435-0.006-0.981,0.328-1.223,0.871c-0.476,1.067-0.34,2.526,0.403,3.802c0.937,1.639,2.71,2.286,3.86,2.274
				C30.467,65.559,31.117,65.147,31.083,65.087"/>
			<path fill="#755D43" d="M24.936,61.379c0.114,0.148,0.73-0.131,1.493,0.021c0.771,0.121,1.254,0.596,1.412,0.496
				c0.07-0.046,0.039-0.264-0.173-0.525c-0.208-0.261-0.614-0.531-1.121-0.623c-0.508-0.09-0.984,0.024-1.27,0.197
				C24.988,61.118,24.884,61.311,24.936,61.379"/>
			<path opacity="0.2" fill="#8D6F54" enable-background="new    " d="M39.032,62.513c-0.133,0.906,1.858,1.947,4.444,2.326
				s4.792-0.05,4.924-0.956c0.133-0.905-1.857-1.946-4.444-2.323C41.369,61.18,39.164,61.607,39.032,62.513"/>
			<path opacity="0.2" fill="#8D6F54" enable-background="new    " d="M60.98,63.769c0.152,0.902,1.789,1.38,3.654,1.064
				c1.867-0.315,3.258-1.302,3.105-2.205c-0.152-0.901-1.789-1.378-3.656-1.064C62.219,61.879,60.828,62.867,60.98,63.769"/>
			<path fill="#755D43" d="M47.657,83.275c-0.089,0.157,0.501,0.631,1.393,0.747c0.893,0.121,1.585-0.183,1.54-0.354
				c-0.039-0.185-0.689-0.195-1.453-0.303C48.374,83.268,47.742,83.108,47.657,83.275"/>
			<path fill="#755D43" d="M45.754,68.104c-0.074,0.02,0.02,0.755,0.618,1.775c0.583,1.008,1.763,2.269,3.474,2.937
				c1.713,0.662,3.434,0.53,4.545,0.181c1.13-0.347,1.696-0.828,1.655-0.891c-0.05-0.094-0.685,0.226-1.769,0.437
				c-1.071,0.215-2.641,0.257-4.191-0.344c-1.549-0.604-2.678-1.695-3.323-2.579C46.105,68.733,45.854,68.069,45.754,68.104"/>
			<path opacity="0.2" fill="#8D6F54" enable-background="new    " d="M46.686,70.943c-0.523,0.736,0.566,2.386,2.699,3.025
				c2.135,0.644,3.953-0.131,3.922-1.035c-0.018-0.927-1.385-1.649-2.967-2.139C48.752,70.33,47.211,70.182,46.686,70.943"/>
			<path d="M69.586,53.838c-0.334-0.663-13.461-12.135-11.907-19.928c0,0-3.063,6.753-23.553,19.438l2.726-19.438l20.827-3.45
				l11.907,5.346V53.838z"/>
			<path d="M25.493,74.696c-0.002-0.084-0.955,0.204-2.566-0.248c-1.551-0.446-3.805-1.893-4.853-4.68
				c-1.04-2.76-0.279-6.633,2.235-9.632c2.498-3.061,6.564-5.018,10.898-6.418c2.18-0.72,4.35-1.335,6.415-2.054
				c2.059-0.7,4.053-1.551,5.712-2.727c3.33-2.33,5.697-5.143,7.528-7.547c1.83-2.422,3.107-4.52,3.96-5.982
				c0.421-0.733,0.739-1.31,0.94-1.708c0.204-0.395,0.301-0.609,0.282-0.62c-0.021-0.012-0.157,0.181-0.398,0.555
				c-0.278,0.438-0.624,0.979-1.044,1.639c-0.918,1.416-2.25,3.466-4.111,5.83c-1.86,2.349-4.244,5.093-7.5,7.328
				c-1.619,1.128-3.525,1.927-5.581,2.618c-2.045,0.703-4.212,1.312-6.412,2.038c-4.372,1.417-8.566,3.432-11.162,6.661
				c-2.605,3.157-3.37,7.256-2.201,10.184c1.176,2.941,3.586,4.373,5.223,4.763c0.84,0.213,1.519,0.177,1.965,0.149
				C25.271,74.772,25.497,74.718,25.493,74.696"/>
			<path d="M67.572,73.765c-0.008,0.02,0.136,0.089,0.426,0.18c0.293,0.074,0.746,0.146,1.327,0.069
				c1.131-0.133,2.849-0.959,3.796-2.891c0.934-1.912,0.825-4.574-0.077-7.111c-0.842-2.579-2.26-5.202-3.894-7.823
				c-3.324-5.214-6.643-9.697-8.426-13.304c-0.484-0.882-0.821-1.723-1.156-2.445c-0.291-0.739-0.518-1.389-0.714-1.914
				c-0.296-1.08-0.483-1.679-0.528-1.671c-0.043,0.008,0.057,0.623,0.281,1.742c0.159,0.544,0.353,1.213,0.615,1.977
				c0.305,0.747,0.62,1.616,1.082,2.521c1.701,3.708,4.986,8.273,8.284,13.446c1.621,2.601,3.028,5.17,3.876,7.663
				c0.906,2.455,1.037,4.941,0.231,6.727c-0.808,1.782-2.368,2.633-3.413,2.829C68.197,73.968,67.584,73.692,67.572,73.765"/>
			<path d="M5.263,105.462c0,0,0.16,0.2,0.617,0.264c0.438,0.045,1.182-0.146,1.688-0.877c0.579-0.706,0.36-2.106-0.681-2.824
				c-0.494-0.368-1.152-0.619-1.866-0.598c-0.706,0.019-1.427,0.265-2.078,0.663c-1.28,0.802-2.458,2.148-2.854,3.945
				c-0.188,0.891-0.09,1.911,0.403,2.779c0.483,0.867,1.282,1.549,2.198,1.988c1.873,0.927,4.096,0.724,6.152,0.358
				c2.065-0.382,4.283-0.695,6.372-1.709c2.052-0.993,3.839-2.828,4.155-5.097c0.318-2.234-0.435-4.234-0.687-6.105
				c-0.597-3.771,0.866-7.228,2.798-9.307c1.965-2.122,4.261-3.006,5.812-3.382c1.581-0.369,2.501-0.314,2.498-0.382
				c0-0.021-0.227-0.045-0.661-0.055c-0.433,0.002-1.078,0.03-1.893,0.185c-1.603,0.306-4.001,1.142-6.1,3.315
				c-2.062,2.126-3.652,5.731-3.06,9.713c0.258,1.941,0.956,3.92,0.648,5.917c-0.278,1.994-1.882,3.667-3.807,4.603
				c-1.955,0.952-4.126,1.275-6.189,1.663c-2.035,0.375-4.104,0.55-5.777-0.267c-0.828-0.39-1.534-0.991-1.955-1.726
				c-0.426-0.733-0.525-1.595-0.371-2.388c0.322-1.6,1.4-2.897,2.562-3.651c1.172-0.79,2.592-0.844,3.479-0.164
				c0.926,0.617,1.143,1.753,0.682,2.383c-0.412,0.665-1.068,0.886-1.465,0.885C5.473,105.579,5.278,105.428,5.263,105.462"/>
			<path d="M5.263,121.765c0,0,0.16,0.201,0.617,0.265c0.438,0.044,1.182-0.146,1.688-0.877c0.579-0.706,0.36-2.106-0.681-2.824
				c-0.494-0.368-1.152-0.618-1.866-0.598c-0.706,0.018-1.427,0.264-2.078,0.662c-1.28,0.804-2.458,2.148-2.854,3.946
				c-0.188,0.89-0.09,1.913,0.403,2.779c0.483,0.866,1.282,1.549,2.198,1.989c1.873,0.927,4.096,0.723,6.152,0.356
				c2.065-0.381,4.283-0.695,6.372-1.707c2.052-0.996,3.839-2.83,4.155-5.097c0.318-2.234-0.435-4.235-0.687-6.106
				c-0.597-3.771,0.866-7.228,2.798-9.306c1.965-2.123,4.261-3.008,5.812-3.382c1.581-0.369,2.501-0.316,2.498-0.383
				c0-0.021-0.227-0.044-0.661-0.056c-0.433,0.004-1.078,0.03-1.893,0.186c-1.603,0.306-4.001,1.142-6.1,3.314
				c-2.062,2.129-3.652,5.732-3.06,9.715c0.258,1.941,0.956,3.919,0.648,5.916c-0.278,1.995-1.882,3.668-3.807,4.604
				c-1.955,0.952-4.126,1.275-6.189,1.663c-2.035,0.374-4.104,0.548-5.777-0.268c-0.828-0.391-1.534-0.99-1.955-1.727
				c-0.426-0.732-0.525-1.594-0.371-2.387c0.322-1.6,1.4-2.897,2.562-3.652c1.172-0.789,2.592-0.842,3.479-0.162
				c0.926,0.616,1.143,1.751,0.682,2.382c-0.412,0.666-1.068,0.887-1.465,0.885C5.473,121.882,5.278,121.731,5.263,121.765"/>
			<path fill="#755D43" d="M53.807,63.407"/>
			<path d="M40.85,50.641c0.046,0.547,2.105,0.82,4.6,0.609c2.495-0.209,4.48-0.823,4.434-1.37
				c-0.047-0.548-2.106-0.819-4.602-0.609C42.788,49.481,40.803,50.093,40.85,50.641"/>
			<path d="M60.18,51.852c0.296,0.478,1.703,0.16,3.299,0.488c1.184,0.194,2.13,0.636,2.736,0.756l2.357,0.471l-1.71-0.971
				c-0.216-0.121-0.395-0.15-0.521-0.079c-0.128,0.074-0.192,0.244-0.194,0.492l0.648-0.501c-0.154-0.656-1.258-1.842-2.965-2.126
				c-1.143-0.212-2.218,0.036-2.866,0.413C60.302,51.174,60.053,51.623,60.18,51.852"/>
			<path fill="#FFFFFF" d="M49.729,59.317c0,0,0.182-4.55-4.725-5.068c-4.121-0.436-4.972,4.235-4.972,4.235L49.729,59.317z"/>
			<path d="M45.481,54.319l-1.2,4.531l5.447,0.467C49.729,59.317,49.725,54.805,45.481,54.319"/>
			<path d="M39.861,57.713c0.109,0.043,0.355-0.763,1.27-1.642c0.869-0.867,2.574-1.767,4.439-1.422
				c1.861,0.375,3.105,1.847,3.59,2.977c0.52,1.155,0.447,1.996,0.566,1.995c0.059,0.021,0.318-0.849-0.131-2.169
				c-0.413-1.276-1.73-3.009-3.898-3.453c-2.178-0.396-4.047,0.718-4.904,1.748C39.881,56.807,39.797,57.71,39.861,57.713"/>
			<path fill="#FFFFFF" d="M67.926,59.632c0,0-0.197-4.551-5.129-4.66c-4.143-0.092-4.604,4.635-4.604,4.635L67.926,59.632z"/>
			<path d="M63.278,55.002l-0.821,4.615l5.469,0.015C67.926,59.632,67.547,55.137,63.278,55.002"/>
			<path d="M57.959,58.85c0.113,0.036,0.291-0.788,1.129-1.738c0.796-0.938,2.418-1.975,4.307-1.786
				c1.885,0.221,3.248,1.584,3.823,2.669c0.614,1.107,0.612,1.952,0.73,1.941c0.06,0.018,0.246-0.87-0.312-2.15
				c-0.516-1.238-1.973-2.854-4.17-3.119c-2.203-0.212-3.974,1.054-4.744,2.149C57.904,57.945,57.896,58.857,57.959,58.85"/>
			<g>
				<path d="M38.092,118.054c0.014-0.01,0.129,0.12,0.28,0.412c0.146,0.294,0.29,0.78,0.258,1.415
					c-0.025,0.631-0.268,1.404-0.801,2.136c-0.526,0.72-1.429,1.415-2.594,1.559c-2.303,0.36-5.174-1.4-5.993-4.358
					c-0.437-1.441-0.468-3.045-0.187-4.626c0.276-1.589,0.853-3.146,1.486-4.69c1.289-3.055,2.566-6.017,2.353-8.85
					c-0.163-2.819-1.505-5.136-2.761-6.859c-1.282-1.74-2.52-3.004-3.357-3.886c-0.849-0.874-1.318-1.359-1.285-1.395
					c0.029-0.034,0.559,0.389,1.466,1.21c0.896,0.828,2.193,2.048,3.551,3.788c1.329,1.721,2.784,4.101,2.999,7.104
					c0.256,3.022-1.076,6.113-2.35,9.141c-0.63,1.53-1.189,3.041-1.463,4.55c-0.273,1.503-0.252,3.008,0.135,4.338
					c0.711,2.709,3.297,4.331,5.348,4.067c1.029-0.1,1.841-0.678,2.358-1.319c0.515-0.65,0.775-1.351,0.838-1.933
					C38.5,118.668,38.01,118.08,38.092,118.054z"/>
			</g>
			<g>
				<path fill="#755D43" d="M57.205,53.972c0,0-0.152,0.251-0.42,0.688c-0.266,0.438-0.637,1.064-1.064,1.821
					c-0.42,0.762-0.898,1.652-1.328,2.636c-0.217,0.488-0.408,1.005-0.578,1.53c-0.168,0.525-0.297,1.068-0.342,1.605
					c-0.053,0.534-0.03,1.07,0.149,1.524l0.069,0.169c0.003,0.01,0.016,0.038,0.013,0.032l0.024,0.048l0.049,0.095
					c0.064,0.127,0.128,0.254,0.191,0.379c0.135,0.238,0.253,0.464,0.4,0.682c0.284,0.437,0.59,0.833,0.933,1.154
					c0.345,0.33,0.716,0.556,1.093,0.867c0.184,0.156,0.359,0.371,0.428,0.606c0.025,0.116,0.055,0.221,0.057,0.338
					c0.002,0.047,0.003,0.094,0.004,0.14c0,0.05-0.009,0.108-0.014,0.159c-0.043,0.42-0.303,0.702-0.52,0.854
					c-0.224,0.154-0.426,0.212-0.56,0.247c-0.136,0.034-0.208,0.04-0.208,0.04s0.07-0.021,0.191-0.083
					c0.121-0.06,0.294-0.167,0.465-0.336c0.168-0.167,0.315-0.434,0.301-0.735c-0.013-0.349-0.121-0.637-0.448-0.84
					c-0.16-0.108-0.364-0.21-0.573-0.336c-0.212-0.12-0.424-0.271-0.635-0.433c-0.42-0.331-0.809-0.745-1.138-1.214
					c-0.172-0.226-0.329-0.486-0.482-0.731c-0.069-0.123-0.14-0.244-0.21-0.368l-0.051-0.094l-0.026-0.047
					c-0.02-0.038-0.02-0.043-0.03-0.065l-0.099-0.228c-0.251-0.616-0.283-1.281-0.231-1.904c0.064-0.625,0.219-1.221,0.41-1.786
					c0.188-0.566,0.436-1.094,0.684-1.595c0.246-0.501,0.524-0.963,0.794-1.394c0.269-0.433,0.542-0.826,0.804-1.183
					c0.52-0.716,0.998-1.274,1.342-1.657C56.993,54.176,57.205,53.972,57.205,53.972z"/>
			</g>
			<g>
				<path fill="#755D43" d="M54.775,69.586c0,0-0.205,0.131-0.527,0.239c-0.322,0.117-0.764,0.211-1.217,0.235
					c-0.451,0.026-0.914-0.021-1.253-0.147c-0.169-0.057-0.304-0.141-0.387-0.204c-0.081-0.078-0.113-0.123-0.113-0.123
					s0.065,0.005,0.157,0.018c0.047,0.002,0.108-0.006,0.171-0.002c0.063,0,0.142-0.014,0.219-0.015
					c0.319-0.03,0.743-0.074,1.176-0.099c0.432-0.022,0.87-0.023,1.206,0.012C54.541,69.526,54.775,69.586,54.775,69.586z"/>
			</g>
			<g>
				<g>
					<g>
						<path fill="none" stroke="#A8247A" stroke-width="3" stroke-linecap="round" stroke-linejoin="round" d="M36.734,95.626
							c0.024-0.02-1.538-1.849-1.513-1.869c0.174-0.14,6.312,6.329,6.486,6.188c0.126-0.103-4.935-5.836-4.81-5.938
							c0.275-0.223,9.508,10.479,9.783,10.257c0.127-0.103-4.947-5.852-4.821-5.955c0.183-0.146,6.589,6.687,6.771,6.539
							c0.033-0.026-1.845-2.208-1.81-2.234"/>
					</g>
				</g>
			</g>
			<g>
				<g>
					<g>
						<path fill="none" stroke="#A8247A" stroke-width="3" stroke-linecap="round" stroke-linejoin="round" d="M56.605,96.266
							c0.014,0.025,1.961-1.164,1.975-1.14c0.102,0.177-6.529,4.86-6.428,5.037c0.073,0.126,5.973-3.617,6.045-3.491
							c0.161,0.279-10.658,7.109-10.498,7.388c0.073,0.127,5.989-3.627,6.062-3.5"/>
					</g>
				</g>
			</g>
		</g>
		<g>
			<g>
				<g>
					<g>
						<path fill="#161715" d="M31.966,32.682l-0.055-0.604c-2.041,0.265-4.462,1.058-5.684,2.259
							c-0.963,0.781-1.311,1.839-1.08,3.011C26.52,34.829,29.073,32.766,31.966,32.682z"/>
						<path fill="#161715" d="M71.9,33.351c0.268,0.248,0.506,0.52,0.716,0.807c-0.06-1.068-0.588-1.971-1.593-2.575
							c-1.418-1.038-3.947-1.496-6.015-1.508l0.087,0.979C67.583,30.649,70.062,31.616,71.9,33.351z"/>
						<path fill="#3E3D3A" d="M52.562,45.189c-6.986,1.322-14.013,0.544-20.954-2.254c-2.38-0.97-4.152-2.547-5.921-4.156
							c2.259,4.112,10.749,8.792,24.17,8.109c13.945-1.006,21.578-7.102,22.636-11.502C68.312,41.849,59.799,43.799,52.562,45.189z"
							/>
						<path fill="#272623" d="M31.607,42.934c6.942,2.799,13.969,3.577,20.955,2.254c7.236-1.39,15.75-3.339,19.931-9.802
							c0.102-0.428,0.143-0.84,0.122-1.229c-0.209-0.287-0.447-0.559-0.715-0.807c-1.839-1.735-4.318-2.702-6.805-2.296l0.228,2.573
							c-4.413,2.916-9.571,4.979-16.16,5.384c-6.595,0.406-12.06-1.036-16.936-3.38l-0.263-2.949
							c-2.892,0.083-5.446,2.146-6.817,4.664c0.09,0.463,0.271,0.941,0.539,1.432C27.456,40.388,29.229,41.965,31.607,42.934z"/>
						<path fill="#272623" d="M57.237,13.157c-3.167-1.942-6.653-2.441-10.351-2.474c-6.07-0.046-10.916,3.238-14.065,7.84
							c-1.11,2.459-1.623,5.298-1.359,8.285l0.178,1.987l0.299,3.407c4.674,2.243,10.576,3.419,16.89,3.031S60.772,32.96,65,30.169
							l-0.303-3.403l-0.175-1.989c-0.204-2.324-0.859-4.502-1.86-6.435C60.936,16.44,59.521,14.47,57.237,13.157z"/>
						<path fill="#161715" d="M48.76,9.928l-4.314,0.263c-5.211,0.321-9.506,3.636-11.624,8.332
							c3.149-4.602,7.994-7.886,14.065-7.84c3.697,0.032,7.184,0.531,10.351,2.474c2.283,1.313,3.698,3.283,5.425,5.186
							C59.918,13.042,54.576,9.57,48.76,9.928z"/>
					</g>
				</g>
			</g>
			<g>
				<path d="M49.168,39.038c6.59-0.404,11.748-2.468,16.162-5.383l-0.307-3.474l-0.018-0.004v0.017
					c-4.229,2.792-9.858,4.678-16.171,5.064c-6.312,0.389-12.212-0.785-16.882-3.029l-0.022,0.011l0.303,3.417
					C37.11,38,42.575,39.442,49.168,39.038z"/>
			</g>
		</g>
	</g>
</g>
</svg>
