<?xml version="1.0" encoding="utf-8"?>
<!-- Generator: Adobe Illustrator 16.0.0, SVG Export Plug-In . SVG Version: 6.00 Build 0)  -->
<!DOCTYPE svg PUBLIC "-//W3C//DTD SVG 1.1//EN" "http://www.w3.org/Graphics/SVG/1.1/DTD/svg11.dtd">
<svg version="1.1" id="Capa_1" xmlns="http://www.w3.org/2000/svg" xmlns:xlink="http://www.w3.org/1999/xlink" x="0px" y="0px"
	 width="1155.599px" height="40.412px" viewBox="0 0 1155.599 40.412" enable-background="new 0 0 1155.599 40.412"
	 xml:space="preserve">
<g>
	<g>
		<g>
			<path fill="#407191" d="M282.994,28.645c0,6.499-5.27,11.768-11.768,11.768H11.768C5.27,40.412,0,35.144,0,28.645V11.768
				C0,5.268,5.27,0,11.768,0h259.459c6.498,0,11.768,5.268,11.768,11.768V28.645z"/>
			<g>
				<path fill="#FFFFFF" d="M9.794,22.217l-1.479,4.48H6.412l4.86-14.244h2.198l4.86,14.244h-1.965l-1.521-4.48H9.794z
					 M14.485,20.78l-1.416-4.1c-0.317-0.931-0.528-1.775-0.74-2.6h-0.042c-0.211,0.824-0.423,1.712-0.719,2.578l-1.395,4.121H14.485
					z"/>
				<path fill="#FFFFFF" d="M22.386,14.018v2.451h2.662v1.416h-2.662V23.4c0,1.269,0.359,1.987,1.395,1.987
					c0.507,0,0.803-0.042,1.078-0.127l0.084,1.416c-0.359,0.126-0.93,0.253-1.648,0.253c-0.866,0-1.563-0.295-2.008-0.781
					c-0.507-0.57-0.718-1.479-0.718-2.684v-5.58h-1.585v-1.416h1.585v-1.901L22.386,14.018z"/>
				<path fill="#FFFFFF" d="M28.048,21.922c0.042,2.515,1.627,3.551,3.508,3.551c1.332,0,2.156-0.232,2.832-0.529l0.339,1.332
					c-0.655,0.295-1.797,0.654-3.424,0.654c-3.149,0-5.03-2.092-5.03-5.178c0-3.085,1.817-5.494,4.798-5.494
					c3.36,0,4.227,2.916,4.227,4.797c0,0.381-0.021,0.656-0.063,0.867H28.048z M33.5,20.59c0.021-1.162-0.485-3-2.578-3
					c-1.901,0-2.705,1.711-2.853,3H33.5z"/>
				<path fill="#FFFFFF" d="M37.598,19.238c0-1.078-0.021-1.924-0.085-2.77h1.648l0.105,1.691h0.043
					c0.507-0.951,1.69-1.902,3.381-1.902c1.416,0,3.614,0.846,3.614,4.354v6.086h-1.86v-5.896c0-1.648-0.612-3.022-2.366-3.022
					c-1.205,0-2.156,0.867-2.494,1.902c-0.085,0.232-0.127,0.549-0.127,0.866v6.149h-1.859V19.238z"/>
				<path fill="#FFFFFF" d="M56.614,26.338c-0.486,0.232-1.564,0.592-2.938,0.592c-3.086,0-5.094-2.092-5.094-5.219
					c0-3.149,2.156-5.453,5.495-5.453c1.099,0,2.071,0.275,2.578,0.549l-0.423,1.416c-0.443-0.232-1.141-0.485-2.155-0.485
					c-2.346,0-3.614,1.754-3.614,3.867c0,2.367,1.521,3.825,3.551,3.825c1.057,0,1.754-0.254,2.282-0.486L56.614,26.338z"/>
				<path fill="#FFFFFF" d="M60.86,13.596c0,0.633-0.444,1.141-1.184,1.141c-0.677,0-1.12-0.508-1.12-1.141
					c0-0.635,0.465-1.163,1.162-1.163C60.395,12.433,60.86,12.939,60.86,13.596z M58.789,26.697V16.469h1.859v10.229H58.789z"/>
				<path fill="#FFFFFF" d="M72.988,21.499c0,3.782-2.642,5.431-5.093,5.431c-2.747,0-4.903-2.028-4.903-5.262
					c0-3.402,2.262-5.41,5.072-5.41C71.002,16.258,72.988,18.393,72.988,21.499z M64.895,21.604c0,2.24,1.268,3.931,3.086,3.931
					c1.774,0,3.106-1.67,3.106-3.973c0-1.732-0.867-3.91-3.064-3.91C65.846,17.652,64.895,19.682,64.895,21.604z M70.77,12.053
					l-2.578,3.021h-1.311l1.839-3.021H70.77z"/>
				<path fill="#FFFFFF" d="M75.332,19.238c0-1.078-0.021-1.924-0.085-2.77h1.648l0.105,1.691h0.043
					c0.507-0.951,1.69-1.902,3.381-1.902c1.416,0,3.614,0.846,3.614,4.354v6.086h-1.86v-5.896c0-1.648-0.612-3.022-2.366-3.022
					c-1.205,0-2.156,0.867-2.494,1.902c-0.085,0.232-0.127,0.549-0.127,0.866v6.149h-1.859V19.238z"/>
				<path fill="#FFFFFF" d="M91.601,12.623c0.888-0.148,2.05-0.275,3.529-0.275c1.817,0,3.148,0.424,3.994,1.184
					c0.761,0.677,1.247,1.713,1.247,2.98c0,1.289-0.381,2.303-1.1,3.043c-0.993,1.035-2.557,1.564-4.354,1.564
					c-0.549,0-1.057-0.021-1.479-0.127v5.705h-1.838V12.623z M93.438,19.491c0.402,0.105,0.909,0.147,1.522,0.147
					c2.219,0,3.571-1.099,3.571-3.021c0-1.902-1.353-2.811-3.36-2.811c-0.803,0-1.416,0.062-1.733,0.147V19.491z"/>
				<path fill="#FFFFFF" d="M102.059,24.816c0.57,0.338,1.543,0.719,2.473,0.719c1.331,0,1.966-0.654,1.966-1.521
					c0-0.888-0.528-1.353-1.881-1.859c-1.86-0.676-2.727-1.67-2.727-2.896c0-1.648,1.353-3.001,3.529-3.001
					c1.035,0,1.944,0.275,2.494,0.634l-0.444,1.353c-0.401-0.254-1.142-0.613-2.092-0.613c-1.1,0-1.691,0.635-1.691,1.396
					c0,0.845,0.592,1.226,1.924,1.754c1.754,0.655,2.684,1.543,2.684,3.064c0,1.817-1.416,3.085-3.804,3.085
					c-1.12,0-2.156-0.295-2.874-0.718L102.059,24.816z"/>
				<path fill="#FFFFFF" d="M112.75,13.596c0,0.633-0.444,1.141-1.184,1.141c-0.677,0-1.12-0.508-1.12-1.141
					c0-0.635,0.465-1.163,1.162-1.163C112.284,12.433,112.75,12.939,112.75,13.596z M110.679,26.697V16.469h1.859v10.229H110.679z"
					/>
				<path fill="#FFFFFF" d="M122.914,26.338c-0.486,0.232-1.564,0.592-2.938,0.592c-3.086,0-5.094-2.092-5.094-5.219
					c0-3.149,2.156-5.453,5.495-5.453c1.099,0,2.071,0.275,2.578,0.549l-0.423,1.416c-0.443-0.232-1.141-0.485-2.155-0.485
					c-2.346,0-3.614,1.754-3.614,3.867c0,2.367,1.521,3.825,3.551,3.825c1.057,0,1.754-0.254,2.282-0.486L122.914,26.338z"/>
				<path fill="#FFFFFF" d="M134.218,21.499c0,3.782-2.642,5.431-5.093,5.431c-2.747,0-4.903-2.028-4.903-5.262
					c0-3.402,2.262-5.41,5.072-5.41C132.231,16.258,134.218,18.393,134.218,21.499z M126.124,21.604c0,2.24,1.268,3.931,3.086,3.931
					c1.774,0,3.106-1.67,3.106-3.973c0-1.732-0.867-3.91-3.064-3.91C127.075,17.652,126.124,19.682,126.124,21.604z"/>
				<path fill="#FFFFFF" d="M136.307,24.816c0.57,0.338,1.543,0.719,2.473,0.719c1.331,0,1.966-0.654,1.966-1.521
					c0-0.888-0.528-1.353-1.881-1.859c-1.86-0.676-2.727-1.67-2.727-2.896c0-1.648,1.353-3.001,3.529-3.001
					c1.035,0,1.944,0.275,2.494,0.634l-0.444,1.353c-0.401-0.254-1.142-0.613-2.092-0.613c-1.1,0-1.691,0.635-1.691,1.396
					c0,0.845,0.592,1.226,1.924,1.754c1.754,0.655,2.684,1.543,2.684,3.064c0,1.817-1.416,3.085-3.804,3.085
					c-1.12,0-2.156-0.295-2.874-0.718L136.307,24.816z"/>
				<path fill="#FFFFFF" d="M154.184,21.499c0,3.782-2.642,5.431-5.093,5.431c-2.747,0-4.903-2.028-4.903-5.262
					c0-3.402,2.262-5.41,5.072-5.41C152.197,16.258,154.184,18.393,154.184,21.499z M146.09,21.604c0,2.24,1.268,3.931,3.086,3.931
					c1.774,0,3.106-1.67,3.106-3.973c0-1.732-0.867-3.91-3.064-3.91C147.041,17.652,146.09,19.682,146.09,21.604z"/>
				<path fill="#FFFFFF" d="M163.817,26.338c-0.486,0.232-1.564,0.592-2.938,0.592c-3.086,0-5.094-2.092-5.094-5.219
					c0-3.149,2.156-5.453,5.495-5.453c1.099,0,2.071,0.275,2.578,0.549l-0.423,1.416c-0.443-0.232-1.141-0.485-2.155-0.485
					c-2.346,0-3.614,1.754-3.614,3.867c0,2.367,1.521,3.825,3.551,3.825c1.057,0,1.754-0.254,2.282-0.486L163.817,26.338z"/>
				<path fill="#FFFFFF" d="M168.063,13.596c0,0.633-0.444,1.141-1.184,1.141c-0.677,0-1.12-0.508-1.12-1.141
					c0-0.635,0.465-1.163,1.162-1.163C167.598,12.433,168.063,12.939,168.063,13.596z M165.992,26.697V16.469h1.859v10.229H165.992z
					"/>
				<path fill="#FFFFFF" d="M178.121,24.246c0,0.888,0.042,1.754,0.147,2.451h-1.67l-0.147-1.289h-0.063
					c-0.57,0.804-1.67,1.521-3.128,1.521c-2.071,0-3.128-1.457-3.128-2.938c0-2.473,2.198-3.824,6.15-3.804v-0.211
					c0-0.824-0.232-2.367-2.325-2.347c-0.972,0-1.965,0.275-2.684,0.762l-0.423-1.247c0.846-0.528,2.093-0.888,3.382-0.888
					c3.128,0,3.889,2.135,3.889,4.163V24.246z M176.324,21.479c-2.028-0.043-4.332,0.316-4.332,2.303
					c0,1.226,0.803,1.775,1.732,1.775c1.353,0,2.22-0.846,2.516-1.712c0.062-0.212,0.084-0.423,0.084-0.592V21.479z"/>
				<path fill="#FFFFFF" d="M181.119,11.693h1.859v15.004h-1.859V11.693z"/>
				<path fill="#FFFFFF" d="M192.486,12.453v14.244h-1.859V12.453H192.486z"/>
				<path fill="#FFFFFF" d="M195.846,19.238c0-1.078-0.021-1.924-0.085-2.77h1.648l0.105,1.691h0.043
					c0.507-0.951,1.69-1.902,3.381-1.902c1.416,0,3.614,0.846,3.614,4.354v6.086h-1.86v-5.896c0-1.648-0.612-3.022-2.366-3.022
					c-1.205,0-2.156,0.867-2.494,1.902c-0.085,0.232-0.127,0.549-0.127,0.866v6.149h-1.859V19.238z"/>
				<path fill="#FFFFFF" d="M216.384,11.693v12.363c0,0.908,0.042,1.943,0.084,2.641h-1.648l-0.084-1.775h-0.063
					c-0.55,1.143-1.775,2.008-3.444,2.008c-2.473,0-4.396-2.092-4.396-5.198c-0.021-3.402,2.113-5.474,4.586-5.474
					c1.585,0,2.621,0.74,3.086,1.543h0.042v-6.107H216.384z M214.545,20.633c0-0.232-0.021-0.55-0.084-0.782
					c-0.275-1.163-1.289-2.135-2.685-2.135c-1.923,0-3.064,1.69-3.064,3.931c0,2.071,1.036,3.783,3.022,3.783
					c1.247,0,2.388-0.846,2.727-2.219c0.063-0.254,0.084-0.508,0.084-0.803V20.633z"/>
				<path fill="#FFFFFF" d="M221.559,13.596c0,0.633-0.444,1.141-1.184,1.141c-0.677,0-1.12-0.508-1.12-1.141
					c0-0.635,0.465-1.163,1.162-1.163C221.093,12.433,221.559,12.939,221.559,13.596z M219.487,26.697V16.469h1.859v10.229H219.487z
					"/>
				<path fill="#FFFFFF" d="M225.15,16.469l2.007,5.728c0.339,0.951,0.613,1.796,0.824,2.642h0.063
					c0.232-0.846,0.528-1.69,0.867-2.642l1.986-5.728h1.944l-4.016,10.229h-1.775l-3.889-10.229H225.15z"/>
				<path fill="#FFFFFF" d="M236.665,13.596c0,0.633-0.444,1.141-1.184,1.141c-0.677,0-1.12-0.508-1.12-1.141
					c0-0.635,0.465-1.163,1.162-1.163C236.199,12.433,236.665,12.939,236.665,13.596z M234.594,26.697V16.469h1.859v10.229H234.594z
					"/>
				<path fill="#FFFFFF" d="M248.35,11.693v12.363c0,0.908,0.042,1.943,0.084,2.641h-1.647l-0.085-1.775h-0.063
					c-0.55,1.143-1.775,2.008-3.444,2.008c-2.473,0-4.396-2.092-4.396-5.198c-0.021-3.402,2.113-5.474,4.586-5.474
					c1.585,0,2.621,0.74,3.086,1.543h0.042v-6.107H248.35z M246.511,20.633c0-0.232-0.021-0.55-0.084-0.782
					c-0.275-1.163-1.289-2.135-2.685-2.135c-1.923,0-3.064,1.69-3.064,3.931c0,2.071,1.036,3.783,3.022,3.783
					c1.247,0,2.388-0.846,2.727-2.219c0.063-0.254,0.084-0.508,0.084-0.803V20.633z"/>
				<path fill="#FFFFFF" d="M260.012,23.887c0,1.078,0.021,2.008,0.085,2.811h-1.648l-0.105-1.669H258.3
					c-0.465,0.824-1.563,1.901-3.381,1.901c-1.606,0-3.529-0.908-3.529-4.48v-5.98h1.859v5.643c0,1.945,0.613,3.276,2.282,3.276
					c1.247,0,2.113-0.866,2.452-1.712c0.105-0.254,0.169-0.592,0.169-0.951v-6.256h1.859V23.887z"/>
				<path fill="#FFFFFF" d="M270.28,24.246c0,0.888,0.042,1.754,0.147,2.451h-1.67l-0.147-1.289h-0.063
					c-0.57,0.804-1.67,1.521-3.128,1.521c-2.071,0-3.128-1.457-3.128-2.938c0-2.473,2.198-3.824,6.15-3.804v-0.211
					c0-0.824-0.232-2.367-2.325-2.347c-0.972,0-1.965,0.275-2.684,0.762l-0.423-1.247c0.846-0.528,2.093-0.888,3.382-0.888
					c3.128,0,3.889,2.135,3.889,4.163V24.246z M268.483,21.479c-2.028-0.043-4.332,0.316-4.332,2.303
					c0,1.226,0.803,1.775,1.732,1.775c1.353,0,2.22-0.846,2.516-1.712c0.062-0.212,0.084-0.423,0.084-0.592V21.479z"/>
				<path fill="#FFFFFF" d="M273.278,11.693h1.859v15.004h-1.859V11.693z"/>
			</g>
		</g>
	</g>
	<g>
		<g>
			<path fill="#407191" d="M572.175,28.645c0,6.499-5.269,11.768-11.768,11.768H300.948c-6.498,0-11.767-5.269-11.767-11.768V11.768
				c0-6.5,5.269-11.768,11.767-11.768h259.459c6.499,0,11.768,5.268,11.768,11.768V28.645z"/>
			<g>
				<path fill="#FFFFFF" d="M307.975,22.217l-1.479,4.48h-1.902l4.86-14.244h2.198l4.86,14.244h-1.965l-1.521-4.48H307.975z
					 M312.666,20.78l-1.416-4.1c-0.317-0.931-0.528-1.775-0.74-2.6h-0.042c-0.211,0.824-0.423,1.712-0.719,2.578l-1.395,4.121
					H312.666z"/>
				<path fill="#FFFFFF" d="M320.566,14.018v2.451h2.662v1.416h-2.662V23.4c0,1.269,0.359,1.987,1.395,1.987
					c0.507,0,0.803-0.042,1.078-0.127l0.084,1.416c-0.359,0.126-0.93,0.253-1.648,0.253c-0.866,0-1.563-0.295-2.008-0.781
					c-0.507-0.57-0.718-1.479-0.718-2.684v-5.58h-1.585v-1.416h1.585v-1.901L320.566,14.018z"/>
				<path fill="#FFFFFF" d="M326.229,21.922c0.042,2.515,1.627,3.551,3.508,3.551c1.332,0,2.156-0.232,2.832-0.529l0.339,1.332
					c-0.655,0.295-1.797,0.654-3.424,0.654c-3.149,0-5.03-2.092-5.03-5.178c0-3.085,1.817-5.494,4.798-5.494
					c3.36,0,4.227,2.916,4.227,4.797c0,0.381-0.021,0.656-0.063,0.867H326.229z M331.681,20.59c0.021-1.162-0.485-3-2.578-3
					c-1.901,0-2.705,1.711-2.853,3H331.681z"/>
				<path fill="#FFFFFF" d="M335.778,19.238c0-1.078-0.021-1.924-0.085-2.77h1.648l0.105,1.691h0.043
					c0.507-0.951,1.69-1.902,3.381-1.902c1.416,0,3.614,0.846,3.614,4.354v6.086h-1.86v-5.896c0-1.648-0.612-3.022-2.366-3.022
					c-1.205,0-2.156,0.867-2.494,1.902c-0.085,0.232-0.127,0.549-0.127,0.866v6.149h-1.859V19.238z"/>
				<path fill="#FFFFFF" d="M354.795,26.338c-0.486,0.232-1.564,0.592-2.938,0.592c-3.086,0-5.094-2.092-5.094-5.219
					c0-3.149,2.156-5.453,5.495-5.453c1.099,0,2.071,0.275,2.578,0.549l-0.423,1.416c-0.443-0.232-1.141-0.485-2.155-0.485
					c-2.346,0-3.614,1.754-3.614,3.867c0,2.367,1.521,3.825,3.551,3.825c1.057,0,1.754-0.254,2.282-0.486L354.795,26.338z"/>
				<path fill="#FFFFFF" d="M359.041,13.596c0,0.633-0.444,1.141-1.184,1.141c-0.677,0-1.12-0.508-1.12-1.141
					c0-0.635,0.465-1.163,1.162-1.163C358.575,12.433,359.041,12.939,359.041,13.596z M356.97,26.697V16.469h1.859v10.229H356.97z"
					/>
				<path fill="#FFFFFF" d="M371.169,21.499c0,3.782-2.642,5.431-5.093,5.431c-2.747,0-4.903-2.028-4.903-5.262
					c0-3.402,2.262-5.41,5.072-5.41C369.183,16.258,371.169,18.393,371.169,21.499z M363.075,21.604c0,2.24,1.268,3.931,3.086,3.931
					c1.774,0,3.106-1.67,3.106-3.973c0-1.732-0.867-3.91-3.064-3.91C364.026,17.652,363.075,19.682,363.075,21.604z M368.95,12.053
					l-2.578,3.021h-1.311l1.839-3.021H368.95z"/>
				<path fill="#FFFFFF" d="M373.513,19.238c0-1.078-0.021-1.924-0.085-2.77h1.648l0.105,1.691h0.043
					c0.507-0.951,1.69-1.902,3.381-1.902c1.416,0,3.614,0.846,3.614,4.354v6.086h-1.86v-5.896c0-1.648-0.612-3.022-2.366-3.022
					c-1.205,0-2.156,0.867-2.494,1.902c-0.085,0.232-0.127,0.549-0.127,0.866v6.149h-1.859V19.238z"/>
				<path fill="#FFFFFF" d="M389.781,12.623c0.888-0.148,2.05-0.275,3.529-0.275c1.817,0,3.148,0.424,3.994,1.184
					c0.761,0.677,1.247,1.713,1.247,2.98c0,1.289-0.381,2.303-1.1,3.043c-0.993,1.035-2.557,1.564-4.354,1.564
					c-0.549,0-1.057-0.021-1.479-0.127v5.705h-1.838V12.623z M391.619,19.491c0.402,0.105,0.909,0.147,1.522,0.147
					c2.219,0,3.571-1.099,3.571-3.021c0-1.902-1.353-2.811-3.36-2.811c-0.803,0-1.416,0.062-1.733,0.147V19.491z"/>
				<path fill="#FFFFFF" d="M400.239,24.816c0.57,0.338,1.543,0.719,2.473,0.719c1.331,0,1.966-0.654,1.966-1.521
					c0-0.888-0.528-1.353-1.881-1.859c-1.86-0.676-2.727-1.67-2.727-2.896c0-1.648,1.353-3.001,3.529-3.001
					c1.035,0,1.944,0.275,2.494,0.634l-0.444,1.353c-0.401-0.254-1.142-0.613-2.092-0.613c-1.1,0-1.691,0.635-1.691,1.396
					c0,0.845,0.592,1.226,1.924,1.754c1.754,0.655,2.684,1.543,2.684,3.064c0,1.817-1.416,3.085-3.804,3.085
					c-1.12,0-2.156-0.295-2.874-0.718L400.239,24.816z"/>
				<path fill="#FFFFFF" d="M410.931,13.596c0,0.633-0.444,1.141-1.184,1.141c-0.677,0-1.12-0.508-1.12-1.141
					c0-0.635,0.465-1.163,1.162-1.163C410.465,12.433,410.931,12.939,410.931,13.596z M408.859,26.697V16.469h1.859v10.229H408.859z
					"/>
				<path fill="#FFFFFF" d="M421.095,26.338c-0.486,0.232-1.564,0.592-2.938,0.592c-3.086,0-5.094-2.092-5.094-5.219
					c0-3.149,2.156-5.453,5.495-5.453c1.099,0,2.071,0.275,2.578,0.549l-0.423,1.416c-0.443-0.232-1.141-0.485-2.155-0.485
					c-2.346,0-3.614,1.754-3.614,3.867c0,2.367,1.521,3.825,3.551,3.825c1.057,0,1.754-0.254,2.282-0.486L421.095,26.338z"/>
				<path fill="#FFFFFF" d="M432.398,21.499c0,3.782-2.642,5.431-5.093,5.431c-2.747,0-4.903-2.028-4.903-5.262
					c0-3.402,2.262-5.41,5.072-5.41C430.412,16.258,432.398,18.393,432.398,21.499z M424.305,21.604c0,2.24,1.268,3.931,3.086,3.931
					c1.774,0,3.106-1.67,3.106-3.973c0-1.732-0.867-3.91-3.064-3.91C425.256,17.652,424.305,19.682,424.305,21.604z"/>
				<path fill="#FFFFFF" d="M434.487,24.816c0.57,0.338,1.543,0.719,2.473,0.719c1.331,0,1.966-0.654,1.966-1.521
					c0-0.888-0.528-1.353-1.881-1.859c-1.86-0.676-2.727-1.67-2.727-2.896c0-1.648,1.353-3.001,3.529-3.001
					c1.035,0,1.944,0.275,2.494,0.634l-0.444,1.353c-0.401-0.254-1.142-0.613-2.092-0.613c-1.1,0-1.691,0.635-1.691,1.396
					c0,0.845,0.592,1.226,1.924,1.754c1.754,0.655,2.684,1.543,2.684,3.064c0,1.817-1.416,3.085-3.804,3.085
					c-1.12,0-2.156-0.295-2.874-0.718L434.487,24.816z"/>
				<path fill="#FFFFFF" d="M452.364,21.499c0,3.782-2.642,5.431-5.093,5.431c-2.747,0-4.903-2.028-4.903-5.262
					c0-3.402,2.262-5.41,5.072-5.41C450.378,16.258,452.364,18.393,452.364,21.499z M444.271,21.604c0,2.24,1.268,3.931,3.086,3.931
					c1.774,0,3.106-1.67,3.106-3.973c0-1.732-0.867-3.91-3.064-3.91C445.222,17.652,444.271,19.682,444.271,21.604z"/>
				<path fill="#FFFFFF" d="M461.998,26.338c-0.486,0.232-1.564,0.592-2.938,0.592c-3.086,0-5.094-2.092-5.094-5.219
					c0-3.149,2.156-5.453,5.495-5.453c1.099,0,2.071,0.275,2.578,0.549l-0.423,1.416c-0.443-0.232-1.141-0.485-2.155-0.485
					c-2.346,0-3.614,1.754-3.614,3.867c0,2.367,1.521,3.825,3.551,3.825c1.057,0,1.754-0.254,2.282-0.486L461.998,26.338z"/>
				<path fill="#FFFFFF" d="M466.244,13.596c0,0.633-0.444,1.141-1.184,1.141c-0.677,0-1.12-0.508-1.12-1.141
					c0-0.635,0.465-1.163,1.162-1.163C465.778,12.433,466.244,12.939,466.244,13.596z M464.173,26.697V16.469h1.859v10.229H464.173z
					"/>
				<path fill="#FFFFFF" d="M476.302,24.246c0,0.888,0.042,1.754,0.147,2.451h-1.67l-0.147-1.289h-0.063
					c-0.57,0.804-1.67,1.521-3.128,1.521c-2.071,0-3.128-1.457-3.128-2.938c0-2.473,2.198-3.824,6.15-3.804v-0.211
					c0-0.824-0.232-2.367-2.325-2.347c-0.972,0-1.965,0.275-2.684,0.762l-0.423-1.247c0.846-0.528,2.093-0.888,3.382-0.888
					c3.128,0,3.889,2.135,3.889,4.163V24.246z M474.505,21.479c-2.028-0.043-4.332,0.316-4.332,2.303
					c0,1.226,0.803,1.775,1.732,1.775c1.353,0,2.22-0.846,2.516-1.712c0.062-0.212,0.084-0.423,0.084-0.592V21.479z"/>
				<path fill="#FFFFFF" d="M479.3,11.693h1.859v15.004H479.3V11.693z"/>
				<path fill="#FFFFFF" d="M488.808,12.453h7.672v1.543h-5.812v4.734h5.368v1.521h-5.368v6.445h-1.859V12.453z"/>
				<path fill="#FFFFFF" d="M505.289,24.246c0,0.888,0.042,1.754,0.147,2.451h-1.67l-0.147-1.289h-0.063
					c-0.57,0.804-1.67,1.521-3.128,1.521c-2.071,0-3.128-1.457-3.128-2.938c0-2.473,2.198-3.824,6.15-3.804v-0.211
					c0-0.824-0.232-2.367-2.325-2.347c-0.972,0-1.965,0.275-2.684,0.762l-0.423-1.247c0.846-0.528,2.093-0.888,3.382-0.888
					c3.128,0,3.889,2.135,3.889,4.163V24.246z M503.492,21.479c-2.028-0.043-4.332,0.316-4.332,2.303
					c0,1.226,0.803,1.775,1.732,1.775c1.353,0,2.22-0.846,2.516-1.712c0.062-0.212,0.084-0.423,0.084-0.592V21.479z"/>
				<path fill="#FFFFFF" d="M508.287,19.238c0-1.078-0.043-1.924-0.085-2.77h1.628l0.084,1.67h0.063
					c0.57-0.973,1.521-1.881,3.233-1.881c1.374,0,2.431,0.846,2.874,2.05h0.042c0.317-0.592,0.74-1.015,1.163-1.331
					c0.612-0.465,1.268-0.719,2.24-0.719c1.373,0,3.381,0.888,3.381,4.438v6.002h-1.817v-5.77c0-1.986-0.739-3.148-2.219-3.148
					c-1.078,0-1.881,0.782-2.22,1.67c-0.084,0.274-0.147,0.592-0.147,0.93v6.318h-1.817v-6.129c0-1.627-0.719-2.789-2.135-2.789
					c-1.141,0-2.008,0.93-2.304,1.859c-0.105,0.254-0.147,0.592-0.147,0.909v6.149h-1.817V19.238z"/>
				<path fill="#FFFFFF" d="M527.979,13.596c0,0.633-0.444,1.141-1.184,1.141c-0.677,0-1.12-0.508-1.12-1.141
					c0-0.635,0.465-1.163,1.162-1.163C527.514,12.433,527.979,12.939,527.979,13.596z M525.908,26.697V16.469h1.859v10.229H525.908z
					"/>
				<path fill="#FFFFFF" d="M530.853,11.693h1.859v15.004h-1.859V11.693z"/>
				<path fill="#FFFFFF" d="M537.909,13.596c0,0.633-0.444,1.141-1.184,1.141c-0.677,0-1.12-0.508-1.12-1.141
					c0-0.635,0.465-1.163,1.162-1.163C537.443,12.433,537.909,12.939,537.909,13.596z M535.838,26.697V16.469h1.859v10.229H535.838z
					"/>
				<path fill="#FFFFFF" d="M547.968,24.246c0,0.888,0.042,1.754,0.147,2.451h-1.67l-0.147-1.289h-0.063
					c-0.57,0.804-1.67,1.521-3.128,1.521c-2.071,0-3.128-1.457-3.128-2.938c0-2.473,2.198-3.824,6.15-3.804v-0.211
					c0-0.824-0.232-2.367-2.325-2.347c-0.972,0-1.965,0.275-2.684,0.762l-0.423-1.247c0.846-0.528,2.093-0.888,3.382-0.888
					c3.128,0,3.889,2.135,3.889,4.163V24.246z M546.171,21.479c-2.028-0.043-4.332,0.316-4.332,2.303
					c0,1.226,0.803,1.775,1.732,1.775c1.353,0,2.22-0.846,2.516-1.712c0.062-0.212,0.084-0.423,0.084-0.592V21.479z"/>
				<path fill="#FFFFFF" d="M550.966,19.66c0-1.205-0.021-2.24-0.085-3.191h1.628l0.084,2.029h0.063
					c0.465-1.373,1.606-2.24,2.854-2.24c0.189,0,0.338,0.021,0.507,0.043v1.754c-0.19-0.043-0.381-0.043-0.634-0.043
					c-1.311,0-2.24,0.973-2.494,2.367c-0.042,0.254-0.063,0.57-0.063,0.866v5.452h-1.859V19.66z"/>
			</g>
		</g>
	</g>
	<g>
		<g>
			<path fill="#407191" d="M863.088,28.645c0,6.499-5.27,11.768-11.768,11.768H591.861c-6.498,0-11.769-5.269-11.769-11.768V11.768
				c0-6.5,5.271-11.768,11.769-11.768H851.32c6.498,0,11.768,5.268,11.768,11.768V28.645z"/>
			<g>
				<path fill="#FFFFFF" d="M587.667,21.477l-1.396,4.229h-1.795l4.587-13.441h2.073l4.587,13.441h-1.854l-1.436-4.229H587.667z
					 M592.095,20.121l-1.337-3.869c-0.299-0.877-0.498-1.676-0.697-2.453h-0.04c-0.199,0.777-0.399,1.615-0.679,2.434l-1.315,3.889
					H592.095z"/>
				<path fill="#FFFFFF" d="M599.554,13.739v2.313h2.513v1.336h-2.513v5.205c0,1.197,0.339,1.875,1.315,1.875
					c0.479,0,0.758-0.04,1.018-0.119l0.08,1.336c-0.34,0.119-0.878,0.238-1.556,0.238c-0.818,0-1.477-0.279-1.895-0.737
					c-0.479-0.538-0.679-1.396-0.679-2.532v-5.266h-1.495v-1.336h1.495v-1.795L599.554,13.739z"/>
				<path fill="#FFFFFF" d="M604.896,21.197c0.04,2.374,1.536,3.352,3.312,3.352c1.256,0,2.034-0.22,2.672-0.499l0.319,1.257
					c-0.618,0.279-1.695,0.617-3.231,0.617c-2.971,0-4.746-1.974-4.746-4.885c0-2.912,1.715-5.186,4.527-5.186
					c3.171,0,3.988,2.752,3.988,4.527c0,0.358-0.02,0.617-0.06,0.816H604.896z M610.042,19.941c0.021-1.097-0.458-2.832-2.433-2.832
					c-1.795,0-2.553,1.615-2.692,2.832H610.042z"/>
				<path fill="#FFFFFF" d="M613.911,18.665c0-1.017-0.021-1.815-0.08-2.612h1.556l0.1,1.596h0.04
					c0.479-0.898,1.596-1.795,3.19-1.795c1.337,0,3.411,0.797,3.411,4.107v5.744h-1.756v-5.564c0-1.555-0.578-2.852-2.233-2.852
					c-1.137,0-2.034,0.818-2.354,1.795c-0.079,0.219-0.119,0.519-0.119,0.817v5.804h-1.755V18.665z"/>
				<path fill="#FFFFFF" d="M631.858,25.366c-0.458,0.22-1.476,0.558-2.771,0.558c-2.912,0-4.807-1.974-4.807-4.926
					c0-2.971,2.034-5.145,5.186-5.145c1.037,0,1.954,0.259,2.433,0.518l-0.398,1.337c-0.419-0.22-1.077-0.459-2.034-0.459
					c-2.214,0-3.41,1.655-3.41,3.649c0,2.234,1.436,3.609,3.35,3.609c0.998,0,1.655-0.238,2.154-0.458L631.858,25.366z"/>
				<path fill="#FFFFFF" d="M635.867,13.34c0,0.599-0.419,1.077-1.116,1.077c-0.639,0-1.058-0.479-1.058-1.077
					c0-0.598,0.438-1.097,1.097-1.097C635.429,12.243,635.867,12.723,635.867,13.34z M633.913,25.705v-9.652h1.755v9.652H633.913z"
					/>
				<path fill="#FFFFFF" d="M647.314,20.799c0,3.57-2.493,5.125-4.807,5.125c-2.593,0-4.627-1.914-4.627-4.965
					c0-3.211,2.134-5.105,4.786-5.105C645.439,15.854,647.314,17.867,647.314,20.799z M639.676,20.898
					c0,2.114,1.196,3.71,2.912,3.71c1.675,0,2.932-1.575,2.932-3.749c0-1.636-0.818-3.689-2.893-3.689
					C640.573,17.17,639.676,19.084,639.676,20.898z M645.22,11.885l-2.433,2.852h-1.236l1.734-2.852H645.22z"/>
				<path fill="#FFFFFF" d="M649.527,18.665c0-1.017-0.021-1.815-0.08-2.612h1.556l0.1,1.596h0.04
					c0.479-0.898,1.596-1.795,3.19-1.795c1.337,0,3.411,0.797,3.411,4.107v5.744h-1.756v-5.564c0-1.555-0.578-2.852-2.233-2.852
					c-1.137,0-2.034,0.818-2.354,1.795c-0.079,0.219-0.119,0.519-0.119,0.817v5.804h-1.755V18.665z"/>
				<path fill="#FFFFFF" d="M664.883,12.423c0.838-0.14,1.935-0.259,3.331-0.259c1.715,0,2.971,0.398,3.769,1.116
					c0.718,0.638,1.177,1.616,1.177,2.812c0,1.217-0.358,2.174-1.037,2.873c-0.938,0.977-2.413,1.475-4.108,1.475
					c-0.519,0-0.997-0.02-1.396-0.119v5.385h-1.735V12.423z M666.618,18.904c0.379,0.1,0.857,0.14,1.436,0.14
					c2.094,0,3.37-1.037,3.37-2.852c0-1.795-1.276-2.653-3.171-2.653c-0.758,0-1.336,0.061-1.635,0.141V18.904z"/>
				<path fill="#FFFFFF" d="M674.755,23.93c0.538,0.319,1.456,0.679,2.333,0.679c1.257,0,1.854-0.618,1.854-1.437
					c0-0.838-0.498-1.275-1.774-1.754c-1.755-0.639-2.573-1.576-2.573-2.732c0-1.557,1.276-2.832,3.331-2.832
					c0.977,0,1.835,0.259,2.354,0.598l-0.419,1.276c-0.379-0.239-1.077-0.578-1.975-0.578c-1.037,0-1.596,0.599-1.596,1.316
					c0,0.798,0.559,1.157,1.815,1.655c1.655,0.618,2.532,1.455,2.532,2.892c0,1.716-1.336,2.911-3.59,2.911
					c-1.057,0-2.034-0.279-2.712-0.678L674.755,23.93z"/>
				<path fill="#FFFFFF" d="M684.845,13.34c0,0.599-0.419,1.077-1.116,1.077c-0.639,0-1.058-0.479-1.058-1.077
					c0-0.598,0.438-1.097,1.097-1.097C684.406,12.243,684.845,12.723,684.845,13.34z M682.891,25.705v-9.652h1.755v9.652H682.891z"
					/>
				<path fill="#FFFFFF" d="M694.438,25.366c-0.458,0.22-1.476,0.558-2.771,0.558c-2.912,0-4.807-1.974-4.807-4.926
					c0-2.971,2.034-5.145,5.186-5.145c1.037,0,1.954,0.259,2.433,0.518l-0.398,1.337c-0.419-0.22-1.077-0.459-2.034-0.459
					c-2.214,0-3.41,1.655-3.41,3.649c0,2.234,1.436,3.609,3.35,3.609c0.998,0,1.655-0.238,2.154-0.458L694.438,25.366z"/>
				<path fill="#FFFFFF" d="M705.107,20.799c0,3.57-2.493,5.125-4.807,5.125c-2.593,0-4.627-1.914-4.627-4.965
					c0-3.211,2.134-5.105,4.786-5.105C703.232,15.854,705.107,17.867,705.107,20.799z M697.469,20.898
					c0,2.114,1.196,3.71,2.912,3.71c1.675,0,2.932-1.575,2.932-3.749c0-1.636-0.818-3.689-2.893-3.689
					C698.366,17.17,697.469,19.084,697.469,20.898z"/>
				<path fill="#FFFFFF" d="M707.081,23.93c0.538,0.319,1.456,0.679,2.333,0.679c1.257,0,1.854-0.618,1.854-1.437
					c0-0.838-0.498-1.275-1.774-1.754c-1.755-0.639-2.573-1.576-2.573-2.732c0-1.557,1.276-2.832,3.331-2.832
					c0.977,0,1.835,0.259,2.354,0.598l-0.419,1.276c-0.379-0.239-1.077-0.578-1.975-0.578c-1.037,0-1.596,0.599-1.596,1.316
					c0,0.798,0.559,1.157,1.815,1.655c1.655,0.618,2.532,1.455,2.532,2.892c0,1.716-1.336,2.911-3.59,2.911
					c-1.057,0-2.034-0.279-2.712-0.678L707.081,23.93z"/>
				<path fill="#FFFFFF" d="M723.952,20.799c0,3.57-2.493,5.125-4.807,5.125c-2.593,0-4.627-1.914-4.627-4.965
					c0-3.211,2.134-5.105,4.786-5.105C722.077,15.854,723.952,17.867,723.952,20.799z M716.313,20.898
					c0,2.114,1.196,3.71,2.912,3.71c1.675,0,2.932-1.575,2.932-3.749c0-1.636-0.818-3.689-2.893-3.689
					C717.211,17.17,716.313,19.084,716.313,20.898z"/>
				<path fill="#FFFFFF" d="M733.045,25.366c-0.458,0.22-1.476,0.558-2.771,0.558c-2.912,0-4.807-1.974-4.807-4.926
					c0-2.971,2.034-5.145,5.186-5.145c1.037,0,1.954,0.259,2.433,0.518l-0.398,1.337c-0.419-0.22-1.077-0.459-2.034-0.459
					c-2.214,0-3.41,1.655-3.41,3.649c0,2.234,1.436,3.609,3.35,3.609c0.998,0,1.655-0.238,2.154-0.458L733.045,25.366z"/>
				<path fill="#FFFFFF" d="M737.054,13.34c0,0.599-0.419,1.077-1.116,1.077c-0.639,0-1.058-0.479-1.058-1.077
					c0-0.598,0.438-1.097,1.097-1.097C736.615,12.243,737.054,12.723,737.054,13.34z M735.1,25.705v-9.652h1.755v9.652H735.1z"/>
				<path fill="#FFFFFF" d="M746.546,23.392c0,0.838,0.04,1.655,0.14,2.313h-1.575l-0.14-1.217h-0.06
					c-0.539,0.758-1.576,1.436-2.952,1.436c-1.954,0-2.951-1.375-2.951-2.771c0-2.334,2.074-3.609,5.804-3.59v-0.199
					c0-0.777-0.22-2.234-2.194-2.214c-0.917,0-1.854,0.259-2.532,0.718l-0.399-1.176c0.798-0.499,1.975-0.838,3.191-0.838
					c2.951,0,3.669,2.014,3.669,3.928V23.392z M744.851,20.779c-1.914-0.04-4.088,0.299-4.088,2.174
					c0,1.156,0.758,1.675,1.635,1.675c1.276,0,2.095-0.798,2.374-1.615c0.06-0.199,0.079-0.399,0.079-0.559V20.779z"/>
				<path fill="#FFFFFF" d="M749.378,11.545h1.755v14.16h-1.755V11.545z"/>
				<path fill="#FFFFFF" d="M767.744,25.286c-0.618,0.319-1.914,0.638-3.55,0.638c-3.789,0-6.621-2.393-6.621-6.82
					c0-4.228,2.853-7.06,7.021-7.06c1.655,0,2.731,0.358,3.19,0.599l-0.438,1.416c-0.639-0.319-1.575-0.559-2.692-0.559
					c-3.151,0-5.245,2.014-5.245,5.544c0,3.311,1.895,5.405,5.146,5.405c1.077,0,2.153-0.22,2.852-0.559L767.744,25.286z"/>
				<path fill="#FFFFFF" d="M778.395,20.799c0,3.57-2.493,5.125-4.807,5.125c-2.593,0-4.627-1.914-4.627-4.965
					c0-3.211,2.134-5.105,4.786-5.105C776.52,15.854,778.395,17.867,778.395,20.799z M770.756,20.898c0,2.114,1.196,3.71,2.912,3.71
					c1.675,0,2.932-1.575,2.932-3.749c0-1.636-0.818-3.689-2.893-3.689C771.653,17.17,770.756,19.084,770.756,20.898z"/>
				<path fill="#FFFFFF" d="M780.607,18.665c0-1.017-0.04-1.815-0.08-2.612h1.536l0.079,1.575h0.061
					c0.538-0.917,1.436-1.774,3.051-1.774c1.297,0,2.294,0.797,2.712,1.934h0.04c0.3-0.559,0.698-0.957,1.098-1.256
					c0.578-0.439,1.196-0.678,2.113-0.678c1.297,0,3.191,0.838,3.191,4.188v5.664h-1.716v-5.444c0-1.875-0.697-2.972-2.094-2.972
					c-1.017,0-1.774,0.738-2.094,1.576c-0.08,0.259-0.14,0.558-0.14,0.877v5.963h-1.715v-5.783c0-1.536-0.679-2.633-2.015-2.633
					c-1.077,0-1.895,0.877-2.174,1.755c-0.1,0.239-0.14,0.559-0.14,0.857v5.804h-1.715V18.665z"/>
				<path fill="#FFFFFF" d="M805.316,23.053c0,1.018,0.02,1.895,0.079,2.652h-1.556l-0.1-1.576h-0.04
					c-0.438,0.778-1.476,1.795-3.19,1.795c-1.516,0-3.33-0.857-3.33-4.228v-5.644h1.755v5.324c0,1.836,0.578,3.092,2.153,3.092
					c1.177,0,1.994-0.818,2.313-1.615c0.1-0.24,0.16-0.559,0.16-0.898v-5.902h1.755V23.053z"/>
				<path fill="#FFFFFF" d="M808.228,18.665c0-1.017-0.021-1.815-0.08-2.612h1.556l0.1,1.596h0.04
					c0.479-0.898,1.596-1.795,3.19-1.795c1.337,0,3.411,0.797,3.411,4.107v5.744h-1.756v-5.564c0-1.555-0.578-2.852-2.233-2.852
					c-1.137,0-2.034,0.818-2.354,1.795c-0.079,0.219-0.119,0.519-0.119,0.817v5.804h-1.755V18.665z"/>
				<path fill="#FFFFFF" d="M821.249,13.34c0,0.599-0.419,1.077-1.116,1.077c-0.639,0-1.058-0.479-1.058-1.077
					c0-0.598,0.438-1.097,1.097-1.097C820.811,12.243,821.249,12.723,821.249,13.34z M819.295,25.705v-9.652h1.755v9.652H819.295z"
					/>
				<path fill="#FFFFFF" d="M826.076,13.739v2.313h2.513v1.336h-2.513v5.205c0,1.197,0.339,1.875,1.315,1.875
					c0.479,0,0.758-0.04,1.018-0.119l0.08,1.336c-0.34,0.119-0.878,0.238-1.556,0.238c-0.818,0-1.477-0.279-1.895-0.737
					c-0.479-0.538-0.679-1.396-0.679-2.532v-5.266h-1.495v-1.336h1.495v-1.795L826.076,13.739z"/>
				<path fill="#FFFFFF" d="M837.343,23.392c0,0.838,0.04,1.655,0.14,2.313h-1.575l-0.14-1.217h-0.06
					c-0.539,0.758-1.576,1.436-2.952,1.436c-1.954,0-2.951-1.375-2.951-2.771c0-2.334,2.074-3.609,5.804-3.59v-0.199
					c0-0.777-0.22-2.234-2.194-2.214c-0.917,0-1.854,0.259-2.532,0.718l-0.399-1.176c0.798-0.499,1.975-0.838,3.191-0.838
					c2.951,0,3.669,2.014,3.669,3.928V23.392z M835.647,20.779c-1.914-0.04-4.088,0.299-4.088,2.174
					c0,1.156,0.758,1.675,1.635,1.675c1.276,0,2.095-0.798,2.374-1.615c0.06-0.199,0.079-0.399,0.079-0.559V20.779z"/>
				<path fill="#FFFFFF" d="M840.175,19.064c0-1.137-0.021-2.114-0.08-3.012h1.536l0.079,1.914h0.061
					c0.438-1.296,1.516-2.113,2.691-2.113c0.18,0,0.319,0.02,0.479,0.039v1.656c-0.18-0.041-0.359-0.041-0.599-0.041
					c-1.236,0-2.114,0.918-2.354,2.234c-0.04,0.239-0.06,0.538-0.06,0.817v5.146h-1.755V19.064z"/>
				<path fill="#FFFFFF" d="M848.729,13.34c0,0.599-0.419,1.077-1.116,1.077c-0.639,0-1.058-0.479-1.058-1.077
					c0-0.598,0.438-1.097,1.097-1.097C848.291,12.243,848.729,12.723,848.729,13.34z M846.775,25.705v-9.652h1.755v9.652H846.775z"
					/>
				<path fill="#FFFFFF" d="M858.222,23.392c0,0.838,0.04,1.655,0.14,2.313h-1.575l-0.14-1.217h-0.06
					c-0.539,0.758-1.576,1.436-2.952,1.436c-1.954,0-2.951-1.375-2.951-2.771c0-2.334,2.074-3.609,5.804-3.59v-0.199
					c0-0.777-0.22-2.234-2.194-2.214c-0.917,0-1.854,0.259-2.532,0.718l-0.399-1.176c0.798-0.499,1.975-0.838,3.191-0.838
					c2.951,0,3.669,2.014,3.669,3.928V23.392z M856.526,20.779c-1.914-0.04-4.088,0.299-4.088,2.174
					c0,1.156,0.758,1.675,1.635,1.675c1.276,0,2.095-0.798,2.374-1.615c0.06-0.199,0.079-0.399,0.079-0.559V20.779z"/>
			</g>
		</g>
	</g>
	<g>
		<g>
			<path fill="#407191" d="M1155.599,28.645c0,6.499-5.269,11.768-11.768,11.768H884.372c-6.498,0-11.768-5.269-11.768-11.768
				V11.768c0-6.5,5.27-11.768,11.768-11.768h259.459c6.499,0,11.768,5.268,11.768,11.768V28.645z"/>
			<g>
				<path fill="#FFFFFF" d="M879.82,20.271l-1.261,3.817h-1.62l4.142-12.136h1.872l4.142,12.136h-1.675l-1.296-3.817H879.82z
					 M883.817,19.047l-1.206-3.492c-0.271-0.793-0.45-1.513-0.631-2.215h-0.035c-0.181,0.702-0.36,1.458-0.612,2.196l-1.188,3.511
					H883.817z"/>
				<path fill="#FFFFFF" d="M890.555,13.285v2.089h2.269v1.206h-2.269v4.7c0,1.08,0.307,1.692,1.188,1.692
					c0.433,0,0.685-0.036,0.918-0.108l0.072,1.206c-0.306,0.108-0.792,0.217-1.404,0.217c-0.738,0-1.332-0.252-1.71-0.666
					c-0.433-0.486-0.612-1.261-0.612-2.287V16.58h-1.351v-1.206h1.351v-1.62L890.555,13.285z"/>
				<path fill="#FFFFFF" d="M895.382,20.02c0.036,2.143,1.387,3.025,2.989,3.025c1.135,0,1.837-0.198,2.413-0.451l0.288,1.135
					c-0.559,0.252-1.531,0.559-2.917,0.559c-2.683,0-4.285-1.783-4.285-4.412c0-2.628,1.548-4.681,4.087-4.681
					c2.862,0,3.601,2.484,3.601,4.087c0,0.324-0.018,0.559-0.054,0.738H895.382z M900.027,18.885
					c0.019-0.99-0.414-2.557-2.196-2.557c-1.621,0-2.305,1.459-2.431,2.557H900.027z"/>
				<path fill="#FFFFFF" d="M903.523,17.732c0-0.918-0.019-1.638-0.072-2.358h1.404l0.091,1.44h0.035
					c0.433-0.811,1.44-1.62,2.881-1.62c1.207,0,3.079,0.72,3.079,3.709v5.186h-1.584v-5.023c0-1.404-0.522-2.575-2.017-2.575
					c-1.026,0-1.837,0.738-2.125,1.621c-0.072,0.197-0.108,0.468-0.108,0.738v5.239h-1.584V17.732z"/>
				<path fill="#FFFFFF" d="M919.731,23.783c-0.414,0.197-1.332,0.504-2.503,0.504c-2.629,0-4.339-1.783-4.339-4.447
					c0-2.684,1.836-4.646,4.681-4.646c0.937,0,1.765,0.233,2.197,0.468l-0.36,1.207c-0.378-0.198-0.973-0.414-1.837-0.414
					c-1.998,0-3.078,1.494-3.078,3.295c0,2.016,1.296,3.259,3.024,3.259c0.9,0,1.494-0.216,1.944-0.415L919.731,23.783z"/>
				<path fill="#FFFFFF" d="M923.354,12.926c0,0.54-0.378,0.973-1.009,0.973c-0.576,0-0.954-0.433-0.954-0.973
					c0-0.541,0.396-0.99,0.99-0.99C922.957,11.936,923.354,12.367,923.354,12.926z M921.589,24.089v-8.715h1.584v8.715H921.589z"/>
				<path fill="#FFFFFF" d="M933.69,19.66c0,3.223-2.251,4.627-4.34,4.627c-2.341,0-4.177-1.729-4.177-4.483
					c0-2.899,1.926-4.609,4.321-4.609C931.997,15.194,933.69,17.013,933.69,19.66z M926.794,19.75c0,1.908,1.08,3.349,2.629,3.349
					c1.513,0,2.646-1.423,2.646-3.386c0-1.476-0.738-3.33-2.61-3.33C927.604,16.383,926.794,18.111,926.794,19.75z M931.8,11.611
					l-2.197,2.574h-1.116l1.566-2.574H931.8z"/>
				<path fill="#FFFFFF" d="M935.691,17.732c0-0.918-0.019-1.638-0.072-2.358h1.404l0.091,1.44h0.035
					c0.433-0.811,1.44-1.62,2.881-1.62c1.207,0,3.079,0.72,3.079,3.709v5.186h-1.584v-5.023c0-1.404-0.522-2.575-2.017-2.575
					c-1.026,0-1.837,0.738-2.125,1.621c-0.072,0.197-0.108,0.468-0.108,0.738v5.239h-1.584V17.732z"/>
				<path fill="#FFFFFF" d="M949.56,12.098c0.757-0.127,1.747-0.234,3.007-0.234c1.549,0,2.683,0.359,3.403,1.008
					c0.648,0.576,1.062,1.459,1.062,2.539c0,1.099-0.324,1.963-0.937,2.593c-0.847,0.882-2.179,1.333-3.709,1.333
					c-0.468,0-0.9-0.019-1.261-0.108v4.861h-1.566V12.098z M951.126,17.949c0.343,0.09,0.774,0.126,1.297,0.126
					c1.891,0,3.043-0.937,3.043-2.575c0-1.62-1.152-2.395-2.863-2.395c-0.684,0-1.206,0.055-1.477,0.126V17.949z"/>
				<path fill="#FFFFFF" d="M958.476,22.486c0.486,0.288,1.314,0.612,2.106,0.612c1.134,0,1.675-0.558,1.675-1.296
					c0-0.757-0.45-1.152-1.603-1.585c-1.585-0.576-2.323-1.423-2.323-2.467c0-1.404,1.152-2.557,3.007-2.557
					c0.883,0,1.657,0.233,2.125,0.54l-0.378,1.152c-0.343-0.216-0.973-0.521-1.783-0.521c-0.936,0-1.44,0.539-1.44,1.188
					c0,0.721,0.505,1.045,1.639,1.494c1.495,0.559,2.287,1.314,2.287,2.611c0,1.549-1.207,2.629-3.241,2.629
					c-0.954,0-1.837-0.252-2.449-0.612L958.476,22.486z"/>
				<path fill="#FFFFFF" d="M967.589,12.926c0,0.54-0.378,0.973-1.009,0.973c-0.576,0-0.954-0.433-0.954-0.973
					c0-0.541,0.396-0.99,0.99-0.99C967.192,11.936,967.589,12.367,967.589,12.926z M965.824,24.089v-8.715h1.584v8.715H965.824z"/>
				<path fill="#FFFFFF" d="M976.251,23.783c-0.414,0.197-1.332,0.504-2.503,0.504c-2.629,0-4.339-1.783-4.339-4.447
					c0-2.684,1.836-4.646,4.681-4.646c0.937,0,1.765,0.233,2.197,0.468l-0.36,1.207c-0.378-0.198-0.973-0.414-1.837-0.414
					c-1.998,0-3.078,1.494-3.078,3.295c0,2.016,1.296,3.259,3.024,3.259c0.9,0,1.494-0.216,1.944-0.415L976.251,23.783z"/>
				<path fill="#FFFFFF" d="M985.887,19.66c0,3.223-2.251,4.627-4.34,4.627c-2.341,0-4.177-1.729-4.177-4.483
					c0-2.899,1.926-4.609,4.321-4.609C984.193,15.194,985.887,17.013,985.887,19.66z M978.99,19.75c0,1.908,1.08,3.349,2.629,3.349
					c1.513,0,2.646-1.423,2.646-3.386c0-1.476-0.738-3.33-2.61-3.33C979.801,16.383,978.99,18.111,978.99,19.75z"/>
				<path fill="#FFFFFF" d="M987.672,22.486c0.485,0.288,1.314,0.612,2.106,0.612c1.134,0,1.675-0.558,1.675-1.296
					c0-0.757-0.45-1.152-1.603-1.585c-1.585-0.576-2.323-1.423-2.323-2.467c0-1.404,1.152-2.557,3.007-2.557
					c0.883,0,1.656,0.233,2.125,0.54l-0.378,1.152c-0.343-0.216-0.973-0.521-1.783-0.521c-0.936,0-1.44,0.539-1.44,1.188
					c0,0.721,0.505,1.045,1.639,1.494c1.494,0.559,2.287,1.314,2.287,2.611c0,1.549-1.207,2.629-3.241,2.629
					c-0.954,0-1.837-0.252-2.448-0.612L987.672,22.486z"/>
				<path fill="#FFFFFF" d="M1002.907,19.66c0,3.223-2.251,4.627-4.34,4.627c-2.341,0-4.177-1.729-4.177-4.483
					c0-2.899,1.926-4.609,4.321-4.609C1001.214,15.194,1002.907,17.013,1002.907,19.66z M996.011,19.75
					c0,1.908,1.08,3.349,2.629,3.349c1.513,0,2.646-1.423,2.646-3.386c0-1.476-0.738-3.33-2.61-3.33
					C996.821,16.383,996.011,18.111,996.011,19.75z"/>
				<path fill="#FFFFFF" d="M1011.12,23.783c-0.414,0.197-1.332,0.504-2.503,0.504c-2.629,0-4.339-1.783-4.339-4.447
					c0-2.684,1.836-4.646,4.681-4.646c0.937,0,1.765,0.233,2.197,0.468l-0.36,1.207c-0.378-0.198-0.973-0.414-1.837-0.414
					c-1.998,0-3.078,1.494-3.078,3.295c0,2.016,1.296,3.259,3.024,3.259c0.9,0,1.494-0.216,1.944-0.415L1011.12,23.783z"/>
				<path fill="#FFFFFF" d="M1014.742,12.926c0,0.54-0.378,0.973-1.009,0.973c-0.576,0-0.954-0.433-0.954-0.973
					c0-0.541,0.396-0.99,0.99-0.99C1014.346,11.936,1014.742,12.367,1014.742,12.926z M1012.978,24.089v-8.715h1.584v8.715H1012.978
					z"/>
				<path fill="#FFFFFF" d="M1023.314,22c0,0.756,0.036,1.494,0.126,2.089h-1.423l-0.126-1.099h-0.054
					c-0.486,0.685-1.423,1.297-2.665,1.297c-1.765,0-2.665-1.242-2.665-2.503c0-2.106,1.873-3.259,5.24-3.241v-0.18
					c0-0.702-0.198-2.017-1.981-1.998c-0.828,0-1.674,0.233-2.286,0.647l-0.36-1.062c0.721-0.45,1.783-0.756,2.881-0.756
					c2.665,0,3.313,1.818,3.313,3.547V22z M1021.784,19.642c-1.729-0.036-3.691,0.271-3.691,1.962c0,1.045,0.684,1.514,1.477,1.514
					c1.152,0,1.891-0.721,2.143-1.459c0.054-0.18,0.072-0.36,0.072-0.504V19.642z"/>
				<path fill="#FFFFFF" d="M1025.873,11.305h1.584v12.784h-1.584V11.305z"/>
				<path fill="#FFFFFF" d="M1040.154,23.783c-0.414,0.197-1.333,0.504-2.503,0.504c-2.629,0-4.339-1.783-4.339-4.447
					c0-2.684,1.836-4.646,4.681-4.646c0.937,0,1.765,0.233,2.197,0.468l-0.36,1.207c-0.378-0.198-0.973-0.414-1.837-0.414
					c-1.998,0-3.078,1.494-3.078,3.295c0,2.016,1.296,3.259,3.024,3.259c0.9,0,1.494-0.216,1.944-0.415L1040.154,23.783z"/>
				<path fill="#FFFFFF" d="M1049.79,19.66c0,3.223-2.251,4.627-4.34,4.627c-2.341,0-4.177-1.729-4.177-4.483
					c0-2.899,1.926-4.609,4.321-4.609C1048.097,15.194,1049.79,17.013,1049.79,19.66z M1042.894,19.75
					c0,1.908,1.08,3.349,2.629,3.349c1.513,0,2.646-1.423,2.646-3.386c0-1.476-0.738-3.33-2.61-3.33
					C1043.704,16.383,1042.894,18.111,1042.894,19.75z"/>
				<path fill="#FFFFFF" d="M1051.791,11.305h1.584v12.784h-1.584V11.305z"/>
				<path fill="#FFFFFF" d="M1056.924,20.02c0.036,2.143,1.387,3.025,2.989,3.025c1.135,0,1.837-0.198,2.413-0.451l0.288,1.135
					c-0.559,0.252-1.531,0.559-2.917,0.559c-2.683,0-4.285-1.783-4.285-4.412c0-2.628,1.548-4.681,4.087-4.681
					c2.863,0,3.601,2.484,3.601,4.087c0,0.324-0.018,0.559-0.054,0.738H1056.924z M1061.569,18.885
					c0.019-0.99-0.414-2.557-2.196-2.557c-1.62,0-2.305,1.459-2.431,2.557H1061.569z"/>
				<path fill="#FFFFFF" d="M1071.277,23.783c-0.414,0.197-1.333,0.504-2.503,0.504c-2.629,0-4.339-1.783-4.339-4.447
					c0-2.684,1.836-4.646,4.681-4.646c0.937,0,1.765,0.233,2.197,0.468l-0.36,1.207c-0.378-0.198-0.973-0.414-1.837-0.414
					c-1.998,0-3.078,1.494-3.078,3.295c0,2.016,1.296,3.259,3.024,3.259c0.9,0,1.494-0.216,1.944-0.415L1071.277,23.783z"/>
				<path fill="#FFFFFF" d="M1075.276,13.285v2.089h2.269v1.206h-2.269v4.7c0,1.08,0.307,1.692,1.188,1.692
					c0.433,0,0.685-0.036,0.919-0.108l0.071,1.206c-0.306,0.108-0.792,0.217-1.404,0.217c-0.738,0-1.332-0.252-1.71-0.666
					c-0.433-0.486-0.612-1.261-0.612-2.287V16.58h-1.351v-1.206h1.351v-1.62L1075.276,13.285z"/>
				<path fill="#FFFFFF" d="M1081.095,12.926c0,0.54-0.378,0.973-1.009,0.973c-0.576,0-0.954-0.433-0.954-0.973
					c0-0.541,0.396-0.99,0.99-0.99C1080.698,11.936,1081.095,12.367,1081.095,12.926z M1079.33,24.089v-8.715h1.584v8.715H1079.33z"
					/>
				<path fill="#FFFFFF" d="M1084.156,15.374l1.71,4.88c0.288,0.811,0.522,1.53,0.702,2.25h0.055c0.198-0.72,0.45-1.439,0.738-2.25
					l1.692-4.88h1.656l-3.421,8.715h-1.513l-3.312-8.715H1084.156z"/>
				<path fill="#FFFFFF" d="M1098.258,22c0,0.756,0.036,1.494,0.126,2.089h-1.423l-0.126-1.099h-0.054
					c-0.486,0.685-1.423,1.297-2.665,1.297c-1.765,0-2.665-1.242-2.665-2.503c0-2.106,1.873-3.259,5.24-3.241v-0.18
					c0-0.702-0.198-2.017-1.981-1.998c-0.828,0-1.674,0.233-2.286,0.647l-0.36-1.062c0.721-0.45,1.783-0.756,2.881-0.756
					c2.665,0,3.313,1.818,3.313,3.547V22z M1096.728,19.642c-1.729-0.036-3.691,0.271-3.691,1.962c0,1.045,0.684,1.514,1.477,1.514
					c1.152,0,1.891-0.721,2.143-1.459c0.054-0.18,0.072-0.36,0.072-0.504V19.642z"/>
				<path fill="#FFFFFF" d="M1105.517,20.02c0.036,2.143,1.387,3.025,2.989,3.025c1.135,0,1.837-0.198,2.413-0.451l0.288,1.135
					c-0.559,0.252-1.531,0.559-2.917,0.559c-2.683,0-4.285-1.783-4.285-4.412c0-2.628,1.548-4.681,4.087-4.681
					c2.862,0,3.601,2.484,3.601,4.087c0,0.324-0.018,0.559-0.054,0.738H1105.517z M1110.162,18.885
					c0.019-0.99-0.414-2.557-2.196-2.557c-1.621,0-2.305,1.459-2.431,2.557H1110.162z M1110.522,11.611l-2.196,2.574h-1.116
					l1.584-2.574H1110.522z"/>
				<path fill="#FFFFFF" d="M1115.566,13.285v2.089h2.269v1.206h-2.269v4.7c0,1.08,0.307,1.692,1.188,1.692
					c0.433,0,0.685-0.036,0.918-0.108l0.072,1.206c-0.306,0.108-0.792,0.217-1.404,0.217c-0.738,0-1.332-0.252-1.71-0.666
					c-0.433-0.486-0.612-1.261-0.612-2.287V16.58h-1.351v-1.206h1.351v-1.62L1115.566,13.285z"/>
				<path fill="#FFFFFF" d="M1119.62,17.732c0-0.918-0.018-1.638-0.072-2.358h1.404l0.09,1.44h0.036
					c0.433-0.811,1.44-1.62,2.881-1.62c1.207,0,3.079,0.72,3.079,3.709v5.186h-1.584v-5.023c0-1.404-0.522-2.575-2.017-2.575
					c-1.026,0-1.837,0.738-2.125,1.621c-0.072,0.197-0.108,0.468-0.108,0.738v5.239h-1.584V17.732z"/>
				<path fill="#FFFFFF" d="M1131.381,12.926c0,0.54-0.378,0.973-1.009,0.973c-0.576,0-0.954-0.433-0.954-0.973
					c0-0.541,0.396-0.99,0.99-0.99C1130.984,11.936,1131.381,12.367,1131.381,12.926z M1129.616,24.089v-8.715h1.584v8.715H1129.616
					z"/>
				<path fill="#FFFFFF" d="M1140.043,23.783c-0.414,0.197-1.333,0.504-2.503,0.504c-2.629,0-4.339-1.783-4.339-4.447
					c0-2.684,1.836-4.646,4.681-4.646c0.937,0,1.765,0.233,2.197,0.468l-0.36,1.207c-0.378-0.198-0.973-0.414-1.837-0.414
					c-1.998,0-3.078,1.494-3.078,3.295c0,2.016,1.296,3.259,3.024,3.259c0.9,0,1.494-0.216,1.944-0.415L1140.043,23.783z"/>
				<path fill="#FFFFFF" d="M1148.021,22c0,0.756,0.036,1.494,0.126,2.089h-1.423l-0.126-1.099h-0.054
					c-0.486,0.685-1.423,1.297-2.665,1.297c-1.765,0-2.665-1.242-2.665-2.503c0-2.106,1.873-3.259,5.24-3.241v-0.18
					c0-0.702-0.198-2.017-1.981-1.998c-0.828,0-1.674,0.233-2.286,0.647l-0.36-1.062c0.721-0.45,1.783-0.756,2.881-0.756
					c2.665,0,3.313,1.818,3.313,3.547V22z M1146.491,19.642c-1.729-0.036-3.691,0.271-3.691,1.962c0,1.045,0.684,1.514,1.477,1.514
					c1.152,0,1.891-0.721,2.143-1.459c0.054-0.18,0.072-0.36,0.072-0.504V19.642z"/>
			</g>
		</g>
	</g>
</g>
</svg>
