<?xml version="1.0" encoding="utf-8"?>
<!-- Generator: Adobe Illustrator 16.0.0, SVG Export Plug-In . SVG Version: 6.00 Build 0)  -->
<!DOCTYPE svg PUBLIC "-//W3C//DTD SVG 1.1//EN" "http://www.w3.org/Graphics/SVG/1.1/DTD/svg11.dtd">
<svg version="1.1" id="Capa_1" xmlns="http://www.w3.org/2000/svg" xmlns:xlink="http://www.w3.org/1999/xlink" x="0px" y="0px"
	 width="936.055px" height="345.137px" viewBox="0 0 936.055 345.137" enable-background="new 0 0 936.055 345.137"
	 xml:space="preserve">
<g>
	<g>
		<g>
			<path d="M36.377,35.058l1.287-0.113c0.061,0.517,0.203,0.939,0.426,1.27c0.223,0.331,0.568,0.599,1.037,0.803
				c0.469,0.203,0.997,0.306,1.583,0.306c0.521,0,0.98-0.077,1.379-0.232c0.398-0.154,0.695-0.366,0.89-0.637
				c0.194-0.27,0.292-0.563,0.292-0.883c0-0.323-0.094-0.605-0.281-0.847c-0.188-0.242-0.497-0.444-0.929-0.608
				c-0.277-0.108-0.889-0.275-1.835-0.503c-0.947-0.228-1.611-0.442-1.991-0.644c-0.492-0.258-0.859-0.578-1.101-0.96
				c-0.242-0.383-0.362-0.811-0.362-1.284c0-0.521,0.147-1.007,0.443-1.459c0.295-0.453,0.727-0.796,1.294-1.031
				c0.567-0.234,1.198-0.352,1.892-0.352c0.764,0,1.438,0.123,2.022,0.369c0.584,0.247,1.033,0.608,1.347,1.087
				c0.314,0.479,0.483,1.021,0.507,1.625l-1.309,0.099c-0.07-0.652-0.308-1.145-0.714-1.478c-0.405-0.333-1.004-0.499-1.797-0.499
				c-0.825,0-1.427,0.151-1.804,0.454c-0.377,0.302-0.566,0.667-0.566,1.093c0,0.371,0.133,0.676,0.401,0.915
				c0.262,0.239,0.948,0.484,2.057,0.734c1.109,0.251,1.87,0.471,2.282,0.658c0.6,0.276,1.043,0.627,1.33,1.052
				c0.286,0.424,0.429,0.913,0.429,1.466c0,0.549-0.157,1.065-0.471,1.551c-0.314,0.485-0.766,0.863-1.354,1.133
				s-1.25,0.404-1.987,0.404c-0.933,0-1.715-0.136-2.346-0.408c-0.631-0.271-1.125-0.681-1.484-1.227
				C36.584,36.364,36.396,35.747,36.377,35.058z"/>
			<path d="M45.816,34.636c0-1.384,0.384-2.408,1.153-3.074c0.642-0.553,1.425-0.83,2.349-0.83c1.027,0,1.866,0.337,2.518,1.01
				s0.978,1.603,0.978,2.789c0,0.961-0.144,1.717-0.433,2.268c-0.288,0.552-0.708,0.979-1.259,1.284
				c-0.551,0.305-1.152,0.457-1.804,0.457c-1.046,0-1.891-0.335-2.536-1.006S45.816,35.896,45.816,34.636z M47.117,34.636
				c0,0.956,0.209,1.673,0.626,2.148c0.417,0.476,0.943,0.714,1.576,0.714c0.628,0,1.151-0.239,1.568-0.718
				c0.417-0.478,0.626-1.207,0.626-2.188c0-0.924-0.21-1.623-0.629-2.1c-0.42-0.476-0.941-0.714-1.565-0.714
				c-0.633,0-1.158,0.237-1.576,0.711C47.326,32.964,47.117,33.679,47.117,34.636z"/>
			<path d="M54.271,38.37V28.059h1.266V38.37H54.271z"/>
			<path d="M57.506,29.515v-1.456h1.266v1.456H57.506z M57.506,38.37V30.9h1.266v7.47H57.506z"/>
			<path d="M65.573,35.634l1.245,0.162c-0.136,0.858-0.484,1.529-1.044,2.015c-0.561,0.485-1.249,0.729-2.064,0.729
				c-1.022,0-1.844-0.334-2.465-1.002c-0.622-0.669-0.932-1.626-0.932-2.874c0-0.806,0.134-1.512,0.401-2.117
				c0.268-0.604,0.674-1.058,1.221-1.36c0.546-0.303,1.14-0.454,1.783-0.454c0.811,0,1.475,0.205,1.991,0.615
				c0.516,0.411,0.846,0.993,0.992,1.748l-1.231,0.19c-0.117-0.502-0.325-0.88-0.623-1.133s-0.658-0.38-1.08-0.38
				c-0.638,0-1.156,0.229-1.554,0.686c-0.399,0.458-0.598,1.181-0.598,2.17c0,1.004,0.192,1.733,0.577,2.188
				c0.385,0.455,0.886,0.683,1.505,0.683c0.497,0,0.912-0.152,1.245-0.457C65.273,36.736,65.484,36.268,65.573,35.634z"/>
			<path d="M67.908,29.515v-1.456h1.266v1.456H67.908z M67.908,38.37V30.9h1.266v7.47H67.908z"/>
			<path d="M73.866,37.237l0.183,1.119c-0.356,0.074-0.675,0.112-0.957,0.112c-0.459,0-0.816-0.073-1.069-0.218
				c-0.253-0.146-0.432-0.337-0.535-0.573c-0.103-0.237-0.155-0.735-0.155-1.495v-4.298h-0.928V30.9h0.928v-1.85l1.259-0.76V30.9
				h1.273v0.984h-1.273v4.368c0,0.361,0.022,0.594,0.067,0.696c0.044,0.104,0.117,0.186,0.218,0.246
				c0.101,0.062,0.245,0.092,0.433,0.092C73.451,37.287,73.636,37.271,73.866,37.237z"/>
			<path d="M79.999,38.37v-1.098c-0.582,0.845-1.372,1.267-2.37,1.267c-0.441,0-0.853-0.085-1.234-0.253
				c-0.382-0.169-0.666-0.381-0.851-0.637c-0.186-0.256-0.315-0.568-0.391-0.939c-0.051-0.248-0.077-0.643-0.077-1.182V30.9h1.266
				v4.143c0,0.661,0.026,1.107,0.077,1.337c0.08,0.333,0.249,0.594,0.506,0.784c0.258,0.189,0.577,0.284,0.957,0.284
				c0.38,0,0.736-0.097,1.069-0.291c0.333-0.195,0.568-0.46,0.707-0.795c0.138-0.335,0.208-0.822,0.208-1.46V30.9h1.266v7.47H79.999
				z"/>
			<path d="M87.96,38.37v-0.942c-0.474,0.741-1.17,1.111-2.089,1.111c-0.595,0-1.143-0.164-1.642-0.492
				c-0.5-0.328-0.886-0.787-1.161-1.375c-0.274-0.589-0.412-1.266-0.412-2.029c0-0.746,0.125-1.422,0.373-2.029
				s0.621-1.072,1.118-1.396c0.497-0.323,1.053-0.485,1.667-0.485c0.45,0,0.851,0.096,1.203,0.285s0.638,0.438,0.858,0.742v-3.7
				h1.259V38.37H87.96z M83.958,34.643c0,0.956,0.202,1.672,0.605,2.145c0.403,0.475,0.879,0.711,1.428,0.711
				c0.553,0,1.023-0.227,1.41-0.679s0.581-1.143,0.581-2.071c0-1.022-0.197-1.772-0.591-2.251c-0.394-0.479-0.879-0.718-1.456-0.718
				c-0.562,0-1.033,0.23-1.41,0.689C84.147,32.929,83.958,33.653,83.958,34.643z"/>
			<path d="M99.974,38.37v-0.942c-0.474,0.741-1.17,1.111-2.089,1.111c-0.595,0-1.143-0.164-1.642-0.492
				c-0.5-0.328-0.886-0.787-1.161-1.375c-0.274-0.589-0.412-1.266-0.412-2.029c0-0.746,0.125-1.422,0.373-2.029
				s0.621-1.072,1.118-1.396c0.497-0.323,1.053-0.485,1.667-0.485c0.45,0,0.851,0.096,1.203,0.285s0.638,0.438,0.858,0.742v-3.7
				h1.259V38.37H99.974z M95.972,34.643c0,0.956,0.202,1.672,0.605,2.145c0.403,0.475,0.879,0.711,1.428,0.711
				c0.553,0,1.023-0.227,1.41-0.679s0.581-1.143,0.581-2.071c0-1.022-0.197-1.772-0.591-2.251c-0.394-0.479-0.879-0.718-1.456-0.718
				c-0.562,0-1.033,0.23-1.41,0.689C96.161,32.929,95.972,33.653,95.972,34.643z"/>
			<path d="M108.252,35.965l1.308,0.161c-0.207,0.765-0.588,1.358-1.146,1.78s-1.271,0.633-2.138,0.633
				c-1.093,0-1.959-0.337-2.599-1.01c-0.64-0.673-0.96-1.616-0.96-2.831c0-1.256,0.324-2.231,0.971-2.926
				c0.647-0.693,1.486-1.041,2.518-1.041c0.999,0,1.814,0.34,2.448,1.021c0.633,0.68,0.949,1.636,0.949,2.869
				c0,0.075-0.002,0.188-0.007,0.338h-5.57c0.046,0.82,0.279,1.449,0.696,1.885c0.417,0.437,0.938,0.654,1.561,0.654
				c0.464,0,0.861-0.122,1.189-0.366C107.8,36.889,108.06,36.499,108.252,35.965z M104.096,33.918h4.171
				c-0.057-0.628-0.216-1.1-0.479-1.414c-0.403-0.487-0.926-0.731-1.568-0.731c-0.582,0-1.07,0.195-1.467,0.584
				C104.357,32.746,104.138,33.267,104.096,33.918z"/>
			<path d="M115.335,38.37V28.059h4.572c0.919,0,1.618,0.093,2.096,0.278c0.478,0.186,0.86,0.513,1.146,0.981
				c0.286,0.469,0.429,0.986,0.429,1.554c0,0.731-0.237,1.349-0.71,1.851c-0.474,0.501-1.205,0.82-2.194,0.956
				c0.361,0.174,0.635,0.345,0.823,0.514c0.398,0.365,0.776,0.823,1.132,1.371l1.793,2.807h-1.716l-1.364-2.146
				c-0.399-0.619-0.727-1.092-0.985-1.421c-0.258-0.328-0.489-0.558-0.693-0.688c-0.204-0.132-0.411-0.223-0.623-0.274
				c-0.155-0.033-0.408-0.05-0.759-0.05H116.7v4.579H115.335z M116.7,32.609h2.933c0.624,0,1.111-0.064,1.463-0.193
				c0.352-0.129,0.619-0.335,0.802-0.619c0.183-0.283,0.274-0.592,0.274-0.925c0-0.487-0.177-0.889-0.531-1.202
				c-0.354-0.314-0.913-0.472-1.678-0.472H116.7V32.609z"/>
			<path d="M130.668,35.965l1.308,0.161c-0.207,0.765-0.588,1.358-1.146,1.78s-1.271,0.633-2.138,0.633
				c-1.093,0-1.959-0.337-2.599-1.01c-0.64-0.673-0.96-1.616-0.96-2.831c0-1.256,0.324-2.231,0.971-2.926
				c0.647-0.693,1.486-1.041,2.518-1.041c0.999,0,1.814,0.34,2.448,1.021c0.633,0.68,0.949,1.636,0.949,2.869
				c0,0.075-0.002,0.188-0.007,0.338h-5.57c0.046,0.82,0.279,1.449,0.696,1.885c0.417,0.437,0.938,0.654,1.561,0.654
				c0.464,0,0.861-0.122,1.189-0.366C130.216,36.889,130.476,36.499,130.668,35.965z M126.512,33.918h4.171
				c-0.057-0.628-0.216-1.1-0.479-1.414c-0.403-0.487-0.926-0.731-1.568-0.731c-0.582,0-1.07,0.195-1.467,0.584
				C126.773,32.746,126.554,33.267,126.512,33.918z"/>
			<path d="M133.333,38.989l1.231,0.183c0.052,0.38,0.194,0.656,0.429,0.83c0.314,0.234,0.743,0.352,1.287,0.352
				c0.586,0,1.039-0.117,1.357-0.352s0.535-0.562,0.647-0.984c0.065-0.259,0.096-0.8,0.091-1.625
				c-0.553,0.651-1.243,0.978-2.068,0.978c-1.027,0-1.821-0.37-2.384-1.111c-0.562-0.741-0.844-1.629-0.844-2.666
				c0-0.712,0.129-1.37,0.387-1.973s0.632-1.067,1.122-1.396c0.49-0.328,1.066-0.492,1.727-0.492c0.881,0,1.608,0.356,2.18,1.069
				v-0.9h1.167v6.457c0,1.163-0.118,1.987-0.355,2.472c-0.237,0.485-0.612,0.869-1.125,1.15c-0.513,0.281-1.145,0.422-1.896,0.422
				c-0.891,0-1.61-0.2-2.159-0.602C133.58,40.399,133.315,39.796,133.333,38.989z M134.382,34.502c0,0.979,0.194,1.694,0.583,2.145
				s0.877,0.676,1.463,0.676c0.582,0,1.069-0.224,1.463-0.672c0.394-0.447,0.591-1.15,0.591-2.106c0-0.914-0.203-1.604-0.608-2.068
				c-0.405-0.464-0.894-0.696-1.466-0.696c-0.562,0-1.041,0.229-1.435,0.687C134.579,32.923,134.382,33.602,134.382,34.502z"/>
			<path d="M141.584,29.515v-1.456h1.266v1.456H141.584z M141.584,38.37V30.9h1.266v7.47H141.584z"/>
			<path d="M144.271,36.141l1.252-0.197c0.07,0.502,0.266,0.887,0.587,1.153c0.321,0.268,0.771,0.401,1.347,0.401
				c0.581,0,1.013-0.118,1.294-0.355c0.281-0.236,0.422-0.515,0.422-0.833c0-0.286-0.125-0.512-0.373-0.676
				c-0.173-0.112-0.605-0.255-1.294-0.429c-0.929-0.234-1.572-0.438-1.931-0.608c-0.359-0.171-0.631-0.408-0.816-0.71
				c-0.186-0.303-0.278-0.637-0.278-1.003c0-0.333,0.076-0.641,0.229-0.925c0.152-0.283,0.36-0.52,0.623-0.707
				c0.197-0.146,0.465-0.269,0.805-0.369s0.705-0.151,1.094-0.151c0.586,0,1.101,0.085,1.544,0.254
				c0.443,0.168,0.77,0.397,0.981,0.686s0.356,0.674,0.436,1.157l-1.238,0.168c-0.056-0.384-0.219-0.685-0.489-0.899
				c-0.27-0.216-0.651-0.324-1.143-0.324c-0.582,0-0.997,0.097-1.245,0.289c-0.249,0.191-0.373,0.417-0.373,0.675
				c0,0.164,0.052,0.312,0.155,0.443c0.103,0.136,0.265,0.248,0.485,0.337c0.126,0.047,0.5,0.155,1.118,0.324
				c0.896,0.239,1.521,0.435,1.875,0.587s0.632,0.374,0.833,0.665c0.202,0.29,0.302,0.651,0.302,1.083
				c0,0.422-0.123,0.819-0.369,1.192c-0.246,0.372-0.601,0.661-1.065,0.865c-0.464,0.203-0.99,0.306-1.576,0.306
				c-0.971,0-1.71-0.202-2.219-0.605C144.736,37.531,144.412,36.933,144.271,36.141z"/>
			<path d="M154.744,37.237l0.183,1.119c-0.356,0.074-0.675,0.112-0.957,0.112c-0.459,0-0.816-0.073-1.069-0.218
				c-0.253-0.146-0.432-0.337-0.535-0.573c-0.103-0.237-0.155-0.735-0.155-1.495v-4.298h-0.928V30.9h0.928v-1.85l1.259-0.76V30.9
				h1.273v0.984h-1.273v4.368c0,0.361,0.022,0.594,0.067,0.696c0.044,0.104,0.117,0.186,0.218,0.246
				c0.101,0.062,0.245,0.092,0.433,0.092C154.329,37.287,154.514,37.271,154.744,37.237z"/>
			<path d="M155.968,38.37V30.9h1.139v1.133c0.291-0.53,0.56-0.88,0.806-1.048c0.246-0.169,0.517-0.254,0.812-0.254
				c0.427,0,0.861,0.137,1.301,0.408l-0.436,1.175c-0.31-0.183-0.619-0.274-0.928-0.274c-0.277,0-0.525,0.083-0.746,0.25
				c-0.221,0.166-0.377,0.397-0.471,0.692c-0.141,0.45-0.211,0.942-0.211,1.478v3.91H155.968z"/>
			<path d="M160.308,34.636c0-1.384,0.384-2.408,1.153-3.074c0.642-0.553,1.425-0.83,2.349-0.83c1.027,0,1.866,0.337,2.518,1.01
				s0.978,1.603,0.978,2.789c0,0.961-0.144,1.717-0.433,2.268c-0.288,0.552-0.708,0.979-1.259,1.284
				c-0.551,0.305-1.152,0.457-1.804,0.457c-1.046,0-1.891-0.335-2.536-1.006S160.308,35.896,160.308,34.636z M161.608,34.636
				c0,0.956,0.209,1.673,0.626,2.148c0.417,0.476,0.943,0.714,1.576,0.714c0.628,0,1.151-0.239,1.568-0.718
				c0.417-0.478,0.626-1.207,0.626-2.188c0-0.924-0.21-1.623-0.629-2.1c-0.42-0.476-0.941-0.714-1.565-0.714
				c-0.633,0-1.158,0.237-1.576,0.711C161.817,32.964,161.608,33.679,161.608,34.636z"/>
			<path d="M58.747,52.774v-0.942c-0.474,0.741-1.17,1.111-2.089,1.111c-0.595,0-1.143-0.164-1.642-0.492
				c-0.5-0.328-0.886-0.787-1.161-1.375c-0.274-0.589-0.412-1.266-0.412-2.029c0-0.746,0.125-1.422,0.373-2.029
				s0.621-1.072,1.118-1.396c0.497-0.323,1.053-0.485,1.667-0.485c0.45,0,0.851,0.096,1.203,0.285s0.638,0.438,0.858,0.742v-3.7
				h1.259v10.312H58.747z M54.745,49.047c0,0.956,0.202,1.672,0.605,2.145c0.403,0.475,0.879,0.711,1.428,0.711
				c0.553,0,1.023-0.227,1.41-0.679s0.581-1.143,0.581-2.071c0-1.022-0.197-1.772-0.591-2.251c-0.394-0.479-0.879-0.718-1.456-0.718
				c-0.562,0-1.033,0.23-1.41,0.689C54.934,47.333,54.745,48.058,54.745,49.047z"/>
			<path d="M67.026,50.369l1.308,0.161c-0.207,0.765-0.588,1.358-1.146,1.78s-1.271,0.633-2.138,0.633
				c-1.093,0-1.959-0.337-2.599-1.01c-0.64-0.673-0.96-1.616-0.96-2.831c0-1.256,0.324-2.231,0.971-2.926
				c0.647-0.693,1.486-1.041,2.518-1.041c0.999,0,1.814,0.34,2.448,1.021c0.633,0.68,0.949,1.636,0.949,2.869
				c0,0.075-0.002,0.188-0.007,0.338h-5.57c0.046,0.82,0.279,1.449,0.696,1.885c0.417,0.437,0.938,0.654,1.561,0.654
				c0.464,0,0.861-0.122,1.189-0.366C66.573,51.293,66.833,50.903,67.026,50.369z M62.869,48.322h4.171
				c-0.057-0.628-0.216-1.1-0.479-1.414c-0.403-0.487-0.926-0.731-1.568-0.731c-0.582,0-1.07,0.195-1.467,0.584
				C63.13,47.15,62.911,47.671,62.869,48.322z"/>
			<path d="M73.897,52.774V42.463h1.266v10.312H73.897z"/>
			<path d="M82,51.853c-0.469,0.399-0.92,0.681-1.354,0.845s-0.899,0.246-1.396,0.246c-0.821,0-1.451-0.2-1.892-0.602
				c-0.441-0.4-0.661-0.913-0.661-1.537c0-0.365,0.083-0.699,0.25-1.002s0.385-0.545,0.654-0.728
				c0.27-0.184,0.573-0.321,0.911-0.415c0.249-0.066,0.624-0.129,1.125-0.19c1.022-0.122,1.775-0.267,2.258-0.436
				c0.004-0.174,0.007-0.284,0.007-0.331c0-0.516-0.12-0.879-0.358-1.09c-0.324-0.286-0.804-0.43-1.442-0.43
				c-0.596,0-1.035,0.104-1.319,0.313s-0.494,0.578-0.629,1.107l-1.238-0.169c0.113-0.529,0.298-0.957,0.556-1.283
				s0.631-0.577,1.119-0.753c0.487-0.176,1.053-0.264,1.695-0.264c0.638,0,1.156,0.075,1.555,0.226
				c0.398,0.149,0.691,0.339,0.879,0.566s0.319,0.515,0.394,0.861c0.042,0.216,0.063,0.604,0.063,1.167v1.688
				c0,1.177,0.027,1.921,0.081,2.233c0.054,0.312,0.161,0.61,0.32,0.896h-1.322C82.122,52.512,82.038,52.205,82,51.853z
				 M81.895,49.025c-0.459,0.188-1.149,0.348-2.068,0.479c-0.521,0.075-0.889,0.159-1.104,0.253
				c-0.215,0.094-0.382,0.231-0.499,0.412c-0.117,0.18-0.176,0.381-0.176,0.601c0,0.338,0.127,0.619,0.383,0.845
				c0.255,0.225,0.629,0.337,1.122,0.337c0.488,0,0.921-0.106,1.301-0.319c0.38-0.214,0.659-0.506,0.837-0.876
				c0.136-0.286,0.204-0.708,0.204-1.266V49.025z"/>
			<path d="M84.63,50.545l1.252-0.197c0.07,0.502,0.266,0.887,0.587,1.153c0.321,0.268,0.771,0.401,1.347,0.401
				c0.581,0,1.013-0.118,1.294-0.355c0.281-0.236,0.422-0.515,0.422-0.833c0-0.286-0.125-0.512-0.373-0.676
				c-0.173-0.112-0.605-0.255-1.294-0.429c-0.929-0.234-1.572-0.438-1.931-0.608c-0.359-0.171-0.631-0.408-0.816-0.71
				c-0.186-0.303-0.278-0.637-0.278-1.003c0-0.333,0.076-0.641,0.229-0.925c0.152-0.283,0.36-0.52,0.623-0.707
				c0.197-0.146,0.465-0.269,0.805-0.369s0.705-0.151,1.094-0.151c0.586,0,1.101,0.085,1.544,0.254
				c0.443,0.168,0.77,0.397,0.981,0.686s0.356,0.674,0.436,1.157L89.315,47.4c-0.056-0.384-0.219-0.685-0.489-0.899
				c-0.27-0.216-0.651-0.324-1.143-0.324c-0.582,0-0.997,0.097-1.245,0.289c-0.249,0.191-0.373,0.417-0.373,0.675
				c0,0.164,0.052,0.312,0.155,0.443c0.103,0.136,0.265,0.248,0.485,0.337c0.126,0.047,0.5,0.155,1.118,0.324
				c0.896,0.239,1.521,0.435,1.875,0.587s0.632,0.374,0.833,0.665c0.202,0.29,0.302,0.651,0.302,1.083
				c0,0.422-0.123,0.819-0.369,1.192c-0.246,0.372-0.601,0.661-1.065,0.865c-0.464,0.203-0.99,0.306-1.576,0.306
				c-0.971,0-1.71-0.202-2.219-0.605C85.096,51.936,84.771,51.337,84.63,50.545z"/>
			<path d="M99.45,52.774l-3.995-10.312h1.477l2.68,7.491c0.215,0.601,0.396,1.163,0.542,1.688c0.159-0.562,0.345-1.125,0.556-1.688
				l2.785-7.491h1.393l-4.037,10.312H99.45z"/>
			<path d="M106.329,44.376l0.936-1.969h1.66l-1.547,1.969H106.329z M106.392,52.774v-7.47h1.266v7.47H106.392z"/>
			<path d="M114.825,50.038l1.245,0.162c-0.136,0.858-0.484,1.529-1.044,2.015c-0.561,0.485-1.249,0.729-2.064,0.729
				c-1.022,0-1.844-0.334-2.465-1.002c-0.622-0.669-0.932-1.626-0.932-2.874c0-0.806,0.134-1.512,0.401-2.117
				c0.268-0.604,0.674-1.058,1.221-1.36c0.546-0.303,1.14-0.454,1.783-0.454c0.811,0,1.475,0.205,1.991,0.615
				c0.516,0.411,0.846,0.993,0.992,1.748l-1.231,0.19c-0.117-0.502-0.325-0.88-0.623-1.133s-0.658-0.38-1.08-0.38
				c-0.638,0-1.156,0.229-1.554,0.686c-0.399,0.458-0.598,1.181-0.598,2.17c0,1.004,0.192,1.733,0.577,2.188
				c0.385,0.455,0.886,0.683,1.505,0.683c0.497,0,0.912-0.152,1.245-0.457C114.525,51.141,114.736,50.672,114.825,50.038z"/>
			<path d="M119.918,51.642l0.183,1.119c-0.356,0.074-0.675,0.112-0.957,0.112c-0.459,0-0.816-0.073-1.069-0.218
				c-0.253-0.146-0.432-0.337-0.535-0.573c-0.103-0.237-0.155-0.735-0.155-1.495v-4.298h-0.928v-0.984h0.928v-1.85l1.259-0.76v2.609
				h1.273v0.984h-1.273v4.368c0,0.361,0.022,0.594,0.067,0.696c0.044,0.104,0.117,0.186,0.218,0.246
				c0.101,0.062,0.245,0.092,0.433,0.092C119.503,51.691,119.688,51.675,119.918,51.642z"/>
			<path d="M121.163,43.919v-1.456h1.266v1.456H121.163z M121.163,52.774v-7.47h1.266v7.47H121.163z"/>
			<path d="M124.356,52.774v-7.47h1.132v1.048c0.234-0.365,0.546-0.659,0.936-0.883c0.389-0.223,0.832-0.334,1.329-0.334
				c0.553,0,1.007,0.115,1.361,0.345c0.354,0.23,0.604,0.551,0.749,0.964c0.591-0.872,1.36-1.309,2.307-1.309
				c0.741,0,1.311,0.205,1.709,0.615c0.399,0.411,0.598,1.043,0.598,1.896v5.127h-1.259v-4.705c0-0.507-0.041-0.871-0.123-1.094
				s-0.231-0.402-0.446-0.538c-0.216-0.136-0.469-0.204-0.76-0.204c-0.525,0-0.961,0.175-1.308,0.523
				c-0.347,0.35-0.521,0.909-0.521,1.678v4.34h-1.266v-4.854c0-0.562-0.103-0.984-0.31-1.266s-0.544-0.422-1.013-0.422
				c-0.356,0-0.686,0.094-0.988,0.281s-0.521,0.462-0.658,0.823c-0.136,0.36-0.204,0.881-0.204,1.562v3.875H124.356z"/>
			<path d="M141.229,51.853c-0.469,0.399-0.92,0.681-1.354,0.845s-0.899,0.246-1.396,0.246c-0.821,0-1.451-0.2-1.892-0.602
				c-0.441-0.4-0.661-0.913-0.661-1.537c0-0.365,0.083-0.699,0.25-1.002s0.385-0.545,0.654-0.728
				c0.27-0.184,0.573-0.321,0.911-0.415c0.249-0.066,0.624-0.129,1.125-0.19c1.022-0.122,1.775-0.267,2.258-0.436
				c0.004-0.174,0.007-0.284,0.007-0.331c0-0.516-0.12-0.879-0.358-1.09c-0.324-0.286-0.804-0.43-1.442-0.43
				c-0.596,0-1.035,0.104-1.319,0.313s-0.494,0.578-0.629,1.107l-1.238-0.169c0.113-0.529,0.298-0.957,0.556-1.283
				s0.631-0.577,1.119-0.753c0.487-0.176,1.053-0.264,1.695-0.264c0.638,0,1.156,0.075,1.555,0.226
				c0.398,0.149,0.691,0.339,0.879,0.566s0.319,0.515,0.394,0.861c0.042,0.216,0.063,0.604,0.063,1.167v1.688
				c0,1.177,0.027,1.921,0.081,2.233c0.054,0.312,0.161,0.61,0.32,0.896h-1.322C141.351,52.512,141.267,52.205,141.229,51.853z
				 M141.124,49.025c-0.459,0.188-1.149,0.348-2.068,0.479c-0.521,0.075-0.889,0.159-1.104,0.253
				c-0.215,0.094-0.382,0.231-0.499,0.412c-0.117,0.18-0.176,0.381-0.176,0.601c0,0.338,0.127,0.619,0.383,0.845
				c0.255,0.225,0.629,0.337,1.122,0.337c0.488,0,0.921-0.106,1.301-0.319c0.38-0.214,0.659-0.506,0.837-0.876
				c0.136-0.286,0.204-0.708,0.204-1.266V49.025z"/>
			<path d="M143.859,50.545l1.252-0.197c0.07,0.502,0.266,0.887,0.587,1.153c0.321,0.268,0.771,0.401,1.347,0.401
				c0.581,0,1.013-0.118,1.294-0.355c0.281-0.236,0.422-0.515,0.422-0.833c0-0.286-0.125-0.512-0.373-0.676
				c-0.173-0.112-0.605-0.255-1.294-0.429c-0.929-0.234-1.572-0.438-1.931-0.608c-0.359-0.171-0.631-0.408-0.816-0.71
				c-0.186-0.303-0.278-0.637-0.278-1.003c0-0.333,0.076-0.641,0.229-0.925c0.152-0.283,0.36-0.52,0.623-0.707
				c0.197-0.146,0.465-0.269,0.805-0.369s0.705-0.151,1.094-0.151c0.586,0,1.101,0.085,1.544,0.254
				c0.443,0.168,0.77,0.397,0.981,0.686s0.356,0.674,0.436,1.157l-1.238,0.168c-0.056-0.384-0.219-0.685-0.489-0.899
				c-0.27-0.216-0.651-0.324-1.143-0.324c-0.582,0-0.997,0.097-1.245,0.289c-0.249,0.191-0.373,0.417-0.373,0.675
				c0,0.164,0.052,0.312,0.155,0.443c0.103,0.136,0.265,0.248,0.485,0.337c0.126,0.047,0.5,0.155,1.118,0.324
				c0.896,0.239,1.521,0.435,1.875,0.587s0.632,0.374,0.833,0.665c0.202,0.29,0.302,0.651,0.302,1.083
				c0,0.422-0.123,0.819-0.369,1.192c-0.246,0.372-0.601,0.661-1.065,0.865c-0.464,0.203-0.99,0.306-1.576,0.306
				c-0.971,0-1.71-0.202-2.219-0.605C144.325,51.936,144,51.337,143.859,50.545z"/>
			<path d="M151.927,52.774v-1.441h1.442v1.441H151.927z"/>
		</g>
		<g>
			<path d="M272.45,16.162l-3.995-10.312h1.477l2.68,7.491c0.215,0.601,0.396,1.163,0.542,1.688
				c0.159-0.562,0.345-1.125,0.556-1.688l2.785-7.491h1.393l-4.037,10.312H272.45z"/>
			<path d="M283.268,13.757l1.308,0.161c-0.207,0.765-0.588,1.358-1.146,1.78s-1.271,0.633-2.138,0.633
				c-1.093,0-1.959-0.337-2.599-1.01c-0.64-0.673-0.96-1.616-0.96-2.831c0-1.256,0.324-2.231,0.971-2.926
				c0.647-0.693,1.486-1.041,2.518-1.041c0.999,0,1.814,0.34,2.448,1.021c0.633,0.68,0.949,1.636,0.949,2.869
				c0,0.075-0.002,0.188-0.007,0.338h-5.57c0.046,0.82,0.279,1.449,0.696,1.885c0.417,0.437,0.938,0.654,1.561,0.654
				c0.464,0,0.861-0.122,1.189-0.366C282.815,14.681,283.075,14.291,283.268,13.757z M279.111,11.71h4.171
				c-0.057-0.628-0.216-1.1-0.479-1.414c-0.403-0.487-0.926-0.731-1.568-0.731c-0.582,0-1.07,0.195-1.467,0.584
				C279.372,10.538,279.153,11.059,279.111,11.71z"/>
			<path d="M286.151,16.162v-7.47h1.139v1.133c0.291-0.53,0.56-0.88,0.806-1.048c0.246-0.169,0.517-0.254,0.812-0.254
				c0.427,0,0.861,0.137,1.301,0.408l-0.436,1.175c-0.31-0.183-0.619-0.274-0.928-0.274c-0.277,0-0.525,0.083-0.746,0.25
				c-0.221,0.166-0.377,0.397-0.471,0.692c-0.141,0.45-0.211,0.942-0.211,1.478v3.91H286.151z"/>
			<path d="M290.969,7.307V5.851h1.266v1.456H290.969z M290.969,16.162v-7.47h1.266v7.47H290.969z"/>
			<path d="M294.465,16.162V9.677h-1.118V8.692h1.118V7.897c0-0.501,0.044-0.874,0.134-1.118c0.122-0.328,0.336-0.594,0.644-0.798
				s0.737-0.307,1.291-0.307c0.356,0,0.75,0.043,1.182,0.127l-0.19,1.104c-0.263-0.047-0.511-0.07-0.746-0.07
				c-0.384,0-0.656,0.082-0.816,0.246c-0.159,0.164-0.239,0.471-0.239,0.921v0.689h1.456v0.984h-1.456v6.485H294.465z"/>
			<path d="M298.171,7.307V5.851h1.266v1.456H298.171z M298.171,16.162v-7.47h1.266v7.47H298.171z"/>
			<path d="M306.239,13.426l1.245,0.162c-0.136,0.858-0.484,1.529-1.044,2.015c-0.561,0.485-1.249,0.729-2.064,0.729
				c-1.022,0-1.844-0.334-2.465-1.002c-0.622-0.669-0.932-1.626-0.932-2.874c0-0.806,0.134-1.512,0.401-2.117
				c0.268-0.604,0.674-1.058,1.221-1.36c0.546-0.303,1.14-0.454,1.783-0.454c0.811,0,1.475,0.205,1.991,0.615
				c0.516,0.411,0.846,0.993,0.992,1.748l-1.231,0.19c-0.117-0.502-0.325-0.88-0.623-1.133s-0.658-0.38-1.08-0.38
				c-0.638,0-1.156,0.229-1.554,0.686c-0.399,0.458-0.598,1.181-0.598,2.17c0,1.004,0.192,1.733,0.577,2.188
				c0.385,0.455,0.886,0.683,1.505,0.683c0.497,0,0.912-0.152,1.245-0.457C305.938,14.528,306.149,14.06,306.239,13.426z"/>
			<path d="M313.441,15.24c-0.469,0.399-0.92,0.681-1.354,0.845s-0.899,0.246-1.396,0.246c-0.821,0-1.451-0.2-1.892-0.602
				c-0.441-0.4-0.661-0.913-0.661-1.537c0-0.365,0.083-0.699,0.25-1.002s0.385-0.545,0.654-0.728
				c0.27-0.184,0.573-0.321,0.911-0.415c0.249-0.066,0.624-0.129,1.125-0.19c1.022-0.122,1.775-0.267,2.258-0.436
				c0.004-0.174,0.007-0.284,0.007-0.331c0-0.516-0.12-0.879-0.358-1.09c-0.324-0.286-0.804-0.43-1.442-0.43
				c-0.596,0-1.035,0.104-1.319,0.313s-0.494,0.578-0.629,1.107l-1.238-0.169c0.113-0.529,0.298-0.957,0.556-1.283
				s0.631-0.577,1.119-0.753c0.487-0.176,1.053-0.264,1.695-0.264c0.638,0,1.156,0.075,1.555,0.226
				c0.398,0.149,0.691,0.339,0.879,0.566s0.319,0.515,0.394,0.861c0.042,0.216,0.063,0.604,0.063,1.167v1.688
				c0,1.177,0.027,1.921,0.081,2.233c0.054,0.312,0.161,0.61,0.32,0.896h-1.322C313.563,15.899,313.479,15.593,313.441,15.24z
				 M313.335,12.413c-0.459,0.188-1.149,0.348-2.068,0.479c-0.521,0.075-0.889,0.159-1.104,0.253
				c-0.215,0.094-0.382,0.231-0.499,0.412c-0.117,0.18-0.176,0.381-0.176,0.601c0,0.338,0.127,0.619,0.383,0.845
				c0.255,0.225,0.629,0.337,1.122,0.337c0.488,0,0.921-0.106,1.301-0.319c0.38-0.214,0.659-0.506,0.837-0.876
				c0.136-0.286,0.204-0.708,0.204-1.266V12.413z"/>
			<path d="M321.452,13.426l1.245,0.162c-0.136,0.858-0.484,1.529-1.044,2.015c-0.561,0.485-1.249,0.729-2.064,0.729
				c-1.022,0-1.844-0.334-2.465-1.002c-0.622-0.669-0.932-1.626-0.932-2.874c0-0.806,0.134-1.512,0.401-2.117
				c0.268-0.604,0.674-1.058,1.221-1.36c0.546-0.303,1.14-0.454,1.783-0.454c0.811,0,1.475,0.205,1.991,0.615
				c0.516,0.411,0.846,0.993,0.992,1.748l-1.231,0.19c-0.117-0.502-0.325-0.88-0.623-1.133s-0.658-0.38-1.08-0.38
				c-0.638,0-1.156,0.229-1.554,0.686c-0.399,0.458-0.598,1.181-0.598,2.17c0,1.004,0.192,1.733,0.577,2.188
				c0.385,0.455,0.886,0.683,1.505,0.683c0.497,0,0.912-0.152,1.245-0.457C321.152,14.528,321.363,14.06,321.452,13.426z"/>
			<path d="M323.788,7.307V5.851h1.266v1.456H323.788z M323.788,16.162v-7.47h1.266v7.47H323.788z"/>
			<path d="M326.51,12.428c0-1.384,0.384-2.408,1.153-3.074c0.642-0.553,1.425-0.83,2.349-0.83c1.027,0,1.866,0.337,2.518,1.01
				s0.978,1.603,0.978,2.789c0,0.961-0.144,1.717-0.433,2.268c-0.288,0.552-0.708,0.979-1.259,1.284
				c-0.551,0.305-1.152,0.457-1.804,0.457c-1.046,0-1.891-0.335-2.536-1.006S326.51,13.688,326.51,12.428z M327.811,12.428
				c0,0.956,0.209,1.673,0.626,2.148c0.417,0.476,0.943,0.714,1.576,0.714c0.628,0,1.151-0.239,1.568-0.718
				c0.417-0.478,0.626-1.207,0.626-2.188c0-0.924-0.21-1.623-0.629-2.1c-0.42-0.476-0.941-0.714-1.565-0.714
				c-0.633,0-1.158,0.237-1.576,0.711C328.02,10.756,327.811,11.471,327.811,12.428z M329.309,7.764l0.935-1.969h1.66l-1.547,1.969
				H329.309z"/>
			<path d="M334.992,16.162v-7.47h1.139v1.062c0.549-0.82,1.341-1.231,2.377-1.231c0.45,0,0.864,0.081,1.241,0.243
				c0.377,0.161,0.66,0.374,0.848,0.637s0.319,0.574,0.394,0.935c0.047,0.235,0.07,0.646,0.07,1.231v4.593h-1.266v-4.544
				c0-0.516-0.049-0.901-0.148-1.156c-0.098-0.256-0.273-0.46-0.524-0.612s-0.545-0.229-0.882-0.229
				c-0.54,0-1.005,0.171-1.396,0.514c-0.392,0.342-0.587,0.991-0.587,1.948v4.079H334.992z"/>
			<path d="M351.851,16.162V15.22c-0.474,0.741-1.17,1.111-2.089,1.111c-0.595,0-1.143-0.164-1.642-0.492
				c-0.5-0.328-0.886-0.787-1.161-1.375c-0.274-0.589-0.412-1.266-0.412-2.029c0-0.746,0.125-1.422,0.373-2.029
				s0.621-1.072,1.118-1.396c0.497-0.323,1.053-0.485,1.667-0.485c0.45,0,0.851,0.096,1.203,0.285s0.638,0.438,0.858,0.742v-3.7
				h1.259v10.312H351.851z M347.849,12.435c0,0.956,0.202,1.672,0.605,2.145c0.403,0.475,0.879,0.711,1.428,0.711
				c0.553,0,1.023-0.227,1.41-0.679s0.581-1.143,0.581-2.071c0-1.022-0.197-1.772-0.591-2.251c-0.394-0.479-0.879-0.718-1.456-0.718
				c-0.562,0-1.033,0.23-1.41,0.689C348.038,10.721,347.849,11.445,347.849,12.435z"/>
			<path d="M360.129,13.757l1.308,0.161c-0.207,0.765-0.588,1.358-1.146,1.78s-1.271,0.633-2.138,0.633
				c-1.093,0-1.959-0.337-2.599-1.01c-0.64-0.673-0.96-1.616-0.96-2.831c0-1.256,0.324-2.231,0.971-2.926
				c0.647-0.693,1.486-1.041,2.518-1.041c0.999,0,1.814,0.34,2.448,1.021c0.633,0.68,0.949,1.636,0.949,2.869
				c0,0.075-0.002,0.188-0.007,0.338h-5.57c0.046,0.82,0.279,1.449,0.696,1.885c0.417,0.437,0.938,0.654,1.561,0.654
				c0.464,0,0.861-0.122,1.189-0.366C359.677,14.681,359.937,14.291,360.129,13.757z M355.973,11.71h4.171
				c-0.057-0.628-0.216-1.1-0.479-1.414c-0.403-0.487-0.926-0.731-1.568-0.731c-0.582,0-1.07,0.195-1.467,0.584
				C356.234,10.538,356.015,11.059,355.973,11.71z"/>
			<path d="M367.001,16.162V5.851h1.266v10.312H367.001z"/>
			<path d="M369.759,12.428c0-1.384,0.384-2.408,1.153-3.074c0.642-0.553,1.425-0.83,2.349-0.83c1.027,0,1.866,0.337,2.518,1.01
				s0.978,1.603,0.978,2.789c0,0.961-0.144,1.717-0.433,2.268c-0.288,0.552-0.708,0.979-1.259,1.284
				c-0.551,0.305-1.152,0.457-1.804,0.457c-1.046,0-1.891-0.335-2.536-1.006S369.759,13.688,369.759,12.428z M371.06,12.428
				c0,0.956,0.209,1.673,0.626,2.148c0.417,0.476,0.943,0.714,1.576,0.714c0.628,0,1.151-0.239,1.568-0.718
				c0.417-0.478,0.626-1.207,0.626-2.188c0-0.924-0.21-1.623-0.629-2.1c-0.42-0.476-0.941-0.714-1.565-0.714
				c-0.633,0-1.158,0.237-1.576,0.711C371.269,10.756,371.06,11.471,371.06,12.428z"/>
			<path d="M377.734,13.933l1.252-0.197c0.07,0.502,0.266,0.887,0.587,1.153c0.321,0.268,0.771,0.401,1.347,0.401
				c0.581,0,1.013-0.118,1.294-0.355c0.281-0.236,0.422-0.515,0.422-0.833c0-0.286-0.125-0.512-0.373-0.676
				c-0.173-0.112-0.605-0.255-1.294-0.429c-0.929-0.234-1.572-0.438-1.931-0.608c-0.359-0.171-0.631-0.408-0.816-0.71
				c-0.186-0.303-0.278-0.637-0.278-1.003c0-0.333,0.076-0.641,0.229-0.925c0.152-0.283,0.36-0.52,0.623-0.707
				c0.197-0.146,0.465-0.269,0.805-0.369s0.705-0.151,1.094-0.151c0.586,0,1.101,0.085,1.544,0.254
				c0.443,0.168,0.77,0.397,0.981,0.686s0.356,0.674,0.436,1.157l-1.238,0.168c-0.056-0.384-0.219-0.685-0.489-0.899
				c-0.27-0.216-0.651-0.324-1.143-0.324c-0.582,0-0.997,0.097-1.245,0.289c-0.249,0.191-0.373,0.417-0.373,0.675
				c0,0.164,0.052,0.312,0.155,0.443c0.103,0.136,0.265,0.248,0.485,0.337c0.126,0.047,0.5,0.155,1.118,0.324
				c0.896,0.239,1.521,0.435,1.875,0.587s0.632,0.374,0.833,0.665c0.202,0.29,0.302,0.651,0.302,1.083
				c0,0.422-0.123,0.819-0.369,1.192c-0.246,0.372-0.601,0.661-1.065,0.865c-0.464,0.203-0.99,0.306-1.576,0.306
				c-0.971,0-1.71-0.202-2.219-0.605C378.199,15.323,377.875,14.725,377.734,13.933z"/>
			<path d="M258.879,30.566V20.255h1.365v4.234h5.359v-4.234h1.365v10.312h-1.365v-4.86h-5.359v4.86H258.879z"/>
			<path d="M274.191,28.161l1.308,0.161c-0.207,0.765-0.588,1.358-1.146,1.78s-1.271,0.633-2.138,0.633
				c-1.093,0-1.959-0.337-2.599-1.01c-0.64-0.673-0.96-1.616-0.96-2.831c0-1.256,0.324-2.231,0.971-2.926
				c0.647-0.693,1.486-1.041,2.518-1.041c0.999,0,1.814,0.34,2.448,1.021c0.633,0.68,0.949,1.636,0.949,2.869
				c0,0.075-0.002,0.188-0.007,0.338h-5.57c0.046,0.82,0.279,1.449,0.696,1.885c0.417,0.437,0.938,0.654,1.561,0.654
				c0.464,0,0.861-0.122,1.189-0.366C273.738,29.085,273.999,28.695,274.191,28.161z M270.034,26.114h4.171
				c-0.057-0.628-0.216-1.1-0.479-1.414c-0.403-0.487-0.926-0.731-1.568-0.731c-0.582,0-1.07,0.195-1.467,0.584
				C270.295,24.942,270.076,25.463,270.034,26.114z"/>
			<path d="M281.963,27.83l1.245,0.162c-0.136,0.858-0.484,1.529-1.044,2.015c-0.561,0.485-1.249,0.729-2.064,0.729
				c-1.022,0-1.844-0.334-2.465-1.002c-0.622-0.669-0.932-1.626-0.932-2.874c0-0.806,0.134-1.512,0.401-2.117
				c0.268-0.604,0.674-1.058,1.221-1.36c0.546-0.303,1.14-0.454,1.783-0.454c0.811,0,1.475,0.205,1.991,0.615
				c0.516,0.411,0.846,0.993,0.992,1.748l-1.231,0.19c-0.117-0.502-0.325-0.88-0.623-1.133s-0.658-0.38-1.08-0.38
				c-0.638,0-1.156,0.229-1.554,0.686c-0.399,0.458-0.598,1.181-0.598,2.17c0,1.004,0.192,1.733,0.577,2.188
				c0.385,0.455,0.886,0.683,1.505,0.683c0.497,0,0.912-0.152,1.245-0.457C281.663,28.933,281.874,28.464,281.963,27.83z"/>
			<path d="M284.292,30.566V20.255h1.266v3.7c0.591-0.685,1.336-1.027,2.237-1.027c0.553,0,1.034,0.109,1.442,0.327
				c0.408,0.218,0.7,0.52,0.875,0.904c0.176,0.384,0.264,0.942,0.264,1.674v4.733h-1.266v-4.733c0-0.633-0.137-1.094-0.412-1.382
				c-0.274-0.289-0.662-0.433-1.164-0.433c-0.375,0-0.728,0.097-1.059,0.292c-0.331,0.194-0.566,0.458-0.707,0.791
				c-0.141,0.333-0.211,0.792-0.211,1.378v4.087H284.292z"/>
			<path d="M291.831,26.832c0-1.384,0.384-2.408,1.153-3.074c0.642-0.553,1.425-0.83,2.349-0.83c1.027,0,1.866,0.337,2.518,1.01
				s0.978,1.603,0.978,2.789c0,0.961-0.144,1.717-0.433,2.268c-0.288,0.552-0.708,0.979-1.259,1.284
				c-0.551,0.305-1.152,0.457-1.804,0.457c-1.046,0-1.891-0.335-2.536-1.006S291.831,28.093,291.831,26.832z M293.132,26.832
				c0,0.956,0.209,1.673,0.626,2.148c0.417,0.476,0.943,0.714,1.576,0.714c0.628,0,1.151-0.239,1.568-0.718
				c0.417-0.478,0.626-1.207,0.626-2.188c0-0.924-0.21-1.623-0.629-2.1c-0.42-0.476-0.941-0.714-1.565-0.714
				c-0.633,0-1.158,0.237-1.576,0.711C293.341,25.16,293.132,25.875,293.132,26.832z"/>
			<path d="M299.807,28.337l1.252-0.197c0.07,0.502,0.266,0.887,0.587,1.153c0.321,0.268,0.771,0.401,1.347,0.401
				c0.581,0,1.013-0.118,1.294-0.355c0.281-0.236,0.422-0.515,0.422-0.833c0-0.286-0.125-0.512-0.373-0.676
				c-0.173-0.112-0.605-0.255-1.294-0.429c-0.929-0.234-1.572-0.438-1.931-0.608c-0.359-0.171-0.631-0.408-0.816-0.71
				c-0.186-0.303-0.278-0.637-0.278-1.003c0-0.333,0.076-0.641,0.229-0.925c0.152-0.283,0.36-0.52,0.623-0.707
				c0.197-0.146,0.465-0.269,0.805-0.369s0.705-0.151,1.094-0.151c0.586,0,1.101,0.085,1.544,0.254
				c0.443,0.168,0.77,0.397,0.981,0.686s0.356,0.674,0.436,1.157l-1.238,0.168c-0.056-0.384-0.219-0.685-0.489-0.899
				c-0.27-0.216-0.651-0.324-1.143-0.324c-0.582,0-0.997,0.097-1.245,0.289c-0.249,0.191-0.373,0.417-0.373,0.675
				c0,0.164,0.052,0.312,0.155,0.443c0.103,0.136,0.265,0.248,0.485,0.337c0.126,0.047,0.5,0.155,1.118,0.324
				c0.896,0.239,1.521,0.435,1.875,0.587s0.632,0.374,0.833,0.665c0.202,0.29,0.302,0.651,0.302,1.083
				c0,0.422-0.123,0.819-0.369,1.192c-0.246,0.372-0.601,0.661-1.065,0.865c-0.464,0.203-0.99,0.306-1.576,0.306
				c-0.971,0-1.71-0.202-2.219-0.605C300.272,29.728,299.948,29.129,299.807,28.337z"/>
			<path d="M314.626,30.566l-3.995-10.312h1.477l2.68,7.491c0.215,0.601,0.396,1.163,0.542,1.688
				c0.159-0.562,0.345-1.125,0.556-1.688l2.785-7.491h1.393l-4.037,10.312H314.626z"/>
			<path d="M320.873,21.711v-1.456h1.266v1.456H320.873z M320.873,30.566v-7.47h1.266v7.47H320.873z"/>
			<path d="M328.94,27.83l1.245,0.162c-0.136,0.858-0.484,1.529-1.044,2.015c-0.561,0.485-1.249,0.729-2.064,0.729
				c-1.022,0-1.844-0.334-2.465-1.002c-0.622-0.669-0.932-1.626-0.932-2.874c0-0.806,0.134-1.512,0.401-2.117
				c0.268-0.604,0.674-1.058,1.221-1.36c0.546-0.303,1.14-0.454,1.783-0.454c0.811,0,1.475,0.205,1.991,0.615
				c0.516,0.411,0.846,0.993,0.992,1.748l-1.231,0.19c-0.117-0.502-0.325-0.88-0.623-1.133s-0.658-0.38-1.08-0.38
				c-0.638,0-1.156,0.229-1.554,0.686c-0.399,0.458-0.598,1.181-0.598,2.17c0,1.004,0.192,1.733,0.577,2.188
				c0.385,0.455,0.886,0.683,1.505,0.683c0.497,0,0.912-0.152,1.245-0.457C328.64,28.933,328.851,28.464,328.94,27.83z"/>
			<path d="M334.032,29.434l0.183,1.119c-0.356,0.074-0.675,0.112-0.957,0.112c-0.459,0-0.816-0.073-1.069-0.218
				c-0.253-0.146-0.432-0.337-0.535-0.573c-0.103-0.237-0.155-0.735-0.155-1.495v-4.298h-0.928v-0.984h0.928v-1.85l1.259-0.76v2.609
				h1.273v0.984h-1.273v4.368c0,0.361,0.022,0.594,0.067,0.696c0.044,0.104,0.117,0.186,0.218,0.246
				c0.101,0.062,0.245,0.092,0.433,0.092C333.617,29.483,333.802,29.467,334.032,29.434z"/>
			<path d="M335.277,21.711v-1.456h1.266v1.456H335.277z M335.277,30.566v-7.47h1.266v7.47H335.277z"/>
			<path d="M338.47,30.566v-7.47h1.132v1.048c0.234-0.365,0.546-0.659,0.936-0.883c0.389-0.223,0.832-0.334,1.329-0.334
				c0.553,0,1.007,0.115,1.361,0.345c0.354,0.23,0.604,0.551,0.749,0.964c0.591-0.872,1.36-1.309,2.307-1.309
				c0.741,0,1.311,0.205,1.709,0.615c0.399,0.411,0.598,1.043,0.598,1.896v5.127h-1.259v-4.705c0-0.507-0.041-0.871-0.123-1.094
				s-0.231-0.402-0.446-0.538c-0.216-0.136-0.469-0.204-0.76-0.204c-0.525,0-0.961,0.175-1.308,0.523
				c-0.347,0.35-0.521,0.909-0.521,1.678v4.34h-1.266v-4.854c0-0.562-0.103-0.984-0.31-1.266s-0.544-0.422-1.013-0.422
				c-0.356,0-0.686,0.094-0.988,0.281s-0.521,0.462-0.658,0.823c-0.136,0.36-0.204,0.881-0.204,1.562v3.875H338.47z"/>
			<path d="M350.476,21.711v-1.456h1.266v1.456H350.476z M350.476,30.566v-7.47h1.266v7.47H350.476z"/>
			<path d="M353.001,30.566v-1.027l4.755-5.458c-0.54,0.028-1.016,0.043-1.428,0.043h-3.046v-1.027h6.105v0.837l-4.044,4.741
				l-0.781,0.864c0.567-0.042,1.1-0.062,1.597-0.062h3.454v1.09H353.001z"/>
			<path d="M365.746,29.645c-0.469,0.399-0.92,0.681-1.354,0.845s-0.899,0.246-1.396,0.246c-0.821,0-1.451-0.2-1.892-0.602
				c-0.441-0.4-0.661-0.913-0.661-1.537c0-0.365,0.083-0.699,0.25-1.002s0.385-0.545,0.654-0.728
				c0.27-0.184,0.573-0.321,0.911-0.415c0.249-0.066,0.624-0.129,1.125-0.19c1.022-0.122,1.775-0.267,2.258-0.436
				c0.004-0.174,0.007-0.284,0.007-0.331c0-0.516-0.12-0.879-0.358-1.09c-0.324-0.286-0.804-0.43-1.442-0.43
				c-0.596,0-1.035,0.104-1.319,0.313s-0.494,0.578-0.629,1.107l-1.238-0.169c0.113-0.529,0.298-0.957,0.556-1.283
				s0.631-0.577,1.119-0.753c0.487-0.176,1.053-0.264,1.695-0.264c0.638,0,1.156,0.075,1.555,0.226
				c0.398,0.149,0.691,0.339,0.879,0.566s0.319,0.515,0.394,0.861c0.042,0.216,0.063,0.604,0.063,1.167v1.688
				c0,1.177,0.027,1.921,0.081,2.233c0.054,0.312,0.161,0.61,0.32,0.896H366C365.868,30.304,365.784,29.997,365.746,29.645z
				 M365.641,26.817c-0.459,0.188-1.149,0.348-2.068,0.479c-0.521,0.075-0.889,0.159-1.104,0.253
				c-0.215,0.094-0.382,0.231-0.499,0.412c-0.117,0.18-0.176,0.381-0.176,0.601c0,0.338,0.127,0.619,0.383,0.845
				c0.255,0.225,0.629,0.337,1.122,0.337c0.488,0,0.921-0.106,1.301-0.319c0.38-0.214,0.659-0.506,0.837-0.876
				c0.136-0.286,0.204-0.708,0.204-1.266V26.817z"/>
			<path d="M368.883,30.566v-7.47h1.139v1.062c0.549-0.82,1.341-1.231,2.377-1.231c0.45,0,0.864,0.081,1.241,0.243
				c0.377,0.161,0.66,0.374,0.848,0.637s0.319,0.574,0.394,0.935c0.047,0.235,0.07,0.646,0.07,1.231v4.593h-1.266v-4.544
				c0-0.516-0.049-0.901-0.148-1.156c-0.098-0.256-0.273-0.46-0.524-0.612s-0.545-0.229-0.882-0.229
				c-0.54,0-1.005,0.171-1.396,0.514c-0.392,0.342-0.587,0.991-0.587,1.948v4.079H368.883z"/>
			<path d="M379.659,29.434l0.183,1.119c-0.356,0.074-0.675,0.112-0.957,0.112c-0.459,0-0.816-0.073-1.069-0.218
				c-0.253-0.146-0.432-0.337-0.535-0.573c-0.103-0.237-0.155-0.735-0.155-1.495v-4.298h-0.928v-0.984h0.928v-1.85l1.259-0.76v2.609
				h1.273v0.984h-1.273v4.368c0,0.361,0.022,0.594,0.067,0.696c0.044,0.104,0.117,0.186,0.218,0.246
				c0.101,0.062,0.245,0.092,0.433,0.092C379.244,29.483,379.429,29.467,379.659,29.434z"/>
			<path d="M386.01,28.161l1.308,0.161c-0.207,0.765-0.588,1.358-1.146,1.78s-1.271,0.633-2.138,0.633
				c-1.093,0-1.959-0.337-2.599-1.01c-0.64-0.673-0.96-1.616-0.96-2.831c0-1.256,0.324-2.231,0.971-2.926
				c0.647-0.693,1.486-1.041,2.518-1.041c0.999,0,1.814,0.34,2.448,1.021c0.633,0.68,0.949,1.636,0.949,2.869
				c0,0.075-0.002,0.188-0.007,0.338h-5.57c0.046,0.82,0.279,1.449,0.696,1.885c0.417,0.437,0.938,0.654,1.561,0.654
				c0.464,0,0.861-0.122,1.189-0.366C385.557,29.085,385.817,28.695,386.01,28.161z M381.853,26.114h4.171
				c-0.057-0.628-0.216-1.1-0.479-1.414c-0.403-0.487-0.926-0.731-1.568-0.731c-0.582,0-1.07,0.195-1.467,0.584
				C382.114,24.942,381.895,25.463,381.853,26.114z"/>
			<path d="M388.401,28.337l1.252-0.197c0.07,0.502,0.266,0.887,0.587,1.153c0.321,0.268,0.771,0.401,1.347,0.401
				c0.581,0,1.013-0.118,1.294-0.355c0.281-0.236,0.422-0.515,0.422-0.833c0-0.286-0.125-0.512-0.373-0.676
				c-0.173-0.112-0.605-0.255-1.294-0.429c-0.929-0.234-1.572-0.438-1.931-0.608c-0.359-0.171-0.631-0.408-0.816-0.71
				c-0.186-0.303-0.278-0.637-0.278-1.003c0-0.333,0.076-0.641,0.229-0.925c0.152-0.283,0.36-0.52,0.623-0.707
				c0.197-0.146,0.465-0.269,0.805-0.369s0.705-0.151,1.094-0.151c0.586,0,1.101,0.085,1.544,0.254
				c0.443,0.168,0.77,0.397,0.981,0.686s0.356,0.674,0.436,1.157l-1.238,0.168c-0.056-0.384-0.219-0.685-0.489-0.899
				c-0.27-0.216-0.651-0.324-1.143-0.324c-0.582,0-0.997,0.097-1.245,0.289c-0.249,0.191-0.373,0.417-0.373,0.675
				c0,0.164,0.052,0.312,0.155,0.443c0.103,0.136,0.265,0.248,0.485,0.337c0.126,0.047,0.5,0.155,1.118,0.324
				c0.896,0.239,1.521,0.435,1.875,0.587s0.632,0.374,0.833,0.665c0.202,0.29,0.302,0.651,0.302,1.083
				c0,0.422-0.123,0.819-0.369,1.192c-0.246,0.372-0.601,0.661-1.065,0.865c-0.464,0.203-0.99,0.306-1.576,0.306
				c-0.971,0-1.71-0.202-2.219-0.605C388.866,29.728,388.542,29.129,388.401,28.337z"/>
			<path d="M396.468,30.566v-1.441h1.442v1.441H396.468z"/>
		</g>
		<g>
			<path d="M40.237,269.203v-10.312h3.552c0.802,0,1.414,0.05,1.836,0.148c0.591,0.136,1.095,0.382,1.512,0.738
				c0.544,0.46,0.951,1.047,1.22,1.762s0.404,1.532,0.404,2.451c0,0.783-0.091,1.478-0.274,2.082
				c-0.183,0.604-0.417,1.105-0.704,1.502c-0.286,0.396-0.599,0.708-0.939,0.936s-0.75,0.399-1.231,0.517s-1.033,0.176-1.656,0.176
				H40.237z M41.602,267.986h2.202c0.68,0,1.213-0.063,1.6-0.189c0.387-0.127,0.695-0.306,0.925-0.535
				c0.324-0.323,0.576-0.758,0.756-1.305c0.18-0.546,0.271-1.208,0.271-1.987c0-1.078-0.177-1.906-0.531-2.486
				c-0.354-0.578-0.784-0.967-1.291-1.164c-0.366-0.141-0.955-0.211-1.766-0.211h-2.167V267.986z"/>
			<path d="M55.591,266.798l1.308,0.161c-0.207,0.765-0.588,1.358-1.146,1.78s-1.271,0.633-2.138,0.633
				c-1.093,0-1.959-0.337-2.599-1.01c-0.64-0.673-0.96-1.616-0.96-2.831c0-1.256,0.324-2.231,0.971-2.926
				c0.647-0.693,1.486-1.041,2.518-1.041c0.999,0,1.814,0.34,2.448,1.021c0.633,0.68,0.949,1.636,0.949,2.869
				c0,0.075-0.002,0.188-0.007,0.338h-5.57c0.046,0.82,0.279,1.449,0.696,1.885c0.417,0.437,0.938,0.654,1.561,0.654
				c0.464,0,0.861-0.122,1.189-0.366C55.139,267.722,55.399,267.332,55.591,266.798z M51.435,264.751h4.171
				c-0.057-0.628-0.216-1.1-0.479-1.414c-0.403-0.487-0.926-0.731-1.568-0.731c-0.582,0-1.07,0.195-1.467,0.584
				C51.696,263.579,51.477,264.1,51.435,264.751z"/>
			<path d="M63.363,266.467l1.245,0.162c-0.136,0.858-0.484,1.529-1.044,2.015c-0.561,0.485-1.249,0.729-2.064,0.729
				c-1.022,0-1.844-0.334-2.465-1.002c-0.622-0.669-0.932-1.626-0.932-2.874c0-0.806,0.134-1.512,0.401-2.117
				c0.268-0.604,0.674-1.058,1.221-1.36c0.546-0.303,1.14-0.454,1.783-0.454c0.811,0,1.475,0.205,1.991,0.615
				c0.516,0.411,0.846,0.993,0.992,1.748l-1.231,0.19c-0.117-0.502-0.325-0.88-0.623-1.133s-0.658-0.38-1.08-0.38
				c-0.638,0-1.156,0.229-1.554,0.686c-0.399,0.458-0.598,1.181-0.598,2.17c0,1.004,0.192,1.733,0.577,2.188
				c0.385,0.455,0.886,0.683,1.505,0.683c0.497,0,0.912-0.152,1.245-0.457C63.063,267.569,63.274,267.101,63.363,266.467z"/>
			<path d="M65.699,260.348v-1.456h1.266v1.456H65.699z M65.699,269.203v-7.47h1.266v7.47H65.699z"/>
			<path d="M68.385,266.974l1.252-0.197c0.07,0.502,0.266,0.887,0.587,1.153c0.321,0.268,0.771,0.401,1.347,0.401
				c0.581,0,1.013-0.118,1.294-0.355c0.281-0.236,0.422-0.515,0.422-0.833c0-0.286-0.125-0.512-0.373-0.676
				c-0.173-0.112-0.605-0.255-1.294-0.429c-0.929-0.234-1.572-0.438-1.931-0.608c-0.359-0.171-0.631-0.408-0.816-0.71
				c-0.186-0.303-0.278-0.637-0.278-1.003c0-0.333,0.076-0.641,0.229-0.925c0.152-0.283,0.36-0.52,0.623-0.707
				c0.197-0.146,0.465-0.269,0.805-0.369s0.705-0.151,1.094-0.151c0.586,0,1.101,0.085,1.544,0.254
				c0.443,0.168,0.77,0.397,0.981,0.686s0.356,0.674,0.436,1.157l-1.238,0.168c-0.056-0.384-0.219-0.685-0.489-0.899
				c-0.27-0.216-0.651-0.324-1.143-0.324c-0.582,0-0.997,0.097-1.245,0.289c-0.249,0.191-0.373,0.417-0.373,0.675
				c0,0.164,0.052,0.312,0.155,0.443c0.103,0.136,0.265,0.248,0.485,0.337c0.126,0.047,0.5,0.155,1.118,0.324
				c0.896,0.239,1.521,0.435,1.875,0.587s0.632,0.374,0.833,0.665c0.202,0.29,0.302,0.651,0.302,1.083
				c0,0.422-0.123,0.819-0.369,1.192c-0.246,0.372-0.601,0.661-1.065,0.865c-0.464,0.203-0.99,0.306-1.576,0.306
				c-0.971,0-1.71-0.202-2.219-0.605C68.851,268.364,68.526,267.766,68.385,266.974z"/>
			<path d="M76.101,260.348v-1.456h1.266v1.456H76.101z M76.101,269.203v-7.47h1.266v7.47H76.101z"/>
			<path d="M78.823,265.469c0-1.384,0.384-2.408,1.153-3.074c0.642-0.553,1.425-0.83,2.349-0.83c1.027,0,1.866,0.337,2.518,1.01
				s0.978,1.603,0.978,2.789c0,0.961-0.144,1.717-0.433,2.268c-0.288,0.552-0.708,0.979-1.259,1.284
				c-0.551,0.305-1.152,0.457-1.804,0.457c-1.046,0-1.891-0.335-2.536-1.006S78.823,266.729,78.823,265.469z M80.124,265.469
				c0,0.956,0.209,1.673,0.626,2.148c0.417,0.476,0.943,0.714,1.576,0.714c0.628,0,1.151-0.239,1.568-0.718
				c0.417-0.478,0.626-1.207,0.626-2.188c0-0.924-0.21-1.623-0.629-2.1c-0.42-0.476-0.941-0.714-1.565-0.714
				c-0.633,0-1.158,0.237-1.576,0.711C80.333,263.797,80.124,264.512,80.124,265.469z M81.623,260.805l0.935-1.969h1.66
				l-1.547,1.969H81.623z"/>
			<path d="M87.306,269.203v-7.47h1.139v1.062c0.549-0.82,1.341-1.231,2.377-1.231c0.45,0,0.864,0.081,1.241,0.243
				c0.377,0.161,0.66,0.374,0.848,0.637s0.319,0.574,0.394,0.935c0.047,0.235,0.07,0.646,0.07,1.231v4.593h-1.266v-4.544
				c0-0.516-0.049-0.901-0.148-1.156c-0.098-0.256-0.273-0.46-0.524-0.612s-0.545-0.229-0.882-0.229
				c-0.54,0-1.005,0.171-1.396,0.514c-0.392,0.342-0.587,0.991-0.587,1.948v4.079H87.306z"/>
			<path d="M98.812,266.974l1.252-0.197c0.07,0.502,0.266,0.887,0.587,1.153c0.321,0.268,0.771,0.401,1.347,0.401
				c0.581,0,1.013-0.118,1.294-0.355c0.281-0.236,0.422-0.515,0.422-0.833c0-0.286-0.125-0.512-0.373-0.676
				c-0.173-0.112-0.605-0.255-1.294-0.429c-0.929-0.234-1.572-0.438-1.931-0.608c-0.359-0.171-0.631-0.408-0.816-0.71
				c-0.186-0.303-0.278-0.637-0.278-1.003c0-0.333,0.076-0.641,0.229-0.925c0.152-0.283,0.36-0.52,0.623-0.707
				c0.197-0.146,0.465-0.269,0.805-0.369s0.705-0.151,1.094-0.151c0.586,0,1.101,0.085,1.544,0.254
				c0.443,0.168,0.77,0.397,0.981,0.686s0.356,0.674,0.436,1.157l-1.238,0.168c-0.056-0.384-0.219-0.685-0.489-0.899
				c-0.27-0.216-0.651-0.324-1.143-0.324c-0.582,0-0.997,0.097-1.245,0.289c-0.249,0.191-0.373,0.417-0.373,0.675
				c0,0.164,0.052,0.312,0.155,0.443c0.103,0.136,0.265,0.248,0.485,0.337c0.126,0.047,0.5,0.155,1.118,0.324
				c0.896,0.239,1.521,0.435,1.875,0.587s0.632,0.374,0.833,0.665c0.202,0.29,0.302,0.651,0.302,1.083
				c0,0.422-0.123,0.819-0.369,1.192c-0.246,0.372-0.601,0.661-1.065,0.865c-0.464,0.203-0.99,0.306-1.576,0.306
				c-0.971,0-1.71-0.202-2.219-0.605C99.277,268.364,98.953,267.766,98.812,266.974z"/>
			<path d="M106.05,265.469c0-1.384,0.384-2.408,1.153-3.074c0.642-0.553,1.425-0.83,2.349-0.83c1.027,0,1.866,0.337,2.518,1.01
				s0.978,1.603,0.978,2.789c0,0.961-0.144,1.717-0.433,2.268c-0.288,0.552-0.708,0.979-1.259,1.284
				c-0.551,0.305-1.152,0.457-1.804,0.457c-1.046,0-1.891-0.335-2.536-1.006S106.05,266.729,106.05,265.469z M107.351,265.469
				c0,0.956,0.209,1.673,0.626,2.148c0.417,0.476,0.943,0.714,1.576,0.714c0.628,0,1.151-0.239,1.568-0.718
				c0.417-0.478,0.626-1.207,0.626-2.188c0-0.924-0.21-1.623-0.629-2.1c-0.42-0.476-0.941-0.714-1.565-0.714
				c-0.633,0-1.158,0.237-1.576,0.711C107.56,263.797,107.351,264.512,107.351,265.469z"/>
			<path d="M115.7,269.203h-1.175v-10.312h1.266v3.679c0.535-0.67,1.217-1.006,2.047-1.006c0.459,0,0.894,0.093,1.305,0.278
				c0.41,0.186,0.748,0.445,1.013,0.78c0.265,0.336,0.472,0.74,0.623,1.214c0.15,0.474,0.225,0.979,0.225,1.519
				c0,1.28-0.316,2.27-0.95,2.969c-0.633,0.698-1.393,1.048-2.279,1.048c-0.881,0-1.573-0.368-2.075-1.104V269.203z
				 M115.686,265.412c0,0.896,0.122,1.543,0.366,1.941c0.398,0.651,0.938,0.978,1.618,0.978c0.553,0,1.032-0.24,1.435-0.721
				c0.403-0.48,0.604-1.197,0.604-2.149c0-0.975-0.193-1.694-0.58-2.159c-0.387-0.464-0.854-0.696-1.403-0.696
				c-0.553,0-1.031,0.24-1.435,0.721C115.887,263.808,115.686,264.502,115.686,265.412z"/>
			<path d="M122.529,269.203v-7.47h1.139v1.133c0.291-0.53,0.56-0.88,0.806-1.048c0.246-0.169,0.517-0.254,0.812-0.254
				c0.427,0,0.861,0.137,1.301,0.408l-0.436,1.175c-0.31-0.183-0.619-0.274-0.928-0.274c-0.277,0-0.525,0.083-0.746,0.25
				c-0.221,0.166-0.377,0.397-0.471,0.692c-0.141,0.45-0.211,0.942-0.211,1.478v3.91H122.529z"/>
			<path d="M132.454,266.798l1.308,0.161c-0.207,0.765-0.588,1.358-1.146,1.78s-1.271,0.633-2.138,0.633
				c-1.093,0-1.959-0.337-2.599-1.01c-0.64-0.673-0.96-1.616-0.96-2.831c0-1.256,0.324-2.231,0.971-2.926
				c0.647-0.693,1.486-1.041,2.518-1.041c0.999,0,1.814,0.34,2.448,1.021c0.633,0.68,0.949,1.636,0.949,2.869
				c0,0.075-0.002,0.188-0.007,0.338h-5.57c0.046,0.82,0.279,1.449,0.696,1.885c0.417,0.437,0.938,0.654,1.561,0.654
				c0.464,0,0.861-0.122,1.189-0.366C132.001,267.722,132.261,267.332,132.454,266.798z M128.297,264.751h4.171
				c-0.057-0.628-0.216-1.1-0.479-1.414c-0.403-0.487-0.926-0.731-1.568-0.731c-0.582,0-1.07,0.195-1.467,0.584
				C128.558,263.579,128.339,264.1,128.297,264.751z"/>
			<path d="M58.401,284.083l1.308,0.161c-0.207,0.765-0.588,1.358-1.146,1.78s-1.271,0.633-2.138,0.633
				c-1.093,0-1.959-0.337-2.599-1.01c-0.64-0.673-0.96-1.616-0.96-2.831c0-1.256,0.324-2.231,0.971-2.926
				c0.647-0.693,1.486-1.041,2.518-1.041c0.999,0,1.814,0.34,2.448,1.021c0.633,0.68,0.949,1.636,0.949,2.869
				c0,0.075-0.002,0.188-0.007,0.338h-5.57c0.046,0.82,0.279,1.449,0.696,1.885c0.417,0.437,0.938,0.654,1.561,0.654
				c0.464,0,0.861-0.122,1.189-0.366C57.949,285.007,58.209,284.617,58.401,284.083z M54.245,282.036h4.171
				c-0.057-0.628-0.216-1.1-0.479-1.414c-0.403-0.487-0.926-0.731-1.568-0.731c-0.582,0-1.07,0.195-1.467,0.584
				C54.506,280.864,54.287,281.385,54.245,282.036z"/>
			<path d="M61.271,286.488v-10.312h1.266v10.312H61.271z"/>
			<path d="M68.684,286.488v-10.312h4.572c0.919,0,1.618,0.093,2.096,0.278c0.478,0.186,0.86,0.513,1.146,0.981
				c0.286,0.469,0.429,0.986,0.429,1.554c0,0.731-0.237,1.349-0.71,1.851c-0.474,0.501-1.205,0.82-2.194,0.956
				c0.361,0.174,0.635,0.345,0.823,0.514c0.398,0.365,0.776,0.823,1.132,1.371l1.793,2.807h-1.716l-1.364-2.146
				c-0.399-0.619-0.727-1.092-0.985-1.421c-0.258-0.328-0.489-0.558-0.693-0.688c-0.204-0.132-0.411-0.223-0.623-0.274
				c-0.155-0.033-0.408-0.05-0.759-0.05h-1.583v4.579H68.684z M70.049,280.728h2.933c0.624,0,1.111-0.064,1.463-0.193
				c0.352-0.129,0.619-0.335,0.802-0.619c0.183-0.283,0.274-0.592,0.274-0.925c0-0.487-0.177-0.889-0.531-1.202
				c-0.354-0.314-0.913-0.472-1.678-0.472h-3.263V280.728z"/>
			<path d="M84.018,284.083l1.308,0.161c-0.207,0.765-0.588,1.358-1.146,1.78s-1.271,0.633-2.138,0.633
				c-1.093,0-1.959-0.337-2.599-1.01c-0.64-0.673-0.96-1.616-0.96-2.831c0-1.256,0.324-2.231,0.971-2.926
				c0.647-0.693,1.486-1.041,2.518-1.041c0.999,0,1.814,0.34,2.448,1.021c0.633,0.68,0.949,1.636,0.949,2.869
				c0,0.075-0.002,0.188-0.007,0.338h-5.57c0.046,0.82,0.279,1.449,0.696,1.885c0.417,0.437,0.938,0.654,1.561,0.654
				c0.464,0,0.861-0.122,1.189-0.366C83.565,285.007,83.825,284.617,84.018,284.083z M79.861,282.036h4.171
				c-0.057-0.628-0.216-1.1-0.479-1.414c-0.403-0.487-0.926-0.731-1.568-0.731c-0.582,0-1.07,0.195-1.467,0.584
				C80.122,280.864,79.903,281.385,79.861,282.036z"/>
			<path d="M86.683,287.107l1.231,0.183c0.052,0.38,0.194,0.656,0.429,0.83c0.314,0.234,0.743,0.352,1.287,0.352
				c0.586,0,1.039-0.117,1.357-0.352s0.535-0.562,0.647-0.984c0.065-0.259,0.096-0.8,0.091-1.625
				c-0.553,0.651-1.243,0.978-2.068,0.978c-1.027,0-1.821-0.37-2.384-1.111c-0.562-0.741-0.844-1.629-0.844-2.666
				c0-0.712,0.129-1.37,0.387-1.973s0.632-1.067,1.122-1.396c0.49-0.328,1.066-0.492,1.727-0.492c0.881,0,1.608,0.356,2.18,1.069
				v-0.9h1.167v6.457c0,1.163-0.118,1.987-0.355,2.472c-0.237,0.485-0.612,0.869-1.125,1.15c-0.513,0.281-1.145,0.422-1.896,0.422
				c-0.891,0-1.61-0.2-2.159-0.602C86.929,288.518,86.664,287.914,86.683,287.107z M87.731,282.62c0,0.979,0.194,1.694,0.583,2.145
				s0.877,0.676,1.463,0.676c0.582,0,1.069-0.224,1.463-0.672c0.394-0.447,0.591-1.15,0.591-2.106c0-0.914-0.203-1.604-0.608-2.068
				c-0.405-0.464-0.894-0.696-1.466-0.696c-0.562,0-1.041,0.229-1.435,0.687C87.928,281.041,87.731,281.72,87.731,282.62z"/>
			<path d="M94.933,277.633v-1.456h1.266v1.456H94.933z M94.933,286.488v-7.47h1.266v7.47H94.933z"/>
			<path d="M97.62,284.259l1.252-0.197c0.07,0.502,0.266,0.887,0.587,1.153c0.321,0.268,0.771,0.401,1.347,0.401
				c0.581,0,1.013-0.118,1.294-0.355c0.281-0.236,0.422-0.515,0.422-0.833c0-0.286-0.125-0.512-0.373-0.676
				c-0.173-0.112-0.605-0.255-1.294-0.429c-0.929-0.234-1.572-0.438-1.931-0.608c-0.359-0.171-0.631-0.408-0.816-0.71
				c-0.186-0.303-0.278-0.637-0.278-1.003c0-0.333,0.076-0.641,0.229-0.925c0.152-0.283,0.36-0.52,0.623-0.707
				c0.197-0.146,0.465-0.269,0.805-0.369s0.705-0.151,1.094-0.151c0.586,0,1.101,0.085,1.544,0.254
				c0.443,0.168,0.77,0.397,0.981,0.686s0.356,0.674,0.436,1.157l-1.238,0.168c-0.056-0.384-0.219-0.685-0.489-0.899
				c-0.27-0.216-0.651-0.324-1.143-0.324c-0.582,0-0.997,0.097-1.245,0.289c-0.249,0.191-0.373,0.417-0.373,0.675
				c0,0.164,0.052,0.312,0.155,0.443c0.103,0.136,0.265,0.248,0.485,0.337c0.126,0.047,0.5,0.155,1.118,0.324
				c0.896,0.239,1.521,0.435,1.875,0.587s0.632,0.374,0.833,0.665c0.202,0.29,0.302,0.651,0.302,1.083
				c0,0.422-0.123,0.819-0.369,1.192c-0.246,0.372-0.601,0.661-1.065,0.865c-0.464,0.203-0.99,0.306-1.576,0.306
				c-0.971,0-1.71-0.202-2.219-0.605C98.085,285.649,97.761,285.051,97.62,284.259z"/>
			<path d="M108.093,285.355l0.183,1.119c-0.356,0.074-0.675,0.112-0.957,0.112c-0.459,0-0.816-0.073-1.069-0.218
				c-0.253-0.146-0.432-0.337-0.535-0.573c-0.103-0.237-0.155-0.735-0.155-1.495v-4.298h-0.928v-0.984h0.928v-1.85l1.259-0.76v2.609
				h1.273v0.984h-1.273v4.368c0,0.361,0.022,0.594,0.067,0.696c0.044,0.104,0.117,0.186,0.218,0.246
				c0.101,0.062,0.245,0.092,0.433,0.092C107.678,285.405,107.863,285.389,108.093,285.355z"/>
			<path d="M109.317,286.488v-7.47h1.139v1.133c0.291-0.53,0.56-0.88,0.806-1.048c0.246-0.169,0.517-0.254,0.812-0.254
				c0.427,0,0.861,0.137,1.301,0.408l-0.436,1.175c-0.31-0.183-0.619-0.274-0.928-0.274c-0.277,0-0.525,0.083-0.746,0.25
				c-0.221,0.166-0.377,0.397-0.471,0.692c-0.141,0.45-0.211,0.942-0.211,1.478v3.91H109.317z"/>
			<path d="M113.657,282.754c0-1.384,0.384-2.408,1.153-3.074c0.642-0.553,1.425-0.83,2.349-0.83c1.027,0,1.866,0.337,2.518,1.01
				s0.978,1.603,0.978,2.789c0,0.961-0.144,1.717-0.433,2.268c-0.288,0.552-0.708,0.979-1.259,1.284
				c-0.551,0.305-1.152,0.457-1.804,0.457c-1.046,0-1.891-0.335-2.536-1.006S113.657,284.015,113.657,282.754z M114.958,282.754
				c0,0.956,0.209,1.673,0.626,2.148c0.417,0.476,0.943,0.714,1.576,0.714c0.628,0,1.151-0.239,1.568-0.718
				c0.417-0.478,0.626-1.207,0.626-2.188c0-0.924-0.21-1.623-0.629-2.1c-0.42-0.476-0.941-0.714-1.565-0.714
				c-0.633,0-1.158,0.237-1.576,0.711C115.167,281.082,114.958,281.797,114.958,282.754z"/>
			<path d="M122.498,286.488v-1.441h1.442v1.441H122.498z"/>
		</g>
		<g>
			<path d="M326.715,301.51l3.96-10.312h1.47l4.22,10.312h-1.555l-1.203-3.123h-4.312l-1.132,3.123H326.715z M329.69,297.275h3.496
				l-1.076-2.855c-0.328-0.867-0.572-1.58-0.731-2.138c-0.131,0.661-0.316,1.317-0.556,1.969L329.69,297.275z"/>
			<path d="M342.168,298.773l1.245,0.162c-0.136,0.858-0.484,1.529-1.044,2.015c-0.561,0.485-1.249,0.729-2.064,0.729
				c-1.022,0-1.844-0.334-2.465-1.002c-0.622-0.669-0.932-1.626-0.932-2.874c0-0.806,0.134-1.512,0.401-2.117
				c0.268-0.604,0.674-1.058,1.221-1.36c0.546-0.303,1.14-0.454,1.783-0.454c0.811,0,1.475,0.205,1.991,0.615
				c0.516,0.411,0.846,0.993,0.992,1.748l-1.231,0.19c-0.117-0.502-0.325-0.88-0.623-1.133s-0.658-0.38-1.08-0.38
				c-0.638,0-1.156,0.229-1.554,0.686c-0.399,0.458-0.598,1.181-0.598,2.17c0,1.004,0.192,1.733,0.577,2.188
				c0.385,0.455,0.886,0.683,1.505,0.683c0.497,0,0.912-0.152,1.245-0.457C341.868,299.876,342.079,299.407,342.168,298.773z"/>
			<path d="M349.37,298.773l1.245,0.162c-0.136,0.858-0.484,1.529-1.044,2.015c-0.561,0.485-1.249,0.729-2.064,0.729
				c-1.022,0-1.844-0.334-2.465-1.002c-0.622-0.669-0.932-1.626-0.932-2.874c0-0.806,0.134-1.512,0.401-2.117
				c0.268-0.604,0.674-1.058,1.221-1.36c0.546-0.303,1.14-0.454,1.783-0.454c0.811,0,1.475,0.205,1.991,0.615
				c0.516,0.411,0.846,0.993,0.992,1.748l-1.231,0.19c-0.117-0.502-0.325-0.88-0.623-1.133s-0.658-0.38-1.08-0.38
				c-0.638,0-1.156,0.229-1.554,0.686c-0.399,0.458-0.598,1.181-0.598,2.17c0,1.004,0.192,1.733,0.577,2.188
				c0.385,0.455,0.886,0.683,1.505,0.683c0.497,0,0.912-0.152,1.245-0.457C349.07,299.876,349.281,299.407,349.37,298.773z"/>
			<path d="M356.812,299.104l1.308,0.161c-0.207,0.765-0.588,1.358-1.146,1.78s-1.271,0.633-2.138,0.633
				c-1.093,0-1.959-0.337-2.599-1.01c-0.64-0.673-0.96-1.616-0.96-2.831c0-1.256,0.324-2.231,0.971-2.926
				c0.647-0.693,1.486-1.041,2.518-1.041c0.999,0,1.814,0.34,2.448,1.021c0.633,0.68,0.949,1.636,0.949,2.869
				c0,0.075-0.002,0.188-0.007,0.338h-5.57c0.046,0.82,0.279,1.449,0.696,1.885c0.417,0.437,0.938,0.654,1.561,0.654
				c0.464,0,0.861-0.122,1.189-0.366C356.359,300.028,356.619,299.639,356.812,299.104z M352.655,297.058h4.171
				c-0.057-0.628-0.216-1.1-0.479-1.414c-0.403-0.487-0.926-0.731-1.568-0.731c-0.582,0-1.07,0.195-1.467,0.584
				C352.916,295.886,352.697,296.406,352.655,297.058z"/>
			<path d="M359.203,299.28l1.252-0.197c0.07,0.502,0.266,0.887,0.587,1.153c0.321,0.268,0.771,0.401,1.347,0.401
				c0.581,0,1.013-0.118,1.294-0.355c0.281-0.236,0.422-0.515,0.422-0.833c0-0.286-0.125-0.512-0.373-0.676
				c-0.173-0.112-0.605-0.255-1.294-0.429c-0.929-0.234-1.572-0.438-1.931-0.608c-0.359-0.171-0.631-0.408-0.816-0.71
				c-0.186-0.303-0.278-0.637-0.278-1.003c0-0.333,0.076-0.641,0.229-0.925c0.152-0.283,0.36-0.52,0.623-0.707
				c0.197-0.146,0.465-0.269,0.805-0.369s0.705-0.151,1.094-0.151c0.586,0,1.101,0.085,1.544,0.254
				c0.443,0.168,0.77,0.397,0.981,0.686s0.356,0.674,0.436,1.157l-1.238,0.168c-0.056-0.384-0.219-0.685-0.489-0.899
				c-0.27-0.216-0.651-0.324-1.143-0.324c-0.582,0-0.997,0.097-1.245,0.289c-0.249,0.191-0.373,0.417-0.373,0.675
				c0,0.164,0.052,0.312,0.155,0.443c0.103,0.136,0.265,0.248,0.485,0.337c0.126,0.047,0.5,0.155,1.118,0.324
				c0.896,0.239,1.521,0.435,1.875,0.587s0.632,0.374,0.833,0.665c0.202,0.29,0.302,0.651,0.302,1.083
				c0,0.422-0.123,0.819-0.369,1.192c-0.246,0.372-0.601,0.661-1.065,0.865c-0.464,0.203-0.99,0.306-1.576,0.306
				c-0.971,0-1.71-0.202-2.219-0.605C359.668,300.671,359.344,300.072,359.203,299.28z"/>
			<path d="M366.44,297.775c0-1.384,0.384-2.408,1.153-3.074c0.642-0.553,1.425-0.83,2.349-0.83c1.027,0,1.866,0.337,2.518,1.01
				s0.978,1.603,0.978,2.789c0,0.961-0.144,1.717-0.433,2.268c-0.288,0.552-0.708,0.979-1.259,1.284
				c-0.551,0.305-1.152,0.457-1.804,0.457c-1.046,0-1.891-0.335-2.536-1.006S366.44,299.036,366.44,297.775z M367.741,297.775
				c0,0.956,0.209,1.673,0.626,2.148c0.417,0.476,0.943,0.714,1.576,0.714c0.628,0,1.151-0.239,1.568-0.718
				c0.417-0.478,0.626-1.207,0.626-2.188c0-0.924-0.21-1.623-0.629-2.1c-0.42-0.476-0.941-0.714-1.565-0.714
				c-0.633,0-1.158,0.237-1.576,0.711C367.95,296.104,367.741,296.818,367.741,297.775z"/>
			<path d="M383.771,301.51v-0.942c-0.474,0.741-1.17,1.111-2.089,1.111c-0.595,0-1.143-0.164-1.642-0.492
				c-0.5-0.328-0.886-0.787-1.161-1.375c-0.274-0.589-0.412-1.266-0.412-2.029c0-0.746,0.125-1.422,0.373-2.029
				s0.621-1.072,1.118-1.396c0.497-0.323,1.053-0.485,1.667-0.485c0.45,0,0.851,0.096,1.203,0.285s0.638,0.438,0.858,0.742v-3.7
				h1.259v10.312H383.771z M379.769,297.782c0,0.956,0.202,1.672,0.605,2.145c0.403,0.475,0.879,0.711,1.428,0.711
				c0.553,0,1.023-0.227,1.41-0.679s0.581-1.143,0.581-2.071c0-1.022-0.197-1.772-0.591-2.251c-0.394-0.479-0.879-0.718-1.456-0.718
				c-0.562,0-1.033,0.23-1.41,0.689C379.958,296.068,379.769,296.793,379.769,297.782z"/>
			<path d="M392.049,299.104l1.308,0.161c-0.207,0.765-0.588,1.358-1.146,1.78s-1.271,0.633-2.138,0.633
				c-1.093,0-1.959-0.337-2.599-1.01c-0.64-0.673-0.96-1.616-0.96-2.831c0-1.256,0.324-2.231,0.971-2.926
				c0.647-0.693,1.486-1.041,2.518-1.041c0.999,0,1.814,0.34,2.448,1.021c0.633,0.68,0.949,1.636,0.949,2.869
				c0,0.075-0.002,0.188-0.007,0.338h-5.57c0.046,0.82,0.279,1.449,0.696,1.885c0.417,0.437,0.938,0.654,1.561,0.654
				c0.464,0,0.861-0.122,1.189-0.366C391.597,300.028,391.857,299.639,392.049,299.104z M387.893,297.058h4.171
				c-0.057-0.628-0.216-1.1-0.479-1.414c-0.403-0.487-0.926-0.731-1.568-0.731c-0.582,0-1.07,0.195-1.467,0.584
				C388.154,295.886,387.935,296.406,387.893,297.058z"/>
			<path d="M398.921,301.51v-10.312h1.266v10.312H398.921z"/>
			<path d="M407.024,300.588c-0.469,0.399-0.92,0.681-1.354,0.845s-0.899,0.246-1.396,0.246c-0.821,0-1.451-0.2-1.892-0.602
				c-0.441-0.4-0.661-0.913-0.661-1.537c0-0.365,0.083-0.699,0.25-1.002s0.385-0.545,0.654-0.728
				c0.27-0.184,0.573-0.321,0.911-0.415c0.249-0.066,0.624-0.129,1.125-0.19c1.022-0.122,1.775-0.267,2.258-0.436
				c0.004-0.174,0.007-0.284,0.007-0.331c0-0.516-0.12-0.879-0.358-1.09c-0.324-0.286-0.804-0.43-1.442-0.43
				c-0.596,0-1.035,0.104-1.319,0.313s-0.494,0.578-0.629,1.107l-1.238-0.169c0.113-0.529,0.298-0.957,0.556-1.283
				s0.631-0.577,1.119-0.753c0.487-0.176,1.053-0.264,1.695-0.264c0.638,0,1.156,0.075,1.555,0.226
				c0.398,0.149,0.691,0.339,0.879,0.566s0.319,0.515,0.394,0.861c0.042,0.216,0.063,0.604,0.063,1.167v1.688
				c0,1.177,0.027,1.921,0.081,2.233c0.054,0.312,0.161,0.61,0.32,0.896h-1.322C407.146,301.247,407.062,300.94,407.024,300.588z
				 M406.918,297.761c-0.459,0.188-1.149,0.348-2.068,0.479c-0.521,0.075-0.889,0.159-1.104,0.253
				c-0.215,0.094-0.382,0.231-0.499,0.412c-0.117,0.18-0.176,0.381-0.176,0.601c0,0.338,0.127,0.619,0.383,0.845
				c0.255,0.225,0.629,0.337,1.122,0.337c0.488,0,0.921-0.106,1.301-0.319c0.38-0.214,0.659-0.506,0.837-0.876
				c0.136-0.286,0.204-0.708,0.204-1.266V297.761z"/>
			<path d="M417.271,301.51l-3.995-10.312h1.477l2.68,7.491c0.215,0.601,0.396,1.163,0.542,1.688
				c0.159-0.562,0.345-1.125,0.556-1.688l2.785-7.491h1.393l-4.037,10.312H417.271z"/>
			<path d="M424.15,293.111l0.936-1.969h1.66l-1.547,1.969H424.15z M424.213,301.51v-7.47h1.266v7.47H424.213z"/>
			<path d="M432.647,298.773l1.245,0.162c-0.136,0.858-0.484,1.529-1.044,2.015c-0.561,0.485-1.249,0.729-2.064,0.729
				c-1.022,0-1.844-0.334-2.465-1.002c-0.622-0.669-0.932-1.626-0.932-2.874c0-0.806,0.134-1.512,0.401-2.117
				c0.268-0.604,0.674-1.058,1.221-1.36c0.546-0.303,1.14-0.454,1.783-0.454c0.811,0,1.475,0.205,1.991,0.615
				c0.516,0.411,0.846,0.993,0.992,1.748l-1.231,0.19c-0.117-0.502-0.325-0.88-0.623-1.133s-0.658-0.38-1.08-0.38
				c-0.638,0-1.156,0.229-1.554,0.686c-0.399,0.458-0.598,1.181-0.598,2.17c0,1.004,0.192,1.733,0.577,2.188
				c0.385,0.455,0.886,0.683,1.505,0.683c0.497,0,0.912-0.152,1.245-0.457C432.347,299.876,432.558,299.407,432.647,298.773z"/>
			<path d="M437.739,300.377l0.183,1.119c-0.356,0.074-0.675,0.112-0.957,0.112c-0.459,0-0.816-0.073-1.069-0.218
				c-0.253-0.146-0.432-0.337-0.535-0.573c-0.103-0.237-0.155-0.735-0.155-1.495v-4.298h-0.928v-0.984h0.928v-1.85l1.259-0.76v2.609
				h1.273v0.984h-1.273v4.368c0,0.361,0.022,0.594,0.067,0.696c0.044,0.104,0.117,0.186,0.218,0.246
				c0.101,0.062,0.245,0.092,0.433,0.092C437.324,300.427,437.509,300.41,437.739,300.377z"/>
			<path d="M438.984,292.654v-1.456h1.266v1.456H438.984z M438.984,301.51v-7.47h1.266v7.47H438.984z"/>
			<path d="M442.177,301.51v-7.47h1.132v1.048c0.234-0.365,0.546-0.659,0.936-0.883c0.389-0.223,0.832-0.334,1.329-0.334
				c0.553,0,1.007,0.115,1.361,0.345c0.354,0.23,0.604,0.551,0.749,0.964c0.591-0.872,1.36-1.309,2.307-1.309
				c0.741,0,1.311,0.205,1.709,0.615c0.399,0.411,0.598,1.043,0.598,1.896v5.127h-1.259v-4.705c0-0.507-0.041-0.871-0.123-1.094
				s-0.231-0.402-0.446-0.538c-0.216-0.136-0.469-0.204-0.76-0.204c-0.525,0-0.961,0.175-1.308,0.523
				c-0.347,0.35-0.521,0.909-0.521,1.678v4.34h-1.266v-4.854c0-0.562-0.103-0.984-0.31-1.266s-0.544-0.422-1.013-0.422
				c-0.356,0-0.686,0.094-0.988,0.281s-0.521,0.462-0.658,0.823c-0.136,0.36-0.204,0.881-0.204,1.562v3.875H442.177z"/>
			<path d="M459.05,300.588c-0.469,0.399-0.92,0.681-1.354,0.845s-0.899,0.246-1.396,0.246c-0.821,0-1.451-0.2-1.892-0.602
				c-0.441-0.4-0.661-0.913-0.661-1.537c0-0.365,0.083-0.699,0.25-1.002s0.385-0.545,0.654-0.728
				c0.27-0.184,0.573-0.321,0.911-0.415c0.249-0.066,0.624-0.129,1.125-0.19c1.022-0.122,1.775-0.267,2.258-0.436
				c0.004-0.174,0.007-0.284,0.007-0.331c0-0.516-0.12-0.879-0.358-1.09c-0.324-0.286-0.804-0.43-1.442-0.43
				c-0.596,0-1.035,0.104-1.319,0.313s-0.494,0.578-0.629,1.107l-1.238-0.169c0.113-0.529,0.298-0.957,0.556-1.283
				s0.631-0.577,1.119-0.753c0.487-0.176,1.053-0.264,1.695-0.264c0.638,0,1.156,0.075,1.555,0.226
				c0.398,0.149,0.691,0.339,0.879,0.566s0.319,0.515,0.394,0.861c0.042,0.216,0.063,0.604,0.063,1.167v1.688
				c0,1.177,0.027,1.921,0.081,2.233c0.054,0.312,0.161,0.61,0.32,0.896h-1.322C459.172,301.247,459.088,300.94,459.05,300.588z
				 M458.945,297.761c-0.459,0.188-1.149,0.348-2.068,0.479c-0.521,0.075-0.889,0.159-1.104,0.253
				c-0.215,0.094-0.382,0.231-0.499,0.412c-0.117,0.18-0.176,0.381-0.176,0.601c0,0.338,0.127,0.619,0.383,0.845
				c0.255,0.225,0.629,0.337,1.122,0.337c0.488,0,0.921-0.106,1.301-0.319c0.38-0.214,0.659-0.506,0.837-0.876
				c0.136-0.286,0.204-0.708,0.204-1.266V297.761z"/>
			<path d="M471.063,300.588c-0.469,0.399-0.92,0.681-1.354,0.845s-0.899,0.246-1.396,0.246c-0.821,0-1.451-0.2-1.892-0.602
				c-0.441-0.4-0.661-0.913-0.661-1.537c0-0.365,0.083-0.699,0.25-1.002s0.385-0.545,0.654-0.728
				c0.27-0.184,0.573-0.321,0.911-0.415c0.249-0.066,0.624-0.129,1.125-0.19c1.022-0.122,1.775-0.267,2.258-0.436
				c0.004-0.174,0.007-0.284,0.007-0.331c0-0.516-0.12-0.879-0.358-1.09c-0.324-0.286-0.804-0.43-1.442-0.43
				c-0.596,0-1.035,0.104-1.319,0.313s-0.494,0.578-0.629,1.107l-1.238-0.169c0.113-0.529,0.298-0.957,0.556-1.283
				s0.631-0.577,1.119-0.753c0.487-0.176,1.053-0.264,1.695-0.264c0.638,0,1.156,0.075,1.555,0.226
				c0.398,0.149,0.691,0.339,0.879,0.566s0.319,0.515,0.394,0.861c0.042,0.216,0.063,0.604,0.063,1.167v1.688
				c0,1.177,0.027,1.921,0.081,2.233c0.054,0.312,0.161,0.61,0.32,0.896h-1.322C471.186,301.247,471.101,300.94,471.063,300.588z
				 M470.958,297.761c-0.459,0.188-1.149,0.348-2.068,0.479c-0.521,0.075-0.889,0.159-1.104,0.253
				c-0.215,0.094-0.382,0.231-0.499,0.412c-0.117,0.18-0.176,0.381-0.176,0.601c0,0.338,0.127,0.619,0.383,0.845
				c0.255,0.225,0.629,0.337,1.122,0.337c0.488,0,0.921-0.106,1.301-0.319c0.38-0.214,0.659-0.506,0.837-0.876
				c0.136-0.286,0.204-0.708,0.204-1.266V297.761z"/>
			<path d="M478.174,301.51v-10.312h1.266v10.312H478.174z"/>
			<path d="M486.277,300.588c-0.469,0.399-0.92,0.681-1.354,0.845s-0.899,0.246-1.396,0.246c-0.821,0-1.451-0.2-1.892-0.602
				c-0.441-0.4-0.661-0.913-0.661-1.537c0-0.365,0.083-0.699,0.25-1.002s0.385-0.545,0.654-0.728
				c0.27-0.184,0.573-0.321,0.911-0.415c0.249-0.066,0.624-0.129,1.125-0.19c1.022-0.122,1.775-0.267,2.258-0.436
				c0.004-0.174,0.007-0.284,0.007-0.331c0-0.516-0.12-0.879-0.358-1.09c-0.324-0.286-0.804-0.43-1.442-0.43
				c-0.596,0-1.035,0.104-1.319,0.313s-0.494,0.578-0.629,1.107l-1.238-0.169c0.113-0.529,0.298-0.957,0.556-1.283
				s0.631-0.577,1.119-0.753c0.487-0.176,1.053-0.264,1.695-0.264c0.638,0,1.156,0.075,1.555,0.226
				c0.398,0.149,0.691,0.339,0.879,0.566s0.319,0.515,0.394,0.861c0.042,0.216,0.063,0.604,0.063,1.167v1.688
				c0,1.177,0.027,1.921,0.081,2.233c0.054,0.312,0.161,0.61,0.32,0.896h-1.322C486.399,301.247,486.315,300.94,486.277,300.588z
				 M486.172,297.761c-0.459,0.188-1.149,0.348-2.068,0.479c-0.521,0.075-0.889,0.159-1.104,0.253
				c-0.215,0.094-0.382,0.231-0.499,0.412c-0.117,0.18-0.176,0.381-0.176,0.601c0,0.338,0.127,0.619,0.383,0.845
				c0.255,0.225,0.629,0.337,1.122,0.337c0.488,0,0.921-0.106,1.301-0.319c0.38-0.214,0.659-0.506,0.837-0.876
				c0.136-0.286,0.204-0.708,0.204-1.266V297.761z"/>
			<path d="M488.907,299.28l1.252-0.197c0.07,0.502,0.266,0.887,0.587,1.153c0.321,0.268,0.771,0.401,1.347,0.401
				c0.581,0,1.013-0.118,1.294-0.355c0.281-0.236,0.422-0.515,0.422-0.833c0-0.286-0.125-0.512-0.373-0.676
				c-0.173-0.112-0.605-0.255-1.294-0.429c-0.929-0.234-1.572-0.438-1.931-0.608c-0.359-0.171-0.631-0.408-0.816-0.71
				c-0.186-0.303-0.278-0.637-0.278-1.003c0-0.333,0.076-0.641,0.229-0.925c0.152-0.283,0.36-0.52,0.623-0.707
				c0.197-0.146,0.465-0.269,0.805-0.369s0.705-0.151,1.094-0.151c0.586,0,1.101,0.085,1.544,0.254
				c0.443,0.168,0.77,0.397,0.981,0.686s0.356,0.674,0.436,1.157l-1.238,0.168c-0.056-0.384-0.219-0.685-0.489-0.899
				c-0.27-0.216-0.651-0.324-1.143-0.324c-0.582,0-0.997,0.097-1.245,0.289c-0.249,0.191-0.373,0.417-0.373,0.675
				c0,0.164,0.052,0.312,0.155,0.443c0.103,0.136,0.265,0.248,0.485,0.337c0.126,0.047,0.5,0.155,1.118,0.324
				c0.896,0.239,1.521,0.435,1.875,0.587s0.632,0.374,0.833,0.665c0.202,0.29,0.302,0.651,0.302,1.083
				c0,0.422-0.123,0.819-0.369,1.192c-0.246,0.372-0.601,0.661-1.065,0.865c-0.464,0.203-0.99,0.306-1.576,0.306
				c-0.971,0-1.71-0.202-2.219-0.605C489.373,300.671,489.048,300.072,488.907,299.28z"/>
			<path d="M340.606,318.795v-10.312h2.054l2.44,7.301c0.225,0.681,0.389,1.189,0.492,1.526c0.117-0.375,0.3-0.926,0.549-1.652
				l2.469-7.175h1.836v10.312h-1.315v-8.63l-2.996,8.63h-1.231l-2.982-8.777v8.777H340.606z"/>
			<path d="M357.599,316.39l1.308,0.161c-0.207,0.765-0.588,1.358-1.146,1.78s-1.271,0.633-2.138,0.633
				c-1.093,0-1.959-0.337-2.599-1.01c-0.64-0.673-0.96-1.616-0.96-2.831c0-1.256,0.324-2.231,0.971-2.926
				c0.647-0.693,1.486-1.041,2.518-1.041c0.999,0,1.814,0.34,2.448,1.021c0.633,0.68,0.949,1.636,0.949,2.869
				c0,0.075-0.002,0.188-0.007,0.338h-5.57c0.046,0.82,0.279,1.449,0.696,1.885c0.417,0.437,0.938,0.654,1.561,0.654
				c0.464,0,0.861-0.122,1.189-0.366C357.146,317.313,357.407,316.924,357.599,316.39z M353.442,314.343h4.171
				c-0.057-0.628-0.216-1.1-0.479-1.414c-0.403-0.487-0.926-0.731-1.568-0.731c-0.582,0-1.07,0.195-1.467,0.584
				C353.704,313.171,353.484,313.691,353.442,314.343z"/>
			<path d="M365.343,318.795v-0.942c-0.474,0.741-1.17,1.111-2.089,1.111c-0.595,0-1.143-0.164-1.642-0.492
				c-0.5-0.328-0.886-0.787-1.161-1.375c-0.274-0.589-0.412-1.266-0.412-2.029c0-0.746,0.125-1.422,0.373-2.029
				s0.621-1.072,1.118-1.396c0.497-0.323,1.053-0.485,1.667-0.485c0.45,0,0.851,0.096,1.203,0.285s0.638,0.438,0.858,0.742v-3.7
				h1.259v10.312H365.343z M361.341,315.067c0,0.956,0.202,1.672,0.605,2.145c0.403,0.475,0.879,0.711,1.428,0.711
				c0.553,0,1.023-0.227,1.41-0.679s0.581-1.143,0.581-2.071c0-1.022-0.197-1.772-0.591-2.251c-0.394-0.479-0.879-0.718-1.456-0.718
				c-0.562,0-1.033,0.23-1.41,0.689C361.53,313.354,361.341,314.078,361.341,315.067z"/>
			<path d="M368.515,309.939v-1.456h1.266v1.456H368.515z M368.515,318.795v-7.47h1.266v7.47H368.515z"/>
			<path d="M376.554,318.795v-0.942c-0.474,0.741-1.17,1.111-2.089,1.111c-0.595,0-1.143-0.164-1.642-0.492
				c-0.5-0.328-0.886-0.787-1.161-1.375c-0.274-0.589-0.412-1.266-0.412-2.029c0-0.746,0.125-1.422,0.373-2.029
				s0.621-1.072,1.118-1.396c0.497-0.323,1.053-0.485,1.667-0.485c0.45,0,0.851,0.096,1.203,0.285s0.638,0.438,0.858,0.742v-3.7
				h1.259v10.312H376.554z M372.552,315.067c0,0.956,0.202,1.672,0.605,2.145c0.403,0.475,0.879,0.711,1.428,0.711
				c0.553,0,1.023-0.227,1.41-0.679s0.581-1.143,0.581-2.071c0-1.022-0.197-1.772-0.591-2.251c-0.394-0.479-0.879-0.718-1.456-0.718
				c-0.562,0-1.033,0.23-1.41,0.689C372.741,313.354,372.552,314.078,372.552,315.067z"/>
			<path d="M384.594,317.873c-0.469,0.399-0.92,0.681-1.354,0.845s-0.899,0.246-1.396,0.246c-0.821,0-1.451-0.2-1.892-0.602
				c-0.441-0.4-0.661-0.913-0.661-1.537c0-0.365,0.083-0.699,0.25-1.002s0.385-0.545,0.654-0.728
				c0.27-0.184,0.573-0.321,0.911-0.415c0.249-0.066,0.624-0.129,1.125-0.19c1.022-0.122,1.775-0.267,2.258-0.436
				c0.004-0.174,0.007-0.284,0.007-0.331c0-0.516-0.12-0.879-0.358-1.09c-0.324-0.286-0.804-0.43-1.442-0.43
				c-0.596,0-1.035,0.104-1.319,0.313s-0.494,0.578-0.629,1.107l-1.238-0.169c0.113-0.529,0.298-0.957,0.556-1.283
				s0.631-0.577,1.119-0.753c0.487-0.176,1.053-0.264,1.695-0.264c0.638,0,1.156,0.075,1.555,0.226
				c0.398,0.149,0.691,0.339,0.879,0.566s0.319,0.515,0.394,0.861c0.042,0.216,0.063,0.604,0.063,1.167v1.688
				c0,1.177,0.027,1.921,0.081,2.233c0.054,0.312,0.161,0.61,0.32,0.896h-1.322C384.716,318.532,384.631,318.226,384.594,317.873z
				 M384.488,315.046c-0.459,0.188-1.149,0.348-2.068,0.479c-0.521,0.075-0.889,0.159-1.104,0.253
				c-0.215,0.094-0.382,0.231-0.499,0.412c-0.117,0.18-0.176,0.381-0.176,0.601c0,0.338,0.127,0.619,0.383,0.845
				c0.255,0.225,0.629,0.337,1.122,0.337c0.488,0,0.921-0.106,1.301-0.319c0.38-0.214,0.659-0.506,0.837-0.876
				c0.136-0.286,0.204-0.708,0.204-1.266V315.046z"/>
			<path d="M387.224,316.565l1.252-0.197c0.07,0.502,0.266,0.887,0.587,1.153c0.321,0.268,0.771,0.401,1.347,0.401
				c0.581,0,1.013-0.118,1.294-0.355c0.281-0.236,0.422-0.515,0.422-0.833c0-0.286-0.125-0.512-0.373-0.676
				c-0.173-0.112-0.605-0.255-1.294-0.429c-0.929-0.234-1.572-0.438-1.931-0.608c-0.359-0.171-0.631-0.408-0.816-0.71
				c-0.186-0.303-0.278-0.637-0.278-1.003c0-0.333,0.076-0.641,0.229-0.925c0.152-0.283,0.36-0.52,0.623-0.707
				c0.197-0.146,0.465-0.269,0.805-0.369s0.705-0.151,1.094-0.151c0.586,0,1.101,0.085,1.544,0.254
				c0.443,0.168,0.77,0.397,0.981,0.686s0.356,0.674,0.436,1.157l-1.238,0.168c-0.056-0.384-0.219-0.685-0.489-0.899
				c-0.27-0.216-0.651-0.324-1.143-0.324c-0.582,0-0.997,0.097-1.245,0.289c-0.249,0.191-0.373,0.417-0.373,0.675
				c0,0.164,0.052,0.312,0.155,0.443c0.103,0.136,0.265,0.248,0.485,0.337c0.126,0.047,0.5,0.155,1.118,0.324
				c0.896,0.239,1.521,0.435,1.875,0.587s0.632,0.374,0.833,0.665c0.202,0.29,0.302,0.651,0.302,1.083
				c0,0.422-0.123,0.819-0.369,1.192c-0.246,0.372-0.601,0.661-1.065,0.865c-0.464,0.203-0.99,0.306-1.576,0.306
				c-0.971,0-1.71-0.202-2.219-0.605C387.689,317.956,387.365,317.357,387.224,316.565z"/>
			<path d="M403.781,318.795v-0.942c-0.474,0.741-1.17,1.111-2.089,1.111c-0.595,0-1.143-0.164-1.642-0.492
				c-0.5-0.328-0.886-0.787-1.161-1.375c-0.274-0.589-0.412-1.266-0.412-2.029c0-0.746,0.125-1.422,0.373-2.029
				s0.621-1.072,1.118-1.396c0.497-0.323,1.053-0.485,1.667-0.485c0.45,0,0.851,0.096,1.203,0.285s0.638,0.438,0.858,0.742v-3.7
				h1.259v10.312H403.781z M399.779,315.067c0,0.956,0.202,1.672,0.605,2.145c0.403,0.475,0.879,0.711,1.428,0.711
				c0.553,0,1.023-0.227,1.41-0.679s0.581-1.143,0.581-2.071c0-1.022-0.197-1.772-0.591-2.251c-0.394-0.479-0.879-0.718-1.456-0.718
				c-0.562,0-1.033,0.23-1.41,0.689C399.968,313.354,399.779,314.078,399.779,315.067z"/>
			<path d="M412.06,316.39l1.308,0.161c-0.207,0.765-0.588,1.358-1.146,1.78s-1.271,0.633-2.138,0.633
				c-1.093,0-1.959-0.337-2.599-1.01c-0.64-0.673-0.96-1.616-0.96-2.831c0-1.256,0.324-2.231,0.971-2.926
				c0.647-0.693,1.486-1.041,2.518-1.041c0.999,0,1.814,0.34,2.448,1.021c0.633,0.68,0.949,1.636,0.949,2.869
				c0,0.075-0.002,0.188-0.007,0.338h-5.57c0.046,0.82,0.279,1.449,0.696,1.885c0.417,0.437,0.938,0.654,1.561,0.654
				c0.464,0,0.861-0.122,1.189-0.366C411.607,317.313,411.867,316.924,412.06,316.39z M407.903,314.343h4.171
				c-0.057-0.628-0.216-1.1-0.479-1.414c-0.403-0.487-0.926-0.731-1.568-0.731c-0.582,0-1.07,0.195-1.467,0.584
				C408.164,313.171,407.945,313.691,407.903,314.343z"/>
			<path d="M417.194,318.795l3.96-10.312h1.47l4.22,10.312h-1.555l-1.203-3.123h-4.312l-1.132,3.123H417.194z M420.169,314.561
				h3.496l-1.076-2.855c-0.328-0.867-0.572-1.58-0.731-2.138c-0.131,0.661-0.316,1.317-0.556,1.969L420.169,314.561z"/>
			<path d="M427.266,316.565l1.252-0.197c0.07,0.502,0.266,0.887,0.587,1.153c0.321,0.268,0.771,0.401,1.347,0.401
				c0.581,0,1.013-0.118,1.294-0.355c0.281-0.236,0.422-0.515,0.422-0.833c0-0.286-0.125-0.512-0.373-0.676
				c-0.173-0.112-0.605-0.255-1.294-0.429c-0.929-0.234-1.572-0.438-1.931-0.608c-0.359-0.171-0.631-0.408-0.816-0.71
				c-0.186-0.303-0.278-0.637-0.278-1.003c0-0.333,0.076-0.641,0.229-0.925c0.152-0.283,0.36-0.52,0.623-0.707
				c0.197-0.146,0.465-0.269,0.805-0.369s0.705-0.151,1.094-0.151c0.586,0,1.101,0.085,1.544,0.254
				c0.443,0.168,0.77,0.397,0.981,0.686s0.356,0.674,0.436,1.157l-1.238,0.168c-0.056-0.384-0.219-0.685-0.489-0.899
				c-0.27-0.216-0.651-0.324-1.143-0.324c-0.582,0-0.997,0.097-1.245,0.289c-0.249,0.191-0.373,0.417-0.373,0.675
				c0,0.164,0.052,0.312,0.155,0.443c0.103,0.136,0.265,0.248,0.485,0.337c0.126,0.047,0.5,0.155,1.118,0.324
				c0.896,0.239,1.521,0.435,1.875,0.587s0.632,0.374,0.833,0.665c0.202,0.29,0.302,0.651,0.302,1.083
				c0,0.422-0.123,0.819-0.369,1.192c-0.246,0.372-0.601,0.661-1.065,0.865c-0.464,0.203-0.99,0.306-1.576,0.306
				c-0.971,0-1.71-0.202-2.219-0.605C427.731,317.956,427.407,317.357,427.266,316.565z"/>
			<path d="M434.981,309.939v-1.456h1.266v1.456H434.981z M434.981,318.795v-7.47h1.266v7.47H434.981z"/>
			<path d="M437.668,316.565l1.252-0.197c0.07,0.502,0.266,0.887,0.587,1.153c0.321,0.268,0.771,0.401,1.347,0.401
				c0.581,0,1.013-0.118,1.294-0.355c0.281-0.236,0.422-0.515,0.422-0.833c0-0.286-0.125-0.512-0.373-0.676
				c-0.173-0.112-0.605-0.255-1.294-0.429c-0.929-0.234-1.572-0.438-1.931-0.608c-0.359-0.171-0.631-0.408-0.816-0.71
				c-0.186-0.303-0.278-0.637-0.278-1.003c0-0.333,0.076-0.641,0.229-0.925c0.152-0.283,0.36-0.52,0.623-0.707
				c0.197-0.146,0.465-0.269,0.805-0.369s0.705-0.151,1.094-0.151c0.586,0,1.101,0.085,1.544,0.254
				c0.443,0.168,0.77,0.397,0.981,0.686s0.356,0.674,0.436,1.157l-1.238,0.168c-0.056-0.384-0.219-0.685-0.489-0.899
				c-0.27-0.216-0.651-0.324-1.143-0.324c-0.582,0-0.997,0.097-1.245,0.289c-0.249,0.191-0.373,0.417-0.373,0.675
				c0,0.164,0.052,0.312,0.155,0.443c0.103,0.136,0.265,0.248,0.485,0.337c0.126,0.047,0.5,0.155,1.118,0.324
				c0.896,0.239,1.521,0.435,1.875,0.587s0.632,0.374,0.833,0.665c0.202,0.29,0.302,0.651,0.302,1.083
				c0,0.422-0.123,0.819-0.369,1.192c-0.246,0.372-0.601,0.661-1.065,0.865c-0.464,0.203-0.99,0.306-1.576,0.306
				c-0.971,0-1.71-0.202-2.219-0.605C438.134,317.956,437.81,317.357,437.668,316.565z"/>
			<path d="M448.142,317.662l0.183,1.119c-0.356,0.074-0.675,0.112-0.957,0.112c-0.459,0-0.816-0.073-1.069-0.218
				c-0.253-0.146-0.432-0.337-0.535-0.573c-0.103-0.237-0.155-0.735-0.155-1.495v-4.298h-0.928v-0.984h0.928v-1.85l1.259-0.76v2.609
				h1.273v0.984h-1.273v4.368c0,0.361,0.022,0.594,0.067,0.696c0.044,0.104,0.117,0.186,0.218,0.246
				c0.101,0.062,0.245,0.092,0.433,0.092C447.727,317.712,447.912,317.695,448.142,317.662z"/>
			<path d="M454.493,316.39l1.308,0.161c-0.207,0.765-0.588,1.358-1.146,1.78s-1.271,0.633-2.138,0.633
				c-1.093,0-1.959-0.337-2.599-1.01c-0.64-0.673-0.96-1.616-0.96-2.831c0-1.256,0.324-2.231,0.971-2.926
				c0.647-0.693,1.486-1.041,2.518-1.041c0.999,0,1.814,0.34,2.448,1.021c0.633,0.68,0.949,1.636,0.949,2.869
				c0,0.075-0.002,0.188-0.007,0.338h-5.57c0.046,0.82,0.279,1.449,0.696,1.885c0.417,0.437,0.938,0.654,1.561,0.654
				c0.464,0,0.861-0.122,1.189-0.366C454.04,317.313,454.3,316.924,454.493,316.39z M450.336,314.343h4.171
				c-0.057-0.628-0.216-1.1-0.479-1.414c-0.403-0.487-0.926-0.731-1.568-0.731c-0.582,0-1.07,0.195-1.467,0.584
				C450.597,313.171,450.378,313.691,450.336,314.343z"/>
			<path d="M457.391,318.795v-7.47h1.139v1.062c0.549-0.82,1.341-1.231,2.377-1.231c0.45,0,0.864,0.081,1.241,0.243
				c0.377,0.161,0.66,0.374,0.848,0.637s0.319,0.574,0.394,0.935c0.047,0.235,0.07,0.646,0.07,1.231v4.593h-1.266v-4.544
				c0-0.516-0.049-0.901-0.148-1.156c-0.098-0.256-0.273-0.46-0.524-0.612s-0.545-0.229-0.882-0.229
				c-0.54,0-1.005,0.171-1.396,0.514c-0.392,0.342-0.587,0.991-0.587,1.948v4.079H457.391z"/>
			<path d="M470.276,316.059l1.245,0.162c-0.136,0.858-0.484,1.529-1.044,2.015c-0.561,0.485-1.249,0.729-2.064,0.729
				c-1.022,0-1.844-0.334-2.465-1.002c-0.622-0.669-0.932-1.626-0.932-2.874c0-0.806,0.134-1.512,0.401-2.117
				c0.268-0.604,0.674-1.058,1.221-1.36c0.546-0.303,1.14-0.454,1.783-0.454c0.811,0,1.475,0.205,1.991,0.615
				c0.516,0.411,0.846,0.993,0.992,1.748l-1.231,0.19c-0.117-0.502-0.325-0.88-0.623-1.133s-0.658-0.38-1.08-0.38
				c-0.638,0-1.156,0.229-1.554,0.686c-0.399,0.458-0.598,1.181-0.598,2.17c0,1.004,0.192,1.733,0.577,2.188
				c0.385,0.455,0.886,0.683,1.505,0.683c0.497,0,0.912-0.152,1.245-0.457C469.976,317.161,470.187,316.692,470.276,316.059z"/>
			<path d="M472.611,309.939v-1.456h1.266v1.456H472.611z M472.611,318.795v-7.47h1.266v7.47H472.611z"/>
			<path d="M480.678,317.873c-0.469,0.399-0.92,0.681-1.354,0.845s-0.899,0.246-1.396,0.246c-0.821,0-1.451-0.2-1.892-0.602
				c-0.441-0.4-0.661-0.913-0.661-1.537c0-0.365,0.083-0.699,0.25-1.002s0.385-0.545,0.654-0.728
				c0.27-0.184,0.573-0.321,0.911-0.415c0.249-0.066,0.624-0.129,1.125-0.19c1.022-0.122,1.775-0.267,2.258-0.436
				c0.004-0.174,0.007-0.284,0.007-0.331c0-0.516-0.12-0.879-0.358-1.09c-0.324-0.286-0.804-0.43-1.442-0.43
				c-0.596,0-1.035,0.104-1.319,0.313s-0.494,0.578-0.629,1.107l-1.238-0.169c0.113-0.529,0.298-0.957,0.556-1.283
				s0.631-0.577,1.119-0.753c0.487-0.176,1.053-0.264,1.695-0.264c0.638,0,1.156,0.075,1.555,0.226
				c0.398,0.149,0.691,0.339,0.879,0.566s0.319,0.515,0.394,0.861c0.042,0.216,0.063,0.604,0.063,1.167v1.688
				c0,1.177,0.027,1.921,0.081,2.233c0.054,0.312,0.161,0.61,0.32,0.896h-1.322C480.8,318.532,480.716,318.226,480.678,317.873z
				 M480.573,315.046c-0.459,0.188-1.149,0.348-2.068,0.479c-0.521,0.075-0.889,0.159-1.104,0.253
				c-0.215,0.094-0.382,0.231-0.499,0.412c-0.117,0.18-0.176,0.381-0.176,0.601c0,0.338,0.127,0.619,0.383,0.845
				c0.255,0.225,0.629,0.337,1.122,0.337c0.488,0,0.921-0.106,1.301-0.319c0.38-0.214,0.659-0.506,0.837-0.876
				c0.136-0.286,0.204-0.708,0.204-1.266V315.046z"/>
			<path d="M369.658,338.958l-0.141-1.188c0.277,0.074,0.518,0.112,0.725,0.112c0.281,0,0.506-0.047,0.675-0.141
				s0.307-0.226,0.415-0.395c0.08-0.126,0.208-0.44,0.387-0.942c0.023-0.07,0.061-0.173,0.112-0.31l-2.834-7.483h1.365l1.554,4.326
				c0.202,0.548,0.382,1.125,0.542,1.729c0.146-0.581,0.319-1.148,0.521-1.702l1.597-4.354h1.266L373,336.208
				c-0.305,0.82-0.542,1.385-0.71,1.694c-0.225,0.418-0.483,0.724-0.774,0.918c-0.291,0.194-0.638,0.292-1.041,0.292
				C370.23,339.112,369.958,339.061,369.658,338.958z"/>
			<path d="M381.102,336.081V325.77h4.572c0.919,0,1.618,0.093,2.096,0.278c0.478,0.186,0.86,0.513,1.146,0.981
				c0.286,0.469,0.429,0.986,0.429,1.554c0,0.731-0.237,1.349-0.71,1.851c-0.474,0.501-1.205,0.82-2.194,0.956
				c0.361,0.174,0.635,0.345,0.823,0.514c0.398,0.365,0.776,0.823,1.132,1.371l1.793,2.807h-1.716l-1.364-2.146
				c-0.399-0.619-0.727-1.092-0.985-1.421c-0.258-0.328-0.489-0.558-0.693-0.688c-0.204-0.132-0.411-0.223-0.623-0.274
				c-0.155-0.033-0.408-0.05-0.759-0.05h-1.583v4.579H381.102z M382.467,330.32h2.933c0.624,0,1.111-0.064,1.463-0.193
				c0.352-0.129,0.619-0.335,0.802-0.619c0.183-0.283,0.274-0.592,0.274-0.925c0-0.487-0.177-0.889-0.531-1.202
				c-0.354-0.314-0.913-0.472-1.678-0.472h-3.263V330.32z"/>
			<path d="M396.435,333.676l1.308,0.161c-0.207,0.765-0.588,1.358-1.146,1.78s-1.271,0.633-2.138,0.633
				c-1.093,0-1.959-0.337-2.599-1.01c-0.64-0.673-0.96-1.616-0.96-2.831c0-1.256,0.324-2.231,0.971-2.926
				c0.647-0.693,1.486-1.041,2.518-1.041c0.999,0,1.814,0.34,2.448,1.021c0.633,0.68,0.949,1.636,0.949,2.869
				c0,0.075-0.002,0.188-0.007,0.338h-5.57c0.046,0.82,0.279,1.449,0.696,1.885c0.417,0.437,0.938,0.654,1.561,0.654
				c0.464,0,0.861-0.122,1.189-0.366C395.982,334.6,396.243,334.21,396.435,333.676z M392.278,331.629h4.171
				c-0.057-0.628-0.216-1.1-0.479-1.414c-0.403-0.487-0.926-0.731-1.568-0.731c-0.582,0-1.07,0.195-1.467,0.584
				C392.54,330.457,392.32,330.978,392.278,331.629z"/>
			<path d="M399.333,338.943v-10.332h1.153v0.971c0.272-0.38,0.579-0.665,0.921-0.854s0.757-0.285,1.245-0.285
				c0.637,0,1.2,0.164,1.688,0.492c0.487,0.329,0.855,0.792,1.104,1.39s0.373,1.253,0.373,1.966c0,0.765-0.137,1.452-0.412,2.064
				c-0.274,0.611-0.673,1.081-1.196,1.406c-0.523,0.326-1.072,0.489-1.649,0.489c-0.422,0-0.801-0.089-1.136-0.268
				c-0.335-0.178-0.611-0.403-0.827-0.675v3.636H399.333z M400.479,332.389c0,0.961,0.194,1.672,0.583,2.131
				c0.389,0.46,0.86,0.689,1.414,0.689c0.563,0,1.045-0.238,1.446-0.714s0.601-1.214,0.601-2.212c0-0.952-0.196-1.665-0.587-2.139
				c-0.391-0.474-0.859-0.71-1.403-0.71c-0.54,0-1.017,0.252-1.432,0.756C400.687,330.694,400.479,331.428,400.479,332.389z"/>
			<path d="M412.218,335.159c-0.469,0.399-0.92,0.681-1.354,0.845s-0.899,0.246-1.396,0.246c-0.821,0-1.451-0.2-1.892-0.602
				c-0.441-0.4-0.661-0.913-0.661-1.537c0-0.365,0.083-0.699,0.25-1.002s0.385-0.545,0.654-0.728
				c0.27-0.184,0.573-0.321,0.911-0.415c0.249-0.066,0.624-0.129,1.125-0.19c1.022-0.122,1.775-0.267,2.258-0.436
				c0.004-0.174,0.007-0.284,0.007-0.331c0-0.516-0.12-0.879-0.358-1.09c-0.324-0.286-0.804-0.43-1.442-0.43
				c-0.596,0-1.035,0.104-1.319,0.313s-0.494,0.578-0.629,1.107l-1.238-0.169c0.113-0.529,0.298-0.957,0.556-1.283
				s0.631-0.577,1.119-0.753c0.487-0.176,1.053-0.264,1.695-0.264c0.638,0,1.156,0.075,1.555,0.226
				c0.398,0.149,0.691,0.339,0.879,0.566s0.319,0.515,0.394,0.861c0.042,0.216,0.063,0.604,0.063,1.167v1.688
				c0,1.177,0.027,1.921,0.081,2.233c0.054,0.312,0.161,0.61,0.32,0.896h-1.322C412.34,335.818,412.256,335.512,412.218,335.159z
				 M412.113,332.332c-0.459,0.188-1.149,0.348-2.068,0.479c-0.521,0.075-0.889,0.159-1.104,0.253
				c-0.215,0.094-0.382,0.231-0.499,0.412c-0.117,0.18-0.176,0.381-0.176,0.601c0,0.338,0.127,0.619,0.383,0.845
				c0.255,0.225,0.629,0.337,1.122,0.337c0.488,0,0.921-0.106,1.301-0.319c0.38-0.214,0.659-0.506,0.837-0.876
				c0.136-0.286,0.204-0.708,0.204-1.266V332.332z"/>
			<path d="M415.341,336.081v-7.47h1.139v1.133c0.291-0.53,0.56-0.88,0.806-1.048c0.246-0.169,0.517-0.254,0.812-0.254
				c0.427,0,0.861,0.137,1.301,0.408l-0.436,1.175c-0.31-0.183-0.619-0.274-0.928-0.274c-0.277,0-0.525,0.083-0.746,0.25
				c-0.221,0.166-0.377,0.397-0.471,0.692c-0.141,0.45-0.211,0.942-0.211,1.478v3.91H415.341z"/>
			<path d="M425.026,335.159c-0.469,0.399-0.92,0.681-1.354,0.845s-0.899,0.246-1.396,0.246c-0.821,0-1.451-0.2-1.892-0.602
				c-0.441-0.4-0.661-0.913-0.661-1.537c0-0.365,0.083-0.699,0.25-1.002s0.385-0.545,0.654-0.728
				c0.27-0.184,0.573-0.321,0.911-0.415c0.249-0.066,0.624-0.129,1.125-0.19c1.022-0.122,1.775-0.267,2.258-0.436
				c0.004-0.174,0.007-0.284,0.007-0.331c0-0.516-0.12-0.879-0.358-1.09c-0.324-0.286-0.804-0.43-1.442-0.43
				c-0.596,0-1.035,0.104-1.319,0.313s-0.494,0.578-0.629,1.107l-1.238-0.169c0.113-0.529,0.298-0.957,0.556-1.283
				s0.631-0.577,1.119-0.753c0.487-0.176,1.053-0.264,1.695-0.264c0.638,0,1.156,0.075,1.555,0.226
				c0.398,0.149,0.691,0.339,0.879,0.566s0.319,0.515,0.394,0.861c0.042,0.216,0.063,0.604,0.063,1.167v1.688
				c0,1.177,0.027,1.921,0.081,2.233c0.054,0.312,0.161,0.61,0.32,0.896h-1.322C425.148,335.818,425.063,335.512,425.026,335.159z
				 M424.92,332.332c-0.459,0.188-1.149,0.348-2.068,0.479c-0.521,0.075-0.889,0.159-1.104,0.253
				c-0.215,0.094-0.382,0.231-0.499,0.412c-0.117,0.18-0.176,0.381-0.176,0.601c0,0.338,0.127,0.619,0.383,0.845
				c0.255,0.225,0.629,0.337,1.122,0.337c0.488,0,0.921-0.106,1.301-0.319c0.38-0.214,0.659-0.506,0.837-0.876
				c0.136-0.286,0.204-0.708,0.204-1.266V332.332z"/>
			<path d="M433.037,333.345l1.245,0.162c-0.136,0.858-0.484,1.529-1.044,2.015c-0.561,0.485-1.249,0.729-2.064,0.729
				c-1.022,0-1.844-0.334-2.465-1.002c-0.622-0.669-0.932-1.626-0.932-2.874c0-0.806,0.134-1.512,0.401-2.117
				c0.268-0.604,0.674-1.058,1.221-1.36c0.546-0.303,1.14-0.454,1.783-0.454c0.811,0,1.475,0.205,1.991,0.615
				c0.516,0.411,0.846,0.993,0.992,1.748l-1.231,0.19c-0.117-0.502-0.325-0.88-0.623-1.133s-0.658-0.38-1.08-0.38
				c-0.638,0-1.156,0.229-1.554,0.686c-0.399,0.458-0.598,1.181-0.598,2.17c0,1.004,0.192,1.733,0.577,2.188
				c0.385,0.455,0.886,0.683,1.505,0.683c0.497,0,0.912-0.152,1.245-0.457C432.737,334.447,432.948,333.979,433.037,333.345z"/>
			<path d="M435.373,327.226v-1.456h1.266v1.456H435.373z M435.373,336.081v-7.47h1.266v7.47H435.373z"/>
			<path d="M438.095,332.347c0-1.384,0.384-2.408,1.153-3.074c0.642-0.553,1.425-0.83,2.349-0.83c1.027,0,1.866,0.337,2.518,1.01
				s0.978,1.603,0.978,2.789c0,0.961-0.144,1.717-0.433,2.268c-0.288,0.552-0.708,0.979-1.259,1.284
				c-0.551,0.305-1.152,0.457-1.804,0.457c-1.046,0-1.891-0.335-2.536-1.006S438.095,333.607,438.095,332.347z M439.396,332.347
				c0,0.956,0.209,1.673,0.626,2.148c0.417,0.476,0.943,0.714,1.576,0.714c0.628,0,1.151-0.239,1.568-0.718
				c0.417-0.478,0.626-1.207,0.626-2.188c0-0.924-0.21-1.623-0.629-2.1c-0.42-0.476-0.941-0.714-1.565-0.714
				c-0.633,0-1.158,0.237-1.576,0.711C439.604,330.675,439.396,331.39,439.396,332.347z M440.894,327.683l0.935-1.969h1.66
				l-1.547,1.969H440.894z"/>
			<path d="M446.577,336.081v-7.47h1.139v1.062c0.549-0.82,1.341-1.231,2.377-1.231c0.45,0,0.864,0.081,1.241,0.243
				c0.377,0.161,0.66,0.374,0.848,0.637s0.319,0.574,0.394,0.935c0.047,0.235,0.07,0.646,0.07,1.231v4.593h-1.266v-4.544
				c0-0.516-0.049-0.901-0.148-1.156c-0.098-0.256-0.273-0.46-0.524-0.612s-0.545-0.229-0.882-0.229
				c-0.54,0-1.005,0.171-1.396,0.514c-0.392,0.342-0.587,0.991-0.587,1.948v4.079H446.577z"/>
			<path d="M454.946,336.081v-1.441h1.442v1.441H454.946z"/>
		</g>
		<g>
			<path fill="#2B1C48" d="M289.942,285.352l156.719-37.89c3.761-0.909,6.704-2.205,8.799-3.76c2.066-1.537,3.303-3.323,3.702-5.229
				c0.395-1.879-0.029-3.88-1.264-5.882c-1.223-1.974-3.241-3.956-6.063-5.838l-12.471-8.326l-27.638,6.379l9.087,6.673
				L269.44,264.275c-5.081,1.101-9.6,2.69-13.438,4.638c-3.892,1.978-7.093,4.33-9.456,6.917c-2.404,2.638-3.943,5.521-4.443,8.505
				c-0.511,3.037,0.055,6.176,1.884,9.242l12.227,20.502l47.057-10.931L289.942,285.352z"/>
			<path fill="#60A0D7" d="M191.555,216.518l219.806-34.881c2.994-0.475,5.4-1.185,7.185-2.058c1.771-0.863,2.929-1.886,3.446-2.992
				c0.515-1.097,0.413-2.276-0.336-3.472c-0.734-1.186-2.099-2.388-4.106-3.545l-18.069-10.414c-1.803-1.041-4.052-1.95-6.578-2.708
				c-2.513-0.756-5.302-1.36-8.205-1.8c-2.894-0.434-5.914-0.7-8.897-0.777c-2.982-0.074-5.94,0.042-8.707,0.379l-30.34,3.703
				l12.362,8.944l29.325-3.899l14.414,8.992l-212.995,30.869c-4.487,0.65-8.62,1.621-12.26,2.825
				c-3.684,1.218-6.874,2.68-9.419,4.301c-2.581,1.641-4.501,3.446-5.587,5.319c-1.101,1.9-1.342,3.87-0.539,5.802l6.273,15.104
				l40.463-7.046L191.555,216.518z"/>
			<path fill="#81AD38" d="M429.669,211.957c-2.497-1.664-5.524-3.103-8.865-4.282c-3.307-1.169-6.936-2.091-10.674-2.729
				c-3.725-0.638-7.573-0.999-11.336-1.05c-3.775-0.048-7.484,0.215-10.92,0.832l-184.13,33.103l-4.955-8.667l-40.463,7.046
				l4.558,10.979c0.98,2.36,3.039,4.439,5.938,6.169c2.928,1.746,6.696,3.125,11.037,4.068c4.358,0.947,9.263,1.449,14.436,1.448
				c5.157-0.002,10.542-0.509,15.861-1.565l193.504-38.426l8.065,5.923l27.638-6.379L429.669,211.957z"/>
			<polygon fill="#C85B2F" points="245.546,114.539 234.017,105.193 221.494,105.193 230.412,115.204 			"/>
			<g>
				<polygon fill="#C85B2F" points="255.534,122.636 252.014,119.783 235.148,120.521 237.726,123.416 				"/>
				<path fill="#C85B2F" d="M336.753,157.953l-132.061,16.12l-5.197-7.019l74.275-8.553c3.223-0.371,6.022-0.939,8.319-1.651
					c2.276-0.703,4.056-1.542,5.27-2.458c1.201-0.905,1.849-1.887,1.878-2.887c0.033-0.99-0.54-2.001-1.771-2.983l-28.341-22.978
					l-18.768,0.824l21.382,23.997l-72.055,7.639c-3.607,0.383-6.907,0.978-9.795,1.733c-2.918,0.76-5.42,1.687-7.39,2.717
					c-1.994,1.042-3.443,2.193-4.221,3.395c-0.785,1.216-0.878,2.482-0.144,3.731l5.557,9.455c0.185,0.317,0.423,0.621,0.692,0.921
					c0.083,0.095,0.186,0.186,0.281,0.28c0.201,0.201,0.416,0.401,0.654,0.595c0.127,0.1,0.257,0.202,0.392,0.301
					c0.254,0.186,0.524,0.367,0.811,0.544c0.142,0.087,0.279,0.177,0.429,0.263c0.376,0.216,0.781,0.426,1.207,0.628
					c0.077,0.035,0.145,0.075,0.221,0.109c0.519,0.237,1.074,0.464,1.654,0.679c0.161,0.062,0.336,0.117,0.504,0.176
					c0.435,0.152,0.881,0.301,1.347,0.441c0.219,0.066,0.442,0.128,0.665,0.192c1.303,0.366,2.702,0.693,4.198,0.964
					c3.293,0.595,6.994,0.943,10.887,1.01c3.886,0.064,7.944-0.154,11.958-0.688l139.525-18.554L336.753,157.953z"/>
			</g>
			
				<line fill="none" stroke="#60A0D7" stroke-width="3.9524" stroke-miterlimit="10" x1="354.307" y1="159.8" x2="328.444" y2="36.569"/>
			
				<line fill="none" stroke="#C85B2F" stroke-width="3.9524" stroke-miterlimit="10" x1="183.426" y1="164.864" x2="151.579" y2="59.412"/>
			
				<line fill="none" stroke="#7CA439" stroke-width="3.9524" stroke-miterlimit="10" x1="189.388" y1="253.523" x2="161.437" y2="258.874"/>
			
				<line fill="none" stroke="#2A1945" stroke-width="3.9524" stroke-miterlimit="10" x1="258.72" y1="291.807" x2="315.171" y2="307.612"/>
		</g>
		<path fill="none" stroke="#C85B2F" stroke-width="3.9524" stroke-miterlimit="10" d="M173.347,47.709
			c0,5.967-4.836,10.803-10.803,10.803H21.199c-5.967,0-10.804-4.836-10.804-10.803V34.025c0-5.966,4.837-10.803,10.804-10.803
			h141.345c5.966,0,10.803,4.837,10.803,10.803V47.709z"/>
		<g>
			<path fill="#C85B2F" d="M28.155,29.423c-0.1,4.993-0.149,9.96-0.149,14.9c0,2.475,0.014,4.945,0.042,7.41l-5.279,0.206
				c-0.099-6.357-0.22-12.244-0.362-17.661c-1.192,0.18-2.81,0.624-4.854,1.333l-1.021-3.475l5.917-2.793L28.155,29.423z"/>
		</g>
		<path fill="none" stroke="#7CA439" stroke-width="3.9524" stroke-miterlimit="10" d="M164.928,280.493
			c0,5.967-4.837,10.804-10.804,10.804H12.78c-5.967,0-10.804-4.837-10.804-10.804v-13.683c0-5.967,4.837-10.804,10.804-10.804
			h141.345c5.967,0,10.804,4.837,10.804,10.804V280.493z"/>
		<g>
			<path fill="#81AD38" d="M8.973,269.411c-0.057-0.561-0.085-1.084-0.085-1.571c0-1.682,0.34-2.978,1.021-3.888
				c0.866-1.163,2.285-1.883,4.257-2.157c0.965-0.138,1.887-0.207,2.768-0.207c0.894,0,1.746,0.074,2.554,0.223
				c1.575,0.285,2.834,0.926,3.778,1.92s1.451,2.359,1.522,4.094v0.477c0,1.502-0.312,2.597-0.937,3.284
				c-0.695,0.772-1.838,1.354-3.427,1.745c1.32,0.148,2.31,0.506,2.97,1.071c0.66,0.566,1.118,1.325,1.373,2.277
				c0.142,0.529,0.213,1.11,0.213,1.745c0,0.519-0.05,1.079-0.149,1.683c-0.213,1.322-0.934,2.465-2.161,3.427
				c-1.228,0.963-3.119,1.466-5.673,1.508h-0.341c-2.398,0-4.314-0.466-5.748-1.396c-1.49-0.952-2.235-2.999-2.235-6.141v-0.096
				l5.513-0.237c-0.014,0.18-0.021,0.354-0.021,0.523c0,2.222,0.78,3.369,2.342,3.443c0.113,0.011,0.22,0.016,0.319,0.016
				c1.476,0,2.363-0.582,2.661-1.745c0.085-0.328,0.128-0.641,0.128-0.937c0-0.836-0.319-1.561-0.958-2.174
				c-0.88-0.825-2.334-1.238-4.364-1.238l-0.255-3.015c0.241,0.011,0.468,0.016,0.681,0.016c1.774,0,2.994-0.38,3.661-1.142
				c0.625-0.709,0.937-1.629,0.937-2.762c0-0.222-0.014-0.449-0.042-0.682c-0.127-1.354-0.944-2.031-2.448-2.031h-0.277
				c-1.49,0.074-2.235,1.185-2.235,3.332c0,0.254,0.007,0.523,0.021,0.81L8.973,269.411z"/>
		</g>
		<path fill="none" stroke="#2A1945" stroke-width="3.9524" stroke-miterlimit="10" d="M507.595,325.742
			c0,9.62-5.711,17.418-12.757,17.418H327.928c-7.046,0-12.757-7.798-12.757-17.418v-22.061c0-9.619,5.711-17.419,12.757-17.419
			h166.909c7.046,0,12.757,7.8,12.757,17.419V325.742z"/>
		<g>
			<path fill="#2B1C48" d="M319.472,324.203l-0.447-3.792c2.44-3.978,5.265-8.093,8.472-12.345l6.854,0.285l-0.085,12.25
				l3.001,0.048v3.792h-2.917v6.681l-5.151-0.143l0.064-6.617L319.472,324.203z M329.349,320.649l0.064-8.188
				c-1.561,2.687-3.222,5.39-4.981,8.108L329.349,320.649z"/>
		</g>
		<path fill="none" stroke="#60A0D7" stroke-width="3.9524" stroke-miterlimit="10" d="M399.901,26.462
			c0,5.968-4.837,10.804-10.804,10.804H247.752c-5.966,0-10.803-4.836-10.803-10.804V12.779c0-5.966,4.837-10.804,10.803-10.804
			h141.345c5.967,0,10.804,4.838,10.804,10.804V26.462z"/>
		<g>
			<path fill="#60A0D7" d="M240.717,15.538c-0.071-0.634-0.106-1.222-0.106-1.761c0-1.894,0.461-3.258,1.384-4.094
				c1.178-1.068,2.682-1.709,4.513-1.92c0.652-0.074,1.291-0.111,1.916-0.111c1.121,0,2.2,0.116,3.236,0.349
				c1.618,0.371,2.838,1.101,3.661,2.19c0.667,0.909,1,2.073,1,3.49c0,0.275-0.007,0.566-0.021,0.873
				c-0.17,1.819-0.904,3.494-2.203,5.022c-1.298,1.528-3.544,3.716-6.737,6.562l9.303,0.047l-0.064,3.983
				c-4.073,0.138-9.324,0.206-15.752,0.206l-0.489-4.332c3.86-3.11,6.613-5.501,8.259-7.172c1.504-1.534,2.256-3.041,2.256-4.522
				v-0.396c-0.156-1.587-1.05-2.381-2.682-2.381h-0.085c-1.419,0.032-2.128,0.995-2.128,2.889c0,0.359,0.021,0.745,0.064,1.158
				L240.717,15.538z"/>
		</g>
	</g>
	<path fill="none" stroke="#A0A0A0" stroke-width="3.952" stroke-miterlimit="10" stroke-dasharray="12" d="M934.08,321.228
		c0,6.628-5.373,12-12,12h-375c-6.628,0-12-5.372-12-12V17.703c0-6.627,5.372-12,12-12h375c6.627,0,12,5.373,12,12V321.228z"/>
</g>
</svg>
