<?xml version="1.0" encoding="utf-8"?>
<!-- Generator: Adobe Illustrator 16.0.0, SVG Export Plug-In . SVG Version: 6.00 Build 0)  -->
<!DOCTYPE svg PUBLIC "-//W3C//DTD SVG 1.1//EN" "http://www.w3.org/Graphics/SVG/1.1/DTD/svg11.dtd">
<svg version="1.1" id="Capa_1" xmlns="http://www.w3.org/2000/svg" xmlns:xlink="http://www.w3.org/1999/xlink" x="0px" y="0px"
	 width="1207.812px" height="63.371px" viewBox="0 0 1207.812 63.371" enable-background="new 0 0 1207.812 63.371"
	 xml:space="preserve">
<g>
	<g>
		<path fill="#422D67" d="M297.988,51.371c0,6.628-5.373,12-12,12H12c-6.627,0-12-5.372-12-12V12C0,5.373,5.373,0,12,0h273.988
			c6.627,0,12,5.373,12,12V51.371z"/>
		<g>
			<g>
				<path fill="#FFFFFF" d="M98.028,20.219l-1.388,4.203h-1.784l4.56-13.359h2.062l4.559,13.359h-1.844l-1.427-4.203H98.028z
					 M102.429,18.871l-1.328-3.845c-0.298-0.872-0.495-1.665-0.693-2.438h-0.04c-0.198,0.773-0.396,1.605-0.674,2.418l-1.309,3.865
					H102.429z"/>
				<path fill="#FFFFFF" d="M109.839,12.529v2.299h2.498v1.328h-2.498v5.173c0,1.189,0.337,1.863,1.309,1.863
					c0.476,0,0.753-0.04,1.011-0.118l0.079,1.327c-0.337,0.119-0.872,0.238-1.546,0.238c-0.812,0-1.467-0.278-1.883-0.733
					c-0.476-0.535-0.674-1.388-0.674-2.518v-5.232h-1.487v-1.328h1.487v-1.784L109.839,12.529z"/>
				<path fill="#FFFFFF" d="M115.149,19.941c0.04,2.359,1.526,3.33,3.29,3.33c1.249,0,2.022-0.218,2.656-0.495l0.317,1.249
					c-0.614,0.277-1.685,0.614-3.211,0.614c-2.953,0-4.718-1.962-4.718-4.856s1.705-5.153,4.5-5.153
					c3.151,0,3.964,2.735,3.964,4.499c0,0.357-0.02,0.615-0.06,0.812H115.149z M120.264,18.693c0.02-1.09-0.456-2.814-2.418-2.814
					c-1.784,0-2.537,1.605-2.676,2.814H120.264z"/>
				<path fill="#FFFFFF" d="M124.106,17.424c0-1.01-0.021-1.803-0.08-2.596h1.547l0.099,1.586h0.04
					c0.476-0.893,1.585-1.784,3.171-1.784c1.328,0,3.39,0.792,3.39,4.083v5.709h-1.744v-5.531c0-1.545-0.575-2.834-2.22-2.834
					c-1.13,0-2.022,0.812-2.339,1.784c-0.08,0.218-0.119,0.515-0.119,0.812v5.769h-1.744V17.424z"/>
				<path fill="#FFFFFF" d="M141.942,24.084c-0.456,0.219-1.467,0.556-2.755,0.556c-2.895,0-4.777-1.962-4.777-4.896
					c0-2.954,2.022-5.114,5.153-5.114c1.031,0,1.943,0.257,2.419,0.515l-0.396,1.328c-0.416-0.218-1.07-0.455-2.022-0.455
					c-2.199,0-3.389,1.645-3.389,3.627c0,2.22,1.427,3.588,3.33,3.588c0.99,0,1.645-0.238,2.141-0.456L141.942,24.084z"/>
				<path fill="#FFFFFF" d="M145.925,12.133c0,0.594-0.416,1.07-1.11,1.07c-0.634,0-1.051-0.477-1.051-1.07
					c0-0.596,0.437-1.091,1.091-1.091C145.488,11.042,145.925,11.518,145.925,12.133z M143.982,24.422v-9.594h1.744v9.594H143.982z"
					/>
				<path fill="#FFFFFF" d="M157.301,19.545c0,3.549-2.478,5.095-4.777,5.095c-2.576,0-4.599-1.903-4.599-4.936
					c0-3.191,2.121-5.074,4.758-5.074C155.438,14.63,157.301,16.632,157.301,19.545z M149.709,19.645
					c0,2.102,1.189,3.687,2.894,3.687c1.665,0,2.914-1.565,2.914-3.726c0-1.626-0.812-3.668-2.874-3.668
					C150.601,15.938,149.709,17.841,149.709,19.645z M155.22,10.686l-2.419,2.834h-1.229l1.725-2.834H155.22z"/>
				<path fill="#FFFFFF" d="M159.499,17.424c0-1.01-0.021-1.803-0.08-2.596h1.547l0.099,1.586h0.04
					c0.476-0.893,1.585-1.784,3.171-1.784c1.328,0,3.39,0.792,3.39,4.083v5.709h-1.744v-5.531c0-1.545-0.575-2.834-2.22-2.834
					c-1.13,0-2.022,0.812-2.339,1.784c-0.08,0.218-0.119,0.515-0.119,0.812v5.769h-1.744V17.424z"/>
				<path fill="#FFFFFF" d="M182.962,10.348v11.596c0,0.853,0.04,1.824,0.08,2.479h-1.546l-0.08-1.666h-0.06
					c-0.515,1.07-1.665,1.884-3.23,1.884c-2.319,0-4.123-1.962-4.123-4.876c-0.02-3.191,1.982-5.134,4.302-5.134
					c1.486,0,2.458,0.693,2.894,1.446h0.04v-5.729H182.962z M181.238,18.732c0-0.218-0.021-0.516-0.08-0.732
					c-0.257-1.091-1.209-2.002-2.517-2.002c-1.804,0-2.874,1.585-2.874,3.686c0,1.943,0.971,3.549,2.834,3.549
					c1.17,0,2.24-0.793,2.557-2.082c0.06-0.237,0.08-0.475,0.08-0.753V18.732z"/>
				<path fill="#FFFFFF" d="M186.845,19.941c0.04,2.359,1.526,3.33,3.29,3.33c1.249,0,2.022-0.218,2.656-0.495l0.317,1.249
					c-0.614,0.277-1.685,0.614-3.211,0.614c-2.953,0-4.718-1.962-4.718-4.856s1.705-5.153,4.5-5.153
					c3.151,0,3.964,2.735,3.964,4.499c0,0.357-0.02,0.615-0.06,0.812H186.845z M191.959,18.693c0.02-1.09-0.456-2.814-2.418-2.814
					c-1.784,0-2.537,1.605-2.676,2.814H191.959z"/>
				<path fill="#FFFFFF" d="M49.012,46.1c0.773,0.496,1.883,0.873,3.072,0.873c1.765,0,2.795-0.932,2.795-2.279
					c0-1.229-0.714-1.963-2.518-2.637c-2.18-0.793-3.527-1.942-3.527-3.806c0-2.081,1.724-3.628,4.32-3.628
					c1.349,0,2.359,0.318,2.934,0.654l-0.476,1.408c-0.416-0.258-1.308-0.635-2.518-0.635c-1.823,0-2.517,1.09-2.517,2.002
					c0,1.248,0.812,1.863,2.656,2.576c2.259,0.873,3.389,1.963,3.389,3.926c0,2.061-1.506,3.865-4.657,3.865
					c-1.289,0-2.696-0.396-3.41-0.873L49.012,46.1z"/>
				<path fill="#FFFFFF" d="M60.883,35.912c0,0.595-0.416,1.07-1.11,1.07c-0.634,0-1.051-0.476-1.051-1.07s0.437-1.09,1.091-1.09
					C60.446,34.822,60.883,35.297,60.883,35.912z M58.94,48.201v-9.594h1.744v9.594H58.94z"/>
				<path fill="#FFFFFF" d="M65.678,36.309v2.299h2.498v1.328h-2.498v5.174c0,1.189,0.337,1.863,1.309,1.863
					c0.476,0,0.753-0.04,1.011-0.119l0.079,1.328c-0.337,0.119-0.872,0.238-1.546,0.238c-0.812,0-1.467-0.278-1.883-0.734
					c-0.476-0.535-0.674-1.387-0.674-2.518v-5.232h-1.487v-1.328h1.487v-1.783L65.678,36.309z"/>
				<path fill="#FFFFFF" d="M78.164,45.564c0,1.012,0.02,1.883,0.079,2.637h-1.546l-0.1-1.566h-0.039
					c-0.437,0.773-1.467,1.785-3.172,1.785c-1.506,0-3.31-0.854-3.31-4.203v-5.609h1.744V43.9c0,1.823,0.575,3.072,2.141,3.072
					c1.169,0,1.982-0.812,2.299-1.605c0.1-0.238,0.159-0.556,0.159-0.893v-5.867h1.744V45.564z"/>
				<path fill="#FFFFFF" d="M87.795,45.902c0,0.832,0.039,1.645,0.139,2.299h-1.566l-0.139-1.209h-0.06
					c-0.535,0.753-1.565,1.428-2.934,1.428c-1.942,0-2.934-1.368-2.934-2.756c0-2.318,2.062-3.588,5.769-3.568v-0.197
					c0-0.773-0.218-2.221-2.181-2.201c-0.912,0-1.843,0.258-2.518,0.715l-0.396-1.17c0.793-0.496,1.963-0.832,3.172-0.832
					c2.934,0,3.647,2.002,3.647,3.904V45.902z M86.109,43.305c-1.902-0.039-4.062,0.298-4.062,2.161
					c0,1.149,0.753,1.665,1.625,1.665c1.269,0,2.081-0.793,2.358-1.605c0.06-0.198,0.079-0.396,0.079-0.555V43.305z"/>
				<path fill="#FFFFFF" d="M97.444,47.864c-0.456,0.218-1.467,0.556-2.755,0.556c-2.895,0-4.777-1.963-4.777-4.896
					c0-2.953,2.022-5.113,5.153-5.113c1.031,0,1.943,0.257,2.419,0.515l-0.396,1.328c-0.416-0.218-1.07-0.456-2.022-0.456
					c-2.199,0-3.389,1.646-3.389,3.627c0,2.221,1.427,3.588,3.33,3.588c0.99,0,1.645-0.238,2.141-0.455L97.444,47.864z"/>
				<path fill="#FFFFFF" d="M101.427,35.912c0,0.595-0.416,1.07-1.11,1.07c-0.634,0-1.051-0.476-1.051-1.07s0.437-1.09,1.091-1.09
					C100.99,34.822,101.427,35.297,101.427,35.912z M99.484,48.201v-9.594h1.744v9.594H99.484z"/>
				<path fill="#FFFFFF" d="M112.804,43.325c0,3.548-2.478,5.095-4.777,5.095c-2.576,0-4.599-1.903-4.599-4.936
					c0-3.191,2.121-5.074,4.758-5.074C110.94,38.41,112.804,40.412,112.804,43.325z M105.212,43.424
					c0,2.102,1.189,3.688,2.894,3.688c1.665,0,2.914-1.566,2.914-3.727c0-1.625-0.812-3.667-2.874-3.667
					C106.104,39.718,105.212,41.621,105.212,43.424z"/>
				<path fill="#FFFFFF" d="M115.001,41.204c0-1.011-0.021-1.804-0.08-2.597h1.547l0.099,1.586h0.04
					c0.476-0.893,1.585-1.783,3.171-1.783c1.328,0,3.39,0.792,3.39,4.082v5.709h-1.744v-5.53c0-1.546-0.575-2.835-2.22-2.835
					c-1.13,0-2.022,0.813-2.339,1.785c-0.08,0.217-0.119,0.515-0.119,0.812v5.768h-1.744V41.204z"/>
				<path fill="#FFFFFF" d="M126.97,43.722c0.04,2.358,1.526,3.33,3.29,3.33c1.249,0,2.022-0.218,2.656-0.495l0.317,1.248
					c-0.614,0.277-1.685,0.615-3.211,0.615c-2.953,0-4.718-1.963-4.718-4.857c0-2.894,1.705-5.152,4.5-5.152
					c3.151,0,3.964,2.734,3.964,4.498c0,0.357-0.02,0.615-0.06,0.813H126.97z M132.084,42.473c0.02-1.09-0.456-2.814-2.418-2.814
					c-1.784,0-2.537,1.605-2.676,2.814H132.084z"/>
				<path fill="#FFFFFF" d="M135.688,46.438c0.535,0.316,1.447,0.674,2.319,0.674c1.249,0,1.843-0.615,1.843-1.428
					c0-0.832-0.495-1.268-1.764-1.744c-1.744-0.635-2.557-1.566-2.557-2.715c0-1.547,1.269-2.814,3.31-2.814
					c0.972,0,1.824,0.257,2.339,0.594l-0.416,1.269c-0.377-0.237-1.07-0.575-1.962-0.575c-1.031,0-1.586,0.596-1.586,1.309
					c0,0.793,0.555,1.15,1.804,1.646c1.646,0.614,2.518,1.446,2.518,2.874c0,1.705-1.328,2.895-3.568,2.895
					c-1.05,0-2.021-0.278-2.695-0.675L135.688,46.438z"/>
				<path fill="#FFFFFF" d="M154.933,41.938h-5.174v4.816h5.788v1.447h-7.532V34.842h7.235v1.447h-5.491v4.222h5.174V41.938z"/>
				<path fill="#FFFFFF" d="M157.725,41.204c0-1.011-0.04-1.804-0.08-2.597h1.526l0.08,1.566h0.059
					c0.535-0.912,1.428-1.764,3.033-1.764c1.288,0,2.279,0.792,2.695,1.922h0.04c0.297-0.555,0.693-0.951,1.09-1.248
					c0.575-0.437,1.189-0.674,2.102-0.674c1.288,0,3.171,0.832,3.171,4.162v5.629h-1.704V42.79c0-1.863-0.694-2.954-2.082-2.954
					c-1.011,0-1.764,0.734-2.081,1.566c-0.079,0.258-0.139,0.555-0.139,0.872v5.927h-1.704v-5.748c0-1.526-0.674-2.617-2.002-2.617
					c-1.07,0-1.884,0.873-2.161,1.745c-0.099,0.237-0.139,0.555-0.139,0.853v5.768h-1.704V41.204z"/>
				<path fill="#FFFFFF" d="M175.223,43.722c0.04,2.358,1.526,3.33,3.291,3.33c1.248,0,2.021-0.218,2.655-0.495l0.317,1.248
					c-0.614,0.277-1.685,0.615-3.211,0.615c-2.953,0-4.718-1.963-4.718-4.857c0-2.894,1.705-5.152,4.5-5.152
					c3.151,0,3.964,2.734,3.964,4.498c0,0.357-0.02,0.615-0.06,0.813H175.223z M180.337,42.473c0.02-1.09-0.456-2.814-2.418-2.814
					c-1.784,0-2.537,1.605-2.676,2.814H180.337z"/>
				<path fill="#FFFFFF" d="M184.18,41.601c0-1.13-0.021-2.101-0.08-2.993h1.526l0.08,1.903h0.059
					c0.437-1.288,1.507-2.101,2.677-2.101c0.178,0,0.316,0.02,0.476,0.039v1.645c-0.179-0.039-0.357-0.039-0.595-0.039
					c-1.229,0-2.102,0.912-2.339,2.22c-0.04,0.238-0.06,0.535-0.06,0.813v5.113h-1.744V41.601z"/>
				<path fill="#FFFFFF" d="M198.707,46.794c0,2.22-0.456,3.548-1.368,4.4c-0.951,0.853-2.299,1.149-3.508,1.149
					c-1.15,0-2.419-0.277-3.191-0.793l0.436-1.348c0.635,0.416,1.626,0.773,2.814,0.773c1.784,0,3.093-0.932,3.093-3.37v-1.05h-0.04
					c-0.516,0.891-1.565,1.605-3.053,1.605c-2.378,0-4.083-2.022-4.083-4.678c0-3.252,2.121-5.074,4.341-5.074
					c1.665,0,2.558,0.852,2.993,1.645h0.04l0.06-1.447h1.546c-0.06,0.674-0.079,1.467-0.079,2.617V46.794z M196.962,42.394
					c0-0.298-0.02-0.556-0.099-0.772c-0.317-1.031-1.149-1.863-2.438-1.863c-1.664,0-2.854,1.406-2.854,3.627
					c0,1.883,0.971,3.449,2.834,3.449c1.09,0,2.062-0.674,2.418-1.784c0.1-0.298,0.139-0.634,0.139-0.932V42.394z"/>
				<path fill="#FFFFFF" d="M202.549,43.722c0.04,2.358,1.526,3.33,3.291,3.33c1.248,0,2.021-0.218,2.655-0.495l0.317,1.248
					c-0.614,0.277-1.685,0.615-3.211,0.615c-2.953,0-4.718-1.963-4.718-4.857c0-2.894,1.705-5.152,4.5-5.152
					c3.151,0,3.964,2.734,3.964,4.498c0,0.357-0.02,0.615-0.06,0.813H202.549z M207.663,42.473c0.02-1.09-0.456-2.814-2.418-2.814
					c-1.784,0-2.537,1.605-2.676,2.814H207.663z"/>
				<path fill="#FFFFFF" d="M211.507,41.204c0-1.011-0.021-1.804-0.08-2.597h1.547l0.099,1.586h0.04
					c0.476-0.893,1.585-1.783,3.171-1.783c1.328,0,3.39,0.792,3.39,4.082v5.709h-1.744v-5.53c0-1.546-0.575-2.835-2.22-2.835
					c-1.13,0-2.022,0.813-2.339,1.785c-0.08,0.217-0.119,0.515-0.119,0.812v5.768h-1.744V41.204z"/>
				<path fill="#FFFFFF" d="M224.526,36.309v2.299h2.498v1.328h-2.498v5.174c0,1.189,0.337,1.863,1.309,1.863
					c0.476,0,0.753-0.04,1.011-0.119l0.079,1.328c-0.337,0.119-0.872,0.238-1.546,0.238c-0.812,0-1.467-0.278-1.883-0.734
					c-0.476-0.535-0.674-1.387-0.674-2.518v-5.232h-1.487v-1.328h1.487v-1.783L224.526,36.309z"/>
				<path fill="#FFFFFF" d="M229.836,43.722c0.04,2.358,1.526,3.33,3.291,3.33c1.248,0,2.021-0.218,2.655-0.495l0.317,1.248
					c-0.614,0.277-1.685,0.615-3.211,0.615c-2.953,0-4.718-1.963-4.718-4.857c0-2.894,1.705-5.152,4.5-5.152
					c3.151,0,3.964,2.734,3.964,4.498c0,0.357-0.02,0.615-0.06,0.813H229.836z M234.95,42.473c0.02-1.09-0.456-2.814-2.418-2.814
					c-1.784,0-2.537,1.605-2.676,2.814H234.95z"/>
				<path fill="#FFFFFF" d="M238.556,46.438c0.535,0.316,1.447,0.674,2.319,0.674c1.249,0,1.843-0.615,1.843-1.428
					c0-0.832-0.495-1.268-1.764-1.744c-1.744-0.635-2.557-1.566-2.557-2.715c0-1.547,1.269-2.814,3.31-2.814
					c0.972,0,1.824,0.257,2.339,0.594l-0.416,1.269c-0.377-0.237-1.07-0.575-1.962-0.575c-1.031,0-1.586,0.596-1.586,1.309
					c0,0.793,0.555,1.15,1.804,1.646c1.646,0.614,2.518,1.446,2.518,2.874c0,1.705-1.328,2.895-3.568,2.895
					c-1.05,0-2.021-0.278-2.695-0.675L238.556,46.438z"/>
			</g>
		</g>
	</g>
	<g>
		<path fill="#422D67" d="M601.17,51.371c0,6.628-5.372,12-12,12H315.184c-6.627,0-12-5.372-12-12V12c0-6.627,5.373-12,12-12H589.17
			c6.628,0,12,5.373,12,12V51.371z"/>
		<g>
			<g>
				<path fill="#FFFFFF" d="M385.812,11.062h7.195v1.446h-5.451v4.44h5.035v1.427h-5.035v6.046h-1.744V11.062z"/>
				<path fill="#FFFFFF" d="M403.491,19.545c0,3.549-2.478,5.095-4.777,5.095c-2.576,0-4.599-1.903-4.599-4.936
					c0-3.191,2.121-5.074,4.758-5.074C401.628,14.63,403.491,16.632,403.491,19.545z M395.899,19.645
					c0,2.102,1.189,3.687,2.894,3.687c1.665,0,2.914-1.565,2.914-3.726c0-1.626-0.812-3.668-2.874-3.668
					C396.791,15.938,395.899,17.841,395.899,19.645z"/>
				<path fill="#FFFFFF" d="M405.689,17.82c0-1.129-0.021-2.101-0.08-2.992h1.526l0.08,1.902h0.059
					c0.437-1.288,1.507-2.101,2.677-2.101c0.178,0,0.316,0.02,0.476,0.04v1.645c-0.179-0.039-0.357-0.039-0.595-0.039
					c-1.229,0-2.102,0.911-2.339,2.219c-0.04,0.238-0.06,0.536-0.06,0.813v5.114h-1.744V17.82z"/>
				<path fill="#FFFFFF" d="M414.745,12.529v2.299h2.498v1.328h-2.498v5.173c0,1.189,0.337,1.863,1.309,1.863
					c0.476,0,0.753-0.04,1.011-0.118l0.079,1.327c-0.337,0.119-0.872,0.238-1.546,0.238c-0.812,0-1.467-0.278-1.883-0.733
					c-0.476-0.535-0.674-1.388-0.674-2.518v-5.232h-1.487v-1.328h1.487v-1.784L414.745,12.529z"/>
				<path fill="#FFFFFF" d="M425.943,22.122c0,0.833,0.039,1.646,0.139,2.3h-1.566l-0.139-1.209h-0.06
					c-0.535,0.752-1.565,1.427-2.934,1.427c-1.942,0-2.934-1.368-2.934-2.755c0-2.319,2.062-3.588,5.769-3.568v-0.198
					c0-0.772-0.218-2.22-2.181-2.2c-0.912,0-1.843,0.258-2.518,0.714l-0.396-1.169c0.793-0.496,1.963-0.833,3.172-0.833
					c2.934,0,3.647,2.002,3.647,3.905V22.122z M424.258,19.525c-1.902-0.039-4.062,0.297-4.062,2.16c0,1.15,0.753,1.666,1.625,1.666
					c1.269,0,2.081-0.793,2.358-1.605c0.06-0.199,0.079-0.396,0.079-0.556V19.525z"/>
				<path fill="#FFFFFF" d="M428.755,10.348h1.744v14.074h-1.744V10.348z"/>
				<path fill="#FFFFFF" d="M434.402,19.941c0.04,2.359,1.526,3.33,3.291,3.33c1.248,0,2.021-0.218,2.655-0.495l0.317,1.249
					c-0.614,0.277-1.685,0.614-3.211,0.614c-2.953,0-4.718-1.962-4.718-4.856s1.705-5.153,4.5-5.153
					c3.151,0,3.964,2.735,3.964,4.499c0,0.357-0.02,0.615-0.06,0.812H434.402z M439.517,18.693c0.02-1.09-0.456-2.814-2.418-2.814
					c-1.784,0-2.537,1.605-2.676,2.814H439.517z"/>
				<path fill="#FFFFFF" d="M450.197,24.084c-0.456,0.219-1.467,0.556-2.755,0.556c-2.895,0-4.777-1.962-4.777-4.896
					c0-2.954,2.022-5.114,5.153-5.114c1.031,0,1.943,0.257,2.419,0.515l-0.396,1.328c-0.416-0.218-1.07-0.455-2.022-0.455
					c-2.199,0-3.389,1.645-3.389,3.627c0,2.22,1.427,3.588,3.33,3.588c0.99,0,1.645-0.238,2.141-0.456L450.197,24.084z"/>
				<path fill="#FFFFFF" d="M454.18,12.133c0,0.594-0.416,1.07-1.11,1.07c-0.634,0-1.051-0.477-1.051-1.07
					c0-0.596,0.437-1.091,1.091-1.091C453.743,11.042,454.18,11.518,454.18,12.133z M452.237,24.422v-9.594h1.744v9.594H452.237z"/>
				<path fill="#FFFFFF" d="M456.874,17.424c0-1.01-0.04-1.803-0.08-2.596h1.526l0.08,1.566h0.059
					c0.535-0.912,1.428-1.765,3.033-1.765c1.288,0,2.279,0.792,2.695,1.923h0.04c0.297-0.555,0.693-0.951,1.09-1.249
					c0.575-0.437,1.189-0.674,2.102-0.674c1.288,0,3.171,0.833,3.171,4.162v5.63h-1.704V19.01c0-1.863-0.694-2.953-2.082-2.953
					c-1.011,0-1.764,0.733-2.081,1.566c-0.079,0.258-0.139,0.555-0.139,0.871v5.928h-1.704v-5.748c0-1.527-0.674-2.617-2.002-2.617
					c-1.07,0-1.884,0.873-2.161,1.744c-0.099,0.238-0.139,0.555-0.139,0.853v5.769h-1.704V17.424z"/>
				<path fill="#FFFFFF" d="M475.344,12.133c0,0.594-0.416,1.07-1.11,1.07c-0.634,0-1.051-0.477-1.051-1.07
					c0-0.596,0.437-1.091,1.091-1.091C474.907,11.042,475.344,11.518,475.344,12.133z M473.401,24.422v-9.594h1.744v9.594H473.401z"
					/>
				<path fill="#FFFFFF" d="M479.009,19.941c0.04,2.359,1.526,3.33,3.29,3.33c1.249,0,2.022-0.218,2.656-0.495l0.317,1.249
					c-0.614,0.277-1.685,0.614-3.211,0.614c-2.953,0-4.718-1.962-4.718-4.856s1.705-5.153,4.5-5.153
					c3.151,0,3.964,2.735,3.964,4.499c0,0.357-0.02,0.615-0.06,0.812H479.009z M484.123,18.693c0.02-1.09-0.456-2.814-2.418-2.814
					c-1.784,0-2.537,1.605-2.676,2.814H484.123z"/>
				<path fill="#FFFFFF" d="M487.967,17.424c0-1.01-0.021-1.803-0.08-2.596h1.547l0.099,1.586h0.04
					c0.476-0.893,1.585-1.784,3.171-1.784c1.328,0,3.39,0.792,3.39,4.083v5.709h-1.744v-5.531c0-1.545-0.575-2.834-2.22-2.834
					c-1.13,0-2.022,0.812-2.339,1.784c-0.08,0.218-0.119,0.515-0.119,0.812v5.769h-1.744V17.424z"/>
				<path fill="#FFFFFF" d="M500.986,12.529v2.299h2.498v1.328h-2.498v5.173c0,1.189,0.337,1.863,1.309,1.863
					c0.476,0,0.753-0.04,1.011-0.118l0.079,1.327c-0.337,0.119-0.872,0.238-1.546,0.238c-0.812,0-1.467-0.278-1.883-0.733
					c-0.476-0.535-0.674-1.388-0.674-2.518v-5.232h-1.487v-1.328h1.487v-1.784L500.986,12.529z"/>
				<path fill="#FFFFFF" d="M514.007,19.545c0,3.549-2.478,5.095-4.777,5.095c-2.576,0-4.599-1.903-4.599-4.936
					c0-3.191,2.121-5.074,4.758-5.074C512.144,14.63,514.007,16.632,514.007,19.545z M506.415,19.645
					c0,2.102,1.189,3.687,2.894,3.687c1.665,0,2.914-1.565,2.914-3.726c0-1.626-0.812-3.668-2.874-3.668
					C507.307,15.938,506.415,17.841,506.415,19.645z"/>
				<path fill="#FFFFFF" d="M423.813,47.785c-0.614,0.316-1.902,0.635-3.528,0.635c-3.766,0-6.58-2.379-6.58-6.779
					c0-4.202,2.834-7.018,6.977-7.018c1.646,0,2.716,0.357,3.172,0.596l-0.437,1.406c-0.634-0.316-1.565-0.555-2.676-0.555
					c-3.132,0-5.213,2.002-5.213,5.511c0,3.29,1.883,5.372,5.114,5.372c1.07,0,2.141-0.219,2.834-0.556L423.813,47.785z"/>
				<path fill="#FFFFFF" d="M434.396,43.325c0,3.548-2.478,5.095-4.777,5.095c-2.576,0-4.599-1.903-4.599-4.936
					c0-3.191,2.121-5.074,4.758-5.074C432.532,38.41,434.396,40.412,434.396,43.325z M426.804,43.424
					c0,2.102,1.189,3.688,2.894,3.688c1.665,0,2.914-1.566,2.914-3.727c0-1.625-0.812-3.667-2.874-3.667
					C427.695,39.718,426.804,41.621,426.804,43.424z"/>
				<path fill="#FFFFFF" d="M436.594,34.128h1.744v14.073h-1.744V34.128z"/>
				<path fill="#FFFFFF" d="M442.24,43.722c0.04,2.358,1.526,3.33,3.291,3.33c1.248,0,2.021-0.218,2.655-0.495l0.317,1.248
					c-0.614,0.277-1.685,0.615-3.211,0.615c-2.953,0-4.718-1.963-4.718-4.857c0-2.894,1.705-5.152,4.5-5.152
					c3.151,0,3.964,2.734,3.964,4.498c0,0.357-0.02,0.615-0.06,0.813H442.24z M447.354,42.473c0.02-1.09-0.456-2.814-2.418-2.814
					c-1.784,0-2.537,1.605-2.676,2.814H447.354z"/>
				<path fill="#FFFFFF" d="M458.036,47.864c-0.456,0.218-1.467,0.556-2.755,0.556c-2.895,0-4.777-1.963-4.777-4.896
					c0-2.953,2.022-5.113,5.153-5.113c1.031,0,1.943,0.257,2.419,0.515l-0.396,1.328c-0.416-0.218-1.07-0.456-2.022-0.456
					c-2.199,0-3.389,1.646-3.389,3.627c0,2.221,1.427,3.588,3.33,3.588c0.99,0,1.645-0.238,2.141-0.455L458.036,47.864z"/>
				<path fill="#FFFFFF" d="M462.434,36.309v2.299h2.498v1.328h-2.498v5.174c0,1.189,0.337,1.863,1.309,1.863
					c0.476,0,0.753-0.04,1.011-0.119l0.079,1.328c-0.337,0.119-0.872,0.238-1.546,0.238c-0.812,0-1.467-0.278-1.883-0.734
					c-0.476-0.535-0.674-1.387-0.674-2.518v-5.232h-1.487v-1.328h1.487v-1.783L462.434,36.309z"/>
				<path fill="#FFFFFF" d="M468.835,35.912c0,0.595-0.416,1.07-1.11,1.07c-0.634,0-1.051-0.476-1.051-1.07s0.437-1.09,1.091-1.09
					C468.398,34.822,468.835,35.297,468.835,35.912z M466.893,48.201v-9.594h1.744v9.594H466.893z"/>
				<path fill="#FFFFFF" d="M472.203,38.607l1.883,5.372c0.317,0.892,0.575,1.685,0.773,2.478h0.059
					c0.219-0.793,0.496-1.586,0.813-2.478l1.863-5.372h1.823l-3.767,9.594h-1.665l-3.646-9.594H472.203z"/>
				<path fill="#FFFFFF" d="M489.544,43.325c0,3.548-2.478,5.095-4.777,5.095c-2.576,0-4.599-1.903-4.599-4.936
					c0-3.191,2.121-5.074,4.758-5.074C487.681,38.41,489.544,40.412,489.544,43.325z M481.952,43.424
					c0,2.102,1.189,3.688,2.894,3.688c1.665,0,2.914-1.566,2.914-3.727c0-1.625-0.812-3.667-2.874-3.667
					C482.844,39.718,481.952,41.621,481.952,43.424z"/>
			</g>
		</g>
	</g>
	<g>
		<path fill="#422D67" d="M904.402,51.371c0,6.628-5.373,12-12,12H618.416c-6.628,0-12-5.372-12-12V12c0-6.627,5.372-12,12-12
			h273.986c6.627,0,12,5.373,12,12V51.371z"/>
		<g>
			<g>
				<path fill="#FFFFFF" d="M677.997,11.24c0.872-0.158,2.141-0.277,3.31-0.277c1.844,0,3.053,0.357,3.865,1.09
					c0.654,0.595,1.051,1.507,1.051,2.557c0,1.744-1.11,2.914-2.498,3.391v0.059c1.011,0.357,1.626,1.309,1.942,2.695
					c0.437,1.863,0.754,3.152,1.031,3.668h-1.784c-0.218-0.396-0.516-1.527-0.872-3.191c-0.396-1.844-1.13-2.537-2.695-2.597h-1.626
					v5.788h-1.724V11.24z M679.721,17.325h1.765c1.843,0,3.013-1.011,3.013-2.537c0-1.724-1.249-2.478-3.072-2.478
					c-0.833,0-1.407,0.06-1.705,0.139V17.325z"/>
				<path fill="#FFFFFF" d="M689.648,19.941c0.04,2.359,1.526,3.33,3.29,3.33c1.249,0,2.022-0.218,2.656-0.495l0.317,1.249
					c-0.614,0.277-1.685,0.614-3.211,0.614c-2.953,0-4.718-1.962-4.718-4.856s1.705-5.153,4.5-5.153
					c3.151,0,3.964,2.735,3.964,4.499c0,0.357-0.02,0.615-0.06,0.812H689.648z M694.763,18.693c0.02-1.09-0.456-2.814-2.418-2.814
					c-1.784,0-2.537,1.605-2.676,2.814H694.763z"/>
				<path fill="#FFFFFF" d="M705.443,24.084c-0.456,0.219-1.467,0.556-2.755,0.556c-2.895,0-4.777-1.962-4.777-4.896
					c0-2.954,2.022-5.114,5.153-5.114c1.031,0,1.943,0.257,2.419,0.515l-0.396,1.328c-0.416-0.218-1.07-0.455-2.022-0.455
					c-2.199,0-3.389,1.645-3.389,3.627c0,2.22,1.427,3.588,3.33,3.588c0.99,0,1.645-0.238,2.141-0.456L705.443,24.084z"/>
				<path fill="#FFFFFF" d="M716.047,19.545c0,3.549-2.478,5.095-4.777,5.095c-2.576,0-4.599-1.903-4.599-4.936
					c0-3.191,2.121-5.074,4.758-5.074C714.184,14.63,716.047,16.632,716.047,19.545z M708.455,19.645
					c0,2.102,1.189,3.687,2.894,3.687c1.665,0,2.914-1.565,2.914-3.726c0-1.626-0.812-3.668-2.874-3.668
					C709.347,15.938,708.455,17.841,708.455,19.645z"/>
				<path fill="#FFFFFF" d="M718.244,17.424c0-1.01-0.021-1.803-0.08-2.596h1.547l0.099,1.586h0.04
					c0.476-0.893,1.585-1.784,3.171-1.784c1.328,0,3.39,0.792,3.39,4.083v5.709h-1.744v-5.531c0-1.545-0.575-2.834-2.22-2.834
					c-1.13,0-2.022,0.812-2.339,1.784c-0.08,0.218-0.119,0.515-0.119,0.812v5.769h-1.744V17.424z"/>
				<path fill="#FFFFFF" d="M729.004,22.657c0.535,0.317,1.447,0.674,2.319,0.674c1.249,0,1.843-0.614,1.843-1.427
					c0-0.832-0.495-1.269-1.764-1.744c-1.744-0.635-2.557-1.566-2.557-2.716c0-1.546,1.269-2.814,3.31-2.814
					c0.972,0,1.824,0.257,2.339,0.595l-0.416,1.269c-0.377-0.238-1.07-0.575-1.962-0.575c-1.031,0-1.586,0.595-1.586,1.309
					c0,0.793,0.555,1.149,1.804,1.645c1.646,0.615,2.518,1.447,2.518,2.875c0,1.704-1.328,2.894-3.568,2.894
					c-1.05,0-2.021-0.278-2.695-0.675L729.004,22.657z"/>
				<path fill="#FFFFFF" d="M739.19,12.529v2.299h2.498v1.328h-2.498v5.173c0,1.189,0.337,1.863,1.309,1.863
					c0.476,0,0.753-0.04,1.011-0.118l0.079,1.327c-0.337,0.119-0.872,0.238-1.546,0.238c-0.812,0-1.467-0.278-1.883-0.733
					c-0.476-0.535-0.674-1.388-0.674-2.518v-5.232h-1.487v-1.328h1.487v-1.784L739.19,12.529z"/>
				<path fill="#FFFFFF" d="M743.648,17.82c0-1.129-0.021-2.101-0.08-2.992h1.526l0.08,1.902h0.059
					c0.437-1.288,1.507-2.101,2.676-2.101c0.179,0,0.317,0.02,0.477,0.04v1.645c-0.179-0.039-0.357-0.039-0.595-0.039
					c-1.229,0-2.102,0.911-2.339,2.219c-0.04,0.238-0.06,0.536-0.06,0.813v5.114h-1.744V17.82z"/>
				<path fill="#FFFFFF" d="M758.156,21.785c0,1.011,0.02,1.883,0.079,2.637h-1.546l-0.1-1.566h-0.039
					c-0.437,0.773-1.467,1.784-3.172,1.784c-1.506,0-3.31-0.853-3.31-4.202v-5.609h1.744v5.292c0,1.823,0.575,3.072,2.141,3.072
					c1.169,0,1.982-0.812,2.299-1.605c0.1-0.237,0.159-0.556,0.159-0.892v-5.867h1.744V21.785z"/>
				<path fill="#FFFFFF" d="M767.886,24.084c-0.456,0.219-1.467,0.556-2.755,0.556c-2.895,0-4.777-1.962-4.777-4.896
					c0-2.954,2.022-5.114,5.153-5.114c1.031,0,1.943,0.257,2.419,0.515l-0.396,1.328c-0.416-0.218-1.07-0.455-2.022-0.455
					c-2.199,0-3.389,1.645-3.389,3.627c0,2.22,1.427,3.588,3.33,3.588c0.99,0,1.645-0.238,2.141-0.456L767.886,24.084z"/>
				<path fill="#FFFFFF" d="M776.645,24.084c-0.456,0.219-1.467,0.556-2.755,0.556c-2.895,0-4.777-1.962-4.777-4.896
					c0-2.954,2.022-5.114,5.153-5.114c1.031,0,1.943,0.257,2.419,0.515l-0.396,1.328c-0.416-0.218-1.07-0.455-2.022-0.455
					c-2.199,0-3.389,1.645-3.389,3.627c0,2.22,1.427,3.588,3.33,3.588c0.99,0,1.645-0.238,2.141-0.456L776.645,24.084z"/>
				<path fill="#FFFFFF" d="M780.627,12.133c0,0.594-0.416,1.07-1.11,1.07c-0.634,0-1.051-0.477-1.051-1.07
					c0-0.596,0.437-1.091,1.091-1.091C780.19,11.042,780.627,11.518,780.627,12.133z M778.685,24.422v-9.594h1.744v9.594H778.685z"
					/>
				<path fill="#FFFFFF" d="M792.003,19.545c0,3.549-2.478,5.095-4.777,5.095c-2.576,0-4.599-1.903-4.599-4.936
					c0-3.191,2.121-5.074,4.758-5.074C790.14,14.63,792.003,16.632,792.003,19.545z M784.411,19.645
					c0,2.102,1.189,3.687,2.894,3.687c1.665,0,2.914-1.565,2.914-3.726c0-1.626-0.812-3.668-2.874-3.668
					C785.303,15.938,784.411,17.841,784.411,19.645z M789.922,10.686l-2.419,2.834h-1.229l1.725-2.834H789.922z"/>
				<path fill="#FFFFFF" d="M794.2,17.424c0-1.01-0.021-1.803-0.08-2.596h1.547l0.099,1.586h0.04
					c0.476-0.893,1.585-1.784,3.171-1.784c1.328,0,3.39,0.792,3.39,4.083v5.709h-1.744v-5.531c0-1.545-0.575-2.834-2.22-2.834
					c-1.13,0-2.022,0.812-2.339,1.784c-0.08,0.218-0.119,0.515-0.119,0.812v5.769H794.2V17.424z"/>
				<path fill="#FFFFFF" d="M817.664,10.348v11.596c0,0.853,0.04,1.824,0.08,2.479h-1.546l-0.08-1.666h-0.06
					c-0.515,1.07-1.665,1.884-3.23,1.884c-2.319,0-4.123-1.962-4.123-4.876c-0.02-3.191,1.982-5.134,4.302-5.134
					c1.486,0,2.458,0.693,2.894,1.446h0.04v-5.729H817.664z M815.94,18.732c0-0.218-0.021-0.516-0.08-0.732
					c-0.257-1.091-1.209-2.002-2.517-2.002c-1.804,0-2.874,1.585-2.874,3.686c0,1.943,0.971,3.549,2.834,3.549
					c1.17,0,2.24-0.793,2.557-2.082c0.06-0.237,0.08-0.475,0.08-0.753V18.732z"/>
				<path fill="#FFFFFF" d="M821.547,19.941c0.04,2.359,1.526,3.33,3.29,3.33c1.249,0,2.022-0.218,2.656-0.495l0.317,1.249
					c-0.614,0.277-1.685,0.614-3.211,0.614c-2.953,0-4.718-1.962-4.718-4.856s1.705-5.153,4.5-5.153
					c3.151,0,3.964,2.735,3.964,4.499c0,0.357-0.02,0.615-0.06,0.812H821.547z M826.661,18.693c0.02-1.09-0.456-2.814-2.418-2.814
					c-1.784,0-2.537,1.605-2.676,2.814H826.661z"/>
				<path fill="#FFFFFF" d="M702.193,34.128h1.744v14.073h-1.744V34.128z"/>
				<path fill="#FFFFFF" d="M713.609,45.902c0,0.832,0.039,1.645,0.139,2.299h-1.566l-0.139-1.209h-0.06
					c-0.535,0.753-1.565,1.428-2.934,1.428c-1.942,0-2.934-1.368-2.934-2.756c0-2.318,2.062-3.588,5.769-3.568v-0.197
					c0-0.773-0.218-2.221-2.181-2.201c-0.912,0-1.843,0.258-2.518,0.715l-0.396-1.17c0.793-0.496,1.963-0.832,3.172-0.832
					c2.934,0,3.647,2.002,3.647,3.904V45.902z M711.924,43.305c-1.902-0.039-4.062,0.298-4.062,2.161
					c0,1.149,0.753,1.665,1.625,1.665c1.269,0,2.081-0.793,2.358-1.605c0.06-0.198,0.079-0.396,0.079-0.555V43.305z"/>
				<path fill="#FFFFFF" d="M716.184,46.438c0.535,0.316,1.447,0.674,2.319,0.674c1.249,0,1.843-0.615,1.843-1.428
					c0-0.832-0.495-1.268-1.764-1.744c-1.744-0.635-2.557-1.566-2.557-2.715c0-1.547,1.269-2.814,3.31-2.814
					c0.972,0,1.824,0.257,2.339,0.594l-0.416,1.269c-0.377-0.237-1.07-0.575-1.962-0.575c-1.031,0-1.586,0.596-1.586,1.309
					c0,0.793,0.555,1.15,1.804,1.646c1.646,0.614,2.518,1.446,2.518,2.874c0,1.705-1.328,2.895-3.568,2.895
					c-1.05,0-2.021-0.278-2.695-0.675L716.184,46.438z"/>
				<path fill="#FFFFFF" d="M739.787,42.334c-0.099-1.863-0.218-4.123-0.218-5.768h-0.04c-0.476,1.546-1.011,3.23-1.685,5.074
					l-2.358,6.481h-1.309l-2.18-6.362c-0.635-1.903-1.15-3.607-1.526-5.193h-0.04c-0.04,1.664-0.139,3.885-0.258,5.906l-0.356,5.729
					h-1.646l0.932-13.359h2.2l2.279,6.461c0.556,1.646,0.991,3.113,1.348,4.5h0.04c0.356-1.348,0.833-2.814,1.427-4.5l2.379-6.461
					h2.2l0.832,13.359h-1.704L739.787,42.334z"/>
				<path fill="#FFFFFF" d="M745.491,43.722c0.04,2.358,1.526,3.33,3.291,3.33c1.248,0,2.021-0.218,2.655-0.495l0.317,1.248
					c-0.614,0.277-1.685,0.615-3.211,0.615c-2.953,0-4.718-1.963-4.718-4.857c0-2.894,1.705-5.152,4.5-5.152
					c3.151,0,3.964,2.734,3.964,4.498c0,0.357-0.02,0.615-0.06,0.813H745.491z M750.605,42.473c0.02-1.09-0.456-2.814-2.418-2.814
					c-1.784,0-2.537,1.605-2.676,2.814H750.605z"/>
				<path fill="#FFFFFF" d="M754.448,41.204c0-1.011-0.04-1.804-0.08-2.597h1.526l0.08,1.566h0.059
					c0.535-0.912,1.428-1.764,3.033-1.764c1.288,0,2.279,0.792,2.695,1.922h0.04c0.297-0.555,0.693-0.951,1.09-1.248
					c0.575-0.437,1.189-0.674,2.102-0.674c1.288,0,3.171,0.832,3.171,4.162v5.629h-1.704V42.79c0-1.863-0.694-2.954-2.082-2.954
					c-1.011,0-1.764,0.734-2.081,1.566c-0.079,0.258-0.139,0.555-0.139,0.872v5.927h-1.704v-5.748c0-1.526-0.674-2.617-2.002-2.617
					c-1.07,0-1.884,0.873-2.161,1.745c-0.099,0.237-0.139,0.555-0.139,0.853v5.768h-1.704V41.204z"/>
				<path fill="#FFFFFF" d="M779.657,43.325c0,3.548-2.478,5.095-4.777,5.095c-2.576,0-4.599-1.903-4.599-4.936
					c0-3.191,2.121-5.074,4.758-5.074C777.794,38.41,779.657,40.412,779.657,43.325z M772.065,43.424
					c0,2.102,1.189,3.688,2.894,3.688c1.665,0,2.914-1.566,2.914-3.727c0-1.625-0.812-3.667-2.874-3.667
					C772.957,39.718,772.065,41.621,772.065,43.424z"/>
				<path fill="#FFFFFF" d="M781.854,41.601c0-1.13-0.021-2.101-0.08-2.993h1.526l0.08,1.903h0.059
					c0.437-1.288,1.507-2.101,2.677-2.101c0.178,0,0.316,0.02,0.476,0.039v1.645c-0.179-0.039-0.357-0.039-0.595-0.039
					c-1.229,0-2.102,0.912-2.339,2.22c-0.04,0.238-0.06,0.535-0.06,0.813v5.113h-1.744V41.601z"/>
				<path fill="#FFFFFF" d="M790.356,35.912c0,0.595-0.416,1.07-1.11,1.07c-0.634,0-1.051-0.476-1.051-1.07s0.437-1.09,1.091-1.09
					C789.92,34.822,790.356,35.297,790.356,35.912z M788.414,48.201v-9.594h1.744v9.594H788.414z"/>
				<path fill="#FFFFFF" d="M799.79,45.902c0,0.832,0.039,1.645,0.139,2.299h-1.566l-0.139-1.209h-0.06
					c-0.535,0.753-1.565,1.428-2.934,1.428c-1.942,0-2.934-1.368-2.934-2.756c0-2.318,2.062-3.588,5.769-3.568v-0.197
					c0-0.773-0.218-2.221-2.181-2.201c-0.912,0-1.843,0.258-2.518,0.715l-0.396-1.17c0.793-0.496,1.963-0.832,3.172-0.832
					c2.934,0,3.647,2.002,3.647,3.904V45.902z M798.104,43.305c-1.902-0.039-4.062,0.298-4.062,2.161
					c0,1.149,0.753,1.665,1.625,1.665c1.269,0,2.081-0.793,2.358-1.605c0.06-0.198,0.079-0.396,0.079-0.555V43.305z"/>
				<path fill="#FFFFFF" d="M802.364,46.438c0.535,0.316,1.447,0.674,2.319,0.674c1.249,0,1.843-0.615,1.843-1.428
					c0-0.832-0.495-1.268-1.764-1.744c-1.744-0.635-2.557-1.566-2.557-2.715c0-1.547,1.269-2.814,3.31-2.814
					c0.972,0,1.824,0.257,2.339,0.594l-0.416,1.269c-0.377-0.237-1.07-0.575-1.962-0.575c-1.031,0-1.586,0.596-1.586,1.309
					c0,0.793,0.555,1.15,1.804,1.646c1.646,0.614,2.518,1.446,2.518,2.874c0,1.705-1.328,2.895-3.568,2.895
					c-1.05,0-2.021-0.278-2.695-0.675L802.364,46.438z"/>
			</g>
		</g>
	</g>
	<g>
		<path fill="#422D67" d="M1207.812,51.371c0,6.628-5.372,12-12,12H921.824c-6.627,0-12-5.372-12-12V12c0-6.627,5.373-12,12-12
			h273.987c6.628,0,12,5.373,12,12V51.371z"/>
		<g>
			<g>
				<path fill="#FFFFFF" d="M990.175,11.24c0.872-0.158,2.141-0.277,3.31-0.277c1.844,0,3.053,0.357,3.865,1.09
					c0.654,0.595,1.051,1.507,1.051,2.557c0,1.744-1.11,2.914-2.498,3.391v0.059c1.012,0.357,1.626,1.309,1.942,2.695
					c0.437,1.863,0.754,3.152,1.031,3.668h-1.784c-0.218-0.396-0.516-1.527-0.872-3.191c-0.396-1.844-1.13-2.537-2.695-2.597h-1.626
					v5.788h-1.724V11.24z M991.898,17.325h1.765c1.843,0,3.013-1.011,3.013-2.537c0-1.724-1.249-2.478-3.072-2.478
					c-0.833,0-1.407,0.06-1.705,0.139V17.325z"/>
				<path fill="#FFFFFF" d="M1001.826,19.941c0.04,2.359,1.526,3.33,3.291,3.33c1.248,0,2.021-0.218,2.655-0.495l0.317,1.249
					c-0.614,0.277-1.685,0.614-3.211,0.614c-2.953,0-4.718-1.962-4.718-4.856s1.705-5.153,4.5-5.153
					c3.151,0,3.964,2.735,3.964,4.499c0,0.357-0.02,0.615-0.06,0.812H1001.826z M1006.94,18.693c0.02-1.09-0.456-2.814-2.418-2.814
					c-1.784,0-2.537,1.605-2.676,2.814H1006.94z"/>
				<path fill="#FFFFFF" d="M1017.621,24.084c-0.456,0.219-1.467,0.556-2.755,0.556c-2.895,0-4.777-1.962-4.777-4.896
					c0-2.954,2.022-5.114,5.153-5.114c1.031,0,1.943,0.257,2.419,0.515l-0.396,1.328c-0.416-0.218-1.07-0.455-2.022-0.455
					c-2.199,0-3.389,1.645-3.389,3.627c0,2.22,1.427,3.588,3.33,3.588c0.99,0,1.645-0.238,2.141-0.456L1017.621,24.084z"/>
				<path fill="#FFFFFF" d="M1028.225,19.545c0,3.549-2.478,5.095-4.777,5.095c-2.576,0-4.599-1.903-4.599-4.936
					c0-3.191,2.121-5.074,4.758-5.074C1026.361,14.63,1028.225,16.632,1028.225,19.545z M1020.633,19.645
					c0,2.102,1.189,3.687,2.894,3.687c1.665,0,2.914-1.565,2.914-3.726c0-1.626-0.812-3.668-2.874-3.668
					C1021.524,15.938,1020.633,17.841,1020.633,19.645z"/>
				<path fill="#FFFFFF" d="M1030.422,17.424c0-1.01-0.021-1.803-0.08-2.596h1.547l0.099,1.586h0.04
					c0.476-0.893,1.585-1.784,3.171-1.784c1.328,0,3.39,0.792,3.39,4.083v5.709h-1.744v-5.531c0-1.545-0.575-2.834-2.22-2.834
					c-1.13,0-2.022,0.812-2.339,1.784c-0.08,0.218-0.119,0.515-0.119,0.812v5.769h-1.744V17.424z"/>
				<path fill="#FFFFFF" d="M1050.102,19.545c0,3.549-2.478,5.095-4.777,5.095c-2.576,0-4.599-1.903-4.599-4.936
					c0-3.191,2.121-5.074,4.758-5.074C1048.238,14.63,1050.102,16.632,1050.102,19.545z M1042.51,19.645
					c0,2.102,1.189,3.687,2.894,3.687c1.665,0,2.914-1.565,2.914-3.726c0-1.626-0.812-3.668-2.874-3.668
					C1043.401,15.938,1042.51,17.841,1042.51,19.645z"/>
				<path fill="#FFFFFF" d="M1059.137,24.084c-0.456,0.219-1.467,0.556-2.755,0.556c-2.895,0-4.777-1.962-4.777-4.896
					c0-2.954,2.022-5.114,5.153-5.114c1.031,0,1.943,0.257,2.419,0.515l-0.396,1.328c-0.416-0.218-1.07-0.455-2.022-0.455
					c-2.199,0-3.389,1.645-3.389,3.627c0,2.22,1.427,3.588,3.33,3.588c0.99,0,1.645-0.238,2.141-0.456L1059.137,24.084z"/>
				<path fill="#FFFFFF" d="M1063.119,12.133c0,0.594-0.416,1.07-1.11,1.07c-0.634,0-1.051-0.477-1.051-1.07
					c0-0.596,0.437-1.091,1.091-1.091C1062.683,11.042,1063.119,11.518,1063.119,12.133z M1061.177,24.422v-9.594h1.744v9.594
					H1061.177z"/>
				<path fill="#FFFFFF" d="M1065.813,17.424c0-1.01-0.04-1.803-0.08-2.596h1.526l0.08,1.566h0.059
					c0.535-0.912,1.428-1.765,3.033-1.765c1.288,0,2.279,0.792,2.695,1.923h0.04c0.297-0.555,0.693-0.951,1.09-1.249
					c0.575-0.437,1.189-0.674,2.102-0.674c1.288,0,3.171,0.833,3.171,4.162v5.63h-1.704V19.01c0-1.863-0.694-2.953-2.082-2.953
					c-1.011,0-1.764,0.733-2.081,1.566c-0.079,0.258-0.139,0.555-0.139,0.871v5.928h-1.704v-5.748c0-1.527-0.674-2.617-2.002-2.617
					c-1.07,0-1.884,0.873-2.161,1.744c-0.099,0.238-0.139,0.555-0.139,0.853v5.769h-1.704V17.424z"/>
				<path fill="#FFFFFF" d="M1084.283,12.133c0,0.594-0.416,1.07-1.11,1.07c-0.634,0-1.051-0.477-1.051-1.07
					c0-0.596,0.437-1.091,1.091-1.091C1083.847,11.042,1084.283,11.518,1084.283,12.133z M1082.341,24.422v-9.594h1.744v9.594
					H1082.341z"/>
				<path fill="#FFFFFF" d="M1087.948,19.941c0.04,2.359,1.526,3.33,3.29,3.33c1.249,0,2.022-0.218,2.656-0.495l0.317,1.249
					c-0.614,0.277-1.685,0.614-3.211,0.614c-2.953,0-4.718-1.962-4.718-4.856s1.705-5.153,4.5-5.153
					c3.151,0,3.964,2.735,3.964,4.499c0,0.357-0.02,0.615-0.06,0.812H1087.948z M1093.062,18.693c0.02-1.09-0.456-2.814-2.418-2.814
					c-1.784,0-2.537,1.605-2.676,2.814H1093.062z"/>
				<path fill="#FFFFFF" d="M1096.906,17.424c0-1.01-0.021-1.803-0.08-2.596h1.547l0.099,1.586h0.04
					c0.476-0.893,1.585-1.784,3.171-1.784c1.328,0,3.39,0.792,3.39,4.083v5.709h-1.744v-5.531c0-1.545-0.575-2.834-2.22-2.834
					c-1.13,0-2.022,0.812-2.339,1.784c-0.08,0.218-0.119,0.515-0.119,0.812v5.769h-1.744V17.424z"/>
				<path fill="#FFFFFF" d="M1109.926,12.529v2.299h2.498v1.328h-2.498v5.173c0,1.189,0.337,1.863,1.309,1.863
					c0.476,0,0.753-0.04,1.011-0.118l0.079,1.327c-0.337,0.119-0.872,0.238-1.546,0.238c-0.812,0-1.467-0.278-1.883-0.733
					c-0.476-0.535-0.674-1.388-0.674-2.518v-5.232h-1.487v-1.328h1.487v-1.784L1109.926,12.529z"/>
				<path fill="#FFFFFF" d="M1122.946,19.545c0,3.549-2.478,5.095-4.777,5.095c-2.576,0-4.599-1.903-4.599-4.936
					c0-3.191,2.121-5.074,4.758-5.074C1121.083,14.63,1122.946,16.632,1122.946,19.545z M1115.354,19.645
					c0,2.102,1.189,3.687,2.894,3.687c1.665,0,2.914-1.565,2.914-3.726c0-1.626-0.812-3.668-2.874-3.668
					C1116.246,15.938,1115.354,17.841,1115.354,19.645z"/>
				<path fill="#FFFFFF" d="M1035.316,46.1c0.773,0.496,1.883,0.873,3.072,0.873c1.765,0,2.795-0.932,2.795-2.279
					c0-1.229-0.714-1.963-2.518-2.637c-2.18-0.793-3.527-1.942-3.527-3.806c0-2.081,1.724-3.628,4.32-3.628
					c1.349,0,2.359,0.318,2.934,0.654l-0.476,1.408c-0.416-0.258-1.308-0.635-2.518-0.635c-1.823,0-2.517,1.09-2.517,2.002
					c0,1.248,0.812,1.863,2.656,2.576c2.259,0.873,3.389,1.963,3.389,3.926c0,2.061-1.506,3.865-4.657,3.865
					c-1.289,0-2.696-0.396-3.41-0.873L1035.316,46.1z"/>
				<path fill="#FFFFFF" d="M1054.046,43.325c0,3.548-2.478,5.095-4.777,5.095c-2.576,0-4.599-1.903-4.599-4.936
					c0-3.191,2.121-5.074,4.758-5.074C1052.183,38.41,1054.046,40.412,1054.046,43.325z M1046.454,43.424
					c0,2.102,1.189,3.688,2.894,3.688c1.665,0,2.914-1.566,2.914-3.727c0-1.625-0.812-3.667-2.874-3.667
					C1047.346,39.718,1046.454,41.621,1046.454,43.424z"/>
				<path fill="#FFFFFF" d="M1063.081,47.864c-0.456,0.218-1.467,0.556-2.755,0.556c-2.895,0-4.777-1.963-4.777-4.896
					c0-2.953,2.022-5.113,5.153-5.113c1.031,0,1.943,0.257,2.419,0.515l-0.396,1.328c-0.416-0.218-1.07-0.456-2.022-0.456
					c-2.199,0-3.389,1.646-3.389,3.627c0,2.221,1.427,3.588,3.33,3.588c0.99,0,1.645-0.238,2.141-0.455L1063.081,47.864z"/>
				<path fill="#FFFFFF" d="M1067.063,35.912c0,0.595-0.416,1.07-1.11,1.07c-0.634,0-1.051-0.476-1.051-1.07s0.437-1.09,1.091-1.09
					C1066.627,34.822,1067.063,35.297,1067.063,35.912z M1065.121,48.201v-9.594h1.744v9.594H1065.121z"/>
				<path fill="#FFFFFF" d="M1076.497,45.902c0,0.832,0.039,1.645,0.139,2.299h-1.566l-0.139-1.209h-0.06
					c-0.535,0.753-1.565,1.428-2.934,1.428c-1.942,0-2.934-1.368-2.934-2.756c0-2.318,2.062-3.588,5.769-3.568v-0.197
					c0-0.773-0.218-2.221-2.181-2.201c-0.912,0-1.843,0.258-2.518,0.715l-0.396-1.17c0.793-0.496,1.963-0.832,3.172-0.832
					c2.934,0,3.647,2.002,3.647,3.904V45.902z M1074.812,43.305c-1.902-0.039-4.062,0.298-4.062,2.161
					c0,1.149,0.753,1.665,1.625,1.665c1.269,0,2.081-0.793,2.358-1.605c0.06-0.198,0.079-0.396,0.079-0.555V43.305z"/>
				<path fill="#FFFFFF" d="M1079.31,34.128h1.744v14.073h-1.744V34.128z"/>
			</g>
		</g>
	</g>
</g>
</svg>
