<?xml version="1.0" encoding="utf-8"?>
<!-- Generator: Adobe Illustrator 16.0.0, SVG Export Plug-In . SVG Version: 6.00 Build 0)  -->
<!DOCTYPE svg PUBLIC "-//W3C//DTD SVG 1.1//EN" "http://www.w3.org/Graphics/SVG/1.1/DTD/svg11.dtd">
<svg version="1.1" id="Capa_1" xmlns="http://www.w3.org/2000/svg" xmlns:xlink="http://www.w3.org/1999/xlink" x="0px" y="0px"
	 width="181.967px" height="330.286px" viewBox="0 0 181.967 330.286" enable-background="new 0 0 181.967 330.286"
	 xml:space="preserve">
<g>
	<polygon fill="#B4C52C" points="181.967,47.521 71.44,47.876 71.325,0.356 181.852,0 	"/>
	<polygon fill="#81AD38" points="181.965,87.257 54.858,87.671 54.745,56.465 181.85,56.051 	"/>
	<g>
		<g>
			<path fill="#2B1C48" d="M90.032,8.542h1.399v9.619h4.579v1.169h-5.979V8.542z"/>
			<path fill="#2B1C48" d="M106.263,14.272h-4.149v3.889h4.643v1.169h-6.042V8.542h5.804V9.71h-4.404v3.41h4.149V14.272z"/>
			<path fill="#2B1C48" d="M114.114,19.33v-4.578l-3.403-6.21h1.59l1.51,2.977c0.397,0.816,0.731,1.473,1.065,2.226h0.032
				c0.286-0.704,0.668-1.409,1.081-2.226l1.542-2.977h1.559l-3.578,6.194v4.594H114.114z"/>
			<path fill="#2B1C48" d="M132.6,10.238h-0.032l-1.796,0.977l-0.271-1.072l2.258-1.217h1.192V19.33H132.6V10.238z"/>
			<path fill="#2B1C48" d="M145.221,19.33v-2.849h-4.802v-0.913l4.611-6.643h1.51v6.467h1.447v1.089h-1.447v2.849H145.221z
				 M145.221,15.393v-3.474c0-0.544,0.016-1.088,0.048-1.633h-0.048c-0.318,0.608-0.572,1.057-0.858,1.537l-2.528,3.537v0.032
				H145.221z"/>
			<path fill="#2B1C48" d="M156.554,19.33v-2.849h-4.802v-0.913l4.611-6.643h1.51v6.467h1.447v1.089h-1.447v2.849H156.554z
				 M156.554,15.393v-3.474c0-0.544,0.016-1.088,0.048-1.633h-0.048c-0.318,0.608-0.572,1.057-0.858,1.537l-2.528,3.537v0.032
				H156.554z"/>
			<path fill="#2B1C48" d="M165.47,13.856c-1.161-0.545-1.654-1.441-1.654-2.338c0-1.648,1.383-2.769,3.212-2.769
				c2.003,0,3.021,1.248,3.021,2.561c0,0.881-0.445,1.841-1.717,2.434v0.048c1.288,0.512,2.083,1.44,2.083,2.689
				c0,1.824-1.542,3.024-3.514,3.024c-2.163,0-3.466-1.28-3.466-2.801c0-1.312,0.779-2.257,2.051-2.802L165.47,13.856z M169,16.625
				c0-1.249-0.875-1.873-2.274-2.272c-1.208,0.352-1.86,1.168-1.86,2.16c-0.048,1.041,0.747,1.969,2.066,1.969
				C168.189,18.481,169,17.697,169,16.625z M165.152,11.423c-0.016,1.041,0.779,1.601,1.972,1.921
				c0.89-0.304,1.574-0.944,1.574-1.889c0-0.833-0.493-1.696-1.749-1.696C165.788,9.759,165.152,10.526,165.152,11.423z"/>
			<path fill="#2B1C48" d="M100.255,26.966v9.363c0,0.688,0.032,1.473,0.063,2.001h-1.24l-0.063-1.345h-0.048
				c-0.413,0.864-1.335,1.521-2.592,1.521c-1.86,0-3.307-1.585-3.307-3.938c-0.016-2.577,1.59-4.146,3.45-4.146
				c1.192,0,1.971,0.561,2.321,1.168h0.031v-4.625H100.255z M98.871,33.736c0-0.177-0.016-0.416-0.063-0.593
				c-0.207-0.88-0.97-1.616-2.019-1.616c-1.447,0-2.305,1.28-2.305,2.978c0,1.568,0.779,2.865,2.273,2.865
				c0.938,0,1.797-0.641,2.051-1.682c0.048-0.191,0.063-0.384,0.063-0.607V33.736z"/>
			<path fill="#2B1C48" d="M106.547,34.713c0.032,1.904,1.224,2.688,2.639,2.688c1.002,0,1.622-0.176,2.131-0.4l0.254,1.009
				c-0.493,0.225-1.352,0.496-2.576,0.496c-2.369,0-3.784-1.585-3.784-3.921c0-2.338,1.367-4.162,3.609-4.162
				c2.528,0,3.18,2.209,3.18,3.634c0,0.288-0.016,0.496-0.048,0.656H106.547z M110.649,33.704c0.016-0.881-0.365-2.272-1.939-2.272
				c-1.431,0-2.035,1.296-2.146,2.272H110.649z"/>
			<path fill="#2B1C48" d="M123.015,38.33v-0.864l1.097-1.072c2.64-2.529,3.848-3.874,3.848-5.442c0-1.057-0.493-2.033-2.035-2.033
				c-0.938,0-1.717,0.48-2.194,0.881l-0.445-0.993c0.7-0.592,1.733-1.056,2.91-1.056c2.226,0,3.164,1.536,3.164,3.024
				c0,1.922-1.383,3.475-3.562,5.587l-0.811,0.769v0.031h4.627v1.169H123.015z"/>
			<path fill="#2B1C48" d="M141.232,33.016c0,3.538-1.32,5.49-3.593,5.49c-2.02,0-3.402-1.904-3.435-5.346
				c0-3.506,1.511-5.41,3.609-5.41C139.976,27.75,141.232,29.702,141.232,33.016z M135.619,33.176c0,2.705,0.827,4.242,2.099,4.242
				c1.415,0,2.099-1.681,2.099-4.338c0-2.562-0.636-4.242-2.099-4.242C136.51,28.838,135.619,30.343,135.619,33.176z"/>
			<path fill="#2B1C48" d="M148.717,29.238h-0.032l-1.797,0.977l-0.271-1.072l2.258-1.217h1.192V38.33h-1.351V29.238z"/>
			<path fill="#2B1C48" d="M160.05,29.238h-0.032l-1.797,0.977l-0.271-1.072l2.258-1.217h1.192V38.33h-1.351V29.238z"/>
		</g>
	</g>
	
		<rect x="33.646" y="210.592" transform="matrix(1 -0.0024 0.0024 1 -0.5616 0.2591)" fill="#81AD38" width="148.264" height="47.52"/>
	<g>
		<g>
			<path fill="#2B1C48" d="M56.334,219.099c0.699-0.128,1.717-0.224,2.655-0.224c1.479,0,2.448,0.288,3.1,0.88
				c0.525,0.48,0.843,1.217,0.843,2.065c0,1.408-0.89,2.353-2.003,2.737v0.047c0.811,0.289,1.304,1.057,1.558,2.178
				c0.35,1.504,0.604,2.545,0.827,2.961h-1.431c-0.175-0.32-0.414-1.232-0.7-2.577c-0.318-1.488-0.906-2.049-2.163-2.097h-1.304
				v4.674h-1.383V219.099z M57.717,224.013h1.415c1.479,0,2.417-0.816,2.417-2.049c0-1.393-1.002-2.001-2.464-2.001
				c-0.668,0-1.129,0.048-1.368,0.112V224.013z"/>
			<path fill="#2B1C48" d="M73.598,224.685h-4.15v3.891h4.643v1.168h-6.042v-10.788h5.803v1.168h-4.404v3.409h4.15V224.685z"/>
			<path fill="#2B1C48" d="M79.063,219.083c0.668-0.112,1.542-0.208,2.655-0.208c1.367,0,2.369,0.319,3.005,0.896
				c0.573,0.512,0.938,1.296,0.938,2.257c0,0.977-0.286,1.744-0.827,2.305c-0.747,0.784-1.924,1.185-3.275,1.185
				c-0.413,0-0.795-0.017-1.113-0.097v4.322h-1.383V219.083z M80.447,224.285c0.302,0.08,0.684,0.112,1.145,0.112
				c1.669,0,2.687-0.833,2.687-2.289c0-1.441-1.018-2.129-2.528-2.129c-0.604,0-1.065,0.048-1.304,0.111V224.285z"/>
			<path fill="#2B1C48" d="M92.432,226.35l-1.113,3.394h-1.431l3.657-10.788h1.653l3.657,10.788h-1.479l-1.145-3.394H92.432z
				 M95.962,225.261l-1.065-3.104c-0.238-0.704-0.397-1.345-0.557-1.969h-0.032c-0.159,0.624-0.318,1.296-0.541,1.952l-1.05,3.121
				H95.962z"/>
			<path fill="#2B1C48" d="M103.606,219.099c0.7-0.128,1.717-0.224,2.655-0.224c1.479,0,2.449,0.288,3.101,0.88
				c0.525,0.48,0.843,1.217,0.843,2.065c0,1.408-0.891,2.353-2.003,2.737v0.047c0.811,0.289,1.304,1.057,1.558,2.178
				c0.35,1.504,0.604,2.545,0.827,2.961h-1.431c-0.175-0.32-0.414-1.232-0.7-2.577c-0.318-1.488-0.906-2.049-2.162-2.097h-1.304
				v4.674h-1.383V219.099z M104.989,224.013h1.415c1.479,0,2.417-0.816,2.417-2.049c0-1.393-1.001-2.001-2.464-2.001
				c-0.668,0-1.129,0.048-1.367,0.112V224.013z"/>
			<path fill="#2B1C48" d="M117.069,226.35l-1.113,3.394h-1.431l3.657-10.788h1.653l3.657,10.788h-1.479l-1.145-3.394H117.069z
				 M120.599,225.261l-1.065-3.104c-0.238-0.704-0.397-1.345-0.556-1.969h-0.032c-0.159,0.624-0.318,1.296-0.54,1.952l-1.05,3.121
				H120.599z"/>
			<path fill="#2B1C48" d="M135.716,229.407c-0.493,0.256-1.526,0.512-2.83,0.512c-3.021,0-5.278-1.92-5.278-5.474
				c0-3.394,2.273-5.667,5.597-5.667c1.319,0,2.178,0.289,2.544,0.48l-0.35,1.137c-0.509-0.256-1.256-0.448-2.146-0.448
				c-2.513,0-4.182,1.616-4.182,4.45c0,2.656,1.51,4.338,4.102,4.338c0.859,0,1.718-0.177,2.274-0.449L135.716,229.407z"/>
			<path fill="#2B1C48" d="M142.024,218.955v10.788h-1.399v-10.788H142.024z"/>
			<path fill="#2B1C48" d="M156.777,224.237c0,3.697-2.242,5.682-4.977,5.682c-2.846,0-4.817-2.225-4.817-5.49
				c0-3.425,2.099-5.666,4.96-5.666C154.886,218.763,156.777,221.02,156.777,224.237z M148.446,224.397
				c0,2.32,1.24,4.385,3.434,4.385s3.434-2.032,3.434-4.481c0-2.161-1.113-4.401-3.418-4.401
				C149.591,219.899,148.446,222.044,148.446,224.397z M154.202,216.474l-2.035,1.873h-1.129l1.479-1.873H154.202z"/>
			<path fill="#2B1C48" d="M161.75,229.743v-10.788h1.526l3.418,5.458c0.779,1.265,1.416,2.4,1.908,3.506l0.048-0.017
				c-0.127-1.44-0.159-2.753-0.159-4.434v-4.514h1.304v10.788h-1.399l-3.403-5.475c-0.747-1.2-1.462-2.433-1.987-3.602l-0.048,0.017
				c0.08,1.36,0.096,2.657,0.096,4.45v4.609H161.75z"/>
			<path fill="#2B1C48" d="M79.241,248.407c-0.493,0.256-1.526,0.512-2.83,0.512c-3.021,0-5.279-1.92-5.279-5.474
				c0-3.394,2.273-5.667,5.597-5.667c1.32,0,2.178,0.289,2.544,0.48l-0.35,1.137c-0.509-0.256-1.256-0.448-2.146-0.448
				c-2.512,0-4.182,1.616-4.182,4.45c0,2.656,1.511,4.338,4.103,4.338c0.858,0,1.717-0.177,2.273-0.449L79.241,248.407z"/>
			<path fill="#2B1C48" d="M93.324,243.237c0,3.697-2.242,5.682-4.977,5.682c-2.846,0-4.817-2.225-4.817-5.49
				c0-3.425,2.099-5.666,4.961-5.666C91.433,237.763,93.324,240.02,93.324,243.237z M84.993,243.397c0,2.32,1.24,4.385,3.434,4.385
				c2.194,0,3.435-2.032,3.435-4.481c0-2.161-1.113-4.401-3.418-4.401S84.993,241.044,84.993,243.397z"/>
			<path fill="#2B1C48" d="M98.281,237.955h1.399v9.62h4.579v1.168h-5.978V237.955z"/>
			<path fill="#2B1C48" d="M114.512,243.685h-4.15v3.891h4.643v1.168h-6.042v-10.788h5.803v1.168h-4.404v3.409h4.15V243.685z"/>
			<path fill="#2B1C48" d="M127.45,248.407c-0.493,0.256-1.526,0.512-2.83,0.512c-3.021,0-5.278-1.92-5.278-5.474
				c0-3.394,2.273-5.667,5.597-5.667c1.319,0,2.178,0.289,2.544,0.48l-0.35,1.137c-0.509-0.256-1.256-0.448-2.146-0.448
				c-2.513,0-4.182,1.616-4.182,4.45c0,2.656,1.51,4.338,4.102,4.338c0.859,0,1.718-0.177,2.274-0.449L127.45,248.407z"/>
			<path fill="#2B1C48" d="M134.411,239.14h-3.259v-1.185h7.934v1.185h-3.275v9.604h-1.399V239.14z"/>
			<path fill="#2B1C48" d="M144.838,237.955v10.788h-1.399v-10.788H144.838z"/>
			<path fill="#2B1C48" d="M152.786,248.743l-3.514-10.788h1.511l1.669,5.313c0.445,1.457,0.843,2.77,1.145,4.034h0.032
				c0.302-1.249,0.731-2.609,1.224-4.018l1.812-5.33h1.479l-3.832,10.788H152.786z"/>
			<path fill="#2B1C48" d="M164.214,245.35l-1.113,3.394h-1.431l3.657-10.788h1.653l3.657,10.788h-1.479l-1.145-3.394H164.214z
				 M167.744,244.261l-1.065-3.104c-0.238-0.704-0.397-1.345-0.557-1.969h-0.032c-0.159,0.624-0.318,1.296-0.541,1.952l-1.05,3.121
				H167.744z"/>
		</g>
	</g>
	<polygon fill="#81AD38" points="181.967,199.438 33.704,199.793 33.588,138.502 181.852,138.146 	"/>
	<g>
		<g>
			<path fill="#2B1C48" d="M67.718,152.737c-0.079-1.504-0.175-3.329-0.175-4.657h-0.032c-0.381,1.248-0.811,2.608-1.352,4.098
				l-1.892,5.233h-1.049l-1.749-5.138c-0.509-1.536-0.922-2.913-1.224-4.193h-0.032c-0.032,1.345-0.111,3.137-0.207,4.77
				l-0.287,4.626H58.4l0.748-10.788h1.765l1.828,5.218c0.445,1.328,0.795,2.514,1.081,3.634h0.032
				c0.286-1.089,0.667-2.273,1.145-3.634l1.908-5.218h1.765l0.668,10.788h-1.368L67.718,152.737z"/>
			<path fill="#2B1C48" d="M80.179,152.417h-4.15v3.891h4.643v1.168h-6.042v-10.788h5.803v1.168h-4.404v3.409h4.15V152.417z"/>
			<path fill="#2B1C48" d="M85.645,146.847c0.843-0.144,1.845-0.239,2.941-0.239c1.987,0,3.402,0.479,4.341,1.345
				c0.97,0.88,1.526,2.129,1.526,3.873c0,1.761-0.557,3.201-1.542,4.193c-1.018,1.009-2.671,1.553-4.754,1.553
				c-1.001,0-1.812-0.048-2.512-0.128V146.847z M87.028,156.388c0.35,0.047,0.859,0.063,1.399,0.063
				c2.974,0,4.563-1.665,4.563-4.578c0.016-2.545-1.415-4.161-4.341-4.161c-0.715,0-1.256,0.063-1.622,0.144V156.388z"/>
			<path fill="#2B1C48" d="M100.793,146.688v10.788h-1.399v-10.788H100.793z"/>
			<path fill="#2B1C48" d="M106.388,146.847c0.843-0.144,1.845-0.239,2.941-0.239c1.987,0,3.402,0.479,4.341,1.345
				c0.97,0.88,1.526,2.129,1.526,3.873c0,1.761-0.557,3.201-1.542,4.193c-1.018,1.009-2.671,1.553-4.754,1.553
				c-1.001,0-1.812-0.048-2.512-0.128V146.847z M107.771,156.388c0.35,0.047,0.859,0.063,1.399,0.063
				c2.974,0,4.563-1.665,4.563-4.578c0.016-2.545-1.415-4.161-4.341-4.161c-0.715,0-1.256,0.063-1.622,0.144V156.388z"/>
			<path fill="#2B1C48" d="M121.886,154.082l-1.113,3.394h-1.431l3.657-10.788h1.653l3.657,10.788h-1.479l-1.145-3.394H121.886z
				 M125.416,152.993l-1.065-3.104c-0.238-0.704-0.397-1.345-0.556-1.969h-0.032c-0.159,0.624-0.318,1.296-0.54,1.952l-1.05,3.121
				H125.416z"/>
			<path fill="#2B1C48" d="M132.885,155.778c0.62,0.4,1.511,0.705,2.464,0.705c1.416,0,2.242-0.752,2.242-1.841
				c0-0.992-0.572-1.585-2.019-2.129c-1.749-0.641-2.83-1.569-2.83-3.073c0-1.681,1.383-2.93,3.466-2.93
				c1.081,0,1.892,0.257,2.353,0.528l-0.381,1.137c-0.334-0.208-1.05-0.513-2.02-0.513c-1.463,0-2.02,0.881-2.02,1.617
				c0,1.008,0.652,1.505,2.131,2.081c1.812,0.704,2.719,1.585,2.719,3.169c0,1.665-1.208,3.121-3.736,3.121
				c-1.033,0-2.162-0.32-2.735-0.704L132.885,155.778z"/>
			<path fill="#2B1C48" d="M150.624,146.847c0.843-0.144,1.844-0.239,2.942-0.239c1.987,0,3.402,0.479,4.34,1.345
				c0.97,0.88,1.526,2.129,1.526,3.873c0,1.761-0.557,3.201-1.542,4.193c-1.018,1.009-2.671,1.553-4.754,1.553
				c-1.002,0-1.812-0.048-2.512-0.128V146.847z M152.007,156.388c0.35,0.047,0.858,0.063,1.399,0.063
				c2.973,0,4.563-1.665,4.563-4.578c0.016-2.545-1.415-4.161-4.34-4.161c-0.716,0-1.256,0.063-1.622,0.144V156.388z"/>
			<path fill="#2B1C48" d="M169.922,152.417h-4.15v3.891h4.643v1.168h-6.042v-10.788h5.803v1.168h-4.404v3.409h4.15V152.417z"/>
			<path fill="#2B1C48" d="M56.334,165.831c0.699-0.128,1.717-0.224,2.655-0.224c1.479,0,2.448,0.288,3.1,0.88
				c0.525,0.48,0.843,1.217,0.843,2.065c0,1.408-0.89,2.353-2.003,2.737v0.047c0.811,0.289,1.304,1.057,1.558,2.178
				c0.35,1.504,0.604,2.545,0.827,2.961h-1.431c-0.175-0.32-0.414-1.232-0.7-2.577c-0.318-1.488-0.906-2.049-2.163-2.097h-1.304
				v4.674h-1.383V165.831z M57.717,170.745h1.415c1.479,0,2.417-0.816,2.417-2.049c0-1.393-1.002-2.001-2.464-2.001
				c-0.668,0-1.129,0.048-1.368,0.112V170.745z"/>
			<path fill="#2B1C48" d="M73.598,171.417h-4.15v3.891h4.643v1.168h-6.042v-10.788h5.803v1.168h-4.404v3.409h4.15V171.417z"/>
			<path fill="#2B1C48" d="M79.063,165.815c0.668-0.112,1.542-0.208,2.655-0.208c1.367,0,2.369,0.319,3.005,0.896
				c0.573,0.512,0.938,1.296,0.938,2.257c0,0.977-0.286,1.744-0.827,2.305c-0.747,0.784-1.924,1.185-3.275,1.185
				c-0.413,0-0.795-0.017-1.113-0.097v4.322h-1.383V165.815z M80.447,171.018c0.302,0.08,0.684,0.112,1.145,0.112
				c1.669,0,2.687-0.833,2.687-2.289c0-1.441-1.018-2.129-2.528-2.129c-0.604,0-1.065,0.048-1.304,0.111V171.018z"/>
			<path fill="#2B1C48" d="M92.432,173.082l-1.113,3.394h-1.431l3.657-10.788h1.653l3.657,10.788h-1.479l-1.145-3.394H92.432z
				 M95.962,171.993l-1.065-3.104c-0.238-0.704-0.397-1.345-0.557-1.969h-0.032c-0.159,0.624-0.318,1.296-0.541,1.952l-1.05,3.121
				H95.962z"/>
			<path fill="#2B1C48" d="M103.606,165.831c0.7-0.128,1.717-0.224,2.655-0.224c1.479,0,2.449,0.288,3.101,0.88
				c0.525,0.48,0.843,1.217,0.843,2.065c0,1.408-0.891,2.353-2.003,2.737v0.047c0.811,0.289,1.304,1.057,1.558,2.178
				c0.35,1.504,0.604,2.545,0.827,2.961h-1.431c-0.175-0.32-0.414-1.232-0.7-2.577c-0.318-1.488-0.906-2.049-2.162-2.097h-1.304
				v4.674h-1.383V165.831z M104.989,170.745h1.415c1.479,0,2.417-0.816,2.417-2.049c0-1.393-1.001-2.001-2.464-2.001
				c-0.668,0-1.129,0.048-1.367,0.112V170.745z"/>
			<path fill="#2B1C48" d="M117.069,173.082l-1.113,3.394h-1.431l3.657-10.788h1.653l3.657,10.788h-1.479l-1.145-3.394H117.069z
				 M120.599,171.993l-1.065-3.104c-0.238-0.704-0.397-1.345-0.556-1.969h-0.032c-0.159,0.624-0.318,1.296-0.54,1.952l-1.05,3.121
				H120.599z"/>
			<path fill="#2B1C48" d="M135.716,176.14c-0.493,0.256-1.526,0.512-2.83,0.512c-3.021,0-5.278-1.92-5.278-5.474
				c0-3.394,2.273-5.667,5.597-5.667c1.319,0,2.178,0.289,2.544,0.48l-0.35,1.137c-0.509-0.256-1.256-0.448-2.146-0.448
				c-2.513,0-4.182,1.616-4.182,4.45c0,2.656,1.51,4.338,4.102,4.338c0.859,0,1.718-0.177,2.274-0.449L135.716,176.14z"/>
			<path fill="#2B1C48" d="M142.024,165.688v10.788h-1.399v-10.788H142.024z"/>
			<path fill="#2B1C48" d="M156.777,170.97c0,3.697-2.242,5.682-4.977,5.682c-2.846,0-4.817-2.225-4.817-5.49
				c0-3.425,2.099-5.666,4.96-5.666C154.886,165.495,156.777,167.752,156.777,170.97z M148.446,171.13
				c0,2.32,1.24,4.385,3.434,4.385s3.434-2.032,3.434-4.481c0-2.161-1.113-4.401-3.418-4.401
				C149.591,166.632,148.446,168.776,148.446,171.13z M154.202,163.206l-2.035,1.873h-1.129l1.479-1.873H154.202z"/>
			<path fill="#2B1C48" d="M161.75,176.476v-10.788h1.526l3.418,5.458c0.779,1.265,1.416,2.4,1.908,3.506l0.048-0.017
				c-0.127-1.44-0.159-2.753-0.159-4.434v-4.514h1.304v10.788h-1.399l-3.403-5.475c-0.747-1.2-1.462-2.433-1.987-3.602l-0.048,0.017
				c0.08,1.36,0.096,2.657,0.096,4.45v4.609H161.75z"/>
			<path fill="#2B1C48" d="M85.311,184.688v10.788h-1.399v-10.788H85.311z"/>
			<path fill="#2B1C48" d="M90.906,195.476v-10.788h1.526l3.418,5.458c0.779,1.265,1.415,2.4,1.908,3.506l0.048-0.017
				c-0.127-1.44-0.159-2.753-0.159-4.434v-4.514h1.304v10.788h-1.399l-3.402-5.475c-0.747-1.2-1.463-2.433-1.987-3.602l-0.048,0.017
				c0.08,1.36,0.096,2.657,0.096,4.45v4.609H90.906z"/>
			<path fill="#2B1C48" d="M106.579,185.872h-3.26v-1.185h7.934v1.185h-3.275v9.604h-1.399V185.872z"/>
			<path fill="#2B1C48" d="M121.156,190.417h-4.15v3.891h4.643v1.168h-6.042v-10.788h5.804v1.168h-4.404v3.409h4.15V190.417z"/>
			<path fill="#2B1C48" d="M134.794,194.995c-0.62,0.24-1.86,0.593-3.307,0.593c-1.622,0-2.958-0.417-4.007-1.425
				c-0.922-0.896-1.495-2.337-1.495-4.018c0-3.217,2.21-5.57,5.803-5.57c1.24,0,2.227,0.271,2.688,0.496l-0.35,1.137
				c-0.572-0.272-1.288-0.465-2.369-0.465c-2.608,0-4.309,1.633-4.309,4.338c0,2.737,1.622,4.354,4.134,4.354
				c0.907,0,1.526-0.127,1.844-0.287v-3.218h-2.162v-1.12h3.53V194.995z"/>
			<path fill="#2B1C48" d="M140.069,184.831c0.699-0.128,1.717-0.224,2.655-0.224c1.479,0,2.448,0.288,3.101,0.88
				c0.524,0.48,0.842,1.217,0.842,2.065c0,1.408-0.89,2.353-2.003,2.737v0.047c0.811,0.289,1.304,1.057,1.559,2.178
				c0.35,1.504,0.604,2.545,0.826,2.961h-1.431c-0.175-0.32-0.413-1.232-0.699-2.577c-0.318-1.488-0.907-2.049-2.163-2.097h-1.304
				v4.674h-1.383V184.831z M141.452,189.745h1.416c1.479,0,2.417-0.816,2.417-2.049c0-1.393-1.001-2.001-2.464-2.001
				c-0.667,0-1.129,0.048-1.368,0.112V189.745z"/>
			<path fill="#2B1C48" d="M153.533,192.082l-1.113,3.394h-1.431l3.657-10.788h1.654l3.657,10.788h-1.479l-1.145-3.394H153.533z
				 M157.062,190.993l-1.065-3.104c-0.238-0.704-0.397-1.345-0.557-1.969h-0.031c-0.159,0.624-0.318,1.296-0.541,1.952l-1.049,3.121
				H157.062z"/>
			<path fill="#2B1C48" d="M164.69,184.688h1.399v9.62h4.579v1.168h-5.979V184.688z"/>
		</g>
	</g>
	<polygon fill="#81AD38" points="181.967,329.931 0.114,330.286 0,268.995 181.852,268.639 	"/>
	<g>
		<g>
			<path fill="#2B1C48" d="M56.333,276.324c0.699-0.128,1.717-0.224,2.655-0.224c1.479,0,2.448,0.288,3.1,0.88
				c0.525,0.48,0.843,1.217,0.843,2.065c0,1.408-0.89,2.353-2.003,2.736v0.049c0.811,0.288,1.304,1.057,1.558,2.177
				c0.35,1.505,0.604,2.545,0.827,2.961h-1.431c-0.175-0.32-0.414-1.232-0.7-2.577c-0.318-1.488-0.906-2.049-2.163-2.097h-1.304
				v4.674h-1.383V276.324z M57.716,281.238h1.415c1.479,0,2.417-0.816,2.417-2.049c0-1.393-1.002-2.001-2.464-2.001
				c-0.668,0-1.129,0.049-1.368,0.112V281.238z"/>
			<path fill="#2B1C48" d="M73.597,281.911h-4.15v3.889h4.643v1.169h-6.042v-10.788h5.803v1.168h-4.404v3.41h4.15V281.911z"/>
			<path fill="#2B1C48" d="M79.062,276.309c0.668-0.112,1.542-0.208,2.655-0.208c1.367,0,2.369,0.32,3.005,0.896
				c0.573,0.512,0.938,1.296,0.938,2.257c0,0.976-0.286,1.744-0.827,2.305c-0.747,0.784-1.924,1.185-3.275,1.185
				c-0.413,0-0.795-0.016-1.113-0.096v4.321h-1.383V276.309z M80.446,281.511c0.302,0.08,0.684,0.111,1.145,0.111
				c1.669,0,2.687-0.832,2.687-2.288c0-1.44-1.018-2.129-2.528-2.129c-0.604,0-1.065,0.048-1.304,0.112V281.511z"/>
			<path fill="#2B1C48" d="M92.431,283.575l-1.113,3.394h-1.431l3.657-10.788h1.653l3.657,10.788h-1.479l-1.145-3.394H92.431z
				 M95.961,282.487l-1.065-3.105c-0.238-0.704-0.397-1.345-0.557-1.969h-0.032c-0.159,0.624-0.318,1.297-0.541,1.953l-1.05,3.121
				H95.961z"/>
			<path fill="#2B1C48" d="M103.605,276.324c0.7-0.128,1.717-0.224,2.655-0.224c1.479,0,2.449,0.288,3.101,0.88
				c0.525,0.48,0.843,1.217,0.843,2.065c0,1.408-0.891,2.353-2.003,2.736v0.049c0.811,0.288,1.304,1.057,1.558,2.177
				c0.35,1.505,0.604,2.545,0.827,2.961h-1.431c-0.175-0.32-0.414-1.232-0.7-2.577c-0.318-1.488-0.906-2.049-2.162-2.097h-1.304
				v4.674h-1.383V276.324z M104.988,281.238h1.415c1.479,0,2.417-0.816,2.417-2.049c0-1.393-1.001-2.001-2.464-2.001
				c-0.668,0-1.129,0.049-1.367,0.112V281.238z"/>
			<path fill="#2B1C48" d="M117.068,283.575l-1.113,3.394h-1.431l3.657-10.788h1.653l3.657,10.788h-1.479l-1.145-3.394H117.068z
				 M120.598,282.487l-1.065-3.105c-0.238-0.704-0.397-1.345-0.556-1.969h-0.032c-0.159,0.624-0.318,1.297-0.54,1.953l-1.05,3.121
				H120.598z"/>
			<path fill="#2B1C48" d="M135.715,286.633c-0.493,0.256-1.526,0.512-2.83,0.512c-3.021,0-5.278-1.921-5.278-5.474
				c0-3.394,2.273-5.666,5.597-5.666c1.319,0,2.178,0.287,2.544,0.479l-0.35,1.137c-0.509-0.257-1.256-0.448-2.146-0.448
				c-2.513,0-4.182,1.617-4.182,4.449c0,2.658,1.51,4.338,4.102,4.338c0.859,0,1.718-0.176,2.274-0.447L135.715,286.633z"/>
			<path fill="#2B1C48" d="M142.023,276.181v10.788h-1.399v-10.788H142.023z"/>
			<path fill="#2B1C48" d="M156.776,281.462c0,3.698-2.242,5.683-4.977,5.683c-2.846,0-4.817-2.225-4.817-5.49
				c0-3.425,2.099-5.666,4.96-5.666C154.885,275.988,156.776,278.245,156.776,281.462z M148.445,281.622
				c0,2.321,1.24,4.387,3.434,4.387s3.434-2.033,3.434-4.482c0-2.16-1.113-4.401-3.418-4.401
				C149.59,277.125,148.445,279.27,148.445,281.622z M154.201,273.699l-2.035,1.873h-1.129l1.479-1.873H154.201z"/>
			<path fill="#2B1C48" d="M161.749,286.969v-10.788h1.526l3.418,5.458c0.779,1.265,1.416,2.401,1.908,3.505l0.048-0.016
				c-0.127-1.44-0.159-2.753-0.159-4.434v-4.514h1.304v10.788h-1.399l-3.403-5.474c-0.747-1.201-1.462-2.434-1.987-3.602
				l-0.048,0.016c0.08,1.36,0.096,2.657,0.096,4.449v4.61H161.749z"/>
			<path fill="#2B1C48" d="M23.512,305.633c-0.493,0.256-1.526,0.512-2.83,0.512c-3.021,0-5.279-1.921-5.279-5.474
				c0-3.394,2.274-5.666,5.597-5.666c1.32,0,2.178,0.287,2.544,0.479l-0.35,1.137c-0.509-0.257-1.256-0.448-2.146-0.448
				c-2.512,0-4.182,1.617-4.182,4.449c0,2.658,1.51,4.338,4.102,4.338c0.858,0,1.717-0.176,2.273-0.447L23.512,305.633z"/>
			<path fill="#2B1C48" d="M37.595,300.462c0,3.698-2.242,5.683-4.977,5.683c-2.846,0-4.818-2.225-4.818-5.49
				c0-3.425,2.099-5.666,4.961-5.666C35.703,294.988,37.595,297.245,37.595,300.462z M29.264,300.622
				c0,2.321,1.24,4.387,3.435,4.387s3.434-2.033,3.434-4.482c0-2.16-1.113-4.401-3.418-4.401
				C30.409,296.125,29.264,298.27,29.264,300.622z"/>
			<path fill="#2B1C48" d="M42.552,295.181h1.399v9.619h4.579v1.169h-5.979V295.181z"/>
			<path fill="#2B1C48" d="M58.782,300.911h-4.15v3.889h4.643v1.169h-6.042v-10.788h5.803v1.168h-4.404v3.41h4.15V300.911z"/>
			<path fill="#2B1C48" d="M71.721,305.633c-0.493,0.256-1.526,0.512-2.83,0.512c-3.021,0-5.279-1.921-5.279-5.474
				c0-3.394,2.274-5.666,5.597-5.666c1.32,0,2.178,0.287,2.544,0.479l-0.35,1.137c-0.509-0.257-1.256-0.448-2.146-0.448
				c-2.512,0-4.182,1.617-4.182,4.449c0,2.658,1.511,4.338,4.102,4.338c0.859,0,1.717-0.176,2.274-0.447L71.721,305.633z"/>
			<path fill="#2B1C48" d="M78.682,296.364h-3.26v-1.184h7.934v1.184h-3.275v9.604h-1.399V296.364z"/>
			<path fill="#2B1C48" d="M89.108,295.181v10.788h-1.399v-10.788H89.108z"/>
			<path fill="#2B1C48" d="M97.057,305.969l-3.514-10.788h1.51l1.67,5.314c0.445,1.456,0.843,2.769,1.145,4.033h0.032
				c0.302-1.248,0.731-2.609,1.224-4.018l1.813-5.33h1.479l-3.832,10.788H97.057z"/>
			<path fill="#2B1C48" d="M108.485,302.575l-1.113,3.394h-1.431l3.657-10.788h1.654l3.657,10.788h-1.479l-1.145-3.394H108.485z
				 M112.015,301.487l-1.065-3.105c-0.238-0.704-0.397-1.345-0.557-1.969h-0.031c-0.159,0.624-0.318,1.297-0.541,1.953l-1.049,3.121
				H112.015z"/>
			<path fill="#2B1C48" d="M126.208,295.309c0.667-0.112,1.542-0.208,2.655-0.208c1.368,0,2.369,0.32,3.005,0.896
				c0.572,0.512,0.938,1.296,0.938,2.257c0,0.976-0.286,1.744-0.827,2.305c-0.748,0.784-1.924,1.185-3.275,1.185
				c-0.414,0-0.795-0.016-1.113-0.096v4.321h-1.383V295.309z M127.591,300.511c0.302,0.08,0.684,0.111,1.145,0.111
				c1.669,0,2.687-0.832,2.687-2.288c0-1.44-1.018-2.129-2.528-2.129c-0.604,0-1.065,0.048-1.304,0.112V300.511z"/>
			<path fill="#2B1C48" d="M139.576,302.575l-1.113,3.394h-1.431l3.657-10.788h1.654l3.657,10.788h-1.479l-1.145-3.394H139.576z
				 M143.105,301.487l-1.065-3.105c-0.238-0.704-0.397-1.345-0.557-1.969h-0.031c-0.159,0.624-0.318,1.297-0.541,1.953l-1.049,3.121
				H143.105z"/>
			<path fill="#2B1C48" d="M150.75,295.324c0.7-0.128,1.717-0.224,2.655-0.224c1.479,0,2.449,0.288,3.101,0.88
				c0.525,0.48,0.843,1.217,0.843,2.065c0,1.408-0.891,2.353-2.003,2.736v0.049c0.811,0.288,1.304,1.057,1.558,2.177
				c0.35,1.505,0.604,2.545,0.827,2.961h-1.431c-0.175-0.32-0.414-1.232-0.7-2.577c-0.318-1.488-0.906-2.049-2.162-2.097h-1.304
				v4.674h-1.383V295.324z M152.133,300.238h1.415c1.479,0,2.417-0.816,2.417-2.049c0-1.393-1.001-2.001-2.464-2.001
				c-0.668,0-1.129,0.049-1.367,0.112V300.238z"/>
			<path fill="#2B1C48" d="M164.213,302.575l-1.113,3.394h-1.431l3.657-10.788h1.653l3.657,10.788h-1.479l-1.145-3.394H164.213z
				 M167.743,301.487l-1.065-3.105c-0.238-0.704-0.397-1.345-0.557-1.969h-0.032c-0.159,0.624-0.318,1.297-0.541,1.953l-1.05,3.121
				H167.743z"/>
			<path fill="#2B1C48" d="M7.663,323.272c0.62,0.399,1.51,0.704,2.464,0.704c1.415,0,2.242-0.753,2.242-1.841
				c0-0.992-0.572-1.585-2.019-2.129c-1.749-0.641-2.83-1.568-2.83-3.073c0-1.681,1.383-2.929,3.466-2.929
				c1.081,0,1.892,0.256,2.354,0.527l-0.382,1.137c-0.334-0.208-1.049-0.512-2.019-0.512c-1.463,0-2.02,0.88-2.02,1.616
				c0,1.009,0.652,1.505,2.13,2.081c1.813,0.704,2.719,1.584,2.719,3.169c0,1.665-1.208,3.121-3.737,3.121
				c-1.033,0-2.162-0.319-2.734-0.704L7.663,323.272z"/>
			<path fill="#2B1C48" d="M20.236,314.181v6.402c0,2.4,1.065,3.426,2.497,3.426c1.574,0,2.607-1.057,2.607-3.426v-6.402h1.399
				v6.307c0,3.312-1.733,4.657-4.054,4.657c-2.194,0-3.848-1.248-3.848-4.609v-6.354H20.236z"/>
			<path fill="#2B1C48" d="M34.494,314.181h1.399v7.219c0,2.865-1.399,3.745-3.244,3.745c-0.524,0-1.145-0.112-1.479-0.256
				l0.191-1.137c0.286,0.112,0.7,0.208,1.176,0.208c1.24,0,1.956-0.56,1.956-2.673V314.181z"/>
			<path fill="#2B1C48" d="M46.909,319.911h-4.15v3.889h4.643v1.169H41.36v-10.788h5.803v1.168h-4.404v3.41h4.15V319.911z"/>
			<path fill="#2B1C48" d="M54.41,315.364h-3.259v-1.184h7.934v1.184H55.81v9.604H54.41V315.364z"/>
			<path fill="#2B1C48" d="M72.612,319.462c0,3.698-2.242,5.683-4.977,5.683c-2.846,0-4.817-2.225-4.817-5.49
				c0-3.425,2.099-5.666,4.96-5.666C70.72,313.988,72.612,316.245,72.612,319.462z M64.281,319.622c0,2.321,1.24,4.387,3.435,4.387
				c2.194,0,3.434-2.033,3.434-4.482c0-2.16-1.113-4.401-3.418-4.401C65.426,315.125,64.281,317.27,64.281,319.622z"/>
			<path fill="#2B1C48" d="M77.41,323.272c0.62,0.399,1.51,0.704,2.464,0.704c1.415,0,2.242-0.753,2.242-1.841
				c0-0.992-0.572-1.585-2.02-2.129c-1.749-0.641-2.83-1.568-2.83-3.073c0-1.681,1.384-2.929,3.466-2.929
				c1.082,0,1.892,0.256,2.353,0.527l-0.381,1.137c-0.334-0.208-1.049-0.512-2.019-0.512c-1.463,0-2.02,0.88-2.02,1.616
				c0,1.009,0.652,1.505,2.131,2.081c1.812,0.704,2.719,1.584,2.719,3.169c0,1.665-1.208,3.121-3.736,3.121
				c-1.034,0-2.163-0.319-2.735-0.704L77.41,323.272z"/>
			<path fill="#2B1C48" d="M100.682,319.911h-4.149v3.889h4.643v1.169h-6.042v-10.788h5.804v1.168h-4.404v3.41h4.149V319.911z
				 M100.428,311.731l-2.035,1.873h-1.129l1.479-1.873H100.428z"/>
			<path fill="#2B1C48" d="M108.183,315.364h-3.259v-1.184h7.934v1.184h-3.275v9.604h-1.399V315.364z"/>
			<path fill="#2B1C48" d="M117.227,324.969v-10.788h1.526l3.418,5.458c0.779,1.265,1.415,2.401,1.908,3.505l0.048-0.016
				c-0.127-1.44-0.159-2.753-0.159-4.434v-4.514h1.304v10.788h-1.399l-3.402-5.474c-0.748-1.201-1.463-2.434-1.988-3.602
				l-0.047,0.016c0.079,1.36,0.095,2.657,0.095,4.449v4.61H117.227z"/>
			<path fill="#2B1C48" d="M132.248,314.181v10.788h-1.399v-10.788H132.248z"/>
			<path fill="#2B1C48" d="M145.315,324.633c-0.493,0.256-1.526,0.512-2.83,0.512c-3.021,0-5.278-1.921-5.278-5.474
				c0-3.394,2.273-5.666,5.597-5.666c1.319,0,2.178,0.287,2.544,0.479l-0.35,1.137c-0.509-0.257-1.256-0.448-2.146-0.448
				c-2.513,0-4.182,1.617-4.182,4.449c0,2.658,1.51,4.338,4.102,4.338c0.859,0,1.718-0.176,2.274-0.447L145.315,324.633z"/>
			<path fill="#2B1C48" d="M159.399,319.462c0,3.698-2.242,5.683-4.977,5.683c-2.846,0-4.817-2.225-4.817-5.49
				c0-3.425,2.099-5.666,4.96-5.666C157.507,313.988,159.399,316.245,159.399,319.462z M151.067,319.622
				c0,2.321,1.24,4.387,3.435,4.387s3.435-2.033,3.435-4.482c0-2.16-1.113-4.401-3.419-4.401
				C152.212,315.125,151.067,317.27,151.067,319.622z"/>
			<path fill="#2B1C48" d="M164.197,323.272c0.62,0.399,1.51,0.704,2.464,0.704c1.415,0,2.242-0.753,2.242-1.841
				c0-0.992-0.572-1.585-2.02-2.129c-1.749-0.641-2.83-1.568-2.83-3.073c0-1.681,1.383-2.929,3.466-2.929
				c1.082,0,1.893,0.256,2.354,0.527l-0.382,1.137c-0.334-0.208-1.049-0.512-2.019-0.512c-1.463,0-2.019,0.88-2.019,1.616
				c0,1.009,0.651,1.505,2.13,2.081c1.812,0.704,2.719,1.584,2.719,3.169c0,1.665-1.208,3.121-3.736,3.121
				c-1.034,0-2.163-0.319-2.735-0.704L164.197,323.272z"/>
		</g>
	</g>
	<g>
		<g>
			<path fill="#2B1C48" d="M68.271,67.2c0.667-0.112,1.542-0.208,2.655-0.208c1.367,0,2.369,0.319,3.005,0.896
				c0.573,0.512,0.938,1.296,0.938,2.257c0,0.977-0.286,1.744-0.827,2.305c-0.747,0.784-1.924,1.185-3.275,1.185
				c-0.413,0-0.795-0.017-1.113-0.097v4.322h-1.383V67.2z M69.654,72.402c0.302,0.08,0.684,0.112,1.145,0.112
				c1.67,0,2.688-0.833,2.688-2.289c0-1.441-1.018-2.129-2.528-2.129c-0.604,0-1.065,0.048-1.304,0.111V72.402z"/>
			<path fill="#2B1C48" d="M79.906,67.216c0.7-0.128,1.717-0.224,2.655-0.224c1.479,0,2.448,0.288,3.101,0.88
				c0.524,0.48,0.843,1.217,0.843,2.065c0,1.408-0.891,2.353-2.004,2.737v0.047c0.811,0.289,1.304,1.057,1.559,2.178
				c0.35,1.504,0.604,2.545,0.827,2.961h-1.431c-0.175-0.32-0.413-1.232-0.699-2.577c-0.318-1.488-0.906-2.049-2.163-2.097H81.29
				v4.674h-1.383V67.216z M81.29,72.13h1.415c1.479,0,2.417-0.816,2.417-2.049c0-1.393-1.001-2.001-2.464-2.001
				c-0.667,0-1.128,0.048-1.367,0.112V72.13z"/>
			<path fill="#2B1C48" d="M93.02,67.072V77.86h-1.399V67.072H93.02z"/>
			<path fill="#2B1C48" d="M98.615,77.86V67.072h1.526l3.418,5.458c0.779,1.265,1.415,2.4,1.908,3.506l0.047-0.017
				c-0.127-1.44-0.159-2.753-0.159-4.434v-4.514h1.304V77.86h-1.399l-3.402-5.475c-0.748-1.2-1.463-2.433-1.987-3.602l-0.048,0.017
				c0.079,1.36,0.095,2.657,0.095,4.45v4.609H98.615z"/>
			<path fill="#2B1C48" d="M119.726,77.524c-0.493,0.256-1.526,0.512-2.83,0.512c-3.021,0-5.279-1.92-5.279-5.474
				c0-3.394,2.274-5.667,5.597-5.667c1.32,0,2.178,0.289,2.544,0.48l-0.35,1.137c-0.509-0.256-1.256-0.448-2.146-0.448
				c-2.512,0-4.182,1.616-4.182,4.45c0,2.656,1.51,4.338,4.102,4.338c0.858,0,1.717-0.177,2.273-0.449L119.726,77.524z"/>
			<path fill="#2B1C48" d="M126.034,67.072V77.86h-1.399V67.072H126.034z"/>
			<path fill="#2B1C48" d="M131.629,67.2c0.667-0.112,1.542-0.208,2.655-0.208c1.367,0,2.369,0.319,3.005,0.896
				c0.572,0.512,0.938,1.296,0.938,2.257c0,0.977-0.286,1.744-0.827,2.305c-0.748,0.784-1.924,1.185-3.275,1.185
				c-0.414,0-0.795-0.017-1.113-0.097v4.322h-1.383V67.2z M133.012,72.402c0.302,0.08,0.684,0.112,1.145,0.112
				c1.669,0,2.687-0.833,2.687-2.289c0-1.441-1.018-2.129-2.528-2.129c-0.604,0-1.065,0.048-1.304,0.111V72.402z"/>
			<path fill="#2B1C48" d="M144.647,67.072V77.86h-1.399V67.072H144.647z"/>
			<path fill="#2B1C48" d="M159.4,72.354c0,3.697-2.242,5.682-4.977,5.682c-2.846,0-4.817-2.225-4.817-5.49
				c0-3.425,2.099-5.666,4.96-5.666C157.508,66.88,159.4,69.137,159.4,72.354z M151.068,72.515c0,2.32,1.24,4.385,3.435,4.385
				s3.435-2.032,3.435-4.481c0-2.161-1.113-4.401-3.419-4.401C152.213,68.017,151.068,70.161,151.068,72.515z"/>
			<path fill="#2B1C48" d="M164.198,76.163c0.62,0.4,1.51,0.705,2.464,0.705c1.415,0,2.242-0.752,2.242-1.841
				c0-0.992-0.573-1.585-2.02-2.129c-1.749-0.641-2.83-1.569-2.83-3.073c0-1.681,1.383-2.93,3.466-2.93
				c1.082,0,1.893,0.257,2.354,0.528l-0.382,1.137c-0.334-0.208-1.049-0.513-2.019-0.513c-1.463,0-2.019,0.881-2.019,1.617
				c0,1.008,0.651,1.505,2.13,2.081c1.812,0.704,2.719,1.585,2.719,3.169c0,1.665-1.208,3.121-3.736,3.121
				c-1.034,0-2.163-0.32-2.735-0.704L164.198,76.163z"/>
		</g>
	</g>
	<polygon fill="#81AD38" points="181.965,128.257 54.858,128.671 54.745,97.465 181.85,97.051 	"/>
	<g>
		<g>
			<path fill="#2B1C48" d="M76.807,108.231c0.843-0.144,1.844-0.239,2.941-0.239c1.987,0,3.402,0.479,4.341,1.345
				c0.97,0.88,1.526,2.129,1.526,3.873c0,1.761-0.557,3.201-1.542,4.193c-1.018,1.009-2.671,1.553-4.754,1.553
				c-1.001,0-1.812-0.048-2.512-0.128V108.231z M78.19,117.772c0.35,0.047,0.858,0.063,1.399,0.063c2.974,0,4.563-1.665,4.563-4.578
				c0.016-2.545-1.415-4.161-4.341-4.161c-0.715,0-1.256,0.063-1.622,0.144V117.772z"/>
			<path fill="#2B1C48" d="M96.104,113.802h-4.149v3.891h4.643v1.168h-6.042v-10.788h5.803v1.168h-4.404v3.409h4.149V113.802z"/>
			<path fill="#2B1C48" d="M101.571,108.216c0.7-0.128,1.717-0.224,2.655-0.224c1.479,0,2.449,0.288,3.1,0.88
				c0.525,0.48,0.843,1.217,0.843,2.065c0,1.408-0.89,2.353-2.003,2.737v0.047c0.811,0.289,1.304,1.057,1.558,2.178
				c0.35,1.504,0.604,2.545,0.827,2.961h-1.431c-0.175-0.32-0.413-1.232-0.7-2.577c-0.318-1.488-0.906-2.049-2.162-2.097h-1.304
				v4.674h-1.383V108.216z M102.954,113.13h1.415c1.479,0,2.417-0.816,2.417-2.049c0-1.393-1.002-2.001-2.465-2.001
				c-0.667,0-1.129,0.048-1.367,0.112V113.13z"/>
			<path fill="#2B1C48" d="M118.834,113.802h-4.15v3.891h4.643v1.168h-6.042v-10.788h5.803v1.168h-4.404v3.409h4.15V113.802z"/>
			<path fill="#2B1C48" d="M131.773,118.524c-0.493,0.256-1.526,0.512-2.83,0.512c-3.021,0-5.279-1.92-5.279-5.474
				c0-3.394,2.274-5.667,5.597-5.667c1.32,0,2.178,0.289,2.544,0.48l-0.35,1.137c-0.509-0.256-1.256-0.448-2.146-0.448
				c-2.512,0-4.182,1.616-4.182,4.45c0,2.656,1.51,4.338,4.102,4.338c0.858,0,1.717-0.177,2.273-0.449L131.773,118.524z"/>
			<path fill="#2B1C48" d="M138.082,108.072v4.514h5.183v-4.514h1.399v10.788h-1.399v-5.059h-5.183v5.059h-1.399v-10.788H138.082z"
				/>
			<path fill="#2B1C48" d="M159.399,113.354c0,3.697-2.242,5.682-4.977,5.682c-2.846,0-4.817-2.225-4.817-5.49
				c0-3.425,2.099-5.666,4.96-5.666C157.507,107.88,159.399,110.137,159.399,113.354z M151.068,113.515
				c0,2.32,1.24,4.385,3.434,4.385s3.434-2.032,3.434-4.481c0-2.161-1.113-4.401-3.418-4.401
				C152.213,109.017,151.068,111.161,151.068,113.515z"/>
			<path fill="#2B1C48" d="M164.197,117.163c0.62,0.4,1.51,0.705,2.464,0.705c1.415,0,2.242-0.752,2.242-1.841
				c0-0.992-0.572-1.585-2.019-2.129c-1.749-0.641-2.83-1.569-2.83-3.073c0-1.681,1.383-2.93,3.466-2.93
				c1.081,0,1.892,0.257,2.353,0.528l-0.381,1.137c-0.334-0.208-1.049-0.513-2.019-0.513c-1.463,0-2.02,0.881-2.02,1.617
				c0,1.008,0.652,1.505,2.131,2.081c1.812,0.704,2.719,1.585,2.719,3.169c0,1.665-1.208,3.121-3.736,3.121
				c-1.034,0-2.163-0.32-2.735-0.704L164.197,117.163z"/>
		</g>
	</g>
</g>
</svg>
