<?xml version="1.0" encoding="utf-8"?>
<!-- Generator: Adobe Illustrator 16.0.0, SVG Export Plug-In . SVG Version: 6.00 Build 0)  -->
<!DOCTYPE svg PUBLIC "-//W3C//DTD SVG 1.1//EN" "http://www.w3.org/Graphics/SVG/1.1/DTD/svg11.dtd">
<svg version="1.1" id="Capa_1" xmlns="http://www.w3.org/2000/svg" xmlns:xlink="http://www.w3.org/1999/xlink" x="0px" y="0px"
	 width="359.682px" height="255.178px" viewBox="0 0 359.682 255.178" enable-background="new 0 0 359.682 255.178"
	 xml:space="preserve">
<g>
	<g>
		<path fill="#CE6F28" d="M198.663,49.661c0,10.285-8.336,18.623-18.622,18.623H18.623C8.34,68.284,0,59.946,0,49.661V18.623
			C0,8.338,8.34,0,18.623,0h161.418c10.286,0,18.622,8.338,18.622,18.623V49.661z"/>
		<g>
			<g>
				<path fill="#FFFFFF" d="M20.89,25.249c0.023-2.894,0.035-5.874,0.035-8.94c0-3.074-0.012-6.23-0.035-9.468
					c1.325-0.12,2.546-0.181,3.664-0.181c3.11,0,5.403,0.465,6.878,1.392c2.005,1.271,3.053,3.62,3.146,7.046v0.928
					c0,2.938-0.382,5.033-1.142,6.287c-0.842,1.383-2.38,2.301-4.613,2.756c-1.291,0.267-2.708,0.4-4.252,0.4
					C23.419,25.469,22.191,25.396,20.89,25.249z M25.176,10.525c-0.196,2.825-0.294,5.557-0.294,8.193
					c0,0.996,0.012,1.975,0.035,2.938c0.401,0.069,0.788,0.103,1.157,0.103c1.014,0,1.865-0.262,2.558-0.785
					c0.944-0.704,1.417-2.285,1.417-4.74V16.18c-0.012-2.473-0.473-4.096-1.382-4.869c-0.703-0.584-1.538-0.875-2.506-0.875
					C25.85,10.436,25.521,10.465,25.176,10.525z"/>
				<path fill="#FFFFFF" d="M41.489,12.509c3.998,0,5.996,1.979,5.996,5.938c0,0.48-0.027,0.996-0.086,1.546h-7.725
					c0,2.208,0.57,3.312,1.711,3.312h0.121c1.002-0.061,1.503-0.632,1.503-1.714c0-0.231-0.023-0.489-0.069-0.772l4.113-0.064
					c0,3.271-1.918,4.93-5.755,4.973c-0.046,0.008-0.086,0.012-0.121,0.012c-3.651,0-5.478-2.064-5.478-6.195v-0.387
					C35.815,14.725,37.745,12.509,41.489,12.509z M39.26,17.623h3.905v-0.309c0-1.563-0.594-2.346-1.779-2.346
					C40.106,14.969,39.398,15.854,39.26,17.623z"/>
				<path fill="#FFFFFF" d="M55.85,20.432l4.113,0.193c0,3.1-1.918,4.672-5.755,4.715c-0.046,0.008-0.086,0.012-0.121,0.012
					c-3.651,0-5.479-2.064-5.479-6.195V18.77c0.115-4.432,2.063-6.668,5.842-6.711h0.139c3.479,0,5.219,1.485,5.219,4.457
					c0,0.172-0.006,0.344-0.018,0.516l-3.716,0.205v-0.309c0-1.562-0.594-2.345-1.779-2.345c-1.21,0-1.814,1.267-1.814,3.8v0.426
					c0.069,2.739,0.681,4.109,1.832,4.109h0.104c1.002-0.061,1.503-0.632,1.503-1.714C55.919,20.973,55.896,20.715,55.85,20.432z"/>
				<path fill="#FFFFFF" d="M65.994,16.502l0.173,9.34l-4.234,0.025c0-3.95-0.179-8.386-0.535-13.307l3.181-0.258l0.173,2.1
					c0.482-1.03,1.611-1.619,3.387-1.765c0.265-0.017,0.52-0.026,0.761-0.026c1.395,0,2.454,0.34,3.181,1.019
					c0.841,0.808,1.267,2.091,1.277,3.852l-3.836,0.283c0.012-0.146,0.019-0.288,0.019-0.425c0-1.374-0.479-2.061-1.436-2.061
					h-0.068C66.928,15.322,66.247,15.729,65.994,16.502z"/>
				<path fill="#FFFFFF" d="M80.13,12.509c3.998,0,5.996,1.979,5.996,5.938c0,0.48-0.028,0.996-0.086,1.546h-7.726
					c0,2.208,0.57,3.312,1.711,3.312h0.121c1.002-0.061,1.503-0.632,1.503-1.714c0-0.231-0.022-0.489-0.068-0.772l4.112-0.064
					c0,3.271-1.918,4.93-5.755,4.973c-0.046,0.008-0.086,0.012-0.121,0.012c-3.65,0-5.478-2.064-5.478-6.195v-0.387
					C74.456,14.725,76.386,12.509,80.13,12.509z M77.9,17.623h3.905v-0.309c0-1.563-0.593-2.346-1.779-2.346
					C78.747,14.969,78.039,15.854,77.9,17.623z"/>
				<path fill="#FFFFFF" d="M90.309,8.399l3.923-0.192v4.264l3.302-0.064l0.052,2.435l-3.354,0.116v5.861
					c0,1.365,0.777,2.048,2.333,2.048c0.322,0,0.674-0.03,1.055-0.091l-0.155,2.834c-0.553,0.053-1.077,0.078-1.572,0.078
					c-3.641,0-5.495-1.4-5.563-4.199v-6.3l-2.834,0.129l-0.069-2.873l2.903,0.026L90.309,8.399z"/>
				<path fill="#FFFFFF" d="M105.101,12.509c3.917,0,5.875,2.026,5.875,6.081c0,0.162-0.006,0.326-0.017,0.488
					c-0.162,4.389-2.247,6.605-6.256,6.648c-0.047,0.008-0.094,0.012-0.14,0.012c-3.813,0-5.72-2.074-5.72-6.222v-0.36
					C98.96,14.725,101.045,12.509,105.101,12.509z M104.53,15.446c-0.726,0.188-1.222,0.889-1.485,2.1
					c-0.161,0.722-0.242,1.447-0.242,2.177c0,0.49,0.035,0.984,0.104,1.481c0.186,1.237,0.778,1.877,1.78,1.919h0.121
					c0.935,0,1.572-0.459,1.918-1.378c0.288-0.765,0.434-1.67,0.434-2.718c0-0.258-0.008-0.52-0.019-0.786
					c-0.093-1.382-0.369-2.245-0.83-2.589c-0.288-0.206-0.633-0.31-1.036-0.31C105.043,15.343,104.795,15.377,104.53,15.446z"/>
				<path fill="#FFFFFF" d="M127.014,15.176v3.221h-8.641v-3.221H127.014z"/>
				<path fill="#FFFFFF" d="M140.182,6.364c-0.207,4.475-0.312,8.31-0.312,11.503c0,1.271,0.018,2.443,0.052,3.518l7.708-0.283
					l0.121,4.199l-12.339,0.206c0.011-1.134,0.017-2.263,0.017-3.388c0-5.162-0.149-10.297-0.449-15.407L140.182,6.364z"/>
				<path fill="#FFFFFF" d="M155.009,12.509c3.998,0,5.996,1.979,5.996,5.938c0,0.48-0.028,0.996-0.086,1.546h-7.726
					c0,2.208,0.57,3.312,1.711,3.312h0.121c1.002-0.061,1.503-0.632,1.503-1.714c0-0.231-0.022-0.489-0.068-0.772l4.113-0.064
					c0,3.271-1.919,4.93-5.756,4.973c-0.046,0.008-0.086,0.012-0.121,0.012c-3.65,0-5.478-2.064-5.478-6.195v-0.387
					C149.335,14.725,151.265,12.509,155.009,12.509z M152.779,17.623h3.905v-0.309c0-1.563-0.593-2.346-1.779-2.346
					C153.626,14.969,152.918,15.854,152.779,17.623z"/>
				<path fill="#FFFFFF" d="M162.267,12.457l4.528-0.27c-0.104,2.576-0.156,4.697-0.156,6.363c0,0.627,0.012,1.189,0.035,1.688
					c0.046,1.838,0.599,2.782,1.659,2.834c0.067,0.009,0.132,0.013,0.188,0.013c0.945,0,1.544-0.403,1.798-1.211
					c0.139-0.472,0.207-1.593,0.207-3.362c0-1.417-0.046-3.246-0.139-5.487l4.252-0.231c0.046,2.619,0.068,4.869,0.068,6.75
					c0,2.344-0.034,4.113-0.104,5.307c-0.115,2.146-0.938,3.779-2.471,4.896c-1.383,1.013-3.324,1.52-5.824,1.52
					c-0.288,0-0.582-0.008-0.881-0.025l-0.484-3.144c0.22,0.009,0.434,0.014,0.641,0.014c1.936,0,3.26-0.254,3.975-0.76
					c0.737-0.524,1.106-1.366,1.106-2.525v-0.206c-0.657,0.772-1.665,1.159-3.024,1.159h-0.242
					c-1.485-0.051-2.639-0.487-3.456-1.308c-0.817-0.819-1.265-1.971-1.339-3.452C162.529,19.536,162.417,16.683,162.267,12.457z"/>
				<path fill="#FFFFFF" d="M22.938,51.123l-0.361-3.078c1.979-3.229,4.272-6.57,6.877-10.022l5.564,0.231l-0.068,9.945l2.437,0.039
					v3.078h-2.367v5.424l-4.183-0.116l0.052-5.372L22.938,51.123z M30.956,48.238l0.052-6.647c-1.268,2.182-2.615,4.376-4.044,6.583
					L30.956,48.238z"/>
				<path fill="#FFFFFF" d="M43.571,47.684c0.898-1.262,2.2-1.894,3.905-1.894h0.035c1.716,0.009,3.024,0.479,3.923,1.411
					c0.899,0.932,1.376,2.003,1.435,3.214v0.322c0,1.107-0.253,2.211-0.761,3.311c-0.553,1.202-1.423,2.001-2.608,2.396
					c-0.864,0.301-1.838,0.451-2.921,0.451c-0.393,0-0.802-0.021-1.228-0.064c-1.579-0.146-2.84-0.687-3.785-1.623
					c-0.943-0.936-1.624-2.182-2.039-3.735c-0.311-1.143-0.467-2.422-0.467-3.839c0-0.498,0.023-1.01,0.069-1.533
					c0.139-2.026,0.483-3.678,1.037-4.953c0.553-1.275,1.377-2.184,2.472-2.725c1.071-0.523,2.292-0.786,3.663-0.786h0.104
					c1.405,0.018,2.596,0.356,3.568,1.018c0.974,0.662,1.604,1.563,1.894,2.706c0.185,0.755,0.275,1.498,0.275,2.229
					c0,0.386-0.022,0.764-0.068,1.133h-3.87c0.021-0.3,0.033-0.579,0.033-0.837c0-1.604-0.396-2.486-1.191-2.641
					c-0.207-0.034-0.403-0.052-0.588-0.052c-0.668,0-1.228,0.254-1.677,0.76c-0.588,0.653-0.949,1.555-1.089,2.705
					c-0.104,0.782-0.154,1.499-0.154,2.151C43.537,47.117,43.548,47.409,43.571,47.684z M43.917,50.132
					c0.022,1.133,0.222,1.981,0.597,2.544c0.374,0.562,0.93,0.887,1.667,0.973c0.115,0.018,0.236,0.025,0.363,0.025
					c0.576,0,1.089-0.176,1.538-0.528c0.495-0.386,0.743-1.082,0.743-2.087v-0.257c-0.048-1.143-0.582-1.812-1.607-2.01
					c-0.161-0.026-0.322-0.039-0.484-0.039C45.847,48.753,44.907,49.213,43.917,50.132z"/>
				<path fill="#FFFFFF" d="M54.147,44.36c-0.046-0.455-0.068-0.88-0.068-1.275c0-1.365,0.275-2.417,0.83-3.156
					c0.701-0.944,1.854-1.528,3.455-1.752c0.783-0.111,1.532-0.167,2.246-0.167c0.728,0,1.417,0.06,2.074,0.181
					c1.278,0.231,2.301,0.751,3.067,1.559c0.766,0.807,1.178,1.915,1.234,3.323v0.387c0,1.22-0.253,2.108-0.76,2.666
					c-0.564,0.627-1.492,1.1-2.782,1.417c1.071,0.121,1.875,0.41,2.41,0.87c0.536,0.459,0.907,1.075,1.114,1.849
					c0.115,0.429,0.173,0.901,0.173,1.417c0,0.421-0.04,0.876-0.12,1.365c-0.173,1.073-0.758,2.001-1.755,2.782
					c-0.996,0.781-2.531,1.189-4.604,1.224h-0.276c-1.946,0-3.502-0.378-4.666-1.134c-1.209-0.772-1.814-2.435-1.814-4.984v-0.078
					l4.478-0.192c-0.012,0.146-0.019,0.287-0.019,0.425c0,1.804,0.635,2.735,1.9,2.795c0.093,0.009,0.179,0.013,0.26,0.013
					c1.198,0,1.918-0.472,2.16-1.417c0.069-0.266,0.104-0.52,0.104-0.76c0-0.678-0.26-1.267-0.777-1.765
					c-0.715-0.67-1.896-1.005-3.543-1.005l-0.207-2.447c0.195,0.009,0.38,0.013,0.553,0.013c1.44,0,2.432-0.31,2.974-0.928
					c0.507-0.575,0.76-1.322,0.76-2.241c0-0.181-0.012-0.365-0.034-0.554c-0.104-1.1-0.767-1.649-1.987-1.649H60.3
					c-1.21,0.061-1.814,0.962-1.814,2.705c0,0.206,0.007,0.426,0.018,0.657L54.147,44.36z"/>
				<path fill="#FFFFFF" d="M68.387,44.36c-0.046-0.455-0.069-0.88-0.069-1.275c0-1.365,0.276-2.417,0.83-3.156
					c0.702-0.944,1.854-1.528,3.456-1.752c0.783-0.111,1.532-0.167,2.246-0.167c0.728,0,1.417,0.06,2.074,0.181
					c1.278,0.231,2.301,0.751,3.067,1.559c0.766,0.807,1.178,1.915,1.234,3.323v0.387c0,1.22-0.253,2.108-0.76,2.666
					c-0.565,0.627-1.492,1.1-2.782,1.417c1.071,0.121,1.875,0.41,2.41,0.87c0.536,0.459,0.907,1.075,1.114,1.849
					c0.115,0.429,0.173,0.901,0.173,1.417c0,0.421-0.04,0.876-0.12,1.365c-0.173,1.073-0.758,2.001-1.755,2.782
					c-0.996,0.781-2.531,1.189-4.605,1.224h-0.275c-1.946,0-3.502-0.378-4.666-1.134c-1.209-0.772-1.814-2.435-1.814-4.984v-0.078
					l4.478-0.192c-0.013,0.146-0.019,0.287-0.019,0.425c0,1.804,0.634,2.735,1.9,2.795c0.093,0.009,0.179,0.013,0.26,0.013
					c1.198,0,1.918-0.472,2.16-1.417c0.069-0.266,0.104-0.52,0.104-0.76c0-0.678-0.259-1.267-0.776-1.765
					c-0.715-0.67-1.896-1.005-3.543-1.005L72.5,46.499c0.194,0.009,0.38,0.013,0.553,0.013c1.44,0,2.431-0.31,2.973-0.928
					c0.508-0.575,0.761-1.322,0.761-2.241c0-0.181-0.013-0.365-0.034-0.554c-0.104-1.1-0.768-1.649-1.987-1.649H74.54
					c-1.21,0.061-1.814,0.962-1.814,2.705c0,0.206,0.006,0.426,0.018,0.657L68.387,44.36z"/>
				<path fill="#FFFFFF" d="M102.154,39.169c-0.068,2.903-0.104,5.947-0.104,9.134c0,2.902,0.028,5.925,0.086,9.068l-4.096,0.013
					l-0.139-1.971c-0.853,0.953-1.986,1.43-3.403,1.43c-3.537,0-5.307-2.018-5.307-6.055c0-0.085,0.007-0.171,0.019-0.257
					c0.067-4.045,1.819-6.067,5.253-6.067c0.139,0,0.282,0.004,0.433,0.013c1.175,0.052,2.125,0.528,2.852,1.43
					c0-1.906-0.063-4.152-0.189-6.737L102.154,39.169L102.154,39.169z M97.834,52.772l-0.087-4.457
					c-0.668-0.679-1.354-1.018-2.057-1.018c-0.288,0-0.575,0.056-0.863,0.167c-0.91,0.353-1.365,1.34-1.365,2.963
					c0,0.189,0.006,0.382,0.018,0.58c0.114,1.967,0.702,3.006,1.764,3.117c0.104,0.009,0.207,0.013,0.311,0.013
					C96.475,54.138,97.234,53.683,97.834,52.772z"/>
				<path fill="#FFFFFF" d="M109.136,44.167c3.998,0,5.996,1.979,5.996,5.938c0,0.481-0.028,0.997-0.086,1.546h-7.726
					c0,2.207,0.57,3.311,1.712,3.311h0.12c1.002-0.06,1.504-0.631,1.504-1.713c0-0.232-0.023-0.489-0.069-0.773l4.113-0.064
					c0,3.272-1.918,4.93-5.756,4.973c-0.046,0.009-0.086,0.013-0.12,0.013c-3.651,0-5.479-2.064-5.479-6.195v-0.387
					C103.462,46.383,105.392,44.167,109.136,44.167z M106.906,49.281h3.905v-0.31c0-1.562-0.593-2.344-1.778-2.344
					C107.753,46.628,107.045,47.513,106.906,49.281z"/>
				<path fill="#FFFFFF" d="M123.427,44.489c-0.058-0.516-0.086-0.992-0.086-1.43c0-1.537,0.374-2.646,1.123-3.324
					c0.956-0.867,2.178-1.387,3.663-1.559c0.53-0.06,1.049-0.09,1.556-0.09c0.91,0,1.785,0.095,2.627,0.283
					c1.313,0.301,2.304,0.894,2.973,1.778c0.542,0.738,0.812,1.683,0.812,2.834c0,0.223-0.006,0.459-0.018,0.708
					c-0.139,1.478-0.734,2.836-1.788,4.077c-1.056,1.241-2.877,3.017-5.471,5.327l7.553,0.038l-0.053,3.233
					c-3.307,0.112-7.568,0.168-12.788,0.168l-0.396-3.518c3.134-2.524,5.369-4.465,6.705-5.822c1.222-1.245,1.832-2.469,1.832-3.671
					v-0.322c-0.127-1.288-0.854-1.933-2.178-1.933h-0.068c-1.152,0.026-1.729,0.808-1.729,2.345c0,0.292,0.019,0.605,0.053,0.94
					L123.427,44.489z"/>
				<path fill="#FFFFFF" d="M145.201,38.151c4.551,0,6.825,3.092,6.825,9.275c0,6.191-2.437,9.287-7.311,9.287
					c-4.873,0-7.31-3.207-7.31-9.622C137.407,41.132,140.005,38.151,145.201,38.151z M142.091,47.517
					c-0.012,0.231-0.018,0.455-0.018,0.67c0,3.393,0.938,5.088,2.815,5.088c1.981,0,2.973-1.919,2.973-5.758
					c0-3.839-0.928-5.759-2.781-5.759C143.226,41.758,142.229,43.678,142.091,47.517z"/>
				<path fill="#FFFFFF" d="M162.137,38.512c-0.08,4.054-0.121,8.086-0.121,12.097c0,2.01,0.012,4.015,0.035,6.016l-4.286,0.167
					c-0.08-5.161-0.179-9.94-0.294-14.337c-0.967,0.146-2.28,0.507-3.938,1.082l-0.83-2.821l4.805-2.268L162.137,38.512z"/>
				<path fill="#FFFFFF" d="M172.557,38.512c-0.08,4.054-0.121,8.086-0.121,12.097c0,2.01,0.013,4.015,0.035,6.016l-4.286,0.167
					c-0.08-5.161-0.179-9.94-0.294-14.337c-0.967,0.146-2.28,0.507-3.938,1.082l-0.83-2.821l4.805-2.268L172.557,38.512z"/>
			</g>
		</g>
		<g id="OB1yQF_16_">
			<g>
				<path fill="#E2AE8B" d="M208.233,67.607c-0.501,0.094-1.017,0.189-1.531,0.284c-3.205,0.581-6.409,1.162-9.613,1.748
					c-0.132,0.024-0.271,0.076-0.389,0.146c-3.185,1.899-6.37,3.802-9.557,5.704c-0.064,0.04-0.136,0.076-0.2,0.115
					c0.937-8.295,1.871-16.58,2.806-24.839C195.895,56.367,202.061,61.983,208.233,67.607z"/>
				<path fill="#E2AE8B" d="M199.979,58.009c-0.557-0.51-1.099-1.005-1.629-1.492c0.228-0.423,0.467-0.815,0.658-1.231
					c2.016-4.405,0.766-9.488-3.113-12.384c-4.58-3.418-10.895-2.428-14.17,2.075c-1.957,2.694-2.508,5.684-1.596,8.894
					c0.643,2.265,1.979,4.064,3.906,5.417c0.885,0.616,1.838,1.08,2.868,1.384c0.144,0.043,0.2,0.096,0.18,0.264
					c-0.09,0.679-0.161,1.359-0.237,2.04c-3.713-0.854-8.222-4.017-9.211-10.13c-0.906-5.609,2.241-11.119,7.473-13.239
					c5.394-2.182,11.474-0.438,14.804,4.276C203.369,48.776,202.451,54.536,199.979,58.009z"/>
				<path fill="#E2AE8B" d="M196.004,54.379c-0.546-0.504-1.08-0.993-1.607-1.491c-0.041-0.038-0.062-0.143-0.041-0.198
					c0.807-2.221-0.014-4.577-2.021-5.804c-2.212-1.352-5.129-0.692-6.562,1.482c-1.389,2.114-0.827,5.075,1.244,6.553
					c0.168,0.121,0.351,0.218,0.519,0.34c0.057,0.041,0.123,0.133,0.114,0.195c-0.073,0.694-0.157,1.388-0.242,2.08
					c-0.002,0.024-0.018,0.048-0.026,0.072c-2.279-0.816-4.529-3.159-4.593-6.447c-0.063-3.185,1.971-5.923,4.8-6.85
					c3.127-1.022,6.38,0.132,8.142,2.81C197.457,49.751,197.007,52.781,196.004,54.379z"/>
			</g>
		</g>
	</g>
	<g>
		<path fill="#2B1C48" d="M198.663,139.446c0,10.287-8.336,18.623-18.623,18.623H18.624C8.339,158.069,0,149.733,0,139.446V108.41
			c0-10.286,8.339-18.624,18.624-18.624H180.04c10.287,0,18.623,8.338,18.623,18.624V139.446z"/>
		<g>
			<g>
				<path fill="#FFFFFF" d="M20.514,115.034c0.023-2.894,0.035-5.874,0.035-8.939c0-3.075-0.012-6.23-0.035-9.469
					c1.325-0.12,2.546-0.181,3.664-0.181c3.11,0,5.403,0.464,6.878,1.392c2.005,1.271,3.053,3.62,3.146,7.047v0.927
					c0,2.938-0.382,5.033-1.142,6.287c-0.842,1.383-2.38,2.301-4.614,2.757c-1.291,0.266-2.708,0.398-4.251,0.398
					C23.043,115.253,21.815,115.181,20.514,115.034z M24.8,100.311c-0.196,2.825-0.294,5.557-0.294,8.192
					c0,0.997,0.012,1.976,0.035,2.938c0.401,0.068,0.788,0.103,1.157,0.103c1.014,0,1.865-0.262,2.558-0.785
					c0.944-0.704,1.417-2.284,1.417-4.741v-0.051c-0.012-2.474-0.473-4.097-1.382-4.87c-0.703-0.584-1.538-0.876-2.506-0.876
					C25.474,100.22,25.146,100.25,24.8,100.311z"/>
				<path fill="#FFFFFF" d="M41.113,102.294c3.998,0,5.996,1.979,5.996,5.938c0,0.481-0.027,0.997-0.086,1.546h-7.725
					c0,2.207,0.57,3.311,1.711,3.311h0.121c1.002-0.06,1.503-0.631,1.503-1.713c0-0.232-0.023-0.489-0.069-0.773l4.113-0.064
					c0,3.272-1.918,4.93-5.755,4.973c-0.046,0.009-0.086,0.013-0.121,0.013c-3.651,0-5.479-2.064-5.479-6.195v-0.387
					C35.439,104.51,37.369,102.294,41.113,102.294z M38.884,107.408h3.905v-0.31c0-1.562-0.594-2.344-1.779-2.344
					C39.73,104.755,39.022,105.64,38.884,107.408z"/>
				<path fill="#FFFFFF" d="M55.474,110.217l4.113,0.193c0,3.1-1.918,4.672-5.755,4.715c-0.046,0.008-0.086,0.013-0.121,0.013
					c-3.651,0-5.479-2.065-5.479-6.196v-0.387c0.115-4.432,2.063-6.668,5.842-6.711h0.139c3.479,0,5.219,1.485,5.219,4.457
					c0,0.172-0.006,0.343-0.018,0.515l-3.716,0.206v-0.309c0-1.563-0.594-2.345-1.779-2.345c-1.21,0-1.814,1.267-1.814,3.8v0.426
					c0.069,2.739,0.681,4.109,1.832,4.109h0.104c1.002-0.061,1.503-0.632,1.503-1.714C55.543,110.758,55.52,110.5,55.474,110.217z"
					/>
				<path fill="#FFFFFF" d="M65.618,106.287l0.173,9.34l-4.234,0.025c0-3.95-0.179-8.386-0.535-13.307l3.181-0.258l0.173,2.1
					c0.482-1.03,1.611-1.618,3.387-1.765c0.265-0.017,0.519-0.025,0.761-0.025c1.395,0,2.454,0.339,3.181,1.018
					c0.841,0.808,1.267,2.091,1.277,3.852l-3.836,0.283c0.011-0.146,0.019-0.287,0.019-0.425c0-1.374-0.479-2.062-1.436-2.062
					h-0.068C66.552,105.106,65.871,105.515,65.618,106.287z"/>
				<path fill="#FFFFFF" d="M79.754,102.294c3.998,0,5.996,1.979,5.996,5.938c0,0.481-0.028,0.997-0.086,1.546h-7.726
					c0,2.207,0.57,3.311,1.711,3.311h0.121c1.002-0.06,1.503-0.631,1.503-1.713c0-0.232-0.022-0.489-0.068-0.773l4.112-0.064
					c0,3.272-1.918,4.93-5.755,4.973c-0.046,0.009-0.086,0.013-0.121,0.013c-3.65,0-5.478-2.064-5.478-6.195v-0.387
					C74.08,104.51,76.01,102.294,79.754,102.294z M77.524,107.408h3.905v-0.31c0-1.562-0.593-2.344-1.779-2.344
					C78.371,104.755,77.663,105.64,77.524,107.408z"/>
				<path fill="#FFFFFF" d="M89.933,98.185l3.923-0.193v4.265l3.302-0.064l0.052,2.435l-3.354,0.116v5.86
					c0,1.366,0.777,2.049,2.333,2.049c0.322,0,0.674-0.03,1.055-0.091l-0.155,2.835c-0.553,0.051-1.077,0.077-1.572,0.077
					c-3.641,0-5.495-1.4-5.563-4.2v-6.299l-2.834,0.129l-0.069-2.873l2.903,0.026L89.933,98.185z"/>
				<path fill="#FFFFFF" d="M104.725,102.294c3.917,0,5.875,2.027,5.875,6.08c0,0.164-0.006,0.327-0.017,0.49
					c-0.162,4.388-2.247,6.604-6.256,6.646c-0.048,0.009-0.094,0.013-0.14,0.013c-3.813,0-5.72-2.073-5.72-6.222v-0.36
					C98.584,104.51,100.669,102.294,104.725,102.294z M104.154,105.231c-0.726,0.188-1.222,0.889-1.485,2.1
					c-0.161,0.722-0.242,1.447-0.242,2.177c0,0.489,0.035,0.983,0.104,1.481c0.186,1.237,0.778,1.877,1.78,1.92h0.121
					c0.935,0,1.572-0.46,1.918-1.379c0.288-0.764,0.434-1.67,0.434-2.718c0-0.258-0.008-0.52-0.019-0.786
					c-0.093-1.383-0.369-2.245-0.83-2.589c-0.288-0.206-0.633-0.31-1.036-0.31C104.667,105.128,104.419,105.162,104.154,105.231z"/>
				<path fill="#FFFFFF" d="M126.638,104.961v3.221h-8.641v-3.221H126.638z"/>
				<path fill="#FFFFFF" d="M139.806,96.149c-0.207,4.475-0.312,8.309-0.312,11.504c0,1.271,0.018,2.443,0.052,3.517l7.708-0.283
					l0.121,4.199l-12.339,0.206c0.011-1.134,0.017-2.263,0.017-3.388c0-5.161-0.149-10.297-0.449-15.407L139.806,96.149z"/>
				<path fill="#FFFFFF" d="M154.633,102.294c3.998,0,5.996,1.979,5.996,5.938c0,0.481-0.028,0.997-0.086,1.546h-7.726
					c0,2.207,0.57,3.311,1.711,3.311h0.121c1.002-0.06,1.503-0.631,1.503-1.713c0-0.232-0.022-0.489-0.068-0.773l4.112-0.064
					c0,3.272-1.918,4.93-5.755,4.973c-0.046,0.009-0.086,0.013-0.121,0.013c-3.65,0-5.478-2.064-5.478-6.195v-0.387
					C148.959,104.51,150.889,102.294,154.633,102.294z M152.403,107.408h3.905v-0.31c0-1.562-0.593-2.344-1.779-2.344
					C153.25,104.755,152.542,105.64,152.403,107.408z"/>
				<path fill="#FFFFFF" d="M161.891,102.242l4.528-0.271c-0.104,2.577-0.156,4.698-0.156,6.364c0,0.627,0.012,1.189,0.035,1.688
					c0.046,1.838,0.599,2.782,1.659,2.834c0.067,0.009,0.132,0.013,0.188,0.013c0.945,0,1.544-0.403,1.798-1.211
					c0.139-0.472,0.207-1.593,0.207-3.362c0-1.417-0.046-3.246-0.139-5.487l4.252-0.232c0.046,2.62,0.068,4.87,0.068,6.751
					c0,2.344-0.034,4.113-0.104,5.307c-0.115,2.147-0.938,3.779-2.471,4.896c-1.383,1.013-3.324,1.52-5.824,1.52
					c-0.288,0-0.582-0.008-0.881-0.025l-0.484-3.144c0.22,0.009,0.434,0.014,0.641,0.014c1.936,0,3.26-0.254,3.975-0.761
					c0.737-0.523,1.106-1.365,1.106-2.524v-0.206c-0.657,0.771-1.665,1.159-3.024,1.159h-0.242
					c-1.485-0.052-2.639-0.487-3.456-1.308c-0.817-0.82-1.265-1.971-1.339-3.452C162.153,109.321,162.041,106.468,161.891,102.242z"
					/>
				<path fill="#FFFFFF" d="M21.724,140.908l-0.362-3.078c1.98-3.229,4.273-6.57,6.877-10.022l5.565,0.231l-0.069,9.944l2.438,0.039
					v3.078h-2.367v5.424l-4.183-0.115l0.052-5.372L21.724,140.908z M29.742,138.022l0.052-6.646
					c-1.269,2.182-2.615,4.376-4.044,6.583L29.742,138.022z"/>
				<path fill="#FFFFFF" d="M42.357,137.469c0.898-1.262,2.2-1.894,3.905-1.894h0.035c1.716,0.009,3.023,0.479,3.923,1.41
					c0.899,0.933,1.376,2.004,1.434,3.215v0.322c0,1.106-0.253,2.211-0.76,3.311c-0.553,1.202-1.423,2.001-2.608,2.396
					c-0.864,0.301-1.839,0.451-2.922,0.451c-0.392,0-0.801-0.021-1.227-0.064c-1.579-0.146-2.84-0.688-3.785-1.623
					c-0.943-0.936-1.624-2.182-2.039-3.735c-0.311-1.143-0.467-2.422-0.467-3.839c0-0.498,0.023-1.01,0.069-1.533
					c0.139-2.025,0.483-3.678,1.037-4.953c0.553-1.274,1.377-2.184,2.472-2.725c1.071-0.523,2.292-0.786,3.663-0.786h0.104
					c1.405,0.018,2.596,0.356,3.568,1.019c0.974,0.662,1.604,1.563,1.893,2.705c0.186,0.756,0.276,1.498,0.276,2.229
					c0,0.386-0.023,0.765-0.069,1.133h-3.87c0.022-0.3,0.034-0.579,0.034-0.837c0-1.605-0.396-2.486-1.191-2.641
					c-0.207-0.034-0.403-0.053-0.588-0.053c-0.668,0-1.228,0.254-1.677,0.76c-0.588,0.654-0.949,1.556-1.089,2.705
					c-0.104,0.783-0.154,1.5-0.154,2.151C42.323,136.901,42.334,137.194,42.357,137.469z M42.703,139.917
					c0.022,1.133,0.222,1.98,0.597,2.544c0.374,0.562,0.93,0.888,1.667,0.974c0.115,0.018,0.236,0.024,0.363,0.024
					c0.575,0,1.089-0.176,1.538-0.528c0.494-0.386,0.742-1.082,0.742-2.087v-0.257c-0.047-1.143-0.582-1.813-1.606-2.01
					c-0.161-0.026-0.322-0.039-0.484-0.039C44.633,138.538,43.693,138.998,42.703,139.917z"/>
				<path fill="#FFFFFF" d="M52.934,134.146c-0.046-0.455-0.068-0.879-0.068-1.274c0-1.365,0.275-2.417,0.829-3.156
					c0.702-0.944,1.854-1.528,3.456-1.752c0.783-0.111,1.532-0.167,2.246-0.167c0.728,0,1.417,0.06,2.074,0.181
					c1.278,0.231,2.301,0.75,3.067,1.559c0.766,0.807,1.178,1.915,1.234,3.322v0.388c0,1.22-0.253,2.108-0.76,2.666
					c-0.564,0.627-1.492,1.101-2.782,1.417c1.071,0.121,1.875,0.41,2.41,0.87c0.536,0.459,0.907,1.075,1.114,1.849
					c0.115,0.43,0.173,0.901,0.173,1.417c0,0.421-0.04,0.876-0.12,1.365c-0.173,1.073-0.758,2.001-1.755,2.782
					c-0.996,0.781-2.531,1.188-4.605,1.224h-0.275c-1.946,0-3.502-0.378-4.666-1.134c-1.209-0.771-1.814-2.436-1.814-4.984v-0.078
					l4.478-0.191c-0.012,0.146-0.019,0.287-0.019,0.425c0,1.804,0.635,2.735,1.9,2.795c0.093,0.009,0.179,0.013,0.26,0.013
					c1.198,0,1.918-0.472,2.16-1.416c0.069-0.267,0.104-0.521,0.104-0.761c0-0.678-0.26-1.267-0.777-1.765
					c-0.715-0.67-1.896-1.006-3.543-1.006l-0.207-2.446c0.195,0.009,0.38,0.013,0.553,0.013c1.44,0,2.432-0.31,2.974-0.928
					c0.507-0.575,0.76-1.322,0.76-2.241c0-0.181-0.013-0.364-0.034-0.554c-0.104-1.1-0.767-1.649-1.987-1.649h-0.225
					c-1.21,0.062-1.814,0.962-1.814,2.705c0,0.206,0.006,0.427,0.018,0.657L52.934,134.146z"/>
				<path fill="#FFFFFF" d="M67.173,140.908l-0.362-3.078c1.98-3.229,4.273-6.57,6.877-10.022l5.565,0.231l-0.069,9.944l2.438,0.039
					v3.078h-2.367v5.424l-4.184-0.115l0.053-5.372L67.173,140.908z M75.191,138.022l0.053-6.646
					c-1.269,2.182-2.615,4.376-4.044,6.583L75.191,138.022z"/>
				<path fill="#FFFFFF" d="M102.616,128.954c-0.069,2.902-0.104,5.947-0.104,9.134c0,2.902,0.028,5.925,0.086,9.068l-4.096,0.013
					l-0.139-1.971c-0.853,0.953-1.986,1.43-3.403,1.43c-3.537,0-5.307-2.018-5.307-6.055c0-0.086,0.007-0.172,0.019-0.258
					c0.068-4.045,1.82-6.066,5.253-6.066c0.139,0,0.282,0.004,0.433,0.014c1.176,0.051,2.125,0.527,2.852,1.43
					c0-1.906-0.063-4.152-0.189-6.737L102.616,128.954L102.616,128.954z M98.296,142.558l-0.087-4.457
					c-0.668-0.679-1.354-1.018-2.057-1.018c-0.287,0-0.575,0.057-0.863,0.167c-0.91,0.353-1.365,1.34-1.365,2.963
					c0,0.188,0.006,0.382,0.018,0.58c0.114,1.967,0.702,3.006,1.764,3.117c0.104,0.009,0.207,0.013,0.311,0.013
					C96.937,143.923,97.696,143.468,98.296,142.558z"/>
				<path fill="#FFFFFF" d="M109.599,133.952c3.998,0,5.996,1.979,5.996,5.938c0,0.481-0.028,0.998-0.086,1.547h-7.725
					c0,2.207,0.569,3.311,1.711,3.311h0.121c1.002-0.061,1.503-0.631,1.503-1.713c0-0.232-0.023-0.489-0.069-0.773l4.113-0.063
					c0,3.272-1.918,4.93-5.755,4.973c-0.047,0.009-0.087,0.013-0.121,0.013c-3.651,0-5.479-2.063-5.479-6.194v-0.388
					C103.925,136.168,105.854,133.952,109.599,133.952z M107.369,139.065h3.904v-0.31c0-1.562-0.593-2.344-1.778-2.344
					C108.216,136.413,107.508,137.298,107.369,139.065z"/>
				<path fill="#FFFFFF" d="M123.89,134.274c-0.058-0.517-0.086-0.992-0.086-1.431c0-1.536,0.374-2.646,1.123-3.323
					c0.956-0.867,2.178-1.388,3.663-1.56c0.53-0.06,1.049-0.09,1.556-0.09c0.91,0,1.785,0.095,2.627,0.282
					c1.313,0.302,2.305,0.895,2.973,1.779c0.542,0.737,0.812,1.683,0.812,2.834c0,0.223-0.006,0.459-0.018,0.707
					c-0.139,1.479-0.734,2.836-1.788,4.077c-1.056,1.241-2.877,3.017-5.471,5.327l7.553,0.038l-0.053,3.233
					c-3.307,0.111-7.568,0.168-12.787,0.168l-0.397-3.519c3.134-2.524,5.369-4.465,6.705-5.821c1.222-1.246,1.832-2.47,1.832-3.672
					v-0.322c-0.127-1.287-0.854-1.933-2.178-1.933h-0.068c-1.152,0.026-1.729,0.808-1.729,2.345c0,0.293,0.018,0.605,0.052,0.94
					L123.89,134.274z"/>
				<path fill="#FFFFFF" d="M145.664,127.937c4.551,0,6.826,3.091,6.826,9.275c0,6.191-2.438,9.287-7.312,9.287
					c-4.873,0-7.31-3.207-7.31-9.622C137.87,130.917,140.468,127.937,145.664,127.937z M142.554,137.302
					c-0.012,0.231-0.018,0.455-0.018,0.67c0,3.394,0.938,5.088,2.815,5.088c1.981,0,2.974-1.918,2.974-5.758
					c0-3.839-0.929-5.759-2.782-5.759C143.689,131.543,142.691,133.463,142.554,137.302z"/>
				<path fill="#FFFFFF" d="M162.599,128.297c-0.08,4.054-0.121,8.086-0.121,12.097c0,2.01,0.013,4.016,0.035,6.017l-4.286,0.167
					c-0.08-5.161-0.179-9.939-0.294-14.337c-0.967,0.146-2.28,0.507-3.938,1.082l-0.83-2.821l4.805-2.268L162.599,128.297z"/>
				<path fill="#FFFFFF" d="M173.02,128.297c-0.08,4.054-0.121,8.086-0.121,12.097c0,2.01,0.013,4.016,0.035,6.017l-4.286,0.167
					c-0.08-5.161-0.179-9.939-0.294-14.337c-0.967,0.146-2.279,0.507-3.938,1.082l-0.83-2.821l4.805-2.268L173.02,128.297z"/>
			</g>
		</g>
		<g id="OB1yQF_17_">
			<g>
				<path fill="#9280B3" d="M207.528,157.396c-0.501,0.092-1.018,0.188-1.53,0.283c-3.206,0.58-6.411,1.16-9.613,1.747
					c-0.133,0.024-0.271,0.077-0.389,0.146c-3.186,1.899-6.371,3.803-9.558,5.704c-0.065,0.041-0.135,0.076-0.201,0.115
					c0.938-8.295,1.871-16.58,2.806-24.841C195.19,146.151,201.354,151.771,207.528,157.396z"/>
				<path fill="#9280B3" d="M199.273,147.796c-0.557-0.51-1.099-1.007-1.629-1.492c0.228-0.423,0.468-0.814,0.658-1.231
					c2.015-4.405,0.766-9.488-3.112-12.384c-4.582-3.418-10.896-2.429-14.173,2.076c-1.956,2.691-2.505,5.683-1.595,8.893
					c0.644,2.266,1.979,4.063,3.908,5.416c0.883,0.617,1.837,1.08,2.866,1.385c0.145,0.044,0.2,0.096,0.181,0.264
					c-0.09,0.678-0.161,1.359-0.238,2.041c-3.711-0.854-8.222-4.018-9.209-10.132c-0.907-5.608,2.24-11.118,7.472-13.237
					c5.395-2.183,11.475-0.438,14.804,4.275C202.664,138.562,201.745,144.323,199.273,147.796z"/>
				<path fill="#9280B3" d="M195.297,144.165c-0.545-0.504-1.08-0.994-1.605-1.49c-0.042-0.039-0.063-0.144-0.042-0.199
					c0.808-2.22-0.013-4.578-2.02-5.804c-2.214-1.351-5.131-0.69-6.563,1.481c-1.388,2.115-0.826,5.076,1.243,6.554
					c0.168,0.12,0.353,0.217,0.52,0.341c0.057,0.041,0.121,0.133,0.115,0.195c-0.073,0.691-0.16,1.386-0.244,2.08
					c-0.002,0.023-0.017,0.048-0.024,0.07c-2.279-0.814-4.529-3.158-4.594-6.445c-0.063-3.186,1.971-5.926,4.798-6.852
					c3.128-1.021,6.383,0.131,8.144,2.81C196.752,139.538,196.301,142.567,195.297,144.165z"/>
			</g>
		</g>
	</g>
	<g>
		<path fill="#5D9CD1" d="M198.663,229.233c0,10.285-8.338,18.621-18.623,18.621H18.624C8.34,247.854,0,239.519,0,229.233v-31.039
			c0-10.284,8.34-18.621,18.624-18.621H180.04c10.285,0,18.623,8.337,18.623,18.621V229.233z"/>
		<g>
			<g>
				<path fill="#FFFFFF" d="M22.451,204.819c0.022-2.894,0.034-5.873,0.034-8.938c0-3.075-0.012-6.229-0.034-9.469
					c1.324-0.12,2.546-0.181,3.664-0.181c3.109,0,5.402,0.463,6.878,1.392c2.005,1.271,3.053,3.62,3.146,7.047v0.927
					c0,2.938-0.381,5.033-1.141,6.287c-0.843,1.383-2.38,2.301-4.614,2.758c-1.291,0.266-2.708,0.397-4.251,0.397
					C24.98,205.039,23.753,204.967,22.451,204.819z M26.737,190.097c-0.195,2.825-0.294,5.557-0.294,8.192
					c0,0.997,0.013,1.976,0.035,2.938c0.402,0.067,0.788,0.103,1.157,0.103c1.014,0,1.866-0.263,2.558-0.785
					c0.944-0.704,1.417-2.284,1.417-4.741v-0.051c-0.012-2.475-0.473-4.097-1.382-4.87c-0.703-0.584-1.538-0.876-2.506-0.876
					C27.411,190.006,27.083,190.036,26.737,190.097z"/>
				<path fill="#FFFFFF" d="M43.051,192.08c3.998,0,5.996,1.979,5.996,5.938c0,0.48-0.028,0.996-0.086,1.545h-7.726
					c0,2.207,0.57,3.312,1.711,3.312h0.121c1.002-0.06,1.503-0.631,1.503-1.713c0-0.231-0.022-0.489-0.068-0.772l4.113-0.064
					c0,3.271-1.919,4.93-5.756,4.973c-0.046,0.01-0.086,0.014-0.121,0.014c-3.65,0-5.478-2.064-5.478-6.195v-0.387
					C37.377,194.296,39.307,192.08,43.051,192.08z M40.821,197.194h3.905v-0.311c0-1.562-0.593-2.344-1.779-2.344
					C41.668,194.541,40.96,195.426,40.821,197.194z"/>
				<path fill="#FFFFFF" d="M57.411,200.003l4.112,0.193c0,3.1-1.918,4.672-5.755,4.715c-0.046,0.008-0.086,0.013-0.121,0.013
					c-3.65,0-5.478-2.065-5.478-6.196v-0.387c0.115-4.432,2.062-6.668,5.841-6.711h0.139c3.479,0,5.22,1.485,5.22,4.457
					c0,0.172-0.007,0.344-0.019,0.516l-3.716,0.205v-0.309c0-1.563-0.593-2.346-1.779-2.346c-1.21,0-1.813,1.268-1.813,3.801v0.426
					c0.068,2.739,0.68,4.109,1.832,4.109h0.104c1.002-0.062,1.503-0.633,1.503-1.715C57.48,200.544,57.457,200.286,57.411,200.003z"
					/>
				<path fill="#FFFFFF" d="M67.556,196.073l0.173,9.34l-4.233,0.025c0-3.951-0.18-8.387-0.535-13.308l3.18-0.258l0.173,2.101
					c0.483-1.031,1.612-1.619,3.388-1.766c0.265-0.018,0.519-0.025,0.761-0.025c1.394,0,2.454,0.34,3.18,1.019
					c0.841,0.808,1.268,2.091,1.278,3.853l-3.836,0.282c0.011-0.146,0.018-0.287,0.018-0.425c0-1.374-0.479-2.063-1.435-2.063
					h-0.069C68.489,194.894,67.809,195.301,67.556,196.073z"/>
				<path fill="#FFFFFF" d="M81.691,192.08c3.998,0,5.996,1.979,5.996,5.938c0,0.48-0.027,0.996-0.086,1.545h-7.725
					c0,2.207,0.569,3.312,1.711,3.312h0.121c1.002-0.06,1.503-0.631,1.503-1.713c0-0.231-0.023-0.489-0.069-0.772l4.113-0.064
					c0,3.271-1.918,4.93-5.755,4.973c-0.046,0.01-0.086,0.014-0.121,0.014c-3.651,0-5.479-2.064-5.479-6.195v-0.387
					C76.018,194.296,77.947,192.08,81.691,192.08z M79.462,197.194h3.905v-0.311c0-1.562-0.594-2.344-1.779-2.344
					C80.309,194.541,79.601,195.426,79.462,197.194z"/>
				<path fill="#FFFFFF" d="M91.87,187.972l3.923-0.193v4.265l3.301-0.063l0.052,2.435l-3.353,0.116v5.859
					c0,1.366,0.776,2.049,2.333,2.049c0.322,0,0.674-0.029,1.054-0.09l-0.155,2.834c-0.553,0.051-1.076,0.077-1.571,0.077
					c-3.642,0-5.495-1.399-5.564-4.2v-6.299l-2.834,0.129l-0.069-2.873l2.903,0.026L91.87,187.972z"/>
				<path fill="#FFFFFF" d="M106.662,192.08c3.917,0,5.875,2.026,5.875,6.08c0,0.164-0.006,0.327-0.018,0.489
					c-0.162,4.389-2.247,6.604-6.256,6.646c-0.047,0.01-0.093,0.014-0.139,0.014c-3.813,0-5.721-2.074-5.721-6.223v-0.359
					C100.521,194.296,102.606,192.08,106.662,192.08z M106.092,195.019c-0.726,0.188-1.222,0.889-1.486,2.1
					c-0.161,0.722-0.242,1.447-0.242,2.177c0,0.489,0.035,0.983,0.104,1.481c0.185,1.236,0.778,1.877,1.78,1.92h0.121
					c0.934,0,1.571-0.461,1.918-1.379c0.288-0.764,0.433-1.67,0.433-2.719c0-0.258-0.007-0.52-0.018-0.785
					c-0.094-1.383-0.369-2.246-0.83-2.59c-0.288-0.205-0.634-0.31-1.036-0.31C106.604,194.914,106.356,194.948,106.092,195.019z"/>
				<path fill="#FFFFFF" d="M128.575,194.747v3.221h-8.642v-3.221H128.575z"/>
				<path fill="#FFFFFF" d="M141.743,185.937c-0.207,4.475-0.313,8.309-0.313,11.504c0,1.271,0.019,2.442,0.052,3.517l7.708-0.283
					l0.121,4.199l-12.339,0.206c0.011-1.135,0.018-2.264,0.018-3.389c0-5.16-0.149-10.297-0.449-15.406L141.743,185.937z"/>
				<path fill="#FFFFFF" d="M156.57,192.08c3.998,0,5.996,1.979,5.996,5.938c0,0.48-0.027,0.996-0.086,1.545h-7.725
					c0,2.207,0.57,3.312,1.711,3.312h0.121c1.002-0.06,1.503-0.631,1.503-1.713c0-0.231-0.023-0.489-0.069-0.772l4.113-0.064
					c0,3.271-1.918,4.93-5.755,4.973c-0.046,0.01-0.086,0.014-0.121,0.014c-3.651,0-5.479-2.064-5.479-6.195v-0.387
					C150.896,194.296,152.826,192.08,156.57,192.08z M154.341,197.194h3.905v-0.311c0-1.562-0.594-2.344-1.779-2.344
					C155.188,194.541,154.479,195.426,154.341,197.194z"/>
				<path fill="#FFFFFF" d="M163.828,192.028l4.527-0.271c-0.104,2.577-0.155,4.698-0.155,6.364c0,0.627,0.012,1.188,0.034,1.688
					c0.047,1.838,0.6,2.781,1.659,2.834c0.068,0.008,0.132,0.013,0.189,0.013c0.944,0,1.544-0.403,1.798-1.212
					c0.138-0.471,0.207-1.592,0.207-3.361c0-1.417-0.046-3.246-0.139-5.486l4.252-0.232c0.046,2.619,0.067,4.869,0.067,6.751
					c0,2.344-0.034,4.112-0.104,5.307c-0.115,2.147-0.938,3.779-2.472,4.896c-1.383,1.014-3.323,1.521-5.823,1.521
					c-0.288,0-0.582-0.008-0.882-0.024l-0.483-3.145c0.219,0.01,0.433,0.014,0.64,0.014c1.937,0,3.26-0.254,3.976-0.761
					c0.736-0.522,1.105-1.364,1.105-2.524v-0.205c-0.657,0.771-1.665,1.158-3.023,1.158h-0.242c-1.486-0.052-2.64-0.486-3.456-1.308
					c-0.818-0.819-1.266-1.971-1.339-3.452C164.091,199.106,163.979,196.254,163.828,192.028z"/>
				<path fill="#FFFFFF" d="M24.499,230.694l-0.362-3.078c1.98-3.229,4.273-6.57,6.877-10.022l5.565,0.231l-0.069,9.945l2.437,0.039
					v3.078H36.58v5.424l-4.184-0.117l0.053-5.371L24.499,230.694z M32.518,227.81l0.052-6.646c-1.268,2.182-2.614,4.376-4.044,6.583
					L32.518,227.81z"/>
				<path fill="#FFFFFF" d="M45.133,227.255c0.897-1.262,2.2-1.895,3.905-1.895h0.035c1.716,0.01,3.023,0.479,3.923,1.412
					c0.898,0.932,1.376,2.002,1.434,3.213v0.322c0,1.107-0.253,2.211-0.76,3.312c-0.553,1.202-1.423,2.001-2.609,2.396
					c-0.864,0.301-1.838,0.451-2.921,0.451c-0.392,0-0.801-0.021-1.227-0.064c-1.579-0.146-2.84-0.687-3.785-1.623
					c-0.944-0.936-1.624-2.182-2.039-3.734c-0.312-1.143-0.467-2.422-0.467-3.839c0-0.498,0.022-1.011,0.068-1.533
					c0.14-2.026,0.484-3.678,1.037-4.953c0.553-1.274,1.377-2.184,2.473-2.725c1.07-0.522,2.292-0.786,3.662-0.786h0.104
					c1.405,0.018,2.595,0.355,3.568,1.018s1.604,1.563,1.893,2.707c0.185,0.754,0.276,1.498,0.276,2.229
					c0,0.386-0.023,0.764-0.069,1.133h-3.87c0.022-0.3,0.034-0.579,0.034-0.837c0-1.604-0.397-2.485-1.192-2.642
					c-0.207-0.033-0.402-0.051-0.588-0.051c-0.668,0-1.227,0.254-1.676,0.76c-0.588,0.652-0.95,1.555-1.089,2.705
					c-0.104,0.781-0.155,1.498-0.155,2.15C45.099,226.688,45.109,226.979,45.133,227.255z M45.479,229.703
					c0.023,1.133,0.223,1.981,0.598,2.544c0.374,0.563,0.93,0.887,1.667,0.973c0.114,0.019,0.235,0.025,0.362,0.025
					c0.576,0,1.089-0.176,1.538-0.528c0.495-0.386,0.743-1.082,0.743-2.087v-0.257c-0.047-1.144-0.582-1.812-1.607-2.011
					c-0.16-0.025-0.321-0.038-0.483-0.038C47.408,228.324,46.469,228.784,45.479,229.703z"/>
				<path fill="#FFFFFF" d="M55.709,223.933c-0.046-0.455-0.069-0.881-0.069-1.275c0-1.365,0.276-2.417,0.83-3.156
					c0.702-0.943,1.854-1.527,3.456-1.752c0.783-0.111,1.532-0.167,2.246-0.167c0.727,0,1.417,0.06,2.074,0.181
					c1.277,0.231,2.301,0.752,3.066,1.56c0.767,0.807,1.179,1.915,1.235,3.323v0.387c0,1.22-0.253,2.107-0.76,2.666
					c-0.565,0.627-1.492,1.1-2.782,1.417c1.071,0.12,1.875,0.409,2.41,0.87c0.536,0.459,0.907,1.074,1.113,1.849
					c0.115,0.429,0.174,0.901,0.174,1.417c0,0.421-0.04,0.876-0.12,1.365c-0.173,1.072-0.758,2.001-1.755,2.781
					c-0.996,0.781-2.531,1.189-4.605,1.225h-0.276c-1.945,0-3.502-0.378-4.666-1.135c-1.209-0.771-1.813-2.434-1.813-4.983v-0.078
					l4.477-0.192c-0.012,0.146-0.018,0.287-0.018,0.426c0,1.804,0.634,2.734,1.9,2.795c0.093,0.009,0.179,0.013,0.26,0.013
					c1.198,0,1.918-0.472,2.16-1.417c0.068-0.266,0.104-0.52,0.104-0.76c0-0.678-0.259-1.268-0.776-1.766
					c-0.716-0.67-1.896-1.004-3.544-1.004l-0.206-2.447c0.194,0.009,0.38,0.013,0.553,0.013c1.439,0,2.431-0.31,2.973-0.928
					c0.507-0.575,0.76-1.322,0.76-2.241c0-0.182-0.012-0.365-0.033-0.555c-0.104-1.1-0.768-1.648-1.987-1.648h-0.226
					c-1.21,0.061-1.813,0.962-1.813,2.705c0,0.206,0.006,0.426,0.017,0.657L55.709,223.933z"/>
				<path fill="#FFFFFF" d="M69.775,230.592l4.063-0.258c0,1.881,0.795,2.821,2.385,2.821c1.578,0,2.438-0.563,2.574-1.688
					c0.058-0.522,0.087-1.052,0.087-1.585c0-0.609-0.041-1.224-0.121-1.842c-0.149-1.125-0.771-1.688-1.866-1.688h-0.104
					c-1.176,0.043-2.028,0.726-2.559,2.047l-4.198-0.076l0.482-10.68l11.613-0.153l0.052,3.13l-7.689,0.115l-0.312,4.381
					c0.529-1.143,1.491-1.795,2.886-1.958c0.334-0.043,0.662-0.064,0.984-0.064c1.003,0,1.925,0.197,2.766,0.593
					c1.105,0.516,1.798,1.744,2.073,3.685c0.093,0.661,0.139,1.31,0.139,1.944c0,1.203-0.173,2.341-0.519,3.414
					c-0.53,1.641-1.566,2.658-3.11,3.054c-1.095,0.282-2.194,0.425-3.301,0.425c-0.449,0-0.904-0.025-1.365-0.077
					c-1.566-0.163-2.806-0.665-3.716-1.507c-0.841-0.766-1.262-1.945-1.262-3.543C69.758,230.927,69.764,230.765,69.775,230.592z"/>
				<path fill="#FFFFFF" d="M103.716,218.74c-0.069,2.903-0.104,5.946-0.104,9.134c0,2.902,0.028,5.925,0.087,9.068l-4.097,0.013
					l-0.138-1.972c-0.854,0.953-1.987,1.431-3.404,1.431c-3.537,0-5.306-2.019-5.306-6.056c0-0.084,0.006-0.17,0.018-0.256
					c0.068-4.045,1.82-6.067,5.253-6.067c0.14,0,0.282,0.004,0.434,0.013c1.175,0.053,2.125,0.528,2.851,1.43
					c0-1.906-0.063-4.151-0.188-6.736L103.716,218.74L103.716,218.74z M99.396,232.344l-0.087-4.456
					c-0.668-0.68-1.354-1.019-2.056-1.019c-0.288,0-0.576,0.056-0.864,0.167c-0.91,0.354-1.365,1.34-1.365,2.963
					c0,0.189,0.006,0.382,0.019,0.58c0.114,1.967,0.702,3.006,1.763,3.117c0.104,0.009,0.207,0.013,0.312,0.013
					C98.036,233.709,98.796,233.254,99.396,232.344z"/>
				<path fill="#FFFFFF" d="M110.697,223.737c3.998,0,5.996,1.979,5.996,5.938c0,0.481-0.027,0.997-0.086,1.546h-7.725
					c0,2.207,0.57,3.312,1.711,3.312h0.121c1.002-0.06,1.503-0.632,1.503-1.714c0-0.231-0.023-0.488-0.069-0.772l4.113-0.063
					c0,3.271-1.918,4.93-5.755,4.973c-0.046,0.009-0.086,0.014-0.121,0.014c-3.651,0-5.478-2.064-5.478-6.195v-0.387
					C105.023,225.954,106.953,223.737,110.697,223.737z M108.468,228.853h3.905v-0.31c0-1.562-0.594-2.344-1.779-2.344
					C109.314,226.199,108.606,227.084,108.468,228.853z"/>
				<path fill="#FFFFFF" d="M124.988,224.062c-0.058-0.517-0.086-0.992-0.086-1.431c0-1.537,0.374-2.646,1.123-3.323
					c0.956-0.867,2.179-1.388,3.663-1.56c0.53-0.06,1.049-0.09,1.557-0.09c0.909,0,1.784,0.095,2.627,0.282
					c1.313,0.302,2.304,0.895,2.972,1.778c0.542,0.738,0.812,1.683,0.812,2.835c0,0.223-0.006,0.459-0.018,0.707
					c-0.138,1.479-0.734,2.836-1.788,4.077c-1.055,1.241-2.877,3.017-5.47,5.327l7.552,0.038l-0.052,3.233
					c-3.308,0.111-7.569,0.168-12.788,0.168l-0.397-3.519c3.135-2.524,5.369-4.465,6.705-5.821c1.223-1.246,1.832-2.47,1.832-3.672
					v-0.322c-0.127-1.287-0.853-1.933-2.178-1.933h-0.068c-1.151,0.026-1.729,0.808-1.729,2.345c0,0.293,0.018,0.605,0.052,0.94
					L124.988,224.062z"/>
				<path fill="#FFFFFF" d="M146.763,217.724c4.551,0,6.826,3.092,6.826,9.274c0,6.19-2.438,9.287-7.312,9.287
					c-4.873,0-7.31-3.207-7.31-9.622C138.969,220.703,141.566,217.724,146.763,217.724z M143.652,227.088
					c-0.012,0.231-0.018,0.455-0.018,0.67c0,3.394,0.938,5.089,2.816,5.089c1.98,0,2.973-1.92,2.973-5.759s-0.928-5.759-2.782-5.759
					C144.787,221.329,143.79,223.249,143.652,227.088z"/>
				<path fill="#FFFFFF" d="M163.698,218.083c-0.08,4.055-0.121,8.086-0.121,12.098c0,2.01,0.012,4.014,0.034,6.016l-4.285,0.166
					c-0.08-5.16-0.18-9.939-0.294-14.336c-0.968,0.146-2.28,0.507-3.939,1.082l-0.83-2.821l4.805-2.269L163.698,218.083z"/>
				<path fill="#FFFFFF" d="M174.118,218.083c-0.08,4.055-0.121,8.086-0.121,12.098c0,2.01,0.012,4.014,0.035,6.016l-4.286,0.166
					c-0.08-5.16-0.18-9.939-0.294-14.336c-0.968,0.146-2.28,0.507-3.939,1.082l-0.83-2.821l4.805-2.269L174.118,218.083z"/>
			</g>
		</g>
		<g id="OB1yQF_18_">
			<g>
				<path fill="#8EC4EC" d="M207.607,247.181c-0.501,0.094-1.018,0.189-1.531,0.282c-3.206,0.581-6.409,1.163-9.613,1.749
					c-0.133,0.023-0.271,0.078-0.39,0.146c-3.184,1.898-6.371,3.803-9.556,5.703c-0.065,0.041-0.137,0.078-0.203,0.115
					c0.938-8.295,1.873-16.58,2.809-24.839C195.268,235.938,201.434,241.558,207.607,247.181z"/>
				<path fill="#8EC4EC" d="M199.352,237.582c-0.556-0.51-1.098-1.006-1.628-1.492c0.228-0.423,0.467-0.815,0.657-1.231
					c2.017-4.405,0.767-9.487-3.113-12.385c-4.58-3.418-10.895-2.427-14.17,2.076c-1.955,2.693-2.507,5.684-1.596,8.893
					c0.644,2.267,1.979,4.064,3.908,5.416c0.883,0.619,1.837,1.082,2.867,1.387c0.144,0.042,0.199,0.096,0.179,0.263
					c-0.09,0.679-0.16,1.359-0.237,2.041c-3.711-0.854-8.221-4.018-9.21-10.133c-0.907-5.606,2.239-11.117,7.473-13.235
					c5.394-2.183,11.474-0.438,14.803,4.274C202.744,228.349,201.824,234.108,199.352,237.582z"/>
				<path fill="#8EC4EC" d="M195.378,233.951c-0.546-0.503-1.081-0.993-1.607-1.491c-0.041-0.038-0.063-0.145-0.041-0.197
					c0.806-2.221-0.014-4.578-2.021-5.805c-2.213-1.352-5.13-0.691-6.562,1.482c-1.389,2.115-0.829,5.076,1.243,6.553
					c0.168,0.119,0.352,0.217,0.52,0.341c0.056,0.041,0.122,0.132,0.114,0.194c-0.073,0.693-0.157,1.387-0.243,2.08
					c-0.003,0.024-0.017,0.049-0.025,0.072c-2.278-0.815-4.528-3.16-4.594-6.447c-0.061-3.185,1.971-5.924,4.8-6.851
					c3.127-1.022,6.381,0.132,8.141,2.81C196.831,229.324,196.381,232.354,195.378,233.951z"/>
			</g>
		</g>
	</g>
</g>
</svg>
