<?xml version="1.0" encoding="utf-8"?>
<!-- Generator: Adobe Illustrator 16.0.0, SVG Export Plug-In . SVG Version: 6.00 Build 0)  -->
<!DOCTYPE svg PUBLIC "-//W3C//DTD SVG 1.1//EN" "http://www.w3.org/Graphics/SVG/1.1/DTD/svg11.dtd">
<svg version="1.1" id="Capa_1" xmlns="http://www.w3.org/2000/svg" xmlns:xlink="http://www.w3.org/1999/xlink" x="0px" y="0px"
	 width="804.533px" height="244.385px" viewBox="0 0 804.533 244.385" enable-background="new 0 0 804.533 244.385"
	 xml:space="preserve">
<g>
	<g>
		<g>
			<path fill="#6F3A89" d="M157.01,31.901c0,6.218-5.041,11.26-11.26,11.26H11.26C5.041,43.161,0,38.119,0,31.901V11.26
				C0,5.041,5.041,0,11.26,0h134.49c6.219,0,11.26,5.041,11.26,11.26V31.901z"/>
			<g>
				<path fill="#FFFFFF" d="M36.996,15.727h-2.361l-0.938-2.44H29.4l-0.887,2.44h-2.301L30.398,4.98h2.295L36.996,15.727z
					 M33,11.476l-1.48-3.987l-1.451,3.987H33z"/>
				<path fill="#FFFFFF" d="M38.132,15.727V4.98h2.06v10.746H38.132z"/>
				<path fill="#FFFFFF" d="M42.303,6.887V4.98h2.061v1.906H42.303z M42.303,15.727V7.942h2.061v7.784H42.303z"/>
				<path fill="#FFFFFF" d="M45.748,13.506l2.066-0.315c0.09,0.4,0.268,0.705,0.535,0.913c0.27,0.208,0.646,0.312,1.129,0.312
					c0.533,0,0.934-0.099,1.203-0.293c0.18-0.137,0.271-0.32,0.271-0.55c0-0.157-0.049-0.286-0.146-0.389
					c-0.104-0.098-0.334-0.188-0.689-0.271c-1.662-0.366-2.715-0.701-3.16-1.004c-0.615-0.421-0.923-1.005-0.923-1.752
					c0-0.675,0.267-1.242,0.798-1.701c0.533-0.459,1.359-0.689,2.479-0.689c1.066,0,1.857,0.174,2.375,0.521
					c0.518,0.347,0.875,0.86,1.07,1.539l-1.942,0.359C50.73,9.882,50.572,9.65,50.34,9.488c-0.23-0.16-0.562-0.241-0.992-0.241
					c-0.543,0-0.932,0.076-1.166,0.228c-0.156,0.107-0.234,0.246-0.234,0.418c0,0.146,0.068,0.271,0.205,0.373
					c0.186,0.137,0.828,0.33,1.924,0.579c1.098,0.249,1.863,0.555,2.299,0.917c0.43,0.366,0.645,0.877,0.645,1.531
					c0,0.714-0.297,1.327-0.895,1.84c-0.596,0.514-1.479,0.771-2.646,0.771c-1.061,0-1.898-0.216-2.518-0.646
					S45.939,14.244,45.748,13.506z"/>
				<path fill="#FFFFFF" d="M58.393,7.942v1.642h-1.406v3.138c0,0.635,0.014,1.005,0.039,1.11c0.027,0.105,0.088,0.191,0.184,0.26
					c0.096,0.069,0.212,0.104,0.348,0.104c0.191,0,0.467-0.066,0.83-0.198l0.175,1.599c-0.479,0.205-1.022,0.308-1.628,0.308
					c-0.371,0-0.705-0.062-1.004-0.188c-0.297-0.124-0.518-0.286-0.656-0.483c-0.139-0.198-0.234-0.466-0.289-0.803
					c-0.045-0.239-0.066-0.723-0.066-1.451V9.584h-0.945V7.942h0.945V6.396l2.068-1.202v2.749H58.393z"/>
				<path fill="#FFFFFF" d="M61.361,10.317L59.492,9.98c0.211-0.753,0.572-1.31,1.086-1.672c0.512-0.361,1.275-0.543,2.287-0.543
					c0.918,0,1.602,0.109,2.051,0.327c0.451,0.217,0.768,0.493,0.951,0.828c0.182,0.334,0.273,0.949,0.273,1.844l-0.021,2.404
					c0,0.685,0.033,1.188,0.1,1.514c0.064,0.325,0.189,0.673,0.369,1.044h-2.037c-0.055-0.136-0.121-0.34-0.199-0.607
					c-0.033-0.122-0.059-0.203-0.072-0.242c-0.352,0.342-0.729,0.598-1.129,0.77s-0.828,0.257-1.283,0.257
					c-0.801,0-1.434-0.218-1.895-0.653c-0.461-0.435-0.691-0.984-0.691-1.648c0-0.44,0.104-0.832,0.314-1.177
					c0.209-0.345,0.504-0.608,0.883-0.792s0.926-0.344,1.639-0.48c0.963-0.18,1.63-0.349,2-0.506v-0.205
					c0-0.396-0.098-0.678-0.293-0.846c-0.195-0.169-0.562-0.254-1.105-0.254c-0.367,0-0.653,0.072-0.859,0.217
					C61.656,9.702,61.488,9.955,61.361,10.317z M64.117,11.988c-0.263,0.088-0.682,0.193-1.252,0.315
					c-0.572,0.122-0.947,0.242-1.122,0.359c-0.269,0.19-0.403,0.433-0.403,0.726c0,0.289,0.107,0.538,0.322,0.748
					c0.215,0.209,0.488,0.314,0.82,0.314c0.372,0,0.727-0.121,1.064-0.366c0.248-0.187,0.412-0.413,0.49-0.682
					c0.055-0.176,0.08-0.511,0.08-1.004V11.988z"/>
				<path fill="#FFFFFF" d="M68.018,7.942h1.898v1.062c0.68-0.825,1.488-1.239,2.426-1.239c0.5,0,0.932,0.104,1.299,0.309
					c0.365,0.205,0.666,0.516,0.9,0.931c0.342-0.415,0.712-0.726,1.107-0.931c0.396-0.205,0.818-0.309,1.268-0.309
					c0.572,0,1.057,0.117,1.453,0.349c0.395,0.231,0.691,0.573,0.887,1.022c0.141,0.333,0.213,0.87,0.213,1.613v4.977h-2.061v-4.449
					c0-0.772-0.07-1.271-0.213-1.495c-0.19-0.294-0.484-0.44-0.879-0.44c-0.289,0-0.561,0.088-0.814,0.265
					c-0.254,0.176-0.438,0.433-0.549,0.773c-0.113,0.34-0.17,0.876-0.17,1.608v3.738h-2.059v-4.266c0-0.758-0.037-1.246-0.109-1.467
					c-0.074-0.22-0.188-0.383-0.342-0.49s-0.363-0.162-0.627-0.162c-0.318,0-0.604,0.086-0.857,0.257
					c-0.254,0.172-0.438,0.418-0.547,0.74c-0.109,0.323-0.164,0.858-0.164,1.605v3.782h-2.061V7.942z"/>
				<path fill="#FFFFFF" d="M81.52,6.887V4.98h2.061v1.906H81.52z M81.52,15.727V7.942h2.061v7.784H81.52z"/>
				<path fill="#FFFFFF" d="M90.199,13.249l2.053,0.345c-0.264,0.752-0.68,1.326-1.25,1.719c-0.568,0.394-1.281,0.591-2.137,0.591
					c-1.354,0-2.355-0.442-3.006-1.327c-0.512-0.708-0.77-1.603-0.77-2.683c0-1.29,0.338-2.301,1.012-3.031s1.527-1.097,2.559-1.097
					c1.158,0,2.072,0.383,2.742,1.147c0.67,0.766,0.988,1.937,0.961,3.516h-5.162c0.016,0.61,0.182,1.085,0.498,1.426
					c0.318,0.34,0.715,0.509,1.189,0.509c0.322,0,0.592-0.088,0.812-0.264S90.086,13.641,90.199,13.249z M90.316,11.168
					c-0.014-0.597-0.168-1.05-0.461-1.36s-0.65-0.466-1.07-0.466c-0.451,0-0.822,0.164-1.115,0.492
					c-0.293,0.326-0.436,0.771-0.432,1.334H90.316z"/>
				<path fill="#FFFFFF" d="M101.121,15.727h-2.059v-3.973c0-0.84-0.045-1.385-0.133-1.631s-0.23-0.439-0.428-0.575
					c-0.197-0.137-0.438-0.206-0.715-0.206c-0.357,0-0.678,0.099-0.961,0.294c-0.283,0.194-0.477,0.454-0.582,0.776
					c-0.105,0.323-0.158,0.92-0.158,1.789v3.525h-2.06V7.942h1.913v1.144c0.68-0.88,1.535-1.32,2.566-1.32
					c0.453,0,0.869,0.082,1.246,0.246c0.375,0.164,0.66,0.373,0.854,0.627s0.326,0.542,0.402,0.865
					c0.076,0.322,0.113,0.784,0.113,1.385V15.727z"/>
				<path fill="#FFFFFF" d="M106.781,7.942v1.642h-1.408v3.138c0,0.635,0.014,1.005,0.041,1.11s0.088,0.191,0.184,0.26
					c0.096,0.069,0.211,0.104,0.348,0.104c0.191,0,0.467-0.066,0.828-0.198l0.176,1.599c-0.479,0.205-1.021,0.308-1.627,0.308
					c-0.371,0-0.707-0.062-1.004-0.188c-0.299-0.124-0.518-0.286-0.656-0.483c-0.139-0.198-0.236-0.466-0.289-0.803
					c-0.045-0.239-0.066-0.723-0.066-1.451V9.584h-0.945V7.942h0.945V6.396l2.066-1.202v2.749H106.781z"/>
				<path fill="#FFFFFF" d="M107.734,11.725c0-0.685,0.168-1.346,0.506-1.986c0.336-0.641,0.814-1.129,1.433-1.467
					c0.618-0.337,1.308-0.506,2.071-0.506c1.178,0,2.143,0.383,2.896,1.147c0.75,0.766,1.127,1.731,1.127,2.899
					c0,1.178-0.379,2.154-1.139,2.929s-1.717,1.162-2.871,1.162c-0.713,0-1.393-0.161-2.041-0.484
					c-0.648-0.322-1.141-0.795-1.477-1.418C107.902,13.378,107.734,12.619,107.734,11.725z M109.846,11.835
					c0,0.772,0.184,1.363,0.549,1.773c0.367,0.411,0.818,0.616,1.357,0.616c0.537,0,0.988-0.205,1.352-0.616
					c0.363-0.41,0.547-1.007,0.547-1.788c0-0.763-0.184-1.35-0.547-1.76s-0.814-0.615-1.352-0.615c-0.539,0-0.99,0.205-1.357,0.615
					C110.029,10.471,109.846,11.062,109.846,11.835z"/>
				<path fill="#FFFFFF" d="M120.576,7.942h2.193l1.861,5.526l1.818-5.526h2.133l-2.75,7.491l-0.49,1.356
					c-0.182,0.454-0.354,0.802-0.518,1.041s-0.352,0.434-0.562,0.583c-0.215,0.148-0.475,0.265-0.785,0.348
					c-0.311,0.084-0.662,0.125-1.053,0.125c-0.395,0-0.783-0.041-1.166-0.125l-0.182-1.612c0.322,0.063,0.611,0.095,0.871,0.095
					c0.48,0,0.834-0.14,1.062-0.421c0.23-0.281,0.406-0.639,0.529-1.074L120.576,7.942z"/>
				<path fill="#FFFFFF" d="M10.471,28.145l-1.869-0.337c0.209-0.752,0.57-1.31,1.084-1.671c0.514-0.362,1.275-0.543,2.287-0.543
					c0.92,0,1.604,0.109,2.053,0.326s0.767,0.494,0.949,0.828c0.184,0.335,0.275,0.949,0.275,1.844l-0.021,2.404
					c0,0.685,0.033,1.188,0.098,1.514c0.066,0.326,0.19,0.674,0.371,1.045h-2.038c-0.054-0.137-0.12-0.34-0.198-0.608
					c-0.033-0.122-0.059-0.202-0.072-0.242c-0.353,0.342-0.729,0.599-1.129,0.771c-0.4,0.171-0.83,0.256-1.283,0.256
					c-0.803,0-1.434-0.217-1.895-0.652c-0.463-0.436-0.693-0.984-0.693-1.649c0-0.439,0.105-0.832,0.314-1.177
					c0.211-0.344,0.506-0.608,0.885-0.791c0.377-0.184,0.924-0.344,1.638-0.48c0.962-0.181,1.63-0.35,2.001-0.506V28.27
					c0-0.396-0.098-0.678-0.293-0.847s-0.564-0.253-1.107-0.253c-0.366,0-0.652,0.072-0.857,0.216
					C10.764,27.53,10.598,27.783,10.471,28.145z M13.227,29.816c-0.264,0.088-0.682,0.193-1.254,0.314
					c-0.572,0.122-0.945,0.242-1.121,0.359c-0.269,0.191-0.402,0.433-0.402,0.727c0,0.288,0.105,0.537,0.322,0.747
					c0.215,0.21,0.488,0.315,0.82,0.315c0.371,0,0.727-0.122,1.062-0.367c0.25-0.186,0.414-0.413,0.492-0.682
					c0.053-0.176,0.08-0.51,0.08-1.004V29.816z"/>
				<path fill="#FFFFFF" d="M24.361,33.555h-2.061v-3.973c0-0.841-0.043-1.385-0.131-1.632c-0.088-0.246-0.23-0.438-0.43-0.575
					c-0.197-0.137-0.436-0.205-0.714-0.205c-0.356,0-0.677,0.098-0.96,0.293s-0.479,0.455-0.584,0.777s-0.156,0.919-0.156,1.789
					v3.525h-2.061V25.77h1.914v1.144c0.678-0.88,1.533-1.319,2.564-1.319c0.455,0,0.871,0.082,1.246,0.246
					c0.377,0.164,0.66,0.373,0.855,0.626c0.191,0.254,0.326,0.543,0.402,0.865s0.113,0.784,0.113,1.386V33.555z"/>
				<path fill="#FFFFFF" d="M27.99,28.145l-1.869-0.337c0.209-0.752,0.572-1.31,1.086-1.671c0.512-0.362,1.274-0.543,2.285-0.543
					c0.92,0,1.604,0.109,2.053,0.326c0.45,0.217,0.766,0.494,0.949,0.828c0.184,0.335,0.275,0.949,0.275,1.844l-0.021,2.404
					c0,0.685,0.033,1.188,0.098,1.514c0.066,0.326,0.19,0.674,0.371,1.045h-2.039c-0.053-0.137-0.119-0.34-0.197-0.608
					c-0.033-0.122-0.059-0.202-0.072-0.242c-0.354,0.342-0.729,0.599-1.129,0.771c-0.4,0.171-0.828,0.256-1.283,0.256
					c-0.801,0-1.434-0.217-1.895-0.652c-0.463-0.436-0.693-0.984-0.693-1.649c0-0.439,0.105-0.832,0.314-1.177
					c0.211-0.344,0.506-0.608,0.885-0.791c0.377-0.184,0.924-0.344,1.637-0.48c0.965-0.181,1.631-0.35,2.002-0.506V28.27
					c0-0.396-0.098-0.678-0.293-0.847s-0.564-0.253-1.107-0.253c-0.365,0-0.652,0.072-0.857,0.216
					C28.283,27.53,28.117,27.783,27.99,28.145z M30.746,29.816c-0.264,0.088-0.682,0.193-1.254,0.314
					c-0.57,0.122-0.945,0.242-1.121,0.359c-0.268,0.191-0.402,0.433-0.402,0.727c0,0.288,0.105,0.537,0.322,0.747
					c0.215,0.21,0.488,0.315,0.82,0.315c0.371,0,0.727-0.122,1.062-0.367c0.25-0.186,0.414-0.413,0.492-0.682
					c0.055-0.176,0.08-0.51,0.08-1.004V29.816z M28.518,24.816l1.012-2.191h2.309l-2.016,2.191H28.518z"/>
				<path fill="#FFFFFF" d="M34.801,33.555V22.809h2.059v10.746H34.801z"/>
				<path fill="#FFFFFF" d="M38.971,24.714v-1.905h2.061v1.905H38.971z M38.971,33.555V25.77h2.061v7.785H38.971z"/>
				<path fill="#FFFFFF" d="M42.416,31.334l2.066-0.315c0.09,0.4,0.268,0.704,0.535,0.912c0.27,0.208,0.646,0.312,1.129,0.312
					c0.533,0,0.936-0.098,1.203-0.293c0.182-0.137,0.271-0.32,0.271-0.55c0-0.156-0.049-0.286-0.146-0.389
					c-0.103-0.098-0.334-0.188-0.689-0.271c-1.662-0.367-2.715-0.701-3.16-1.005c-0.615-0.421-0.924-1.004-0.924-1.752
					c0-0.675,0.268-1.241,0.801-1.7c0.531-0.459,1.357-0.689,2.477-0.689c1.066,0,1.857,0.174,2.375,0.521
					c0.518,0.348,0.875,0.86,1.07,1.539l-1.941,0.359c-0.084-0.304-0.242-0.535-0.474-0.696s-0.563-0.242-0.993-0.242
					c-0.543,0-0.932,0.076-1.166,0.228c-0.156,0.107-0.234,0.247-0.234,0.418c0,0.146,0.068,0.271,0.205,0.374
					c0.186,0.137,0.828,0.33,1.924,0.579c1.098,0.249,1.863,0.554,2.299,0.916c0.43,0.366,0.645,0.877,0.645,1.532
					c0,0.714-0.297,1.326-0.895,1.84c-0.596,0.514-1.477,0.77-2.646,0.77c-1.059,0-1.898-0.215-2.518-0.645
					C43.012,32.656,42.607,32.071,42.416,31.334z"/>
				<path fill="#FFFFFF" d="M51.492,24.714v-1.905h2.059v1.905H51.492z M51.492,33.555V25.77h2.059v7.785H51.492z"/>
				<path fill="#FFFFFF" d="M54.938,31.334l2.066-0.315c0.088,0.4,0.267,0.704,0.535,0.912c0.268,0.208,0.645,0.312,1.129,0.312
					c0.531,0,0.934-0.098,1.201-0.293c0.182-0.137,0.271-0.32,0.271-0.55c0-0.156-0.048-0.286-0.146-0.389
					c-0.102-0.098-0.332-0.188-0.689-0.271c-1.66-0.367-2.715-0.701-3.158-1.005c-0.615-0.421-0.924-1.004-0.924-1.752
					c0-0.675,0.266-1.241,0.799-1.7s1.359-0.689,2.479-0.689c1.064,0,1.857,0.174,2.375,0.521c0.518,0.348,0.875,0.86,1.07,1.539
					l-1.943,0.359c-0.084-0.304-0.24-0.535-0.473-0.696s-0.564-0.242-0.993-0.242c-0.542,0-0.931,0.076-1.165,0.228
					c-0.158,0.107-0.234,0.247-0.234,0.418c0,0.146,0.068,0.271,0.205,0.374c0.186,0.137,0.826,0.33,1.924,0.579
					s1.863,0.554,2.297,0.916c0.43,0.366,0.646,0.877,0.646,1.532c0,0.714-0.299,1.326-0.895,1.84
					c-0.598,0.514-1.479,0.77-2.646,0.77c-1.061,0-1.9-0.215-2.518-0.645C55.531,32.656,55.127,32.071,54.938,31.334z"/>
				<path fill="#FFFFFF" d="M75.322,33.555H73.41v-1.144c-0.318,0.444-0.693,0.776-1.127,0.993
					c-0.432,0.217-0.867,0.326-1.309,0.326c-0.893,0-1.66-0.36-2.297-1.081c-0.638-0.722-0.957-1.727-0.957-3.017
					c0-1.319,0.311-2.322,0.932-3.009c0.619-0.687,1.404-1.03,2.353-1.03c0.87,0,1.623,0.362,2.257,1.085v-3.87h2.061V33.555z
					 M69.824,29.494c0,0.83,0.115,1.432,0.346,1.803c0.332,0.538,0.795,0.807,1.393,0.807c0.474,0,0.877-0.202,1.209-0.605
					c0.332-0.402,0.498-1.005,0.498-1.807c0-0.895-0.16-1.538-0.482-1.932c-0.324-0.393-0.736-0.59-1.24-0.59
					c-0.488,0-0.898,0.194-1.227,0.583C69.99,28.141,69.824,28.721,69.824,29.494z"/>
				<path fill="#FFFFFF" d="M81.861,31.077l2.053,0.345c-0.264,0.752-0.682,1.325-1.25,1.719c-0.568,0.393-1.281,0.59-2.137,0.59
					c-1.354,0-2.355-0.442-3.006-1.326c-0.513-0.709-0.77-1.604-0.77-2.684c0-1.29,0.338-2.301,1.012-3.031s1.527-1.096,2.559-1.096
					c1.158,0,2.072,0.382,2.74,1.147c0.67,0.765,0.99,1.937,0.961,3.515h-5.16c0.014,0.611,0.181,1.086,0.498,1.426
					c0.318,0.34,0.715,0.51,1.188,0.51c0.323,0,0.594-0.088,0.814-0.264C81.582,31.752,81.748,31.469,81.861,31.077z M81.979,28.995
					c-0.016-0.597-0.168-1.049-0.461-1.36c-0.295-0.311-0.65-0.465-1.07-0.465c-0.451,0-0.822,0.164-1.115,0.491
					s-0.438,0.772-0.432,1.334H81.979z"/>
				<path fill="#FFFFFF" d="M96.662,28.071l-2.031,0.366c-0.068-0.405-0.223-0.711-0.465-0.916s-0.557-0.308-0.943-0.308
					c-0.512,0-0.922,0.177-1.227,0.531c-0.306,0.354-0.459,0.946-0.459,1.778c0,0.923,0.154,1.575,0.465,1.957
					c0.312,0.381,0.729,0.571,1.251,0.571c0.392,0,0.71-0.11,0.96-0.333s0.426-0.605,0.527-1.147l2.023,0.345
					c-0.209,0.928-0.613,1.63-1.209,2.104c-0.598,0.474-1.396,0.711-2.396,0.711c-1.141,0-2.047-0.359-2.725-1.077
					c-0.676-0.719-1.016-1.713-1.016-2.983c0-1.286,0.342-2.287,1.02-3.002c0.68-0.716,1.599-1.074,2.758-1.074
					c0.947,0,1.701,0.204,2.26,0.612C96.016,26.613,96.416,27.236,96.662,28.071z"/>
				<path fill="#FFFFFF" d="M97.746,29.553c0-0.686,0.168-1.347,0.506-1.987c0.338-0.64,0.814-1.129,1.434-1.466
					s1.309-0.506,2.07-0.506c1.178,0,2.143,0.382,2.896,1.147c0.752,0.765,1.129,1.73,1.129,2.899c0,1.177-0.381,2.154-1.141,2.928
					c-0.76,0.774-1.717,1.162-2.869,1.162c-0.715,0-1.395-0.161-2.043-0.483c-0.646-0.323-1.139-0.796-1.477-1.419
					S97.746,30.446,97.746,29.553z M99.857,29.662c0,0.772,0.184,1.363,0.55,1.774c0.366,0.41,0.818,0.615,1.356,0.615
					c0.537,0,0.988-0.205,1.352-0.615c0.365-0.411,0.547-1.007,0.547-1.789c0-0.763-0.182-1.349-0.547-1.759
					c-0.363-0.411-0.814-0.616-1.352-0.616c-0.538,0-0.99,0.205-1.356,0.616C100.041,28.299,99.857,28.89,99.857,29.662z"/>
				<path fill="#FFFFFF" d="M114.475,33.555h-2.061v-3.973c0-0.841-0.043-1.385-0.131-1.632c-0.088-0.246-0.23-0.438-0.43-0.575
					c-0.197-0.137-0.436-0.205-0.715-0.205c-0.355,0-0.678,0.098-0.961,0.293c-0.281,0.195-0.477,0.455-0.582,0.777
					s-0.157,0.919-0.157,1.789v3.525h-2.06V25.77h1.913v1.144c0.679-0.88,1.534-1.319,2.565-1.319c0.455,0,0.869,0.082,1.246,0.246
					s0.66,0.373,0.854,0.626c0.193,0.254,0.328,0.543,0.404,0.865s0.113,0.784,0.113,1.386V33.555z"/>
				<path fill="#FFFFFF" d="M120.133,25.77v1.643h-1.406v3.137c0,0.635,0.014,1.006,0.039,1.111c0.027,0.105,0.089,0.191,0.184,0.26
					c0.096,0.068,0.213,0.103,0.348,0.103c0.191,0,0.467-0.065,0.83-0.198l0.176,1.599c-0.48,0.205-1.021,0.308-1.629,0.308
					c-0.369,0-0.705-0.062-1.004-0.187c-0.297-0.125-0.516-0.286-0.656-0.484c-0.139-0.198-0.234-0.465-0.289-0.803
					c-0.043-0.239-0.065-0.723-0.065-1.451v-3.394h-0.946V25.77h0.946v-1.547l2.067-1.202v2.749H120.133z"/>
				<path fill="#FFFFFF" d="M126.072,31.077l2.051,0.345c-0.264,0.752-0.68,1.325-1.25,1.719c-0.568,0.393-1.281,0.59-2.135,0.59
					c-1.355,0-2.357-0.442-3.008-1.326c-0.512-0.709-0.77-1.604-0.77-2.684c0-1.29,0.338-2.301,1.013-3.031s1.526-1.096,2.558-1.096
					c1.158,0,2.072,0.382,2.742,1.147c0.67,0.765,0.99,1.937,0.961,3.515h-5.162c0.016,0.611,0.182,1.086,0.5,1.426
					c0.317,0.34,0.713,0.51,1.188,0.51c0.322,0,0.594-0.088,0.812-0.264C125.793,31.752,125.959,31.469,126.072,31.077z
					 M126.188,28.995c-0.014-0.597-0.168-1.049-0.461-1.36c-0.293-0.311-0.65-0.465-1.07-0.465c-0.449,0-0.82,0.164-1.113,0.491
					c-0.295,0.327-0.438,0.772-0.434,1.334H126.188z"/>
				<path fill="#FFFFFF" d="M128.924,33.555l2.807-4.01l-2.69-3.775h2.515l1.377,2.141l1.451-2.141h2.42l-2.639,3.688l2.881,4.098
					h-2.529l-1.584-2.412l-1.598,2.412H128.924z"/>
				<path fill="#FFFFFF" d="M141.832,25.77v1.643h-1.408v3.137c0,0.635,0.014,1.006,0.041,1.111c0.026,0.105,0.088,0.191,0.184,0.26
					c0.095,0.068,0.211,0.103,0.348,0.103c0.19,0,0.467-0.065,0.828-0.198L142,33.423c-0.479,0.205-1.021,0.308-1.627,0.308
					c-0.371,0-0.707-0.062-1.004-0.187c-0.299-0.125-0.518-0.286-0.656-0.484c-0.141-0.198-0.236-0.465-0.291-0.803
					c-0.043-0.239-0.064-0.723-0.064-1.451v-3.394h-0.945V25.77h0.945v-1.547l2.066-1.202v2.749H141.832z"/>
				<path fill="#FFFFFF" d="M142.785,29.553c0-0.686,0.168-1.347,0.506-1.987c0.336-0.64,0.814-1.129,1.432-1.466
					c0.619-0.337,1.309-0.506,2.072-0.506c1.176,0,2.143,0.382,2.895,1.147c0.753,0.765,1.129,1.73,1.129,2.899
					c0,1.177-0.38,2.154-1.141,2.928c-0.758,0.774-1.715,1.162-2.869,1.162c-0.713,0-1.393-0.161-2.041-0.483
					c-0.648-0.323-1.141-0.796-1.477-1.419C142.953,31.205,142.785,30.446,142.785,29.553z M144.896,29.662
					c0,0.772,0.184,1.363,0.549,1.774c0.367,0.41,0.818,0.615,1.355,0.615c0.539,0,0.99-0.205,1.354-0.615
					c0.363-0.411,0.545-1.007,0.545-1.789c0-0.763-0.182-1.349-0.545-1.759c-0.363-0.411-0.814-0.616-1.354-0.616
					c-0.537,0-0.988,0.205-1.355,0.616C145.08,28.299,144.896,28.89,144.896,29.662z"/>
			</g>
		</g>
		<g>
			<path fill="#6F3A89" d="M318.891,31.901c0,6.218-5.041,11.26-11.26,11.26H173.142c-6.218,0-11.259-5.042-11.259-11.26V11.26
				c0-6.219,5.041-11.26,11.259-11.26h134.489c6.219,0,11.26,5.041,11.26,11.26V31.901z"/>
			<g>
				<path fill="#FFFFFF" d="M199.051,15.727V4.98h7.367v1.818h-5.197v2.543h4.484v1.818h-4.484v4.566H199.051z"/>
				<path fill="#FFFFFF" d="M207.715,11.725c0-0.685,0.168-1.346,0.506-1.986c0.337-0.641,0.814-1.129,1.434-1.467
					c0.617-0.337,1.307-0.506,2.07-0.506c1.178,0,2.143,0.383,2.896,1.147c0.752,0.766,1.128,1.731,1.128,2.899
					c0,1.178-0.379,2.154-1.139,2.929s-1.717,1.162-2.87,1.162c-0.714,0-1.394-0.161-2.042-0.484
					c-0.648-0.322-1.14-0.795-1.477-1.418C207.883,13.378,207.715,12.619,207.715,11.725z M209.826,11.835
					c0,0.772,0.184,1.363,0.549,1.773c0.367,0.411,0.818,0.616,1.357,0.616c0.537,0,0.988-0.205,1.352-0.616
					c0.363-0.41,0.547-1.007,0.547-1.788c0-0.763-0.184-1.35-0.547-1.76s-0.814-0.615-1.352-0.615c-0.539,0-0.99,0.205-1.357,0.615
					C210.01,10.471,209.826,11.062,209.826,11.835z"/>
				<path fill="#FFFFFF" d="M224.148,10.244l-2.029,0.366c-0.068-0.405-0.225-0.711-0.465-0.916
					c-0.242-0.206-0.557-0.308-0.943-0.308c-0.514,0-0.922,0.176-1.227,0.531c-0.307,0.354-0.459,0.946-0.459,1.777
					c0,0.924,0.154,1.576,0.466,1.957c0.31,0.381,0.726,0.572,1.249,0.572c0.393,0,0.711-0.111,0.961-0.334
					c0.248-0.223,0.426-0.604,0.527-1.146l2.023,0.344c-0.209,0.929-0.613,1.631-1.209,2.104c-0.596,0.475-1.396,0.712-2.397,0.712
					c-1.14,0-2.046-0.359-2.724-1.078c-0.678-0.718-1.015-1.712-1.015-2.983c0-1.285,0.341-2.286,1.019-3.002
					c0.68-0.715,1.598-1.074,2.756-1.074c0.949,0,1.701,0.205,2.262,0.613C223.504,8.786,223.904,9.408,224.148,10.244z"/>
				<path fill="#FFFFFF" d="M227.25,10.317l-1.869-0.337c0.209-0.753,0.572-1.31,1.084-1.672c0.514-0.361,1.277-0.543,2.288-0.543
					c0.919,0,1.603,0.109,2.053,0.327c0.45,0.217,0.767,0.493,0.948,0.828c0.184,0.334,0.275,0.949,0.275,1.844l-0.021,2.404
					c0,0.685,0.033,1.188,0.1,1.514c0.065,0.325,0.189,0.673,0.369,1.044h-2.037c-0.055-0.136-0.121-0.34-0.199-0.607
					c-0.033-0.122-0.059-0.203-0.072-0.242c-0.352,0.342-0.729,0.598-1.129,0.77s-0.828,0.257-1.283,0.257
					c-0.801,0-1.433-0.218-1.895-0.653c-0.463-0.435-0.693-0.984-0.693-1.648c0-0.44,0.105-0.832,0.316-1.177
					c0.209-0.345,0.504-0.608,0.883-0.792s0.924-0.344,1.639-0.48c0.963-0.18,1.629-0.349,2-0.506v-0.205
					c0-0.396-0.098-0.678-0.293-0.846c-0.195-0.169-0.564-0.254-1.106-0.254c-0.366,0-0.653,0.072-0.858,0.217
					C227.543,9.702,227.377,9.955,227.25,10.317z M230.006,11.988c-0.264,0.088-0.682,0.193-1.253,0.315s-0.946,0.242-1.122,0.359
					c-0.268,0.19-0.402,0.433-0.402,0.726c0,0.289,0.107,0.538,0.322,0.748c0.215,0.209,0.488,0.314,0.821,0.314
					c0.371,0,0.726-0.121,1.062-0.366c0.25-0.187,0.414-0.413,0.492-0.682c0.055-0.176,0.08-0.511,0.08-1.004V11.988z"/>
				<path fill="#FFFFFF" d="M234.061,15.727V4.98h2.06v10.746H234.061z"/>
				<path fill="#FFFFFF" d="M238.23,6.887V4.98h2.061v1.906H238.23z M238.23,15.727V7.942h2.061v7.784H238.23z"/>
				<path fill="#FFFFFF" d="M241.574,15.727v-1.604l2.918-3.351c0.479-0.547,0.832-0.936,1.062-1.165
					c-0.24,0.015-0.555,0.024-0.945,0.029l-2.75,0.015V7.942h6.436V9.4l-2.975,3.432l-1.049,1.136
					c0.572-0.034,0.926-0.052,1.062-0.052h3.189v1.811H241.574z"/>
				<path fill="#FFFFFF" d="M251.447,10.317l-1.869-0.337c0.211-0.753,0.572-1.31,1.086-1.672c0.513-0.361,1.275-0.543,2.287-0.543
					c0.918,0,1.602,0.109,2.053,0.327c0.449,0.217,0.766,0.493,0.949,0.828c0.184,0.334,0.273,0.949,0.273,1.844l-0.021,2.404
					c0,0.685,0.033,1.188,0.1,1.514s0.189,0.673,0.369,1.044h-2.037c-0.055-0.136-0.121-0.34-0.197-0.607
					c-0.035-0.122-0.059-0.203-0.074-0.242c-0.352,0.342-0.729,0.598-1.129,0.77s-0.828,0.257-1.283,0.257
					c-0.801,0-1.432-0.218-1.895-0.653c-0.461-0.435-0.693-0.984-0.693-1.648c0-0.44,0.107-0.832,0.316-1.177
					s0.505-0.608,0.883-0.792c0.379-0.184,0.924-0.344,1.639-0.48c0.963-0.18,1.629-0.349,2.001-0.506v-0.205
					c0-0.396-0.098-0.678-0.293-0.846c-0.196-0.169-0.565-0.254-1.106-0.254c-0.367,0-0.652,0.072-0.857,0.217
					C251.74,9.702,251.575,9.955,251.447,10.317z M254.204,11.988c-0.265,0.088-0.682,0.193-1.253,0.315
					c-0.572,0.122-0.945,0.242-1.123,0.359c-0.268,0.19-0.402,0.433-0.402,0.726c0,0.289,0.107,0.538,0.322,0.748
					c0.215,0.209,0.488,0.314,0.822,0.314c0.371,0,0.725-0.121,1.062-0.366c0.248-0.187,0.412-0.413,0.49-0.682
					c0.055-0.176,0.081-0.511,0.081-1.004V11.988z"/>
				<path fill="#FFFFFF" d="M265.045,10.244l-2.029,0.366c-0.068-0.405-0.224-0.711-0.467-0.916
					c-0.24-0.206-0.555-0.308-0.941-0.308c-0.514,0-0.922,0.176-1.227,0.531c-0.306,0.354-0.459,0.946-0.459,1.777
					c0,0.924,0.154,1.576,0.465,1.957s0.729,0.572,1.25,0.572c0.393,0,0.711-0.111,0.961-0.334c0.248-0.223,0.426-0.604,0.527-1.146
					l2.023,0.344c-0.209,0.929-0.613,1.631-1.209,2.104c-0.598,0.475-1.396,0.712-2.398,0.712c-1.137,0-2.045-0.359-2.723-1.078
					c-0.677-0.718-1.016-1.712-1.016-2.983c0-1.285,0.34-2.286,1.02-3.002c0.68-0.715,1.598-1.074,2.756-1.074
					c0.949,0,1.703,0.205,2.262,0.613C264.4,8.786,264.801,9.408,265.045,10.244z"/>
				<path fill="#FFFFFF" d="M266.607,6.887V4.98h2.059v1.906H266.607z M266.607,15.727V7.942h2.059v7.784H266.607z"/>
				<path fill="#FFFFFF" d="M270.301,11.725c0-0.685,0.17-1.346,0.506-1.986c0.338-0.641,0.814-1.129,1.434-1.467
					c0.619-0.337,1.309-0.506,2.07-0.506c1.178,0,2.145,0.383,2.896,1.147c0.752,0.766,1.129,1.731,1.129,2.899
					c0,1.178-0.381,2.154-1.139,2.929c-0.762,0.774-1.717,1.162-2.871,1.162c-0.713,0-1.395-0.161-2.041-0.484
					c-0.648-0.322-1.141-0.795-1.479-1.418C270.471,13.378,270.301,12.619,270.301,11.725z M272.412,11.835
					c0,0.772,0.184,1.363,0.551,1.773c0.367,0.411,0.818,0.616,1.355,0.616c0.539,0,0.988-0.205,1.354-0.616
					c0.363-0.41,0.545-1.007,0.545-1.788c0-0.763-0.182-1.35-0.545-1.76c-0.365-0.41-0.814-0.615-1.354-0.615
					c-0.537,0-0.988,0.205-1.355,0.615S272.412,11.062,272.412,11.835z M273.277,6.989l1.012-2.192h2.309l-2.016,2.192H273.277z"/>
				<path fill="#FFFFFF" d="M287.029,15.727h-2.059v-3.973c0-0.84-0.045-1.385-0.133-1.631s-0.23-0.439-0.43-0.575
					c-0.197-0.137-0.436-0.206-0.713-0.206c-0.357,0-0.678,0.099-0.961,0.294c-0.283,0.194-0.478,0.454-0.584,0.776
					c-0.104,0.323-0.156,0.92-0.156,1.789v3.525h-2.061V7.942h1.914v1.144c0.678-0.88,1.535-1.32,2.564-1.32
					c0.455,0,0.871,0.082,1.247,0.246s0.661,0.373,0.854,0.627s0.326,0.542,0.402,0.865c0.076,0.322,0.113,0.784,0.113,1.385V15.727
					z"/>
				<path fill="#FFFFFF" d="M194.293,25.77h2.191l1.861,5.527l1.818-5.527h2.133l-2.748,7.492l-0.491,1.355
					c-0.181,0.455-0.353,0.803-0.517,1.041c-0.164,0.239-0.352,0.434-0.564,0.583s-0.475,0.265-0.785,0.349
					c-0.311,0.083-0.66,0.124-1.051,0.124c-0.396,0-0.785-0.041-1.166-0.124l-0.184-1.613c0.322,0.063,0.613,0.096,0.873,0.096
					c0.479,0,0.832-0.141,1.062-0.422s0.406-0.639,0.527-1.074L194.293,25.77z"/>
				<path fill="#FFFFFF" d="M207.729,25.77h1.922v1.144c0.248-0.392,0.586-0.708,1.012-0.952c0.424-0.245,0.896-0.367,1.414-0.367
					c0.904,0,1.672,0.354,2.301,1.062c0.631,0.709,0.947,1.696,0.947,2.962c0,1.3-0.318,2.31-0.953,3.031
					c-0.635,0.721-1.404,1.081-2.31,1.081c-0.431,0-0.819-0.085-1.169-0.256c-0.35-0.172-0.719-0.465-1.104-0.88v3.921h-2.061V25.77
					z M209.768,29.53c0,0.875,0.172,1.521,0.52,1.938s0.771,0.627,1.268,0.627c0.48,0,0.877-0.191,1.195-0.575
					s0.477-1.013,0.477-1.888c0-0.816-0.164-1.422-0.49-1.818c-0.328-0.396-0.734-0.594-1.217-0.594
					c-0.504,0-0.922,0.195-1.254,0.583C209.934,28.192,209.768,28.768,209.768,29.53z"/>
				<path fill="#FFFFFF" d="M218.93,33.555h-2.059V25.77h1.912v1.107c0.328-0.523,0.623-0.868,0.883-1.034
					c0.262-0.165,0.559-0.249,0.892-0.249c0.47,0,0.921,0.129,1.356,0.389l-0.639,1.796c-0.346-0.225-0.669-0.337-0.967-0.337
					c-0.289,0-0.533,0.079-0.733,0.238c-0.2,0.158-0.358,0.445-0.474,0.861c-0.113,0.415-0.172,1.285-0.172,2.609V33.555z"/>
				<path fill="#FFFFFF" d="M222.801,24.714v-1.905h2.061v1.905H222.801z M222.801,33.555V25.77h2.061v7.785H222.801z"/>
				<path fill="#FFFFFF" d="M226.495,29.553c0-0.686,0.169-1.347,0.505-1.987c0.338-0.64,0.816-1.129,1.434-1.466
					c0.619-0.337,1.309-0.506,2.071-0.506c1.177,0,2.144,0.382,2.896,1.147c0.752,0.765,1.129,1.73,1.129,2.899
					c0,1.177-0.381,2.154-1.14,2.928c-0.761,0.774-1.716,1.162-2.87,1.162c-0.714,0-1.395-0.161-2.041-0.483
					c-0.648-0.323-1.141-0.796-1.479-1.419C226.664,31.205,226.495,30.446,226.495,29.553z M228.606,29.662
					c0,0.772,0.183,1.363,0.55,1.774c0.367,0.41,0.818,0.615,1.355,0.615c0.539,0,0.988-0.205,1.354-0.615
					c0.363-0.411,0.545-1.007,0.545-1.789c0-0.763-0.182-1.349-0.545-1.759c-0.365-0.411-0.814-0.616-1.354-0.616
					c-0.537,0-0.988,0.205-1.355,0.616C228.789,28.299,228.606,28.89,228.606,29.662z"/>
				<path fill="#FFFFFF" d="M238.115,33.555h-2.061V25.77h1.912v1.107c0.328-0.523,0.623-0.868,0.883-1.034
					c0.262-0.165,0.559-0.249,0.891-0.249c0.471,0,0.922,0.129,1.357,0.389l-0.638,1.796c-0.347-0.225-0.671-0.337-0.968-0.337
					c-0.289,0-0.533,0.079-0.732,0.238c-0.201,0.158-0.359,0.445-0.475,0.861c-0.113,0.415-0.17,1.285-0.17,2.609V33.555z"/>
				<path fill="#FFFFFF" d="M241.984,24.714v-1.905h2.061v1.905H241.984z M241.984,33.555V25.77h2.061v7.785H241.984z"/>
				<path fill="#FFFFFF" d="M245.327,33.555v-1.605l2.917-3.35c0.48-0.547,0.834-0.936,1.062-1.166
					c-0.238,0.015-0.553,0.025-0.945,0.029l-2.748,0.015V25.77h6.436v1.459l-2.977,3.431l-1.047,1.136
					c0.571-0.033,0.926-0.051,1.062-0.051h3.188v1.811H245.327z"/>
				<path fill="#FFFFFF" d="M255.201,28.145l-1.869-0.337c0.209-0.752,0.572-1.31,1.084-1.671c0.514-0.362,1.275-0.543,2.288-0.543
					c0.919,0,1.603,0.109,2.052,0.326c0.451,0.217,0.767,0.494,0.949,0.828c0.184,0.335,0.275,0.949,0.275,1.844l-0.021,2.404
					c0,0.685,0.033,1.188,0.099,1.514c0.065,0.326,0.19,0.674,0.37,1.045h-2.037c-0.055-0.137-0.121-0.34-0.199-0.608
					c-0.033-0.122-0.059-0.202-0.072-0.242c-0.352,0.342-0.729,0.599-1.129,0.771c-0.4,0.171-0.828,0.256-1.283,0.256
					c-0.801,0-1.434-0.217-1.895-0.652c-0.463-0.436-0.693-0.984-0.693-1.649c0-0.439,0.105-0.832,0.314-1.177
					c0.211-0.344,0.506-0.608,0.885-0.791c0.379-0.184,0.924-0.344,1.638-0.48c0.964-0.181,1.63-0.35,2.001-0.506V28.27
					c0-0.396-0.098-0.678-0.293-0.847s-0.564-0.253-1.107-0.253c-0.365,0-0.652,0.072-0.857,0.216
					C255.494,27.53,255.328,27.783,255.201,28.145z M257.957,29.816c-0.264,0.088-0.682,0.193-1.253,0.314
					c-0.571,0.122-0.946,0.242-1.122,0.359c-0.268,0.191-0.402,0.433-0.402,0.727c0,0.288,0.107,0.537,0.322,0.747
					s0.488,0.315,0.82,0.315c0.371,0,0.727-0.122,1.062-0.367c0.25-0.186,0.414-0.413,0.492-0.682c0.053-0.176,0.08-0.51,0.08-1.004
					V29.816z"/>
				<path fill="#FFFFFF" d="M268.799,28.071l-2.031,0.366c-0.068-0.405-0.223-0.711-0.465-0.916s-0.557-0.308-0.941-0.308
					c-0.514,0-0.923,0.177-1.229,0.531c-0.305,0.354-0.457,0.946-0.457,1.778c0,0.923,0.154,1.575,0.465,1.957
					c0.311,0.381,0.727,0.571,1.25,0.571c0.391,0,0.711-0.11,0.959-0.333c0.25-0.223,0.426-0.605,0.529-1.147l2.023,0.345
					c-0.211,0.928-0.613,1.63-1.211,2.104c-0.596,0.474-1.395,0.711-2.396,0.711c-1.139,0-2.047-0.359-2.723-1.077
					c-0.678-0.719-1.016-1.713-1.016-2.983c0-1.286,0.34-2.287,1.02-3.002c0.678-0.716,1.598-1.074,2.756-1.074
					c0.949,0,1.701,0.204,2.262,0.612C268.154,26.613,268.555,27.236,268.799,28.071z"/>
				<path fill="#FFFFFF" d="M270.359,24.714v-1.905h2.061v1.905H270.359z M270.359,33.555V25.77h2.061v7.785H270.359z"/>
				<path fill="#FFFFFF" d="M274.055,29.553c0-0.686,0.168-1.347,0.506-1.987c0.338-0.64,0.814-1.129,1.434-1.466
					s1.309-0.506,2.07-0.506c1.178,0,2.144,0.382,2.896,1.147c0.752,0.765,1.129,1.73,1.129,2.899c0,1.177-0.381,2.154-1.141,2.928
					c-0.76,0.774-1.717,1.162-2.869,1.162c-0.715,0-1.395-0.161-2.043-0.483c-0.646-0.323-1.139-0.796-1.477-1.419
					S274.055,30.446,274.055,29.553z M276.166,29.662c0,0.772,0.184,1.363,0.549,1.774c0.367,0.41,0.818,0.615,1.357,0.615
					c0.537,0,0.988-0.205,1.353-0.615c0.364-0.411,0.546-1.007,0.546-1.789c0-0.763-0.182-1.349-0.546-1.759
					c-0.364-0.411-0.815-0.616-1.353-0.616c-0.539,0-0.99,0.205-1.357,0.616C276.35,28.299,276.166,28.89,276.166,29.662z
					 M277.031,24.816l1.012-2.191h2.309l-2.016,2.191H277.031z"/>
				<path fill="#FFFFFF" d="M290.783,33.555h-2.061v-3.973c0-0.841-0.043-1.385-0.131-1.632c-0.088-0.246-0.232-0.438-0.43-0.575
					s-0.436-0.205-0.715-0.205c-0.355,0-0.677,0.098-0.959,0.293c-0.283,0.195-0.479,0.455-0.584,0.777s-0.158,0.919-0.158,1.789
					v3.525h-2.059V25.77h1.912v1.144c0.68-0.88,1.535-1.319,2.566-1.319c0.455,0,0.869,0.082,1.246,0.246s0.66,0.373,0.854,0.626
					c0.193,0.254,0.328,0.543,0.404,0.865s0.113,0.784,0.113,1.386V33.555z"/>
			</g>
		</g>
		<g>
			<path fill="#6F3A89" d="M480.771,31.901c0,6.218-5.04,11.26-11.26,11.26H335.022c-6.218,0-11.261-5.042-11.261-11.26V11.26
				c0-6.219,5.043-11.26,11.261-11.26h134.489c6.22,0,11.26,5.041,11.26,11.26V31.901z"/>
			<g>
				<path fill="#FFFFFF" d="M365.119,15.727h-2.361l-0.938-2.44h-4.295l-0.887,2.44h-2.303l4.186-10.746h2.295L365.119,15.727z
					 M361.124,11.476l-1.481-3.987l-1.451,3.987H361.124z"/>
				<path fill="#FFFFFF" d="M373.043,10.244l-2.029,0.366c-0.068-0.405-0.225-0.711-0.467-0.916
					c-0.242-0.206-0.555-0.308-0.941-0.308c-0.514,0-0.922,0.176-1.229,0.531c-0.305,0.354-0.457,0.946-0.457,1.777
					c0,0.924,0.155,1.576,0.465,1.957c0.312,0.381,0.729,0.572,1.25,0.572c0.393,0,0.711-0.111,0.959-0.334
					c0.25-0.223,0.426-0.604,0.529-1.146l2.023,0.344c-0.209,0.929-0.613,1.631-1.211,2.104c-0.595,0.475-1.395,0.712-2.396,0.712
					c-1.139,0-2.045-0.359-2.723-1.078c-0.678-0.718-1.016-1.712-1.016-2.983c0-1.285,0.341-2.286,1.02-3.002
					c0.68-0.715,1.598-1.074,2.756-1.074c0.949,0,1.703,0.205,2.262,0.613C372.398,8.786,372.799,9.408,373.043,10.244z"/>
				<path fill="#FFFFFF" d="M379.113,13.249l2.053,0.345c-0.266,0.752-0.682,1.326-1.25,1.719c-0.568,0.394-1.281,0.591-2.137,0.591
					c-1.354,0-2.355-0.442-3.006-1.327c-0.514-0.708-0.77-1.603-0.77-2.683c0-1.29,0.337-2.301,1.012-3.031
					c0.674-0.73,1.527-1.097,2.559-1.097c1.158,0,2.072,0.383,2.74,1.147c0.672,0.766,0.99,1.937,0.961,3.516h-5.16
					c0.014,0.61,0.182,1.085,0.498,1.426c0.318,0.34,0.715,0.509,1.188,0.509c0.322,0,0.594-0.088,0.814-0.264
					C378.834,13.924,379,13.641,379.113,13.249z M379.23,11.168c-0.016-0.597-0.169-1.05-0.463-1.36
					c-0.293-0.311-0.648-0.466-1.07-0.466c-0.449,0-0.82,0.164-1.113,0.492c-0.293,0.326-0.436,0.771-0.434,1.334H379.23z"/>
				<path fill="#FFFFFF" d="M384.926,15.727h-2.061V7.942h1.914v1.106c0.328-0.523,0.623-0.867,0.883-1.033
					c0.263-0.166,0.561-0.25,0.891-0.25c0.47,0,0.922,0.13,1.355,0.389l-0.637,1.797c-0.346-0.225-0.67-0.338-0.967-0.338
					c-0.289,0-0.533,0.08-0.734,0.238c-0.199,0.158-0.357,0.446-0.473,0.861c-0.113,0.415-0.172,1.285-0.172,2.609V15.727z"/>
				<path fill="#FFFFFF" d="M395.584,10.244l-2.029,0.366c-0.068-0.405-0.225-0.711-0.467-0.916
					c-0.242-0.206-0.555-0.308-0.941-0.308c-0.514,0-0.922,0.176-1.229,0.531c-0.303,0.354-0.457,0.946-0.457,1.777
					c0,0.924,0.154,1.576,0.465,1.957c0.312,0.381,0.729,0.572,1.25,0.572c0.393,0,0.711-0.111,0.961-0.334
					c0.248-0.223,0.424-0.604,0.527-1.146l2.023,0.344c-0.209,0.929-0.613,1.631-1.21,2.104c-0.597,0.475-1.396,0.712-2.397,0.712
					c-1.138,0-2.045-0.359-2.723-1.078c-0.676-0.718-1.016-1.712-1.016-2.983c0-1.285,0.34-2.286,1.02-3.002
					c0.68-0.715,1.598-1.074,2.756-1.074c0.949,0,1.702,0.205,2.262,0.613C394.939,8.786,395.341,9.408,395.584,10.244z"/>
				<path fill="#FFFFFF" d="M398.686,10.317l-1.869-0.337c0.21-0.753,0.57-1.31,1.084-1.672c0.514-0.361,1.275-0.543,2.287-0.543
					c0.92,0,1.604,0.109,2.053,0.327c0.451,0.217,0.766,0.493,0.949,0.828c0.184,0.334,0.275,0.949,0.275,1.844l-0.022,2.404
					c0,0.685,0.032,1.188,0.099,1.514s0.191,0.673,0.371,1.044h-2.039c-0.053-0.136-0.119-0.34-0.197-0.607
					c-0.033-0.122-0.059-0.203-0.074-0.242c-0.352,0.342-0.727,0.598-1.128,0.77c-0.399,0.172-0.828,0.257-1.282,0.257
					c-0.801,0-1.434-0.218-1.896-0.653c-0.461-0.435-0.691-0.984-0.691-1.648c0-0.44,0.105-0.832,0.314-1.177
					c0.211-0.345,0.506-0.608,0.883-0.792c0.381-0.184,0.926-0.344,1.639-0.48c0.965-0.18,1.633-0.349,2.002-0.506v-0.205
					c0-0.396-0.098-0.678-0.293-0.846c-0.195-0.169-0.564-0.254-1.107-0.254c-0.367,0-0.652,0.072-0.857,0.217
					C398.979,9.702,398.814,9.955,398.686,10.317z M401.441,11.988c-0.264,0.088-0.682,0.193-1.254,0.315s-0.945,0.242-1.121,0.359
					c-0.268,0.19-0.402,0.433-0.402,0.726c0,0.289,0.107,0.538,0.322,0.748c0.215,0.209,0.488,0.314,0.82,0.314
					c0.371,0,0.725-0.121,1.062-0.366c0.25-0.187,0.414-0.413,0.492-0.682c0.055-0.176,0.08-0.511,0.08-1.004V11.988z"/>
				<path fill="#FFFFFF" d="M405.342,7.942h1.898v1.062c0.68-0.825,1.487-1.239,2.425-1.239c0.499,0,0.933,0.104,1.298,0.309
					c0.366,0.205,0.667,0.516,0.901,0.931c0.344-0.415,0.712-0.726,1.108-0.931c0.396-0.205,0.818-0.309,1.268-0.309
					c0.572,0,1.055,0.117,1.451,0.349s0.693,0.573,0.886,1.022c0.146,0.333,0.214,0.87,0.214,1.613v4.977h-2.06v-4.449
					c0-0.772-0.069-1.271-0.212-1.495c-0.191-0.294-0.484-0.44-0.881-0.44c-0.287,0-0.559,0.088-0.812,0.265
					c-0.254,0.176-0.438,0.433-0.551,0.773c-0.111,0.34-0.168,0.876-0.168,1.608v3.738h-2.062v-4.266
					c0-0.758-0.034-1.246-0.108-1.467c-0.074-0.22-0.188-0.383-0.341-0.49c-0.154-0.107-0.364-0.162-0.626-0.162
					c-0.318,0-0.604,0.086-0.859,0.257c-0.252,0.172-0.436,0.418-0.545,0.74c-0.11,0.323-0.167,0.858-0.167,1.605v3.782h-2.058
					V7.942z"/>
				<path fill="#FFFFFF" d="M418.844,6.887V4.98h2.061v1.906H418.844z M418.844,15.727V7.942h2.061v7.784H418.844z"/>
				<path fill="#FFFFFF" d="M427.523,13.249l2.053,0.345c-0.265,0.752-0.681,1.326-1.25,1.719c-0.568,0.394-1.281,0.591-2.137,0.591
					c-1.354,0-2.356-0.442-3.007-1.327c-0.513-0.708-0.769-1.603-0.769-2.683c0-1.29,0.336-2.301,1.012-3.031
					c0.673-0.73,1.527-1.097,2.558-1.097c1.158,0,2.073,0.383,2.741,1.147c0.672,0.766,0.989,1.937,0.961,3.516h-5.16
					c0.014,0.61,0.18,1.085,0.498,1.426c0.318,0.34,0.715,0.509,1.188,0.509c0.321,0,0.594-0.088,0.812-0.264
					C427.244,13.924,427.41,13.641,427.523,13.249z M427.641,11.168c-0.016-0.597-0.168-1.05-0.463-1.36
					c-0.293-0.311-0.648-0.466-1.07-0.466c-0.448,0-0.82,0.164-1.114,0.492c-0.292,0.326-0.436,0.771-0.433,1.334H427.641z"/>
				<path fill="#FFFFFF" d="M438.445,15.727h-2.061v-3.973c0-0.84-0.043-1.385-0.131-1.631c-0.089-0.246-0.231-0.439-0.43-0.575
					c-0.197-0.137-0.436-0.206-0.715-0.206c-0.355,0-0.676,0.099-0.959,0.294c-0.283,0.194-0.477,0.454-0.584,0.776
					c-0.104,0.323-0.158,0.92-0.158,1.789v3.525h-2.059V7.942h1.914v1.144c0.679-0.88,1.534-1.32,2.564-1.32
					c0.455,0,0.871,0.082,1.246,0.246c0.378,0.164,0.662,0.373,0.855,0.627s0.326,0.542,0.402,0.865
					c0.076,0.322,0.113,0.784,0.113,1.385V15.727z"/>
				<path fill="#FFFFFF" d="M444.104,7.942v1.642h-1.406v3.138c0,0.635,0.013,1.005,0.039,1.11c0.027,0.105,0.088,0.191,0.184,0.26
					c0.095,0.069,0.213,0.104,0.348,0.104c0.191,0,0.469-0.066,0.83-0.198l0.176,1.599c-0.479,0.205-1.021,0.308-1.628,0.308
					c-0.37,0-0.706-0.062-1.004-0.188c-0.296-0.124-0.517-0.286-0.657-0.483c-0.139-0.198-0.234-0.466-0.289-0.803
					c-0.043-0.239-0.065-0.723-0.065-1.451V9.584h-0.947V7.942h0.947V6.396l2.067-1.202v2.749H444.104z"/>
				<path fill="#FFFFFF" d="M445.057,11.725c0-0.685,0.17-1.346,0.506-1.986c0.337-0.641,0.816-1.129,1.434-1.467
					c0.619-0.337,1.309-0.506,2.07-0.506c1.18,0,2.145,0.383,2.896,1.147c0.752,0.766,1.129,1.731,1.129,2.899
					c0,1.178-0.379,2.154-1.141,2.929c-0.758,0.774-1.715,1.162-2.87,1.162c-0.712,0-1.392-0.161-2.041-0.484
					c-0.647-0.322-1.141-0.795-1.478-1.418C445.227,13.378,445.057,12.619,445.057,11.725z M447.168,11.835
					c0,0.772,0.184,1.363,0.551,1.773c0.366,0.411,0.818,0.616,1.355,0.616c0.539,0,0.989-0.205,1.353-0.616
					c0.364-0.41,0.546-1.007,0.546-1.788c0-0.763-0.182-1.35-0.546-1.76c-0.363-0.41-0.813-0.615-1.353-0.615
					c-0.537,0-0.989,0.205-1.355,0.615C447.352,10.471,447.168,11.062,447.168,11.835z"/>
				<path fill="#FFFFFF" d="M344.018,25.77h2.193l1.861,5.527l1.818-5.527h2.133l-2.749,7.492l-0.491,1.355
					c-0.18,0.455-0.352,0.803-0.518,1.041c-0.162,0.239-0.352,0.434-0.564,0.583s-0.473,0.265-0.783,0.349
					c-0.311,0.083-0.66,0.124-1.053,0.124c-0.395,0-0.783-0.041-1.166-0.124l-0.182-1.613c0.322,0.063,0.613,0.096,0.871,0.096
					c0.48,0,0.834-0.141,1.062-0.422c0.232-0.281,0.408-0.639,0.529-1.074L344.018,25.77z"/>
				<path fill="#FFFFFF" d="M359.486,33.555h-2.061V25.77h1.912v1.107c0.328-0.523,0.623-0.868,0.885-1.034
					c0.262-0.165,0.559-0.249,0.891-0.249c0.469,0,0.922,0.129,1.355,0.389l-0.637,1.796c-0.348-0.225-0.67-0.337-0.969-0.337
					c-0.287,0-0.531,0.079-0.732,0.238c-0.199,0.158-0.357,0.445-0.473,0.861c-0.113,0.415-0.172,1.285-0.172,2.609V33.555z"/>
				<path fill="#FFFFFF" d="M367.865,31.077l2.051,0.345c-0.264,0.752-0.68,1.325-1.25,1.719c-0.566,0.393-1.279,0.59-2.135,0.59
					c-1.354,0-2.355-0.442-3.006-1.326c-0.514-0.709-0.771-1.604-0.771-2.684c0-1.29,0.338-2.301,1.012-3.031
					c0.676-0.73,1.529-1.096,2.559-1.096c1.158,0,2.072,0.382,2.742,1.147c0.672,0.765,0.99,1.937,0.961,3.515h-5.162
					c0.016,0.611,0.182,1.086,0.5,1.426s0.715,0.51,1.188,0.51c0.322,0,0.594-0.088,0.812-0.264
					C367.586,31.752,367.752,31.469,367.865,31.077z M367.98,28.995c-0.014-0.597-0.168-1.049-0.461-1.36
					c-0.293-0.311-0.648-0.465-1.07-0.465c-0.449,0-0.82,0.164-1.113,0.491c-0.295,0.327-0.438,0.772-0.434,1.334H367.98z"/>
				<path fill="#FFFFFF" d="M378.494,28.071l-2.031,0.366c-0.068-0.405-0.224-0.711-0.465-0.916
					c-0.242-0.205-0.556-0.308-0.943-0.308c-0.512,0-0.922,0.177-1.227,0.531s-0.459,0.946-0.459,1.778
					c0,0.923,0.156,1.575,0.465,1.957c0.312,0.381,0.729,0.571,1.25,0.571c0.393,0,0.712-0.11,0.961-0.333
					c0.25-0.223,0.426-0.605,0.527-1.147l2.023,0.345c-0.209,0.928-0.611,1.63-1.209,2.104c-0.596,0.474-1.395,0.711-2.396,0.711
					c-1.139,0-2.045-0.359-2.725-1.077c-0.676-0.719-1.016-1.713-1.016-2.983c0-1.286,0.342-2.287,1.02-3.002
					c0.68-0.716,1.598-1.074,2.757-1.074c0.948,0,1.702,0.204,2.261,0.612C377.848,26.613,378.25,27.236,378.494,28.071z"/>
				<path fill="#FFFFFF" d="M379.578,29.553c0-0.686,0.168-1.347,0.506-1.987c0.338-0.64,0.816-1.129,1.434-1.466
					c0.619-0.337,1.309-0.506,2.07-0.506c1.178,0,2.145,0.382,2.895,1.147c0.754,0.765,1.131,1.73,1.131,2.899
					c0,1.177-0.381,2.154-1.141,2.928c-0.76,0.774-1.715,1.162-2.871,1.162c-0.712,0-1.393-0.161-2.041-0.483
					c-0.646-0.323-1.139-0.796-1.477-1.419S379.578,30.446,379.578,29.553z M381.689,29.662c0,0.772,0.184,1.363,0.55,1.774
					c0.366,0.41,0.819,0.615,1.356,0.615c0.539,0,0.988-0.205,1.352-0.615c0.365-0.411,0.547-1.007,0.547-1.789
					c0-0.763-0.182-1.349-0.547-1.759c-0.363-0.411-0.812-0.616-1.352-0.616c-0.537,0-0.99,0.205-1.356,0.616
					C381.873,28.299,381.689,28.89,381.689,29.662z"/>
				<path fill="#FFFFFF" d="M396.307,33.555h-2.061v-3.973c0-0.841-0.043-1.385-0.131-1.632c-0.088-0.246-0.232-0.438-0.43-0.575
					s-0.436-0.205-0.715-0.205c-0.355,0-0.676,0.098-0.961,0.293c-0.281,0.195-0.477,0.455-0.582,0.777
					c-0.104,0.322-0.157,0.919-0.157,1.789v3.525h-2.06V25.77h1.912v1.144c0.68-0.88,1.537-1.319,2.566-1.319
					c0.455,0,0.871,0.082,1.246,0.246c0.377,0.164,0.662,0.373,0.854,0.626c0.195,0.254,0.328,0.543,0.404,0.865
					s0.113,0.784,0.113,1.386V33.555z"/>
				<path fill="#FFFFFF" d="M397.918,29.553c0-0.686,0.17-1.347,0.507-1.987c0.337-0.64,0.815-1.129,1.433-1.466
					c0.62-0.337,1.309-0.506,2.072-0.506c1.178,0,2.143,0.382,2.895,1.147c0.754,0.765,1.129,1.73,1.129,2.899
					c0,1.177-0.379,2.154-1.139,2.928c-0.76,0.774-1.717,1.162-2.871,1.162c-0.713,0-1.393-0.161-2.041-0.483
					c-0.648-0.323-1.141-0.796-1.478-1.419S397.918,30.446,397.918,29.553z M400.031,29.662c0,0.772,0.182,1.363,0.549,1.774
					c0.367,0.41,0.818,0.615,1.355,0.615c0.539,0,0.99-0.205,1.354-0.615c0.365-0.411,0.545-1.007,0.545-1.789
					c0-0.763-0.18-1.349-0.545-1.759c-0.363-0.411-0.814-0.616-1.354-0.616c-0.537,0-0.988,0.205-1.355,0.616
					C400.213,28.299,400.031,28.89,400.031,29.662z"/>
				<path fill="#FFFFFF" d="M414.354,28.071l-2.03,0.366c-0.067-0.405-0.225-0.711-0.466-0.916s-0.555-0.308-0.941-0.308
					c-0.514,0-0.923,0.177-1.229,0.531c-0.305,0.354-0.457,0.946-0.457,1.778c0,0.923,0.156,1.575,0.465,1.957
					c0.311,0.381,0.727,0.571,1.25,0.571c0.393,0,0.711-0.11,0.961-0.333c0.248-0.223,0.423-0.605,0.527-1.147l2.023,0.345
					c-0.209,0.928-0.613,1.63-1.209,2.104c-0.597,0.474-1.396,0.711-2.398,0.711c-1.139,0-2.045-0.359-2.723-1.077
					c-0.676-0.719-1.016-1.713-1.016-2.983c0-1.286,0.341-2.287,1.02-3.002c0.68-0.716,1.597-1.074,2.756-1.074
					c0.949,0,1.702,0.204,2.261,0.612C413.709,26.613,414.109,27.236,414.354,28.071z"/>
				<path fill="#FFFFFF" d="M415.914,24.714v-1.905h2.061v1.905H415.914z M415.914,33.555V25.77h2.061v7.785H415.914z"/>
				<path fill="#FFFFFF" d="M419.931,25.77h1.899v1.063c0.682-0.826,1.488-1.239,2.428-1.239c0.498,0,0.93,0.103,1.297,0.308
					c0.367,0.206,0.668,0.517,0.902,0.932c0.341-0.415,0.711-0.726,1.106-0.932c0.396-0.205,0.818-0.308,1.269-0.308
					c0.571,0,1.055,0.116,1.451,0.348c0.396,0.232,0.691,0.573,0.887,1.023c0.142,0.332,0.212,0.869,0.212,1.612v4.978h-2.06v-4.449
					c0-0.772-0.069-1.271-0.213-1.496c-0.189-0.293-0.482-0.439-0.879-0.439c-0.287,0-0.559,0.088-0.814,0.264
					c-0.252,0.176-0.436,0.434-0.549,0.773c-0.111,0.34-0.17,0.876-0.17,1.609v3.738h-2.059v-4.267c0-0.758-0.037-1.246-0.11-1.466
					s-0.187-0.384-0.341-0.491c-0.155-0.107-0.363-0.161-0.627-0.161c-0.316,0-0.604,0.085-0.857,0.257
					c-0.254,0.171-0.437,0.417-0.547,0.74c-0.11,0.322-0.164,0.857-0.164,1.605v3.782h-2.062V25.77z"/>
				<path fill="#FFFFFF" d="M433.436,24.714v-1.905h2.059v1.905H433.436z M433.436,33.555V25.77h2.059v7.785H433.436z"/>
				<path fill="#FFFFFF" d="M442.113,31.077l2.052,0.345c-0.263,0.752-0.679,1.325-1.248,1.719c-0.569,0.393-1.282,0.59-2.137,0.59
					c-1.354,0-2.354-0.442-3.006-1.326c-0.513-0.709-0.77-1.604-0.77-2.684c0-1.29,0.337-2.301,1.011-3.031
					c0.676-0.73,1.529-1.096,2.559-1.096c1.157,0,2.073,0.382,2.741,1.147c0.672,0.765,0.991,1.937,0.962,3.515h-5.161
					c0.015,0.611,0.181,1.086,0.499,1.426s0.714,0.51,1.188,0.51c0.322,0,0.594-0.088,0.812-0.264
					C441.836,31.752,442.002,31.469,442.113,31.077z M442.231,28.995c-0.015-0.597-0.169-1.049-0.462-1.36
					c-0.293-0.311-0.648-0.465-1.07-0.465c-0.45,0-0.821,0.164-1.113,0.491c-0.294,0.327-0.438,0.772-0.434,1.334H442.231z"/>
				<path fill="#FFFFFF" d="M453.037,33.555h-2.061v-3.973c0-0.841-0.045-1.385-0.131-1.632c-0.089-0.246-0.232-0.438-0.43-0.575
					c-0.198-0.137-0.436-0.205-0.715-0.205c-0.355,0-0.676,0.098-0.961,0.293c-0.281,0.195-0.477,0.455-0.582,0.777
					c-0.104,0.322-0.158,0.919-0.158,1.789v3.525h-2.059V25.77h1.912v1.144c0.679-0.88,1.536-1.319,2.566-1.319
					c0.453,0,0.869,0.082,1.245,0.246c0.378,0.164,0.662,0.373,0.854,0.626c0.194,0.254,0.328,0.543,0.402,0.865
					c0.078,0.322,0.115,0.784,0.115,1.386V33.555z"/>
				<path fill="#FFFFFF" d="M458.695,25.77v1.643h-1.407v3.137c0,0.635,0.015,1.006,0.04,1.111c0.027,0.105,0.088,0.191,0.184,0.26
					s0.213,0.103,0.348,0.103c0.19,0,0.468-0.065,0.828-0.198l0.177,1.599c-0.478,0.205-1.021,0.308-1.628,0.308
					c-0.369,0-0.705-0.062-1.005-0.187c-0.296-0.125-0.517-0.286-0.655-0.484s-0.234-0.465-0.289-0.803
					c-0.045-0.239-0.066-0.723-0.066-1.451v-3.394h-0.945V25.77h0.945v-1.547l2.067-1.202v2.749H458.695z"/>
				<path fill="#FFFFFF" d="M459.647,29.553c0-0.686,0.169-1.347,0.507-1.987c0.338-0.64,0.816-1.129,1.434-1.466
					c0.619-0.337,1.308-0.506,2.07-0.506c1.179,0,2.145,0.382,2.896,1.147c0.752,0.765,1.128,1.73,1.128,2.899
					c0,1.177-0.38,2.154-1.14,2.928c-0.759,0.774-1.715,1.162-2.87,1.162c-0.714,0-1.393-0.161-2.043-0.483
					c-0.646-0.323-1.138-0.796-1.476-1.419S459.647,30.446,459.647,29.553z M461.76,29.662c0,0.772,0.184,1.363,0.55,1.774
					c0.366,0.41,0.819,0.615,1.355,0.615c0.54,0,0.99-0.205,1.353-0.615c0.364-0.411,0.547-1.007,0.547-1.789
					c0-0.763-0.183-1.349-0.547-1.759c-0.362-0.411-0.812-0.616-1.353-0.616c-0.536,0-0.989,0.205-1.355,0.616
					C461.943,28.299,461.76,28.89,461.76,29.662z"/>
			</g>
		</g>
		<g>
			<path fill="#6F3A89" d="M642.652,31.901c0,6.218-5.041,11.26-11.26,11.26H496.904c-6.221,0-11.26-5.042-11.26-11.26V11.26
				c0-6.219,5.039-11.26,11.26-11.26h134.488c6.219,0,11.26,5.041,11.26,11.26V31.901z"/>
			<g>
				<path fill="#FFFFFF" d="M495.931,15.727V4.98h2.171v10.746H495.931z"/>
				<path fill="#FFFFFF" d="M507.234,15.727h-2.059v-3.973c0-0.84-0.045-1.385-0.133-1.631s-0.23-0.439-0.43-0.575
					c-0.197-0.137-0.436-0.206-0.714-0.206c-0.356,0-0.677,0.099-0.96,0.294c-0.283,0.194-0.478,0.454-0.584,0.776
					c-0.105,0.323-0.156,0.92-0.156,1.789v3.525h-2.061V7.942h1.914v1.144c0.679-0.88,1.533-1.32,2.564-1.32
					c0.455,0,0.87,0.082,1.247,0.246c0.376,0.164,0.661,0.373,0.854,0.627s0.326,0.542,0.402,0.865
					c0.076,0.322,0.113,0.784,0.113,1.385V15.727z"/>
				<path fill="#FFFFFF" d="M509.324,6.887V4.98h2.059v1.906H509.324z M509.324,15.727V7.942h2.059v7.784H509.324z"/>
				<path fill="#FFFFFF" d="M520.283,10.244l-2.031,0.366c-0.069-0.405-0.223-0.711-0.465-0.916
					c-0.242-0.206-0.557-0.308-0.941-0.308c-0.514,0-0.924,0.176-1.229,0.531c-0.305,0.354-0.457,0.946-0.457,1.777
					c0,0.924,0.155,1.576,0.466,1.957s0.727,0.572,1.25,0.572c0.391,0,0.711-0.111,0.959-0.334c0.25-0.223,0.426-0.604,0.528-1.146
					l2.024,0.344c-0.211,0.929-0.613,1.631-1.211,2.104c-0.596,0.475-1.395,0.712-2.396,0.712c-1.139,0-2.048-0.359-2.725-1.078
					c-0.676-0.718-1.014-1.712-1.014-2.983c0-1.285,0.34-2.286,1.019-3.002c0.679-0.715,1.599-1.074,2.756-1.074
					c0.948,0,1.702,0.205,2.262,0.613C519.637,8.786,520.039,9.408,520.283,10.244z"/>
				<path fill="#FFFFFF" d="M521.844,6.887V4.98h2.061v1.906H521.844z M521.844,15.727V7.942h2.061v7.784H521.844z"/>
				<path fill="#FFFFFF" d="M525.539,11.725c0-0.685,0.168-1.346,0.506-1.986c0.337-0.641,0.814-1.129,1.434-1.467
					c0.617-0.337,1.309-0.506,2.07-0.506c1.178,0,2.143,0.383,2.896,1.147c0.753,0.766,1.128,1.731,1.128,2.899
					c0,1.178-0.379,2.154-1.139,2.929s-1.717,1.162-2.87,1.162c-0.714,0-1.394-0.161-2.042-0.484
					c-0.648-0.322-1.14-0.795-1.477-1.418C525.707,13.378,525.539,12.619,525.539,11.725z M527.65,11.835
					c0,0.772,0.183,1.363,0.549,1.773c0.367,0.411,0.818,0.616,1.357,0.616c0.537,0,0.988-0.205,1.352-0.616
					c0.363-0.41,0.547-1.007,0.547-1.788c0-0.763-0.184-1.35-0.547-1.76s-0.814-0.615-1.352-0.615c-0.539,0-0.99,0.205-1.357,0.615
					C527.833,10.471,527.65,11.062,527.65,11.835z"/>
				<path fill="#FFFFFF" d="M546.496,15.727h-1.912v-1.143c-0.318,0.443-0.693,0.775-1.127,0.993
					c-0.432,0.217-0.867,0.326-1.307,0.326c-0.895,0-1.662-0.36-2.299-1.081c-0.638-0.722-0.957-1.727-0.957-3.018
					c0-1.318,0.311-2.322,0.932-3.009c0.619-0.687,1.404-1.03,2.354-1.03c0.869,0,1.623,0.362,2.258,1.086V4.98h2.059V15.727z
					 M540.998,11.666c0,0.831,0.115,1.432,0.346,1.803c0.332,0.538,0.795,0.807,1.393,0.807c0.474,0,0.877-0.201,1.209-0.604
					s0.499-1.005,0.499-1.807c0-0.895-0.161-1.539-0.483-1.932c-0.322-0.394-0.736-0.591-1.238-0.591
					c-0.491,0-0.898,0.195-1.229,0.583C541.164,10.313,540.998,10.894,540.998,11.666z"/>
				<path fill="#FFFFFF" d="M553.035,13.249l2.053,0.345c-0.264,0.752-0.681,1.326-1.25,1.719c-0.568,0.394-1.281,0.591-2.137,0.591
					c-1.354,0-2.355-0.442-3.006-1.327c-0.513-0.708-0.77-1.603-0.77-2.683c0-1.29,0.338-2.301,1.012-3.031
					c0.675-0.73,1.527-1.097,2.559-1.097c1.158,0,2.072,0.383,2.742,1.147c0.669,0.766,0.988,1.937,0.959,3.516h-5.16
					c0.016,0.61,0.181,1.085,0.498,1.426c0.318,0.34,0.714,0.509,1.188,0.509c0.323,0,0.593-0.088,0.814-0.264
					C552.757,13.924,552.922,13.641,553.035,13.249z M553.152,11.168c-0.014-0.597-0.169-1.05-0.461-1.36
					c-0.295-0.311-0.65-0.466-1.07-0.466c-0.451,0-0.822,0.164-1.115,0.492c-0.293,0.326-0.438,0.771-0.432,1.334H553.152z"/>
				<path fill="#FFFFFF" d="M560.988,7.942h1.922v1.144c0.248-0.392,0.586-0.709,1.011-0.953s0.897-0.367,1.415-0.367
					c0.904,0,1.672,0.355,2.303,1.063c0.628,0.708,0.943,1.696,0.943,2.962c0,1.3-0.316,2.31-0.952,3.031
					c-0.636,0.721-1.404,1.081-2.31,1.081c-0.43,0-0.819-0.085-1.168-0.257c-0.35-0.172-0.718-0.465-1.104-0.88v3.922h-2.061V7.942z
					 M563.027,11.703c0,0.875,0.173,1.521,0.52,1.938c0.348,0.418,0.769,0.627,1.269,0.627c0.479,0,0.876-0.191,1.194-0.575
					c0.318-0.385,0.477-1.013,0.477-1.889c0-0.816-0.164-1.422-0.49-1.817c-0.328-0.396-0.732-0.594-1.217-0.594
					c-0.504,0-0.922,0.194-1.254,0.583S563.027,10.94,563.027,11.703z"/>
				<path fill="#FFFFFF" d="M570.218,15.727V4.98h2.06v10.746H570.218z"/>
				<path fill="#FFFFFF" d="M575.928,10.317l-1.869-0.337c0.211-0.753,0.571-1.31,1.085-1.672c0.513-0.361,1.276-0.543,2.287-0.543
					c0.919,0,1.602,0.109,2.053,0.327c0.45,0.217,0.766,0.493,0.95,0.828c0.183,0.334,0.274,0.949,0.274,1.844l-0.022,2.404
					c0,0.685,0.033,1.188,0.1,1.514c0.065,0.325,0.189,0.673,0.369,1.044h-2.038c-0.054-0.136-0.119-0.34-0.198-0.607
					c-0.033-0.122-0.058-0.203-0.072-0.242c-0.352,0.342-0.729,0.598-1.129,0.77c-0.401,0.172-0.828,0.257-1.283,0.257
					c-0.801,0-1.433-0.218-1.895-0.653c-0.461-0.435-0.692-0.984-0.692-1.648c0-0.44,0.104-0.832,0.314-1.177
					s0.504-0.608,0.884-0.792c0.379-0.184,0.926-0.344,1.638-0.48c0.964-0.18,1.63-0.349,2.001-0.506v-0.205
					c0-0.396-0.098-0.678-0.293-0.846c-0.194-0.169-0.564-0.254-1.105-0.254c-0.367,0-0.654,0.072-0.858,0.217
					C576.223,9.702,576.055,9.955,575.928,10.317z M578.684,11.988c-0.263,0.088-0.682,0.193-1.253,0.315s-0.946,0.242-1.121,0.359
					c-0.269,0.19-0.403,0.433-0.403,0.726c0,0.289,0.107,0.538,0.322,0.748c0.216,0.209,0.488,0.314,0.821,0.314
					c0.371,0,0.726-0.121,1.063-0.366c0.248-0.187,0.412-0.413,0.49-0.682c0.055-0.176,0.08-0.511,0.08-1.004V11.988z"/>
				<path fill="#FFFFFF" d="M589.819,15.727h-2.06v-3.973c0-0.84-0.045-1.385-0.133-1.631s-0.23-0.439-0.428-0.575
					c-0.198-0.137-0.436-0.206-0.716-0.206c-0.356,0-0.677,0.099-0.96,0.294c-0.283,0.194-0.478,0.454-0.582,0.776
					c-0.105,0.323-0.158,0.92-0.158,1.789v3.525h-2.061V7.942h1.914v1.144c0.679-0.88,1.535-1.32,2.566-1.32
					c0.453,0,0.869,0.082,1.245,0.246s0.661,0.373,0.854,0.627s0.327,0.542,0.402,0.865c0.076,0.322,0.114,0.784,0.114,1.385V15.727
					z"/>
				<path fill="#FFFFFF" d="M596.417,13.249l2.052,0.345c-0.264,0.752-0.68,1.326-1.25,1.719c-0.568,0.394-1.281,0.591-2.138,0.591
					c-1.353,0-2.354-0.442-3.004-1.327c-0.513-0.708-0.771-1.603-0.771-2.683c0-1.29,0.338-2.301,1.013-3.031
					c0.674-0.73,1.527-1.097,2.558-1.097c1.158,0,2.071,0.383,2.742,1.147c0.67,0.766,0.99,1.937,0.959,3.516h-5.16
					c0.016,0.61,0.181,1.085,0.499,1.426c0.318,0.34,0.713,0.509,1.187,0.509c0.323,0,0.594-0.088,0.814-0.264
					S596.305,13.641,596.417,13.249z M596.533,11.168c-0.014-0.597-0.169-1.05-0.461-1.36c-0.293-0.311-0.65-0.466-1.07-0.466
					c-0.449,0-0.82,0.164-1.113,0.492c-0.293,0.326-0.438,0.771-0.434,1.334H596.533z"/>
				<path fill="#FFFFFF" d="M599.532,13.506l2.066-0.315c0.089,0.4,0.267,0.705,0.536,0.913c0.268,0.208,0.645,0.312,1.129,0.312
					c0.532,0,0.934-0.099,1.202-0.293c0.181-0.137,0.271-0.32,0.271-0.55c0-0.157-0.049-0.286-0.146-0.389
					c-0.102-0.098-0.332-0.188-0.689-0.271c-1.66-0.366-2.715-0.701-3.158-1.004c-0.617-0.421-0.924-1.005-0.924-1.752
					c0-0.675,0.267-1.242,0.798-1.701c0.532-0.459,1.36-0.689,2.479-0.689c1.064,0,1.856,0.174,2.375,0.521
					c0.518,0.347,0.875,0.86,1.069,1.539l-1.942,0.359c-0.084-0.304-0.242-0.535-0.473-0.697c-0.232-0.16-0.564-0.241-0.994-0.241
					c-0.542,0-0.93,0.076-1.165,0.228c-0.157,0.107-0.234,0.246-0.234,0.418c0,0.146,0.069,0.271,0.204,0.373
					c0.188,0.137,0.828,0.33,1.926,0.579c1.096,0.249,1.861,0.555,2.298,0.917c0.43,0.366,0.646,0.877,0.646,1.531
					c0,0.714-0.299,1.327-0.895,1.84c-0.598,0.514-1.479,0.771-2.646,0.771c-1.061,0-1.9-0.216-2.519-0.646
					S599.723,14.244,599.532,13.506z"/>
				<path fill="#FFFFFF" d="M619.918,15.727h-1.913v-1.143c-0.317,0.443-0.693,0.775-1.126,0.993
					c-0.432,0.217-0.867,0.326-1.308,0.326c-0.895,0-1.66-0.36-2.298-1.081c-0.639-0.722-0.958-1.727-0.958-3.018
					c0-1.318,0.312-2.322,0.933-3.009c0.619-0.687,1.404-1.03,2.352-1.03c0.871,0,1.623,0.362,2.259,1.086V4.98h2.06V15.727z
					 M614.42,11.666c0,0.831,0.115,1.432,0.346,1.803c0.332,0.538,0.795,0.807,1.393,0.807c0.472,0,0.877-0.201,1.209-0.604
					s0.497-1.005,0.497-1.807c0-0.895-0.159-1.539-0.482-1.932c-0.322-0.394-0.735-0.591-1.239-0.591
					c-0.488,0-0.897,0.195-1.229,0.583C614.586,10.313,614.42,10.894,614.42,11.666z"/>
				<path fill="#FFFFFF" d="M626.457,13.249l2.053,0.345c-0.264,0.752-0.682,1.326-1.25,1.719c-0.569,0.394-1.283,0.591-2.137,0.591
					c-1.354,0-2.356-0.442-3.007-1.327c-0.513-0.708-0.77-1.603-0.77-2.683c0-1.29,0.339-2.301,1.013-3.031
					c0.673-0.73,1.527-1.097,2.559-1.097c1.158,0,2.07,0.383,2.741,1.147c0.67,0.766,0.988,1.937,0.96,3.516h-5.16
					c0.015,0.61,0.18,1.085,0.498,1.426c0.318,0.34,0.713,0.509,1.187,0.509c0.322,0,0.595-0.088,0.815-0.264
					C626.178,13.924,626.344,13.641,626.457,13.249z M626.574,11.168c-0.015-0.597-0.168-1.05-0.462-1.36
					c-0.293-0.311-0.65-0.466-1.071-0.466c-0.449,0-0.82,0.164-1.113,0.492c-0.293,0.326-0.438,0.771-0.432,1.334H626.574z"/>
				<path fill="#FFFFFF" d="M497.049,25.77v1.643h-1.406v3.137c0,0.635,0.014,1.006,0.039,1.111c0.027,0.105,0.088,0.191,0.183,0.26
					c0.097,0.068,0.213,0.103,0.35,0.103c0.19,0,0.466-0.065,0.827-0.198l0.177,1.599c-0.479,0.205-1.021,0.308-1.628,0.308
					c-0.371,0-0.705-0.062-1.004-0.187c-0.297-0.125-0.518-0.286-0.656-0.484s-0.234-0.465-0.289-0.803
					c-0.044-0.239-0.066-0.723-0.066-1.451v-3.394h-0.945V25.77h0.945v-1.547l2.068-1.202v2.749H497.049z"/>
				<path fill="#FFFFFF" d="M500.451,33.555h-2.061V25.77h1.914v1.107c0.325-0.523,0.621-0.868,0.883-1.034
					c0.261-0.165,0.558-0.249,0.891-0.249c0.469,0,0.92,0.129,1.355,0.389l-0.637,1.796c-0.349-0.225-0.67-0.337-0.969-0.337
					c-0.288,0-0.531,0.079-0.732,0.238c-0.201,0.158-0.359,0.445-0.473,0.861c-0.115,0.415-0.172,1.285-0.172,2.609V33.555z"/>
				<path fill="#FFFFFF" d="M505.86,28.145l-1.869-0.337c0.21-0.752,0.571-1.31,1.085-1.671c0.514-0.362,1.275-0.543,2.287-0.543
					c0.918,0,1.603,0.109,2.053,0.326c0.448,0.217,0.766,0.494,0.948,0.828c0.185,0.335,0.276,0.949,0.276,1.844l-0.023,2.404
					c0,0.685,0.033,1.188,0.1,1.514c0.066,0.326,0.189,0.674,0.369,1.045h-2.037c-0.055-0.137-0.119-0.34-0.197-0.608
					c-0.035-0.122-0.059-0.202-0.074-0.242c-0.352,0.342-0.729,0.599-1.13,0.771c-0.399,0.171-0.827,0.256-1.282,0.256
					c-0.801,0-1.432-0.217-1.895-0.652c-0.461-0.436-0.691-0.984-0.691-1.649c0-0.439,0.104-0.832,0.314-1.177
					c0.211-0.344,0.505-0.608,0.883-0.791c0.379-0.184,0.926-0.344,1.639-0.48c0.962-0.181,1.631-0.35,2.001-0.506V28.27
					c0-0.396-0.098-0.678-0.292-0.847c-0.195-0.169-0.564-0.253-1.107-0.253c-0.367,0-0.652,0.072-0.857,0.216
					C506.154,27.53,505.988,27.783,505.86,28.145z M508.616,29.816c-0.263,0.088-0.681,0.193-1.253,0.314
					c-0.572,0.122-0.945,0.242-1.121,0.359c-0.27,0.191-0.404,0.433-0.404,0.727c0,0.288,0.107,0.537,0.323,0.747
					s0.487,0.315,0.821,0.315c0.371,0,0.725-0.122,1.062-0.367c0.249-0.186,0.412-0.413,0.491-0.682
					c0.054-0.176,0.08-0.51,0.08-1.004V29.816z"/>
				<path fill="#FFFFFF" d="M512.581,33.555V22.809h2.062v3.87c0.635-0.723,1.389-1.085,2.257-1.085c0.948,0,1.733,0.344,2.354,1.03
					s0.93,1.672,0.93,2.958c0,1.329-0.314,2.353-0.948,3.071c-0.633,0.718-1.401,1.077-2.305,1.077
					c-0.445,0-0.884-0.111-1.316-0.334c-0.432-0.223-0.805-0.55-1.117-0.985v1.144H512.581z M514.627,29.494
					c0,0.806,0.127,1.402,0.382,1.788c0.355,0.547,0.831,0.821,1.422,0.821c0.454,0,0.843-0.194,1.162-0.583
					s0.479-1.001,0.479-1.837c0-0.889-0.16-1.53-0.482-1.924c-0.323-0.393-0.736-0.59-1.24-0.59c-0.494,0-0.904,0.191-1.23,0.575
					C514.791,28.129,514.627,28.712,514.627,29.494z"/>
				<path fill="#FFFFFF" d="M523.381,28.145l-1.869-0.337c0.209-0.752,0.569-1.31,1.084-1.671c0.514-0.362,1.275-0.543,2.286-0.543
					c0.921,0,1.603,0.109,2.054,0.326c0.449,0.217,0.766,0.494,0.949,0.828c0.184,0.335,0.275,0.949,0.275,1.844l-0.021,2.404
					c0,0.685,0.031,1.188,0.098,1.514c0.066,0.326,0.189,0.674,0.371,1.045h-2.039c-0.054-0.137-0.12-0.34-0.197-0.608
					c-0.034-0.122-0.06-0.202-0.073-0.242c-0.353,0.342-0.729,0.599-1.129,0.771c-0.401,0.171-0.829,0.256-1.282,0.256
					c-0.803,0-1.434-0.217-1.896-0.652s-0.693-0.984-0.693-1.649c0-0.439,0.106-0.832,0.315-1.177
					c0.21-0.344,0.506-0.608,0.884-0.791c0.378-0.184,0.925-0.344,1.638-0.48c0.963-0.181,1.631-0.35,2.002-0.506V28.27
					c0-0.396-0.098-0.678-0.293-0.847c-0.196-0.169-0.564-0.253-1.107-0.253c-0.367,0-0.652,0.072-0.858,0.216
					C523.674,27.53,523.508,27.783,523.381,28.145z M526.137,29.816c-0.264,0.088-0.682,0.193-1.255,0.314
					c-0.571,0.122-0.944,0.242-1.12,0.359c-0.27,0.191-0.403,0.433-0.403,0.727c0,0.288,0.106,0.537,0.321,0.747
					c0.216,0.21,0.489,0.315,0.822,0.315c0.371,0,0.726-0.122,1.062-0.367c0.25-0.186,0.414-0.413,0.49-0.682
					c0.055-0.176,0.082-0.51,0.082-1.004V29.816z"/>
				<path fill="#FFFFFF" d="M532.205,25.77v7.543c0,0.992-0.064,1.692-0.193,2.101c-0.13,0.407-0.379,0.727-0.748,0.956
					c-0.369,0.23-0.839,0.345-1.41,0.345c-0.206,0-0.427-0.019-0.664-0.055s-0.492-0.092-0.766-0.165l0.359-1.76
					c0.098,0.02,0.189,0.036,0.274,0.048c0.085,0.013,0.165,0.019,0.237,0.019c0.211,0,0.383-0.045,0.518-0.136
					s0.224-0.198,0.268-0.326c0.044-0.127,0.066-0.509,0.066-1.144V25.77H532.205z M530.146,24.714v-1.905h2.059v1.905H530.146z"/>
				<path fill="#FFFFFF" d="M533.885,29.553c0-0.686,0.168-1.347,0.506-1.987c0.337-0.64,0.814-1.129,1.434-1.466
					c0.617-0.337,1.307-0.506,2.07-0.506c1.178,0,2.143,0.382,2.895,1.147c0.752,0.765,1.129,1.73,1.129,2.899
					c0,1.177-0.379,2.154-1.139,2.928c-0.76,0.774-1.717,1.162-2.871,1.162c-0.713,0-1.394-0.161-2.041-0.483
					c-0.648-0.323-1.14-0.796-1.477-1.419C534.053,31.205,533.885,30.446,533.885,29.553z M535.996,29.662
					c0,0.772,0.184,1.363,0.549,1.774c0.367,0.41,0.818,0.615,1.357,0.615c0.537,0,0.988-0.205,1.352-0.615
					c0.363-0.411,0.547-1.007,0.547-1.789c0-0.763-0.184-1.349-0.547-1.759c-0.363-0.411-0.814-0.616-1.352-0.616
					c-0.539,0-0.99,0.205-1.357,0.616C536.18,28.299,535.996,28.89,535.996,29.662z"/>
				<path fill="#FFFFFF" d="M554.49,28.071l-2.03,0.366c-0.069-0.405-0.224-0.711-0.467-0.916c-0.241-0.205-0.555-0.308-0.94-0.308
					c-0.514,0-0.923,0.177-1.229,0.531c-0.305,0.354-0.457,0.946-0.457,1.778c0,0.923,0.154,1.575,0.465,1.957
					c0.311,0.381,0.727,0.571,1.249,0.571c0.392,0,0.712-0.11,0.96-0.333c0.25-0.223,0.425-0.605,0.529-1.147l2.023,0.345
					c-0.212,0.928-0.613,1.63-1.211,2.104c-0.596,0.474-1.395,0.711-2.396,0.711c-1.139,0-2.047-0.359-2.723-1.077
					c-0.678-0.719-1.016-1.713-1.016-2.983c0-1.286,0.34-2.287,1.019-3.002c0.679-0.716,1.598-1.074,2.757-1.074
					c0.947,0,1.701,0.204,2.262,0.612C553.846,26.613,554.246,27.236,554.49,28.071z"/>
				<path fill="#FFFFFF" d="M555.575,29.553c0-0.686,0.169-1.347,0.506-1.987c0.337-0.64,0.814-1.129,1.433-1.466
					c0.619-0.337,1.309-0.506,2.071-0.506c1.179,0,2.143,0.382,2.895,1.147c0.752,0.765,1.13,1.73,1.13,2.899
					c0,1.177-0.379,2.154-1.139,2.928c-0.761,0.774-1.717,1.162-2.872,1.162c-0.712,0-1.394-0.161-2.04-0.483
					c-0.648-0.323-1.141-0.796-1.478-1.419S555.575,30.446,555.575,29.553z M557.687,29.662c0,0.772,0.183,1.363,0.55,1.774
					c0.367,0.41,0.818,0.615,1.355,0.615c0.539,0,0.989-0.205,1.354-0.615c0.363-0.411,0.546-1.007,0.546-1.789
					c0-0.763-0.183-1.349-0.546-1.759c-0.364-0.411-0.814-0.616-1.354-0.616c-0.537,0-0.988,0.205-1.355,0.616
					C557.869,28.299,557.687,28.89,557.687,29.662z"/>
				<path fill="#FFFFFF" d="M572.303,33.555h-2.059v-3.973c0-0.841-0.045-1.385-0.133-1.632c-0.088-0.246-0.23-0.438-0.429-0.575
					c-0.199-0.137-0.437-0.205-0.714-0.205c-0.357,0-0.678,0.098-0.961,0.293s-0.477,0.455-0.583,0.777
					c-0.104,0.322-0.158,0.919-0.158,1.789v3.525h-2.06V25.77h1.914v1.144c0.678-0.88,1.535-1.319,2.565-1.319
					c0.454,0,0.87,0.082,1.245,0.246c0.377,0.164,0.662,0.373,0.855,0.626c0.193,0.254,0.326,0.543,0.402,0.865
					s0.113,0.784,0.113,1.386V33.555z"/>
				<path fill="#FFFFFF" d="M581.18,28.071l-2.029,0.366c-0.069-0.405-0.225-0.711-0.467-0.916c-0.24-0.205-0.555-0.308-0.941-0.308
					c-0.513,0-0.922,0.177-1.228,0.531s-0.458,0.946-0.458,1.778c0,0.923,0.154,1.575,0.465,1.957
					c0.311,0.381,0.727,0.571,1.25,0.571c0.391,0,0.711-0.11,0.96-0.333s0.425-0.605,0.528-1.147l2.023,0.345
					c-0.211,0.928-0.613,1.63-1.209,2.104c-0.598,0.474-1.396,0.711-2.397,0.711c-1.14,0-2.047-0.359-2.724-1.077
					c-0.677-0.719-1.016-1.713-1.016-2.983c0-1.286,0.34-2.287,1.02-3.002c0.68-0.716,1.598-1.074,2.756-1.074
					c0.949,0,1.701,0.204,2.262,0.612C580.535,26.613,580.936,27.236,581.18,28.071z"/>
				<path fill="#FFFFFF" d="M587.249,31.077l2.054,0.345c-0.264,0.752-0.682,1.325-1.25,1.719c-0.569,0.393-1.281,0.59-2.137,0.59
					c-1.354,0-2.355-0.442-3.006-1.326c-0.514-0.709-0.77-1.604-0.77-2.684c0-1.29,0.338-2.301,1.012-3.031s1.527-1.096,2.558-1.096
					c1.159,0,2.073,0.382,2.742,1.147c0.669,0.765,0.989,1.937,0.96,3.515h-5.16c0.015,0.611,0.18,1.086,0.497,1.426
					c0.319,0.34,0.716,0.51,1.188,0.51c0.324,0,0.594-0.088,0.814-0.264C586.971,31.752,587.139,31.469,587.249,31.077z
					 M587.367,28.995c-0.014-0.597-0.168-1.049-0.461-1.36c-0.294-0.311-0.65-0.465-1.07-0.465c-0.451,0-0.822,0.164-1.115,0.491
					c-0.294,0.327-0.437,0.772-0.432,1.334H587.367z"/>
				<path fill="#FFFFFF" d="M593.062,33.555h-2.059V25.77h1.912v1.107c0.328-0.523,0.623-0.868,0.883-1.034
					c0.262-0.165,0.559-0.249,0.892-0.249c0.47,0,0.921,0.129,1.355,0.389l-0.638,1.796c-0.347-0.225-0.669-0.337-0.967-0.337
					c-0.289,0-0.533,0.079-0.732,0.238c-0.201,0.158-0.359,0.445-0.474,0.861c-0.114,0.415-0.173,1.285-0.173,2.609V33.555z"/>
				<path fill="#FFFFFF" d="M600.504,25.77v1.643h-1.408v3.137c0,0.635,0.014,1.006,0.041,1.111c0.025,0.105,0.088,0.191,0.184,0.26
					c0.094,0.068,0.211,0.103,0.348,0.103c0.19,0,0.467-0.065,0.828-0.198l0.176,1.599c-0.479,0.205-1.021,0.308-1.627,0.308
					c-0.371,0-0.707-0.062-1.004-0.187c-0.299-0.125-0.518-0.286-0.656-0.484c-0.14-0.198-0.237-0.465-0.289-0.803
					c-0.046-0.239-0.066-0.723-0.066-1.451v-3.394h-0.945V25.77h0.945v-1.547l2.066-1.202v2.749H600.504z"/>
				<path fill="#FFFFFF" d="M603.473,28.145l-1.869-0.337c0.209-0.752,0.57-1.31,1.084-1.671c0.514-0.362,1.275-0.543,2.287-0.543
					c0.92,0,1.603,0.109,2.053,0.326s0.766,0.494,0.949,0.828c0.184,0.335,0.275,0.949,0.275,1.844l-0.021,2.404
					c0,0.685,0.033,1.188,0.098,1.514c0.066,0.326,0.19,0.674,0.371,1.045h-2.038c-0.054-0.137-0.12-0.34-0.199-0.608
					c-0.032-0.122-0.058-0.202-0.071-0.242c-0.354,0.342-0.729,0.599-1.129,0.771c-0.401,0.171-0.83,0.256-1.283,0.256
					c-0.803,0-1.434-0.217-1.895-0.652c-0.463-0.436-0.693-0.984-0.693-1.649c0-0.439,0.105-0.832,0.314-1.177
					c0.211-0.344,0.506-0.608,0.884-0.791c0.377-0.184,0.925-0.344,1.639-0.48c0.963-0.181,1.63-0.35,2.001-0.506V28.27
					c0-0.396-0.098-0.678-0.293-0.847s-0.564-0.253-1.107-0.253c-0.366,0-0.652,0.072-0.857,0.216
					C603.766,27.53,603.599,27.783,603.473,28.145z M606.229,29.816c-0.264,0.088-0.682,0.193-1.254,0.314
					c-0.571,0.122-0.945,0.242-1.121,0.359c-0.269,0.191-0.404,0.433-0.404,0.727c0,0.288,0.108,0.537,0.324,0.747
					c0.215,0.21,0.488,0.315,0.82,0.315c0.371,0,0.727-0.122,1.062-0.367c0.25-0.186,0.414-0.413,0.491-0.682
					c0.054-0.176,0.081-0.51,0.081-1.004V29.816z"/>
				<path fill="#FFFFFF" d="M617.422,33.555h-1.913v-1.144c-0.317,0.444-0.693,0.776-1.126,0.993
					c-0.432,0.217-0.868,0.326-1.308,0.326c-0.894,0-1.661-0.36-2.298-1.081c-0.639-0.722-0.957-1.727-0.957-3.017
					c0-1.319,0.311-2.322,0.932-3.009c0.62-0.687,1.404-1.03,2.352-1.03c0.871,0,1.624,0.362,2.259,1.085v-3.87h2.06V33.555z
					 M611.924,29.494c0,0.83,0.115,1.432,0.346,1.803c0.332,0.538,0.794,0.807,1.393,0.807c0.473,0,0.877-0.202,1.209-0.605
					c0.332-0.402,0.498-1.005,0.498-1.807c0-0.895-0.16-1.538-0.482-1.932c-0.323-0.393-0.736-0.59-1.24-0.59
					c-0.488,0-0.897,0.194-1.229,0.583C612.09,28.141,611.924,28.721,611.924,29.494z"/>
				<path fill="#FFFFFF" d="M618.977,29.553c0-0.686,0.167-1.347,0.506-1.987c0.337-0.64,0.814-1.129,1.432-1.466
					c0.618-0.337,1.309-0.506,2.072-0.506c1.178,0,2.143,0.382,2.895,1.147c0.753,0.765,1.129,1.73,1.129,2.899
					c0,1.177-0.38,2.154-1.139,2.928c-0.76,0.774-1.717,1.162-2.871,1.162c-0.713,0-1.393-0.161-2.041-0.483
					c-0.647-0.323-1.14-0.796-1.477-1.419C619.144,31.205,618.977,30.446,618.977,29.553z M621.088,29.662
					c0,0.772,0.183,1.363,0.549,1.774c0.367,0.41,0.818,0.615,1.356,0.615s0.989-0.205,1.353-0.615
					c0.363-0.411,0.547-1.007,0.547-1.789c0-0.763-0.184-1.349-0.547-1.759c-0.363-0.411-0.814-0.616-1.353-0.616
					s-0.989,0.205-1.356,0.616C621.271,28.299,621.088,28.89,621.088,29.662z"/>
				<path fill="#FFFFFF" d="M627.896,31.334l2.068-0.315c0.088,0.4,0.266,0.704,0.535,0.912c0.267,0.208,0.644,0.312,1.129,0.312
					c0.532,0,0.934-0.098,1.201-0.293c0.182-0.137,0.271-0.32,0.271-0.55c0-0.156-0.049-0.286-0.146-0.389
					c-0.104-0.098-0.332-0.188-0.689-0.271c-1.66-0.367-2.716-0.701-3.158-1.005c-0.616-0.421-0.925-1.004-0.925-1.752
					c0-0.675,0.266-1.241,0.8-1.7c0.532-0.459,1.359-0.689,2.478-0.689c1.065,0,1.856,0.174,2.374,0.521
					c0.518,0.348,0.876,0.86,1.07,1.539l-1.941,0.359c-0.085-0.304-0.24-0.535-0.473-0.696s-0.564-0.242-0.994-0.242
					c-0.543,0-0.932,0.076-1.166,0.228c-0.156,0.107-0.233,0.247-0.233,0.418c0,0.146,0.068,0.271,0.206,0.374
					c0.186,0.137,0.826,0.33,1.924,0.579c1.096,0.249,1.862,0.554,2.297,0.916c0.43,0.366,0.646,0.877,0.646,1.532
					c0,0.714-0.298,1.326-0.894,1.84c-0.598,0.514-1.479,0.77-2.646,0.77c-1.061,0-1.901-0.215-2.52-0.645
					C628.492,32.656,628.088,32.071,627.896,31.334z"/>
			</g>
		</g>
		<g>
			<path fill="#6F3A89" d="M804.533,31.901c0,6.218-5.039,11.26-11.259,11.26H658.785c-6.219,0-11.26-5.042-11.26-11.26V11.26
				c0-6.219,5.041-11.26,11.26-11.26h134.489c6.22,0,11.259,5.041,11.259,11.26V31.901z"/>
			<g>
				<path fill="#FFFFFF" d="M691.69,15.727L687.85,4.98h2.352l2.721,7.953l2.633-7.953h2.301l-3.85,10.746H691.69z"/>
				<path fill="#FFFFFF" d="M699.658,10.317l-1.869-0.337c0.209-0.753,0.572-1.31,1.084-1.672c0.514-0.361,1.277-0.543,2.288-0.543
					c0.919,0,1.603,0.109,2.053,0.327c0.45,0.217,0.767,0.493,0.948,0.828c0.184,0.334,0.275,0.949,0.275,1.844l-0.021,2.404
					c0,0.685,0.032,1.188,0.099,1.514s0.19,0.673,0.37,1.044h-2.037c-0.055-0.136-0.121-0.34-0.199-0.607
					c-0.033-0.122-0.059-0.203-0.072-0.242c-0.352,0.342-0.729,0.598-1.129,0.77c-0.401,0.172-0.828,0.257-1.283,0.257
					c-0.801,0-1.433-0.218-1.895-0.653c-0.463-0.435-0.693-0.984-0.693-1.648c0-0.44,0.105-0.832,0.316-1.177
					c0.209-0.345,0.504-0.608,0.883-0.792s0.924-0.344,1.639-0.48c0.963-0.18,1.629-0.349,2-0.506v-0.205
					c0-0.396-0.099-0.678-0.293-0.846c-0.195-0.169-0.564-0.254-1.106-0.254c-0.367,0-0.652,0.072-0.858,0.217
					C699.951,9.702,699.785,9.955,699.658,10.317z M702.414,11.988c-0.264,0.088-0.683,0.193-1.253,0.315
					c-0.571,0.122-0.946,0.242-1.122,0.359c-0.268,0.19-0.402,0.433-0.402,0.726c0,0.289,0.107,0.538,0.322,0.748
					c0.215,0.209,0.488,0.314,0.821,0.314c0.371,0,0.726-0.121,1.062-0.366c0.25-0.187,0.414-0.413,0.491-0.682
					c0.056-0.176,0.081-0.511,0.081-1.004V11.988z"/>
				<path fill="#FFFFFF" d="M706.469,15.727V4.98h2.06v10.746H706.469z"/>
				<path fill="#FFFFFF" d="M710.162,11.725c0-0.685,0.17-1.346,0.507-1.986s0.814-1.129,1.433-1.467
					c0.619-0.337,1.309-0.506,2.071-0.506c1.177,0,2.143,0.383,2.896,1.147c0.752,0.766,1.129,1.731,1.129,2.899
					c0,1.178-0.382,2.154-1.141,2.929s-1.715,1.162-2.869,1.162c-0.714,0-1.394-0.161-2.041-0.484
					c-0.649-0.322-1.141-0.795-1.478-1.418S710.162,12.619,710.162,11.725z M712.274,11.835c0,0.772,0.183,1.363,0.55,1.773
					c0.366,0.411,0.818,0.616,1.355,0.616c0.538,0,0.989-0.205,1.353-0.616c0.363-0.41,0.546-1.007,0.546-1.788
					c0-0.763-0.183-1.35-0.546-1.76s-0.814-0.615-1.353-0.615c-0.537,0-0.989,0.205-1.355,0.615
					C712.457,10.471,712.274,11.062,712.274,11.835z"/>
				<path fill="#FFFFFF" d="M721.781,15.727h-2.059V7.942h1.912v1.106c0.328-0.523,0.623-0.867,0.884-1.033s0.558-0.25,0.89-0.25
					c0.47,0,0.921,0.13,1.357,0.389l-0.639,1.797c-0.347-0.225-0.67-0.338-0.967-0.338c-0.289,0-0.533,0.08-0.733,0.238
					s-0.358,0.446-0.474,0.861c-0.113,0.415-0.172,1.285-0.172,2.609V15.727z"/>
				<path fill="#FFFFFF" d="M727.191,10.317l-1.869-0.337c0.21-0.753,0.572-1.31,1.085-1.672c0.513-0.361,1.275-0.543,2.286-0.543
					c0.92,0,1.604,0.109,2.053,0.327c0.451,0.217,0.768,0.493,0.95,0.828c0.182,0.334,0.274,0.949,0.274,1.844l-0.022,2.404
					c0,0.685,0.034,1.188,0.099,1.514c0.066,0.325,0.191,0.673,0.371,1.044h-2.037c-0.055-0.136-0.121-0.34-0.198-0.607
					c-0.035-0.122-0.059-0.203-0.073-0.242c-0.352,0.342-0.729,0.598-1.129,0.77s-0.828,0.257-1.283,0.257
					c-0.802,0-1.434-0.218-1.895-0.653c-0.462-0.435-0.693-0.984-0.693-1.648c0-0.44,0.104-0.832,0.315-1.177
					c0.21-0.345,0.505-0.608,0.884-0.792c0.378-0.184,0.923-0.344,1.639-0.48c0.963-0.18,1.629-0.349,2-0.506v-0.205
					c0-0.396-0.098-0.678-0.293-0.846c-0.195-0.169-0.564-0.254-1.107-0.254c-0.365,0-0.651,0.072-0.857,0.217
					C727.483,9.702,727.318,9.955,727.191,10.317z M729.947,11.988c-0.265,0.088-0.682,0.193-1.254,0.315
					c-0.57,0.122-0.945,0.242-1.121,0.359c-0.268,0.19-0.402,0.433-0.402,0.726c0,0.289,0.107,0.538,0.322,0.748
					c0.215,0.209,0.488,0.314,0.819,0.314c0.371,0,0.728-0.121,1.064-0.366c0.249-0.187,0.413-0.413,0.491-0.682
					c0.055-0.176,0.08-0.511,0.08-1.004V11.988z"/>
				<path fill="#FFFFFF" d="M740.789,10.244l-2.031,0.366c-0.067-0.405-0.223-0.711-0.465-0.916
					c-0.24-0.206-0.557-0.308-0.941-0.308c-0.514,0-0.922,0.176-1.229,0.531c-0.305,0.354-0.458,0.946-0.458,1.777
					c0,0.924,0.155,1.576,0.466,1.957s0.727,0.572,1.25,0.572c0.391,0,0.711-0.111,0.961-0.334c0.248-0.223,0.424-0.604,0.527-1.146
					l2.023,0.344c-0.211,0.929-0.613,1.631-1.21,2.104c-0.597,0.475-1.396,0.712-2.397,0.712c-1.139,0-2.046-0.359-2.723-1.078
					c-0.678-0.718-1.016-1.712-1.016-2.983c0-1.285,0.34-2.286,1.02-3.002c0.679-0.715,1.598-1.074,2.756-1.074
					c0.948,0,1.701,0.205,2.262,0.613C740.144,8.786,740.545,9.408,740.789,10.244z"/>
				<path fill="#FFFFFF" d="M742.352,6.887V4.98h2.059v1.906H742.352z M742.352,15.727V7.942h2.059v7.784H742.352z"/>
				<path fill="#FFFFFF" d="M746.045,11.725c0-0.685,0.169-1.346,0.505-1.986c0.339-0.641,0.814-1.129,1.434-1.467
					c0.62-0.337,1.31-0.506,2.071-0.506c1.177,0,2.143,0.383,2.896,1.147c0.752,0.766,1.129,1.731,1.129,2.899
					c0,1.178-0.381,2.154-1.141,2.929s-1.717,1.162-2.869,1.162c-0.715,0-1.395-0.161-2.042-0.484
					c-0.647-0.322-1.14-0.795-1.479-1.418C746.214,13.378,746.045,12.619,746.045,11.725z M748.156,11.835
					c0,0.772,0.184,1.363,0.551,1.773c0.365,0.411,0.818,0.616,1.355,0.616s0.987-0.205,1.352-0.616
					c0.365-0.41,0.547-1.007,0.547-1.788c0-0.763-0.182-1.35-0.547-1.76c-0.364-0.41-0.814-0.615-1.352-0.615
					s-0.99,0.205-1.355,0.615C748.34,10.471,748.156,11.062,748.156,11.835z M749.021,6.989l1.011-2.192h2.31l-2.016,2.192H749.021z
					"/>
				<path fill="#FFFFFF" d="M762.773,15.727h-2.06v-3.973c0-0.84-0.044-1.385-0.133-1.631c-0.087-0.246-0.23-0.439-0.429-0.575
					c-0.197-0.137-0.436-0.206-0.715-0.206c-0.356,0-0.676,0.099-0.959,0.294c-0.283,0.194-0.479,0.454-0.584,0.776
					c-0.105,0.323-0.158,0.92-0.158,1.789v3.525h-2.059V7.942h1.912v1.144c0.68-0.88,1.535-1.32,2.566-1.32
					c0.455,0,0.869,0.082,1.246,0.246s0.661,0.373,0.854,0.627c0.192,0.254,0.327,0.542,0.403,0.865
					c0.076,0.322,0.113,0.784,0.113,1.385V15.727z"/>
				<path fill="#FFFFFF" d="M661.947,28.071l-2.031,0.366c-0.068-0.405-0.223-0.711-0.465-0.916s-0.557-0.308-0.941-0.308
					c-0.514,0-0.924,0.177-1.229,0.531s-0.458,0.946-0.458,1.778c0,0.923,0.155,1.575,0.466,1.957
					c0.31,0.381,0.726,0.571,1.25,0.571c0.391,0,0.71-0.11,0.959-0.333c0.25-0.223,0.426-0.605,0.528-1.147l2.023,0.345
					c-0.21,0.928-0.612,1.63-1.21,2.104c-0.596,0.474-1.395,0.711-2.396,0.711c-1.139,0-2.047-0.359-2.723-1.077
					c-0.678-0.719-1.016-1.713-1.016-2.983c0-1.286,0.34-2.287,1.018-3.002c0.68-0.716,1.6-1.074,2.757-1.074
					c0.947,0,1.702,0.204,2.261,0.612C661.301,26.613,661.703,27.236,661.947,28.071z"/>
				<path fill="#FFFFFF" d="M663.032,29.553c0-0.686,0.168-1.347,0.505-1.987c0.338-0.64,0.814-1.129,1.434-1.466
					s1.309-0.506,2.07-0.506c1.178,0,2.145,0.382,2.896,1.147c0.752,0.765,1.129,1.73,1.129,2.899c0,1.177-0.381,2.154-1.141,2.928
					c-0.761,0.774-1.716,1.162-2.869,1.162c-0.715,0-1.395-0.161-2.042-0.483c-0.647-0.323-1.14-0.796-1.478-1.419
					C663.2,31.205,663.032,30.446,663.032,29.553z M665.143,29.662c0,0.772,0.184,1.363,0.551,1.774
					c0.366,0.41,0.818,0.615,1.355,0.615s0.988-0.205,1.354-0.615c0.363-0.411,0.545-1.007,0.545-1.789
					c0-0.763-0.182-1.349-0.545-1.759c-0.365-0.411-0.816-0.616-1.354-0.616s-0.989,0.205-1.355,0.616
					C665.326,28.299,665.143,28.89,665.143,29.662z"/>
				<path fill="#FFFFFF" d="M679.76,33.555h-2.06v-3.973c0-0.841-0.044-1.385-0.132-1.632c-0.089-0.246-0.23-0.438-0.43-0.575
					c-0.197-0.137-0.436-0.205-0.714-0.205c-0.356,0-0.677,0.098-0.96,0.293s-0.478,0.455-0.583,0.777s-0.157,0.919-0.157,1.789
					v3.525h-2.061V25.77h1.913v1.144c0.679-0.88,1.535-1.319,2.565-1.319c0.455,0,0.871,0.082,1.246,0.246
					c0.377,0.164,0.661,0.373,0.854,0.626c0.193,0.254,0.328,0.543,0.404,0.865s0.113,0.784,0.113,1.386V33.555z"/>
				<path fill="#FFFFFF" d="M685.42,25.77v1.643h-1.408v3.137c0,0.635,0.014,1.006,0.041,1.111c0.025,0.105,0.088,0.191,0.183,0.26
					c0.094,0.068,0.212,0.103,0.349,0.103c0.189,0,0.466-0.065,0.828-0.198l0.176,1.599c-0.48,0.205-1.021,0.308-1.627,0.308
					c-0.371,0-0.707-0.062-1.005-0.187c-0.298-0.125-0.517-0.286-0.655-0.484c-0.141-0.198-0.237-0.465-0.289-0.803
					c-0.046-0.239-0.067-0.723-0.067-1.451v-3.394h-0.946V25.77h0.946v-1.547l2.067-1.202v2.749H685.42z"/>
				<path fill="#FFFFFF" d="M686.848,24.714v-1.905h2.061v1.905H686.848z M686.848,33.555V25.77h2.061v7.785H686.848z"/>
				<path fill="#FFFFFF" d="M698.1,33.555h-2.059v-3.973c0-0.841-0.044-1.385-0.133-1.632c-0.088-0.246-0.23-0.438-0.429-0.575
					s-0.436-0.205-0.714-0.205c-0.357,0-0.678,0.098-0.961,0.293s-0.477,0.455-0.582,0.777c-0.106,0.322-0.159,0.919-0.159,1.789
					v3.525h-2.059V25.77h1.913v1.144c0.68-0.88,1.535-1.319,2.565-1.319c0.455,0,0.87,0.082,1.247,0.246
					c0.376,0.164,0.66,0.373,0.854,0.626c0.193,0.254,0.327,0.543,0.403,0.865s0.112,0.784,0.112,1.386V33.555z"/>
				<path fill="#FFFFFF" d="M705.314,33.555v-1.166c-0.283,0.416-0.656,0.744-1.118,0.982c-0.462,0.239-0.95,0.359-1.462,0.359
					c-0.523,0-0.994-0.114-1.408-0.345c-0.415-0.229-0.716-0.552-0.901-0.968c-0.187-0.414-0.278-0.989-0.278-1.723V25.77h2.059
					v3.577c0,1.095,0.039,1.767,0.114,2.013c0.076,0.246,0.213,0.442,0.415,0.586c0.2,0.145,0.453,0.217,0.762,0.217
					c0.352,0,0.666-0.097,0.945-0.29s0.469-0.433,0.572-0.718c0.103-0.286,0.154-0.986,0.154-2.101V25.77h2.059v7.785H705.314z"/>
				<path fill="#FFFFFF" d="M709.36,24.714v-1.905h2.06v1.905H709.36z M709.36,33.555V25.77h2.06v7.785H709.36z"/>
				<path fill="#FFFFFF" d="M720.672,33.555h-1.914v-1.144c-0.318,0.444-0.693,0.776-1.125,0.993
					c-0.433,0.217-0.869,0.326-1.309,0.326c-0.895,0-1.66-0.36-2.298-1.081c-0.638-0.722-0.958-1.727-0.958-3.017
					c0-1.319,0.312-2.322,0.932-3.009c0.621-0.687,1.404-1.03,2.354-1.03c0.869,0,1.623,0.362,2.258,1.085v-3.87h2.061V33.555z
					 M715.174,29.494c0,0.83,0.114,1.432,0.344,1.803c0.333,0.538,0.797,0.807,1.393,0.807c0.475,0,0.877-0.202,1.21-0.605
					c0.333-0.402,0.499-1.005,0.499-1.807c0-0.895-0.162-1.538-0.484-1.932c-0.322-0.393-0.736-0.59-1.239-0.59
					c-0.487,0-0.897,0.194-1.228,0.583C715.338,28.141,715.174,28.721,715.174,29.494z"/>
				<path fill="#FFFFFF" d="M724.24,28.145l-1.868-0.337c0.209-0.752,0.571-1.31,1.085-1.671c0.514-0.362,1.274-0.543,2.287-0.543
					c0.92,0,1.603,0.109,2.053,0.326c0.449,0.217,0.766,0.494,0.948,0.828c0.185,0.335,0.274,0.949,0.274,1.844l-0.021,2.404
					c0,0.685,0.033,1.188,0.1,1.514c0.066,0.326,0.189,0.674,0.369,1.045h-2.037c-0.054-0.137-0.119-0.34-0.198-0.608
					c-0.034-0.122-0.058-0.202-0.073-0.242c-0.352,0.342-0.729,0.599-1.129,0.771c-0.4,0.171-0.829,0.256-1.283,0.256
					c-0.801,0-1.432-0.217-1.895-0.652c-0.461-0.436-0.692-0.984-0.692-1.649c0-0.439,0.104-0.832,0.315-1.177
					c0.208-0.344,0.505-0.608,0.883-0.791c0.379-0.184,0.924-0.344,1.639-0.48c0.963-0.181,1.631-0.35,2.002-0.506V28.27
					c0-0.396-0.099-0.678-0.294-0.847s-0.565-0.253-1.106-0.253c-0.367,0-0.652,0.072-0.857,0.216
					C724.533,27.53,724.369,27.783,724.24,28.145z M726.998,29.816c-0.266,0.088-0.683,0.193-1.254,0.314
					c-0.572,0.122-0.946,0.242-1.123,0.359c-0.268,0.191-0.402,0.433-0.402,0.727c0,0.288,0.107,0.537,0.322,0.747
					c0.216,0.21,0.488,0.315,0.822,0.315c0.371,0,0.725-0.122,1.062-0.367c0.248-0.186,0.412-0.413,0.49-0.682
					c0.055-0.176,0.082-0.51,0.082-1.004V29.816z"/>
				<path fill="#FFFFFF" d="M738.191,33.555h-1.914v-1.144c-0.318,0.444-0.692,0.776-1.125,0.993
					c-0.432,0.217-0.869,0.326-1.309,0.326c-0.896,0-1.661-0.36-2.298-1.081c-0.638-0.722-0.956-1.727-0.956-3.017
					c0-1.319,0.31-2.322,0.93-3.009c0.621-0.687,1.405-1.03,2.354-1.03c0.869,0,1.623,0.362,2.258,1.085v-3.87h2.061V33.555z
					 M732.693,29.494c0,0.83,0.113,1.432,0.344,1.803c0.332,0.538,0.796,0.807,1.393,0.807c0.475,0,0.877-0.202,1.211-0.605
					c0.332-0.402,0.498-1.005,0.498-1.807c0-0.895-0.162-1.538-0.484-1.932c-0.322-0.393-0.736-0.59-1.238-0.59
					c-0.488,0-0.898,0.194-1.229,0.583C732.857,28.141,732.693,28.721,732.693,29.494z"/>
				<path fill="#FFFFFF" d="M743.916,29.553c0-0.686,0.168-1.347,0.506-1.987c0.336-0.64,0.814-1.129,1.434-1.466
					c0.617-0.337,1.309-0.506,2.07-0.506c1.178,0,2.143,0.382,2.895,1.147c0.754,0.765,1.129,1.73,1.129,2.899
					c0,1.177-0.379,2.154-1.139,2.928c-0.761,0.774-1.717,1.162-2.871,1.162c-0.713,0-1.393-0.161-2.041-0.483
					c-0.648-0.323-1.141-0.796-1.477-1.419C744.084,31.205,743.916,30.446,743.916,29.553z M746.027,29.662
					c0,0.772,0.184,1.363,0.55,1.774c0.366,0.41,0.817,0.615,1.356,0.615c0.537,0,0.988-0.205,1.352-0.615
					c0.363-0.411,0.547-1.007,0.547-1.789c0-0.763-0.184-1.349-0.547-1.759c-0.363-0.411-0.814-0.616-1.352-0.616
					c-0.539,0-0.99,0.205-1.356,0.616C746.211,28.299,746.027,28.89,746.027,29.662z"/>
				<path fill="#FFFFFF" d="M764.521,28.071l-2.03,0.366c-0.069-0.405-0.225-0.711-0.466-0.916
					c-0.242-0.205-0.555-0.308-0.941-0.308c-0.514,0-0.923,0.177-1.229,0.531s-0.457,0.946-0.457,1.778
					c0,0.923,0.154,1.575,0.465,1.957c0.311,0.381,0.727,0.571,1.25,0.571c0.391,0,0.711-0.11,0.959-0.333
					c0.25-0.223,0.425-0.605,0.529-1.147l2.023,0.345c-0.211,0.928-0.613,1.63-1.211,2.104c-0.596,0.474-1.395,0.711-2.396,0.711
					c-1.14,0-2.047-0.359-2.724-1.077c-0.678-0.719-1.015-1.713-1.015-2.983c0-1.286,0.34-2.287,1.019-3.002
					c0.679-0.716,1.598-1.074,2.757-1.074c0.947,0,1.701,0.204,2.261,0.612C763.876,26.613,764.277,27.236,764.521,28.071z"/>
				<path fill="#FFFFFF" d="M766.082,24.714v-1.905h2.061v1.905H766.082z M766.082,33.555V25.77h2.061v7.785H766.082z"/>
				<path fill="#FFFFFF" d="M774.762,31.077l2.053,0.345c-0.265,0.752-0.68,1.325-1.25,1.719c-0.568,0.393-1.281,0.59-2.138,0.59
					c-1.353,0-2.354-0.442-3.005-1.326c-0.512-0.709-0.77-1.604-0.77-2.684c0-1.29,0.338-2.301,1.012-3.031s1.527-1.096,2.559-1.096
					c1.158,0,2.071,0.382,2.742,1.147c0.67,0.765,0.988,1.937,0.96,3.515h-5.161c0.016,0.611,0.182,1.086,0.5,1.426
					c0.316,0.34,0.713,0.51,1.186,0.51c0.324,0,0.595-0.088,0.814-0.264S774.65,31.469,774.762,31.077z M774.879,28.995
					c-0.015-0.597-0.169-1.049-0.461-1.36c-0.293-0.311-0.651-0.465-1.071-0.465c-0.448,0-0.819,0.164-1.114,0.491
					c-0.293,0.327-0.436,0.772-0.432,1.334H774.879z"/>
				<path fill="#FFFFFF" d="M780.575,33.555h-2.061V25.77h1.915v1.107c0.326-0.523,0.62-0.868,0.882-1.034
					c0.261-0.165,0.558-0.249,0.892-0.249c0.469,0,0.92,0.129,1.355,0.389l-0.637,1.796c-0.348-0.225-0.67-0.337-0.969-0.337
					c-0.288,0-0.531,0.079-0.732,0.238c-0.201,0.158-0.359,0.445-0.473,0.861c-0.115,0.415-0.173,1.285-0.173,2.609V33.555z"/>
				<path fill="#FFFFFF" d="M786.417,33.555h-2.06V25.77h1.914v1.107c0.326-0.523,0.622-0.868,0.883-1.034
					c0.262-0.165,0.559-0.249,0.891-0.249c0.469,0,0.921,0.129,1.355,0.389l-0.637,1.796c-0.348-0.225-0.67-0.337-0.968-0.337
					c-0.288,0-0.532,0.079-0.733,0.238c-0.201,0.158-0.357,0.445-0.473,0.861c-0.115,0.415-0.173,1.285-0.173,2.609V33.555z"/>
				<path fill="#FFFFFF" d="M794.797,31.077l2.053,0.345c-0.265,0.752-0.682,1.325-1.251,1.719c-0.569,0.393-1.282,0.59-2.137,0.59
					c-1.353,0-2.355-0.442-3.005-1.326c-0.514-0.709-0.77-1.604-0.77-2.684c0-1.29,0.336-2.301,1.012-3.031
					c0.674-0.73,1.527-1.096,2.558-1.096c1.157,0,2.071,0.382,2.741,1.147c0.67,0.765,0.99,1.937,0.961,3.515h-5.161
					c0.015,0.611,0.181,1.086,0.499,1.426s0.715,0.51,1.187,0.51c0.323,0,0.595-0.088,0.814-0.264S794.683,31.469,794.797,31.077z
					 M794.913,28.995c-0.015-0.597-0.168-1.049-0.461-1.36c-0.294-0.311-0.649-0.465-1.07-0.465c-0.451,0-0.821,0.164-1.115,0.491
					c-0.292,0.327-0.437,0.772-0.433,1.334H794.913z"/>
			</g>
		</g>
	</g>
	<path fill="none" stroke="#6F3A89" stroke-width="3" stroke-miterlimit="10" d="M802.912,23.26v207.625c0,6.627-5.33,12-11.902,12
		H13.436c-6.574,0-11.904-5.373-11.904-12V23.26"/>
</g>
</svg>
