<?xml version="1.0" encoding="utf-8"?>
<!-- Generator: Adobe Illustrator 16.0.0, SVG Export Plug-In . SVG Version: 6.00 Build 0)  -->
<!DOCTYPE svg PUBLIC "-//W3C//DTD SVG 1.1//EN" "http://www.w3.org/Graphics/SVG/1.1/DTD/svg11.dtd">
<svg version="1.1" id="Capa_1" xmlns="http://www.w3.org/2000/svg" xmlns:xlink="http://www.w3.org/1999/xlink" x="0px" y="0px"
	 width="189.668px" height="136px" viewBox="0 0 189.668 136" enable-background="new 0 0 189.668 136" xml:space="preserve">
<g>
	<g>
		<g>
			<g>
				<path fill="#CE6F28" d="M10.068,27.126c1.56-5.282,2.82-9.76,3.783-13.434l4.667-0.056c1.145,3.822,2.456,8.177,3.933,13.062
					l-3.186,0.482l-1.009-3.517h-3.87l-1.046,3.795L10.068,27.126z M18.157,21.059c-0.432-1.336-1.137-2.935-2.115-4.796
					c-0.755,1.564-1.395,3.185-1.917,4.861L18.157,21.059z"/>
				<path fill="#CE6F28" d="M24.815,15.01l2.825-0.14v3.071l2.377-0.046l0.037,1.753l-2.414,0.083v4.222
					c0,0.983,0.56,1.476,1.68,1.476c0.232,0,0.486-0.022,0.76-0.065l-0.112,2.041c-0.398,0.037-0.775,0.056-1.133,0.056
					c-2.621,0-3.957-1.008-4.007-3.024v-4.536l-2.041,0.092l-0.05-2.068l2.091,0.019L24.815,15.01z"/>
				<path fill="#CE6F28" d="M35.134,17.97c2.879,0,4.318,1.425,4.318,4.276c0,0.347-0.021,0.718-0.062,1.113h-5.562
					c0,1.59,0.41,2.384,1.231,2.384h0.087c0.723-0.043,1.083-0.454,1.083-1.233c0-0.167-0.017-0.353-0.05-0.557l2.962-0.046
					c0,2.355-1.381,3.55-4.145,3.58c-0.033,0.007-0.062,0.01-0.087,0.01c-2.63,0-3.945-1.487-3.945-4.463v-0.277
					C31.047,19.565,32.437,17.97,35.134,17.97z M33.528,21.652h2.812V21.43c0-1.126-0.428-1.688-1.282-1.688
					C34.138,19.741,33.628,20.378,33.528,21.652z"/>
				<path fill="#CE6F28" d="M42.676,17.728L42.8,19.24c0.349-0.804,1.266-1.212,2.751-1.225h0.05c1.46,0,2.455,0.427,2.986,1.28
					c0.365,0.581,0.548,1.942,0.548,4.082c0,1.052-0.046,2.295-0.137,3.729h-3.012c0.107-1.911,0.161-3.393,0.161-4.444
					c0-0.525-0.012-0.945-0.037-1.262c-0.083-0.928-0.481-1.391-1.194-1.391c-0.714,0-1.162,0.247-1.345,0.742l0.125,6.726
					l-2.925,0.019c0-2.845-0.129-6.039-0.386-9.584L42.676,17.728z"/>
				<path fill="#CE6F28" d="M55.258,23.675l2.962,0.139c0,2.233-1.381,3.365-4.145,3.396c-0.033,0.006-0.062,0.009-0.087,0.009
					c-2.63,0-3.945-1.487-3.945-4.462v-0.279c0.083-3.191,1.485-4.802,4.207-4.833h0.1c2.506,0,3.759,1.07,3.759,3.21
					c0,0.124-0.005,0.247-0.013,0.371l-2.676,0.148v-0.223c0-1.126-0.428-1.688-1.282-1.688c-0.871,0-1.307,0.912-1.307,2.737v0.306
					c0.05,1.973,0.489,2.96,1.319,2.96h0.074c0.723-0.044,1.083-0.455,1.083-1.234C55.308,24.064,55.291,23.879,55.258,23.675z"/>
				<path fill="#CE6F28" d="M62.737,15.835c0,0.378-0.179,0.699-0.535,0.965c-0.356,0.267-0.788,0.399-1.294,0.399
					c-0.498,0-0.926-0.133-1.282-0.399c-0.356-0.266-0.535-0.587-0.535-0.965c0-0.371,0.179-0.689,0.535-0.955
					s0.784-0.398,1.282-0.398c0.506,0,0.938,0.133,1.294,0.398S62.737,15.464,62.737,15.835z M59.402,27.544
					c-0.059-3.619-0.088-6.745-0.088-9.38l3.137-0.14c-0.1,2.523-0.149,5.032-0.149,7.524c0,0.668,0.004,1.333,0.013,1.995H59.402z"
					/>
				<path fill="#CE6F28" d="M67.803,17.97c2.82,0,4.231,1.459,4.231,4.379c0,0.117-0.005,0.234-0.013,0.352
					c-0.116,3.161-1.618,4.757-4.505,4.787c-0.033,0.007-0.066,0.01-0.1,0.01c-2.747,0-4.12-1.494-4.12-4.48v-0.26
					C63.38,19.565,64.882,17.97,67.803,17.97z M67.392,20.085c-0.522,0.136-0.879,0.64-1.07,1.512
					c-0.116,0.52-0.174,1.042-0.174,1.568c0,0.352,0.024,0.708,0.074,1.066c0.133,0.891,0.561,1.352,1.282,1.383h0.087
					c0.672,0,1.133-0.331,1.382-0.993c0.207-0.551,0.311-1.203,0.311-1.958c0-0.186-0.004-0.374-0.012-0.565
					c-0.067-0.996-0.266-1.617-0.598-1.864c-0.208-0.148-0.457-0.223-0.747-0.223C67.761,20.011,67.583,20.035,67.392,20.085z
					 M66.185,16.16c0.971-0.859,1.768-1.679,2.39-2.458l2.041,1.205c-0.88,0.644-1.858,1.433-2.938,2.366L66.185,16.16z"/>
				<path fill="#CE6F28" d="M75.009,17.728l0.124,1.513c0.349-0.804,1.266-1.212,2.751-1.225h0.05c1.46,0,2.455,0.427,2.986,1.28
					c0.365,0.581,0.548,1.942,0.548,4.082c0,1.052-0.046,2.295-0.137,3.729h-3.012c0.107-1.911,0.161-3.393,0.161-4.444
					c0-0.525-0.012-0.945-0.037-1.262c-0.083-0.928-0.481-1.391-1.194-1.391c-0.714,0-1.162,0.247-1.345,0.742l0.125,6.726
					l-2.925,0.019c0-2.845-0.129-6.039-0.386-9.584L75.009,17.728z"/>
				<path fill="#CE6F28" d="M87.343,27.219c0.05-1.627,0.074-3.29,0.074-4.991c0-2.61-0.058-5.312-0.174-8.108
					c1.419-0.148,2.671-0.223,3.758-0.223c1.71,0,2.995,0.186,3.858,0.557c1.336,0.575,2.004,1.753,2.004,3.534v0.307
					c-0.083,1.954-0.677,3.205-1.779,3.753c-1.104,0.547-2.465,0.839-4.083,0.876c-0.008,0.192-0.012,0.391-0.012,0.594
					c0,1.027,0.07,2.242,0.211,3.646L87.343,27.219z M90.528,16.271l0.087,4.536c1.544-0.062,2.448-0.473,2.714-1.233
					c0.124-0.347,0.187-0.702,0.187-1.067c0-0.426-0.083-0.865-0.249-1.316c-0.249-0.662-0.871-0.993-1.867-0.993
					C91.134,16.197,90.844,16.222,90.528,16.271z"/>
				<path fill="#CE6F28" d="M97.934,24.204l2.85-0.103v0.12c0,0.953,0.395,1.436,1.183,1.447h0.05c0.764,0,1.145-0.274,1.145-0.825
					v-0.065c-0.033-0.605-0.786-1.094-2.259-1.465s-2.358-0.996-2.657-1.875c-0.107-0.309-0.161-0.605-0.161-0.891
					c0-0.52,0.178-1.002,0.535-1.447c0.548-0.68,1.377-1.069,2.489-1.168c0.298-0.025,0.589-0.037,0.871-0.037
					c0.738,0,1.39,0.096,1.954,0.287c0.771,0.266,1.307,0.646,1.605,1.141c0.198,0.341,0.298,0.718,0.298,1.133
					c0,0.197-0.021,0.401-0.062,0.611l-2.664,0.047c0.025-0.154,0.038-0.297,0.038-0.427c0-0.618-0.266-0.949-0.797-0.993
					c-0.058-0.006-0.116-0.009-0.174-0.009c-0.548,0-0.917,0.207-1.108,0.622c-0.066,0.142-0.1,0.271-0.1,0.389
					c0,0.291,0.183,0.542,0.548,0.752c0.515,0.297,1.275,0.599,2.284,0.904c1.008,0.307,1.687,0.827,2.034,1.563
					c0.125,0.278,0.188,0.557,0.188,0.835c0,0.47-0.183,0.943-0.548,1.42c-0.581,0.76-1.481,1.202-2.701,1.326
					c-0.266,0.031-0.526,0.047-0.784,0.047c-0.912,0-1.759-0.177-2.538-0.529C98.456,26.563,97.95,25.626,97.934,24.204z"/>
				<path fill="#CE6F28" d="M110.403,15.835c0,0.378-0.179,0.699-0.535,0.965c-0.356,0.267-0.788,0.399-1.294,0.399
					c-0.498,0-0.926-0.133-1.282-0.399c-0.356-0.266-0.535-0.587-0.535-0.965c0-0.371,0.179-0.689,0.535-0.955
					s0.784-0.398,1.282-0.398c0.506,0,0.938,0.133,1.294,0.398S110.403,15.464,110.403,15.835z M107.068,27.544
					c-0.059-3.619-0.088-6.745-0.088-9.38l3.137-0.14c-0.1,2.523-0.149,5.032-0.149,7.524c0,0.668,0.004,1.333,0.013,1.995H107.068z
					"/>
				<path fill="#CE6F28" d="M116.179,23.675l2.962,0.139c0,2.233-1.381,3.365-4.145,3.396c-0.033,0.006-0.062,0.009-0.087,0.009
					c-2.63,0-3.945-1.487-3.945-4.462v-0.279c0.083-3.191,1.485-4.802,4.207-4.833h0.1c2.506,0,3.759,1.07,3.759,3.21
					c0,0.124-0.005,0.247-0.013,0.371l-2.676,0.148v-0.223c0-1.126-0.428-1.688-1.282-1.688c-0.871,0-1.307,0.912-1.307,2.737v0.306
					c0.05,1.973,0.489,2.96,1.319,2.96h0.074c0.723-0.044,1.083-0.455,1.083-1.234C116.229,24.064,116.212,23.879,116.179,23.675z"
					/>
				<path fill="#CE6F28" d="M124.555,17.97c2.82,0,4.231,1.459,4.231,4.379c0,0.117-0.005,0.234-0.013,0.352
					c-0.116,3.161-1.618,4.757-4.505,4.787c-0.033,0.007-0.066,0.01-0.1,0.01c-2.747,0-4.12-1.494-4.12-4.48v-0.26
					C120.132,19.565,121.634,17.97,124.555,17.97z M124.144,20.085c-0.522,0.136-0.879,0.64-1.07,1.512
					c-0.116,0.52-0.174,1.042-0.174,1.568c0,0.352,0.024,0.708,0.074,1.066c0.133,0.891,0.561,1.352,1.282,1.383h0.087
					c0.672,0,1.133-0.331,1.382-0.993c0.207-0.551,0.311-1.203,0.311-1.958c0-0.186-0.004-0.374-0.012-0.565
					c-0.067-0.996-0.266-1.617-0.598-1.864c-0.208-0.148-0.457-0.223-0.747-0.223C124.513,20.011,124.335,20.035,124.144,20.085z"/>
				<path fill="#CE6F28" d="M129.321,24.204l2.85-0.103v0.12c0,0.953,0.395,1.436,1.183,1.447h0.05c0.764,0,1.145-0.274,1.145-0.825
					v-0.065c-0.033-0.605-0.786-1.094-2.259-1.465s-2.358-0.996-2.657-1.875c-0.107-0.309-0.161-0.605-0.161-0.891
					c0-0.52,0.178-1.002,0.535-1.447c0.548-0.68,1.377-1.069,2.489-1.168c0.298-0.025,0.589-0.037,0.871-0.037
					c0.738,0,1.39,0.096,1.954,0.287c0.771,0.266,1.307,0.646,1.605,1.141c0.198,0.341,0.298,0.718,0.298,1.133
					c0,0.197-0.021,0.401-0.062,0.611l-2.664,0.047c0.025-0.154,0.038-0.297,0.038-0.427c0-0.618-0.266-0.949-0.797-0.993
					c-0.058-0.006-0.116-0.009-0.174-0.009c-0.548,0-0.917,0.207-1.108,0.622c-0.066,0.142-0.1,0.271-0.1,0.389
					c0,0.291,0.183,0.542,0.548,0.752c0.515,0.297,1.275,0.599,2.284,0.904c1.008,0.307,1.687,0.827,2.034,1.563
					c0.125,0.278,0.188,0.557,0.188,0.835c0,0.47-0.183,0.943-0.548,1.42c-0.581,0.76-1.481,1.202-2.701,1.326
					c-0.266,0.031-0.526,0.047-0.784,0.047c-0.912,0-1.759-0.177-2.538-0.529C129.844,26.563,129.338,25.626,129.321,24.204z"/>
				<path fill="#CE6F28" d="M142.688,17.97c2.82,0,4.231,1.459,4.231,4.379c0,0.117-0.005,0.234-0.013,0.352
					c-0.116,3.161-1.618,4.757-4.505,4.787c-0.033,0.007-0.066,0.01-0.1,0.01c-2.747,0-4.12-1.494-4.12-4.48v-0.26
					C138.265,19.565,139.767,17.97,142.688,17.97z M142.276,20.085c-0.522,0.136-0.879,0.64-1.07,1.512
					c-0.116,0.52-0.174,1.042-0.174,1.568c0,0.352,0.024,0.708,0.074,1.066c0.133,0.891,0.561,1.352,1.282,1.383h0.087
					c0.672,0,1.133-0.331,1.382-0.993c0.207-0.551,0.311-1.203,0.311-1.958c0-0.186-0.004-0.374-0.012-0.565
					c-0.067-0.996-0.266-1.617-0.598-1.864c-0.208-0.148-0.457-0.223-0.747-0.223C142.646,20.011,142.468,20.035,142.276,20.085z"/>
				<path fill="#CE6F28" d="M152.693,23.675l2.962,0.139c0,2.233-1.381,3.365-4.145,3.396c-0.033,0.006-0.062,0.009-0.087,0.009
					c-2.63,0-3.945-1.487-3.945-4.462v-0.279c0.083-3.191,1.485-4.802,4.207-4.833h0.1c2.506,0,3.759,1.07,3.759,3.21
					c0,0.124-0.005,0.247-0.013,0.371l-2.676,0.148v-0.223c0-1.126-0.428-1.688-1.282-1.688c-0.871,0-1.307,0.912-1.307,2.737v0.306
					c0.05,1.973,0.489,2.96,1.319,2.96h0.074c0.723-0.044,1.083-0.455,1.083-1.234C152.743,24.064,152.727,23.879,152.693,23.675z"
					/>
				<path fill="#CE6F28" d="M160.174,15.835c0,0.378-0.179,0.699-0.535,0.965c-0.356,0.267-0.788,0.399-1.294,0.399
					c-0.498,0-0.926-0.133-1.282-0.399c-0.356-0.266-0.535-0.587-0.535-0.965c0-0.371,0.179-0.689,0.535-0.955
					s0.784-0.398,1.282-0.398c0.506,0,0.938,0.133,1.294,0.398S160.174,15.464,160.174,15.835z M156.839,27.544
					c-0.059-3.619-0.088-6.745-0.088-9.38l3.137-0.14c-0.1,2.523-0.149,5.032-0.149,7.524c0,0.668,0.004,1.333,0.013,1.995H156.839z
					"/>
				<path fill="#CE6F28" d="M165.675,17.7c2.729,0.111,4.095,1.135,4.095,3.07v6.588l-2.9,0.037l-0.1-0.882
					c-0.597,0.507-1.39,0.761-2.377,0.761c-0.423,0-0.88-0.05-1.369-0.148c-1.469-0.272-2.202-1.119-2.202-2.542
					c0-0.173,0.012-0.358,0.037-0.557c0.166-1.466,1.563-2.198,4.194-2.198c0.506,0,1.062,0.027,1.667,0.083v-1.076
					c0-0.872-0.369-1.308-1.107-1.308h-0.05c-0.058-0.007-0.112-0.01-0.162-0.01c-0.805,0-1.207,0.488-1.207,1.466v0.14
					l-2.962-0.186c0-2.159,1.394-3.238,4.182-3.238H165.675z M166.72,25.029v-1.633c-0.356-0.056-0.68-0.083-0.971-0.083
					c-0.755,0-1.27,0.188-1.543,0.565c-0.166,0.229-0.249,0.442-0.249,0.64c0,0.248,0.133,0.468,0.398,0.659
					c0.207,0.148,0.477,0.223,0.809,0.223C165.588,25.4,166.105,25.276,166.72,25.029z"/>
				<path fill="#CE6F28" d="M174.262,27.339l-3.099,0.214c0.032-2.047,0.05-4.017,0.05-5.909c0-2.66-0.033-5.168-0.1-7.524
					l3.049-0.037c-0.033,1.516-0.05,3.071-0.05,4.667C174.112,21.501,174.162,24.364,174.262,27.339z"/>
			</g>
		</g>
		<g>
			<path fill="none" stroke="#6F3A89" stroke-width="3" stroke-miterlimit="10" stroke-dasharray="12.0568,12.0568" d="
				M188.168,30.166c0,6.628-5.374,12-12,12H13.5c-6.628,0-12-5.372-12-12V13.5c0-6.628,5.372-12,12-12h162.668
				c6.626,0,12,5.372,12,12V30.166z"/>
		</g>
	</g>
	<g>
		<g>
			<path fill="#CE6F28" d="M10.068,78.624c1.56-5.282,2.82-9.76,3.783-13.434l4.667-0.056c1.145,3.822,2.456,8.177,3.933,13.062
				l-3.186,0.482l-1.009-3.517h-3.87l-1.046,3.795L10.068,78.624z M18.157,72.557c-0.432-1.336-1.137-2.935-2.115-4.796
				c-0.755,1.564-1.395,3.185-1.917,4.861L18.157,72.557z"/>
			<path fill="#CE6F28" d="M24.815,66.508l2.825-0.14v3.071l2.377-0.046l0.037,1.753l-2.414,0.083v4.222
				c0,0.983,0.56,1.476,1.68,1.476c0.232,0,0.486-0.022,0.76-0.065l-0.112,2.041c-0.398,0.037-0.775,0.056-1.133,0.056
				c-2.621,0-3.957-1.008-4.007-3.024v-4.536l-2.041,0.092l-0.05-2.068l2.091,0.019L24.815,66.508z"/>
			<path fill="#CE6F28" d="M35.134,69.468c2.879,0,4.318,1.425,4.318,4.276c0,0.347-0.021,0.718-0.062,1.113h-5.562
				c0,1.59,0.41,2.384,1.231,2.384h0.087c0.723-0.043,1.083-0.454,1.083-1.233c0-0.167-0.017-0.353-0.05-0.557l2.962-0.046
				c0,2.355-1.381,3.55-4.145,3.58c-0.033,0.007-0.062,0.01-0.087,0.01c-2.63,0-3.945-1.487-3.945-4.463v-0.277
				C31.047,71.063,32.437,69.468,35.134,69.468z M33.528,73.15h2.812v-0.223c0-1.126-0.428-1.688-1.282-1.688
				C34.138,71.239,33.628,71.876,33.528,73.15z"/>
			<path fill="#CE6F28" d="M42.676,69.226l0.124,1.513c0.349-0.804,1.266-1.212,2.751-1.225h0.05c1.46,0,2.455,0.427,2.986,1.28
				c0.365,0.581,0.548,1.942,0.548,4.082c0,1.052-0.046,2.295-0.137,3.729h-3.012c0.107-1.911,0.161-3.393,0.161-4.444
				c0-0.525-0.012-0.945-0.037-1.262c-0.083-0.928-0.481-1.391-1.194-1.391c-0.714,0-1.162,0.247-1.345,0.742l0.125,6.726
				l-2.925,0.019c0-2.845-0.129-6.039-0.386-9.584L42.676,69.226z"/>
			<path fill="#CE6F28" d="M55.258,75.173l2.962,0.139c0,2.233-1.381,3.365-4.145,3.396c-0.033,0.006-0.062,0.009-0.087,0.009
				c-2.63,0-3.945-1.487-3.945-4.462v-0.279c0.083-3.191,1.485-4.802,4.207-4.833h0.1c2.506,0,3.759,1.07,3.759,3.21
				c0,0.124-0.005,0.247-0.013,0.371l-2.676,0.148v-0.223c0-1.126-0.428-1.688-1.282-1.688c-0.871,0-1.307,0.912-1.307,2.737v0.306
				c0.05,1.973,0.489,2.96,1.319,2.96h0.074c0.723-0.044,1.083-0.455,1.083-1.234C55.308,75.562,55.291,75.377,55.258,75.173z"/>
			<path fill="#CE6F28" d="M62.737,67.333c0,0.378-0.179,0.699-0.535,0.965c-0.356,0.267-0.788,0.399-1.294,0.399
				c-0.498,0-0.926-0.133-1.282-0.399c-0.356-0.266-0.535-0.587-0.535-0.965c0-0.371,0.179-0.689,0.535-0.955
				s0.784-0.398,1.282-0.398c0.506,0,0.938,0.133,1.294,0.398S62.737,66.962,62.737,67.333z M59.402,79.042
				c-0.059-3.619-0.088-6.745-0.088-9.38l3.137-0.14c-0.1,2.523-0.149,5.032-0.149,7.524c0,0.668,0.004,1.333,0.013,1.995H59.402z"
				/>
			<path fill="#CE6F28" d="M67.803,69.468c2.82,0,4.231,1.459,4.231,4.379c0,0.117-0.005,0.234-0.013,0.352
				c-0.116,3.161-1.618,4.757-4.505,4.787c-0.033,0.007-0.066,0.01-0.1,0.01c-2.747,0-4.12-1.494-4.12-4.48v-0.26
				C63.38,71.063,64.882,69.468,67.803,69.468z M67.392,71.583c-0.522,0.136-0.879,0.64-1.07,1.512
				c-0.116,0.52-0.174,1.042-0.174,1.568c0,0.352,0.024,0.708,0.074,1.066c0.133,0.891,0.561,1.352,1.282,1.383h0.087
				c0.672,0,1.133-0.331,1.382-0.993c0.207-0.551,0.311-1.203,0.311-1.958c0-0.186-0.004-0.374-0.012-0.565
				c-0.067-0.996-0.266-1.617-0.598-1.864c-0.208-0.148-0.457-0.223-0.747-0.223C67.761,71.509,67.583,71.533,67.392,71.583z
				 M66.185,67.658c0.971-0.859,1.768-1.679,2.39-2.458l2.041,1.205c-0.88,0.644-1.858,1.433-2.938,2.366L66.185,67.658z"/>
			<path fill="#CE6F28" d="M75.009,69.226l0.124,1.513c0.349-0.804,1.266-1.212,2.751-1.225h0.05c1.46,0,2.455,0.427,2.986,1.28
				c0.365,0.581,0.548,1.942,0.548,4.082c0,1.052-0.046,2.295-0.137,3.729h-3.012c0.107-1.911,0.161-3.393,0.161-4.444
				c0-0.525-0.012-0.945-0.037-1.262c-0.083-0.928-0.481-1.391-1.194-1.391c-0.714,0-1.162,0.247-1.345,0.742l0.125,6.726
				l-2.925,0.019c0-2.845-0.129-6.039-0.386-9.584L75.009,69.226z"/>
			<path fill="#CE6F28" d="M90.641,78.28l-3.099,0.214c0-4.54-0.1-8.801-0.299-12.784l3.547-0.223
				C90.698,69.687,90.648,73.951,90.641,78.28z"/>
			<path fill="#CE6F28" d="M94.175,69.226l0.124,1.513c0.349-0.804,1.266-1.212,2.751-1.225h0.05c1.46,0,2.455,0.427,2.986,1.28
				c0.365,0.581,0.548,1.942,0.548,4.082c0,1.052-0.046,2.295-0.137,3.729h-3.012c0.107-1.911,0.161-3.393,0.161-4.444
				c0-0.525-0.012-0.945-0.037-1.262c-0.083-0.928-0.481-1.391-1.194-1.391c-0.714,0-1.162,0.247-1.345,0.742l0.125,6.726
				l-2.925,0.019c0-2.845-0.129-6.039-0.386-9.584L94.175,69.226z"/>
			<path fill="#CE6F28" d="M103.745,66.508l2.825-0.14v3.071l2.377-0.046l0.037,1.753l-2.414,0.083v4.222
				c0,0.983,0.56,1.476,1.68,1.476c0.232,0,0.486-0.022,0.76-0.065l-0.112,2.041c-0.398,0.037-0.775,0.056-1.133,0.056
				c-2.621,0-3.957-1.008-4.007-3.024v-4.536l-2.041,0.092l-0.05-2.068l2.091,0.019L103.745,66.508z"/>
			<path fill="#CE6F28" d="M114.063,69.468c2.879,0,4.318,1.425,4.318,4.276c0,0.347-0.021,0.718-0.062,1.113h-5.562
				c0,1.59,0.41,2.384,1.231,2.384h0.087c0.723-0.043,1.083-0.454,1.083-1.233c0-0.167-0.017-0.353-0.05-0.557l2.962-0.046
				c0,2.355-1.381,3.55-4.145,3.58c-0.033,0.007-0.062,0.01-0.087,0.01c-2.63,0-3.945-1.487-3.945-4.463v-0.277
				C109.977,71.063,111.366,69.468,114.063,69.468z M112.458,73.15h2.812v-0.223c0-1.126-0.428-1.688-1.282-1.688
				C113.067,71.239,112.558,71.876,112.458,73.15z"/>
			<path fill="#CE6F28" d="M119.664,80.071l2.925-0.121c-0.009,0.074-0.013,0.148-0.013,0.223c0,0.675,0.36,1.043,1.083,1.104
				c0.115,0.013,0.224,0.019,0.323,0.019c0.622,0,1.065-0.186,1.331-0.557c0.232-0.334,0.349-0.959,0.349-1.874
				c0-0.247-0.008-0.52-0.024-0.816c-0.465,0.692-1.328,1.07-2.589,1.132c-2.464-0.019-3.696-1.58-3.696-4.686v-0.064
				c0.017-3.142,1.481-4.723,4.394-4.74c0.796,0,1.51,0.346,2.141,1.039l0.037-1.476l2.726,0.093c0,5.103-0.021,8.263-0.062,9.481
				c-0.041,1.219-0.288,2.195-0.74,2.932s-1.222,1.206-2.309,1.41c-0.572,0.111-1.141,0.167-1.705,0.167
				c-0.506,0-1.008-0.043-1.506-0.13c-1.062-0.186-1.792-0.535-2.19-1.048c-0.332-0.421-0.498-0.972-0.498-1.652
				C119.639,80.371,119.646,80.226,119.664,80.071z M125.612,76.397v-3.767c-0.406-0.612-0.921-0.919-1.543-0.919
				c-0.124,0-0.253,0.013-0.386,0.037c-0.805,0.143-1.249,0.969-1.332,2.478c-0.008,0.161-0.012,0.315-0.012,0.464
				c0,1.23,0.307,1.985,0.921,2.264c0.207,0.099,0.427,0.148,0.659,0.148C124.435,77.103,124.999,76.867,125.612,76.397z"/>
			<path fill="#CE6F28" d="M132.918,72.343l0.124,6.727l-3.049,0.019c0-2.845-0.129-6.04-0.386-9.583l2.29-0.186l0.124,1.512
				c0.349-0.742,1.162-1.166,2.439-1.271c0.19-0.012,0.373-0.018,0.548-0.018c1.004,0,1.767,0.244,2.29,0.732
				c0.605,0.581,0.912,1.506,0.921,2.773l-2.763,0.205c0.008-0.105,0.012-0.208,0.012-0.307c0-0.989-0.344-1.484-1.032-1.484h-0.05
				C133.59,71.493,133.101,71.786,132.918,72.343z"/>
			<path fill="#CE6F28" d="M143.87,69.198c2.729,0.111,4.095,1.135,4.095,3.07v6.588l-2.9,0.037l-0.1-0.882
				c-0.597,0.507-1.39,0.761-2.377,0.761c-0.423,0-0.88-0.05-1.369-0.148c-1.469-0.272-2.202-1.119-2.202-2.542
				c0-0.173,0.012-0.358,0.037-0.557c0.166-1.466,1.563-2.198,4.194-2.198c0.506,0,1.062,0.027,1.667,0.083v-1.076
				c0-0.872-0.369-1.308-1.107-1.308h-0.05c-0.058-0.007-0.112-0.01-0.162-0.01c-0.805,0-1.207,0.488-1.207,1.466v0.14l-2.962-0.186
				c0-2.159,1.394-3.238,4.182-3.238H143.87z M144.915,76.527v-1.633c-0.356-0.056-0.68-0.083-0.971-0.083
				c-0.755,0-1.27,0.188-1.543,0.565c-0.166,0.229-0.249,0.442-0.249,0.64c0,0.248,0.133,0.468,0.398,0.659
				c0.207,0.148,0.477,0.223,0.809,0.223C143.783,76.898,144.301,76.774,144.915,76.527z"/>
			<path fill="#CE6F28" d="M152.457,78.837l-3.099,0.214c0.032-2.047,0.05-4.017,0.05-5.909c0-2.66-0.033-5.168-0.1-7.524
				l3.049-0.037c-0.033,1.516-0.05,3.071-0.05,4.667C152.308,72.999,152.357,75.862,152.457,78.837z"/>
			<path fill="#CE6F28" d="M162.215,69.468c2.879,0,4.318,1.425,4.318,4.276c0,0.347-0.021,0.718-0.062,1.113h-5.562
				c0,1.59,0.41,2.384,1.231,2.384h0.087c0.723-0.043,1.083-0.454,1.083-1.233c0-0.167-0.017-0.353-0.05-0.557l2.962-0.046
				c0,2.355-1.381,3.55-4.145,3.58c-0.033,0.007-0.062,0.01-0.087,0.01c-2.63,0-3.945-1.487-3.945-4.463v-0.277
				C158.128,71.063,159.518,69.468,162.215,69.468z M160.609,73.15h2.812v-0.223c0-1.126-0.428-1.688-1.282-1.688
				C161.219,71.239,160.709,71.876,160.609,73.15z"/>
			<path fill="#CE6F28" d="M169.757,69.226l0.124,1.513c0.349-0.804,1.266-1.212,2.751-1.225h0.05c1.46,0,2.455,0.427,2.986,1.28
				c0.365,0.581,0.548,1.942,0.548,4.082c0,1.052-0.046,2.295-0.137,3.729h-3.012c0.107-1.911,0.161-3.393,0.161-4.444
				c0-0.525-0.012-0.945-0.037-1.262c-0.083-0.928-0.481-1.391-1.194-1.391c-0.714,0-1.162,0.247-1.345,0.742l0.125,6.726
				l-2.925,0.019c0-2.845-0.129-6.039-0.386-9.584L169.757,69.226z"/>
			<path fill="#CE6F28" d="M10.939,96.609l3.696-0.186c-0.05,0.383-0.075,0.729-0.075,1.039c0,1.403,0.469,2.105,1.406,2.105h0.05
				c1.137-0.024,1.705-0.476,1.705-1.354v-0.083c-0.041-0.935-1.115-1.85-3.223-2.746c-2.05-0.866-3.074-2.295-3.074-4.286
				c0-0.062,0.004-0.124,0.012-0.186c0.059-2.085,1.627-3.146,4.705-3.183h0.1c2.779,0,4.169,1.32,4.169,3.962
				c0,0.21-0.008,0.433-0.024,0.668l-3.249,0.139c0.033-0.278,0.05-0.535,0.05-0.77c0-1.107-0.36-1.661-1.082-1.661
				c-0.872,0-1.349,0.331-1.432,0.993c-0.009,0.093-0.013,0.186-0.013,0.278c0,0.55,0.22,1.063,0.66,1.54
				c0.506,0.55,1.375,1.055,2.607,1.512c1.231,0.458,2.093,1.086,2.582,1.884c0.349,0.575,0.522,1.188,0.522,1.837
				c0,0.247-0.024,0.501-0.074,0.761c-0.191,0.934-0.722,1.708-1.593,2.323c-0.872,0.616-2.041,0.951-3.51,1.007
				c-0.1,0.007-0.199,0.01-0.299,0.01c-1.336,0-2.452-0.365-3.348-1.095c-0.863-0.699-1.295-1.97-1.295-3.813
				C10.914,97.082,10.923,96.851,10.939,96.609z"/>
			<path fill="#CE6F28" d="M26.92,91.998c2.729,0.111,4.095,1.135,4.095,3.071v6.587l-2.9,0.037l-0.1-0.882
				c-0.597,0.508-1.39,0.761-2.377,0.761c-0.423,0-0.88-0.049-1.369-0.148c-1.469-0.271-2.202-1.119-2.202-2.542
				c0-0.173,0.012-0.358,0.037-0.557c0.166-1.466,1.563-2.198,4.194-2.198c0.506,0,1.062,0.027,1.667,0.083v-1.076
				c0-0.872-0.369-1.308-1.107-1.308h-0.05c-0.058-0.007-0.112-0.01-0.162-0.01c-0.805,0-1.207,0.489-1.207,1.466v0.14l-2.962-0.186
				c0-2.159,1.394-3.238,4.182-3.238H26.92z M27.965,99.327v-1.633c-0.356-0.056-0.68-0.083-0.971-0.083
				c-0.755,0-1.27,0.188-1.543,0.565c-0.166,0.229-0.249,0.442-0.249,0.641c0,0.247,0.133,0.467,0.398,0.658
				c0.207,0.148,0.477,0.223,0.809,0.223C26.833,99.698,27.351,99.575,27.965,99.327z"/>
			<path fill="#CE6F28" d="M35.507,101.638l-3.099,0.213c0.032-2.047,0.05-4.017,0.05-5.909c0-2.66-0.033-5.168-0.1-7.524
				l3.049-0.037c-0.033,1.516-0.05,3.071-0.05,4.667C35.357,95.799,35.407,98.662,35.507,101.638z"/>
			<path fill="#CE6F28" d="M43.036,101.795l-0.124-1.512c-0.349,0.804-1.286,1.209-2.813,1.215c-0.017,0.007-0.028,0.01-0.037,0.01
				c-1.51,0-2.51-0.508-2.999-1.521c-0.332-0.675-0.498-2.069-0.498-4.185c0-1.088,0.046-2.372,0.137-3.85h3.024
				c-0.166,2.078-0.249,3.677-0.249,4.796c0,0.563,0.021,1.002,0.062,1.317c0.124,0.965,0.543,1.447,1.257,1.447
				s1.161-0.25,1.344-0.751l-0.124-6.438l2.925-0.019c0,2.659,0.129,5.758,0.386,9.296L43.036,101.795z"/>
			<path fill="#CE6F28" d="M55.768,88.668c-0.05,2.09-0.074,4.283-0.074,6.577c0,2.091,0.021,4.268,0.062,6.531l-2.95,0.01
				l-0.1-1.42c-0.614,0.687-1.431,1.03-2.451,1.03c-2.548,0-3.821-1.454-3.821-4.36c0-0.062,0.004-0.124,0.013-0.186
				c0.05-2.913,1.311-4.37,3.783-4.37c0.1,0,0.203,0.003,0.312,0.01c0.846,0.037,1.53,0.38,2.054,1.029
				c0-1.373-0.046-2.99-0.138-4.852H55.768z M52.656,98.465l-0.062-3.21c-0.481-0.489-0.976-0.733-1.481-0.733
				c-0.207,0-0.415,0.04-0.622,0.121c-0.655,0.253-0.983,0.965-0.983,2.134c0,0.136,0.004,0.275,0.013,0.417
				c0.083,1.417,0.506,2.165,1.27,2.245c0.074,0.007,0.149,0.01,0.224,0.01C51.678,99.448,52.225,99.12,52.656,98.465z"/>
			<path fill="#CE6F28" d="M66.483,97.973l2.962,0.14c0,2.232-1.381,3.364-4.145,3.396c-0.033,0.006-0.062,0.009-0.087,0.009
				c-2.63,0-3.945-1.487-3.945-4.462v-0.278c0.083-3.191,1.485-4.803,4.207-4.834h0.1c2.506,0,3.759,1.07,3.759,3.21
				c0,0.124-0.005,0.248-0.013,0.371l-2.676,0.148v-0.223c0-1.125-0.428-1.688-1.282-1.688c-0.871,0-1.307,0.912-1.307,2.737v0.306
				c0.05,1.974,0.489,2.96,1.319,2.96h0.074c0.723-0.044,1.083-0.455,1.083-1.234C66.533,98.362,66.517,98.177,66.483,97.973z"/>
			<path fill="#CE6F28" d="M74.859,92.268c2.82,0,4.231,1.459,4.231,4.379c0,0.117-0.005,0.234-0.013,0.353
				c-0.116,3.16-1.618,4.756-4.505,4.787c-0.033,0.006-0.066,0.009-0.1,0.009c-2.747,0-4.12-1.493-4.12-4.48v-0.26
				C70.437,93.863,71.938,92.268,74.859,92.268z M74.448,94.383c-0.522,0.136-0.879,0.64-1.07,1.512
				c-0.116,0.52-0.174,1.042-0.174,1.568c0,0.353,0.024,0.708,0.074,1.066c0.133,0.891,0.561,1.352,1.282,1.383h0.087
				c0.672,0,1.133-0.331,1.382-0.993c0.207-0.55,0.311-1.203,0.311-1.957c0-0.186-0.004-0.374-0.012-0.566
				c-0.067-0.995-0.266-1.617-0.598-1.864c-0.208-0.148-0.457-0.223-0.747-0.223C74.817,94.309,74.64,94.333,74.448,94.383z"/>
			<path fill="#CE6F28" d="M82.065,92.026l0.124,1.512c0.349-0.804,1.266-1.212,2.751-1.225h0.05c1.46,0,2.455,0.427,2.986,1.28
				c0.365,0.582,0.548,1.942,0.548,4.082c0,1.052-0.046,2.295-0.137,3.729h-3.012c0.107-1.911,0.161-3.393,0.161-4.443
				c0-0.526-0.012-0.946-0.037-1.262c-0.083-0.928-0.481-1.392-1.194-1.392c-0.714,0-1.162,0.247-1.345,0.742l0.125,6.726
				l-2.925,0.019c0-2.845-0.129-6.039-0.386-9.583L82.065,92.026z"/>
			<path fill="#CE6F28" d="M102.202,88.436v2.616l-4.916-0.148v3.043l4.419-0.093l0.111,2.515h-3.945v2.356h5.165v2.635
				l-8.612-0.093c0.092-1.738,0.137-3.488,0.137-5.251c0-2.443-0.087-4.908-0.261-7.395C96.175,88.565,98.809,88.504,102.202,88.436
				z"/>
			<path fill="#CE6F28" d="M106.422,92.026l0.124,1.512c0.349-0.804,1.266-1.212,2.751-1.225h0.05c1.46,0,2.455,0.427,2.986,1.28
				c0.365,0.582,0.548,1.942,0.548,4.082c0,1.052-0.046,2.295-0.137,3.729h-3.012c0.107-1.911,0.161-3.393,0.161-4.443
				c0-0.526-0.012-0.946-0.037-1.262c-0.083-0.928-0.481-1.392-1.194-1.392c-0.714,0-1.162,0.247-1.345,0.742l0.125,6.726
				l-2.925,0.019c0-2.845-0.129-6.039-0.386-9.583L106.422,92.026z"/>
			<path fill="#CE6F28" d="M115.73,92.602c-0.017-0.167-0.024-0.337-0.024-0.511c0-0.581,0.079-1.178,0.236-1.79
				c0.19-0.798,0.771-1.436,1.742-1.911c0.722-0.359,1.635-0.538,2.738-0.538c0.365,0,0.755,0.021,1.17,0.064l-0.025,2.032
				c-0.248-0.025-0.48-0.037-0.696-0.037c-0.689,0-1.195,0.127-1.519,0.38c-0.356,0.267-0.535,0.786-0.535,1.559
				c0,0.186,0.013,0.39,0.037,0.612l2.664-0.027v1.883l-2.738,0.13c0.066,2.029,0.1,3.946,0.1,5.752
				c0,0.545-0.005,1.076-0.013,1.596l-3.161,0.103c0.024-2.06,0.066-4.497,0.124-7.311l-2.016,0.074l-0.05-1.995L115.73,92.602z"/>
			<path fill="#CE6F28" d="M126.994,92.268c2.82,0,4.231,1.459,4.231,4.379c0,0.117-0.005,0.234-0.013,0.353
				c-0.116,3.16-1.618,4.756-4.505,4.787c-0.033,0.006-0.066,0.009-0.1,0.009c-2.747,0-4.12-1.493-4.12-4.48v-0.26
				C122.571,93.863,124.073,92.268,126.994,92.268z M126.583,94.383c-0.522,0.136-0.879,0.64-1.07,1.512
				c-0.116,0.52-0.174,1.042-0.174,1.568c0,0.353,0.024,0.708,0.074,1.066c0.133,0.891,0.561,1.352,1.282,1.383h0.087
				c0.672,0,1.133-0.331,1.382-0.993c0.207-0.55,0.311-1.203,0.311-1.957c0-0.186-0.004-0.374-0.012-0.566
				c-0.067-0.995-0.266-1.617-0.598-1.864c-0.208-0.148-0.457-0.223-0.747-0.223C126.952,94.309,126.774,94.333,126.583,94.383z"/>
			<path fill="#CE6F28" d="M138.195,105.961c0.008-1.985,0.012-3.665,0.012-5.038c-0.48,0.656-1.353,0.999-2.613,1.03
				c-2.431,0-3.65-1.577-3.659-4.731c-0.008-0.013-0.012-0.025-0.012-0.037c0-3.13,1.46-4.694,4.38-4.694
				c0.854,0,1.589,0.346,2.203,1.039l0.1-1.429l2.701,0.009c-0.042,2.443-0.062,4.757-0.062,6.939c0,2.4,0.024,4.642,0.074,6.727
				L138.195,105.961z M138.207,99.197v-3.767c-0.406-0.612-0.921-0.918-1.543-0.918c-0.124,0-0.253,0.012-0.386,0.037
				c-0.805,0.142-1.249,0.968-1.332,2.477c-0.008,0.161-0.012,0.315-0.012,0.464c0,1.231,0.307,1.985,0.921,2.264
				c0.207,0.1,0.427,0.148,0.659,0.148C137.029,99.902,137.594,99.668,138.207,99.197z"/>
			<path fill="#CE6F28" d="M148.761,101.795l-0.124-1.512c-0.349,0.804-1.286,1.209-2.813,1.215c-0.017,0.007-0.028,0.01-0.037,0.01
				c-1.51,0-2.51-0.508-2.999-1.521c-0.332-0.675-0.498-2.069-0.498-4.185c0-1.088,0.046-2.372,0.137-3.85h3.024
				c-0.166,2.078-0.249,3.677-0.249,4.796c0,0.563,0.021,1.002,0.062,1.317c0.124,0.965,0.543,1.447,1.257,1.447
				s1.161-0.25,1.344-0.751l-0.124-6.438l2.925-0.019c0,2.659,0.129,5.758,0.386,9.296L148.761,101.795z"/>
			<path fill="#CE6F28" d="M156.129,92.268c2.879,0,4.318,1.426,4.318,4.276c0,0.347-0.021,0.718-0.062,1.113h-5.562
				c0,1.59,0.41,2.385,1.231,2.385h0.087c0.723-0.044,1.083-0.455,1.083-1.234c0-0.167-0.017-0.353-0.05-0.557l2.962-0.046
				c0,2.356-1.381,3.55-4.145,3.581c-0.033,0.006-0.062,0.009-0.087,0.009c-2.63,0-3.945-1.487-3.945-4.462v-0.278
				C152.042,93.863,153.432,92.268,156.129,92.268z M154.523,95.95h2.812v-0.223c0-1.125-0.428-1.688-1.282-1.688
				C155.133,94.039,154.623,94.677,154.523,95.95z"/>
			<path fill="#CE6F28" d="M10.989,124.316c0.05-1.626,0.074-3.29,0.074-4.991c0-2.609-0.058-5.312-0.174-8.108
				c1.419-0.148,2.671-0.223,3.758-0.223c1.71,0,2.995,0.186,3.858,0.557c1.336,0.575,2.004,1.754,2.004,3.535v0.306
				c-0.083,1.955-0.677,3.206-1.779,3.753c-1.104,0.548-2.465,0.84-4.083,0.877c-0.008,0.191-0.012,0.39-0.012,0.594
				c0,1.026,0.07,2.242,0.211,3.646L10.989,124.316z M14.175,113.369l0.087,4.537c1.544-0.062,2.448-0.474,2.714-1.234
				c0.124-0.346,0.187-0.701,0.187-1.066c0-0.427-0.083-0.866-0.249-1.317c-0.249-0.662-0.871-0.993-1.867-0.993
				C14.78,113.295,14.49,113.32,14.175,113.369z"/>
			<path fill="#CE6F28" d="M21.58,121.302l2.85-0.103v0.121c0,0.952,0.395,1.435,1.183,1.447h0.05c0.764,0,1.145-0.275,1.145-0.826
				v-0.064c-0.033-0.606-0.786-1.095-2.259-1.466s-2.358-0.996-2.657-1.874c-0.107-0.31-0.161-0.606-0.161-0.891
				c0-0.52,0.178-1.002,0.535-1.447c0.548-0.681,1.377-1.07,2.489-1.169c0.298-0.024,0.589-0.037,0.871-0.037
				c0.738,0,1.39,0.096,1.954,0.287c0.771,0.267,1.307,0.646,1.605,1.142c0.198,0.34,0.298,0.718,0.298,1.132
				c0,0.198-0.021,0.402-0.062,0.612l-2.664,0.046c0.025-0.154,0.038-0.297,0.038-0.427c0-0.618-0.266-0.949-0.797-0.992
				c-0.058-0.006-0.116-0.01-0.174-0.01c-0.548,0-0.917,0.208-1.108,0.622c-0.066,0.143-0.1,0.272-0.1,0.39
				c0,0.291,0.183,0.541,0.548,0.751c0.515,0.297,1.275,0.599,2.284,0.905c1.008,0.306,1.687,0.827,2.034,1.562
				c0.125,0.278,0.188,0.557,0.188,0.835c0,0.471-0.183,0.943-0.548,1.42c-0.581,0.761-1.481,1.203-2.701,1.326
				c-0.266,0.031-0.526,0.047-0.784,0.047c-0.912,0-1.759-0.177-2.538-0.529C22.103,123.661,21.597,122.725,21.58,121.302z"/>
			<path fill="#CE6F28" d="M34.051,112.934c0,0.377-0.179,0.699-0.535,0.965s-0.788,0.398-1.294,0.398
				c-0.498,0-0.926-0.133-1.282-0.398s-0.535-0.588-0.535-0.965c0-0.371,0.179-0.689,0.535-0.956
				c0.356-0.266,0.784-0.398,1.282-0.398c0.506,0,0.938,0.133,1.294,0.398C33.872,112.244,34.051,112.562,34.051,112.934z
				 M30.716,124.642c-0.059-3.618-0.088-6.745-0.088-9.38l3.137-0.139c-0.1,2.523-0.149,5.031-0.149,7.523
				c0,0.668,0.004,1.333,0.013,1.995H30.716z"/>
			<path fill="#CE6F28" d="M39.825,120.772l2.962,0.14c0,2.232-1.381,3.364-4.145,3.396c-0.033,0.006-0.062,0.009-0.087,0.009
				c-2.63,0-3.945-1.487-3.945-4.462v-0.278c0.083-3.191,1.485-4.803,4.207-4.834h0.1c2.506,0,3.759,1.07,3.759,3.21
				c0,0.124-0.005,0.248-0.013,0.371l-2.676,0.148v-0.223c0-1.125-0.428-1.688-1.282-1.688c-0.871,0-1.307,0.913-1.307,2.737v0.306
				c0.05,1.974,0.489,2.96,1.319,2.96h0.074c0.723-0.043,1.083-0.455,1.083-1.234C39.875,121.162,39.858,120.977,39.825,120.772z"/>
			<path fill="#CE6F28" d="M48.201,115.067c2.82,0,4.231,1.46,4.231,4.379c0,0.117-0.005,0.235-0.013,0.353
				c-0.116,3.16-1.618,4.756-4.505,4.787c-0.033,0.006-0.066,0.009-0.1,0.009c-2.747,0-4.12-1.493-4.12-4.48v-0.26
				C43.778,116.663,45.28,115.067,48.201,115.067z M47.79,117.183c-0.522,0.136-0.879,0.64-1.07,1.512
				c-0.116,0.52-0.174,1.043-0.174,1.568c0,0.353,0.024,0.708,0.074,1.066c0.133,0.891,0.561,1.352,1.282,1.383h0.087
				c0.672,0,1.133-0.331,1.382-0.993c0.207-0.55,0.311-1.202,0.311-1.957c0-0.186-0.004-0.374-0.012-0.566
				c-0.067-0.995-0.266-1.617-0.598-1.864c-0.208-0.148-0.457-0.223-0.747-0.223C48.159,117.108,47.981,117.133,47.79,117.183z"/>
			<path fill="#CE6F28" d="M52.968,121.302l2.85-0.103v0.121c0,0.952,0.395,1.435,1.183,1.447h0.05c0.764,0,1.145-0.275,1.145-0.826
				v-0.064c-0.033-0.606-0.786-1.095-2.259-1.466s-2.358-0.996-2.657-1.874c-0.107-0.31-0.161-0.606-0.161-0.891
				c0-0.52,0.178-1.002,0.535-1.447c0.548-0.681,1.377-1.07,2.489-1.169c0.298-0.024,0.589-0.037,0.871-0.037
				c0.738,0,1.39,0.096,1.954,0.287c0.771,0.267,1.307,0.646,1.605,1.142c0.198,0.34,0.298,0.718,0.298,1.132
				c0,0.198-0.021,0.402-0.062,0.612l-2.664,0.046c0.025-0.154,0.038-0.297,0.038-0.427c0-0.618-0.266-0.949-0.797-0.992
				c-0.058-0.006-0.116-0.01-0.174-0.01c-0.548,0-0.917,0.208-1.108,0.622c-0.066,0.143-0.1,0.272-0.1,0.39
				c0,0.291,0.183,0.541,0.548,0.751c0.515,0.297,1.275,0.599,2.284,0.905c1.008,0.306,1.687,0.827,2.034,1.562
				c0.125,0.278,0.188,0.557,0.188,0.835c0,0.471-0.183,0.943-0.548,1.42c-0.581,0.761-1.481,1.203-2.701,1.326
				c-0.266,0.031-0.526,0.047-0.784,0.047c-0.912,0-1.759-0.177-2.538-0.529C53.49,123.661,52.984,122.725,52.968,121.302z"/>
			<path fill="#CE6F28" d="M66.335,115.067c2.82,0,4.231,1.46,4.231,4.379c0,0.117-0.005,0.235-0.013,0.353
				c-0.116,3.16-1.618,4.756-4.505,4.787c-0.033,0.006-0.066,0.009-0.1,0.009c-2.747,0-4.12-1.493-4.12-4.48v-0.26
				C61.912,116.663,63.414,115.067,66.335,115.067z M65.924,117.183c-0.522,0.136-0.879,0.64-1.07,1.512
				c-0.116,0.52-0.174,1.043-0.174,1.568c0,0.353,0.024,0.708,0.074,1.066c0.133,0.891,0.561,1.352,1.282,1.383h0.087
				c0.672,0,1.133-0.331,1.382-0.993c0.207-0.55,0.311-1.202,0.311-1.957c0-0.186-0.004-0.374-0.012-0.566
				c-0.067-0.995-0.266-1.617-0.598-1.864c-0.208-0.148-0.457-0.223-0.747-0.223C66.293,117.108,66.115,117.133,65.924,117.183z"/>
			<path fill="#CE6F28" d="M76.341,120.772l2.962,0.14c0,2.232-1.381,3.364-4.145,3.396c-0.033,0.006-0.062,0.009-0.087,0.009
				c-2.63,0-3.945-1.487-3.945-4.462v-0.278c0.083-3.191,1.485-4.803,4.207-4.834h0.1c2.506,0,3.759,1.07,3.759,3.21
				c0,0.124-0.005,0.248-0.013,0.371l-2.676,0.148v-0.223c0-1.125-0.428-1.688-1.282-1.688c-0.871,0-1.307,0.913-1.307,2.737v0.306
				c0.05,1.974,0.489,2.96,1.319,2.96h0.074c0.723-0.043,1.083-0.455,1.083-1.234C76.391,121.162,76.374,120.977,76.341,120.772z"/>
			<path fill="#CE6F28" d="M83.82,112.934c0,0.377-0.179,0.699-0.535,0.965s-0.788,0.398-1.294,0.398
				c-0.498,0-0.926-0.133-1.282-0.398s-0.535-0.588-0.535-0.965c0-0.371,0.179-0.689,0.535-0.956
				c0.356-0.266,0.784-0.398,1.282-0.398c0.506,0,0.938,0.133,1.294,0.398C83.642,112.244,83.82,112.562,83.82,112.934z
				 M80.485,124.642c-0.059-3.618-0.088-6.745-0.088-9.38l3.137-0.139c-0.1,2.523-0.149,5.031-0.149,7.523
				c0,0.668,0.004,1.333,0.013,1.995H80.485z"/>
			<path fill="#CE6F28" d="M89.321,114.798c2.729,0.111,4.095,1.136,4.095,3.071v6.587l-2.9,0.037l-0.1-0.882
				c-0.597,0.508-1.39,0.761-2.377,0.761c-0.423,0-0.88-0.049-1.369-0.148c-1.469-0.271-2.202-1.119-2.202-2.542
				c0-0.173,0.012-0.358,0.037-0.557c0.166-1.466,1.563-2.198,4.194-2.198c0.506,0,1.062,0.027,1.667,0.083v-1.076
				c0-0.872-0.369-1.308-1.107-1.308h-0.05c-0.058-0.006-0.112-0.01-0.162-0.01c-0.805,0-1.207,0.489-1.207,1.466v0.14l-2.962-0.186
				c0-2.158,1.394-3.238,4.182-3.238H89.321z M90.366,122.127v-1.633c-0.356-0.056-0.68-0.083-0.971-0.083
				c-0.755,0-1.27,0.188-1.543,0.565c-0.166,0.229-0.249,0.442-0.249,0.641c0,0.247,0.133,0.467,0.398,0.658
				c0.207,0.148,0.477,0.223,0.809,0.223C89.234,122.498,89.752,122.375,90.366,122.127z"/>
			<path fill="#CE6F28" d="M97.909,124.438l-3.099,0.213c0.032-2.047,0.05-4.017,0.05-5.909c0-2.659-0.033-5.168-0.1-7.524
				l3.049-0.037c-0.033,1.516-0.05,3.071-0.05,4.667C97.76,118.599,97.81,121.463,97.909,124.438z"/>
		</g>
		<path fill="none" stroke="#6F3A89" stroke-width="3" stroke-miterlimit="10" stroke-dasharray="12" d="M188.168,122.5
			c0,6.627-5.374,12-12,12H13.5c-6.628,0-12-5.373-12-12V70.293c0-6.627,5.372-12,12-12h162.668c6.626,0,12,5.373,12,12V122.5z"/>
	</g>
</g>
</svg>
