<?xml version="1.0" encoding="utf-8"?>
<!-- Generator: Adobe Illustrator 16.0.0, SVG Export Plug-In . SVG Version: 6.00 Build 0)  -->
<!DOCTYPE svg PUBLIC "-//W3C//DTD SVG 1.1//EN" "http://www.w3.org/Graphics/SVG/1.1/DTD/svg11.dtd">
<svg version="1.1" id="Capa_1" xmlns="http://www.w3.org/2000/svg" xmlns:xlink="http://www.w3.org/1999/xlink" x="0px" y="0px"
	 width="162.339px" height="178.955px" viewBox="0 0 162.339 178.955" enable-background="new 0 0 162.339 178.955"
	 xml:space="preserve">
<g>
	<polygon fill="#CE6F28" points="162.339,47.521 51.812,47.877 51.696,0.357 162.224,0 	"/>
	<g>
		<g>
			<path fill="#FFFFFF" d="M70.685,18.14v14.594h-1.894V18.14H70.685z"/>
			<path fill="#FFFFFF" d="M78.258,32.733V18.14h2.065l4.626,7.383c1.055,1.711,1.915,3.248,2.582,4.742l0.064-0.021
				c-0.172-1.949-0.215-3.725-0.215-5.998V18.14h1.764v14.594h-1.894l-4.604-7.406c-1.012-1.623-1.979-3.291-2.689-4.871
				l-0.064,0.021c0.107,1.841,0.129,3.595,0.129,6.02v6.236H78.258z"/>
			<path fill="#FFFFFF" d="M98.592,18.14v14.594h-1.894V18.14H98.592z"/>
			<path fill="#FFFFFF" d="M116.277,32.278c-0.667,0.346-2.065,0.693-3.83,0.693c-4.087,0-7.143-2.599-7.143-7.406
				c0-4.59,3.077-7.664,7.573-7.664c1.786,0,2.947,0.39,3.442,0.649l-0.474,1.537c-0.688-0.347-1.699-0.606-2.904-0.606
				c-3.399,0-5.658,2.188-5.658,6.02c0,3.594,2.044,5.867,5.551,5.867c1.162,0,2.323-0.237,3.077-0.605L116.277,32.278z"/>
			<path fill="#FFFFFF" d="M124.819,18.14v14.594h-1.894V18.14H124.819z"/>
			<path fill="#FFFFFF" d="M144.786,25.284c0,5.002-3.033,7.688-6.733,7.688c-3.852,0-6.52-3.01-6.52-7.428
				c0-4.633,2.84-7.664,6.713-7.664C142.227,17.88,144.786,20.933,144.786,25.284z M133.513,25.501c0,3.14,1.678,5.933,4.647,5.933
				c2.969,0,4.646-2.749,4.646-6.062c0-2.923-1.506-5.954-4.625-5.954C135.062,19.417,133.513,22.318,133.513,25.501z"/>
		</g>
	</g>
	<polygon fill="#DC9B2F" points="162.339,178.6 7.447,178.955 7.334,131.436 162.224,131.08 	"/>
	<g>
		<g>
			<path fill="#FFFFFF" d="M23.61,150.074c-0.493,0.256-1.526,0.512-2.83,0.512c-3.021,0-5.278-1.921-5.278-5.474
				c0-3.394,2.273-5.666,5.597-5.666c1.319,0,2.178,0.287,2.544,0.479l-0.35,1.137c-0.51-0.257-1.257-0.448-2.146-0.448
				c-2.513,0-4.182,1.617-4.182,4.449c0,2.658,1.51,4.338,4.102,4.338c0.858,0,1.717-0.176,2.273-0.447L23.61,150.074z"/>
			<path fill="#FFFFFF" d="M37.693,144.903c0,3.698-2.241,5.683-4.977,5.683c-2.846,0-4.817-2.225-4.817-5.49
				c0-3.425,2.099-5.666,4.961-5.666C35.802,139.43,37.693,141.687,37.693,144.903z M29.362,145.063c0,2.321,1.24,4.387,3.435,4.387
				s3.435-2.033,3.435-4.482c0-2.16-1.113-4.401-3.419-4.401S29.362,142.711,29.362,145.063z"/>
			<path fill="#FFFFFF" d="M51.697,145.673c-0.079-1.505-0.175-3.33-0.175-4.658H51.49c-0.381,1.248-0.811,2.609-1.352,4.098
				l-1.892,5.234h-1.05l-1.748-5.139c-0.509-1.537-0.923-2.913-1.225-4.193h-0.032c-0.031,1.344-0.111,3.137-0.206,4.77L43.7,150.41
				h-1.32l0.747-10.788h1.766l1.828,5.218c0.445,1.329,0.795,2.513,1.081,3.634h0.032c0.286-1.089,0.668-2.273,1.145-3.634
				l1.908-5.218h1.765l0.668,10.788h-1.367L51.697,145.673z"/>
			<path fill="#FFFFFF" d="M58.625,139.75c0.668-0.112,1.542-0.208,2.655-0.208c1.367,0,2.369,0.32,3.005,0.896
				c0.572,0.512,0.938,1.296,0.938,2.257c0,0.976-0.285,1.744-0.826,2.305c-0.747,0.784-1.924,1.185-3.275,1.185
				c-0.413,0-0.795-0.016-1.113-0.096v4.321h-1.383V139.75z M60.008,144.952c0.303,0.08,0.684,0.111,1.146,0.111
				c1.669,0,2.687-0.832,2.687-2.288c0-1.44-1.018-2.129-2.528-2.129c-0.604,0-1.065,0.048-1.304,0.112V144.952z"/>
			<path fill="#FFFFFF" d="M79.418,144.903c0,3.698-2.241,5.683-4.977,5.683c-2.846,0-4.817-2.225-4.817-5.49
				c0-3.425,2.099-5.666,4.961-5.666C77.526,139.43,79.418,141.687,79.418,144.903z M71.087,145.063c0,2.321,1.24,4.387,3.435,4.387
				c2.193,0,3.434-2.033,3.434-4.482c0-2.16-1.112-4.401-3.418-4.401S71.087,142.711,71.087,145.063z"/>
			<path fill="#FFFFFF" d="M84.391,150.41v-10.788h1.527l3.418,5.458c0.779,1.265,1.415,2.401,1.908,3.505l0.047-0.016
				c-0.127-1.44-0.158-2.753-0.158-4.434v-4.514h1.304v10.788h-1.399l-3.402-5.474c-0.748-1.201-1.463-2.434-1.988-3.602
				l-0.047,0.016c0.079,1.36,0.096,2.657,0.096,4.449v4.61H84.391z"/>
			<path fill="#FFFFFF" d="M103.562,145.353h-4.15v3.889h4.643v1.169h-6.042v-10.788h5.804v1.168h-4.404v3.41h4.15V145.353z"/>
			<path fill="#FFFFFF" d="M109.028,150.41v-10.788h1.526l3.418,5.458c0.779,1.265,1.416,2.401,1.908,3.505l0.048-0.016
				c-0.127-1.44-0.159-2.753-0.159-4.434v-4.514h1.304v10.788h-1.399l-3.402-5.474c-0.747-1.201-1.463-2.434-1.987-3.602
				l-0.048,0.016c0.08,1.36,0.096,2.657,0.096,4.449v4.61H109.028z"/>
			<path fill="#FFFFFF" d="M124.701,140.806h-3.26v-1.184h7.935v1.184h-3.275v9.604h-1.399V140.806z"/>
			<path fill="#FFFFFF" d="M139.278,145.353h-4.15v3.889h4.644v1.169h-6.043v-10.788h5.804v1.168h-4.404v3.41h4.15V145.353z"/>
			<path fill="#FFFFFF" d="M144.569,148.714c0.62,0.399,1.511,0.704,2.464,0.704c1.416,0,2.242-0.753,2.242-1.841
				c0-0.992-0.572-1.585-2.02-2.129c-1.748-0.641-2.83-1.568-2.83-3.073c0-1.681,1.384-2.929,3.467-2.929
				c1.081,0,1.892,0.256,2.354,0.527l-0.382,1.137c-0.334-0.208-1.05-0.512-2.02-0.512c-1.463,0-2.02,0.88-2.02,1.616
				c0,1.009,0.652,1.505,2.131,2.081c1.812,0.704,2.719,1.584,2.719,3.169c0,1.665-1.208,3.121-3.736,3.121
				c-1.033,0-2.162-0.319-2.735-0.704L144.569,148.714z"/>
			<path fill="#FFFFFF" d="M40.568,158.782c0.842-0.145,1.844-0.24,2.941-0.24c1.987,0,3.402,0.48,4.34,1.344
				c0.971,0.881,1.527,2.129,1.527,3.874c0,1.761-0.557,3.201-1.543,4.194c-1.018,1.008-2.671,1.552-4.754,1.552
				c-1.002,0-1.812-0.048-2.512-0.128V158.782z M41.951,168.321c0.35,0.049,0.858,0.064,1.399,0.064
				c2.974,0,4.563-1.664,4.563-4.578c0.016-2.545-1.416-4.161-4.341-4.161c-0.716,0-1.257,0.063-1.622,0.144V168.321z"/>
			<path fill="#FFFFFF" d="M59.866,164.353h-4.149v3.889h4.643v1.169h-6.042v-10.788h5.803v1.168h-4.403v3.41h4.149V164.353z"/>
			<path fill="#FFFFFF" d="M65.316,158.622h1.399v9.619h4.579v1.169h-5.979V158.622z"/>
			<path fill="#FFFFFF" d="M82.562,158.75c0.668-0.112,1.542-0.208,2.655-0.208c1.367,0,2.369,0.32,3.005,0.896
				c0.572,0.512,0.938,1.296,0.938,2.257c0,0.976-0.285,1.744-0.826,2.305c-0.747,0.784-1.924,1.185-3.275,1.185
				c-0.413,0-0.795-0.016-1.113-0.096v4.321h-1.383V158.75z M83.945,163.952c0.303,0.08,0.684,0.111,1.145,0.111
				c1.67,0,2.688-0.832,2.688-2.288c0-1.44-1.018-2.129-2.527-2.129c-0.604,0-1.066,0.048-1.305,0.112V163.952z"/>
			<path fill="#FFFFFF" d="M95.931,166.017l-1.113,3.394h-1.431l3.657-10.788h1.653l3.657,10.788h-1.479l-1.145-3.394H95.931z
				 M99.461,164.929l-1.066-3.105c-0.238-0.704-0.396-1.345-0.556-1.969h-0.032c-0.158,0.624-0.318,1.297-0.54,1.953l-1.05,3.121
				H99.461z"/>
			<path fill="#FFFFFF" d="M107.104,158.75c0.668-0.112,1.542-0.208,2.655-0.208c1.367,0,2.369,0.32,3.005,0.896
				c0.572,0.512,0.938,1.296,0.938,2.257c0,0.976-0.287,1.744-0.827,2.305c-0.747,0.784-1.924,1.185-3.275,1.185
				c-0.413,0-0.795-0.016-1.113-0.096v4.321h-1.383V158.75z M108.487,163.952c0.303,0.08,0.685,0.111,1.146,0.111
				c1.669,0,2.687-0.832,2.687-2.288c0-1.44-1.018-2.129-2.528-2.129c-0.604,0-1.064,0.048-1.304,0.112V163.952z"/>
			<path fill="#FFFFFF" d="M118.564,167.714c0.62,0.399,1.511,0.704,2.465,0.704c1.415,0,2.242-0.753,2.242-1.841
				c0-0.992-0.572-1.585-2.02-2.129c-1.749-0.641-2.83-1.568-2.83-3.073c0-1.681,1.383-2.929,3.466-2.929
				c1.081,0,1.892,0.256,2.354,0.527l-0.382,1.137c-0.334-0.208-1.049-0.512-2.02-0.512c-1.463,0-2.02,0.88-2.02,1.616
				c0,1.009,0.652,1.505,2.131,2.081c1.812,0.704,2.719,1.584,2.719,3.169c0,1.665-1.208,3.121-3.736,3.121
				c-1.033,0-2.162-0.319-2.734-0.704L118.564,167.714z"/>
			<path fill="#FFFFFF" d="M131.139,158.622v10.788h-1.399v-10.788H131.139z"/>
			<path fill="#FFFFFF" d="M139.086,169.41l-3.514-10.788h1.511l1.669,5.314c0.445,1.456,0.843,2.769,1.145,4.033h0.032
				c0.302-1.248,0.731-2.609,1.225-4.018l1.812-5.33h1.479l-3.832,10.788H139.086z"/>
			<path fill="#FFFFFF" d="M150.164,158.622v10.788h-1.398v-10.788H150.164z"/>
		</g>
	</g>
	<polygon fill="#DC9B2F" points="162.339,120.104 0.114,120.459 0,59.168 162.224,58.812 	"/>
	<g>
		<g>
			<path fill="#FFFFFF" d="M15.23,66.354h5.771v1.168h-4.373v3.586h4.039v1.152h-4.039v4.882H15.23V66.354z"/>
			<path fill="#FFFFFF" d="M27.549,66.354v6.402c0,2.4,1.065,3.426,2.497,3.426c1.573,0,2.607-1.057,2.607-3.426v-6.402h1.399v6.307
				c0,3.312-1.733,4.657-4.055,4.657c-2.194,0-3.848-1.248-3.848-4.609v-6.354H27.549z"/>
			<path fill="#FFFFFF" d="M39.629,77.143V66.354h1.526l3.419,5.458c0.778,1.265,1.415,2.401,1.907,3.505l0.048-0.016
				c-0.127-1.44-0.159-2.753-0.159-4.434v-4.514h1.304v10.788h-1.398l-3.402-5.474c-0.748-1.201-1.463-2.434-1.988-3.602
				l-0.047,0.016c0.079,1.36,0.095,2.657,0.095,4.449v4.61H39.629z"/>
			<path fill="#FFFFFF" d="M53.267,66.515c0.843-0.145,1.845-0.24,2.941-0.24c1.987,0,3.403,0.48,4.341,1.344
				c0.97,0.881,1.526,2.129,1.526,3.874c0,1.761-0.557,3.201-1.542,4.194c-1.018,1.008-2.672,1.552-4.754,1.552
				c-1.002,0-1.812-0.048-2.513-0.128V66.515z M54.65,76.054c0.35,0.049,0.858,0.064,1.398,0.064c2.974,0,4.563-1.664,4.563-4.578
				c0.017-2.545-1.415-4.161-4.341-4.161c-0.715,0-1.256,0.063-1.621,0.144V76.054z"/>
			<path fill="#FFFFFF" d="M68.765,73.749l-1.112,3.394h-1.432l3.657-10.788h1.653l3.657,10.788H73.71l-1.146-3.394H68.765z
				 M72.295,72.661l-1.065-3.105c-0.238-0.704-0.397-1.345-0.557-1.969h-0.032c-0.158,0.624-0.317,1.297-0.54,1.953l-1.05,3.121
				H72.295z"/>
			<path fill="#FFFFFF" d="M88.97,72.405c-0.079-1.505-0.175-3.33-0.175-4.658h-0.031c-0.382,1.248-0.812,2.609-1.352,4.098
				l-1.893,5.234h-1.049l-1.75-5.139c-0.508-1.537-0.922-2.913-1.224-4.193h-0.032c-0.031,1.344-0.111,3.137-0.206,4.77
				l-0.286,4.626h-1.32L80.4,66.354h1.765l1.828,5.218c0.445,1.329,0.795,2.513,1.081,3.634h0.032
				c0.286-1.089,0.667-2.273,1.145-3.634l1.908-5.218h1.765l0.668,10.788h-1.367L88.97,72.405z"/>
			<path fill="#FFFFFF" d="M101.431,72.085h-4.15v3.889h4.644v1.169h-6.043V66.354h5.804v1.168H97.28v3.41h4.15V72.085z"/>
			<path fill="#FFFFFF" d="M106.896,77.143V66.354h1.526l3.419,5.458c0.779,1.265,1.414,2.401,1.907,3.505l0.048-0.016
				c-0.127-1.44-0.158-2.753-0.158-4.434v-4.514h1.303v10.788h-1.398l-3.402-5.474c-0.748-1.201-1.463-2.434-1.988-3.602
				l-0.047,0.016c0.079,1.36,0.095,2.657,0.095,4.449v4.61H106.896z"/>
			<path fill="#FFFFFF" d="M122.57,67.538h-3.26v-1.184h7.934v1.184h-3.275v9.604h-1.398V67.538z"/>
			<path fill="#FFFFFF" d="M140.771,71.636c0,3.698-2.242,5.683-4.977,5.683c-2.846,0-4.817-2.225-4.817-5.49
				c0-3.425,2.099-5.666,4.96-5.666C138.88,66.162,140.771,68.419,140.771,71.636z M132.44,71.796c0,2.321,1.24,4.387,3.435,4.387
				c2.193,0,3.434-2.033,3.434-4.482c0-2.16-1.113-4.401-3.418-4.401C133.585,67.299,132.44,69.443,132.44,71.796z"/>
			<path fill="#FFFFFF" d="M145.569,75.446c0.62,0.399,1.511,0.704,2.464,0.704c1.416,0,2.242-0.753,2.242-1.841
				c0-0.992-0.572-1.585-2.02-2.129c-1.748-0.641-2.83-1.568-2.83-3.073c0-1.681,1.384-2.929,3.467-2.929
				c1.081,0,1.892,0.256,2.354,0.527l-0.382,1.137c-0.334-0.208-1.05-0.512-2.02-0.512c-1.463,0-2.02,0.88-2.02,1.616
				c0,1.009,0.652,1.505,2.131,2.081c1.812,0.704,2.719,1.584,2.719,3.169c0,1.665-1.208,3.121-3.736,3.121
				c-1.033,0-2.162-0.319-2.735-0.704L145.569,75.446z"/>
			<path fill="#FFFFFF" d="M18.889,95.807c-0.493,0.256-1.526,0.512-2.83,0.512c-3.021,0-5.279-1.921-5.279-5.474
				c0-3.394,2.273-5.666,5.597-5.666c1.32,0,2.179,0.287,2.544,0.479l-0.35,1.137c-0.509-0.257-1.256-0.448-2.146-0.448
				c-2.512,0-4.182,1.617-4.182,4.449c0,2.658,1.511,4.338,4.103,4.338c0.858,0,1.717-0.176,2.273-0.447L18.889,95.807z"/>
			<path fill="#FFFFFF" d="M32.972,90.636c0,3.698-2.241,5.683-4.977,5.683c-2.846,0-4.817-2.225-4.817-5.49
				c0-3.425,2.099-5.666,4.961-5.666C31.08,85.162,32.972,87.419,32.972,90.636z M24.641,90.796c0,2.321,1.24,4.387,3.434,4.387
				c2.194,0,3.435-2.033,3.435-4.482c0-2.16-1.112-4.401-3.418-4.401S24.641,88.443,24.641,90.796z"/>
			<path fill="#FFFFFF" d="M37.944,96.143V85.354h1.526l3.418,5.458c0.779,1.265,1.416,2.401,1.908,3.505l0.048-0.016
				c-0.127-1.44-0.159-2.753-0.159-4.434v-4.514h1.304v10.788H44.59l-3.402-5.474c-0.747-1.201-1.463-2.434-1.987-3.602
				l-0.048,0.016c0.08,1.36,0.096,2.657,0.096,4.449v4.61H37.944z"/>
			<path fill="#FFFFFF" d="M59.055,95.807c-0.492,0.256-1.525,0.512-2.83,0.512c-3.021,0-5.278-1.921-5.278-5.474
				c0-3.394,2.273-5.666,5.597-5.666c1.319,0,2.178,0.287,2.544,0.479l-0.35,1.137c-0.509-0.257-1.256-0.448-2.146-0.448
				c-2.513,0-4.182,1.617-4.182,4.449c0,2.658,1.511,4.338,4.103,4.338c0.858,0,1.717-0.176,2.273-0.447L59.055,95.807z"/>
			<path fill="#FFFFFF" d="M69.514,91.085h-4.15v3.889h4.643v1.169h-6.041V85.354h5.803v1.168h-4.404v3.41h4.15V91.085z"/>
			<path fill="#FFFFFF" d="M74.979,85.482c0.668-0.112,1.542-0.208,2.655-0.208c1.367,0,2.369,0.32,3.005,0.896
				c0.573,0.512,0.938,1.296,0.938,2.257c0,0.976-0.286,1.744-0.827,2.305c-0.747,0.784-1.924,1.185-3.275,1.185
				c-0.413,0-0.795-0.016-1.112-0.096v4.321h-1.384V85.482z M76.363,90.685c0.302,0.08,0.684,0.111,1.145,0.111
				c1.67,0,2.688-0.832,2.688-2.288c0-1.44-1.018-2.129-2.528-2.129c-0.604,0-1.065,0.048-1.304,0.112V90.685z"/>
			<path fill="#FFFFFF" d="M88.65,86.538h-3.26v-1.184h7.934v1.184h-3.275v9.604H88.65V86.538z"/>
			<path fill="#FFFFFF" d="M99.077,85.354v6.402c0,2.4,1.065,3.426,2.496,3.426c1.574,0,2.607-1.057,2.607-3.426v-6.402h1.399v6.307
				c0,3.312-1.733,4.657-4.055,4.657c-2.194,0-3.848-1.248-3.848-4.609v-6.354H99.077z"/>
			<path fill="#FFFFFF" d="M112.89,92.749l-1.113,3.394h-1.431l3.657-10.788h1.653l3.657,10.788h-1.479l-1.145-3.394H112.89z
				 M116.42,91.661l-1.066-3.105c-0.238-0.704-0.396-1.345-0.556-1.969h-0.032c-0.158,0.624-0.318,1.297-0.54,1.953l-1.05,3.121
				H116.42z"/>
			<path fill="#FFFFFF" d="M124.048,85.354h1.399v9.619h4.578v1.169h-5.978V85.354z"/>
			<path fill="#FFFFFF" d="M140.278,91.085h-4.15v3.889h4.644v1.169h-6.043V85.354h5.804v1.168h-4.404v3.41h4.15V91.085z"/>
			<path fill="#FFFFFF" d="M145.569,94.446c0.62,0.399,1.511,0.704,2.464,0.704c1.416,0,2.242-0.753,2.242-1.841
				c0-0.992-0.572-1.585-2.02-2.129c-1.748-0.641-2.83-1.568-2.83-3.073c0-1.681,1.384-2.929,3.467-2.929
				c1.081,0,1.892,0.256,2.354,0.527l-0.382,1.137c-0.334-0.208-1.05-0.512-2.02-0.512c-1.463,0-2.02,0.88-2.02,1.616
				c0,1.009,0.652,1.505,2.131,2.081c1.812,0.704,2.719,1.584,2.719,3.169c0,1.665-1.208,3.121-3.736,3.121
				c-1.033,0-2.162-0.319-2.735-0.704L145.569,94.446z"/>
			<path fill="#FFFFFF" d="M41.568,104.515c0.842-0.145,1.844-0.24,2.941-0.24c1.987,0,3.402,0.48,4.34,1.344
				c0.971,0.881,1.527,2.129,1.527,3.874c0,1.761-0.557,3.201-1.543,4.194c-1.018,1.008-2.671,1.552-4.754,1.552
				c-1.002,0-1.812-0.048-2.512-0.128V104.515z M42.951,114.054c0.35,0.049,0.858,0.064,1.399,0.064
				c2.974,0,4.563-1.664,4.563-4.578c0.016-2.545-1.416-4.161-4.341-4.161c-0.716,0-1.257,0.063-1.622,0.144V114.054z"/>
			<path fill="#FFFFFF" d="M60.866,110.085h-4.149v3.889h4.643v1.169h-6.042v-10.788h5.803v1.168h-4.403v3.41h4.149V110.085z"/>
			<path fill="#FFFFFF" d="M66.316,104.354h1.399v9.619h4.579v1.169h-5.979V104.354z"/>
			<path fill="#FFFFFF" d="M83.562,104.482c0.668-0.112,1.542-0.208,2.655-0.208c1.367,0,2.369,0.32,3.005,0.896
				c0.572,0.512,0.938,1.296,0.938,2.257c0,0.976-0.285,1.744-0.826,2.305c-0.747,0.784-1.924,1.185-3.275,1.185
				c-0.413,0-0.795-0.016-1.113-0.096v4.321h-1.383V104.482z M84.945,109.685c0.303,0.08,0.684,0.111,1.145,0.111
				c1.67,0,2.688-0.832,2.688-2.288c0-1.44-1.018-2.129-2.527-2.129c-0.604,0-1.066,0.048-1.305,0.112V109.685z"/>
			<path fill="#FFFFFF" d="M96.931,111.749l-1.113,3.394h-1.431l3.657-10.788h1.653l3.657,10.788h-1.479l-1.145-3.394H96.931z
				 M100.461,110.661l-1.066-3.105c-0.238-0.704-0.396-1.345-0.556-1.969h-0.032c-0.158,0.624-0.318,1.297-0.54,1.953l-1.05,3.121
				H100.461z"/>
			<path fill="#FFFFFF" d="M108.104,104.482c0.668-0.112,1.542-0.208,2.655-0.208c1.367,0,2.369,0.32,3.005,0.896
				c0.572,0.512,0.938,1.296,0.938,2.257c0,0.976-0.287,1.744-0.827,2.305c-0.747,0.784-1.924,1.185-3.275,1.185
				c-0.413,0-0.795-0.016-1.113-0.096v4.321h-1.383V104.482z M109.487,109.685c0.303,0.08,0.685,0.111,1.146,0.111
				c1.669,0,2.687-0.832,2.687-2.288c0-1.44-1.018-2.129-2.528-2.129c-0.604,0-1.064,0.048-1.304,0.112V109.685z"/>
			<path fill="#FFFFFF" d="M119.564,113.446c0.62,0.399,1.511,0.704,2.465,0.704c1.415,0,2.242-0.753,2.242-1.841
				c0-0.992-0.572-1.585-2.02-2.129c-1.749-0.641-2.83-1.568-2.83-3.073c0-1.681,1.383-2.929,3.466-2.929
				c1.081,0,1.892,0.256,2.354,0.527l-0.382,1.137c-0.334-0.208-1.049-0.512-2.02-0.512c-1.463,0-2.02,0.88-2.02,1.616
				c0,1.009,0.652,1.505,2.131,2.081c1.812,0.704,2.719,1.584,2.719,3.169c0,1.665-1.208,3.121-3.736,3.121
				c-1.033,0-2.162-0.319-2.734-0.704L119.564,113.446z"/>
			<path fill="#FFFFFF" d="M132.139,104.354v10.788h-1.399v-10.788H132.139z"/>
			<path fill="#FFFFFF" d="M140.086,115.143l-3.514-10.788h1.511l1.669,5.314c0.445,1.456,0.843,2.769,1.145,4.033h0.032
				c0.302-1.248,0.731-2.609,1.225-4.018l1.812-5.33h1.479l-3.832,10.788H140.086z"/>
			<path fill="#FFFFFF" d="M151.164,104.354v10.788h-1.398v-10.788H151.164z"/>
		</g>
	</g>
</g>
</svg>
