<?xml version="1.0" encoding="utf-8"?>
<!-- Generator: Adobe Illustrator 16.0.0, SVG Export Plug-In . SVG Version: 6.00 Build 0)  -->
<!DOCTYPE svg PUBLIC "-//W3C//DTD SVG 1.1//EN" "http://www.w3.org/Graphics/SVG/1.1/DTD/svg11.dtd">
<svg version="1.1" id="Capa_1" xmlns="http://www.w3.org/2000/svg" xmlns:xlink="http://www.w3.org/1999/xlink" x="0px" y="0px"
	 width="1208.95px" height="24.996px" viewBox="0 0 1208.95 24.996" enable-background="new 0 0 1208.95 24.996"
	 xml:space="preserve">
<g>
	<g>
		<path fill="#422D67" d="M600.788,12.275c0,6.627-5.373,12-12,12H12c-6.627,0-12-5.373-12-12V12C0,5.372,5.373,0,12,0h576.788
			c6.627,0,12,5.372,12,12V12.275z"/>
		<g>
			<g>
				<path fill="#FFFFFF" d="M161.807,13.976l-1.509,4.567h-1.938l4.955-14.521h2.24l4.956,14.521h-2.004l-1.552-4.567H161.807z
					 M166.589,12.51l-1.443-4.18c-0.323-0.947-0.538-1.81-0.754-2.65h-0.043c-0.216,0.841-0.431,1.746-0.732,2.629l-1.422,4.201
					H166.589z"/>
				<path fill="#FFFFFF" d="M174.647,5.615v2.5h2.715v1.443h-2.715v5.623c0,1.293,0.366,2.025,1.422,2.025
					c0.518,0,0.819-0.043,1.099-0.129l0.087,1.443c-0.366,0.129-0.948,0.258-1.681,0.258c-0.884,0-1.595-0.301-2.047-0.797
					c-0.518-0.582-0.732-1.508-0.732-2.736V9.559h-1.616V8.115h1.616V6.176L174.647,5.615z"/>
				<path fill="#FFFFFF" d="M180.422,13.674c0.043,2.564,1.658,3.619,3.576,3.619c1.357,0,2.197-0.236,2.887-0.538l0.345,1.357
					c-0.668,0.302-1.831,0.667-3.49,0.667c-3.21,0-5.128-2.133-5.128-5.277c0-3.146,1.854-5.603,4.892-5.603
					c3.425,0,4.309,2.974,4.309,4.892c0,0.387-0.021,0.667-0.064,0.883H180.422z M185.98,12.316c0.021-1.186-0.496-3.06-2.629-3.06
					c-1.939,0-2.758,1.745-2.908,3.06H185.98z"/>
				<path fill="#FFFFFF" d="M190.16,10.938c0-1.099-0.021-1.961-0.087-2.822h1.681l0.107,1.724h0.044
					c0.517-0.97,1.724-1.939,3.447-1.939c1.443,0,3.684,0.862,3.684,4.438v6.205h-1.896v-6.012c0-1.68-0.625-3.08-2.413-3.08
					c-1.229,0-2.198,0.883-2.543,1.938c-0.086,0.237-0.129,0.561-0.129,0.884v6.27h-1.896V10.938z"/>
				<path fill="#FFFFFF" d="M209.55,18.177c-0.495,0.237-1.595,0.603-2.995,0.603c-3.146,0-5.192-2.133-5.192-5.321
					c0-3.21,2.198-5.559,5.603-5.559c1.12,0,2.111,0.28,2.628,0.561l-0.431,1.443c-0.452-0.237-1.163-0.495-2.197-0.495
					c-2.392,0-3.685,1.787-3.685,3.942c0,2.413,1.551,3.899,3.619,3.899c1.078,0,1.789-0.258,2.327-0.495L209.55,18.177z"/>
				<path fill="#FFFFFF" d="M213.881,5.185c0,0.646-0.453,1.163-1.207,1.163c-0.689,0-1.142-0.517-1.142-1.163
					c0-0.646,0.474-1.185,1.185-1.185C213.406,4,213.881,4.518,213.881,5.185z M211.77,18.543V8.115h1.896v10.428H211.77z"/>
				<path fill="#FFFFFF" d="M226.248,13.242c0,3.857-2.693,5.537-5.192,5.537c-2.801,0-4.999-2.068-4.999-5.364
					c0-3.469,2.306-5.516,5.171-5.516C224.223,7.899,226.248,10.076,226.248,13.242z M217.996,13.351
					c0,2.284,1.293,4.007,3.146,4.007c1.81,0,3.167-1.701,3.167-4.05c0-1.767-0.883-3.986-3.124-3.986
					C218.966,9.321,217.996,11.39,217.996,13.351z M223.985,3.611l-2.628,3.082h-1.336l1.874-3.082H223.985z"/>
				<path fill="#FFFFFF" d="M228.64,10.938c0-1.099-0.022-1.961-0.087-2.822h1.681l0.108,1.724h0.043
					c0.517-0.97,1.724-1.939,3.447-1.939c1.443,0,3.684,0.862,3.684,4.438v6.205h-1.896v-6.012c0-1.68-0.625-3.08-2.413-3.08
					c-1.229,0-2.198,0.883-2.543,1.938c-0.086,0.237-0.129,0.561-0.129,0.884v6.27h-1.896V10.938z"/>
				<path fill="#FFFFFF" d="M246.22,13.674c0.043,2.564,1.658,3.619,3.576,3.619c1.357,0,2.197-0.236,2.887-0.538l0.345,1.357
					c-0.668,0.302-1.831,0.667-3.49,0.667c-3.21,0-5.128-2.133-5.128-5.277c0-3.146,1.854-5.603,4.892-5.603
					c3.426,0,4.309,2.974,4.309,4.892c0,0.387-0.021,0.667-0.064,0.883H246.22z M251.778,12.316c0.021-1.186-0.496-3.06-2.629-3.06
					c-1.938,0-2.758,1.745-2.908,3.06H251.778z"/>
				<path fill="#FFFFFF" d="M255.959,10.938c0-1.099-0.021-1.961-0.087-2.822h1.681l0.107,1.724h0.044
					c0.517-0.97,1.724-1.939,3.447-1.939c1.443,0,3.684,0.862,3.684,4.438v6.205h-1.896v-6.012c0-1.68-0.625-3.08-2.413-3.08
					c-1.229,0-2.198,0.883-2.543,1.938c-0.086,0.237-0.129,0.561-0.129,0.884v6.27h-1.896V10.938z"/>
				<path fill="#FFFFFF" d="M282.674,18.09c-0.668,0.346-2.068,0.689-3.835,0.689c-4.094,0-7.153-2.585-7.153-7.367
					c0-4.568,3.081-7.628,7.584-7.628c1.788,0,2.952,0.388,3.447,0.646l-0.474,1.53c-0.689-0.346-1.702-0.604-2.909-0.604
					c-3.403,0-5.666,2.176-5.666,5.989c0,3.577,2.047,5.839,5.559,5.839c1.164,0,2.327-0.236,3.081-0.604L282.674,18.09z"/>
				<path fill="#FFFFFF" d="M294.18,13.242c0,3.857-2.693,5.537-5.192,5.537c-2.801,0-4.999-2.068-4.999-5.364
					c0-3.469,2.306-5.516,5.171-5.516C292.154,7.899,294.18,10.076,294.18,13.242z M285.928,13.351c0,2.284,1.293,4.007,3.146,4.007
					c1.81,0,3.167-1.701,3.167-4.05c0-1.767-0.883-3.986-3.124-3.986C286.897,9.321,285.928,11.39,285.928,13.351z"/>
				<path fill="#FFFFFF" d="M296.571,10.938c0-1.099-0.022-1.961-0.087-2.822h1.681l0.108,1.724h0.043
					c0.517-0.97,1.724-1.939,3.447-1.939c1.443,0,3.684,0.862,3.684,4.438v6.205h-1.896v-6.012c0-1.68-0.625-3.08-2.413-3.08
					c-1.229,0-2.198,0.883-2.543,1.938c-0.086,0.237-0.129,0.561-0.129,0.884v6.27h-1.896V10.938z"/>
				<path fill="#FFFFFF" d="M308.27,16.625c0.582,0.346,1.572,0.732,2.521,0.732c1.357,0,2.004-0.668,2.004-1.551
					c0-0.904-0.539-1.379-1.918-1.896c-1.896-0.689-2.779-1.701-2.779-2.951c0-1.681,1.379-3.06,3.599-3.06
					c1.056,0,1.982,0.28,2.542,0.646l-0.452,1.379c-0.409-0.259-1.164-0.625-2.133-0.625c-1.121,0-1.724,0.646-1.724,1.423
					c0,0.861,0.603,1.249,1.96,1.787c1.789,0.668,2.736,1.573,2.736,3.125c0,1.853-1.443,3.145-3.878,3.145
					c-1.142,0-2.197-0.301-2.931-0.732L308.27,16.625z"/>
				<path fill="#FFFFFF" d="M318.116,13.674c0.043,2.564,1.658,3.619,3.576,3.619c1.357,0,2.197-0.236,2.887-0.538l0.345,1.357
					c-0.668,0.302-1.831,0.667-3.49,0.667c-3.21,0-5.128-2.133-5.128-5.277c0-3.146,1.854-5.603,4.892-5.603
					c3.426,0,4.309,2.974,4.309,4.892c0,0.387-0.021,0.667-0.064,0.883H318.116z M323.675,12.316c0.021-1.186-0.496-3.06-2.629-3.06
					c-1.938,0-2.758,1.745-2.908,3.06H323.675z"/>
				<path fill="#FFFFFF" d="M325.29,21.603c0.884-0.065,1.616-0.302,2.068-0.819c0.518-0.581,0.732-1.4,0.732-3.899V8.115h1.896
					v9.502c0,2.024-0.323,3.339-1.25,4.287c-0.84,0.84-2.219,1.185-3.231,1.185L325.29,21.603z M330.202,5.185
					c0,0.625-0.431,1.163-1.206,1.163c-0.689,0-1.142-0.538-1.142-1.163c0-0.646,0.474-1.185,1.185-1.185
					S330.202,4.539,330.202,5.185z"/>
				<path fill="#FFFFFF" d="M334.146,13.674c0.043,2.564,1.658,3.619,3.576,3.619c1.357,0,2.197-0.236,2.887-0.538l0.345,1.357
					c-0.668,0.302-1.831,0.667-3.49,0.667c-3.21,0-5.128-2.133-5.128-5.277c0-3.146,1.854-5.603,4.892-5.603
					c3.426,0,4.309,2.974,4.309,4.892c0,0.387-0.021,0.667-0.064,0.883H334.146z M339.704,12.316c0.021-1.186-0.496-3.06-2.629-3.06
					c-1.938,0-2.758,1.745-2.908,3.06H339.704z"/>
				<path fill="#FFFFFF" d="M343.884,11.368c0-1.228-0.022-2.284-0.087-3.253h1.659l0.086,2.068h0.065
					c0.474-1.4,1.637-2.284,2.908-2.284c0.194,0,0.345,0.021,0.518,0.043V9.73c-0.194-0.043-0.389-0.043-0.646-0.043
					c-1.336,0-2.284,0.991-2.543,2.414c-0.043,0.258-0.064,0.581-0.064,0.883v5.559h-1.896V11.368z"/>
				<path fill="#FFFFFF" d="M354.872,3.611l-2.629,3.082h-1.336l1.896-3.082H354.872z M351.016,18.543V8.115h1.896v10.428H351.016z"
					/>
				<path fill="#FFFFFF" d="M363.382,16.044c0,0.905,0.043,1.788,0.15,2.499h-1.702l-0.15-1.314h-0.064
					c-0.582,0.818-1.702,1.551-3.189,1.551c-2.111,0-3.188-1.486-3.188-2.994c0-2.521,2.241-3.9,6.27-3.878v-0.216
					c0-0.84-0.236-2.413-2.37-2.392c-0.99,0-2.003,0.28-2.735,0.776l-0.432-1.271c0.862-0.539,2.134-0.905,3.447-0.905
					c3.189,0,3.965,2.177,3.965,4.245V16.044z M361.551,13.221c-2.068-0.043-4.417,0.324-4.417,2.35
					c0,1.249,0.818,1.809,1.767,1.809c1.379,0,2.262-0.861,2.563-1.744c0.064-0.216,0.087-0.432,0.087-0.604V13.221z"/>
				<path fill="#FFFFFF" d="M371.698,8.115l2.262,6.162c0.259,0.689,0.518,1.508,0.689,2.133h0.043
					c0.194-0.625,0.409-1.422,0.668-2.176l2.068-6.119h2.004l-2.844,7.434c-1.357,3.576-2.284,5.386-3.577,6.527
					c-0.947,0.797-1.853,1.121-2.326,1.207l-0.475-1.573c0.475-0.15,1.099-0.452,1.659-0.927c0.518-0.408,1.142-1.142,1.595-2.111
					c0.086-0.193,0.15-0.344,0.15-0.452c0-0.107-0.043-0.259-0.15-0.495l-3.835-9.609H371.698z"/>
				<path fill="#FFFFFF" d="M388.137,13.976l-1.509,4.567h-1.938l4.955-14.521h2.24l4.956,14.521h-2.004l-1.552-4.567H388.137z
					 M392.919,12.51l-1.443-4.18c-0.323-0.947-0.538-1.81-0.754-2.65h-0.043c-0.216,0.841-0.431,1.746-0.732,2.629l-1.422,4.201
					H392.919z"/>
				<path fill="#FFFFFF" d="M398.845,11.52c0-1.336-0.044-2.414-0.087-3.404h1.681l0.108,1.788h0.043
					c0.754-1.271,2.003-2.004,3.705-2.004c2.543,0,4.438,2.134,4.438,5.278c0,3.75-2.305,5.602-4.762,5.602
					c-1.379,0-2.585-0.603-3.21-1.637h-0.043v5.666h-1.874V11.52z M400.719,14.299c0,0.279,0.021,0.538,0.086,0.775
					c0.345,1.314,1.487,2.219,2.844,2.219c2.004,0,3.168-1.637,3.168-4.029c0-2.068-1.1-3.855-3.103-3.855
					c-1.293,0-2.521,0.904-2.866,2.326c-0.064,0.237-0.129,0.518-0.129,0.754V14.299z"/>
				<path fill="#FFFFFF" d="M420.541,13.242c0,3.857-2.693,5.537-5.192,5.537c-2.801,0-4.999-2.068-4.999-5.364
					c0-3.469,2.306-5.516,5.171-5.516C418.516,7.899,420.541,10.076,420.541,13.242z M412.289,13.351
					c0,2.284,1.293,4.007,3.146,4.007c1.81,0,3.167-1.701,3.167-4.05c0-1.767-0.883-3.986-3.124-3.986
					C413.259,9.321,412.289,11.39,412.289,13.351z"/>
				<path fill="#FFFFFF" d="M423.472,8.115l2.262,6.162c0.259,0.689,0.518,1.508,0.689,2.133h0.043
					c0.194-0.625,0.409-1.422,0.668-2.176l2.068-6.119h2.004l-2.844,7.434c-1.357,3.576-2.284,5.386-3.577,6.527
					c-0.947,0.797-1.853,1.121-2.326,1.207l-0.475-1.573c0.475-0.15,1.099-0.452,1.659-0.927c0.518-0.408,1.142-1.142,1.595-2.111
					c0.086-0.193,0.15-0.344,0.15-0.452c0-0.107-0.043-0.259-0.15-0.495l-3.835-9.609H423.472z"/>
				<path fill="#FFFFFF" d="M442.15,13.242c0,3.857-2.693,5.537-5.192,5.537c-2.801,0-4.999-2.068-4.999-5.364
					c0-3.469,2.306-5.516,5.171-5.516C440.125,7.899,442.15,10.076,442.15,13.242z M433.898,13.351c0,2.284,1.293,4.007,3.146,4.007
					c1.81,0,3.167-1.701,3.167-4.05c0-1.767-0.883-3.986-3.124-3.986C434.868,9.321,433.898,11.39,433.898,13.351z"/>
			</g>
		</g>
	</g>
	<g>
		<path fill="#422D67" d="M1208.95,12.275c0,6.627-5.373,12-12,12H620.163c-6.628,0-12-5.373-12-12V12c0-6.628,5.372-12,12-12
			h576.787c6.627,0,12,5.372,12,12V12.275z"/>
		<g>
			<path fill="#FFFFFF" d="M817.885,15.042l-1.509,4.567h-1.938l4.955-14.521h2.24l4.956,14.521h-2.004l-1.552-4.567H817.885z
				 M822.667,13.576l-1.443-4.18c-0.323-0.947-0.538-1.81-0.754-2.65h-0.043c-0.216,0.841-0.431,1.746-0.732,2.629l-1.422,4.201
				H822.667z"/>
			<path fill="#FFFFFF" d="M830.726,6.682v2.5h2.715v1.443h-2.715v5.623c0,1.293,0.366,2.025,1.422,2.025
				c0.518,0,0.819-0.043,1.099-0.129l0.087,1.443c-0.366,0.129-0.948,0.258-1.681,0.258c-0.884,0-1.595-0.301-2.047-0.797
				c-0.518-0.582-0.732-1.508-0.732-2.736v-5.688h-1.616V9.182h1.616V7.242L830.726,6.682z"/>
			<path fill="#FFFFFF" d="M836.5,14.74c0.043,2.564,1.658,3.619,3.576,3.619c1.357,0,2.197-0.236,2.887-0.538l0.345,1.357
				c-0.668,0.302-1.831,0.667-3.49,0.667c-3.21,0-5.128-2.133-5.128-5.277c0-3.146,1.854-5.603,4.892-5.603
				c3.425,0,4.309,2.974,4.309,4.892c0,0.387-0.021,0.667-0.064,0.883H836.5z M842.059,13.383c0.021-1.186-0.496-3.06-2.629-3.06
				c-1.939,0-2.758,1.745-2.908,3.06H842.059z"/>
			<path fill="#FFFFFF" d="M846.238,12.004c0-1.099-0.021-1.961-0.087-2.822h1.681l0.107,1.724h0.044
				c0.517-0.97,1.724-1.939,3.447-1.939c1.443,0,3.684,0.862,3.684,4.438v6.205h-1.896v-6.012c0-1.68-0.625-3.08-2.413-3.08
				c-1.229,0-2.198,0.883-2.543,1.938c-0.086,0.237-0.129,0.561-0.129,0.884v6.27h-1.896V12.004z"/>
			<path fill="#FFFFFF" d="M865.628,19.243c-0.495,0.237-1.595,0.603-2.995,0.603c-3.146,0-5.192-2.133-5.192-5.321
				c0-3.21,2.198-5.559,5.603-5.559c1.12,0,2.111,0.28,2.628,0.561l-0.431,1.443c-0.452-0.237-1.163-0.495-2.197-0.495
				c-2.392,0-3.685,1.787-3.685,3.942c0,2.413,1.551,3.899,3.619,3.899c1.078,0,1.789-0.258,2.327-0.495L865.628,19.243z"/>
			<path fill="#FFFFFF" d="M869.959,6.251c0,0.646-0.453,1.163-1.207,1.163c-0.689,0-1.142-0.517-1.142-1.163
				c0-0.646,0.474-1.185,1.185-1.185C869.484,5.066,869.959,5.584,869.959,6.251z M867.848,19.609V9.182h1.896v10.428H867.848z"/>
			<path fill="#FFFFFF" d="M882.326,14.309c0,3.857-2.693,5.537-5.192,5.537c-2.801,0-4.999-2.068-4.999-5.364
				c0-3.469,2.306-5.516,5.171-5.516C880.301,8.966,882.326,11.143,882.326,14.309z M874.074,14.417
				c0,2.284,1.293,4.007,3.146,4.007c1.81,0,3.167-1.701,3.167-4.05c0-1.767-0.883-3.986-3.124-3.986
				C875.044,10.388,874.074,12.456,874.074,14.417z M880.063,4.678l-2.628,3.082H876.1l1.874-3.082H880.063z"/>
			<path fill="#FFFFFF" d="M884.718,12.004c0-1.099-0.022-1.961-0.087-2.822h1.681l0.108,1.724h0.043
				c0.517-0.97,1.724-1.939,3.447-1.939c1.443,0,3.684,0.862,3.684,4.438v6.205h-1.896v-6.012c0-1.68-0.625-3.08-2.413-3.08
				c-1.229,0-2.198,0.883-2.543,1.938c-0.086,0.237-0.129,0.561-0.129,0.884v6.27h-1.896V12.004z"/>
			<path fill="#FFFFFF" d="M903.182,6.682h-4.417V5.088h10.751v1.594h-4.438v12.928h-1.896V6.682z"/>
			<path fill="#FFFFFF" d="M910.594,14.74c0.043,2.564,1.658,3.619,3.576,3.619c1.357,0,2.197-0.236,2.887-0.538l0.345,1.357
				c-0.668,0.302-1.831,0.667-3.49,0.667c-3.21,0-5.128-2.133-5.128-5.277c0-3.146,1.854-5.603,4.892-5.603
				c3.425,0,4.309,2.974,4.309,4.892c0,0.387-0.021,0.667-0.064,0.883H910.594z M916.152,13.383c0.021-1.186-0.496-3.06-2.629-3.06
				c-1.939,0-2.758,1.745-2.908,3.06H916.152z"/>
			<path fill="#FFFFFF" d="M920.332,12.435c0-1.228-0.021-2.284-0.087-3.253h1.659l0.086,2.068h0.065
				c0.474-1.4,1.637-2.284,2.908-2.284c0.194,0,0.345,0.021,0.517,0.043v1.788c-0.193-0.043-0.388-0.043-0.646-0.043
				c-1.336,0-2.284,0.991-2.543,2.414c-0.043,0.258-0.064,0.581-0.064,0.883v5.559h-1.896V12.435z"/>
			<path fill="#FFFFFF" d="M934.595,17.11c0,0.905,0.043,1.788,0.15,2.499h-1.702l-0.15-1.314h-0.064
				c-0.582,0.818-1.702,1.551-3.189,1.551c-2.111,0-3.188-1.486-3.188-2.994c0-2.521,2.241-3.9,6.27-3.878v-0.216
				c0-0.84-0.236-2.413-2.37-2.392c-0.99,0-2.003,0.28-2.735,0.776l-0.432-1.271c0.862-0.539,2.134-0.905,3.447-0.905
				c3.189,0,3.965,2.177,3.965,4.245V17.11z M932.764,14.287c-2.068-0.043-4.417,0.324-4.417,2.35c0,1.249,0.818,1.809,1.767,1.809
				c1.379,0,2.262-0.861,2.563-1.744c0.064-0.216,0.087-0.432,0.087-0.604V14.287z"/>
			<path fill="#FFFFFF" d="M937.654,12.586c0-1.336-0.044-2.414-0.087-3.404h1.681l0.107,1.788h0.044
				c0.754-1.271,2.003-2.004,3.705-2.004c2.543,0,4.438,2.134,4.438,5.278c0,3.75-2.305,5.602-4.762,5.602
				c-1.379,0-2.585-0.603-3.21-1.637h-0.043v5.666h-1.874V12.586z M939.528,15.365c0,0.279,0.021,0.538,0.086,0.775
				c0.345,1.314,1.487,2.219,2.845,2.219c2.003,0,3.167-1.637,3.167-4.029c0-2.068-1.099-3.855-3.103-3.855
				c-1.293,0-2.521,0.904-2.866,2.326c-0.064,0.237-0.129,0.518-0.129,0.754V15.365z"/>
			<path fill="#FFFFFF" d="M950.969,14.74c0.043,2.564,1.658,3.619,3.576,3.619c1.357,0,2.197-0.236,2.887-0.538l0.345,1.357
				c-0.668,0.302-1.831,0.667-3.49,0.667c-3.21,0-5.128-2.133-5.128-5.277c0-3.146,1.854-5.603,4.892-5.603
				c3.425,0,4.309,2.974,4.309,4.892c0,0.387-0.021,0.667-0.064,0.883H950.969z M956.527,13.383c0.021-1.186-0.496-3.06-2.629-3.06
				c-1.939,0-2.758,1.745-2.908,3.06H956.527z M956.958,4.678l-2.629,3.082h-1.335l1.896-3.082H956.958z"/>
			<path fill="#FFFFFF" d="M969.433,16.744c0,1.099,0.021,2.047,0.086,2.865h-1.681l-0.107-1.702h-0.043
				c-0.475,0.841-1.595,1.938-3.447,1.938c-1.638,0-3.599-0.926-3.599-4.566V9.182h1.896v5.752c0,1.982,0.625,3.34,2.327,3.34
				c1.271,0,2.154-0.883,2.499-1.745c0.107-0.259,0.172-0.603,0.172-0.97V9.182h1.896V16.744z"/>
			<path fill="#FFFFFF" d="M974.861,6.682v2.5h2.715v1.443h-2.715v5.623c0,1.293,0.366,2.025,1.422,2.025
				c0.518,0,0.819-0.043,1.1-0.129l0.086,1.443c-0.366,0.129-0.948,0.258-1.681,0.258c-0.884,0-1.595-0.301-2.047-0.797
				c-0.518-0.582-0.732-1.508-0.732-2.736v-5.688h-1.616V9.182h1.616V7.242L974.861,6.682z"/>
			<path fill="#FFFFFF" d="M981.821,6.251c0,0.646-0.453,1.163-1.207,1.163c-0.689,0-1.142-0.517-1.142-1.163
				c0-0.646,0.474-1.185,1.185-1.185C981.347,5.066,981.821,5.584,981.821,6.251z M979.71,19.609V9.182h1.896v10.428H979.71z"/>
			<path fill="#FFFFFF" d="M992.184,19.243c-0.495,0.237-1.594,0.603-2.995,0.603c-3.146,0-5.192-2.133-5.192-5.321
				c0-3.21,2.198-5.559,5.603-5.559c1.12,0,2.111,0.28,2.628,0.561l-0.431,1.443c-0.452-0.237-1.163-0.495-2.197-0.495
				c-2.392,0-3.685,1.787-3.685,3.942c0,2.413,1.551,3.899,3.619,3.899c1.078,0,1.789-0.258,2.327-0.495L992.184,19.243z"/>
			<path fill="#FFFFFF" d="M1001.729,17.11c0,0.905,0.043,1.788,0.15,2.499h-1.702l-0.15-1.314h-0.064
				c-0.582,0.818-1.702,1.551-3.189,1.551c-2.111,0-3.188-1.486-3.188-2.994c0-2.521,2.241-3.9,6.27-3.878v-0.216
				c0-0.84-0.236-2.413-2.369-2.392c-0.991,0-2.004,0.28-2.736,0.776l-0.432-1.271c0.862-0.539,2.133-0.905,3.447-0.905
				c3.189,0,3.965,2.177,3.965,4.245V17.11z M999.896,14.287c-2.068-0.043-4.416,0.324-4.416,2.35c0,1.249,0.818,1.809,1.767,1.809
				c1.379,0,2.262-0.861,2.563-1.744c0.064-0.216,0.086-0.432,0.086-0.604V14.287z"/>
		</g>
	</g>
</g>
</svg>
