<?xml version="1.0" encoding="utf-8"?>
<!-- Generator: Adobe Illustrator 16.0.0, SVG Export Plug-In . SVG Version: 6.00 Build 0)  -->
<!DOCTYPE svg PUBLIC "-//W3C//DTD SVG 1.1//EN" "http://www.w3.org/Graphics/SVG/1.1/DTD/svg11.dtd">
<svg version="1.1" id="Capa_1" xmlns="http://www.w3.org/2000/svg" xmlns:xlink="http://www.w3.org/1999/xlink" x="0px" y="0px"
	 width="703.016px" height="94.051px" viewBox="0 0 703.016 94.051" enable-background="new 0 0 703.016 94.051"
	 xml:space="preserve">
<g>
	<g>
		<g>
			<path fill="#DC9B2F" d="M349.229,76.326c0,4.15-3.364,7.516-7.515,7.516H7.516C3.365,83.842,0,80.477,0,76.326V29.994
				c0-4.152,3.365-7.516,7.516-7.516h334.198c4.15,0,7.515,3.363,7.515,7.516V76.326z"/>
			<g>
				<g>
					<path fill="#FFFFFF" d="M44.305,39.296c-0.094,2.035-0.142,3.779-0.142,5.232c0,0.578,0.008,1.111,0.023,1.6l3.506-0.129
						l0.056,1.91l-5.612,0.094c0.005-0.516,0.008-1.029,0.008-1.541c0-2.348-0.068-4.684-0.205-7.008L44.305,39.296z"/>
					<path fill="#FFFFFF" d="M51.261,42.091c1.782,0,2.673,0.922,2.673,2.766c0,0.074-0.003,0.148-0.008,0.223
						c-0.073,1.996-1.022,3.004-2.846,3.023c-0.021,0.004-0.042,0.006-0.062,0.006c-1.734,0-2.603-0.943-2.603-2.83v-0.164
						C48.468,43.099,49.416,42.091,51.261,42.091z M51.002,43.427c-0.33,0.086-0.556,0.404-0.677,0.955
						c-0.073,0.328-0.109,0.658-0.109,0.99c0,0.223,0.016,0.447,0.047,0.674c0.084,0.562,0.354,0.854,0.81,0.873h0.055
						c0.425,0,0.716-0.209,0.873-0.627c0.131-0.348,0.196-0.76,0.196-1.236c0-0.117-0.003-0.236-0.008-0.357
						c-0.042-0.629-0.168-1.021-0.377-1.178c-0.132-0.094-0.289-0.141-0.472-0.141C51.234,43.38,51.122,43.396,51.002,43.427z"/>
					<path fill="#FFFFFF" d="M54.271,46.028l1.801-0.064v0.076c0,0.602,0.248,0.906,0.746,0.914h0.031
						c0.482,0,0.724-0.174,0.724-0.521v-0.041c-0.021-0.383-0.497-0.691-1.427-0.926s-1.489-0.629-1.678-1.184
						c-0.068-0.195-0.103-0.383-0.103-0.562c0-0.328,0.112-0.633,0.338-0.914c0.346-0.43,0.87-0.676,1.572-0.738
						c0.188-0.016,0.372-0.023,0.55-0.023c0.467,0,0.878,0.061,1.234,0.182c0.487,0.168,0.825,0.408,1.014,0.721
						c0.126,0.215,0.188,0.453,0.188,0.715c0,0.125-0.013,0.254-0.039,0.387l-1.682,0.029c0.016-0.098,0.023-0.188,0.023-0.27
						c0-0.391-0.168-0.6-0.503-0.627c-0.037-0.004-0.073-0.006-0.11-0.006c-0.346,0-0.579,0.131-0.699,0.393
						c-0.042,0.09-0.063,0.172-0.063,0.246c0,0.184,0.115,0.342,0.346,0.475c0.325,0.188,0.807,0.378,1.442,0.571
						c0.637,0.193,1.065,0.522,1.285,0.987c0.079,0.176,0.118,0.352,0.118,0.527c0,0.297-0.115,0.596-0.346,0.896
						c-0.367,0.48-0.936,0.76-1.706,0.838c-0.167,0.02-0.332,0.029-0.495,0.029c-0.576,0-1.11-0.111-1.604-0.334
						C54.602,47.519,54.282,46.927,54.271,46.028z"/>
					<path fill="#FFFFFF" d="M62.863,42.067l2.06-0.123c-0.048,1.172-0.071,2.137-0.071,2.895c0,0.285,0.006,0.541,0.016,0.768
						c0.021,0.836,0.272,1.266,0.755,1.289c0.031,0.004,0.061,0.006,0.087,0.006c0.43,0,0.702-0.184,0.817-0.551
						c0.062-0.215,0.094-0.725,0.094-1.529c0-0.645-0.021-1.477-0.062-2.496l1.934-0.105c0.021,1.191,0.031,2.215,0.031,3.07
						c0,1.066-0.016,1.871-0.047,2.414c-0.053,0.977-0.428,1.719-1.124,2.227c-0.629,0.461-1.512,0.691-2.649,0.691
						c-0.131,0-0.265-0.004-0.4-0.012l-0.221-1.43c0.1,0.004,0.197,0.006,0.291,0.006c0.881,0,1.483-0.115,1.809-0.346
						c0.335-0.238,0.503-0.621,0.503-1.148v-0.094c-0.299,0.352-0.758,0.527-1.376,0.527h-0.11
						c-0.676-0.023-1.199-0.222-1.571-0.595s-0.575-0.896-0.609-1.57S62.932,43.989,62.863,42.067z"/>
					<path fill="#FFFFFF" d="M74.331,48.009l-1.957,0.135c0.021-1.293,0.031-2.537,0.031-3.732c0-1.68-0.021-3.264-0.063-4.752
						l1.926-0.023c-0.021,0.957-0.031,1.939-0.031,2.947C74.236,44.321,74.268,46.13,74.331,48.009z"/>
					<path fill="#FFFFFF" d="M78.049,41.921c1.724,0.07,2.586,0.717,2.586,1.939v4.16l-1.831,0.023l-0.063-0.557
						c-0.377,0.32-0.878,0.48-1.501,0.48c-0.268,0-0.556-0.031-0.865-0.094c-0.927-0.172-1.391-0.707-1.391-1.605
						c0-0.109,0.008-0.227,0.023-0.352c0.104-0.926,0.987-1.389,2.648-1.389c0.32,0,0.671,0.018,1.054,0.053v-0.68
						c0-0.551-0.233-0.826-0.699-0.826h-0.032c-0.036-0.004-0.07-0.006-0.102-0.006c-0.509,0-0.763,0.309-0.763,0.926v0.088
						l-1.871-0.117c0-1.363,0.881-2.045,2.642-2.045H78.049z M78.709,46.55v-1.031c-0.226-0.035-0.43-0.053-0.613-0.053
						c-0.477,0-0.802,0.119-0.975,0.357c-0.104,0.145-0.157,0.279-0.157,0.404c0,0.156,0.084,0.295,0.252,0.416
						c0.131,0.094,0.301,0.141,0.511,0.141C77.994,46.784,78.321,46.706,78.709,46.55z"/>
					<path fill="#FFFFFF" d="M81.169,46.028l1.801-0.064v0.076c0,0.602,0.248,0.906,0.746,0.914h0.031
						c0.482,0,0.724-0.174,0.724-0.521v-0.041c-0.021-0.383-0.497-0.691-1.427-0.926s-1.489-0.629-1.678-1.184
						c-0.068-0.195-0.103-0.383-0.103-0.562c0-0.328,0.112-0.633,0.338-0.914c0.346-0.43,0.87-0.676,1.572-0.738
						c0.188-0.016,0.372-0.023,0.55-0.023c0.467,0,0.878,0.061,1.234,0.182c0.487,0.168,0.825,0.408,1.014,0.721
						c0.126,0.215,0.188,0.453,0.188,0.715c0,0.125-0.013,0.254-0.039,0.387l-1.682,0.029c0.016-0.098,0.023-0.188,0.023-0.27
						c0-0.391-0.168-0.6-0.503-0.627c-0.037-0.004-0.073-0.006-0.11-0.006c-0.346,0-0.579,0.131-0.699,0.393
						c-0.042,0.09-0.063,0.172-0.063,0.246c0,0.184,0.115,0.342,0.346,0.475c0.325,0.188,0.807,0.378,1.442,0.571
						c0.637,0.193,1.065,0.522,1.285,0.987c0.079,0.176,0.118,0.352,0.118,0.527c0,0.297-0.115,0.596-0.346,0.896
						c-0.367,0.48-0.936,0.76-1.706,0.838c-0.167,0.02-0.332,0.029-0.495,0.029c-0.576,0-1.11-0.111-1.604-0.334
						C81.499,47.519,81.18,46.927,81.169,46.028z"/>
					<path fill="#FFFFFF" d="M91.978,40.743c0,0.238-0.113,0.441-0.338,0.609c-0.226,0.168-0.498,0.252-0.818,0.252
						c-0.313,0-0.584-0.084-0.81-0.252c-0.225-0.168-0.338-0.371-0.338-0.609c0-0.234,0.113-0.436,0.338-0.604
						c0.226-0.168,0.496-0.252,0.81-0.252c0.32,0,0.593,0.084,0.818,0.252C91.864,40.308,91.978,40.509,91.978,40.743z
						 M89.871,48.138c-0.037-2.285-0.056-4.26-0.056-5.924l1.981-0.088c-0.063,1.594-0.095,3.178-0.095,4.752
						c0,0.422,0.003,0.842,0.008,1.26H89.871z"/>
					<path fill="#FFFFFF" d="M93.855,41.938l0.078,0.955c0.221-0.508,0.8-0.766,1.737-0.773h0.031c0.923,0,1.552,0.27,1.887,0.809
						c0.23,0.367,0.346,1.227,0.346,2.578c0,0.664-0.028,1.449-0.086,2.355h-1.902c0.068-1.207,0.103-2.143,0.103-2.807
						c0-0.332-0.008-0.598-0.024-0.797c-0.052-0.586-0.304-0.879-0.754-0.879c-0.451,0-0.734,0.156-0.849,0.469l0.078,4.248
						l-1.848,0.012c0-1.797-0.081-3.814-0.243-6.053L93.855,41.938z"/>
					<path fill="#FFFFFF" d="M100.05,47.956c-0.66-2.262-1.252-4.203-1.776-5.824l1.91-0.076l0.967,4.26
						c0.503-1.594,0.904-3.047,1.202-4.359l1.879,0.176c-0.592,1.637-1.281,3.57-2.067,5.801L100.05,47.956z"/>
					<path fill="#FFFFFF" d="M106.724,40.743c0,0.238-0.113,0.441-0.338,0.609c-0.226,0.168-0.498,0.252-0.818,0.252
						c-0.313,0-0.584-0.084-0.81-0.252c-0.225-0.168-0.338-0.371-0.338-0.609c0-0.234,0.113-0.436,0.338-0.604
						c0.226-0.168,0.496-0.252,0.81-0.252c0.32,0,0.593,0.084,0.818,0.252C106.61,40.308,106.724,40.509,106.724,40.743z
						 M104.617,48.138c-0.037-2.285-0.056-4.26-0.056-5.924l1.981-0.088c-0.063,1.594-0.095,3.178-0.095,4.752
						c0,0.422,0.003,0.842,0.008,1.26H104.617z"/>
					<path fill="#FFFFFF" d="M108.468,40.222l1.784-0.088v1.939l1.502-0.029l0.023,1.107l-1.525,0.053v2.666
						c0,0.621,0.354,0.932,1.062,0.932c0.146,0,0.307-0.014,0.479-0.041l-0.071,1.289c-0.251,0.023-0.489,0.035-0.715,0.035
						c-1.656,0-2.5-0.637-2.531-1.91V43.31l-1.289,0.059l-0.031-1.307l1.32,0.012L108.468,40.222z"/>
					<path fill="#FFFFFF" d="M115.472,41.921c1.724,0.07,2.586,0.717,2.586,1.939v4.16l-1.831,0.023l-0.063-0.557
						c-0.377,0.32-0.878,0.48-1.501,0.48c-0.268,0-0.556-0.031-0.865-0.094c-0.927-0.172-1.391-0.707-1.391-1.605
						c0-0.109,0.008-0.227,0.023-0.352c0.104-0.926,0.987-1.389,2.648-1.389c0.32,0,0.671,0.018,1.054,0.053v-0.68
						c0-0.551-0.233-0.826-0.699-0.826H115.4c-0.036-0.004-0.07-0.006-0.102-0.006c-0.509,0-0.763,0.309-0.763,0.926v0.088
						l-1.871-0.117c0-1.363,0.881-2.045,2.642-2.045H115.472z M116.132,46.55v-1.031c-0.226-0.035-0.43-0.053-0.613-0.053
						c-0.477,0-0.802,0.119-0.975,0.357c-0.104,0.145-0.157,0.279-0.157,0.404c0,0.156,0.084,0.295,0.252,0.416
						c0.131,0.094,0.301,0.141,0.511,0.141C115.417,46.784,115.744,46.706,116.132,46.55z"/>
					<path fill="#FFFFFF" d="M119.952,41.968l0.031,0.938c0.283-0.449,0.61-0.729,0.982-0.838c0.221-0.062,0.443-0.094,0.668-0.094
						c0.168,0,0.336,0.016,0.503,0.047c0.409,0.078,0.7,0.391,0.873,0.938c0.136-0.426,0.372-0.71,0.707-0.853
						c0.336-0.143,0.708-0.216,1.116-0.22h0.031c0.398,0,0.781,0.072,1.148,0.217c0.372,0.148,0.656,0.427,0.853,0.835
						s0.3,0.968,0.311,1.679v3.404l-1.698,0.029c0.068-1.285,0.103-2.379,0.103-3.281s-0.23-1.389-0.691-1.459
						c-0.068-0.008-0.134-0.012-0.197-0.012c-0.366,0-0.649,0.176-0.849,0.527c-0.031,0.406-0.047,0.881-0.047,1.424
						c0,0.738,0.028,1.6,0.086,2.584l-1.965,0.012c0.073-1.512,0.11-2.613,0.11-3.305v-0.07c-0.006-0.684-0.187-1.043-0.543-1.078
						h-0.102c-0.32,0-0.629,0.137-0.928,0.41l0.016,4.289l-1.854,0.053v-0.961c0-1.703-0.034-3.404-0.103-5.104L119.952,41.968z"/>
					<path fill="#FFFFFF" d="M130.414,42.091c1.782,0,2.673,0.922,2.673,2.766c0,0.074-0.003,0.148-0.008,0.223
						c-0.073,1.996-1.022,3.004-2.846,3.023c-0.021,0.004-0.042,0.006-0.062,0.006c-1.734,0-2.603-0.943-2.603-2.83v-0.164
						C127.621,43.099,128.569,42.091,130.414,42.091z M130.155,43.427c-0.33,0.086-0.556,0.404-0.677,0.955
						c-0.073,0.328-0.109,0.658-0.109,0.99c0,0.223,0.016,0.447,0.047,0.674c0.084,0.562,0.354,0.854,0.81,0.873h0.055
						c0.425,0,0.716-0.209,0.873-0.627c0.131-0.348,0.196-0.76,0.196-1.236c0-0.117-0.003-0.236-0.008-0.357
						c-0.042-0.629-0.168-1.021-0.377-1.178c-0.132-0.094-0.289-0.141-0.472-0.141C130.388,43.38,130.275,43.396,130.155,43.427z"/>
					<path fill="#FFFFFF" d="M133.425,46.028l1.801-0.064v0.076c0,0.602,0.248,0.906,0.746,0.914h0.031
						c0.482,0,0.724-0.174,0.724-0.521v-0.041c-0.021-0.383-0.497-0.691-1.427-0.926s-1.489-0.629-1.678-1.184
						c-0.068-0.195-0.103-0.383-0.103-0.562c0-0.328,0.112-0.633,0.338-0.914c0.346-0.43,0.87-0.676,1.572-0.738
						c0.188-0.016,0.372-0.023,0.55-0.023c0.467,0,0.878,0.061,1.234,0.182c0.487,0.168,0.825,0.408,1.014,0.721
						c0.126,0.215,0.188,0.453,0.188,0.715c0,0.125-0.013,0.254-0.039,0.387l-1.682,0.029c0.016-0.098,0.023-0.188,0.023-0.27
						c0-0.391-0.168-0.6-0.503-0.627c-0.037-0.004-0.073-0.006-0.11-0.006c-0.346,0-0.579,0.131-0.699,0.393
						c-0.042,0.09-0.063,0.172-0.063,0.246c0,0.184,0.115,0.342,0.346,0.475c0.325,0.188,0.807,0.378,1.442,0.571
						c0.637,0.193,1.065,0.522,1.285,0.987c0.079,0.176,0.118,0.352,0.118,0.527c0,0.297-0.115,0.596-0.346,0.896
						c-0.367,0.48-0.936,0.76-1.706,0.838c-0.167,0.02-0.332,0.029-0.495,0.029c-0.576,0-1.11-0.111-1.604-0.334
						C133.755,47.519,133.436,46.927,133.425,46.028z"/>
					<path fill="#FFFFFF" d="M145.074,41.921c1.724,0.07,2.586,0.717,2.586,1.939v4.16l-1.831,0.023l-0.063-0.557
						c-0.377,0.32-0.878,0.48-1.501,0.48c-0.268,0-0.556-0.031-0.865-0.094c-0.927-0.172-1.391-0.707-1.391-1.605
						c0-0.109,0.008-0.227,0.023-0.352c0.104-0.926,0.987-1.389,2.648-1.389c0.32,0,0.671,0.018,1.054,0.053v-0.68
						c0-0.551-0.233-0.826-0.699-0.826h-0.032c-0.036-0.004-0.07-0.006-0.102-0.006c-0.509,0-0.763,0.309-0.763,0.926v0.088
						l-1.871-0.117c0-1.363,0.881-2.045,2.642-2.045H145.074z M145.734,46.55v-1.031c-0.226-0.035-0.43-0.053-0.613-0.053
						c-0.477,0-0.802,0.119-0.975,0.357c-0.104,0.145-0.157,0.279-0.157,0.404c0,0.156,0.084,0.295,0.252,0.416
						c0.131,0.094,0.301,0.141,0.511,0.141C145.02,46.784,145.347,46.706,145.734,46.55z"/>
					<path fill="#FFFFFF" d="M152.683,47.956c-0.66-2.262-1.252-4.203-1.776-5.824l1.91-0.076l0.967,4.26
						c0.503-1.594,0.904-3.047,1.202-4.359l1.879,0.176c-0.592,1.637-1.281,3.57-2.067,5.801L152.683,47.956z"/>
					<path fill="#FFFFFF" d="M159.71,42.091c1.818,0,2.728,0.9,2.728,2.701c0,0.219-0.014,0.453-0.039,0.703h-3.514
						c0,1.004,0.259,1.506,0.778,1.506h0.055c0.456-0.027,0.684-0.287,0.684-0.779c0-0.105-0.011-0.223-0.031-0.352l1.871-0.029
						c0,1.488-0.873,2.242-2.618,2.262c-0.021,0.004-0.039,0.006-0.055,0.006c-1.661,0-2.492-0.939-2.492-2.818v-0.176
						C157.129,43.099,158.007,42.091,159.71,42.091z M158.696,44.417h1.776v-0.141c0-0.711-0.271-1.066-0.81-1.066
						C159.081,43.21,158.759,43.612,158.696,44.417z"/>
					<path fill="#FFFFFF" d="M165.118,43.907l0.078,4.248l-1.926,0.012c0-1.797-0.081-3.814-0.243-6.053l1.446-0.117l0.078,0.955
						c0.221-0.469,0.734-0.736,1.541-0.803c0.12-0.008,0.236-0.012,0.346-0.012c0.634,0,1.116,0.154,1.446,0.463
						c0.383,0.367,0.576,0.951,0.582,1.752l-1.745,0.129c0.005-0.066,0.008-0.131,0.008-0.193c0-0.625-0.218-0.938-0.652-0.938
						h-0.031C165.543,43.37,165.233,43.556,165.118,43.907z"/>
					<path fill="#FFFFFF" d="M174.479,42.091c1.818,0,2.728,0.9,2.728,2.701c0,0.219-0.014,0.453-0.039,0.703h-3.514
						c0,1.004,0.259,1.506,0.778,1.506h0.055c0.456-0.027,0.684-0.287,0.684-0.779c0-0.105-0.011-0.223-0.031-0.352l1.871-0.029
						c0,1.488-0.873,2.242-2.618,2.262c-0.021,0.004-0.039,0.006-0.055,0.006c-1.661,0-2.492-0.939-2.492-2.818v-0.176
						C171.898,43.099,172.776,42.091,174.479,42.091z M173.466,44.417h1.776v-0.141c0-0.711-0.271-1.066-0.81-1.066
						C173.851,43.21,173.528,43.612,173.466,44.417z"/>
					<path fill="#FFFFFF" d="M180.006,48.009l-1.957,0.135c0.021-1.293,0.031-2.537,0.031-3.732c0-1.68-0.021-3.264-0.063-4.752
						l1.926-0.023c-0.021,0.957-0.031,1.939-0.031,2.947C179.911,44.321,179.942,46.13,180.006,48.009z"/>
					<path fill="#FFFFFF" d="M183.519,46.028l1.801-0.064v0.076c0,0.602,0.248,0.906,0.746,0.914h0.031
						c0.482,0,0.724-0.174,0.724-0.521v-0.041c-0.021-0.383-0.497-0.691-1.427-0.926s-1.489-0.629-1.678-1.184
						c-0.068-0.195-0.103-0.383-0.103-0.562c0-0.328,0.112-0.633,0.338-0.914c0.346-0.43,0.87-0.676,1.572-0.738
						c0.188-0.016,0.372-0.023,0.55-0.023c0.467,0,0.878,0.061,1.234,0.182c0.487,0.168,0.825,0.408,1.014,0.721
						c0.126,0.215,0.188,0.453,0.188,0.715c0,0.125-0.013,0.254-0.039,0.387l-1.682,0.029c0.016-0.098,0.023-0.188,0.023-0.27
						c0-0.391-0.168-0.6-0.503-0.627c-0.037-0.004-0.073-0.006-0.11-0.006c-0.346,0-0.579,0.131-0.699,0.393
						c-0.042,0.09-0.063,0.172-0.063,0.246c0,0.184,0.115,0.342,0.346,0.475c0.325,0.188,0.807,0.378,1.442,0.571
						c0.637,0.193,1.065,0.522,1.285,0.987c0.079,0.176,0.118,0.352,0.118,0.527c0,0.297-0.115,0.596-0.346,0.896
						c-0.367,0.48-0.936,0.76-1.706,0.838c-0.167,0.02-0.332,0.029-0.495,0.029c-0.576,0-1.11-0.111-1.604-0.334
						C183.849,47.519,183.529,46.927,183.519,46.028z"/>
					<path fill="#FFFFFF" d="M191.396,40.743c0,0.238-0.113,0.441-0.338,0.609c-0.226,0.168-0.498,0.252-0.818,0.252
						c-0.313,0-0.584-0.084-0.81-0.252c-0.225-0.168-0.338-0.371-0.338-0.609c0-0.234,0.113-0.436,0.338-0.604
						c0.226-0.168,0.496-0.252,0.81-0.252c0.32,0,0.593,0.084,0.818,0.252C191.282,40.308,191.396,40.509,191.396,40.743z
						 M189.289,48.138c-0.037-2.285-0.056-4.26-0.056-5.924l1.981-0.088c-0.063,1.594-0.095,3.178-0.095,4.752
						c0,0.422,0.003,0.842,0.008,1.26H189.289z"/>
					<path fill="#FFFFFF" d="M192.047,48.788l1.848-0.076c-0.006,0.047-0.008,0.094-0.008,0.141c0,0.426,0.228,0.658,0.684,0.697
						c0.073,0.008,0.142,0.012,0.204,0.012c0.394,0,0.674-0.117,0.842-0.352c0.146-0.211,0.22-0.605,0.22-1.184
						c0-0.156-0.005-0.328-0.016-0.516c-0.294,0.438-0.839,0.676-1.635,0.715c-1.557-0.012-2.335-0.998-2.335-2.959v-0.041
						c0.011-1.984,0.936-2.982,2.774-2.994c0.504,0,0.954,0.219,1.353,0.656l0.023-0.932l1.722,0.059
						c0,3.223-0.014,5.219-0.04,5.988c-0.025,0.77-0.182,1.387-0.467,1.852c-0.286,0.465-0.772,0.762-1.459,0.891
						c-0.361,0.07-0.72,0.105-1.076,0.105c-0.32,0-0.637-0.027-0.951-0.082c-0.671-0.117-1.132-0.338-1.384-0.662
						c-0.209-0.266-0.314-0.613-0.314-1.043C192.031,48.978,192.037,48.886,192.047,48.788z M195.805,46.468v-2.379
						c-0.257-0.387-0.582-0.58-0.975-0.58c-0.079,0-0.16,0.008-0.244,0.023c-0.508,0.09-0.789,0.611-0.841,1.564
						c-0.005,0.102-0.008,0.199-0.008,0.293c0,0.777,0.193,1.254,0.581,1.43c0.132,0.062,0.271,0.094,0.417,0.094
						C195.061,46.913,195.417,46.765,195.805,46.468z"/>
					<path fill="#FFFFFF" d="M202.407,48.108l-0.078-0.955c-0.22,0.508-0.812,0.764-1.776,0.768
						c-0.011,0.004-0.019,0.006-0.023,0.006c-0.954,0-1.586-0.32-1.895-0.961c-0.21-0.426-0.314-1.307-0.314-2.643
						c0-0.688,0.028-1.498,0.086-2.432h1.91c-0.104,1.312-0.157,2.322-0.157,3.029c0,0.355,0.014,0.633,0.04,0.832
						c0.078,0.609,0.343,0.914,0.794,0.914c0.45,0,0.733-0.158,0.849-0.475l-0.079-4.066l1.848-0.012
						c0,1.68,0.081,3.637,0.243,5.871L202.407,48.108z"/>
					<path fill="#FFFFFF" d="M206.708,40.743c0,0.238-0.113,0.441-0.338,0.609c-0.226,0.168-0.498,0.252-0.818,0.252
						c-0.313,0-0.584-0.084-0.81-0.252c-0.225-0.168-0.338-0.371-0.338-0.609c0-0.234,0.113-0.436,0.338-0.604
						c0.226-0.168,0.496-0.252,0.81-0.252c0.32,0,0.593,0.084,0.818,0.252C206.595,40.308,206.708,40.509,206.708,40.743z
						 M204.602,48.138c-0.037-2.285-0.056-4.26-0.056-5.924l1.981-0.088c-0.063,1.594-0.095,3.178-0.095,4.752
						c0,0.422,0.003,0.842,0.008,1.26H204.602z"/>
					<path fill="#FFFFFF" d="M209.694,42.091c1.818,0,2.728,0.9,2.728,2.701c0,0.219-0.014,0.453-0.039,0.703h-3.514
						c0,1.004,0.259,1.506,0.778,1.506h0.055c0.456-0.027,0.684-0.287,0.684-0.779c0-0.105-0.011-0.223-0.031-0.352l1.871-0.029
						c0,1.488-0.873,2.242-2.618,2.262c-0.021,0.004-0.039,0.006-0.055,0.006c-1.661,0-2.492-0.939-2.492-2.818v-0.176
						C207.113,43.099,207.991,42.091,209.694,42.091z M208.681,44.417h1.776v-0.141c0-0.711-0.271-1.066-0.81-1.066
						C209.065,43.21,208.743,43.612,208.681,44.417z"/>
					<path fill="#FFFFFF" d="M214.458,41.938l0.078,0.955c0.221-0.508,0.8-0.766,1.737-0.773h0.031c0.923,0,1.552,0.27,1.887,0.809
						c0.23,0.367,0.346,1.227,0.346,2.578c0,0.664-0.028,1.449-0.086,2.355h-1.902c0.068-1.207,0.103-2.143,0.103-2.807
						c0-0.332-0.008-0.598-0.024-0.797c-0.052-0.586-0.304-0.879-0.754-0.879c-0.451,0-0.734,0.156-0.849,0.469l0.078,4.248
						l-1.848,0.012c0-1.797-0.081-3.814-0.243-6.053L214.458,41.938z"/>
					<path fill="#FFFFFF" d="M220.503,40.222l1.784-0.088v1.939l1.502-0.029l0.023,1.107l-1.525,0.053v2.666
						c0,0.621,0.354,0.932,1.062,0.932c0.146,0,0.307-0.014,0.479-0.041l-0.071,1.289c-0.251,0.023-0.489,0.035-0.715,0.035
						c-1.656,0-2.5-0.637-2.531-1.91V43.31l-1.289,0.059l-0.031-1.307l1.32,0.012L220.503,40.222z"/>
					<path fill="#FFFFFF" d="M227.02,42.091c1.818,0,2.728,0.9,2.728,2.701c0,0.219-0.014,0.453-0.039,0.703h-3.514
						c0,1.004,0.259,1.506,0.778,1.506h0.055c0.456-0.027,0.684-0.287,0.684-0.779c0-0.105-0.011-0.223-0.031-0.352l1.871-0.029
						c0,1.488-0.873,2.242-2.618,2.262c-0.021,0.004-0.039,0.006-0.055,0.006c-1.661,0-2.492-0.939-2.492-2.818v-0.176
						C224.438,43.099,225.316,42.091,227.02,42.091z M226.006,44.417h1.776v-0.141c0-0.711-0.271-1.066-0.81-1.066
						C226.391,43.21,226.068,43.612,226.006,44.417z"/>
					<path fill="#FFFFFF" d="M234.73,47.956c-0.66-2.262-1.252-4.203-1.776-5.824l1.91-0.076l0.967,4.26
						c0.503-1.594,0.904-3.047,1.202-4.359l1.879,0.176c-0.592,1.637-1.281,3.57-2.067,5.801L234.73,47.956z"/>
					<path fill="#FFFFFF" d="M241.404,40.743c0,0.238-0.113,0.441-0.338,0.609c-0.226,0.168-0.498,0.252-0.818,0.252
						c-0.313,0-0.584-0.084-0.81-0.252c-0.225-0.168-0.338-0.371-0.338-0.609c0-0.234,0.113-0.436,0.338-0.604
						c0.226-0.168,0.496-0.252,0.81-0.252c0.32,0,0.593,0.084,0.818,0.252C241.291,40.308,241.404,40.509,241.404,40.743z
						 M239.298,48.138c-0.037-2.285-0.056-4.26-0.056-5.924l1.981-0.088c-0.063,1.594-0.095,3.178-0.095,4.752
						c0,0.422,0.003,0.842,0.008,1.26H239.298z"/>
					<path fill="#FFFFFF" d="M247.778,39.817c-0.031,1.32-0.047,2.705-0.047,4.154c0,1.32,0.013,2.695,0.039,4.125l-1.863,0.006
						l-0.062-0.896c-0.388,0.434-0.904,0.65-1.549,0.65c-1.608,0-2.413-0.918-2.413-2.754c0-0.039,0.003-0.078,0.008-0.117
						c0.031-1.84,0.828-2.76,2.39-2.76c0.063,0,0.129,0.002,0.196,0.006c0.535,0.023,0.967,0.24,1.298,0.65
						c0-0.867-0.029-1.889-0.087-3.064H247.778z M245.813,46.005l-0.039-2.027c-0.305-0.309-0.616-0.463-0.936-0.463
						c-0.132,0-0.263,0.025-0.394,0.076c-0.414,0.16-0.621,0.609-0.621,1.348c0,0.086,0.003,0.174,0.008,0.264
						c0.053,0.895,0.32,1.367,0.802,1.418c0.048,0.004,0.095,0.006,0.142,0.006C245.195,46.626,245.541,46.419,245.813,46.005z"/>
					<path fill="#FFFFFF" d="M250.954,42.091c1.818,0,2.728,0.9,2.728,2.701c0,0.219-0.014,0.453-0.039,0.703h-3.514
						c0,1.004,0.259,1.506,0.778,1.506h0.055c0.456-0.027,0.684-0.287,0.684-0.779c0-0.105-0.011-0.223-0.031-0.352l1.871-0.029
						c0,1.488-0.873,2.242-2.618,2.262c-0.021,0.004-0.039,0.006-0.055,0.006c-1.661,0-2.492-0.939-2.492-2.818v-0.176
						C248.373,43.099,249.251,42.091,250.954,42.091z M249.94,44.417h1.776v-0.141c0-0.711-0.271-1.066-0.81-1.066
						C250.325,43.21,250.003,43.612,249.94,44.417z"/>
					<path fill="#FFFFFF" d="M257.038,42.091c1.782,0,2.673,0.922,2.673,2.766c0,0.074-0.003,0.148-0.008,0.223
						c-0.073,1.996-1.022,3.004-2.846,3.023c-0.021,0.004-0.042,0.006-0.062,0.006c-1.734,0-2.603-0.943-2.603-2.83v-0.164
						C254.245,43.099,255.193,42.091,257.038,42.091z M256.779,43.427c-0.33,0.086-0.556,0.404-0.677,0.955
						c-0.073,0.328-0.109,0.658-0.109,0.99c0,0.223,0.016,0.447,0.047,0.674c0.084,0.562,0.354,0.854,0.81,0.873h0.055
						c0.425,0,0.716-0.209,0.873-0.627c0.131-0.348,0.196-0.76,0.196-1.236c0-0.117-0.003-0.236-0.008-0.357
						c-0.042-0.629-0.168-1.021-0.377-1.178c-0.132-0.094-0.289-0.141-0.472-0.141C257.012,43.38,256.899,43.396,256.779,43.427z"/>
					<path fill="#FFFFFF" d="M261.291,43.679c-0.314,0-0.584-0.084-0.81-0.252s-0.338-0.369-0.338-0.604
						c0-0.238,0.112-0.441,0.338-0.609s0.495-0.252,0.81-0.252c0.319,0,0.592,0.084,0.817,0.252s0.338,0.371,0.338,0.609
						c0,0.234-0.112,0.436-0.338,0.604S261.61,43.679,261.291,43.679z M261.291,48.138c-0.314,0-0.584-0.084-0.81-0.252
						s-0.338-0.369-0.338-0.604c0-0.238,0.112-0.441,0.338-0.609s0.495-0.252,0.81-0.252c0.319,0,0.592,0.084,0.817,0.252
						s0.338,0.371,0.338,0.609c0,0.234-0.112,0.436-0.338,0.604S261.61,48.138,261.291,48.138z"/>
					<path fill="#FFFFFF" d="M62.088,53.948v1.652l-3.104-0.088v2.197l2.791-0.053l0.07,1.588h-2.492v2.889l-2.177-0.076
						c0.058-1.098,0.086-2.203,0.086-3.316c0-1.543-0.055-3.1-0.165-4.67C58.281,54.032,59.945,53.991,62.088,53.948z"/>
					<path fill="#FFFFFF" d="M66.859,62.509l-0.078-0.955c-0.22,0.508-0.812,0.764-1.776,0.768
						c-0.011,0.004-0.019,0.006-0.023,0.006c-0.954,0-1.586-0.32-1.895-0.961c-0.21-0.426-0.314-1.307-0.314-2.643
						c0-0.688,0.028-1.498,0.086-2.432h1.91c-0.104,1.312-0.157,2.322-0.157,3.029c0,0.355,0.014,0.633,0.04,0.832
						c0.078,0.609,0.343,0.914,0.794,0.914c0.45,0,0.733-0.158,0.849-0.475l-0.079-4.066l1.848-0.012
						c0,1.68,0.081,3.637,0.243,5.871L66.859,62.509z"/>
					<path fill="#FFFFFF" d="M70.405,56.339l0.078,0.955c0.221-0.508,0.8-0.766,1.737-0.773h0.031c0.923,0,1.552,0.27,1.887,0.809
						c0.23,0.367,0.346,1.227,0.346,2.578c0,0.664-0.028,1.449-0.086,2.355h-1.902c0.068-1.207,0.103-2.143,0.103-2.807
						c0-0.332-0.008-0.598-0.024-0.797c-0.052-0.586-0.304-0.879-0.754-0.879c-0.451,0-0.734,0.156-0.849,0.469l0.078,4.248
						l-1.848,0.012c0-1.797-0.081-3.814-0.243-6.053L70.405,56.339z"/>
					<path fill="#FFFFFF" d="M81.08,54.218c-0.031,1.32-0.047,2.705-0.047,4.154c0,1.32,0.013,2.695,0.039,4.125l-1.863,0.006
						l-0.062-0.896c-0.388,0.434-0.904,0.65-1.549,0.65c-1.608,0-2.413-0.918-2.413-2.754c0-0.039,0.003-0.078,0.008-0.117
						c0.031-1.84,0.828-2.76,2.39-2.76c0.063,0,0.129,0.002,0.196,0.006c0.535,0.023,0.967,0.24,1.298,0.65
						c0-0.867-0.029-1.889-0.087-3.064H81.08z M79.115,60.405l-0.039-2.027c-0.305-0.309-0.616-0.463-0.936-0.463
						c-0.132,0-0.263,0.025-0.394,0.076c-0.414,0.16-0.621,0.609-0.621,1.348c0,0.086,0.003,0.174,0.008,0.264
						c0.053,0.895,0.32,1.367,0.802,1.418c0.048,0.004,0.095,0.006,0.142,0.006C78.497,61.026,78.843,60.819,79.115,60.405z"/>
					<path fill="#FFFFFF" d="M84.743,56.321c1.724,0.07,2.586,0.717,2.586,1.939v4.16l-1.831,0.023l-0.063-0.557
						c-0.377,0.32-0.878,0.48-1.501,0.48c-0.268,0-0.556-0.031-0.865-0.094c-0.927-0.172-1.391-0.707-1.391-1.605
						c0-0.109,0.008-0.227,0.023-0.352c0.104-0.926,0.987-1.389,2.648-1.389c0.32,0,0.671,0.018,1.054,0.053v-0.68
						c0-0.551-0.233-0.826-0.699-0.826h-0.032c-0.036-0.004-0.07-0.006-0.102-0.006c-0.509,0-0.763,0.309-0.763,0.926v0.088
						l-1.871-0.117c0-1.363,0.881-2.045,2.642-2.045H84.743z M85.403,60.95v-1.031c-0.226-0.035-0.43-0.053-0.613-0.053
						c-0.477,0-0.802,0.119-0.975,0.357c-0.104,0.145-0.157,0.279-0.157,0.404c0,0.156,0.084,0.295,0.252,0.416
						c0.131,0.094,0.301,0.141,0.511,0.141C84.688,61.185,85.016,61.106,85.403,60.95z"/>
					<path fill="#FFFFFF" d="M89.224,56.368l0.031,0.938c0.283-0.449,0.61-0.729,0.982-0.838c0.221-0.062,0.443-0.094,0.668-0.094
						c0.168,0,0.336,0.016,0.503,0.047c0.409,0.078,0.7,0.391,0.873,0.938c0.136-0.426,0.372-0.71,0.707-0.853
						c0.336-0.143,0.708-0.216,1.116-0.22h0.031c0.398,0,0.781,0.072,1.148,0.217c0.372,0.148,0.656,0.427,0.853,0.835
						s0.3,0.968,0.311,1.679v3.404l-1.698,0.029c0.068-1.285,0.103-2.379,0.103-3.281s-0.23-1.389-0.691-1.459
						c-0.068-0.008-0.134-0.012-0.197-0.012c-0.366,0-0.649,0.176-0.849,0.527c-0.031,0.406-0.047,0.881-0.047,1.424
						c0,0.738,0.028,1.6,0.086,2.584l-1.965,0.012c0.073-1.512,0.11-2.613,0.11-3.305v-0.07c-0.006-0.684-0.187-1.043-0.543-1.078
						h-0.102c-0.32,0-0.629,0.137-0.928,0.41l0.016,4.289l-1.854,0.053v-0.961c0-1.703-0.034-3.404-0.103-5.104L89.224,56.368z"/>
					<path fill="#FFFFFF" d="M99.474,56.491c1.818,0,2.728,0.9,2.728,2.701c0,0.219-0.014,0.453-0.039,0.703h-3.514
						c0,1.004,0.259,1.506,0.778,1.506h0.055c0.456-0.027,0.684-0.287,0.684-0.779c0-0.105-0.011-0.223-0.031-0.352l1.871-0.029
						c0,1.488-0.873,2.242-2.618,2.262c-0.021,0.004-0.039,0.006-0.055,0.006c-1.661,0-2.492-0.939-2.492-2.818v-0.176
						C96.893,57.499,97.771,56.491,99.474,56.491z M98.46,58.817h1.776v-0.141c0-0.711-0.271-1.066-0.81-1.066
						C98.845,57.61,98.522,58.013,98.46,58.817z"/>
					<path fill="#FFFFFF" d="M104.237,56.339l0.078,0.955c0.221-0.508,0.8-0.766,1.737-0.773h0.031c0.923,0,1.552,0.27,1.887,0.809
						c0.23,0.367,0.346,1.227,0.346,2.578c0,0.664-0.028,1.449-0.086,2.355h-1.902c0.068-1.207,0.103-2.143,0.103-2.807
						c0-0.332-0.008-0.598-0.024-0.797c-0.052-0.586-0.304-0.879-0.754-0.879c-0.451,0-0.734,0.156-0.849,0.469l0.078,4.248
						l-1.848,0.012c0-1.797-0.081-3.814-0.243-6.053L104.237,56.339z"/>
					<path fill="#FFFFFF" d="M110.282,54.622l1.784-0.088v1.939l1.502-0.029l0.023,1.107l-1.525,0.053v2.666
						c0,0.621,0.354,0.932,1.062,0.932c0.146,0,0.307-0.014,0.479-0.041l-0.071,1.289c-0.251,0.023-0.489,0.035-0.715,0.035
						c-1.656,0-2.5-0.637-2.531-1.91V57.71l-1.289,0.059l-0.031-1.307l1.32,0.012L110.282,54.622z"/>
					<path fill="#FFFFFF" d="M117.011,56.491c1.782,0,2.673,0.922,2.673,2.766c0,0.074-0.003,0.148-0.008,0.223
						c-0.073,1.996-1.022,3.004-2.846,3.023c-0.021,0.004-0.042,0.006-0.062,0.006c-1.734,0-2.603-0.943-2.603-2.83v-0.164
						C114.218,57.499,115.166,56.491,117.011,56.491z M116.752,57.827c-0.33,0.086-0.556,0.404-0.677,0.955
						c-0.073,0.328-0.109,0.658-0.109,0.99c0,0.223,0.016,0.447,0.047,0.674c0.084,0.562,0.354,0.854,0.81,0.873h0.055
						c0.425,0,0.716-0.209,0.873-0.627c0.131-0.348,0.196-0.76,0.196-1.236c0-0.117-0.003-0.236-0.008-0.357
						c-0.042-0.629-0.168-1.021-0.377-1.178c-0.132-0.094-0.289-0.141-0.472-0.141C116.984,57.78,116.872,57.796,116.752,57.827z"/>
					<path fill="#FFFFFF" d="M120.021,60.429l1.801-0.064v0.076c0,0.602,0.248,0.906,0.746,0.914h0.031
						c0.482,0,0.724-0.174,0.724-0.521v-0.041c-0.021-0.383-0.497-0.691-1.427-0.926s-1.489-0.629-1.678-1.184
						c-0.068-0.195-0.103-0.383-0.103-0.562c0-0.328,0.112-0.633,0.338-0.914c0.346-0.43,0.87-0.676,1.572-0.738
						c0.188-0.016,0.372-0.023,0.55-0.023c0.467,0,0.878,0.061,1.234,0.182c0.487,0.168,0.825,0.408,1.014,0.721
						c0.126,0.215,0.188,0.453,0.188,0.715c0,0.125-0.013,0.254-0.039,0.387l-1.682,0.029c0.016-0.098,0.023-0.188,0.023-0.27
						c0-0.391-0.168-0.6-0.503-0.627c-0.037-0.004-0.073-0.006-0.11-0.006c-0.346,0-0.579,0.131-0.699,0.393
						c-0.042,0.09-0.063,0.172-0.063,0.246c0,0.184,0.115,0.342,0.346,0.475c0.325,0.188,0.807,0.378,1.442,0.571
						c0.637,0.193,1.065,0.522,1.285,0.987c0.079,0.176,0.118,0.352,0.118,0.527c0,0.297-0.115,0.596-0.346,0.896
						c-0.367,0.48-0.936,0.76-1.706,0.838c-0.167,0.02-0.332,0.029-0.495,0.029c-0.576,0-1.11-0.111-1.604-0.334
						C120.352,61.919,120.032,61.327,120.021,60.429z"/>
					<path fill="#FFFFFF" d="M134.571,54.218c-0.031,1.32-0.047,2.705-0.047,4.154c0,1.32,0.013,2.695,0.039,4.125l-1.863,0.006
						l-0.062-0.896c-0.388,0.434-0.904,0.65-1.549,0.65c-1.608,0-2.413-0.918-2.413-2.754c0-0.039,0.003-0.078,0.008-0.117
						c0.031-1.84,0.828-2.76,2.39-2.76c0.063,0,0.129,0.002,0.196,0.006c0.535,0.023,0.967,0.24,1.298,0.65
						c0-0.867-0.029-1.889-0.087-3.064H134.571z M132.606,60.405l-0.039-2.027c-0.305-0.309-0.616-0.463-0.936-0.463
						c-0.132,0-0.263,0.025-0.394,0.076c-0.414,0.16-0.621,0.609-0.621,1.348c0,0.086,0.003,0.174,0.008,0.264
						c0.053,0.895,0.32,1.367,0.802,1.418c0.048,0.004,0.095,0.006,0.142,0.006C131.988,61.026,132.334,60.819,132.606,60.405z"/>
					<path fill="#FFFFFF" d="M137.747,56.491c1.818,0,2.728,0.9,2.728,2.701c0,0.219-0.014,0.453-0.039,0.703h-3.514
						c0,1.004,0.259,1.506,0.778,1.506h0.055c0.456-0.027,0.684-0.287,0.684-0.779c0-0.105-0.011-0.223-0.031-0.352l1.871-0.029
						c0,1.488-0.873,2.242-2.618,2.262c-0.021,0.004-0.039,0.006-0.055,0.006c-1.661,0-2.492-0.939-2.492-2.818v-0.176
						C135.166,57.499,136.044,56.491,137.747,56.491z M136.733,58.817h1.776v-0.141c0-0.711-0.271-1.066-0.81-1.066
						C137.118,57.61,136.796,58.013,136.733,58.817z"/>
					<path fill="#FFFFFF" d="M143.54,62.274c0.985-3.336,1.781-6.164,2.39-8.484l2.947-0.035c0.724,2.414,1.552,5.164,2.484,8.25
						l-2.013,0.305l-0.637-2.221h-2.444l-0.66,2.396L143.54,62.274z M148.649,58.442c-0.272-0.844-0.718-1.854-1.336-3.029
						c-0.478,0.988-0.881,2.012-1.211,3.07L148.649,58.442z"/>
					<path fill="#FFFFFF" d="M152.854,54.622l1.784-0.088v1.939l1.502-0.029l0.023,1.107l-1.525,0.053v2.666
						c0,0.621,0.354,0.932,1.062,0.932c0.146,0,0.307-0.014,0.479-0.041l-0.071,1.289c-0.251,0.023-0.489,0.035-0.715,0.035
						c-1.656,0-2.5-0.637-2.531-1.91V57.71l-1.289,0.059l-0.031-1.307l1.32,0.012L152.854,54.622z"/>
					<path fill="#FFFFFF" d="M159.371,56.491c1.818,0,2.728,0.9,2.728,2.701c0,0.219-0.014,0.453-0.039,0.703h-3.514
						c0,1.004,0.259,1.506,0.778,1.506h0.055c0.456-0.027,0.684-0.287,0.684-0.779c0-0.105-0.011-0.223-0.031-0.352l1.871-0.029
						c0,1.488-0.873,2.242-2.618,2.262c-0.021,0.004-0.039,0.006-0.055,0.006c-1.661,0-2.492-0.939-2.492-2.818v-0.176
						C156.79,57.499,157.668,56.491,159.371,56.491z M158.357,58.817h1.776v-0.141c0-0.711-0.271-1.066-0.81-1.066
						C158.742,57.61,158.42,58.013,158.357,58.817z"/>
					<path fill="#FFFFFF" d="M164.135,56.339l0.078,0.955c0.221-0.508,0.8-0.766,1.737-0.773h0.031c0.923,0,1.552,0.27,1.887,0.809
						c0.23,0.367,0.346,1.227,0.346,2.578c0,0.664-0.028,1.449-0.086,2.355h-1.902c0.068-1.207,0.103-2.143,0.103-2.807
						c0-0.332-0.008-0.598-0.024-0.797c-0.052-0.586-0.304-0.879-0.754-0.879c-0.451,0-0.734,0.156-0.849,0.469l0.078,4.248
						l-1.848,0.012c0-1.797-0.081-3.814-0.243-6.053L164.135,56.339z"/>
					<path fill="#FFFFFF" d="M172.082,60.095l1.871,0.088c0,1.41-0.873,2.125-2.618,2.145c-0.021,0.004-0.039,0.006-0.055,0.006
						c-1.661,0-2.492-0.939-2.492-2.818v-0.176c0.053-2.016,0.938-3.033,2.657-3.053h0.062c1.583,0,2.374,0.676,2.374,2.027
						c0,0.078-0.003,0.156-0.008,0.234l-1.689,0.094v-0.141c0-0.711-0.271-1.066-0.81-1.066c-0.551,0-0.826,0.576-0.826,1.729v0.193
						c0.032,1.246,0.31,1.869,0.834,1.869h0.047c0.456-0.027,0.684-0.287,0.684-0.779C172.113,60.341,172.103,60.224,172.082,60.095
						z"/>
					<path fill="#FFFFFF" d="M176.807,55.144c0,0.238-0.113,0.441-0.338,0.609c-0.226,0.168-0.498,0.252-0.818,0.252
						c-0.313,0-0.584-0.084-0.81-0.252c-0.225-0.168-0.338-0.371-0.338-0.609c0-0.234,0.113-0.436,0.338-0.604
						c0.226-0.168,0.496-0.252,0.81-0.252c0.32,0,0.593,0.084,0.818,0.252C176.693,54.708,176.807,54.909,176.807,55.144z
						 M174.7,62.538c-0.037-2.285-0.056-4.26-0.056-5.924l1.981-0.088c-0.063,1.594-0.095,3.178-0.095,4.752
						c0,0.422,0.003,0.842,0.008,1.26H174.7z"/>
					<path fill="#FFFFFF" d="M180.005,56.491c1.782,0,2.673,0.922,2.673,2.766c0,0.074-0.003,0.148-0.008,0.223
						c-0.073,1.996-1.022,3.004-2.846,3.023c-0.021,0.004-0.042,0.006-0.062,0.006c-1.734,0-2.603-0.943-2.603-2.83v-0.164
						C177.212,57.499,178.16,56.491,180.005,56.491z M179.746,57.827c-0.33,0.086-0.556,0.404-0.677,0.955
						c-0.073,0.328-0.109,0.658-0.109,0.99c0,0.223,0.016,0.447,0.047,0.674c0.084,0.562,0.354,0.854,0.81,0.873h0.055
						c0.425,0,0.716-0.209,0.873-0.627c0.131-0.348,0.196-0.76,0.196-1.236c0-0.117-0.003-0.236-0.008-0.357
						c-0.042-0.629-0.168-1.021-0.377-1.178c-0.132-0.094-0.289-0.141-0.472-0.141C179.979,57.78,179.866,57.796,179.746,57.827z
						 M178.983,55.349c0.613-0.543,1.116-1.061,1.509-1.553l1.289,0.762c-0.556,0.406-1.174,0.904-1.854,1.494L178.983,55.349z"/>
					<path fill="#FFFFFF" d="M184.557,56.339l0.078,0.955c0.221-0.508,0.8-0.766,1.737-0.773h0.031c0.923,0,1.552,0.27,1.887,0.809
						c0.23,0.367,0.346,1.227,0.346,2.578c0,0.664-0.028,1.449-0.086,2.355h-1.902c0.068-1.207,0.103-2.143,0.103-2.807
						c0-0.332-0.008-0.598-0.024-0.797c-0.052-0.586-0.304-0.879-0.754-0.879c-0.451,0-0.734,0.156-0.849,0.469l0.078,4.248
						l-1.848,0.012c0-1.797-0.081-3.814-0.243-6.053L184.557,56.339z"/>
					<path fill="#FFFFFF" d="M192.347,62.333c0.031-1.027,0.047-2.078,0.047-3.152c0-1.648-0.037-3.355-0.11-5.121
						c0.896-0.094,1.688-0.141,2.374-0.141c1.08,0,1.892,0.117,2.437,0.352c0.844,0.363,1.266,1.107,1.266,2.232v0.193
						c-0.052,1.234-0.427,2.024-1.124,2.37c-0.696,0.346-1.556,0.53-2.578,0.554c-0.005,0.121-0.008,0.246-0.008,0.375
						c0,0.648,0.045,1.416,0.134,2.303L192.347,62.333z M194.358,55.419l0.056,2.865c0.975-0.039,1.546-0.299,1.713-0.779
						c0.079-0.219,0.118-0.443,0.118-0.674c0-0.27-0.053-0.547-0.157-0.832c-0.157-0.418-0.55-0.627-1.179-0.627
						C194.741,55.372,194.558,55.388,194.358,55.419z"/>
					<path fill="#FFFFFF" d="M199.035,60.429l1.801-0.064v0.076c0,0.602,0.248,0.906,0.746,0.914h0.031
						c0.482,0,0.724-0.174,0.724-0.521v-0.041c-0.021-0.383-0.497-0.691-1.427-0.926s-1.489-0.629-1.678-1.184
						c-0.068-0.195-0.103-0.383-0.103-0.562c0-0.328,0.112-0.633,0.338-0.914c0.346-0.43,0.87-0.676,1.572-0.738
						c0.188-0.016,0.372-0.023,0.55-0.023c0.467,0,0.878,0.061,1.234,0.182c0.487,0.168,0.825,0.408,1.014,0.721
						c0.126,0.215,0.188,0.453,0.188,0.715c0,0.125-0.013,0.254-0.039,0.387l-1.682,0.029c0.016-0.098,0.023-0.188,0.023-0.27
						c0-0.391-0.168-0.6-0.503-0.627c-0.037-0.004-0.073-0.006-0.11-0.006c-0.346,0-0.579,0.131-0.699,0.393
						c-0.042,0.09-0.063,0.172-0.063,0.246c0,0.184,0.115,0.342,0.346,0.475c0.325,0.188,0.807,0.378,1.442,0.571
						c0.637,0.193,1.065,0.522,1.285,0.987c0.079,0.176,0.118,0.352,0.118,0.527c0,0.297-0.115,0.596-0.346,0.896
						c-0.367,0.48-0.936,0.76-1.706,0.838c-0.167,0.02-0.332,0.029-0.495,0.029c-0.576,0-1.11-0.111-1.604-0.334
						C199.365,61.919,199.046,61.327,199.035,60.429z"/>
					<path fill="#FFFFFF" d="M206.912,55.144c0,0.238-0.113,0.441-0.338,0.609c-0.226,0.168-0.498,0.252-0.818,0.252
						c-0.313,0-0.584-0.084-0.81-0.252c-0.225-0.168-0.338-0.371-0.338-0.609c0-0.234,0.113-0.436,0.338-0.604
						c0.226-0.168,0.496-0.252,0.81-0.252c0.32,0,0.593,0.084,0.818,0.252C206.799,54.708,206.912,54.909,206.912,55.144z
						 M204.806,62.538c-0.037-2.285-0.056-4.26-0.056-5.924l1.981-0.088c-0.063,1.594-0.095,3.178-0.095,4.752
						c0,0.422,0.003,0.842,0.008,1.26H204.806z"/>
					<path fill="#FFFFFF" d="M210.559,60.095l1.871,0.088c0,1.41-0.873,2.125-2.618,2.145c-0.021,0.004-0.039,0.006-0.055,0.006
						c-1.661,0-2.492-0.939-2.492-2.818v-0.176c0.053-2.016,0.938-3.033,2.657-3.053h0.062c1.583,0,2.374,0.676,2.374,2.027
						c0,0.078-0.003,0.156-0.008,0.234l-1.689,0.094v-0.141c0-0.711-0.271-1.066-0.81-1.066c-0.551,0-0.826,0.576-0.826,1.729v0.193
						c0.032,1.246,0.31,1.869,0.834,1.869h0.047c0.456-0.027,0.684-0.287,0.684-0.779C210.59,60.341,210.579,60.224,210.559,60.095z
						"/>
					<path fill="#FFFFFF" d="M215.849,56.491c1.782,0,2.673,0.922,2.673,2.766c0,0.074-0.003,0.148-0.008,0.223
						c-0.073,1.996-1.022,3.004-2.846,3.023c-0.021,0.004-0.042,0.006-0.062,0.006c-1.734,0-2.603-0.943-2.603-2.83v-0.164
						C213.056,57.499,214.004,56.491,215.849,56.491z M215.59,57.827c-0.33,0.086-0.556,0.404-0.677,0.955
						c-0.073,0.328-0.109,0.658-0.109,0.99c0,0.223,0.016,0.447,0.047,0.674c0.084,0.562,0.354,0.854,0.81,0.873h0.055
						c0.425,0,0.716-0.209,0.873-0.627c0.131-0.348,0.196-0.76,0.196-1.236c0-0.117-0.003-0.236-0.008-0.357
						c-0.042-0.629-0.168-1.021-0.377-1.178c-0.132-0.094-0.289-0.141-0.472-0.141C215.822,57.78,215.71,57.796,215.59,57.827z"/>
					<path fill="#FFFFFF" d="M218.859,60.429l1.801-0.064v0.076c0,0.602,0.248,0.906,0.746,0.914h0.031
						c0.482,0,0.724-0.174,0.724-0.521v-0.041c-0.021-0.383-0.497-0.691-1.427-0.926s-1.489-0.629-1.678-1.184
						c-0.068-0.195-0.103-0.383-0.103-0.562c0-0.328,0.112-0.633,0.338-0.914c0.346-0.43,0.87-0.676,1.572-0.738
						c0.188-0.016,0.372-0.023,0.55-0.023c0.467,0,0.878,0.061,1.234,0.182c0.487,0.168,0.825,0.408,1.014,0.721
						c0.126,0.215,0.188,0.453,0.188,0.715c0,0.125-0.013,0.254-0.039,0.387l-1.682,0.029c0.016-0.098,0.023-0.188,0.023-0.27
						c0-0.391-0.168-0.6-0.503-0.627c-0.037-0.004-0.073-0.006-0.11-0.006c-0.346,0-0.579,0.131-0.699,0.393
						c-0.042,0.09-0.063,0.172-0.063,0.246c0,0.184,0.115,0.342,0.346,0.475c0.325,0.188,0.807,0.378,1.442,0.571
						c0.637,0.193,1.065,0.522,1.285,0.987c0.079,0.176,0.118,0.352,0.118,0.527c0,0.297-0.115,0.596-0.346,0.896
						c-0.367,0.48-0.936,0.76-1.706,0.838c-0.167,0.02-0.332,0.029-0.495,0.029c-0.576,0-1.11-0.111-1.604-0.334
						C219.189,61.919,218.87,61.327,218.859,60.429z"/>
					<path fill="#FFFFFF" d="M227.302,56.491c1.782,0,2.673,0.922,2.673,2.766c0,0.074-0.003,0.148-0.008,0.223
						c-0.073,1.996-1.022,3.004-2.846,3.023c-0.021,0.004-0.042,0.006-0.062,0.006c-1.734,0-2.603-0.943-2.603-2.83v-0.164
						C224.509,57.499,225.457,56.491,227.302,56.491z M227.043,57.827c-0.33,0.086-0.556,0.404-0.677,0.955
						c-0.073,0.328-0.109,0.658-0.109,0.99c0,0.223,0.016,0.447,0.047,0.674c0.084,0.562,0.354,0.854,0.81,0.873h0.055
						c0.425,0,0.716-0.209,0.873-0.627c0.131-0.348,0.196-0.76,0.196-1.236c0-0.117-0.003-0.236-0.008-0.357
						c-0.042-0.629-0.168-1.021-0.377-1.178c-0.132-0.094-0.289-0.141-0.472-0.141C227.275,57.78,227.163,57.796,227.043,57.827z"/>
					<path fill="#FFFFFF" d="M233.622,60.095l1.871,0.088c0,1.41-0.873,2.125-2.618,2.145c-0.021,0.004-0.039,0.006-0.055,0.006
						c-1.661,0-2.492-0.939-2.492-2.818v-0.176c0.053-2.016,0.938-3.033,2.657-3.053h0.062c1.583,0,2.374,0.676,2.374,2.027
						c0,0.078-0.003,0.156-0.008,0.234l-1.689,0.094v-0.141c0-0.711-0.271-1.066-0.81-1.066c-0.551,0-0.826,0.576-0.826,1.729v0.193
						c0.032,1.246,0.31,1.869,0.834,1.869h0.047c0.456-0.027,0.684-0.287,0.684-0.779C233.653,60.341,233.643,60.224,233.622,60.095
						z"/>
					<path fill="#FFFFFF" d="M238.347,55.144c0,0.238-0.113,0.441-0.338,0.609c-0.226,0.168-0.498,0.252-0.818,0.252
						c-0.313,0-0.584-0.084-0.81-0.252c-0.225-0.168-0.338-0.371-0.338-0.609c0-0.234,0.113-0.436,0.338-0.604
						c0.226-0.168,0.496-0.252,0.81-0.252c0.32,0,0.593,0.084,0.818,0.252C238.233,54.708,238.347,54.909,238.347,55.144z
						 M236.24,62.538c-0.037-2.285-0.056-4.26-0.056-5.924l1.981-0.088c-0.063,1.594-0.095,3.178-0.095,4.752
						c0,0.422,0.003,0.842,0.008,1.26H236.24z"/>
					<path fill="#FFFFFF" d="M241.82,56.321c1.724,0.07,2.586,0.717,2.586,1.939v4.16l-1.831,0.023l-0.063-0.557
						c-0.377,0.32-0.878,0.48-1.501,0.48c-0.268,0-0.556-0.031-0.865-0.094c-0.927-0.172-1.391-0.707-1.391-1.605
						c0-0.109,0.008-0.227,0.023-0.352c0.104-0.926,0.987-1.389,2.648-1.389c0.32,0,0.671,0.018,1.054,0.053v-0.68
						c0-0.551-0.233-0.826-0.699-0.826h-0.032c-0.036-0.004-0.07-0.006-0.102-0.006c-0.509,0-0.763,0.309-0.763,0.926v0.088
						l-1.871-0.117c0-1.363,0.881-2.045,2.642-2.045H241.82z M242.48,60.95v-1.031c-0.226-0.035-0.43-0.053-0.613-0.053
						c-0.477,0-0.802,0.119-0.975,0.357c-0.104,0.145-0.157,0.279-0.157,0.404c0,0.156,0.084,0.295,0.252,0.416
						c0.131,0.094,0.301,0.141,0.511,0.141C241.766,61.185,242.093,61.106,242.48,60.95z"/>
					<path fill="#FFFFFF" d="M247.244,62.409l-1.957,0.135c0.021-1.293,0.031-2.537,0.031-3.732c0-1.68-0.021-3.264-0.063-4.752
						l1.926-0.023c-0.021,0.957-0.031,1.939-0.031,2.947C247.149,58.722,247.181,60.53,247.244,62.409z"/>
				</g>
			</g>
			<g id="OB1yQF_28_">
				<g>
					<path fill-rule="evenodd" clip-rule="evenodd" fill="#FFFFFF" d="M340.05,66.812c-0.69,0.129-1.398,0.259-2.106,0.389
						c-4.404,0.799-8.805,1.597-13.207,2.401c-0.182,0.035-0.368,0.106-0.53,0.202c-4.377,2.609-8.753,5.223-13.128,7.835
						c-0.091,0.056-0.186,0.104-0.276,0.158c1.286-11.395,2.569-22.774,3.851-34.12C323.098,51.37,331.567,59.087,340.05,66.812z"/>
					<path fill-rule="evenodd" clip-rule="evenodd" fill="#FFFFFF" d="M328.707,53.627c-0.763-0.699-1.507-1.381-2.237-2.049
						c0.312-0.582,0.643-1.121,0.904-1.692c2.77-6.051,1.054-13.033-4.276-17.011c-6.292-4.695-14.967-3.336-19.464,2.852
						c-2.688,3.699-3.445,7.805-2.192,12.215c0.883,3.111,2.718,5.584,5.367,7.439c1.211,0.848,2.523,1.484,3.938,1.902
						c0.197,0.059,0.277,0.132,0.247,0.361c-0.124,0.934-0.219,1.868-0.327,2.805c-5.098-1.174-11.292-5.519-12.648-13.918
						c-1.245-7.705,3.076-15.273,10.264-18.184c7.407-2.998,15.759-0.602,20.335,5.873
						C333.367,40.943,332.103,48.857,328.707,53.627z"/>
					<path fill-rule="evenodd" clip-rule="evenodd" fill="#FFFFFF" d="M323.246,48.641c-0.749-0.692-1.482-1.365-2.206-2.049
						c-0.057-0.051-0.087-0.197-0.057-0.272c1.107-3.049-0.018-6.287-2.776-7.973c-3.039-1.854-7.045-0.949-9.011,2.037
						c-1.908,2.904-1.138,6.971,1.707,9.002c0.23,0.164,0.482,0.298,0.71,0.467c0.079,0.056,0.17,0.181,0.161,0.267
						c-0.1,0.953-0.219,1.906-0.334,2.858c-0.005,0.032-0.023,0.065-0.037,0.099c-3.13-1.119-6.222-4.339-6.31-8.855
						c-0.084-4.374,2.707-8.137,6.594-9.408c4.295-1.406,8.765,0.178,11.184,3.858C325.245,42.283,324.627,46.447,323.246,48.641z"
						/>
				</g>
			</g>
		</g>
		<g>
			<path fill="#DC9B2F" d="M133.191,19.432c0.062-2.006,0.093-4.059,0.093-6.156c0-3.22-0.072-6.554-0.215-10.003
				c1.75-0.183,3.295-0.274,4.636-0.274c2.108,0,3.695,0.229,4.76,0.687c1.647,0.71,2.472,2.163,2.472,4.36v0.378
				c-0.103,2.411-0.835,3.954-2.195,4.629c-1.361,0.676-3.04,1.036-5.036,1.082c-0.01,0.236-0.015,0.48-0.015,0.732
				c0,1.266,0.086,2.766,0.261,4.497L133.191,19.432z M137.122,5.928l0.107,5.597c1.903-0.076,3.019-0.584,3.347-1.522
				c0.153-0.427,0.23-0.866,0.23-1.315c0-0.527-0.103-1.068-0.308-1.626c-0.307-0.815-1.074-1.224-2.303-1.224
				C137.869,5.837,137.511,5.867,137.122,5.928z"/>
			<path fill="#DC9B2F" d="M145.55,19.317c1.924-6.516,3.479-12.039,4.667-16.57l5.757-0.069c1.413,4.715,3.03,10.086,4.852,16.113
				l-3.93,0.595l-1.244-4.337h-4.774l-1.289,4.681L145.55,19.317z M155.528,11.833c-0.532-1.647-1.402-3.62-2.609-5.916
				c-0.932,1.93-1.72,3.929-2.364,5.996L155.528,11.833z"/>
			<path fill="#DC9B2F" d="M161.362,13.378l4.561-0.229c-0.062,0.473-0.093,0.9-0.093,1.281c0,1.732,0.578,2.598,1.735,2.598h0.062
				c1.401-0.03,2.103-0.587,2.103-1.67v-0.104c-0.051-1.152-1.376-2.281-3.976-3.388c-2.528-1.067-3.792-2.83-3.792-5.287
				c0-0.076,0.005-0.152,0.015-0.229c0.072-2.571,2.006-3.88,5.804-3.926h0.122c3.429,0,5.144,1.629,5.144,4.887
				c0,0.26-0.011,0.534-0.031,0.824l-4.007,0.172c0.041-0.344,0.062-0.66,0.062-0.95c0-1.365-0.445-2.049-1.335-2.049
				c-1.075,0-1.664,0.408-1.766,1.225c-0.011,0.115-0.016,0.229-0.016,0.344c0,0.679,0.271,1.312,0.813,1.899
				c0.624,0.68,1.696,1.301,3.217,1.865c1.52,0.565,2.581,1.339,3.186,2.323c0.43,0.71,0.645,1.465,0.645,2.267
				c0,0.305-0.03,0.617-0.092,0.938c-0.236,1.151-0.891,2.107-1.966,2.866c-1.074,0.759-2.518,1.173-4.329,1.242
				c-0.123,0.007-0.245,0.011-0.368,0.011c-1.648,0-3.024-0.45-4.13-1.35c-1.064-0.862-1.597-2.431-1.597-4.704
				C161.332,13.962,161.342,13.676,161.362,13.378z"/>
			<path fill="#DC9B2F" d="M182.303,2.907c4.31,0,6.464,2.746,6.464,8.239c0,5.501-2.309,8.251-6.924,8.251
				c-4.616,0-6.924-2.85-6.924-8.549C174.919,5.555,177.38,2.907,182.303,2.907z M179.232,11.455
				c-0.01,0.199-0.015,0.39-0.015,0.572c0,2.877,0.9,4.314,2.701,4.314c1.914,0,2.871-1.629,2.871-4.887
				c0-3.257-0.891-4.886-2.671-4.886C180.328,6.569,179.365,8.198,179.232,11.455z"/>
			<path fill="#DC9B2F" d="M203.474,2.998c-0.071,3.602-0.107,7.184-0.107,10.746c0,1.785,0.011,3.567,0.031,5.345l-3.808,0.148
				c-0.071-4.585-0.159-8.831-0.261-12.737c-0.86,0.13-2.026,0.45-3.501,0.962l-0.736-2.507l4.268-2.014L203.474,2.998z"/>
		</g>
	</g>
	<g>
		<g>
			<path fill="#5D9CD1" d="M703.016,76.326c0,4.15-3.365,7.516-7.516,7.516H369.186c-4.15,0-7.516-3.365-7.516-7.516V29.994
				c0-4.152,3.365-7.516,7.516-7.516H695.5c4.15,0,7.516,3.363,7.516,7.516V76.326z"/>
			<g>
				<g>
					<path fill="#FFFFFF" d="M375.043,59.345c2.004-6.786,3.625-12.539,4.861-17.26l5.997-0.071
						c1.471,4.911,3.155,10.505,5.053,16.783l-4.094,0.62l-1.295-4.518h-4.974l-1.343,4.875L375.043,59.345z M385.438,51.55
						c-0.555-1.717-1.461-3.771-2.719-6.163c-0.97,2.011-1.791,4.093-2.463,6.246L385.438,51.55z"/>
					<path fill="#FFFFFF" d="M391.417,64.578c0.064-2.679,0.096-5.526,0.096-8.547c0-2.749-0.026-5.634-0.079-8.653l3.789-0.013
						l0.128,1.836c0.789-0.89,1.839-1.335,3.15-1.335c3.272,0,4.909,1.927,4.909,5.781v0.238c-0.074,3.862-1.706,5.793-4.894,5.793
						c-0.128,0-0.255-0.004-0.383-0.012c-1.088-0.04-1.968-0.48-2.639-1.323c0,1.765,0.059,3.843,0.176,6.234H391.417z
						 M395.415,51.645l0.08,4.482c0.618,0.628,1.241,0.941,1.871,0.941c0.256,0,0.512-0.056,0.768-0.167
						c0.777-0.317,1.167-1.268,1.167-2.849c0-0.19-0.006-0.39-0.017-0.596c-0.106-1.939-0.623-2.96-1.551-3.063
						c-0.096-0.008-0.187-0.012-0.271-0.012C396.651,50.382,395.969,50.803,395.415,51.645z"/>
					<path fill="#FFFFFF" d="M409.167,59.619l-3.981,0.274c0.042-2.63,0.063-5.161,0.063-7.593c0-3.417-0.042-6.64-0.128-9.667
						l3.918-0.048c-0.043,1.946-0.063,3.945-0.063,5.995C408.976,52.118,409.039,55.797,409.167,59.619z"/>
					<path fill="#FFFFFF" d="M415.02,44.839c0,0.484-0.229,0.897-0.688,1.239c-0.459,0.342-1.013,0.513-1.663,0.513
						c-0.64,0-1.189-0.171-1.647-0.513s-0.688-0.755-0.688-1.239c0-0.478,0.229-0.887,0.688-1.229
						c0.458-0.341,1.008-0.512,1.647-0.512c0.65,0,1.204,0.171,1.663,0.512C414.79,43.952,415.02,44.361,415.02,44.839z
						 M410.733,59.882c-0.074-4.649-0.111-8.666-0.111-12.052l4.029-0.179c-0.128,3.242-0.191,6.465-0.191,9.667
						c0,0.858,0.005,1.713,0.016,2.563H410.733z"/>
					<path fill="#FFFFFF" d="M423.974,65.174c0.011-2.551,0.016-4.708,0.016-6.473c-0.618,0.843-1.737,1.284-3.357,1.323
						c-3.124,0-4.691-2.026-4.701-6.079c-0.011-0.016-0.017-0.031-0.017-0.048c0-4.021,1.877-6.031,5.629-6.031
						c1.098,0,2.041,0.445,2.83,1.335l0.128-1.836l3.471,0.013c-0.054,3.139-0.08,6.11-0.08,8.916c0,3.083,0.032,5.964,0.096,8.642
						L423.974,65.174z M423.989,56.484v-4.84c-0.522-0.786-1.183-1.18-1.982-1.18c-0.16,0-0.325,0.016-0.496,0.048
						c-1.034,0.183-1.604,1.243-1.711,3.183c-0.011,0.206-0.016,0.405-0.016,0.596c0,1.581,0.395,2.551,1.184,2.908
						c0.266,0.128,0.549,0.191,0.848,0.191C422.476,57.391,423.2,57.089,423.989,56.484z"/>
					<path fill="#FFFFFF" d="M437.55,59.822l-0.159-1.943c-0.448,1.033-1.653,1.554-3.614,1.562
						c-0.021,0.008-0.037,0.012-0.048,0.012c-1.94,0-3.225-0.651-3.854-1.955c-0.427-0.865-0.64-2.658-0.64-5.375
						c0-1.398,0.058-3.048,0.176-4.947h3.886c-0.214,2.67-0.32,4.725-0.32,6.163c0,0.723,0.026,1.287,0.08,1.692
						c0.16,1.239,0.698,1.859,1.615,1.859s1.492-0.322,1.727-0.966l-0.159-8.272l3.758-0.023c0,3.417,0.165,7.398,0.495,11.943
						L437.55,59.822z"/>
					<path fill="#FFFFFF" d="M447.017,47.58c3.699,0,5.549,1.832,5.549,5.495c0,0.445-0.027,0.922-0.08,1.431h-7.148
						c0,2.042,0.528,3.063,1.583,3.063h0.112c0.928-0.056,1.392-0.584,1.392-1.586c0-0.214-0.021-0.453-0.064-0.715l3.806-0.06
						c0,3.027-1.774,4.562-5.324,4.601c-0.043,0.009-0.08,0.013-0.112,0.013c-3.38,0-5.069-1.911-5.069-5.733V53.73
						C441.766,49.63,443.552,47.58,447.017,47.58z M444.953,52.312h3.614v-0.286c0-1.446-0.549-2.17-1.647-2.17
						C445.737,49.856,445.081,50.676,444.953,52.312z"/>
					<path fill="#FFFFFF" d="M456.339,47.33l0.064,1.907c0.575-0.914,1.241-1.482,1.999-1.705c0.447-0.127,0.9-0.19,1.358-0.19
						c0.342,0,0.683,0.032,1.023,0.095c0.832,0.16,1.424,0.795,1.775,1.908c0.277-0.866,0.757-1.444,1.439-1.734
						c0.682-0.29,1.438-0.439,2.271-0.447h0.063c0.811,0,1.589,0.146,2.335,0.441c0.757,0.302,1.335,0.868,1.735,1.698
						c0.399,0.83,0.609,1.969,0.631,3.415v6.926l-3.453,0.06c0.138-2.614,0.207-4.84,0.207-6.676c0-1.835-0.469-2.825-1.407-2.968
						c-0.139-0.016-0.271-0.023-0.399-0.023c-0.746,0-1.322,0.357-1.727,1.072c-0.064,0.826-0.097,1.792-0.097,2.896
						c0,1.502,0.059,3.254,0.177,5.257l-3.998,0.023c0.149-3.075,0.224-5.315,0.224-6.723V52.42
						c-0.011-1.391-0.378-2.122-1.104-2.193h-0.208c-0.65,0-1.279,0.278-1.887,0.834l0.032,8.726l-3.773,0.107v-1.955
						c0-3.465-0.07-6.926-0.208-10.382L456.339,47.33z"/>
					<path fill="#FFFFFF" d="M477.623,47.58c3.624,0,5.437,1.876,5.437,5.626c0,0.151-0.006,0.303-0.016,0.453
						c-0.149,4.061-2.079,6.111-5.789,6.15c-0.043,0.009-0.085,0.013-0.128,0.013c-3.528,0-5.293-1.919-5.293-5.758V53.73
						C471.94,49.63,473.87,47.58,477.623,47.58z M477.095,50.298c-0.671,0.175-1.13,0.822-1.375,1.943
						c-0.149,0.667-0.224,1.339-0.224,2.014c0,0.453,0.032,0.91,0.096,1.371c0.171,1.145,0.72,1.736,1.647,1.776h0.111
						c0.864,0,1.456-0.425,1.775-1.275c0.267-0.707,0.399-1.546,0.399-2.516c0-0.238-0.005-0.48-0.016-0.727
						c-0.086-1.279-0.342-2.078-0.768-2.396c-0.267-0.19-0.586-0.286-0.959-0.286C477.569,50.202,477.34,50.234,477.095,50.298z"/>
					<path fill="#FFFFFF" d="M483.747,55.591l3.662-0.132v0.155c0,1.224,0.507,1.844,1.52,1.859h0.063
						c0.981,0,1.472-0.354,1.472-1.061v-0.084c-0.043-0.778-1.011-1.406-2.902-1.883c-1.893-0.477-3.03-1.279-3.414-2.408
						c-0.139-0.397-0.208-0.778-0.208-1.145c0-0.667,0.229-1.287,0.688-1.859c0.704-0.874,1.77-1.375,3.198-1.502
						c0.384-0.031,0.757-0.048,1.119-0.048c0.949,0,1.786,0.124,2.511,0.37c0.991,0.342,1.679,0.83,2.062,1.466
						c0.256,0.438,0.384,0.922,0.384,1.454c0,0.255-0.026,0.517-0.08,0.787l-3.422,0.06c0.032-0.198,0.048-0.382,0.048-0.549
						c0-0.794-0.341-1.22-1.023-1.275c-0.074-0.008-0.149-0.012-0.224-0.012c-0.703,0-1.178,0.267-1.423,0.799
						c-0.086,0.183-0.128,0.35-0.128,0.501c0,0.373,0.234,0.695,0.703,0.965c0.661,0.382,1.64,0.77,2.935,1.162
						c1.295,0.394,2.167,1.063,2.614,2.009c0.16,0.357,0.24,0.716,0.24,1.073c0,0.604-0.234,1.212-0.704,1.823
						c-0.746,0.978-1.902,1.546-3.47,1.705c-0.341,0.04-0.677,0.06-1.007,0.06c-1.173,0-2.261-0.227-3.263-0.68
						C484.419,58.622,483.769,57.418,483.747,55.591z"/>
					<path fill="#FFFFFF" d="M505.751,59.619l-3.981,0.274c0.042-2.63,0.063-5.161,0.063-7.593c0-3.417-0.042-6.64-0.128-9.667
						l3.918-0.048c-0.043,1.946-0.063,3.945-0.063,5.995C505.56,52.118,505.623,55.797,505.751,59.619z"/>
					<path fill="#FFFFFF" d="M512.755,47.58c3.624,0,5.437,1.876,5.437,5.626c0,0.151-0.006,0.303-0.016,0.453
						c-0.149,4.061-2.079,6.111-5.789,6.15c-0.043,0.009-0.085,0.013-0.128,0.013c-3.528,0-5.293-1.919-5.293-5.758V53.73
						C507.072,49.63,509.002,47.58,512.755,47.58z M512.227,50.298c-0.671,0.175-1.13,0.822-1.375,1.943
						c-0.149,0.667-0.224,1.339-0.224,2.014c0,0.453,0.032,0.91,0.096,1.371c0.171,1.145,0.72,1.736,1.647,1.776h0.111
						c0.864,0,1.456-0.425,1.775-1.275c0.267-0.707,0.399-1.546,0.399-2.516c0-0.238-0.005-0.48-0.016-0.727
						c-0.086-1.279-0.342-2.078-0.768-2.396c-0.267-0.19-0.586-0.286-0.959-0.286C512.701,50.202,512.472,50.234,512.227,50.298z"/>
					<path fill="#FFFFFF" d="M531.225,47.234c3.507,0.144,5.261,1.458,5.261,3.945v8.464l-3.726,0.047l-0.128-1.132
						c-0.768,0.651-1.786,0.978-3.055,0.978c-0.543,0-1.13-0.063-1.759-0.191c-1.887-0.35-2.83-1.438-2.83-3.266
						c0-0.223,0.016-0.461,0.048-0.715c0.213-1.884,2.01-2.825,5.389-2.825c0.65,0,1.364,0.035,2.143,0.107v-1.383
						c0-1.121-0.475-1.681-1.423-1.681h-0.063c-0.075-0.008-0.145-0.012-0.208-0.012c-1.034,0-1.552,0.627-1.552,1.883v0.179
						l-3.806-0.238c0-2.773,1.791-4.16,5.373-4.16H531.225z M532.567,56.651v-2.098c-0.458-0.072-0.874-0.107-1.247-0.107
						c-0.97,0-1.631,0.242-1.982,0.727c-0.214,0.295-0.32,0.568-0.32,0.822c0,0.318,0.171,0.601,0.512,0.847
						c0.267,0.19,0.613,0.286,1.04,0.286C531.112,57.128,531.778,56.969,532.567,56.651z"/>
					<path fill="#FFFFFF" d="M537.86,64.578c0.064-2.679,0.096-5.526,0.096-8.547c0-2.749-0.026-5.634-0.079-8.653l3.789-0.013
						l0.128,1.836c0.789-0.89,1.839-1.335,3.15-1.335c3.272,0,4.909,1.927,4.909,5.781v0.238c-0.074,3.862-1.706,5.793-4.894,5.793
						c-0.128,0-0.255-0.004-0.383-0.012c-1.088-0.04-1.968-0.48-2.639-1.323c0,1.765,0.059,3.843,0.176,6.234H537.86z
						 M541.858,51.645l0.08,4.482c0.618,0.628,1.241,0.941,1.871,0.941c0.256,0,0.512-0.056,0.768-0.167
						c0.777-0.317,1.167-1.268,1.167-2.849c0-0.19-0.006-0.39-0.017-0.596c-0.106-1.939-0.623-2.96-1.551-3.063
						c-0.096-0.008-0.187-0.012-0.271-0.012C543.095,50.382,542.412,50.803,541.858,51.645z"/>
					<path fill="#FFFFFF" d="M555.371,51.275l0.159,8.642l-3.917,0.024c0-3.655-0.166-7.76-0.496-12.313l2.942-0.238l0.16,1.942
						c0.447-0.953,1.492-1.497,3.134-1.633c0.245-0.016,0.479-0.023,0.704-0.023c1.289,0,2.271,0.313,2.941,0.941
						c0.778,0.747,1.173,1.935,1.184,3.564l-3.55,0.262c0.011-0.135,0.016-0.266,0.016-0.394c0-1.271-0.442-1.907-1.327-1.907
						h-0.063C556.234,50.183,555.605,50.56,555.371,51.275z"/>
					<path fill="#FFFFFF" d="M568.451,47.58c3.699,0,5.549,1.832,5.549,5.495c0,0.445-0.027,0.922-0.08,1.431h-7.148
						c0,2.042,0.528,3.063,1.583,3.063h0.112c0.928-0.056,1.392-0.584,1.392-1.586c0-0.214-0.021-0.453-0.064-0.715l3.806-0.06
						c0,3.027-1.774,4.562-5.324,4.601c-0.043,0.009-0.08,0.013-0.112,0.013c-3.38,0-5.069-1.911-5.069-5.733V53.73
						C563.2,49.63,564.986,47.58,568.451,47.58z M566.388,52.312h3.614v-0.286c0-1.446-0.549-2.17-1.647-2.17
						C567.172,49.856,566.516,50.676,566.388,52.312z"/>
					<path fill="#FFFFFF" d="M578.142,47.271l0.16,1.942c0.447-1.032,1.625-1.558,3.533-1.573h0.064
						c1.876,0,3.155,0.549,3.838,1.645c0.469,0.748,0.703,2.496,0.703,5.245c0,1.352-0.059,2.948-0.176,4.792h-3.87
						c0.139-2.455,0.208-4.358,0.208-5.71c0-0.675-0.016-1.216-0.048-1.621c-0.106-1.191-0.618-1.788-1.535-1.788
						s-1.492,0.318-1.727,0.954l0.16,8.642l-3.758,0.024c0-3.655-0.166-7.761-0.496-12.313L578.142,47.271z"/>
					<path fill="#FFFFFF" d="M599.856,42.955c-0.063,2.687-0.096,5.503-0.096,8.451c0,2.687,0.026,5.483,0.08,8.392l-3.79,0.012
						l-0.128-1.823c-0.789,0.882-1.839,1.323-3.15,1.323c-3.272,0-4.909-1.867-4.909-5.603c0-0.079,0.006-0.159,0.017-0.238
						c0.063-3.743,1.684-5.614,4.86-5.614c0.128,0,0.262,0.004,0.4,0.012c1.087,0.048,1.967,0.488,2.639,1.323
						c0-1.765-0.06-3.843-0.177-6.234H599.856z M595.858,55.543l-0.079-4.125c-0.619-0.627-1.253-0.941-1.903-0.941
						c-0.267,0-0.533,0.052-0.8,0.155c-0.842,0.326-1.263,1.239-1.263,2.741c0,0.175,0.005,0.354,0.016,0.536
						c0.106,1.82,0.65,2.782,1.631,2.885c0.097,0.008,0.192,0.012,0.288,0.012C594.601,56.806,595.305,56.385,595.858,55.543z"/>
					<path fill="#FFFFFF" d="M605.598,44.839c0,0.484-0.229,0.897-0.688,1.239c-0.459,0.342-1.013,0.513-1.663,0.513
						c-0.64,0-1.189-0.171-1.647-0.513s-0.688-0.755-0.688-1.239c0-0.478,0.229-0.887,0.688-1.229
						c0.458-0.341,1.008-0.512,1.647-0.512c0.65,0,1.204,0.171,1.663,0.512C605.368,43.952,605.598,44.361,605.598,44.839z
						 M601.312,59.882c-0.074-4.649-0.111-8.666-0.111-12.052l4.029-0.179c-0.128,3.242-0.191,6.465-0.191,9.667
						c0,0.858,0.005,1.713,0.016,2.563H601.312z"/>
					<path fill="#FFFFFF" d="M618.565,42.955c-0.063,2.687-0.096,5.503-0.096,8.451c0,2.687,0.026,5.483,0.08,8.392l-3.79,0.012
						l-0.128-1.823c-0.789,0.882-1.839,1.323-3.15,1.323c-3.272,0-4.909-1.867-4.909-5.603c0-0.079,0.006-0.159,0.017-0.238
						c0.063-3.743,1.684-5.614,4.86-5.614c0.128,0,0.262,0.004,0.4,0.012c1.087,0.048,1.967,0.488,2.639,1.323
						c0-1.765-0.06-3.843-0.177-6.234H618.565z M614.567,55.543l-0.079-4.125c-0.619-0.627-1.253-0.941-1.903-0.941
						c-0.267,0-0.533,0.052-0.8,0.155c-0.842,0.326-1.263,1.239-1.263,2.741c0,0.175,0.005,0.354,0.016,0.536
						c0.106,1.82,0.65,2.782,1.631,2.885c0.097,0.008,0.192,0.012,0.288,0.012C613.31,56.806,614.014,56.385,614.567,55.543z"/>
					<path fill="#FFFFFF" d="M625.458,47.58c3.624,0,5.437,1.876,5.437,5.626c0,0.151-0.006,0.303-0.016,0.453
						c-0.149,4.061-2.079,6.111-5.789,6.15c-0.043,0.009-0.085,0.013-0.128,0.013c-3.528,0-5.293-1.919-5.293-5.758V53.73
						C619.775,49.63,621.705,47.58,625.458,47.58z M624.93,50.298c-0.671,0.175-1.13,0.822-1.375,1.943
						c-0.149,0.667-0.224,1.339-0.224,2.014c0,0.453,0.032,0.91,0.096,1.371c0.171,1.145,0.72,1.736,1.647,1.776h0.111
						c0.864,0,1.456-0.425,1.775-1.275c0.267-0.707,0.399-1.546,0.399-2.516c0-0.238-0.005-0.48-0.016-0.727
						c-0.086-1.279-0.342-2.078-0.768-2.396c-0.267-0.19-0.586-0.286-0.959-0.286C625.404,50.202,625.175,50.234,624.93,50.298z"/>
					<path fill="#FFFFFF" d="M634.109,50.811c-0.64,0-1.189-0.171-1.647-0.513s-0.688-0.751-0.688-1.228
						c0-0.485,0.229-0.898,0.688-1.24c0.458-0.341,1.008-0.513,1.647-0.513c0.649,0,1.204,0.172,1.663,0.513
						c0.458,0.342,0.688,0.755,0.688,1.24c0,0.477-0.229,0.886-0.688,1.228C635.313,50.64,634.759,50.811,634.109,50.811z
						 M634.109,59.882c-0.64,0-1.189-0.171-1.647-0.513s-0.688-0.751-0.688-1.228c0-0.485,0.229-0.898,0.688-1.24
						s1.008-0.513,1.647-0.513c0.649,0,1.204,0.171,1.663,0.513c0.458,0.342,0.688,0.755,0.688,1.24
						c0,0.477-0.229,0.886-0.688,1.228C635.313,59.711,634.759,59.882,634.109,59.882z"/>
				</g>
			</g>
			<g id="OB1yQF_29_">
				<g>
					<path fill-rule="evenodd" clip-rule="evenodd" fill="#FFFFFF" d="M690.979,66.812c-0.69,0.129-1.398,0.259-2.106,0.389
						c-4.403,0.799-8.805,1.597-13.206,2.401c-0.183,0.035-0.369,0.106-0.531,0.202c-4.377,2.609-8.752,5.223-13.128,7.835
						c-0.091,0.056-0.186,0.104-0.276,0.158c1.287-11.395,2.57-22.774,3.852-34.12C674.025,51.37,682.496,59.087,690.979,66.812z"/>
					<path fill-rule="evenodd" clip-rule="evenodd" fill="#FFFFFF" d="M679.637,53.627c-0.764-0.699-1.508-1.381-2.238-2.049
						c0.312-0.582,0.643-1.121,0.904-1.692c2.77-6.051,1.055-13.033-4.277-17.011c-6.291-4.695-14.965-3.336-19.463,2.852
						c-2.688,3.699-3.445,7.805-2.193,12.215c0.884,3.111,2.719,5.584,5.369,7.439c1.211,0.848,2.521,1.484,3.938,1.902
						c0.196,0.059,0.276,0.132,0.246,0.361c-0.123,0.934-0.219,1.868-0.326,2.805c-5.098-1.174-11.293-5.519-12.65-13.918
						c-1.244-7.705,3.077-15.273,10.266-18.184c7.406-2.998,15.758-0.602,20.334,5.873
						C684.295,40.943,683.031,48.857,679.637,53.627z"/>
					<path fill-rule="evenodd" clip-rule="evenodd" fill="#FFFFFF" d="M674.176,48.641c-0.75-0.692-1.483-1.365-2.207-2.049
						c-0.057-0.051-0.086-0.197-0.057-0.272c1.107-3.049-0.018-6.287-2.777-7.973c-3.039-1.854-7.044-0.949-9.01,2.037
						c-1.908,2.904-1.139,6.971,1.707,9.002c0.23,0.164,0.482,0.298,0.711,0.467c0.078,0.056,0.168,0.181,0.16,0.267
						c-0.1,0.953-0.219,1.906-0.334,2.858c-0.004,0.032-0.023,0.065-0.037,0.099c-3.129-1.119-6.223-4.339-6.31-8.855
						c-0.084-4.374,2.706-8.137,6.594-9.408c4.294-1.406,8.765,0.178,11.183,3.858C676.174,42.283,675.556,46.447,674.176,48.641z"
						/>
				</g>
			</g>
		</g>
		<g>
			<path fill="#5D9CD1" d="M495.374,19.432c0.062-2.006,0.093-4.059,0.093-6.156c0-3.22-0.072-6.554-0.215-10.003
				c1.75-0.183,3.295-0.274,4.636-0.274c2.108,0,3.695,0.229,4.76,0.687c1.647,0.71,2.472,2.163,2.472,4.36v0.378
				c-0.103,2.411-0.835,3.954-2.195,4.629c-1.361,0.676-3.04,1.036-5.036,1.082c-0.01,0.236-0.015,0.48-0.015,0.732
				c0,1.266,0.086,2.766,0.261,4.497L495.374,19.432z M499.305,5.928l0.107,5.597c1.903-0.076,3.019-0.584,3.347-1.522
				c0.153-0.427,0.23-0.866,0.23-1.315c0-0.527-0.103-1.068-0.308-1.626c-0.307-0.815-1.074-1.224-2.303-1.224
				C500.052,5.837,499.693,5.867,499.305,5.928z"/>
			<path fill="#5D9CD1" d="M507.732,19.317c1.924-6.516,3.479-12.039,4.667-16.57l5.757-0.069c1.413,4.715,3.03,10.086,4.852,16.113
				l-3.93,0.595l-1.244-4.337h-4.774l-1.289,4.681L507.732,19.317z M517.711,11.833c-0.532-1.647-1.402-3.62-2.609-5.916
				c-0.932,1.93-1.72,3.929-2.364,5.996L517.711,11.833z"/>
			<path fill="#5D9CD1" d="M523.545,13.378l4.561-0.229c-0.062,0.473-0.093,0.9-0.093,1.281c0,1.732,0.578,2.598,1.735,2.598h0.062
				c1.401-0.03,2.103-0.587,2.103-1.67v-0.104c-0.051-1.152-1.376-2.281-3.976-3.388c-2.528-1.067-3.792-2.83-3.792-5.287
				c0-0.076,0.005-0.152,0.015-0.229c0.072-2.571,2.006-3.88,5.804-3.926h0.122c3.429,0,5.144,1.629,5.144,4.887
				c0,0.26-0.011,0.534-0.031,0.824l-4.007,0.172c0.041-0.344,0.062-0.66,0.062-0.95c0-1.365-0.445-2.049-1.335-2.049
				c-1.075,0-1.664,0.408-1.766,1.225c-0.011,0.115-0.016,0.229-0.016,0.344c0,0.679,0.271,1.312,0.813,1.899
				c0.624,0.68,1.696,1.301,3.217,1.865c1.52,0.565,2.581,1.339,3.186,2.323c0.43,0.71,0.645,1.465,0.645,2.267
				c0,0.305-0.03,0.617-0.092,0.938c-0.236,1.151-0.891,2.107-1.966,2.866c-1.074,0.759-2.518,1.173-4.329,1.242
				c-0.123,0.007-0.245,0.011-0.368,0.011c-1.648,0-3.024-0.45-4.13-1.35c-1.064-0.862-1.597-2.431-1.597-4.704
				C523.515,13.962,523.524,13.676,523.545,13.378z"/>
			<path fill="#5D9CD1" d="M544.485,2.907c4.31,0,6.464,2.746,6.464,8.239c0,5.501-2.309,8.251-6.924,8.251
				c-4.616,0-6.924-2.85-6.924-8.549C537.102,5.555,539.562,2.907,544.485,2.907z M541.415,11.455
				c-0.01,0.199-0.015,0.39-0.015,0.572c0,2.877,0.9,4.314,2.701,4.314c1.914,0,2.871-1.629,2.871-4.887
				c0-3.257-0.891-4.886-2.671-4.886C542.511,6.569,541.548,8.198,541.415,11.455z"/>
			<path fill="#5D9CD1" d="M558.149,8.309c-0.052-0.458-0.077-0.882-0.077-1.271c0-1.365,0.333-2.35,0.998-2.953
				c0.85-0.77,1.935-1.231,3.255-1.384c0.471-0.054,0.931-0.081,1.382-0.081c0.809,0,1.586,0.085,2.333,0.252
				c1.167,0.268,2.047,0.794,2.641,1.58c0.481,0.656,0.722,1.495,0.722,2.518c0,0.198-0.005,0.408-0.016,0.629
				c-0.122,1.312-0.652,2.52-1.589,3.622s-2.556,2.68-4.858,4.732l6.709,0.034l-0.046,2.873c-2.938,0.099-6.725,0.148-11.361,0.148
				l-0.353-3.124c2.783-2.243,4.769-3.968,5.956-5.173c1.085-1.106,1.628-2.193,1.628-3.262V7.164
				c-0.113-1.145-0.758-1.717-1.935-1.717h-0.062c-1.023,0.022-1.535,0.718-1.535,2.083c0,0.26,0.016,0.538,0.046,0.835
				L558.149,8.309z"/>
		</g>
	</g>
</g>
</svg>
