<?xml version="1.0" encoding="utf-8"?>
<!-- Generator: Adobe Illustrator 16.0.0, SVG Export Plug-In . SVG Version: 6.00 Build 0)  -->
<!DOCTYPE svg PUBLIC "-//W3C//DTD SVG 1.1//EN" "http://www.w3.org/Graphics/SVG/1.1/DTD/svg11.dtd">
<svg version="1.1" id="Capa_1" xmlns="http://www.w3.org/2000/svg" xmlns:xlink="http://www.w3.org/1999/xlink" x="0px" y="0px"
	 width="303.881px" height="448.487px" viewBox="0 0 303.881 448.487" enable-background="new 0 0 303.881 448.487"
	 xml:space="preserve">
<g>
	<g>
		<path fill="#090605" d="M177.343,279.491c13.701-2.296,10.547-16.076,23.596-11.318c16.494,6.019,35.799,8.697,52.409,3.01
			c16.616-5.684,30.427-21.938,28.868-39.427c-0.875-9.832-5.82-34.483-21.156-49.974c-14.76-14.912-11.774-33.374-13.885-54.246
			c-1.441-14.284-0.096-29.692-7.598-41.93c-5.367-8.751-14.598-14.507-24.22-18.085c-22.794-8.476-48.688-6.071-71.227,3.061
			c-22.541,9.127-42.05,24.526-59.234,41.738c-7.819,7.831-15.306,16.189-20.448,25.991c-5.142,9.804-7.789,21.252-5.473,32.074
			c3.605,16.837,18.645,30.733,17.793,47.933c-0.282,5.727-2.375,11.379-1.613,17.06c1.382,10.324,12.092,17.334,22.479,18.115
			c10.385,0.784,26.125,29.852,35.801,25.998"/>
		<g>
			<path fill="#090605" d="M44.499,217.737c-0.053-0.036-0.451,0.417-0.979,1.435c-0.511,1.026-1.012,2.719-0.898,4.933
				c0.089,2.2,0.934,4.891,2.79,7.443c1.837,2.508,4.983,4.927,9.042,5.432c8.02,1.249,18.027-4.882,20.883-15.189
				c1.52-5.022,1.627-10.611,0.654-16.122c-0.968-5.539-2.973-10.965-5.185-16.347c-4.49-10.64-8.944-20.967-8.2-30.836
				c0.57-9.824,5.244-17.901,9.626-23.905c4.468-6.063,8.779-10.466,11.698-13.54c2.957-3.05,4.594-4.741,4.479-4.864
				c-0.104-0.11-1.947,1.354-5.108,4.217c-3.126,2.888-7.646,7.138-12.376,13.203c-4.629,5.997-9.703,14.293-10.446,24.757
				c-0.896,10.535,3.747,21.303,8.183,31.85c2.196,5.337,4.146,10.605,5.095,15.861c0.956,5.236,0.884,10.483-0.466,15.117
				c-2.476,9.441-11.49,15.091-18.633,14.173c-3.591-0.346-6.418-2.362-8.219-4.6c-1.797-2.261-2.706-4.702-2.92-6.731
				C43.073,219.878,44.782,217.824,44.499,217.737z"/>
		</g>
		<g>
			<path fill="#090605" d="M42.269,429.083c-0.051-0.035-0.451,0.419-0.979,1.438c-0.511,1.022-1.013,2.715-0.898,4.931
				c0.088,2.202,0.933,4.891,2.791,7.443c1.836,2.507,4.981,4.927,9.04,5.432c8.022,1.253,18.028-4.88,20.885-15.189
				c1.519-5.021,1.626-10.609,0.653-16.121c-0.967-5.539-2.974-10.967-5.184-16.345c-4.492-10.645-8.945-20.97-8.199-30.837
				c0.568-9.825,5.242-17.903,9.623-23.907c4.469-6.064,8.78-10.467,11.7-13.541c2.956-3.047,4.593-4.742,4.478-4.864
				c-0.104-0.108-1.947,1.355-5.109,4.218c-3.124,2.891-7.645,7.139-12.375,13.204c-4.629,5.997-9.703,14.293-10.447,24.755
				c-0.895,10.535,3.749,21.304,8.184,31.851c2.195,5.337,4.146,10.604,5.096,15.86c0.955,5.236,0.883,10.484-0.468,15.117
				c-2.474,9.442-11.487,15.095-18.633,14.176c-3.589-0.348-6.419-2.362-8.218-4.6c-1.796-2.263-2.707-4.702-2.92-6.732
				C40.843,431.223,42.55,429.173,42.269,429.083z"/>
		</g>
		<g>
			<path fill="#090605" d="M246.95,123.076c-0.074-0.032-0.311,0.362-0.697,1.15c-0.416,0.779-0.896,1.979-1.422,3.572
				c-1.034,3.173-1.996,8.029-1.575,14.059c0.456,5.973,2.323,13.192,6.925,19.829c4.543,6.75,11.984,11.9,19.861,16.27
				c7.914,4.391,15.535,8.273,21.327,13.313c5.878,4.92,9.567,10.998,10.567,16.658c1.144,5.654,0.045,10.394-1.328,13.272
				c-1.432,2.895-2.82,4.156-2.656,4.311c0.059,0.056,0.422-0.222,1.08-0.819c0.646-0.606,1.498-1.616,2.374-3.069
				c1.705-2.904,3.149-7.93,2.144-13.986c-0.842-6.075-4.719-12.779-10.776-17.973c-5.977-5.356-13.777-9.385-21.595-13.726
				c-7.805-4.328-14.899-9.21-19.251-15.48c-4.439-6.192-6.399-13.025-7.04-18.746C243.699,130.03,247.518,123.177,246.95,123.076z"
				/>
		</g>
		<g>
			<path fill="#090605" d="M284.36,160.94c-0.117-0.444-4.176,1.34-10.907,0.786c-6.618-0.458-15.892-3.922-22.706-11.591
				c-6.797-7.73-9.65-17.012-10.904-23.624c-1.271-6.69-1.273-10.98-1.662-10.975c-0.249-0.014-0.836,4.294,0.046,11.237
				c0.868,6.837,3.562,16.667,10.786,24.898c7.297,8.215,17.324,11.637,24.348,11.688c3.547,0.069,6.393-0.475,8.252-1.116
				C283.474,161.616,284.413,161.062,284.36,160.94z"/>
		</g>
		<path fill="#937154" d="M265.468,413.923c0,0,1.617-126.987-110.658-126.283C42.533,288.346,39.216,412.035,39.216,412.035
			L265.468,413.923z"/>
		<path fill="#002B6F" d="M267.843,417.063l-143.07-124.213c0,0-53.674,14.139-59.847,63.303c-6.173,49.166-9.878,60.91-9.878,60.91
			H267.843z"/>
		<path fill="#002B6F" d="M204.381,297.869c61.495,17.798,63.462,119.194,63.462,119.194L167.61,330.043L204.381,297.869"/>
		<path fill="#090605" d="M98.396,214.618c9.467,7.403,15.91,31.73,5.357,37.949c-8.785,5.176-22.014,4.774-27.965,12.37
			c-8.629,11.011,6.707,27.034-0.633,38.719c-3.557,5.658-11.219,8.172-17.926,11.014c-21.033,8.91-3.023,30.56-8.428,50.187
			c-5.402,19.625-33.438,36.837-16.333,50.633c17.101,13.794,44.292,18,65.229,8.925c17.518-7.595-5.18-32.589-0.443-48.966
			c4.738-16.373,28.077-27.987,25.084-44.662c-2.992-16.679,1.986-29.32,0.277-46.13c-2.608-25.61,1.465-52.021-7.032-76.668"/>
		<path fill="#937154" d="M229.034,84.643c0,0,11.34,57.513,9.971,107.442c-0.904,33.033-25.351,60.706-57.861,66.615l3.766,52.264
			l-57.481-18.113l-12.36-80.833c0,0-20.373,3.79-31.988-14.735c-12.617-20.121-4.205-56.84,14.412-40.039
			c21.809,19.677,26.521,19.454,26.521,19.454C128.669,145.271,105.641,74.167,229.034,84.643"/>
		<path fill="#7B5F45" d="M108.319,192.31c-0.104-0.369-2.464,0.417-6.189-0.051c-3.65-0.393-8.769-2.548-11.588-7.468
			c-2.271-3.788-2.757-8.403-1.695-11.312c1.109-3.052,4.382-2.805,5.082-1.933l0.424-0.562c-0.771-0.218-1.165-0.26-1.217-0.146
			c-0.049,0.116,0.245,0.379,0.926,0.807l1.139,0.713l-0.716-1.275c-0.382-0.678-1.525-1.501-3.071-1.403
			c-1.516-0.016-3.422,1.146-4.264,3.037c-1.654,3.722-1.182,8.805,1.406,13.251c3.264,5.707,9.445,7.968,13.454,7.923
			C106.171,193.953,108.439,192.521,108.319,192.31"/>
		<path fill="#7B5F45" d="M86.896,179.388c0.396,0.515,2.545-0.457,5.207,0.075c2.687,0.424,4.365,2.075,4.916,1.73
			c0.247-0.163,0.14-0.92-0.601-1.832c-0.722-0.908-2.14-1.853-3.907-2.172c-1.77-0.314-3.429,0.085-4.422,0.686
			C87.081,178.476,86.718,179.151,86.896,179.388"/>
		<path opacity="0.2" fill="#937154" d="M136.019,183.341c-0.461,3.156,6.477,6.785,15.488,8.103
			c9.016,1.32,16.701-0.174,17.162-3.331c0.461-3.154-6.473-6.782-15.49-8.097C144.165,178.698,136.48,180.185,136.019,183.341"/>
		<path opacity="0.2" fill="#937154" d="M212.507,187.716c0.531,3.143,6.233,4.806,12.737,3.708
			c6.507-1.098,11.349-4.535,10.819-7.683c-0.53-3.143-6.234-4.805-12.74-3.706C216.822,181.131,211.978,184.571,212.507,187.716"/>
		<path fill="#7B5F45" d="M166.077,255.693c-0.307,0.544,1.746,2.196,4.854,2.602c3.109,0.422,5.521-0.637,5.367-1.237
			c-0.135-0.643-2.402-0.68-5.062-1.053C168.575,255.67,166.374,255.11,166.077,255.693"/>
		<path fill="#7B5F45" d="M159.442,202.824c-0.254,0.066,0.07,2.633,2.158,6.188c2.029,3.511,6.14,7.902,12.103,10.229
			c5.968,2.313,11.968,1.853,15.839,0.632c3.937-1.209,5.913-2.887,5.768-3.105c-0.174-0.325-2.383,0.785-6.16,1.521
			c-3.736,0.75-9.205,0.895-14.608-1.197c-5.399-2.106-9.333-5.906-11.581-8.986C160.668,205.013,159.79,202.701,159.442,202.824"/>
		<path opacity="0.2" fill="#937154" d="M162.694,212.716c-1.828,2.567,1.972,8.312,9.404,10.544
			c7.438,2.239,13.774-0.458,13.666-3.61c-0.062-3.223-4.828-5.747-10.34-7.45C169.89,210.58,164.521,210.061,162.694,212.716"/>
		<path fill="#090605" d="M242.497,153.109c-1.164-2.312-46.91-42.29-41.497-69.445c0,0-10.673,23.534-82.077,67.74l9.498-67.74
			L201,71.643l41.497,18.625V153.109z"/>
		<path fill="#090605" d="M88.839,225.796c-0.004-0.292-3.328,0.71-8.943-0.866c-5.406-1.557-13.259-6.597-16.91-16.308
			c-3.625-9.616-0.973-23.114,7.791-33.567c8.705-10.665,22.878-17.482,37.979-22.362c7.596-2.511,15.157-4.654,22.354-7.16
			c7.172-2.438,14.123-5.4,19.906-9.501c11.604-8.119,19.854-17.919,26.234-26.299c6.377-8.442,10.83-15.752,13.801-20.848
			c1.465-2.559,2.576-4.562,3.277-5.951c0.711-1.378,1.051-2.125,0.982-2.161c-0.07-0.041-0.545,0.627-1.387,1.93
			c-0.973,1.526-2.176,3.414-3.64,5.715c-3.196,4.933-7.841,12.077-14.328,20.317c-6.48,8.184-14.788,17.743-26.134,25.533
			c-5.643,3.931-12.283,6.713-19.449,9.125c-7.127,2.452-14.678,4.573-22.342,7.104c-15.239,4.935-29.855,11.958-38.902,23.212
			c-9.076,11.004-11.742,25.282-7.672,35.488c4.101,10.249,12.497,15.236,18.201,16.6c2.93,0.741,5.293,0.612,6.848,0.519
			C88.062,226.059,88.854,225.874,88.839,225.796"/>
		<path fill="#090605" d="M235.479,222.55c-0.025,0.066,0.471,0.313,1.483,0.626c1.019,0.26,2.602,0.51,4.624,0.244
			c3.941-0.467,9.926-3.343,13.231-10.073c3.252-6.665,2.874-15.94-0.271-24.783c-2.932-8.99-7.874-18.129-13.566-27.262
			c-11.587-18.17-23.151-33.791-29.366-46.361c-1.688-3.073-2.861-6-4.027-8.522c-1.016-2.577-1.805-4.839-2.488-6.672
			c-1.029-3.765-1.682-5.85-1.84-5.822c-0.155,0.028,0.195,2.175,0.977,6.07c0.557,1.895,1.229,4.229,2.148,6.891
			c1.062,2.602,2.158,5.631,3.767,8.783c5.929,12.923,17.378,28.832,28.87,46.857c5.65,9.062,10.555,18.019,13.506,26.705
			c3.158,8.556,3.613,17.217,0.807,23.443c-2.812,6.207-8.253,9.175-11.895,9.857C237.656,223.26,235.52,222.295,235.479,222.55"/>
		<path fill="#090605" d="M18.341,333.011c0,0,0.558,0.699,2.148,0.92c1.527,0.156,4.12-0.513,5.885-3.058
			c2.016-2.46,1.256-7.341-2.373-9.842c-1.719-1.284-4.016-2.154-6.5-2.078c-2.461,0.058-4.975,0.916-7.243,2.304
			c-4.46,2.799-8.569,7.49-9.946,13.755c-0.656,3.098-0.316,6.66,1.403,9.68c1.688,3.022,4.468,5.397,7.661,6.932
			c6.526,3.229,14.271,2.52,21.443,1.246c7.193-1.329,14.924-2.421,22.201-5.951c7.15-3.466,13.381-9.86,14.48-17.764
			c1.111-7.786-1.512-14.755-2.391-21.276c-2.08-13.138,3.02-25.187,9.749-32.429c6.849-7.398,14.849-10.48,20.255-11.79
			c5.512-1.283,8.717-1.097,8.705-1.327c0.004-0.074-0.787-0.159-2.301-0.195c-1.508,0.009-3.756,0.105-6.596,0.647
			c-5.583,1.065-13.943,3.976-21.256,11.55c-7.181,7.412-12.727,19.974-10.662,33.851c0.897,6.763,3.332,13.659,2.261,20.618
			c-0.972,6.951-6.56,12.778-13.265,16.042c-6.814,3.318-14.381,4.445-21.57,5.794c-7.094,1.306-14.303,1.915-20.134-0.932
			c-2.888-1.357-5.346-3.452-6.813-6.013c-1.487-2.554-1.83-5.557-1.294-8.319c1.124-5.575,4.88-10.095,8.933-12.729
			c4.08-2.749,9.029-2.933,12.119-0.568c3.225,2.15,3.98,6.108,2.377,8.304c-1.436,2.321-3.727,3.089-5.107,3.083
			C19.072,333.416,18.394,332.893,18.341,333.011"/>
		<path fill="#090605" d="M18.341,389.825c0,0,0.558,0.702,2.148,0.921c1.527,0.154,4.12-0.511,5.885-3.057
			c2.016-2.458,1.256-7.341-2.373-9.843c-1.719-1.283-4.016-2.153-6.5-2.079c-2.461,0.06-4.975,0.917-7.243,2.307
			c-4.46,2.8-8.569,7.488-9.946,13.751c-0.656,3.1-0.316,6.665,1.403,9.684c1.688,3.021,4.468,5.396,7.661,6.932
			c6.526,3.229,14.271,2.52,21.443,1.242c7.193-1.327,14.924-2.42,22.201-5.949c7.15-3.467,13.381-9.86,14.48-17.762
			c1.111-7.786-1.512-14.757-2.391-21.277c-2.08-13.139,3.02-25.185,9.749-32.429c6.849-7.398,14.849-10.482,20.255-11.789
			c5.512-1.285,8.717-1.096,8.705-1.328c0.004-0.075-0.787-0.158-2.301-0.195c-1.508,0.01-3.756,0.105-6.596,0.644
			c-5.583,1.069-13.943,3.979-21.256,11.554c-7.181,7.412-12.727,19.974-10.662,33.851c0.897,6.764,3.332,13.657,2.261,20.616
			c-0.972,6.954-6.56,12.78-13.265,16.042c-6.814,3.319-14.381,4.448-21.57,5.798c-7.094,1.304-14.303,1.909-20.134-0.935
			c-2.888-1.357-5.346-3.453-6.813-6.013c-1.487-2.554-1.83-5.555-1.294-8.318c1.124-5.575,4.88-10.097,8.933-12.729
			c4.08-2.749,9.029-2.934,12.119-0.566c3.225,2.149,3.98,6.105,2.377,8.302c-1.436,2.321-3.727,3.089-5.107,3.083
			C19.072,390.232,18.394,389.706,18.341,389.825"/>
		<path fill="#7B5F45" d="M187.509,186.453"/>
		<path fill="#090605" d="M142.354,141.967c0.162,1.908,7.335,2.861,16.027,2.127c8.697-0.73,15.613-2.87,15.453-4.779
			c-0.166-1.905-7.341-2.855-16.036-2.124C149.11,137.923,142.192,140.062,142.354,141.967"/>
		<path fill="#090605" d="M209.72,146.188c1.029,1.663,5.929,0.557,11.494,1.7c4.121,0.68,7.42,2.214,9.533,2.637l8.216,1.639
			l-5.958-3.381c-0.752-0.425-1.375-0.528-1.818-0.277c-0.446,0.258-0.67,0.851-0.676,1.715l2.26-1.745
			c-0.538-2.287-4.383-6.421-10.335-7.408c-3.982-0.742-7.728,0.12-9.987,1.439C210.144,143.825,209.276,145.388,209.72,146.188"/>
		<path fill="#FFFFFF" d="M173.298,172.202c0,0,0.633-15.859-16.466-17.662c-14.36-1.518-17.327,14.76-17.327,14.76L173.298,172.202
			z"/>
		<path fill="#090605" d="M158.495,154.782l-4.182,15.793l18.984,1.627C173.298,172.202,173.28,156.479,158.495,154.782"/>
		<path fill="#090605" d="M138.911,166.612c0.381,0.154,1.238-2.658,4.424-5.718c3.03-3.024,8.968-6.156,15.469-4.959
			c6.488,1.312,10.826,6.438,12.51,10.373c1.812,4.031,1.561,6.958,1.973,6.954c0.206,0.076,1.113-2.954-0.455-7.56
			c-1.438-4.445-6.031-10.48-13.586-12.033c-7.588-1.376-14.101,2.506-17.09,6.095C138.981,163.453,138.688,166.602,138.911,166.612
			"/>
		<path fill="#FFFFFF" d="M236.709,173.302c0,0-0.685-15.859-17.874-16.24c-14.435-0.321-16.043,16.149-16.043,16.149
			L236.709,173.302z"/>
		<path fill="#090605" d="M220.515,157.167l-2.863,16.084l19.057,0.051C236.708,173.302,235.39,157.634,220.515,157.167"/>
		<path fill="#090605" d="M201.979,170.577c0.393,0.124,1.012-2.746,3.935-6.063c2.77-3.265,8.425-6.879,15.005-6.221
			c6.57,0.771,11.322,5.519,13.324,9.299c2.143,3.862,2.133,6.805,2.545,6.766c0.209,0.061,0.86-3.035-1.082-7.494
			c-1.798-4.313-6.879-9.946-14.535-10.867c-7.676-0.743-13.847,3.669-16.53,7.491C201.786,167.422,201.756,170.595,201.979,170.577
			"/>
		<g>
			<path fill="#090605" d="M132.743,376.892c0.051-0.036,0.451,0.417,0.977,1.437c0.511,1.021,1.013,2.717,0.9,4.931
				c-0.09,2.201-0.934,4.891-2.791,7.442c-1.836,2.509-4.981,4.929-9.041,5.43c-8.021,1.255-18.028-4.878-20.884-15.187
				c-1.519-5.021-1.627-10.611-0.653-16.121c0.967-5.539,2.973-10.966,5.184-16.346c4.49-10.645,8.945-20.968,8.199-30.837
				c-0.569-9.825-5.244-17.901-9.625-23.904c-4.467-6.067-8.779-10.468-11.699-13.542c-2.956-3.05-4.593-4.74-4.478-4.864
				c0.103-0.112,1.947,1.356,5.108,4.217c3.126,2.89,7.645,7.139,12.376,13.204c4.63,5.995,9.704,14.292,10.448,24.758
				c0.895,10.533-3.749,21.302-8.186,31.85c-2.195,5.334-4.145,10.604-5.095,15.86c-0.954,5.235-0.882,10.483,0.468,15.116
				c2.475,9.441,11.488,15.093,18.633,14.173c3.59-0.345,6.416-2.361,8.219-4.599c1.795-2.263,2.705-4.702,2.919-6.732
				C134.168,379.032,132.46,376.979,132.743,376.892z"/>
		</g>
		<g>
			<path fill="#7B5F45" d="M199.353,153.579c0,0-0.533,0.87-1.467,2.393c-0.924,1.524-2.221,3.708-3.709,6.348
				c-1.463,2.652-3.131,5.759-4.627,9.18c-0.758,1.704-1.42,3.506-2.018,5.335c-0.584,1.831-1.031,3.726-1.189,5.597
				c-0.184,1.857-0.105,3.726,0.522,5.312l0.24,0.589c0.013,0.033,0.056,0.132,0.044,0.113l0.086,0.165l0.174,0.33
				c0.223,0.443,0.443,0.885,0.664,1.322c0.467,0.83,0.879,1.614,1.395,2.372c0.988,1.527,2.056,2.905,3.25,4.027
				c1.199,1.146,2.496,1.937,3.809,3.021c0.641,0.544,1.253,1.293,1.489,2.111c0.091,0.407,0.192,0.769,0.199,1.178
				c0.005,0.165,0.009,0.328,0.013,0.488c-0.003,0.171-0.031,0.376-0.049,0.556c-0.151,1.461-1.053,2.449-1.811,2.97
				c-0.779,0.543-1.484,0.741-1.949,0.866c-0.471,0.116-0.727,0.137-0.727,0.137s0.246-0.077,0.67-0.289
				c0.422-0.211,1.023-0.579,1.621-1.171c0.586-0.585,1.099-1.51,1.049-2.561c-0.047-1.216-0.426-2.221-1.564-2.927
				c-0.557-0.378-1.268-0.737-2-1.171c-0.736-0.42-1.474-0.948-2.211-1.511c-1.463-1.152-2.818-2.596-3.965-4.225
				c-0.598-0.789-1.144-1.697-1.68-2.55c-0.242-0.427-0.486-0.855-0.732-1.286l-0.179-0.327l-0.089-0.163
				c-0.068-0.13-0.068-0.149-0.105-0.229l-0.344-0.792c-0.875-2.147-0.986-4.464-0.807-6.633c0.225-2.181,0.764-4.258,1.428-6.226
				c0.657-1.974,1.52-3.812,2.383-5.556c0.861-1.749,1.828-3.358,2.768-4.859c0.934-1.506,1.89-2.879,2.8-4.122
				c1.812-2.492,3.478-4.442,4.675-5.774C198.612,154.289,199.353,153.579,199.353,153.579z"/>
		</g>
		<g>
			<path fill="#7B5F45" d="M190.882,207.988c0,0-0.71,0.454-1.838,0.834c-1.122,0.408-2.662,0.734-4.238,0.823
				c-1.57,0.088-3.188-0.074-4.367-0.517c-0.59-0.199-1.059-0.487-1.348-0.713c-0.281-0.272-0.395-0.428-0.395-0.428
				s0.228,0.022,0.546,0.06c0.165,0.01,0.38-0.016,0.599-0.007c0.221,0.003,0.492-0.047,0.762-0.049
				c1.112-0.106,2.59-0.257,4.096-0.343c1.505-0.079,3.031-0.082,4.203,0.039C190.069,207.781,190.882,207.988,190.882,207.988z"/>
		</g>
		<g>
			<g>
				<g>
					<path fill="none" stroke="#BA007C" stroke-width="3" stroke-linecap="round" stroke-linejoin="round" d="M128.012,298.733
						c0.085-0.068-5.356-6.44-5.271-6.51c0.606-0.49,21.997,22.051,22.604,21.559c0.439-0.355-17.198-20.338-16.758-20.694
						c0.959-0.777,33.131,36.521,34.092,35.743c0.44-0.357-17.244-20.391-16.803-20.749c0.637-0.516,22.961,23.301,23.598,22.785
						c0.117-0.095-6.426-7.694-6.308-7.79"/>
				</g>
			</g>
		</g>
		<g>
			<g>
				<g>
					<path fill="none" stroke="#BA007C" stroke-width="3" stroke-linecap="round" stroke-linejoin="round" d="M197.261,300.966
						c0.05,0.085,6.833-4.059,6.883-3.974c0.355,0.616-22.756,16.936-22.4,17.552c0.254,0.439,20.812-12.603,21.066-12.162
						c0.559,0.968-37.144,24.771-36.584,25.74c0.254,0.441,20.869-12.638,21.123-12.196"/>
				</g>
			</g>
		</g>
	</g>
	<g>
		<g>
			<g>
				<g>
					<path fill="#212020" d="M111.396,79.385l-0.189-2.108c-7.115,0.921-15.553,3.69-19.808,7.874
						c-3.356,2.719-4.565,6.404-3.763,10.488C92.417,86.863,101.319,79.679,111.396,79.385z"/>
					<path fill="#212020" d="M250.563,81.715c0.93,0.867,1.76,1.809,2.49,2.813c-0.207-3.726-2.044-6.868-5.545-8.974
						c-4.945-3.621-13.76-5.218-20.963-5.257l0.303,3.416C235.516,72.299,244.153,75.665,250.563,81.715z"/>
					<path fill="#413F3F" d="M183.175,122.966c-24.35,4.612-48.835,1.897-73.027-7.856c-8.29-3.373-14.47-8.871-20.631-14.484
						c7.872,14.334,37.457,30.642,84.226,28.264c48.601-3.503,75.198-24.752,78.884-40.085
						C238.059,111.327,208.39,118.124,183.175,122.966z"/>
					<path fill="#2D2B2B" d="M110.147,115.109c24.192,9.754,48.678,12.469,73.027,7.856c25.215-4.842,54.884-11.639,69.451-34.162
						c0.355-1.488,0.5-2.923,0.428-4.275c-0.73-1.005-1.561-1.946-2.49-2.813c-6.41-6.05-15.048-9.416-23.715-8.001l0.793,8.97
						c-15.377,10.16-33.354,17.352-56.316,18.759c-22.979,1.415-42.023-3.613-59.018-11.78l-0.912-10.277
						c-10.076,0.294-18.979,7.479-23.76,16.254c0.313,1.611,0.947,3.284,1.881,4.986
						C95.678,106.238,101.857,111.736,110.147,115.109z"/>
					<path fill="#2D2B2B" d="M199.462,11.341c-11.037-6.767-23.184-8.509-36.068-8.621c-21.156-0.156-38.041,11.288-49.016,27.319
						c-3.869,8.572-5.656,18.465-4.736,28.871l0.615,6.928l1.045,11.875c16.287,7.817,36.855,11.913,58.856,10.562
						c22.001-1.349,41.624-7.92,56.356-17.646l-1.053-11.862l-0.611-6.933c-0.714-8.098-2.996-15.686-6.482-22.425
						C212.351,22.783,207.419,15.915,199.462,11.341z"/>
					<path fill="#212020" d="M169.921,0.088l-15.039,0.918c-18.158,1.119-33.123,12.668-40.504,29.033
						c10.975-16.031,27.859-27.476,49.016-27.319c12.885,0.112,25.031,1.854,36.068,8.621c7.957,4.574,12.889,11.442,18.906,18.068
						C208.806,10.939,190.188-1.161,169.921,0.088z"/>
				</g>
			</g>
		</g>
		<g>
			<path d="M171.345,101.531c22.962-1.41,40.939-8.6,56.318-18.76l-1.067-12.106l-0.062-0.008l0.001,0.055
				c-14.735,9.731-34.354,16.301-56.354,17.651c-21.998,1.353-42.553-2.74-58.829-10.557l-0.078,0.037l1.056,11.906
				C129.323,97.918,148.368,102.94,171.345,101.531z"/>
		</g>
	</g>
</g>
</svg>
