<?xml version="1.0" encoding="utf-8"?>
<!-- Generator: Adobe Illustrator 16.0.0, SVG Export Plug-In . SVG Version: 6.00 Build 0)  -->
<!DOCTYPE svg PUBLIC "-//W3C//DTD SVG 1.1//EN" "http://www.w3.org/Graphics/SVG/1.1/DTD/svg11.dtd">
<svg version="1.1" id="Capa_1" xmlns="http://www.w3.org/2000/svg" xmlns:xlink="http://www.w3.org/1999/xlink" x="0px" y="0px"
	 width="401.622px" height="318.162px" viewBox="0 0 401.622 318.162" enable-background="new 0 0 401.622 318.162"
	 xml:space="preserve">
<g>
	<g>
		<polygon fill="#81AD38" points="392.645,36.165 192.57,36.165 198.952,4.255 395.836,0 		"/>
		<g>
			<path fill="#FFFFFF" d="M213.021,29.021c0.063-2.275,0.096-4.565,0.096-6.873c0-3.532-0.074-7.1-0.224-10.703
				c1.653-0.127,3.137-0.19,4.45-0.19c3.649,0,5.976,0.497,6.979,1.491c0.939,0.931,1.409,1.957,1.409,3.078
				c0,0.51-0.091,1.034-0.272,1.575c-0.619,1.75-1.921,2.86-3.906,3.329c1.388,0.144,2.438,0.7,3.153,1.671
				c0.684,0.938,1.025,3.301,1.025,7.088v0.513l-4.835,0.048c0.054-1.003,0.08-1.901,0.08-2.697c0-2.41-0.262-3.886-0.784-4.427
				c-0.598-0.604-1.308-0.906-2.129-0.906c-0.16,0-0.325,0.012-0.496,0.035c0.064,2.427,0.202,4.726,0.416,6.897L213.021,29.021z
				 M217.119,14.225l0.112,5.107c1.984-0.072,3.244-0.573,3.777-1.504c0.288-0.493,0.433-0.975,0.433-1.443
				c0-0.406-0.107-0.804-0.32-1.193c-0.385-0.677-1.34-1.015-2.865-1.015C217.903,14.177,217.524,14.193,217.119,14.225z"/>
			<path fill="#FFFFFF" d="M232.293,16.934c3.703,0,5.555,1.833,5.555,5.5c0,0.446-0.027,0.923-0.08,1.433h-7.155
				c0,2.044,0.528,3.066,1.584,3.066h0.112c0.929-0.056,1.393-0.585,1.393-1.587c0-0.215-0.021-0.454-0.063-0.716l3.81-0.061
				c0,3.031-1.777,4.566-5.331,4.606c-0.042,0.008-0.079,0.012-0.111,0.012c-3.383,0-5.074-1.913-5.074-5.739V23.09
				C227.038,18.985,228.825,16.934,232.293,16.934z M230.228,21.67h3.618v-0.286c0-1.447-0.55-2.172-1.649-2.172
				C231.012,19.212,230.356,20.031,230.228,21.67z"/>
			<path fill="#FFFFFF" d="M245.595,24.271l3.81,0.179c0,2.872-1.777,4.328-5.331,4.367c-0.042,0.009-0.079,0.013-0.111,0.013
				c-3.383,0-5.074-1.913-5.074-5.74v-0.357c0.106-4.104,1.91-6.177,5.41-6.217h0.128c3.223,0,4.834,1.376,4.834,4.129
				c0,0.159-0.005,0.317-0.016,0.477l-3.441,0.191v-0.286c0-1.448-0.55-2.172-1.649-2.172c-1.12,0-1.681,1.173-1.681,3.52v0.394
				c0.064,2.538,0.63,3.807,1.697,3.807h0.096c0.929-0.056,1.393-0.584,1.393-1.587C245.659,24.772,245.637,24.534,245.595,24.271z"
				/>
			<path fill="#FFFFFF" d="M259.042,29.188l-0.16-1.945c-0.448,1.034-1.654,1.556-3.618,1.563c-0.021,0.008-0.037,0.012-0.048,0.012
				c-1.942,0-3.228-0.652-3.857-1.957c-0.427-0.866-0.641-2.66-0.641-5.381c0-1.4,0.059-3.051,0.177-4.952h3.89
				c-0.214,2.673-0.32,4.729-0.32,6.169c0,0.725,0.026,1.289,0.08,1.694c0.16,1.241,0.698,1.861,1.616,1.861
				s1.494-0.322,1.729-0.966l-0.16-8.281l3.762-0.023c0,3.42,0.165,7.405,0.496,11.955L259.042,29.188z"/>
			<path fill="#FFFFFF" d="M268.517,16.934c3.703,0,5.555,1.833,5.555,5.5c0,0.446-0.027,0.923-0.08,1.433h-7.155
				c0,2.044,0.528,3.066,1.584,3.066h0.112c0.929-0.056,1.393-0.585,1.393-1.587c0-0.215-0.021-0.454-0.063-0.716l3.81-0.061
				c0,3.031-1.777,4.566-5.331,4.606c-0.042,0.008-0.079,0.012-0.111,0.012c-3.383,0-5.074-1.913-5.074-5.739V23.09
				C263.261,18.985,265.048,16.934,268.517,16.934z M266.452,21.67h3.618v-0.286c0-1.447-0.55-2.172-1.649-2.172
				C267.236,19.212,266.58,20.031,266.452,21.67z"/>
			<path fill="#FFFFFF" d="M279.531,20.632l0.16,8.651l-3.922,0.023c0-3.659-0.166-7.768-0.496-12.325l2.945-0.239l0.16,1.945
				c0.447-0.955,1.493-1.5,3.137-1.635c0.245-0.016,0.48-0.024,0.704-0.024c1.291,0,2.273,0.314,2.945,0.943
				c0.779,0.747,1.174,1.937,1.185,3.567l-3.553,0.263c0.01-0.136,0.016-0.267,0.016-0.394c0-1.273-0.443-1.909-1.329-1.909h-0.063
				C280.395,19.538,279.765,19.916,279.531,20.632z"/>
			<path fill="#FFFFFF" d="M299.522,12.304c-0.063,2.688-0.096,5.509-0.096,8.46c0,2.688,0.026,5.488,0.08,8.4l-3.794,0.012
				l-0.128-1.826c-0.79,0.884-1.841,1.325-3.153,1.325c-3.276,0-4.914-1.869-4.914-5.608c0-0.079,0.005-0.159,0.016-0.238
				c0.064-3.747,1.687-5.62,4.866-5.62c0.128,0,0.262,0.004,0.4,0.012c1.089,0.048,1.969,0.489,2.642,1.324
				c0-1.766-0.06-3.846-0.177-6.24H299.522z M295.521,24.904l-0.08-4.129c-0.619-0.628-1.255-0.942-1.905-0.942
				c-0.267,0-0.533,0.052-0.8,0.155c-0.844,0.326-1.265,1.24-1.265,2.744c0,0.175,0.005,0.354,0.016,0.537
				c0.106,1.821,0.65,2.784,1.633,2.888c0.096,0.008,0.192,0.012,0.288,0.012C294.261,26.169,294.965,25.747,295.521,24.904z"/>
			<path fill="#FFFFFF" d="M305.99,16.934c3.703,0,5.555,1.833,5.555,5.5c0,0.446-0.027,0.923-0.08,1.433h-7.155
				c0,2.044,0.528,3.066,1.584,3.066h0.112c0.929-0.056,1.393-0.585,1.393-1.587c0-0.215-0.021-0.454-0.063-0.716l3.81-0.061
				c0,3.031-1.777,4.566-5.331,4.606c-0.042,0.008-0.079,0.012-0.111,0.012c-3.383,0-5.074-1.913-5.074-5.739V23.09
				C300.734,18.985,302.521,16.934,305.99,16.934z M303.924,21.67h3.618v-0.286c0-1.447-0.55-2.172-1.649-2.172
				C304.708,19.212,304.052,20.031,303.924,21.67z"/>
			<path fill="#FFFFFF" d="M326.798,34.545c0.011-2.554,0.017-4.713,0.017-6.479c-0.619,0.843-1.74,1.284-3.362,1.324
				c-3.126,0-4.695-2.028-4.706-6.086c-0.011-0.016-0.016-0.031-0.016-0.048c0-4.024,1.878-6.037,5.635-6.037
				c1.099,0,2.043,0.445,2.833,1.336l0.128-1.837l3.474,0.012c-0.054,3.143-0.08,6.117-0.08,8.925c0,3.087,0.032,5.971,0.096,8.651
				L326.798,34.545z M326.815,25.847v-4.845c-0.523-0.787-1.185-1.181-1.985-1.181c-0.16,0-0.325,0.016-0.496,0.047
				c-1.035,0.184-1.606,1.245-1.713,3.187c-0.011,0.207-0.016,0.405-0.016,0.597c0,1.583,0.395,2.553,1.185,2.911
				c0.267,0.127,0.549,0.19,0.848,0.19C325.299,26.753,326.025,26.451,326.815,25.847z"/>
			<path fill="#FFFFFF" d="M340.389,29.188l-0.16-1.945c-0.448,1.034-1.654,1.556-3.618,1.563c-0.021,0.008-0.037,0.012-0.048,0.012
				c-1.942,0-3.228-0.652-3.857-1.957c-0.427-0.866-0.641-2.66-0.641-5.381c0-1.4,0.059-3.051,0.177-4.952h3.89
				c-0.214,2.673-0.32,4.729-0.32,6.169c0,0.725,0.026,1.289,0.08,1.694c0.16,1.241,0.698,1.861,1.616,1.861
				s1.494-0.322,1.729-0.966l-0.16-8.281l3.762-0.023c0,3.42,0.165,7.405,0.496,11.955L340.389,29.188z"/>
			<path fill="#FFFFFF" d="M349.865,16.934c3.703,0,5.555,1.833,5.555,5.5c0,0.446-0.027,0.923-0.08,1.433h-7.155
				c0,2.044,0.528,3.066,1.584,3.066h0.112c0.929-0.056,1.393-0.585,1.393-1.587c0-0.215-0.021-0.454-0.063-0.716l3.81-0.061
				c0,3.031-1.777,4.566-5.331,4.606c-0.042,0.008-0.079,0.012-0.111,0.012c-3.383,0-5.074-1.913-5.074-5.739V23.09
				C344.609,18.985,346.396,16.934,349.865,16.934z M347.799,21.67h3.618v-0.286c0-1.447-0.55-2.172-1.649-2.172
				C348.583,19.212,347.927,20.031,347.799,21.67z"/>
			<path fill="#FFFFFF" d="M358.957,29.247c-0.641,0-1.19-0.171-1.649-0.513c-0.458-0.342-0.688-0.752-0.688-1.229
				c0-0.485,0.229-0.898,0.688-1.24c0.459-0.343,1.009-0.514,1.649-0.514c0.65,0,1.205,0.171,1.664,0.514
				c0.459,0.342,0.688,0.755,0.688,1.24c0,0.478-0.229,0.888-0.688,1.229S359.607,29.247,358.957,29.247z"/>
			<path fill="#FFFFFF" d="M364.927,29.247c-0.641,0-1.19-0.171-1.649-0.513c-0.458-0.342-0.688-0.752-0.688-1.229
				c0-0.485,0.229-0.898,0.688-1.24c0.459-0.343,1.009-0.514,1.649-0.514c0.65,0,1.205,0.171,1.664,0.514
				c0.459,0.342,0.688,0.755,0.688,1.24c0,0.478-0.229,0.888-0.688,1.229S365.578,29.247,364.927,29.247z"/>
			<path fill="#FFFFFF" d="M370.898,29.247c-0.641,0-1.19-0.171-1.649-0.513c-0.458-0.342-0.688-0.752-0.688-1.229
				c0-0.485,0.229-0.898,0.688-1.24c0.459-0.343,1.009-0.514,1.649-0.514c0.65,0,1.205,0.171,1.664,0.514
				c0.459,0.342,0.688,0.755,0.688,1.24c0,0.478-0.229,0.888-0.688,1.229S371.548,29.247,370.898,29.247z"/>
			<path fill="#FFFFFF" d="M376.869,29.247c-0.641,0-1.19-0.171-1.649-0.513c-0.458-0.342-0.688-0.752-0.688-1.229
				c0-0.485,0.229-0.898,0.688-1.24c0.459-0.343,1.009-0.514,1.649-0.514c0.65,0,1.205,0.171,1.664,0.514
				c0.459,0.342,0.688,0.755,0.688,1.24c0,0.478-0.229,0.888-0.688,1.229S377.519,29.247,376.869,29.247z"/>
		</g>
	</g>
	<g>
		<g>
			<path fill="#090605" d="M120.958,202.897c9.346-1.565,7.194-10.964,16.094-7.72c11.25,4.105,24.416,5.932,35.746,2.053
				c11.333-3.877,20.754-14.963,19.69-26.891c-0.597-6.707-3.969-23.52-14.43-34.085c-10.068-10.171-8.031-22.764-9.47-36.999
				c-0.983-9.742-0.066-20.253-5.182-28.6c-3.662-5.969-9.958-9.894-16.52-12.333c-15.547-5.782-33.208-4.142-48.582,2.087
				c-15.373,6.225-28.679,16.728-40.4,28.467c-5.334,5.342-10.439,11.043-13.946,17.729c-3.508,6.686-5.312,14.494-3.732,21.875
				c2.459,11.484,12.717,20.963,12.135,32.693c-0.192,3.906-1.62,7.761-1.102,11.637c0.943,7.041,8.248,11.822,15.333,12.354
				c7.083,0.535,17.819,20.36,24.419,17.732"/>
			<g>
				<path fill="#090605" d="M30.351,160.777c-0.035-0.024-0.309,0.285-0.667,0.979c-0.349,0.701-0.69,1.855-0.614,3.365
					c0.062,1.5,0.639,3.336,1.904,5.076c1.253,1.711,3.398,3.36,6.166,3.705c5.47,0.852,12.297-3.33,14.244-10.36
					c1.037-3.426,1.108-7.237,0.446-10.997c-0.66-3.777-2.028-7.478-3.536-11.148c-3.062-7.256-6.102-14.301-5.593-21.031
					c0.39-6.701,3.577-12.211,6.565-16.305c3.047-4.137,5.988-7.139,7.979-9.236c2.016-2.08,3.132-3.234,3.054-3.317
					c-0.069-0.074-1.328,0.925-3.484,2.876c-2.133,1.97-5.215,4.869-8.441,9.006c-3.156,4.09-6.617,9.748-7.124,16.886
					c-0.61,7.185,2.555,14.529,5.58,21.724c1.499,3.639,2.829,7.232,3.476,10.817c0.652,3.571,0.604,7.151-0.318,10.312
					c-1.688,6.439-7.836,10.291-12.708,9.666c-2.449-0.235-4.378-1.611-5.606-3.138c-1.225-1.542-1.845-3.206-1.991-4.591
					C29.378,162.238,30.544,160.838,30.351,160.777z"/>
			</g>
			<g>
				<path fill="#090605" d="M28.83,304.928c-0.034-0.024-0.309,0.285-0.666,0.98c-0.35,0.697-0.691,1.852-0.615,3.363
					c0.062,1.501,0.637,3.336,1.905,5.076c1.253,1.709,3.397,3.36,6.166,3.705c5.472,0.854,12.296-3.329,14.244-10.36
					c1.036-3.425,1.11-7.236,0.446-10.995c-0.66-3.777-2.029-7.48-3.537-11.148c-3.062-7.26-6.101-14.303-5.592-21.032
					c0.389-6.701,3.576-12.212,6.564-16.306c3.047-4.137,5.988-7.14,7.98-9.236c2.015-2.078,3.131-3.234,3.053-3.317
					c-0.069-0.075-1.328,0.925-3.484,2.876c-2.131,1.972-5.214,4.869-8.439,9.006c-3.158,4.091-6.62,9.75-7.126,16.885
					c-0.61,7.186,2.556,14.529,5.581,21.725c1.498,3.641,2.828,7.232,3.475,10.816c0.652,3.572,0.604,7.152-0.318,10.311
					c-1.688,6.44-7.835,10.295-12.709,9.67c-2.447-0.237-4.377-1.611-5.605-3.138c-1.225-1.543-1.844-3.206-1.99-4.592
					C27.857,306.387,29.023,304.988,28.83,304.928z"/>
			</g>
			<g>
				<path fill="#090605" d="M168.433,96.213c-0.048-0.021-0.211,0.248-0.475,0.785c-0.282,0.531-0.61,1.35-0.969,2.438
					c-0.706,2.162-1.362,5.475-1.075,9.588c0.311,4.074,1.584,8.998,4.725,13.524c3.096,4.604,8.172,8.116,13.545,11.097
					c5.398,2.995,10.597,5.643,14.547,9.08c4.008,3.355,6.524,7.502,7.207,11.363c0.78,3.855,0.031,7.088-0.905,9.052
					c-0.977,1.975-1.924,2.835-1.812,2.94c0.039,0.037,0.286-0.151,0.735-0.559c0.44-0.414,1.022-1.104,1.62-2.094
					c1.163-1.98,2.147-5.408,1.461-9.54c-0.574-4.144-3.218-8.716-7.35-12.258c-4.076-3.654-9.396-6.401-14.729-9.362
					c-5.322-2.951-10.162-6.281-13.13-10.559c-3.028-4.224-4.364-8.883-4.801-12.785C166.217,100.957,168.822,96.282,168.433,96.213
					z"/>
			</g>
			<g>
				<path fill="#090605" d="M193.952,122.039c-0.08-0.304-2.85,0.914-7.44,0.535c-4.515-0.311-10.838-2.674-15.487-7.904
					c-4.635-5.273-6.582-11.604-7.437-16.113c-0.868-4.562-0.87-7.488-1.134-7.484c-0.17-0.01-0.571,2.928,0.03,7.664
					c0.593,4.662,2.43,11.367,7.358,16.982c4.975,5.603,11.814,7.936,16.605,7.972c2.418,0.048,4.36-0.323,5.627-0.762
					C193.346,122.5,193.986,122.121,193.952,122.039z"/>
			</g>
			<path fill="#937154" d="M181.065,294.588c0,0,1.103-86.613-75.477-86.133c-76.577,0.482-78.84,84.844-78.84,84.844
				L181.065,294.588z"/>
			<path fill="#002B6F" d="M182.684,296.729l-97.581-84.72c0,0-36.609,9.644-40.82,43.176c-4.209,33.534-6.736,41.544-6.736,41.544
				H182.684z"/>
			<path fill="#002B6F" d="M139.4,215.433c41.941,12.139,43.284,81.296,43.284,81.296l-68.365-59.352L139.4,215.433"/>
			<path fill="#090605" d="M67.111,158.65c6.457,5.049,10.852,21.643,3.654,25.883c-5.99,3.531-15.014,3.257-19.072,8.438
				c-5.887,7.51,4.574,18.439-0.434,26.408c-2.424,3.859-7.651,5.574-12.225,7.512c-14.348,6.078-2.062,20.844-5.748,34.23
				c-3.686,13.385-22.807,25.125-11.141,34.535c11.663,9.408,30.21,12.277,44.49,6.087c11.947-5.181-3.533-22.228-0.303-33.397
				c3.232-11.167,19.15-19.089,17.109-30.463c-2.042-11.375,1.354-19.997,0.189-31.463c-1.779-17.467,0.999-35.48-4.797-52.291"/>
			<path fill="#937154" d="M156.214,70c0,0,7.733,39.227,6.801,73.281c-0.617,22.531-17.29,41.406-39.466,45.436l2.57,35.646
				l-39.206-12.354l-8.432-55.132c0,0-13.895,2.584-21.818-10.051c-8.605-13.723-2.866-38.768,9.83-27.309
				c14.876,13.42,18.09,13.269,18.09,13.269C87.761,111.352,72.053,62.855,156.214,70"/>
			<path fill="#7B5F45" d="M73.879,143.436c-0.069-0.253-1.68,0.283-4.221-0.035c-2.49-0.269-5.98-1.738-7.904-5.094
				c-1.548-2.584-1.88-5.732-1.156-7.715c0.757-2.082,2.989-1.914,3.468-1.318l0.289-0.383c-0.527-0.148-0.795-0.178-0.831-0.1
				c-0.033,0.078,0.167,0.258,0.632,0.55l0.776,0.487l-0.487-0.871c-0.261-0.462-1.041-1.024-2.096-0.957
				c-1.033-0.012-2.333,0.781-2.906,2.071c-1.13,2.538-0.807,6.005,0.957,9.038c2.228,3.893,6.441,5.435,9.177,5.403
				C72.416,144.557,73.962,143.58,73.879,143.436"/>
			<path fill="#7B5F45" d="M59.267,134.621c0.271,0.351,1.736-0.312,3.554,0.051c1.832,0.289,2.977,1.416,3.351,1.18
				c0.17-0.11,0.096-0.626-0.408-1.248c-0.494-0.62-1.46-1.264-2.666-1.482c-1.205-0.215-2.338,0.059-3.016,0.469
				C59.395,133.998,59.146,134.461,59.267,134.621"/>
			<path opacity="0.2" fill="#937154" d="M92.774,137.317c-0.315,2.152,4.415,4.628,10.562,5.526
				c6.15,0.9,11.392-0.119,11.705-2.272c0.314-2.151-4.413-4.625-10.563-5.522C98.33,134.15,93.088,135.165,92.774,137.317"/>
			<path opacity="0.2" fill="#937154" d="M144.942,140.302c0.362,2.143,4.252,3.278,8.688,2.528c4.438-0.748,7.739-3.093,7.38-5.24
				c-0.362-2.143-4.253-3.276-8.689-2.527C147.886,135.811,144.582,138.156,144.942,140.302"/>
			<path fill="#7B5F45" d="M113.274,186.666c-0.207,0.371,1.192,1.498,3.312,1.774c2.119,0.288,3.764-0.435,3.658-0.845
				c-0.092-0.438-1.638-0.463-3.451-0.717C114.979,186.649,113.478,186.269,113.274,186.666"/>
			<path fill="#7B5F45" d="M108.75,150.605c-0.174,0.045,0.049,1.797,1.473,4.221c1.383,2.395,4.187,5.391,8.254,6.977
				c4.07,1.578,8.161,1.264,10.803,0.432c2.686-0.825,4.033-1.971,3.935-2.119c-0.119-0.221-1.626,0.536-4.202,1.038
				c-2.55,0.511-6.278,0.609-9.964-0.817c-3.683-1.437-6.366-4.028-7.899-6.129C109.584,152.099,108.987,150.522,108.75,150.605"/>
			<path opacity="0.2" fill="#937154" d="M110.967,157.354c-1.248,1.75,1.345,5.668,6.415,7.191
				c5.071,1.526,9.395-0.312,9.321-2.463c-0.043-2.197-3.293-3.92-7.055-5.082C115.874,155.896,112.212,155.541,110.967,157.354"/>
			<path fill="#090605" d="M165.397,116.697c-0.794-1.576-31.994-28.844-28.304-47.365c0,0-7.278,16.052-55.98,46.203l6.479-46.203
				l49.502-8.201l28.304,12.706V116.697z"/>
			<path fill="#090605" d="M60.592,166.273c-0.002-0.198-2.269,0.484-6.098-0.59c-3.687-1.062-9.044-4.5-11.535-11.123
				c-2.471-6.559-0.663-15.766,5.315-22.895c5.937-7.274,15.604-11.924,25.903-15.252c5.179-1.713,10.337-3.176,15.247-4.885
				c4.891-1.662,9.632-3.684,13.577-6.479c7.914-5.538,13.541-12.222,17.892-17.938c4.35-5.759,7.388-10.744,9.413-14.22
				c1-1.744,1.758-3.109,2.234-4.058c0.485-0.94,0.718-1.45,0.672-1.475c-0.049-0.028-0.372,0.427-0.946,1.315
				c-0.663,1.042-1.483,2.329-2.482,3.898c-2.181,3.365-5.349,8.237-9.772,13.858c-4.421,5.581-10.088,12.102-17.825,17.414
				c-3.848,2.681-8.377,4.579-13.265,6.224c-4.862,1.672-10.013,3.12-15.24,4.846c-10.394,3.365-20.362,8.155-26.532,15.83
				c-6.191,7.507-8.009,17.245-5.234,24.207c2.799,6.99,8.525,10.391,12.416,11.32c1.997,0.506,3.609,0.418,4.671,0.354
				C60.064,166.453,60.603,166.328,60.592,166.273"/>
			<path fill="#090605" d="M160.611,164.061c-0.017,0.045,0.321,0.213,1.013,0.427c0.693,0.177,1.773,0.347,3.152,0.166
				c2.689-0.318,6.771-2.28,9.025-6.87c2.218-4.546,1.959-10.872-0.186-16.903c-2-6.132-5.37-12.366-9.253-18.595
				c-7.903-12.393-15.79-23.047-20.029-31.621c-1.15-2.096-1.951-4.092-2.746-5.812c-0.694-1.758-1.232-3.3-1.697-4.551
				c-0.704-2.567-1.147-3.99-1.256-3.971c-0.105,0.02,0.134,1.482,0.667,4.141c0.378,1.293,0.838,2.885,1.465,4.699
				c0.724,1.773,1.473,3.84,2.569,5.99c4.044,8.815,11.853,19.665,19.69,31.961c3.854,6.18,7.198,12.289,9.212,18.213
				c2.154,5.836,2.465,11.744,0.55,15.99c-1.917,4.234-5.629,6.258-8.113,6.723C162.095,164.545,160.638,163.887,160.611,164.061"/>
			<path fill="#090605" d="M12.509,239.4c0,0,0.381,0.478,1.467,0.627c1.041,0.107,2.81-0.35,4.013-2.084
				c1.376-1.679,0.856-5.008-1.618-6.713c-1.174-0.877-2.74-1.47-4.433-1.418c-1.679,0.039-3.394,0.625-4.941,1.57
				c-3.042,1.91-5.845,5.11-6.784,9.383c-0.447,2.113-0.215,4.543,0.957,6.602c1.152,2.062,3.048,3.682,5.227,4.729
				c4.451,2.202,9.734,1.719,14.625,0.85c4.905-0.906,10.18-1.651,15.144-4.06c4.876-2.362,9.126-6.725,9.874-12.114
				c0.759-5.312-1.029-10.064-1.63-14.513c-1.417-8.96,2.06-17.179,6.65-22.118c4.671-5.047,10.128-7.148,13.813-8.041
				c3.762-0.877,5.947-0.749,5.939-0.905c0.001-0.051-0.537-0.109-1.57-0.134c-1.029,0.006-2.561,0.072-4.498,0.442
				c-3.809,0.726-9.51,2.711-14.497,7.877c-4.898,5.056-8.681,13.622-7.272,23.089c0.611,4.611,2.271,9.316,1.541,14.062
				c-0.664,4.74-4.475,8.715-9.047,10.941c-4.648,2.264-9.81,3.031-14.711,3.951c-4.84,0.891-9.756,1.307-13.734-0.635
				c-1.969-0.926-3.646-2.355-4.646-4.102c-1.014-1.742-1.248-3.789-0.883-5.674c0.766-3.803,3.328-6.885,6.093-8.684
				c2.782-1.875,6.157-2,8.266-0.387c2.199,1.467,2.715,4.166,1.62,5.664c-0.979,1.583-2.539,2.106-3.482,2.102
				C13.009,239.678,12.546,239.32,12.509,239.4"/>
			<path fill="#090605" d="M12.509,278.15c0,0,0.381,0.479,1.467,0.629c1.041,0.105,2.81-0.348,4.013-2.085
				c1.376-1.677,0.856-5.007-1.618-6.713c-1.174-0.875-2.74-1.469-4.433-1.418c-1.679,0.042-3.394,0.626-4.941,1.573
				c-3.042,1.91-5.845,5.107-6.784,9.379c-0.447,2.113-0.215,4.546,0.957,6.604c1.152,2.061,3.048,3.681,5.227,4.728
				c4.451,2.203,9.734,1.719,14.625,0.848c4.905-0.906,10.18-1.65,15.144-4.059c4.876-2.363,9.126-6.725,9.874-12.114
				c0.759-5.31-1.029-10.063-1.63-14.511c-1.417-8.963,2.06-17.178,6.65-22.119c4.671-5.046,10.128-7.15,13.813-8.041
				c3.762-0.876,5.947-0.748,5.939-0.905c0.001-0.052-0.537-0.108-1.57-0.134c-1.029,0.006-2.561,0.072-4.498,0.439
				c-3.809,0.729-9.51,2.715-14.497,7.881c-4.898,5.055-8.681,13.622-7.272,23.088c0.611,4.612,2.271,9.314,1.541,14.061
				c-0.664,4.742-4.475,8.718-9.047,10.941c-4.648,2.265-9.81,3.033-14.711,3.954c-4.84,0.89-9.756,1.304-13.734-0.637
				c-1.969-0.925-3.646-2.354-4.646-4.101c-1.014-1.742-1.248-3.789-0.883-5.674c0.766-3.803,3.328-6.887,6.093-8.683
				c2.782-1.874,6.157-2.001,8.266-0.386c2.199,1.466,2.715,4.164,1.62,5.662c-0.979,1.582-2.539,2.106-3.482,2.103
				C13.009,278.43,12.546,278.07,12.509,278.15"/>
			<path fill="#7B5F45" d="M127.893,139.441"/>
			<path fill="#090605" d="M97.094,109.098c0.111,1.303,5.003,1.952,10.933,1.451c5.931-0.498,10.648-1.958,10.538-3.26
				c-0.112-1.3-5.006-1.948-10.937-1.449C101.701,106.34,96.984,107.799,97.094,109.098"/>
			<path fill="#090605" d="M143.042,111.978c0.701,1.134,4.044,0.38,7.839,1.159c2.811,0.463,5.062,1.51,6.504,1.799l5.603,1.118
				l-4.064-2.307c-0.513-0.289-0.938-0.36-1.24-0.188c-0.304,0.176-0.457,0.579-0.46,1.169l1.541-1.19
				c-0.367-1.56-2.99-4.379-7.049-5.053c-2.717-0.506-5.272,0.082-6.812,0.981C143.331,110.365,142.739,111.432,143.042,111.978"/>
			<path fill="#FFFFFF" d="M118.2,129.72c0,0,0.431-10.816-11.231-12.046c-9.794-1.035-11.816,10.066-11.816,10.066L118.2,129.72z"
				/>
			<path fill="#090605" d="M108.104,117.838l-2.854,10.772l12.949,1.109C118.2,129.72,118.187,118.996,108.104,117.838"/>
			<path fill="#090605" d="M94.745,125.908c0.261,0.104,0.847-1.814,3.019-3.9c2.067-2.063,6.116-4.199,10.551-3.382
				c4.426,0.895,7.383,4.392,8.533,7.075c1.235,2.748,1.062,4.746,1.345,4.742c0.14,0.052,0.759-2.014-0.312-5.156
				c-0.979-3.031-4.112-7.148-9.266-8.207c-5.175-0.938-9.617,1.71-11.657,4.156C94.792,123.753,94.593,125.9,94.745,125.908"/>
			<path fill="#FFFFFF" d="M161.45,130.471c0,0-0.467-10.817-12.191-11.078c-9.846-0.219-10.942,11.016-10.942,11.016
				L161.45,130.471z"/>
			<path fill="#090605" d="M150.403,119.465l-1.951,10.971l12.998,0.035C161.45,130.471,160.548,119.783,150.403,119.465"/>
			<path fill="#090605" d="M137.761,128.611c0.268,0.086,0.691-1.871,2.685-4.135c1.889-2.228,5.746-4.691,10.234-4.243
				c4.481,0.526,7.721,3.764,9.087,6.343c1.462,2.635,1.456,4.641,1.735,4.613c0.145,0.041,0.588-2.07-0.737-5.11
				c-1.227-2.942-4.691-6.784-9.914-7.412c-5.235-0.507-9.444,2.502-11.274,5.11C137.63,126.46,137.609,128.623,137.761,128.611"/>
			<g>
				<path fill="#090605" d="M90.539,269.33c0.035-0.024,0.309,0.284,0.666,0.979c0.35,0.697,0.691,1.854,0.613,3.365
					c-0.061,1.5-0.635,3.334-1.903,5.074c-1.253,1.712-3.396,3.363-6.166,3.703c-5.47,0.857-12.296-3.326-14.244-10.357
					c-1.036-3.424-1.108-7.237-0.445-10.995c0.66-3.778,2.027-7.479,3.536-11.149c3.062-7.26,6.101-14.301,5.593-21.032
					c-0.39-6.7-3.577-12.21-6.566-16.304c-3.045-4.138-5.987-7.14-7.979-9.236c-2.015-2.08-3.132-3.232-3.053-3.317
					c0.07-0.077,1.328,0.925,3.484,2.876c2.131,1.971,5.214,4.869,8.439,9.006c3.158,4.089,6.621,9.748,7.127,16.887
					c0.61,7.184-2.557,14.528-5.582,21.723c-1.498,3.639-2.828,7.232-3.476,10.817c-0.649,3.571-0.601,7.149,0.318,10.31
					c1.689,6.441,7.836,10.295,12.711,9.667c2.446-0.234,4.375-1.61,5.604-3.136c1.224-1.543,1.847-3.207,1.992-4.592
					C91.51,270.791,90.346,269.389,90.539,269.33z"/>
			</g>
			<g>
				<path fill="#7B5F45" d="M135.969,117.019c0,0-0.336,0.614-0.924,1.688c-0.587,1.07-1.413,2.596-2.376,4.42
					c-0.938,1.837-2.036,3.965-2.998,6.297c-0.961,2.314-1.863,4.855-2.1,7.316c-0.118,1.221-0.054,2.416,0.318,3.412l0.145,0.369
					c0.005,0.017,0.039,0.096,0.019,0.061l0.059,0.113l0.115,0.227c0.15,0.303,0.3,0.605,0.448,0.904
					c0.311,0.561,0.576,1.071,0.907,1.588c0.639,1.031,1.323,1.961,2.096,2.721c0.78,0.775,1.61,1.318,2.534,2.113
					c0.449,0.398,0.902,0.966,1.062,1.574c0.061,0.302,0.126,0.56,0.125,0.865l-0.003,0.334c-0.006,0.121-0.028,0.275-0.045,0.406
					c-0.136,1.061-0.812,1.745-1.356,2.09c-0.562,0.361-1.056,0.475-1.38,0.547c-0.328,0.064-0.506,0.064-0.506,0.064
					s0.165-0.067,0.446-0.227c0.28-0.156,0.678-0.43,1.056-0.842c0.372-0.409,0.66-1.029,0.594-1.682
					c-0.077-0.828-0.328-1.348-1.053-1.772c-0.746-0.442-1.923-0.969-2.937-1.774c-1.04-0.791-2.008-1.787-2.824-2.908
					c-0.429-0.539-0.815-1.183-1.188-1.77l-0.506-0.875l-0.124-0.221l-0.062-0.111l-0.082-0.174l-0.253-0.571
					c-0.654-1.551-0.719-3.21-0.591-4.736c0.154-1.537,0.524-2.989,1.006-4.349c0.476-1.361,1.06-2.636,1.681-3.826
					c0.614-1.194,1.301-2.288,1.967-3.307c0.658-1.023,1.34-1.949,1.987-2.783c1.288-1.677,2.481-2.971,3.343-3.848
					C135.43,117.475,135.969,117.019,135.969,117.019z"/>
			</g>
			<g>
				<path fill="#7B5F45" d="M130.192,154.129c0,0-0.468,0.414-1.23,0.749c-0.758,0.362-1.811,0.636-2.896,0.698
					c-1.081,0.061-2.207-0.1-3.021-0.489c-0.408-0.174-0.729-0.419-0.917-0.608c-0.187-0.223-0.246-0.35-0.246-0.35
					s0.145-0.007,0.396-0.019c0.115-0.018,0.255-0.039,0.415-0.063c0.148-0.02,0.336-0.076,0.516-0.096
					c0.748-0.161,1.733-0.312,2.75-0.371c1.016-0.053,2.055-0.003,2.861,0.164C129.622,153.883,130.192,154.129,130.192,154.129z"/>
			</g>
			<g>
				<g>
					<g>
						<path fill="none" stroke="#BA007C" stroke-width="3" stroke-linecap="round" stroke-linejoin="round" d="M88.341,217.894
							c0.086-0.069-5.356-6.441-5.271-6.51c0.607-0.492,22.001,22.053,22.607,21.562c0.44-0.356-17.203-20.346-16.764-20.702
							c0.732-0.594,25.971,27.213,26.703,26.62c0.214-0.174-9.646-11.475-9.433-11.647"/>
					</g>
				</g>
			</g>
			<g>
				<g>
					<g>
						<path fill="none" stroke="#BA007C" stroke-width="3" stroke-linecap="round" stroke-linejoin="round" d="M132.649,218.205
							c0.049,0.086,6.833-4.059,6.883-3.973c0.355,0.616-22.756,16.934-22.399,17.551c0.254,0.44,20.815-12.605,21.07-12.165
							c0.396,0.686-25.618,18.494-25.222,19.181c0.092,0.158,9.698-5.811,9.789-5.652"/>
					</g>
				</g>
			</g>
		</g>
		<g>
			<g>
				<g>
					<g>
						<path fill="#212020" d="M75.978,66.414l-0.129-1.438c-4.854,0.628-10.607,2.518-13.51,5.371
							c-2.289,1.853-3.113,4.368-2.566,7.153C63.035,71.514,69.105,66.613,75.978,66.414z"/>
						<path fill="#212020" d="M170.899,68.002c0.634,0.593,1.2,1.234,1.698,1.92c-0.141-2.541-1.395-4.684-3.782-6.121
							c-3.372-2.469-9.385-3.559-14.298-3.586l0.207,2.33C160.636,61.58,166.526,63.877,170.899,68.002z"/>
						<path fill="#413F3F" d="M124.935,96.139c-16.607,3.145-33.307,1.294-49.807-5.359c-5.655-2.3-9.871-6.049-14.073-9.879
							c5.37,9.777,25.55,20.899,57.447,19.277c33.149-2.389,51.289-16.883,53.803-27.34
							C162.37,88.199,142.133,92.836,124.935,96.139z"/>
						<path fill="#2D2B2B" d="M75.128,90.779c16.5,6.653,33.199,8.504,49.807,5.359c17.198-3.303,37.435-7.939,47.37-23.301
							c0.243-1.016,0.343-1.994,0.292-2.916c-0.498-0.686-1.064-1.327-1.698-1.92c-4.373-4.125-10.263-6.422-16.175-5.457
							l0.541,6.119c-10.488,6.929-22.75,11.834-38.41,12.793c-15.674,0.967-28.664-2.464-40.256-8.034l-0.621-7.009
							c-6.873,0.199-12.943,5.1-16.205,11.086c0.215,1.1,0.646,2.238,1.282,3.4C65.257,84.73,69.473,88.479,75.128,90.779z"/>
						<path fill="#2D2B2B" d="M136.045,20.004c-7.528-4.615-15.813-5.804-24.601-5.881c-14.431-0.106-25.946,7.699-33.433,18.635
							c-2.638,5.846-3.856,12.594-3.23,19.69l0.421,4.725l0.712,8.1c11.108,5.333,25.137,8.126,40.143,7.204
							c15.007-0.92,28.392-5.402,38.438-12.035l-0.719-8.09l-0.416-4.73c-0.485-5.521-2.043-10.697-4.422-15.294
							C144.834,27.809,141.473,23.124,136.045,20.004z"/>
						<path fill="#212020" d="M115.897,12.329l-10.258,0.624c-12.385,0.766-22.593,8.643-27.627,19.805
							c7.486-10.936,19.002-18.741,33.433-18.635c8.787,0.077,17.072,1.266,24.601,5.881c5.428,3.12,8.789,7.805,12.894,12.323
							C142.418,19.729,129.721,11.477,115.897,12.329z"/>
					</g>
				</g>
			</g>
			<g>
				<path d="M116.868,81.52c15.661-0.962,27.922-5.865,38.412-12.797l-0.729-8.257l-0.043-0.005l0.002,0.037
					c-10.051,6.638-23.432,11.119-38.437,12.039c-15.005,0.922-29.024-1.87-40.125-7.199l-0.054,0.025l0.72,8.119
					C88.206,79.054,101.196,82.479,116.868,81.52z"/>
			</g>
		</g>
	</g>
</g>
</svg>
