<?xml version="1.0" encoding="utf-8"?>
<!-- Generator: Adobe Illustrator 16.0.0, SVG Export Plug-In . SVG Version: 6.00 Build 0)  -->
<!DOCTYPE svg PUBLIC "-//W3C//DTD SVG 1.1//EN" "http://www.w3.org/Graphics/SVG/1.1/DTD/svg11.dtd">
<svg version="1.1" id="Capa_1" xmlns="http://www.w3.org/2000/svg" xmlns:xlink="http://www.w3.org/1999/xlink" x="0px" y="0px"
	 width="286.664px" height="39.674px" viewBox="0 0 286.664 39.674" enable-background="new 0 0 286.664 39.674"
	 xml:space="preserve">
<g>
	<path fill="#FFFFFF" d="M1.163,9.865V5.113C3.538,5.162,5.89,5.186,8.216,5.186c3.619,0,7.166-0.055,10.64-0.162l0.219,5.059
		h-6.108c0,8.562,0.122,15.355,0.364,20.379l-6.835,0.252c0.355-8.551,0.614-15.524,0.775-20.92L1.163,9.865z"/>
	<path fill="#FFFFFF" d="M29.083,12.665c5.607,0,8.41,2.776,8.41,8.329c0,0.674-0.04,1.396-0.121,2.168H26.539
		c0,3.095,0.8,4.643,2.399,4.643h0.169c1.406-0.084,2.108-0.885,2.108-2.402c0-0.326-0.032-0.688-0.097-1.084l5.769-0.091
		c0,4.589-2.69,6.913-8.071,6.974c-0.064,0.012-0.121,0.018-0.169,0.018c-5.122,0-7.683-2.896-7.683-8.689v-0.542
		C21.126,15.772,23.832,12.665,29.083,12.665z M25.957,19.838h5.478v-0.434c0-2.192-0.833-3.289-2.496-3.289
		C27.145,16.115,26.151,17.356,25.957,19.838z M26.345,9.143c1.891-1.675,3.441-3.271,4.653-4.788l3.975,2.349
		c-1.713,1.253-3.619,2.788-5.72,4.607L26.345,9.143z"/>
	<path fill="#FFFFFF" d="M49.224,23.775l5.769,0.271c0,4.348-2.69,6.553-8.071,6.612c-0.064,0.013-0.121,0.019-0.169,0.019
		c-5.122,0-7.683-2.896-7.683-8.69v-0.542c0.161-6.215,2.892-9.353,8.191-9.412h0.193c4.88,0,7.319,2.083,7.319,6.25
		c0,0.241-0.008,0.482-0.023,0.723l-5.211,0.289v-0.434c0-2.191-0.833-3.287-2.496-3.287c-1.697,0-2.545,1.776-2.545,5.329V21.5
		c0.097,3.842,0.953,5.763,2.568,5.763h0.146c1.406-0.084,2.108-0.886,2.108-2.403C49.32,24.535,49.288,24.174,49.224,23.775z"/>
	<path fill="#FFFFFF" d="M61.463,12.195l0.242,2.945c0.679-1.566,2.464-2.361,5.356-2.385h0.097c2.844,0,4.783,0.83,5.817,2.492
		c0.71,1.133,1.066,3.782,1.066,7.949c0,2.048-0.09,4.469-0.267,7.264H67.91c0.21-3.723,0.314-6.606,0.314-8.654
		c0-1.023-0.023-1.843-0.072-2.457c-0.162-1.807-0.938-2.71-2.327-2.71s-2.262,0.481-2.617,1.445l0.242,13.099l-5.695,0.035
		c0-5.54-0.251-11.761-0.751-18.662L61.463,12.195z"/>
	<path fill="#FFFFFF" d="M82.839,8.51c0,0.734-0.348,1.361-1.042,1.879c-0.695,0.518-1.536,0.777-2.521,0.777
		c-0.969,0-1.802-0.26-2.496-0.777s-1.042-1.145-1.042-1.879c0-0.723,0.348-1.343,1.042-1.861c0.694-0.518,1.527-0.776,2.496-0.776
		c0.985,0,1.826,0.259,2.521,0.776C82.491,7.167,82.839,7.787,82.839,8.51z M76.344,31.31c-0.113-7.046-0.17-13.134-0.17-18.265
		l6.107-0.271c-0.194,4.914-0.291,9.798-0.291,14.652c0,1.301,0.008,2.596,0.024,3.884H76.344z"/>
	<path fill="#FFFFFF" d="M94.084,23.775l5.769,0.271c0,4.348-2.69,6.553-8.071,6.612c-0.064,0.013-0.121,0.019-0.169,0.019
		c-5.122,0-7.683-2.896-7.683-8.69v-0.542c0.161-6.215,2.892-9.353,8.191-9.412h0.193c4.88,0,7.319,2.083,7.319,6.25
		c0,0.241-0.008,0.482-0.023,0.723l-5.211,0.289v-0.434c0-2.191-0.833-3.287-2.496-3.287c-1.697,0-2.545,1.776-2.545,5.329V21.5
		c0.097,3.842,0.953,5.763,2.568,5.763h0.146c1.406-0.084,2.108-0.886,2.108-2.403C94.181,24.535,94.148,24.174,94.084,23.775z"/>
	<path fill="#FFFFFF" d="M111.243,12.141c5.315,0.217,7.974,2.211,7.974,5.98v12.827l-5.646,0.072l-0.194-1.716
		c-1.163,0.987-2.706,1.48-4.629,1.48c-0.824,0-1.713-0.096-2.666-0.289c-2.859-0.529-4.29-2.18-4.29-4.949
		c0-0.338,0.024-0.699,0.073-1.084c0.322-2.855,3.045-4.282,8.167-4.282c0.985,0,2.068,0.054,3.248,0.163v-2.096
		c0-1.699-0.72-2.548-2.157-2.548h-0.097c-0.113-0.012-0.219-0.019-0.315-0.019c-1.567,0-2.351,0.952-2.351,2.855v0.271
		l-5.769-0.361c0-4.203,2.715-6.306,8.144-6.306H111.243z M113.279,26.414v-3.18c-0.695-0.109-1.325-0.163-1.891-0.163
		c-1.471,0-2.472,0.367-3.005,1.103c-0.323,0.445-0.485,0.861-0.485,1.246c0,0.482,0.259,0.909,0.775,1.283
		c0.404,0.289,0.93,0.434,1.576,0.434C111.073,27.137,112.083,26.896,113.279,26.414z"/>
	<path fill="#FFFFFF" d="M138.072,12.665c5.607,0,8.41,2.776,8.41,8.329c0,0.674-0.04,1.396-0.121,2.168h-10.833
		c0,3.095,0.8,4.643,2.399,4.643h0.169c1.406-0.084,2.108-0.885,2.108-2.402c0-0.326-0.032-0.688-0.097-1.084l5.769-0.091
		c0,4.589-2.69,6.913-8.071,6.974c-0.064,0.012-0.121,0.018-0.169,0.018c-5.122,0-7.683-2.896-7.683-8.689v-0.542
		C130.115,15.772,132.821,12.665,138.072,12.665z M134.946,19.838h5.478v-0.434c0-2.192-0.833-3.289-2.496-3.289
		C136.134,16.115,135.141,17.356,134.946,19.838z"/>
	<path fill="#FFFFFF" d="M154.384,12.322l2.545,7.1l2.521-7.154l6.398,0.561c-1.487,2.348-3.07,5.209-4.751,8.581
		c1.487,2.915,3.127,5.896,4.92,8.942l-6.252,0.506l-3.055-6.955l-2.908,6.901l-5.938-0.578c1.729-2.927,3.36-5.806,4.896-8.636
		l-4.75-8.545L154.384,12.322z"/>
	<path fill="#FFFFFF" d="M168.126,38.428c0.097-4.059,0.146-8.377,0.146-12.953c0-4.168-0.041-8.54-0.122-13.117l5.744-0.018
		l0.194,2.782c1.195-1.349,2.787-2.023,4.774-2.023c4.96,0,7.44,2.921,7.44,8.763v0.361c-0.113,5.854-2.585,8.779-7.416,8.779
		c-0.194,0-0.388-0.006-0.582-0.018c-1.648-0.061-2.981-0.729-3.999-2.006c0,2.674,0.089,5.824,0.267,9.449H168.126z
		 M174.185,18.826l0.121,6.793c0.938,0.951,1.882,1.427,2.836,1.427c0.388,0,0.775-0.084,1.163-0.253
		c1.18-0.481,1.77-1.921,1.77-4.318c0-0.289-0.009-0.59-0.024-0.902c-0.162-2.939-0.945-4.486-2.351-4.644
		c-0.146-0.012-0.283-0.019-0.412-0.019C176.059,16.91,175.024,17.549,174.185,18.826z"/>
	<path fill="#FFFFFF" d="M194.664,18.266l0.242,13.098l-5.938,0.037c0-5.541-0.251-11.762-0.751-18.663l4.459-0.361l0.242,2.944
		c0.679-1.445,2.263-2.27,4.751-2.475c0.371-0.023,0.727-0.036,1.066-0.036c1.954,0,3.441,0.476,4.459,1.427
		c1.18,1.133,1.777,2.934,1.794,5.402l-5.381,0.397c0.016-0.204,0.024-0.403,0.024-0.597c0-1.927-0.671-2.891-2.012-2.891h-0.097
		C195.973,16.609,195.02,17.182,194.664,18.266z"/>
	<path fill="#FFFFFF" d="M214.489,12.665c5.607,0,8.41,2.776,8.41,8.329c0,0.674-0.04,1.396-0.121,2.168h-10.833
		c0,3.095,0.8,4.643,2.399,4.643h0.169c1.406-0.084,2.108-0.885,2.108-2.402c0-0.326-0.032-0.688-0.097-1.084l5.769-0.091
		c0,4.589-2.69,6.913-8.071,6.974c-0.064,0.012-0.121,0.018-0.169,0.018c-5.122,0-7.683-2.896-7.683-8.689v-0.542
		C206.532,15.772,209.238,12.665,214.489,12.665z M211.363,19.838h5.478v-0.434c0-2.192-0.833-3.289-2.496-3.289
		C212.551,16.115,211.558,17.356,211.363,19.838z"/>
	<path fill="#FFFFFF" d="M224.426,24.806l5.55-0.198v0.234c0,1.855,0.768,2.795,2.303,2.818h0.097c1.486,0,2.229-0.536,2.229-1.607
		v-0.127c-0.064-1.18-1.53-2.132-4.398-2.854s-4.593-1.938-5.175-3.649c-0.21-0.602-0.314-1.18-0.314-1.734
		c0-1.012,0.347-1.951,1.042-2.818c1.066-1.324,2.682-2.084,4.847-2.276c0.582-0.048,1.147-0.072,1.697-0.072
		c1.438,0,2.706,0.187,3.805,0.56c1.503,0.519,2.545,1.26,3.127,2.223c0.388,0.662,0.581,1.397,0.581,2.204
		c0,0.386-0.04,0.783-0.121,1.192l-5.187,0.09c0.049-0.301,0.073-0.578,0.073-0.83c0-1.205-0.518-1.85-1.552-1.934
		c-0.113-0.012-0.227-0.018-0.339-0.018c-1.066,0-1.786,0.403-2.157,1.21c-0.13,0.277-0.194,0.53-0.194,0.759
		c0,0.566,0.355,1.054,1.066,1.463c1.002,0.578,2.484,1.166,4.447,1.762c1.964,0.597,3.284,1.611,3.963,3.045
		c0.242,0.541,0.363,1.084,0.363,1.625c0,0.916-0.355,1.838-1.066,2.765c-1.131,1.481-2.884,2.343-5.259,2.583
		c-0.518,0.061-1.026,0.091-1.527,0.091c-1.777,0-3.425-0.343-4.943-1.03C225.443,29.4,224.458,27.576,224.426,24.806z"/>
	<path fill="#FFFFFF" d="M248.711,8.51c0,0.734-0.348,1.361-1.042,1.879c-0.695,0.518-1.536,0.777-2.521,0.777
		c-0.969,0-1.802-0.26-2.496-0.777s-1.042-1.145-1.042-1.879c0-0.723,0.348-1.343,1.042-1.861c0.694-0.518,1.527-0.776,2.496-0.776
		c0.985,0,1.826,0.259,2.521,0.776C248.363,7.167,248.711,7.787,248.711,8.51z M242.216,31.31c-0.113-7.046-0.17-13.134-0.17-18.265
		l6.107-0.271c-0.194,4.914-0.291,9.798-0.291,14.652c0,1.301,0.008,2.596,0.024,3.884H242.216z"/>
	<path fill="#FFFFFF" d="M254.552,30.75c-2.036-6.975-3.862-12.96-5.478-17.959l5.89-0.234l2.98,13.135
		c1.552-4.914,2.787-9.395,3.708-13.441l5.793,0.541c-1.826,5.047-3.95,11.009-6.374,17.887L254.552,30.75z"/>
	<path fill="#FFFFFF" d="M277.721,12.141c5.315,0.217,7.974,2.211,7.974,5.98v12.827l-5.646,0.072l-0.194-1.716
		c-1.163,0.987-2.706,1.48-4.629,1.48c-0.824,0-1.713-0.096-2.666-0.289c-2.859-0.529-4.29-2.18-4.29-4.949
		c0-0.338,0.024-0.699,0.073-1.084c0.322-2.855,3.045-4.282,8.167-4.282c0.985,0,2.068,0.054,3.248,0.163v-2.096
		c0-1.699-0.72-2.548-2.157-2.548h-0.097c-0.113-0.012-0.219-0.019-0.315-0.019c-1.567,0-2.351,0.952-2.351,2.855v0.271
		l-5.769-0.361c0-4.203,2.715-6.306,8.144-6.306H277.721z M279.757,26.414v-3.18c-0.695-0.109-1.325-0.163-1.891-0.163
		c-1.471,0-2.472,0.367-3.005,1.103c-0.323,0.445-0.485,0.861-0.485,1.246c0,0.482,0.259,0.909,0.775,1.283
		c0.404,0.289,0.93,0.434,1.576,0.434C277.551,27.137,278.561,26.896,279.757,26.414z"/>
</g>
</svg>
