<?xml version="1.0" encoding="utf-8"?>
<!-- Generator: Adobe Illustrator 16.0.0, SVG Export Plug-In . SVG Version: 6.00 Build 0)  -->
<!DOCTYPE svg PUBLIC "-//W3C//DTD SVG 1.1//EN" "http://www.w3.org/Graphics/SVG/1.1/DTD/svg11.dtd">
<svg version="1.1" id="Capa_1" xmlns="http://www.w3.org/2000/svg" xmlns:xlink="http://www.w3.org/1999/xlink" x="0px" y="0px"
	 width="348.297px" height="39.674px" viewBox="0 0 348.297 39.674" enable-background="new 0 0 348.297 39.674"
	 xml:space="preserve">
<g>
	<path fill="#FFFFFF" d="M1.163,9.865V5.113C3.538,5.162,5.89,5.186,8.216,5.186c3.619,0,7.166-0.055,10.64-0.162l0.219,5.059
		h-6.108c0,8.562,0.122,15.355,0.364,20.379l-6.835,0.252c0.355-8.551,0.614-15.524,0.775-20.92L1.163,9.865z"/>
	<path fill="#FFFFFF" d="M29.083,12.665c5.607,0,8.41,2.776,8.41,8.329c0,0.674-0.04,1.396-0.121,2.168H26.539
		c0,3.095,0.8,4.643,2.399,4.643h0.169c1.406-0.084,2.108-0.885,2.108-2.402c0-0.326-0.032-0.688-0.097-1.084l5.769-0.091
		c0,4.589-2.69,6.913-8.071,6.974c-0.064,0.012-0.121,0.018-0.169,0.018c-5.122,0-7.683-2.896-7.683-8.689v-0.542
		C21.126,15.772,23.832,12.665,29.083,12.665z M25.957,19.838h5.478v-0.434c0-2.192-0.833-3.289-2.496-3.289
		C27.145,16.115,26.151,17.356,25.957,19.838z M26.345,9.143c1.891-1.675,3.441-3.271,4.653-4.788l3.975,2.349
		c-1.713,1.253-3.619,2.788-5.72,4.607L26.345,9.143z"/>
	<path fill="#FFFFFF" d="M49.224,23.775l5.769,0.271c0,4.348-2.69,6.553-8.071,6.612c-0.064,0.013-0.121,0.019-0.169,0.019
		c-5.122,0-7.683-2.896-7.683-8.69v-0.542c0.161-6.215,2.892-9.353,8.191-9.412h0.193c4.88,0,7.319,2.083,7.319,6.25
		c0,0.241-0.008,0.482-0.023,0.723l-5.211,0.289v-0.434c0-2.191-0.833-3.287-2.496-3.287c-1.697,0-2.545,1.776-2.545,5.329V21.5
		c0.097,3.842,0.953,5.763,2.568,5.763h0.146c1.406-0.084,2.108-0.886,2.108-2.403C49.32,24.535,49.288,24.174,49.224,23.775z"/>
	<path fill="#FFFFFF" d="M61.463,12.195l0.242,2.945c0.679-1.566,2.464-2.361,5.356-2.385h0.097c2.844,0,4.783,0.83,5.817,2.492
		c0.71,1.133,1.066,3.782,1.066,7.949c0,2.048-0.09,4.469-0.267,7.264H67.91c0.21-3.723,0.314-6.606,0.314-8.654
		c0-1.023-0.023-1.843-0.072-2.457c-0.162-1.807-0.938-2.71-2.327-2.71s-2.262,0.481-2.617,1.445l0.242,13.099l-5.695,0.035
		c0-5.54-0.251-11.761-0.751-18.662L61.463,12.195z"/>
	<path fill="#FFFFFF" d="M82.839,8.51c0,0.734-0.348,1.361-1.042,1.879c-0.695,0.518-1.536,0.777-2.521,0.777
		c-0.969,0-1.802-0.26-2.496-0.777s-1.042-1.145-1.042-1.879c0-0.723,0.348-1.343,1.042-1.861c0.694-0.518,1.527-0.776,2.496-0.776
		c0.985,0,1.826,0.259,2.521,0.776C82.491,7.167,82.839,7.787,82.839,8.51z M76.344,31.31c-0.113-7.046-0.17-13.134-0.17-18.265
		l6.107-0.271c-0.194,4.914-0.291,9.798-0.291,14.652c0,1.301,0.008,2.596,0.024,3.884H76.344z"/>
	<path fill="#FFFFFF" d="M94.084,23.775l5.769,0.271c0,4.348-2.69,6.553-8.071,6.612c-0.064,0.013-0.121,0.019-0.169,0.019
		c-5.122,0-7.683-2.896-7.683-8.69v-0.542c0.161-6.215,2.892-9.353,8.191-9.412h0.193c4.88,0,7.319,2.083,7.319,6.25
		c0,0.241-0.008,0.482-0.023,0.723l-5.211,0.289v-0.434c0-2.191-0.833-3.287-2.496-3.287c-1.697,0-2.545,1.776-2.545,5.329V21.5
		c0.097,3.842,0.953,5.763,2.568,5.763h0.146c1.406-0.084,2.108-0.886,2.108-2.403C94.181,24.535,94.148,24.174,94.084,23.775z"/>
	<path fill="#FFFFFF" d="M111.243,12.141c5.315,0.217,7.974,2.211,7.974,5.98v12.827l-5.646,0.072l-0.194-1.716
		c-1.163,0.987-2.706,1.48-4.629,1.48c-0.824,0-1.713-0.096-2.666-0.289c-2.859-0.529-4.29-2.18-4.29-4.949
		c0-0.338,0.024-0.699,0.073-1.084c0.322-2.855,3.045-4.282,8.167-4.282c0.985,0,2.068,0.054,3.248,0.163v-2.096
		c0-1.699-0.72-2.548-2.157-2.548h-0.097c-0.113-0.012-0.219-0.019-0.315-0.019c-1.567,0-2.351,0.952-2.351,2.855v0.271
		l-5.769-0.361c0-4.203,2.715-6.306,8.144-6.306H111.243z M113.279,26.414v-3.18c-0.695-0.109-1.325-0.163-1.891-0.163
		c-1.471,0-2.472,0.367-3.005,1.103c-0.323,0.445-0.485,0.861-0.485,1.246c0,0.482,0.259,0.909,0.775,1.283
		c0.404,0.289,0.93,0.434,1.576,0.434C111.073,27.137,112.083,26.896,113.279,26.414z"/>
	<path fill="#FFFFFF" d="M130.342,38.428c0.097-4.059,0.146-8.377,0.146-12.953c0-4.168-0.041-8.54-0.122-13.117l5.744-0.018
		l0.194,2.782c1.195-1.349,2.787-2.023,4.774-2.023c4.96,0,7.44,2.921,7.44,8.763v0.361c-0.113,5.854-2.585,8.779-7.416,8.779
		c-0.194,0-0.388-0.006-0.582-0.018c-1.648-0.061-2.981-0.729-3.999-2.006c0,2.674,0.089,5.824,0.267,9.449H130.342z M136.4,18.826
		l0.121,6.793c0.938,0.951,1.882,1.427,2.836,1.427c0.388,0,0.775-0.084,1.163-0.253c1.18-0.481,1.77-1.921,1.77-4.318
		c0-0.289-0.009-0.59-0.024-0.902c-0.162-2.939-0.945-4.486-2.351-4.644c-0.146-0.012-0.283-0.019-0.412-0.019
		C138.274,16.91,137.24,17.549,136.4,18.826z"/>
	<path fill="#FFFFFF" d="M158.31,12.665c5.607,0,8.41,2.776,8.41,8.329c0,0.674-0.04,1.396-0.121,2.168h-10.833
		c0,3.095,0.8,4.643,2.399,4.643h0.169c1.406-0.084,2.108-0.885,2.108-2.402c0-0.326-0.032-0.688-0.097-1.084l5.769-0.091
		c0,4.589-2.69,6.913-8.071,6.974c-0.064,0.012-0.121,0.018-0.169,0.018c-5.122,0-7.683-2.896-7.683-8.689v-0.542
		C150.353,15.772,153.059,12.665,158.31,12.665z M155.184,19.838h5.478v-0.434c0-2.192-0.833-3.289-2.496-3.289
		C156.371,16.115,155.378,17.356,155.184,19.838z"/>
	<path fill="#FFFFFF" d="M174.984,18.266l0.242,13.098l-5.938,0.037c0-5.541-0.251-11.762-0.751-18.663l4.459-0.361l0.242,2.944
		c0.679-1.445,2.263-2.27,4.751-2.475c0.371-0.023,0.727-0.036,1.066-0.036c1.954,0,3.441,0.476,4.459,1.427
		c1.18,1.133,1.777,2.934,1.794,5.402l-5.381,0.397c0.016-0.204,0.024-0.403,0.024-0.597c0-1.927-0.671-2.891-2.012-2.891h-0.097
		C176.293,16.609,175.34,17.182,174.984,18.266z"/>
	<path fill="#FFFFFF" d="M190.472,13.315c-0.032-0.325-0.049-0.656-0.049-0.993c0-1.133,0.154-2.295,0.461-3.487
		c0.371-1.554,1.503-2.794,3.393-3.722c1.406-0.698,3.184-1.048,5.332-1.048c0.711,0,1.471,0.042,2.278,0.126l-0.048,3.957
		c-0.485-0.048-0.938-0.072-1.357-0.072c-1.342,0-2.327,0.247-2.957,0.74c-0.695,0.519-1.042,1.53-1.042,3.035
		c0,0.361,0.024,0.76,0.072,1.193l5.187-0.055v3.668l-5.332,0.252c0.13,3.951,0.194,7.685,0.194,11.201
		c0,1.061-0.009,2.096-0.024,3.107l-6.156,0.199c0.049-4.011,0.13-8.756,0.243-14.236l-3.927,0.145l-0.097-3.885L190.472,13.315z"/>
	<path fill="#FFFFFF" d="M212.405,12.665c5.493,0,8.24,2.843,8.24,8.527c0,0.229-0.009,0.458-0.024,0.687
		c-0.227,6.154-3.151,9.262-8.773,9.322c-0.065,0.012-0.13,0.018-0.194,0.018c-5.348,0-8.021-2.908-8.021-8.726v-0.506
		C203.793,15.772,206.718,12.665,212.405,12.665z M211.605,16.784c-1.019,0.265-1.713,1.247-2.085,2.944
		c-0.227,1.012-0.339,2.03-0.339,3.054c0,0.687,0.048,1.379,0.146,2.077c0.258,1.734,1.091,2.633,2.496,2.692h0.17
		c1.309,0,2.205-0.645,2.689-1.933c0.404-1.072,0.606-2.343,0.606-3.812c0-0.361-0.009-0.729-0.024-1.102
		c-0.13-1.939-0.518-3.15-1.163-3.632c-0.404-0.289-0.889-0.434-1.454-0.434C212.324,16.64,211.977,16.688,211.605,16.784z"/>
	<path fill="#FFFFFF" d="M228.425,18.266l0.242,13.098l-5.938,0.037c0-5.541-0.251-11.762-0.751-18.663l4.459-0.361l0.242,2.944
		c0.679-1.445,2.263-2.27,4.751-2.475c0.371-0.023,0.727-0.036,1.066-0.036c1.954,0,3.441,0.476,4.459,1.427
		c1.18,1.133,1.777,2.934,1.794,5.402l-5.381,0.397c0.016-0.204,0.024-0.403,0.024-0.597c0-1.927-0.671-2.891-2.012-2.891h-0.097
		C229.733,16.609,228.78,17.182,228.425,18.266z"/>
	<path fill="#FFFFFF" d="M244.275,12.285l0.098,2.891c0.872-1.385,1.882-2.246,3.029-2.583c0.679-0.192,1.365-0.289,2.06-0.289
		c0.518,0,1.034,0.048,1.552,0.145c1.26,0.241,2.156,1.204,2.689,2.891c0.421-1.312,1.147-2.188,2.182-2.629
		c1.034-0.439,2.182-0.665,3.441-0.677h0.097c1.229,0,2.408,0.223,3.539,0.668c1.146,0.458,2.023,1.316,2.63,2.574
		c0.605,1.259,0.925,2.984,0.957,5.176v10.497l-5.235,0.091c0.21-3.963,0.315-7.336,0.315-10.117c0-2.783-0.711-4.282-2.133-4.499
		c-0.21-0.024-0.412-0.036-0.606-0.036c-1.131,0-2.003,0.542-2.617,1.626c-0.097,1.253-0.146,2.716-0.146,4.39
		c0,2.277,0.089,4.933,0.267,7.968l-6.059,0.036c0.226-4.661,0.339-8.058,0.339-10.189V20c-0.016-2.107-0.573-3.216-1.672-3.324
		h-0.315c-0.985,0-1.938,0.422-2.859,1.265l0.048,13.225l-5.72,0.163v-2.963c0-5.252-0.104-10.497-0.314-15.736L244.275,12.285z"/>
	<path fill="#FFFFFF" d="M277.382,12.141c5.315,0.217,7.974,2.211,7.974,5.98v12.827l-5.646,0.072l-0.194-1.716
		c-1.163,0.987-2.706,1.48-4.629,1.48c-0.824,0-1.713-0.096-2.666-0.289c-2.859-0.529-4.29-2.18-4.29-4.949
		c0-0.338,0.024-0.699,0.073-1.084c0.322-2.855,3.045-4.282,8.167-4.282c0.985,0,2.068,0.054,3.248,0.163v-2.096
		c0-1.699-0.72-2.548-2.157-2.548h-0.097c-0.113-0.012-0.219-0.019-0.315-0.019c-1.567,0-2.351,0.952-2.351,2.855v0.271
		l-5.769-0.361c0-4.203,2.715-6.306,8.144-6.306H277.382z M279.418,26.414v-3.18c-0.695-0.109-1.325-0.163-1.891-0.163
		c-1.471,0-2.472,0.367-3.005,1.103c-0.323,0.445-0.485,0.861-0.485,1.246c0,0.482,0.259,0.909,0.775,1.283
		c0.404,0.289,0.93,0.434,1.576,0.434C277.212,27.137,278.222,26.896,279.418,26.414z"/>
	<path fill="#FFFFFF" d="M291.342,6.902l5.502-0.271v5.98l4.629-0.091l0.073,3.415l-4.702,0.162v8.221
		c0,1.914,1.091,2.872,3.271,2.872c0.452,0,0.945-0.042,1.479-0.126l-0.218,3.975c-0.775,0.072-1.511,0.107-2.206,0.107
		c-5.105,0-7.707-1.963-7.804-5.889v-8.835l-3.975,0.181l-0.097-4.029l4.071,0.037L291.342,6.902z"/>
	<path fill="#FFFFFF" d="M310.344,8.51c0,0.734-0.348,1.361-1.042,1.879c-0.695,0.518-1.536,0.777-2.521,0.777
		c-0.969,0-1.802-0.26-2.496-0.777s-1.042-1.145-1.042-1.879c0-0.723,0.348-1.343,1.042-1.861c0.694-0.518,1.527-0.776,2.496-0.776
		c0.985,0,1.826,0.259,2.521,0.776C309.996,7.167,310.344,7.787,310.344,8.51z M303.849,31.31c-0.113-7.046-0.17-13.134-0.17-18.265
		l6.107-0.271c-0.194,4.914-0.291,9.798-0.291,14.652c0,1.301,0.008,2.596,0.024,3.884H303.849z"/>
	<path fill="#FFFFFF" d="M316.184,30.75c-2.036-6.975-3.862-12.96-5.478-17.959l5.89-0.234l2.98,13.135
		c1.552-4.914,2.787-9.395,3.708-13.441l5.793,0.541c-1.826,5.047-3.95,11.009-6.374,17.887L316.184,30.75z"/>
	<path fill="#FFFFFF" d="M339.354,12.141c5.315,0.217,7.974,2.211,7.974,5.98v12.827l-5.646,0.072l-0.194-1.716
		c-1.163,0.987-2.706,1.48-4.629,1.48c-0.824,0-1.713-0.096-2.666-0.289c-2.859-0.529-4.29-2.18-4.29-4.949
		c0-0.338,0.024-0.699,0.073-1.084c0.322-2.855,3.045-4.282,8.167-4.282c0.985,0,2.068,0.054,3.248,0.163v-2.096
		c0-1.699-0.72-2.548-2.157-2.548h-0.097c-0.113-0.012-0.219-0.019-0.315-0.019c-1.567,0-2.351,0.952-2.351,2.855v0.271
		l-5.769-0.361c0-4.203,2.715-6.306,8.144-6.306H339.354z M341.39,26.414v-3.18c-0.695-0.109-1.325-0.163-1.891-0.163
		c-1.471,0-2.472,0.367-3.005,1.103c-0.323,0.445-0.485,0.861-0.485,1.246c0,0.482,0.259,0.909,0.775,1.283
		c0.404,0.289,0.93,0.434,1.576,0.434C339.184,27.137,340.193,26.896,341.39,26.414z"/>
</g>
</svg>
