<?xml version="1.0" encoding="utf-8"?>
<!-- Generator: Adobe Illustrator 16.0.0, SVG Export Plug-In . SVG Version: 6.00 Build 0)  -->
<!DOCTYPE svg PUBLIC "-//W3C//DTD SVG 1.1//EN" "http://www.w3.org/Graphics/SVG/1.1/DTD/svg11.dtd">
<svg version="1.1" id="Capa_1" xmlns="http://www.w3.org/2000/svg" xmlns:xlink="http://www.w3.org/1999/xlink" x="0px" y="0px"
	 width="285.622px" height="39.674px" viewBox="0 0 285.622 39.674" enable-background="new 0 0 285.622 39.674"
	 xml:space="preserve">
<g>
	<path fill="#FFFFFF" d="M1.163,9.864V5.113C3.538,5.161,5.89,5.186,8.216,5.186c3.619,0,7.166-0.055,10.64-0.163l0.219,5.059
		h-6.108c0,8.563,0.122,15.356,0.364,20.379l-6.835,0.253c0.355-8.551,0.614-15.525,0.775-20.921L1.163,9.864z"/>
	<path fill="#FFFFFF" d="M29.083,12.664c5.607,0,8.41,2.777,8.41,8.329c0,0.675-0.04,1.397-0.121,2.168H26.539
		c0,3.096,0.8,4.644,2.399,4.644h0.169c1.406-0.085,2.108-0.886,2.108-2.403c0-0.325-0.032-0.687-0.097-1.084l5.769-0.091
		c0,4.59-2.69,6.914-8.071,6.975c-0.064,0.012-0.121,0.018-0.169,0.018c-5.122,0-7.683-2.896-7.683-8.689v-0.543
		C21.126,15.771,23.832,12.664,29.083,12.664z M25.957,19.837h5.478v-0.434c0-2.192-0.833-3.288-2.496-3.288
		C27.145,16.115,26.151,17.355,25.957,19.837z M26.345,9.142c1.891-1.674,3.441-3.271,4.653-4.788l3.975,2.35
		c-1.713,1.252-3.619,2.788-5.72,4.606L26.345,9.142z"/>
	<path fill="#FFFFFF" d="M49.224,23.775l5.769,0.271c0,4.348-2.69,6.552-8.071,6.611c-0.064,0.013-0.121,0.019-0.169,0.019
		c-5.122,0-7.683-2.896-7.683-8.69v-0.541c0.161-6.215,2.892-9.353,8.191-9.413h0.193c4.88,0,7.319,2.084,7.319,6.251
		c0,0.241-0.008,0.482-0.023,0.723l-5.211,0.289v-0.434c0-2.191-0.833-3.288-2.496-3.288c-1.697,0-2.545,1.776-2.545,5.329v0.597
		c0.097,3.843,0.953,5.763,2.568,5.763h0.146c1.406-0.084,2.108-0.885,2.108-2.402C49.32,24.534,49.288,24.173,49.224,23.775z"/>
	<path fill="#FFFFFF" d="M61.463,12.195l0.242,2.944c0.679-1.565,2.464-2.36,5.356-2.385h0.097c2.844,0,4.783,0.831,5.817,2.493
		c0.71,1.133,1.066,3.782,1.066,7.949c0,2.048-0.09,4.469-0.267,7.263H67.91c0.21-3.722,0.314-6.606,0.314-8.653
		c0-1.024-0.023-1.844-0.072-2.457c-0.162-1.807-0.938-2.711-2.327-2.711s-2.262,0.482-2.617,1.445l0.242,13.099l-5.695,0.036
		c0-5.54-0.251-11.762-0.751-18.662L61.463,12.195z"/>
	<path fill="#FFFFFF" d="M82.839,8.51c0,0.734-0.348,1.36-1.042,1.879c-0.695,0.518-1.536,0.776-2.521,0.776
		c-0.969,0-1.802-0.259-2.496-0.776c-0.694-0.519-1.042-1.145-1.042-1.879c0-0.723,0.348-1.344,1.042-1.861s1.527-0.777,2.496-0.777
		c0.985,0,1.826,0.26,2.521,0.777C82.491,7.166,82.839,7.787,82.839,8.51z M76.344,31.309c-0.113-7.045-0.17-13.134-0.17-18.265
		l6.107-0.271c-0.194,4.914-0.291,9.798-0.291,14.651c0,1.301,0.008,2.596,0.024,3.884H76.344z"/>
	<path fill="#FFFFFF" d="M94.084,23.775l5.769,0.271c0,4.348-2.69,6.552-8.071,6.611c-0.064,0.013-0.121,0.019-0.169,0.019
		c-5.122,0-7.683-2.896-7.683-8.69v-0.541c0.161-6.215,2.892-9.353,8.191-9.413h0.193c4.88,0,7.319,2.084,7.319,6.251
		c0,0.241-0.008,0.482-0.023,0.723l-5.211,0.289v-0.434c0-2.191-0.833-3.288-2.496-3.288c-1.697,0-2.545,1.776-2.545,5.329v0.597
		c0.097,3.843,0.953,5.763,2.568,5.763h0.146c1.406-0.084,2.108-0.885,2.108-2.402C94.181,24.534,94.148,24.173,94.084,23.775z"/>
	<path fill="#FFFFFF" d="M111.243,12.141c5.315,0.217,7.974,2.21,7.974,5.98v12.826l-5.646,0.072l-0.194-1.716
		c-1.163,0.987-2.706,1.481-4.629,1.481c-0.824,0-1.713-0.096-2.666-0.289c-2.859-0.529-4.29-2.18-4.29-4.95
		c0-0.337,0.024-0.698,0.073-1.084c0.322-2.854,3.045-4.282,8.167-4.282c0.985,0,2.068,0.055,3.248,0.163v-2.096
		c0-1.698-0.72-2.548-2.157-2.548h-0.097c-0.113-0.012-0.219-0.018-0.315-0.018c-1.567,0-2.351,0.951-2.351,2.854v0.271
		l-5.769-0.361c0-4.203,2.715-6.305,8.144-6.305H111.243z M113.279,26.413v-3.18c-0.695-0.108-1.325-0.163-1.891-0.163
		c-1.471,0-2.472,0.368-3.005,1.103c-0.323,0.446-0.485,0.861-0.485,1.247c0,0.481,0.259,0.909,0.775,1.282
		c0.404,0.289,0.93,0.434,1.576,0.434C111.073,27.136,112.083,26.895,113.279,26.413z"/>
	<path fill="#FFFFFF" d="M134.655,12.195l0.242,2.944c0.679-1.565,2.464-2.36,5.356-2.385h0.097c2.844,0,4.783,0.831,5.817,2.493
		c0.71,1.133,1.066,3.782,1.066,7.949c0,2.048-0.09,4.469-0.267,7.263h-5.865c0.21-3.722,0.314-6.606,0.314-8.653
		c0-1.024-0.023-1.844-0.072-2.457c-0.162-1.807-0.938-2.711-2.327-2.711s-2.262,0.482-2.617,1.445l0.242,13.099l-5.695,0.036
		c0-5.54-0.251-11.762-0.751-18.662L134.655,12.195z"/>
	<path fill="#FFFFFF" d="M158.625,12.141c5.315,0.217,7.974,2.21,7.974,5.98v12.826l-5.646,0.072l-0.194-1.716
		c-1.163,0.987-2.706,1.481-4.629,1.481c-0.824,0-1.713-0.096-2.666-0.289c-2.859-0.529-4.29-2.18-4.29-4.95
		c0-0.337,0.024-0.698,0.073-1.084c0.322-2.854,3.045-4.282,8.167-4.282c0.985,0,2.068,0.055,3.248,0.163v-2.096
		c0-1.698-0.72-2.548-2.157-2.548h-0.097c-0.113-0.012-0.219-0.018-0.315-0.018c-1.567,0-2.351,0.951-2.351,2.854v0.271
		l-5.769-0.361c0-4.203,2.715-6.305,8.144-6.305H158.625z M160.661,26.413v-3.18c-0.695-0.108-1.325-0.163-1.891-0.163
		c-1.471,0-2.472,0.368-3.005,1.103c-0.323,0.446-0.485,0.861-0.485,1.247c0,0.481,0.259,0.909,0.775,1.282
		c0.404,0.289,0.93,0.434,1.576,0.434C158.455,27.136,159.465,26.895,160.661,26.413z"/>
	<path fill="#FFFFFF" d="M174.984,18.266l0.242,13.098l-5.938,0.036c0-5.54-0.251-11.761-0.751-18.663l4.459-0.361l0.242,2.945
		c0.679-1.445,2.263-2.271,4.751-2.475c0.371-0.024,0.727-0.037,1.066-0.037c1.954,0,3.441,0.477,4.459,1.428
		c1.18,1.133,1.777,2.933,1.794,5.402l-5.381,0.396c0.016-0.204,0.024-0.402,0.024-0.596c0-1.927-0.671-2.891-2.012-2.891h-0.097
		C176.293,16.609,175.34,17.182,174.984,18.266z"/>
	<path fill="#FFFFFF" d="M193.38,18.266l0.242,13.098l-5.938,0.036c0-5.54-0.251-11.761-0.751-18.663l4.459-0.361l0.242,2.945
		c0.679-1.445,2.263-2.271,4.751-2.475c0.371-0.024,0.727-0.037,1.066-0.037c1.954,0,3.441,0.477,4.459,1.428
		c1.18,1.133,1.777,2.933,1.794,5.402l-5.381,0.396c0.016-0.204,0.024-0.402,0.024-0.596c0-1.927-0.671-2.891-2.012-2.891h-0.097
		C194.688,16.609,193.735,17.182,193.38,18.266z"/>
	<path fill="#FFFFFF" d="M214.707,12.141c5.315,0.217,7.974,2.21,7.974,5.98v12.826l-5.646,0.072l-0.194-1.716
		c-1.163,0.987-2.706,1.481-4.629,1.481c-0.824,0-1.713-0.096-2.666-0.289c-2.859-0.529-4.29-2.18-4.29-4.95
		c0-0.337,0.024-0.698,0.073-1.084c0.322-2.854,3.045-4.282,8.167-4.282c0.985,0,2.068,0.055,3.248,0.163v-2.096
		c0-1.698-0.72-2.548-2.157-2.548h-0.097c-0.113-0.012-0.219-0.018-0.315-0.018c-1.567,0-2.351,0.951-2.351,2.854v0.271
		l-5.769-0.361c0-4.203,2.715-6.305,8.144-6.305H214.707z M216.743,26.413v-3.18c-0.695-0.108-1.325-0.163-1.891-0.163
		c-1.471,0-2.472,0.368-3.005,1.103c-0.323,0.446-0.485,0.861-0.485,1.247c0,0.481,0.259,0.909,0.775,1.282
		c0.404,0.289,0.93,0.434,1.576,0.434C214.537,27.136,215.547,26.895,216.743,26.413z"/>
	<path fill="#FFFFFF" d="M228.667,6.901l5.502-0.271v5.979l4.629-0.091l0.073,3.415l-4.702,0.163v8.22
		c0,1.915,1.091,2.872,3.271,2.872c0.452,0,0.945-0.041,1.479-0.126l-0.218,3.975c-0.775,0.072-1.511,0.108-2.206,0.108
		c-5.105,0-7.707-1.963-7.804-5.89v-8.835l-3.975,0.182l-0.097-4.029l4.071,0.036L228.667,6.901z"/>
	<path fill="#FFFFFF" d="M247.669,8.51c0,0.734-0.348,1.36-1.042,1.879c-0.695,0.518-1.536,0.776-2.521,0.776
		c-0.969,0-1.802-0.259-2.496-0.776c-0.694-0.519-1.042-1.145-1.042-1.879c0-0.723,0.348-1.344,1.042-1.861s1.527-0.777,2.496-0.777
		c0.985,0,1.826,0.26,2.521,0.777C247.321,7.166,247.669,7.787,247.669,8.51z M241.174,31.309c-0.113-7.045-0.17-13.134-0.17-18.265
		l6.107-0.271c-0.194,4.914-0.291,9.798-0.291,14.651c0,1.301,0.008,2.596,0.024,3.884H241.174z"/>
	<path fill="#FFFFFF" d="M253.51,30.749c-2.036-6.974-3.862-12.96-5.478-17.958l5.89-0.234l2.98,13.134
		c1.552-4.914,2.787-9.395,3.708-13.441l5.793,0.542c-1.826,5.047-3.95,11.009-6.374,17.886L253.51,30.749z"/>
	<path fill="#FFFFFF" d="M276.679,12.141c5.315,0.217,7.974,2.21,7.974,5.98v12.826l-5.646,0.072l-0.194-1.716
		c-1.163,0.987-2.706,1.481-4.629,1.481c-0.824,0-1.713-0.096-2.666-0.289c-2.859-0.529-4.29-2.18-4.29-4.95
		c0-0.337,0.024-0.698,0.073-1.084c0.322-2.854,3.045-4.282,8.167-4.282c0.985,0,2.068,0.055,3.248,0.163v-2.096
		c0-1.698-0.72-2.548-2.157-2.548h-0.097c-0.113-0.012-0.219-0.018-0.315-0.018c-1.567,0-2.351,0.951-2.351,2.854v0.271
		l-5.769-0.361c0-4.203,2.715-6.305,8.144-6.305H276.679z M278.715,26.413v-3.18c-0.695-0.108-1.325-0.163-1.891-0.163
		c-1.471,0-2.472,0.368-3.005,1.103c-0.323,0.446-0.485,0.861-0.485,1.247c0,0.481,0.259,0.909,0.775,1.282
		c0.404,0.289,0.93,0.434,1.576,0.434C276.509,27.136,277.519,26.895,278.715,26.413z"/>
</g>
</svg>
