<?xml version="1.0" encoding="utf-8"?>
<!-- Generator: Adobe Illustrator 16.0.0, SVG Export Plug-In . SVG Version: 6.00 Build 0)  -->
<!DOCTYPE svg PUBLIC "-//W3C//DTD SVG 1.1//EN" "http://www.w3.org/Graphics/SVG/1.1/DTD/svg11.dtd">
<svg version="1.1" id="Capa_1" xmlns="http://www.w3.org/2000/svg" xmlns:xlink="http://www.w3.org/1999/xlink" x="0px" y="0px"
	 width="195.465px" height="45.932px" viewBox="0 0 195.465 45.932" enable-background="new 0 0 195.465 45.932"
	 xml:space="preserve">
<g>
	<rect y="5.879" fill="#B4C52C" width="195.465" height="8.382"/>
	<g id="wwHJQt.tif_5_">
		<g>
			<path fill-rule="evenodd" clip-rule="evenodd" fill="#B4C52C" d="M117.47,25.317c-1.327,2.34-3.718,2.26-5.923,2.588
				c-1.365,0.203-2.735,0.369-4.517,0.607c0.836,1.939,1.536,3.588,2.259,5.227c0.744,1.678,1.545,3.33,2.262,5.016
				c1.217,2.865,0.312,5.721-2.104,6.783c-2.451,1.08-5.083-0.109-6.439-2.998c-1.277-2.725-2.515-5.469-3.681-8.24
				c-0.673-1.598-1.436-1.832-2.729-0.617c-1.233,1.152-2.474,2.367-3.908,3.217c-0.963,0.566-2.494,1.035-3.369,0.645
				c-0.877-0.391-1.76-1.893-1.776-2.924c-0.183-10.516-0.236-21.035-0.168-31.555c0.005-1.029,0.838-2.57,1.688-2.938
				c0.854-0.365,2.52,0.1,3.305,0.793c7.938,7.006,15.776,14.129,23.625,21.242c0.572,0.52,0.986,1.217,1.478,1.83
				C117.47,24.435,117.47,24.876,117.47,25.317z M90.688,34.505c1.656-1.385,2.91-2.461,4.191-3.498
				c2.863-2.324,5.543-1.734,7.115,1.602c1.313,2.787,2.47,5.65,3.893,8.379c0.373,0.717,1.47,1.057,2.236,1.566
				c0.149-0.895,0.664-1.93,0.384-2.662c-1.046-2.732-2.36-5.367-3.558-8.045c-1.788-3.982-0.416-6.381,3.926-6.893
				c1.477-0.176,2.946-0.379,4.823-0.621c-7.844-7.072-15.338-13.83-23.011-20.748C90.688,13.938,90.688,23.944,90.688,34.505z"/>
			<path fill-rule="evenodd" clip-rule="evenodd" fill="#FFFFFF" d="M90.688,34.505c0-10.561,0-20.566,0-30.92
				c7.673,6.918,15.167,13.676,23.011,20.748c-1.877,0.242-3.347,0.445-4.823,0.621c-4.342,0.512-5.714,2.91-3.926,6.893
				c1.197,2.678,2.512,5.312,3.558,8.045c0.28,0.732-0.234,1.768-0.384,2.662c-0.767-0.51-1.863-0.85-2.236-1.566
				c-1.423-2.729-2.579-5.592-3.893-8.379c-1.572-3.336-4.252-3.926-7.115-1.602C93.598,32.044,92.344,33.12,90.688,34.505z"/>
		</g>
	</g>
</g>
</svg>
