<?xml version="1.0" encoding="utf-8"?>
<!-- Generator: Adobe Illustrator 16.0.0, SVG Export Plug-In . SVG Version: 6.00 Build 0)  -->
<!DOCTYPE svg PUBLIC "-//W3C//DTD SVG 1.1//EN" "http://www.w3.org/Graphics/SVG/1.1/DTD/svg11.dtd">
<svg version="1.1" id="Capa_1" xmlns="http://www.w3.org/2000/svg" xmlns:xlink="http://www.w3.org/1999/xlink" x="0px" y="0px"
	 width="996.899px" height="22.337px" viewBox="0 0 996.899 22.337" enable-background="new 0 0 996.899 22.337"
	 xml:space="preserve">
<g>
	<rect fill="#81AD38" width="239.164" height="22.337"/>
	<rect x="252.838" fill="#739435" width="239.166" height="22.337"/>
	<rect x="505.52" fill="#81AD38" width="239.479" height="22.337"/>
	<rect x="759.295" fill="#739435" width="237.604" height="22.337"/>
	<g>
		<g>
			<path fill="#FFFFFF" d="M56.078,16.651c0.017-2.046,0.024-4.152,0.024-6.319c0-2.173-0.008-4.403-0.024-6.692
				c0.937-0.085,1.8-0.128,2.59-0.128c2.199,0,3.819,0.328,4.861,0.983c1.417,0.898,2.158,2.559,2.224,4.98v0.656
				c0,2.076-0.269,3.557-0.807,4.443c-0.594,0.978-1.682,1.627-3.261,1.949c-0.912,0.188-1.914,0.281-3.005,0.281
				C57.866,16.806,56.999,16.755,56.078,16.651z M59.107,6.243C58.97,8.241,58.9,10.171,58.9,12.035
				c0,0.704,0.008,1.396,0.024,2.075c0.285,0.049,0.558,0.073,0.818,0.073c0.717,0,1.319-0.185,1.808-0.556
				c0.668-0.497,1.002-1.614,1.002-3.351v-0.036c-0.009-1.748-0.334-2.896-0.978-3.442c-0.497-0.412-1.087-0.619-1.771-0.619
				C59.584,6.18,59.353,6.201,59.107,6.243z"/>
			<path fill="#FFFFFF" d="M70.09,5.552c0,0.37-0.176,0.686-0.525,0.947C69.214,6.76,68.79,6.89,68.294,6.89
				c-0.488,0-0.908-0.13-1.258-0.391c-0.351-0.262-0.525-0.577-0.525-0.947c0-0.364,0.175-0.677,0.525-0.938
				c0.35-0.262,0.77-0.393,1.258-0.393c0.496,0,0.92,0.131,1.271,0.393C69.914,4.875,70.09,5.188,70.09,5.552z M66.815,17.043
				c-0.057-3.552-0.085-6.62-0.085-9.206L69.809,7.7c-0.098,2.477-0.146,4.938-0.146,7.385c0,0.656,0.004,1.309,0.012,1.958H66.815z
				"/>
			<path fill="#FFFFFF" d="M71.104,18.054l2.87-0.118c-0.008,0.072-0.013,0.146-0.013,0.218c0,0.662,0.354,1.023,1.063,1.084
				c0.113,0.012,0.22,0.019,0.317,0.019c0.61,0,1.046-0.183,1.307-0.547c0.229-0.327,0.343-0.94,0.343-1.839
				c0-0.243-0.009-0.51-0.024-0.802c-0.457,0.681-1.304,1.051-2.541,1.111c-2.419-0.019-3.628-1.552-3.628-4.599v-0.063
				c0.016-3.084,1.453-4.635,4.312-4.653c0.782,0,1.482,0.34,2.102,1.02l0.036-1.447l2.676,0.091c0,5.009-0.021,8.11-0.062,9.306
				c-0.041,1.196-0.283,2.155-0.727,2.878c-0.444,0.722-1.199,1.184-2.267,1.384c-0.562,0.109-1.119,0.164-1.673,0.164
				c-0.497,0-0.989-0.043-1.479-0.127c-1.042-0.183-1.759-0.525-2.149-1.029c-0.326-0.413-0.488-0.953-0.488-1.621
				C71.079,18.348,71.087,18.205,71.104,18.054z M76.942,14.448v-3.697c-0.399-0.602-0.904-0.901-1.516-0.901
				c-0.122,0-0.248,0.013-0.378,0.036c-0.79,0.14-1.226,0.95-1.308,2.432c-0.008,0.158-0.012,0.31-0.012,0.455
				c0,1.208,0.301,1.948,0.903,2.222c0.204,0.097,0.42,0.146,0.647,0.146C75.785,15.14,76.339,14.909,76.942,14.448z"/>
			<path fill="#FFFFFF" d="M83.11,7.409l0.122,1.484c0.342-0.789,1.241-1.189,2.699-1.202h0.049c1.434,0,2.411,0.419,2.932,1.257
				c0.358,0.57,0.538,1.906,0.538,4.006c0,1.032-0.045,2.253-0.135,3.661h-2.956c0.105-1.876,0.159-3.33,0.159-4.362
				c0-0.516-0.013-0.928-0.037-1.238c-0.081-0.91-0.473-1.365-1.173-1.365s-1.14,0.242-1.319,0.729l0.123,6.602l-2.871,0.018
				c0-2.792-0.126-5.928-0.379-9.406L83.11,7.409z"/>
			<path fill="#FFFFFF" d="M93.885,5.552c0,0.37-0.176,0.686-0.525,0.947C93.009,6.76,92.585,6.89,92.089,6.89
				c-0.488,0-0.908-0.13-1.258-0.391c-0.351-0.262-0.525-0.577-0.525-0.947c0-0.364,0.175-0.677,0.525-0.938
				c0.35-0.262,0.77-0.393,1.258-0.393c0.496,0,0.92,0.131,1.271,0.393C93.709,4.875,93.885,5.188,93.885,5.552z M90.61,17.043
				c-0.057-3.552-0.085-6.62-0.085-9.206L93.604,7.7c-0.098,2.477-0.146,4.938-0.146,7.385c0,0.656,0.004,1.309,0.012,1.958H90.61z"
				/>
			<path fill="#FFFFFF" d="M103.791,4.113c-0.049,2.052-0.073,4.204-0.073,6.456c0,2.051,0.02,4.188,0.061,6.41l-2.895,0.009
				l-0.098-1.394c-0.604,0.674-1.405,1.011-2.407,1.011c-2.5,0-3.75-1.426-3.75-4.279c0-0.061,0.004-0.121,0.013-0.183
				c0.049-2.858,1.286-4.288,3.713-4.288c0.098,0,0.2,0.003,0.306,0.009c0.831,0.037,1.503,0.373,2.016,1.011
				c0-1.348-0.045-2.935-0.135-4.762H103.791z M100.737,13.729l-0.062-3.15c-0.473-0.479-0.957-0.72-1.454-0.72
				c-0.203,0-0.407,0.04-0.61,0.119c-0.644,0.248-0.965,0.946-0.965,2.094c0,0.134,0.004,0.271,0.012,0.41
				c0.082,1.39,0.497,2.124,1.246,2.203c0.073,0.006,0.146,0.009,0.22,0.009C99.775,14.693,100.313,14.372,100.737,13.729z"/>
			<path fill="#FFFFFF" d="M109.482,7.382c2.679,0.109,4.019,1.114,4.019,3.014v6.465l-2.846,0.037l-0.098-0.865
				c-0.587,0.498-1.364,0.746-2.333,0.746c-0.416,0-0.863-0.048-1.344-0.146c-1.441-0.267-2.162-1.099-2.162-2.495
				c0-0.17,0.012-0.352,0.036-0.546c0.163-1.438,1.535-2.158,4.117-2.158c0.496,0,1.042,0.027,1.637,0.082V10.46
				c0-0.856-0.362-1.284-1.088-1.284h-0.049c-0.057-0.006-0.109-0.009-0.158-0.009c-0.79,0-1.185,0.479-1.185,1.438v0.137
				l-2.907-0.183c0-2.118,1.368-3.178,4.104-3.178H109.482z M110.509,14.575v-1.603c-0.351-0.055-0.668-0.082-0.953-0.082
				c-0.741,0-1.246,0.186-1.515,0.556c-0.163,0.225-0.244,0.434-0.244,0.628c0,0.243,0.13,0.459,0.391,0.646
				c0.203,0.146,0.469,0.219,0.794,0.219C109.396,14.939,109.906,14.818,110.509,14.575z"/>
			<path fill="#FFFFFF" d="M123.714,4.113c-0.049,2.052-0.073,4.204-0.073,6.456c0,2.051,0.02,4.188,0.061,6.41l-2.895,0.009
				l-0.098-1.394c-0.604,0.674-1.405,1.011-2.407,1.011c-2.5,0-3.75-1.426-3.75-4.279c0-0.061,0.004-0.121,0.013-0.183
				c0.049-2.858,1.286-4.288,3.713-4.288c0.098,0,0.2,0.003,0.306,0.009c0.831,0.037,1.503,0.373,2.016,1.011
				c0-1.348-0.045-2.935-0.135-4.762H123.714z M120.66,13.729l-0.062-3.15c-0.473-0.479-0.957-0.72-1.454-0.72
				c-0.203,0-0.407,0.04-0.61,0.119c-0.644,0.248-0.965,0.946-0.965,2.094c0,0.134,0.004,0.271,0.012,0.41
				c0.082,1.39,0.497,2.124,1.246,2.203c0.073,0.006,0.146,0.009,0.22,0.009C119.698,14.693,120.236,14.372,120.66,13.729z"/>
			<path fill="#FFFFFF" d="M132.142,3.949l0.122,5.126c0.343-0.789,1.141-1.189,2.395-1.201h0.037c1.237,0,2.117,0.418,2.638,1.256
				c0.358,0.571,0.538,1.906,0.538,4.007c0,1.032-0.045,2.252-0.135,3.66h-3.078c0.105-1.876,0.159-3.329,0.159-4.361
				c0-0.516-0.013-0.929-0.037-1.238c-0.081-0.911-0.432-1.366-1.051-1.366c-0.618,0-1.018,0.243-1.196,0.729l0.122,6.602
				l-2.993,0.019c0-2.792-0.167-7.173-0.501-13.14L132.142,3.949z"/>
			<path fill="#FFFFFF" d="M145.236,16.997l-0.122-1.484c-0.342,0.789-1.263,1.188-2.761,1.193
				c-0.017,0.006-0.028,0.009-0.036,0.009c-1.482,0-2.464-0.497-2.944-1.493c-0.325-0.661-0.488-2.03-0.488-4.106
				c0-1.068,0.045-2.328,0.134-3.778h2.969c-0.163,2.039-0.244,3.608-0.244,4.707c0,0.553,0.02,0.983,0.061,1.293
				c0.122,0.947,0.533,1.42,1.234,1.42c0.7,0,1.14-0.245,1.319-0.737L144.234,7.7l2.871-0.018c0,2.61,0.126,5.651,0.379,9.123
				L145.236,16.997z"/>
			<path fill="#FFFFFF" d="M150.465,7.455l0.049,1.456c0.439-0.697,0.949-1.132,1.527-1.302c0.342-0.097,0.688-0.146,1.038-0.146
				c0.261,0,0.521,0.024,0.781,0.072c0.636,0.122,1.088,0.607,1.356,1.457c0.212-0.661,0.578-1.103,1.1-1.324
				c0.521-0.222,1.099-0.336,1.734-0.342h0.049c0.618,0,1.213,0.112,1.783,0.337c0.578,0.231,1.02,0.663,1.325,1.298
				s0.466,1.504,0.482,2.608v5.29l-2.639,0.046c0.106-1.997,0.159-3.696,0.159-5.099s-0.358-2.158-1.075-2.268
				c-0.105-0.012-0.207-0.019-0.305-0.019c-0.57,0-1.01,0.273-1.319,0.819c-0.049,0.632-0.073,1.369-0.073,2.213
				c0,1.147,0.044,2.486,0.134,4.016l-3.054,0.019c0.114-2.35,0.171-4.062,0.171-5.136v-0.109c-0.008-1.062-0.289-1.621-0.843-1.676
				h-0.158c-0.497,0-0.978,0.213-1.441,0.638l0.024,6.665l-2.883,0.082v-1.493c0-2.646-0.054-5.29-0.159-7.931L150.465,7.455z"/>
			<path fill="#FFFFFF" d="M167.15,7.382c2.679,0.109,4.019,1.114,4.019,3.014v6.465l-2.846,0.037l-0.098-0.865
				c-0.587,0.498-1.364,0.746-2.333,0.746c-0.416,0-0.863-0.048-1.344-0.146c-1.441-0.267-2.162-1.099-2.162-2.495
				c0-0.17,0.012-0.352,0.036-0.546c0.163-1.438,1.535-2.158,4.117-2.158c0.496,0,1.042,0.027,1.637,0.082V10.46
				c0-0.856-0.362-1.284-1.088-1.284h-0.049c-0.057-0.006-0.109-0.009-0.158-0.009c-0.79,0-1.185,0.479-1.185,1.438v0.137
				l-2.907-0.183c0-2.118,1.368-3.178,4.104-3.178H167.15z M168.177,14.575v-1.603c-0.351-0.055-0.668-0.082-0.953-0.082
				c-0.741,0-1.246,0.186-1.515,0.556c-0.163,0.225-0.244,0.434-0.244,0.628c0,0.243,0.13,0.459,0.391,0.646
				c0.203,0.146,0.469,0.219,0.794,0.219C167.064,14.939,167.574,14.818,168.177,14.575z"/>
			<path fill="#FFFFFF" d="M174.395,7.409l0.122,1.484c0.342-0.789,1.241-1.189,2.699-1.202h0.049c1.434,0,2.411,0.419,2.932,1.257
				c0.358,0.57,0.538,1.906,0.538,4.006c0,1.032-0.045,2.253-0.135,3.661h-2.956c0.105-1.876,0.159-3.33,0.159-4.362
				c0-0.516-0.013-0.928-0.037-1.238c-0.081-0.91-0.473-1.365-1.173-1.365s-1.14,0.242-1.319,0.729l0.123,6.602l-2.871,0.018
				c0-2.792-0.126-5.928-0.379-9.406L174.395,7.409z"/>
			<path fill="#FFFFFF" d="M186.475,7.382c2.679,0.109,4.019,1.114,4.019,3.014v6.465l-2.846,0.037l-0.098-0.865
				c-0.587,0.498-1.364,0.746-2.333,0.746c-0.416,0-0.863-0.048-1.344-0.146c-1.441-0.267-2.162-1.099-2.162-2.495
				c0-0.17,0.012-0.352,0.036-0.546c0.163-1.438,1.535-2.158,4.117-2.158c0.496,0,1.042,0.027,1.637,0.082V10.46
				c0-0.856-0.362-1.284-1.088-1.284h-0.049c-0.057-0.006-0.109-0.009-0.158-0.009c-0.79,0-1.185,0.479-1.185,1.438v0.137
				l-2.907-0.183c0-2.118,1.368-3.178,4.104-3.178H186.475z M187.501,14.575v-1.603c-0.351-0.055-0.668-0.082-0.953-0.082
				c-0.741,0-1.246,0.186-1.515,0.556c-0.163,0.225-0.244,0.434-0.244,0.628c0,0.243,0.13,0.459,0.391,0.646
				c0.203,0.146,0.469,0.219,0.794,0.219C186.389,14.939,186.898,14.818,187.501,14.575z"/>
		</g>
	</g>
	<g>
		<g>
			<path fill="#FFFFFF" d="M292.752,8.548l-2.712,0.009V8.311c0-1.427-0.537-2.14-1.612-2.14c-1.148,0-1.723,1.317-1.723,3.951
				c0,2.969,0.603,4.453,1.808,4.453h0.013c1.205-0.006,1.808-0.734,1.808-2.186v-0.901h3.029v0.683
				c0,3.023-1.665,4.605-4.996,4.744c-0.098,0.007-0.195,0.01-0.293,0.01c-3.135,0-4.703-2.246-4.703-6.738
				c0-4.395,1.612-6.593,4.838-6.593c3.037,0,4.556,1.47,4.556,4.407C292.764,8.177,292.76,8.359,292.752,8.548z"/>
			<path fill="#FFFFFF" d="M298.383,7.646c2.769,0,4.153,1.434,4.153,4.299c0,0.115-0.004,0.23-0.012,0.346
				c-0.114,3.102-1.589,4.668-4.422,4.698c-0.033,0.006-0.065,0.009-0.099,0.009c-2.695,0-4.043-1.466-4.043-4.397v-0.255
				C294.043,9.212,295.517,7.646,298.383,7.646z M297.979,9.722c-0.513,0.134-0.863,0.629-1.05,1.484
				c-0.114,0.51-0.171,1.023-0.171,1.539c0,0.346,0.024,0.695,0.073,1.047c0.13,0.874,0.55,1.326,1.258,1.357h0.086
				c0.659,0,1.111-0.325,1.355-0.975c0.203-0.54,0.306-1.181,0.306-1.922c0-0.182-0.005-0.367-0.013-0.555
				c-0.065-0.978-0.261-1.588-0.586-1.83c-0.204-0.146-0.448-0.219-0.733-0.219C298.342,9.649,298.167,9.674,297.979,9.722z"/>
			<path fill="#FFFFFF" d="M306.64,16.843l-3.041,0.209c0.032-2.009,0.049-3.942,0.049-5.8c0-2.61-0.033-5.072-0.098-7.385
				l2.992-0.036c-0.032,1.487-0.049,3.014-0.049,4.58C306.493,11.112,306.542,13.923,306.64,16.843z"/>
			<path fill="#FFFFFF" d="M312.418,7.382c2.679,0.109,4.019,1.114,4.019,3.014v6.465l-2.846,0.037l-0.098-0.865
				c-0.587,0.498-1.364,0.746-2.333,0.746c-0.416,0-0.863-0.048-1.344-0.146c-1.441-0.267-2.162-1.099-2.162-2.495
				c0-0.17,0.012-0.352,0.036-0.546c0.163-1.438,1.535-2.158,4.117-2.158c0.496,0,1.042,0.027,1.637,0.082V10.46
				c0-0.856-0.362-1.284-1.088-1.284h-0.049c-0.057-0.006-0.109-0.009-0.158-0.009c-0.79,0-1.185,0.479-1.185,1.438v0.137
				l-2.907-0.183c0-2.118,1.368-3.178,4.104-3.178H312.418z M313.444,14.575v-1.603c-0.351-0.055-0.668-0.082-0.953-0.082
				c-0.741,0-1.246,0.186-1.515,0.556c-0.163,0.225-0.244,0.434-0.244,0.628c0,0.243,0.13,0.459,0.391,0.646
				c0.203,0.146,0.469,0.219,0.794,0.219C312.332,14.939,312.842,14.818,313.444,14.575z"/>
			<path fill="#FFFFFF" d="M320.737,4.113c-0.09,1.827-0.135,3.414-0.135,4.762c0.432-0.576,0.981-0.913,1.649-1.011
				c0.113-0.006,0.224-0.009,0.329-0.009c2.655,0,4.011,1.43,4.068,4.288v0.164c0,2.865-1.413,4.298-4.239,4.298
				c-0.676,0-1.315-0.337-1.918-1.011l-0.098,1.394l-2.895-0.009c0.041-2.223,0.061-4.359,0.061-6.41
				c0-2.252-0.024-4.404-0.073-6.456H320.737z M320.603,10.578l-0.062,3.15c0.424,0.644,0.961,0.965,1.613,0.965
				c0.073,0,0.146-0.003,0.22-0.009c0.749-0.079,1.164-0.828,1.246-2.249c0.008-0.146,0.012-0.285,0.012-0.419
				c0-1.166-0.317-1.86-0.953-2.085c-0.195-0.067-0.387-0.101-0.573-0.101C321.592,9.831,321.091,10.08,320.603,10.578z"/>
			<path fill="#FFFFFF" d="M331.913,7.646c2.769,0,4.153,1.434,4.153,4.299c0,0.115-0.004,0.23-0.012,0.346
				c-0.114,3.102-1.589,4.668-4.422,4.698c-0.033,0.006-0.065,0.009-0.099,0.009c-2.695,0-4.043-1.466-4.043-4.397v-0.255
				C327.573,9.212,329.047,7.646,331.913,7.646z M331.51,9.722c-0.513,0.134-0.863,0.629-1.05,1.484
				c-0.114,0.51-0.171,1.023-0.171,1.539c0,0.346,0.024,0.695,0.073,1.047c0.13,0.874,0.55,1.326,1.258,1.357h0.086
				c0.659,0,1.111-0.325,1.355-0.975c0.203-0.54,0.306-1.181,0.306-1.922c0-0.182-0.005-0.367-0.013-0.555
				c-0.065-0.978-0.261-1.588-0.586-1.83c-0.204-0.146-0.448-0.219-0.733-0.219C331.872,9.649,331.697,9.674,331.51,9.722z"/>
			<path fill="#FFFFFF" d="M339.988,10.469l0.122,6.602l-2.993,0.019c0-2.793-0.126-5.928-0.379-9.406l2.248-0.183l0.122,1.484
				c0.342-0.729,1.14-1.144,2.395-1.247c0.187-0.013,0.366-0.019,0.537-0.019c0.985,0,1.734,0.24,2.247,0.72
				c0.595,0.57,0.896,1.478,0.904,2.723l-2.712,0.2c0.008-0.104,0.013-0.204,0.013-0.301c0-0.972-0.338-1.457-1.014-1.457h-0.049
				C340.647,9.634,340.167,9.923,339.988,10.469z"/>
			<path fill="#FFFFFF" d="M350.736,7.382c2.679,0.109,4.019,1.114,4.019,3.014v6.465l-2.846,0.037l-0.098-0.865
				c-0.587,0.498-1.364,0.746-2.333,0.746c-0.416,0-0.863-0.048-1.344-0.146c-1.441-0.267-2.162-1.099-2.162-2.495
				c0-0.17,0.012-0.352,0.036-0.546c0.163-1.438,1.535-2.158,4.117-2.158c0.496,0,1.042,0.027,1.637,0.082V10.46
				c0-0.856-0.362-1.284-1.088-1.284h-0.049c-0.057-0.006-0.109-0.009-0.158-0.009c-0.79,0-1.185,0.479-1.185,1.438v0.137
				l-2.907-0.183c0-2.118,1.368-3.178,4.104-3.178H350.736z M351.763,14.575v-1.603c-0.351-0.055-0.668-0.082-0.953-0.082
				c-0.741,0-1.246,0.186-1.515,0.556c-0.163,0.225-0.244,0.434-0.244,0.628c0,0.243,0.13,0.459,0.391,0.646
				c0.203,0.146,0.469,0.219,0.794,0.219C350.65,14.939,351.16,14.818,351.763,14.575z"/>
			<path fill="#FFFFFF" d="M360.729,13.246l2.907,0.137c0,2.191-1.355,3.302-4.067,3.332c-0.032,0.007-0.062,0.009-0.086,0.009
				c-2.581,0-3.872-1.459-3.872-4.379v-0.273c0.082-3.133,1.458-4.714,4.129-4.744h0.098c2.459,0,3.689,1.051,3.689,3.15
				c0,0.122-0.005,0.243-0.013,0.364l-2.626,0.146v-0.219c0-1.104-0.42-1.656-1.259-1.656c-0.854,0-1.282,0.895-1.282,2.686v0.301
				c0.049,1.937,0.48,2.904,1.295,2.904h0.073c0.709-0.042,1.062-0.445,1.062-1.211C360.777,13.628,360.761,13.446,360.729,13.246z"
				/>
			<path fill="#FFFFFF" d="M368.07,5.552c0,0.37-0.176,0.686-0.525,0.947c-0.351,0.261-0.774,0.391-1.271,0.391
				c-0.488,0-0.908-0.13-1.258-0.391c-0.351-0.262-0.525-0.577-0.525-0.947c0-0.364,0.175-0.677,0.525-0.938
				c0.35-0.262,0.77-0.393,1.258-0.393c0.496,0,0.92,0.131,1.271,0.393C367.895,4.875,368.07,5.188,368.07,5.552z M364.796,17.043
				c-0.057-3.552-0.085-6.62-0.085-9.206l3.078-0.137c-0.098,2.477-0.146,4.938-0.146,7.385c0,0.656,0.004,1.309,0.012,1.958
				H364.796z"/>
			<path fill="#FFFFFF" d="M373.041,7.646c2.769,0,4.153,1.434,4.153,4.299c0,0.115-0.004,0.23-0.012,0.346
				c-0.114,3.102-1.589,4.668-4.422,4.698c-0.033,0.006-0.065,0.009-0.099,0.009c-2.695,0-4.043-1.466-4.043-4.397v-0.255
				C368.701,9.212,370.175,7.646,373.041,7.646z M372.638,9.722c-0.513,0.134-0.863,0.629-1.05,1.484
				c-0.114,0.51-0.171,1.023-0.171,1.539c0,0.346,0.024,0.695,0.073,1.047c0.13,0.874,0.55,1.326,1.258,1.357h0.086
				c0.659,0,1.111-0.325,1.355-0.975c0.203-0.54,0.306-1.181,0.306-1.922c0-0.182-0.005-0.367-0.013-0.555
				c-0.065-0.978-0.261-1.588-0.586-1.83c-0.204-0.146-0.448-0.219-0.733-0.219C373,9.649,372.825,9.674,372.638,9.722z
				 M371.453,5.87c0.953-0.844,1.734-1.648,2.346-2.413l2.003,1.185c-0.863,0.631-1.824,1.404-2.883,2.321L371.453,5.87z"/>
			<path fill="#FFFFFF" d="M380.114,7.409l0.122,1.484c0.342-0.789,1.241-1.189,2.699-1.202h0.049c1.434,0,2.411,0.419,2.932,1.257
				c0.358,0.57,0.538,1.906,0.538,4.006c0,1.032-0.045,2.253-0.135,3.661h-2.956c0.105-1.876,0.159-3.33,0.159-4.362
				c0-0.516-0.013-0.928-0.037-1.238c-0.081-0.91-0.473-1.365-1.173-1.365s-1.14,0.242-1.319,0.729l0.123,6.602l-2.871,0.018
				c0-2.792-0.126-5.928-0.379-9.406L380.114,7.409z"/>
			<path fill="#FFFFFF" d="M396.751,7.382c2.679,0.109,4.019,1.114,4.019,3.014v6.465l-2.846,0.037l-0.098-0.865
				c-0.587,0.498-1.364,0.746-2.333,0.746c-0.416,0-0.863-0.048-1.344-0.146c-1.441-0.267-2.162-1.099-2.162-2.495
				c0-0.17,0.012-0.352,0.036-0.546c0.163-1.438,1.535-2.158,4.117-2.158c0.496,0,1.042,0.027,1.637,0.082V10.46
				c0-0.856-0.362-1.284-1.088-1.284h-0.049c-0.057-0.006-0.109-0.009-0.158-0.009c-0.79,0-1.185,0.479-1.185,1.438v0.137
				l-2.907-0.183c0-2.118,1.368-3.178,4.104-3.178H396.751z M397.777,14.575v-1.603c-0.351-0.055-0.668-0.082-0.953-0.082
				c-0.741,0-1.246,0.186-1.515,0.556c-0.163,0.225-0.244,0.434-0.244,0.628c0,0.243,0.13,0.459,0.391,0.646
				c0.203,0.146,0.469,0.219,0.794,0.219C396.665,14.939,397.175,14.818,397.777,14.575z"/>
			<path fill="#FFFFFF" d="M404.997,10.469l0.122,6.602l-2.993,0.019c0-2.793-0.126-5.928-0.379-9.406l2.248-0.183l0.122,1.484
				c0.342-0.729,1.14-1.144,2.395-1.247c0.187-0.013,0.366-0.019,0.537-0.019c0.985,0,1.734,0.24,2.247,0.72
				c0.595,0.57,0.896,1.478,0.904,2.723l-2.712,0.2c0.008-0.104,0.013-0.204,0.013-0.301c0-0.972-0.338-1.457-1.014-1.457h-0.049
				C405.656,9.634,405.176,9.923,404.997,10.469z"/>
			<path fill="#FFFFFF" d="M412.984,7.455l0.049,1.456c0.439-0.697,0.949-1.132,1.527-1.302c0.342-0.097,0.688-0.146,1.038-0.146
				c0.261,0,0.521,0.024,0.781,0.072c0.636,0.122,1.088,0.607,1.356,1.457c0.212-0.661,0.578-1.103,1.1-1.324
				c0.521-0.222,1.099-0.336,1.734-0.342h0.049c0.618,0,1.213,0.112,1.783,0.337c0.578,0.231,1.02,0.663,1.325,1.298
				s0.466,1.504,0.482,2.608v5.29l-2.639,0.046c0.106-1.997,0.159-3.696,0.159-5.099s-0.358-2.158-1.075-2.268
				c-0.105-0.012-0.207-0.019-0.305-0.019c-0.57,0-1.01,0.273-1.319,0.819c-0.049,0.632-0.073,1.369-0.073,2.213
				c0,1.147,0.044,2.486,0.134,4.016l-3.054,0.019c0.114-2.35,0.171-4.062,0.171-5.136v-0.109c-0.008-1.062-0.289-1.621-0.843-1.676
				h-0.158c-0.497,0-0.978,0.213-1.441,0.638l0.024,6.665l-2.883,0.082v-1.493c0-2.646-0.054-5.29-0.159-7.931L412.984,7.455z"/>
			<path fill="#FFFFFF" d="M429.243,7.646c2.769,0,4.153,1.434,4.153,4.299c0,0.115-0.004,0.23-0.012,0.346
				c-0.114,3.102-1.589,4.668-4.422,4.698c-0.033,0.006-0.065,0.009-0.099,0.009c-2.695,0-4.043-1.466-4.043-4.397v-0.255
				C424.903,9.212,426.377,7.646,429.243,7.646z M428.84,9.722c-0.513,0.134-0.863,0.629-1.05,1.484
				c-0.114,0.51-0.171,1.023-0.171,1.539c0,0.346,0.024,0.695,0.073,1.047c0.13,0.874,0.55,1.326,1.258,1.357h0.086
				c0.659,0,1.111-0.325,1.355-0.975c0.203-0.54,0.306-1.181,0.306-1.922c0-0.182-0.005-0.367-0.013-0.555
				c-0.065-0.978-0.261-1.588-0.586-1.83c-0.204-0.146-0.448-0.219-0.733-0.219C429.202,9.649,429.027,9.674,428.84,9.722z
				 M427.655,5.87c0.953-0.844,1.734-1.648,2.346-2.413l2.003,1.185c-0.863,0.631-1.824,1.404-2.883,2.321L427.655,5.87z"/>
			<path fill="#FFFFFF" d="M436.315,7.409l0.122,1.484c0.342-0.789,1.241-1.189,2.699-1.202h0.049c1.434,0,2.411,0.419,2.932,1.257
				c0.358,0.57,0.538,1.906,0.538,4.006c0,1.032-0.045,2.253-0.135,3.661h-2.956c0.105-1.876,0.159-3.33,0.159-4.362
				c0-0.516-0.013-0.928-0.037-1.238c-0.081-0.91-0.473-1.365-1.173-1.365s-1.14,0.242-1.319,0.729l0.123,6.602l-2.871,0.018
				c0-2.792-0.126-5.928-0.379-9.406L436.315,7.409z"/>
			<path fill="#FFFFFF" d="M447.09,5.552c0,0.37-0.176,0.686-0.525,0.947c-0.351,0.261-0.774,0.391-1.271,0.391
				c-0.488,0-0.908-0.13-1.258-0.391c-0.351-0.262-0.525-0.577-0.525-0.947c0-0.364,0.175-0.677,0.525-0.938
				c0.35-0.262,0.77-0.393,1.258-0.393c0.496,0,0.92,0.131,1.271,0.393C446.914,4.875,447.09,5.188,447.09,5.552z M443.815,17.043
				c-0.057-3.552-0.085-6.62-0.085-9.206l3.078-0.137c-0.098,2.477-0.146,4.938-0.146,7.385c0,0.656,0.004,1.309,0.012,1.958
				H443.815z"/>
			<path fill="#FFFFFF" d="M452.757,13.246l2.907,0.137c0,2.191-1.355,3.302-4.067,3.332c-0.032,0.007-0.062,0.009-0.086,0.009
				c-2.581,0-3.872-1.459-3.872-4.379v-0.273c0.082-3.133,1.458-4.714,4.129-4.744h0.098c2.459,0,3.689,1.051,3.689,3.15
				c0,0.122-0.005,0.243-0.013,0.364l-2.626,0.146v-0.219c0-1.104-0.42-1.656-1.259-1.656c-0.854,0-1.282,0.895-1.282,2.686v0.301
				c0.049,1.937,0.48,2.904,1.295,2.904h0.073c0.709-0.042,1.062-0.445,1.062-1.211C452.806,13.628,452.789,13.446,452.757,13.246z"
				/>
			<path fill="#FFFFFF" d="M461.405,7.382c2.679,0.109,4.019,1.114,4.019,3.014v6.465l-2.846,0.037l-0.098-0.865
				c-0.587,0.498-1.364,0.746-2.333,0.746c-0.416,0-0.863-0.048-1.344-0.146c-1.441-0.267-2.162-1.099-2.162-2.495
				c0-0.17,0.012-0.352,0.036-0.546c0.163-1.438,1.535-2.158,4.117-2.158c0.496,0,1.042,0.027,1.637,0.082V10.46
				c0-0.856-0.362-1.284-1.088-1.284h-0.049c-0.057-0.006-0.109-0.009-0.158-0.009c-0.79,0-1.185,0.479-1.185,1.438v0.137
				l-2.907-0.183c0-2.118,1.368-3.178,4.104-3.178H461.405z M462.432,14.575v-1.603c-0.351-0.055-0.668-0.082-0.953-0.082
				c-0.741,0-1.246,0.186-1.515,0.556c-0.163,0.225-0.244,0.434-0.244,0.628c0,0.243,0.13,0.459,0.391,0.646
				c0.203,0.146,0.469,0.219,0.794,0.219C461.319,14.939,461.829,14.818,462.432,14.575z"/>
		</g>
	</g>
	<g>
		<g>
			<path fill="#FFFFFF" d="M509.967,16.724c0.049-1.596,0.074-3.229,0.074-4.898c0-2.562-0.058-5.214-0.172-7.958
				c1.393-0.146,2.622-0.219,3.689-0.219c1.678,0,2.939,0.183,3.786,0.546c1.312,0.565,1.967,1.722,1.967,3.47v0.301
				c-0.081,1.918-0.663,3.146-1.746,3.683c-1.084,0.537-2.419,0.824-4.007,0.861c-0.009,0.188-0.013,0.382-0.013,0.582
				c0,1.008,0.069,2.201,0.208,3.579L509.967,16.724z M513.095,5.979l0.085,4.453c1.515-0.061,2.402-0.465,2.663-1.211
				c0.122-0.34,0.184-0.689,0.184-1.048c0-0.419-0.082-0.85-0.245-1.293c-0.244-0.649-0.854-0.974-1.832-0.974
				C513.688,5.907,513.403,5.931,513.095,5.979z"/>
			<path fill="#FFFFFF" d="M523.759,10.469l0.122,6.602l-2.993,0.019c0-2.793-0.126-5.928-0.379-9.406l2.248-0.183l0.122,1.484
				c0.342-0.729,1.14-1.144,2.395-1.247c0.187-0.013,0.366-0.019,0.537-0.019c0.985,0,1.734,0.24,2.247,0.72
				c0.595,0.57,0.896,1.478,0.904,2.723l-2.712,0.2c0.008-0.104,0.013-0.204,0.013-0.301c0-0.972-0.338-1.457-1.014-1.457H525.2
				C524.418,9.634,523.938,9.923,523.759,10.469z"/>
			<path fill="#FFFFFF" d="M534.08,7.646c2.769,0,4.153,1.434,4.153,4.299c0,0.115-0.004,0.23-0.012,0.346
				c-0.114,3.102-1.589,4.668-4.422,4.698c-0.033,0.006-0.065,0.009-0.099,0.009c-2.695,0-4.043-1.466-4.043-4.397v-0.255
				C529.74,9.212,531.214,7.646,534.08,7.646z M533.677,9.722c-0.513,0.134-0.863,0.629-1.05,1.484
				c-0.114,0.51-0.171,1.023-0.171,1.539c0,0.346,0.024,0.695,0.073,1.047c0.13,0.874,0.55,1.326,1.258,1.357h0.086
				c0.659,0,1.111-0.325,1.355-0.975c0.203-0.54,0.306-1.181,0.306-1.922c0-0.182-0.005-0.367-0.013-0.555
				c-0.065-0.978-0.261-1.588-0.586-1.83c-0.204-0.146-0.448-0.219-0.733-0.219C534.039,9.649,533.864,9.674,533.677,9.722z"/>
			<path fill="#FFFFFF" d="M539.247,18.054l2.87-0.118c-0.008,0.072-0.013,0.146-0.013,0.218c0,0.662,0.354,1.023,1.063,1.084
				c0.113,0.012,0.22,0.019,0.317,0.019c0.61,0,1.046-0.183,1.307-0.547c0.229-0.327,0.343-0.94,0.343-1.839
				c0-0.243-0.009-0.51-0.024-0.802c-0.457,0.681-1.304,1.051-2.541,1.111c-2.419-0.019-3.628-1.552-3.628-4.599v-0.063
				c0.016-3.084,1.453-4.635,4.312-4.653c0.782,0,1.482,0.34,2.102,1.02l0.036-1.447l2.676,0.091c0,5.009-0.021,8.11-0.062,9.306
				c-0.041,1.196-0.283,2.155-0.727,2.878c-0.444,0.722-1.199,1.184-2.267,1.384c-0.562,0.109-1.119,0.164-1.673,0.164
				c-0.497,0-0.989-0.043-1.479-0.127c-1.042-0.183-1.759-0.525-2.149-1.029c-0.326-0.413-0.488-0.953-0.488-1.621
				C539.223,18.348,539.23,18.205,539.247,18.054z M545.086,14.448v-3.697c-0.399-0.602-0.904-0.901-1.516-0.901
				c-0.122,0-0.248,0.013-0.378,0.036c-0.79,0.14-1.226,0.95-1.308,2.432c-0.008,0.158-0.012,0.31-0.012,0.455
				c0,1.208,0.301,1.948,0.903,2.222c0.204,0.097,0.42,0.146,0.647,0.146C543.929,15.14,544.482,14.909,545.086,14.448z"/>
			<path fill="#FFFFFF" d="M552.257,10.469l0.122,6.602l-2.993,0.019c0-2.793-0.126-5.928-0.379-9.406l2.248-0.183l0.122,1.484
				c0.342-0.729,1.14-1.144,2.395-1.247c0.187-0.013,0.366-0.019,0.537-0.019c0.985,0,1.734,0.24,2.247,0.72
				c0.595,0.57,0.896,1.478,0.904,2.723l-2.712,0.2c0.008-0.104,0.013-0.204,0.013-0.301c0-0.972-0.338-1.457-1.014-1.457h-0.049
				C552.916,9.634,552.436,9.923,552.257,10.469z"/>
			<path fill="#FFFFFF" d="M562.248,7.646c2.825,0,4.238,1.399,4.238,4.198c0,0.34-0.021,0.704-0.062,1.093h-5.46
				c0,1.561,0.403,2.34,1.209,2.34h0.086c0.709-0.042,1.062-0.446,1.062-1.211c0-0.164-0.017-0.346-0.049-0.547l2.907-0.045
				c0,2.312-1.355,3.484-4.067,3.515c-0.032,0.006-0.062,0.009-0.086,0.009c-2.581,0-3.872-1.459-3.872-4.379v-0.273
				C558.237,9.212,559.601,7.646,562.248,7.646z M560.672,11.261h2.761v-0.219c0-1.104-0.42-1.657-1.259-1.657
				C561.271,9.385,560.77,10.011,560.672,11.261z"/>
			<path fill="#FFFFFF" d="M567.256,13.765l2.798-0.1v0.118c0,0.935,0.387,1.408,1.16,1.421h0.049c0.749,0,1.124-0.271,1.124-0.811
				v-0.064c-0.033-0.595-0.771-1.074-2.218-1.438c-1.445-0.364-2.314-0.978-2.607-1.839c-0.106-0.304-0.159-0.596-0.159-0.875
				c0-0.51,0.176-0.982,0.525-1.42c0.538-0.668,1.352-1.05,2.443-1.147c0.293-0.024,0.578-0.036,0.854-0.036
				c0.726,0,1.364,0.094,1.918,0.282c0.758,0.261,1.283,0.634,1.576,1.12c0.195,0.334,0.293,0.704,0.293,1.11
				c0,0.194-0.021,0.396-0.062,0.602l-2.613,0.045c0.024-0.151,0.036-0.291,0.036-0.419c0-0.606-0.261-0.932-0.781-0.974
				c-0.058-0.007-0.114-0.009-0.171-0.009c-0.538,0-0.9,0.203-1.088,0.609c-0.065,0.14-0.098,0.268-0.098,0.383
				c0,0.285,0.18,0.531,0.538,0.737c0.505,0.291,1.252,0.587,2.241,0.888s1.655,0.812,1.997,1.534
				c0.122,0.273,0.184,0.547,0.184,0.819c0,0.462-0.18,0.926-0.538,1.394c-0.57,0.747-1.453,1.181-2.65,1.302
				c-0.261,0.031-0.518,0.046-0.77,0.046c-0.896,0-1.727-0.173-2.492-0.519C567.77,16.081,567.272,15.161,567.256,13.765z"/>
			<path fill="#FFFFFF" d="M579.496,5.552c0,0.37-0.176,0.686-0.525,0.947C578.62,6.76,578.196,6.89,577.7,6.89
				c-0.488,0-0.908-0.13-1.258-0.391c-0.351-0.262-0.525-0.577-0.525-0.947c0-0.364,0.175-0.677,0.525-0.938
				c0.35-0.262,0.77-0.393,1.258-0.393c0.496,0,0.92,0.131,1.271,0.393C579.32,4.875,579.496,5.188,579.496,5.552z M576.222,17.043
				c-0.057-3.552-0.085-6.62-0.085-9.206l3.078-0.137c-0.098,2.477-0.146,4.938-0.146,7.385c0,0.656,0.004,1.309,0.012,1.958
				H576.222z"/>
			<path fill="#FFFFFF" d="M582.439,16.761c-1.026-3.515-1.946-6.531-2.761-9.051l2.969-0.119l1.502,6.62
				c0.782-2.477,1.404-4.735,1.869-6.774l2.919,0.273c-0.92,2.543-1.991,5.548-3.212,9.014L582.439,16.761z"/>
			<path fill="#FFFFFF" d="M592.811,5.552c0,0.37-0.176,0.686-0.525,0.947c-0.351,0.261-0.774,0.391-1.271,0.391
				c-0.488,0-0.908-0.13-1.258-0.391c-0.351-0.262-0.525-0.577-0.525-0.947c0-0.364,0.175-0.677,0.525-0.938
				c0.35-0.262,0.77-0.393,1.258-0.393c0.496,0,0.92,0.131,1.271,0.393C592.635,4.875,592.811,5.188,592.811,5.552z M589.536,17.043
				c-0.057-3.552-0.085-6.62-0.085-9.206l3.078-0.137c-0.098,2.477-0.146,4.938-0.146,7.385c0,0.656,0.004,1.309,0.012,1.958
				H589.536z"/>
			<path fill="#FFFFFF" d="M602.717,4.113c-0.049,2.052-0.073,4.204-0.073,6.456c0,2.051,0.02,4.188,0.061,6.41l-2.895,0.009
				l-0.098-1.394c-0.604,0.674-1.405,1.011-2.407,1.011c-2.5,0-3.75-1.426-3.75-4.279c0-0.061,0.004-0.121,0.013-0.183
				c0.049-2.858,1.286-4.288,3.713-4.288c0.098,0,0.2,0.003,0.306,0.009c0.831,0.037,1.503,0.373,2.016,1.011
				c0-1.348-0.045-2.935-0.135-4.762H602.717z M599.663,13.729l-0.062-3.15c-0.473-0.479-0.957-0.72-1.454-0.72
				c-0.203,0-0.407,0.04-0.61,0.119c-0.644,0.248-0.965,0.946-0.965,2.094c0,0.134,0.004,0.271,0.012,0.41
				c0.082,1.39,0.497,2.124,1.246,2.203c0.073,0.006,0.146,0.009,0.22,0.009C598.701,14.693,599.239,14.372,599.663,13.729z"/>
			<path fill="#FFFFFF" d="M608.408,7.382c2.679,0.109,4.019,1.114,4.019,3.014v6.465l-2.846,0.037l-0.098-0.865
				c-0.587,0.498-1.364,0.746-2.333,0.746c-0.416,0-0.863-0.048-1.344-0.146c-1.441-0.267-2.162-1.099-2.162-2.495
				c0-0.17,0.012-0.352,0.036-0.546c0.163-1.438,1.535-2.158,4.117-2.158c0.496,0,1.042,0.027,1.637,0.082V10.46
				c0-0.856-0.362-1.284-1.088-1.284h-0.049c-0.057-0.006-0.109-0.009-0.158-0.009c-0.79,0-1.185,0.479-1.185,1.438v0.137
				l-2.907-0.183c0-2.118,1.368-3.178,4.104-3.178H608.408z M609.435,14.575v-1.603c-0.351-0.055-0.668-0.082-0.953-0.082
				c-0.741,0-1.246,0.186-1.515,0.556c-0.163,0.225-0.244,0.434-0.244,0.628c0,0.243,0.13,0.459,0.391,0.646
				c0.203,0.146,0.469,0.219,0.794,0.219C608.322,14.939,608.832,14.818,609.435,14.575z"/>
			<path fill="#FFFFFF" d="M622.64,4.113c-0.049,2.052-0.073,4.204-0.073,6.456c0,2.051,0.02,4.188,0.061,6.41l-2.895,0.009
				l-0.098-1.394c-0.604,0.674-1.405,1.011-2.407,1.011c-2.5,0-3.75-1.426-3.75-4.279c0-0.061,0.004-0.121,0.013-0.183
				c0.049-2.858,1.286-4.288,3.713-4.288c0.098,0,0.2,0.003,0.306,0.009c0.831,0.037,1.503,0.373,2.016,1.011
				c0-1.348-0.045-2.935-0.135-4.762H622.64z M619.586,13.729l-0.062-3.15c-0.473-0.479-0.957-0.72-1.454-0.72
				c-0.203,0-0.407,0.04-0.61,0.119c-0.644,0.248-0.965,0.946-0.965,2.094c0,0.134,0.004,0.271,0.012,0.41
				c0.082,1.39,0.497,2.124,1.246,2.203c0.073,0.006,0.146,0.009,0.22,0.009C618.624,14.693,619.162,14.372,619.586,13.729z"/>
			<path fill="#FFFFFF" d="M628.136,7.609l3.2-0.191c-0.073,1.821-0.109,3.321-0.109,4.499c0,0.442,0.008,0.84,0.024,1.192
				c0.032,1.299,0.423,1.967,1.173,2.003c0.049,0.006,0.093,0.01,0.134,0.01c0.668,0,1.092-0.285,1.271-0.856
				c0.098-0.334,0.146-1.126,0.146-2.376c0-1.002-0.032-2.295-0.098-3.879l3.005-0.164c0.032,1.852,0.049,3.441,0.049,4.771
				c0,1.656-0.024,2.907-0.073,3.751c-0.081,1.518-0.664,2.671-1.746,3.46c-0.978,0.717-2.35,1.074-4.117,1.074
				c-0.203,0-0.411-0.006-0.623-0.018l-0.342-2.223c0.154,0.007,0.306,0.01,0.452,0.01c1.368,0,2.305-0.18,2.81-0.537
				c0.521-0.371,0.781-0.965,0.781-1.785v-0.146c-0.464,0.546-1.177,0.819-2.138,0.819h-0.171c-1.05-0.036-1.864-0.344-2.442-0.924
				c-0.579-0.58-0.895-1.394-0.947-2.44S628.242,10.597,628.136,7.609z"/>
			<path fill="#FFFFFF" d="M652.811,8.721l-2.772,0.018c-0.041-1.542-0.562-2.352-1.563-2.431h-0.22
				c-0.896,0-1.621,0.439-2.175,1.32c-0.554,0.88-0.83,2.127-0.83,3.742v0.4c0.049,1.81,0.899,2.714,2.553,2.714
				c1.14,0,1.71-0.692,1.71-2.076c0-0.14-0.004-0.282-0.012-0.428l-2.432,0.027l0.122-2.049l6.242,0.072v2.231l-1.246,0.018
				c0,3.169-1.693,4.754-5.081,4.754c-3.136,0-4.703-1.864-4.703-5.592c0-0.309,0.013-0.634,0.037-0.974
				c0.285-4.377,2.153-6.656,5.606-6.839c0.171-0.006,0.334-0.009,0.488-0.009c2.875,0,4.312,1.445,4.312,4.335
				C652.848,8.198,652.835,8.453,652.811,8.721z"/>
			<path fill="#FFFFFF" d="M657.758,10.469l0.122,6.602l-2.993,0.019c0-2.793-0.126-5.928-0.379-9.406l2.248-0.183l0.122,1.484
				c0.342-0.729,1.14-1.144,2.395-1.247c0.187-0.013,0.366-0.019,0.537-0.019c0.985,0,1.734,0.24,2.247,0.72
				c0.595,0.57,0.896,1.478,0.904,2.723l-2.712,0.2c0.008-0.104,0.013-0.204,0.013-0.301c0-0.972-0.338-1.457-1.014-1.457h-0.049
				C658.417,9.634,657.937,9.923,657.758,10.469z"/>
			<path fill="#FFFFFF" d="M668.507,7.382c2.679,0.109,4.019,1.114,4.019,3.014v6.465l-2.846,0.037l-0.098-0.865
				c-0.587,0.498-1.364,0.746-2.333,0.746c-0.416,0-0.863-0.048-1.344-0.146c-1.441-0.267-2.162-1.099-2.162-2.495
				c0-0.17,0.012-0.352,0.036-0.546c0.163-1.438,1.535-2.158,4.117-2.158c0.496,0,1.042,0.027,1.637,0.082V10.46
				c0-0.856-0.362-1.284-1.088-1.284h-0.049c-0.057-0.006-0.109-0.009-0.158-0.009c-0.79,0-1.185,0.479-1.185,1.438v0.137
				l-2.907-0.183c0-2.118,1.368-3.178,4.104-3.178H668.507z M669.533,14.575v-1.603c-0.351-0.055-0.668-0.082-0.953-0.082
				c-0.741,0-1.246,0.186-1.515,0.556c-0.163,0.225-0.244,0.434-0.244,0.628c0,0.243,0.13,0.459,0.391,0.646
				c0.203,0.146,0.469,0.219,0.794,0.219C668.421,14.939,668.931,14.818,669.533,14.575z"/>
			<path fill="#FFFFFF" d="M682.738,4.113c-0.049,2.052-0.073,4.204-0.073,6.456c0,2.051,0.02,4.188,0.061,6.41l-2.895,0.009
				l-0.098-1.394c-0.604,0.674-1.405,1.011-2.407,1.011c-2.5,0-3.75-1.426-3.75-4.279c0-0.061,0.004-0.121,0.013-0.183
				c0.049-2.858,1.286-4.288,3.713-4.288c0.098,0,0.2,0.003,0.306,0.009c0.831,0.037,1.503,0.373,2.016,1.011
				c0-1.348-0.045-2.935-0.135-4.762H682.738z M679.685,13.729l-0.062-3.15c-0.473-0.479-0.957-0.72-1.454-0.72
				c-0.203,0-0.407,0.04-0.61,0.119c-0.644,0.248-0.965,0.946-0.965,2.094c0,0.134,0.004,0.271,0.012,0.41
				c0.082,1.39,0.497,2.124,1.246,2.203c0.073,0.006,0.146,0.009,0.22,0.009C678.723,14.693,679.261,14.372,679.685,13.729z"/>
			<path fill="#FFFFFF" d="M690.042,16.997l-0.122-1.484c-0.342,0.789-1.263,1.188-2.761,1.193
				c-0.017,0.006-0.028,0.009-0.036,0.009c-1.482,0-2.464-0.497-2.944-1.493c-0.325-0.661-0.488-2.03-0.488-4.106
				c0-1.068,0.045-2.328,0.134-3.778h2.969c-0.163,2.039-0.244,3.608-0.244,4.707c0,0.553,0.02,0.983,0.061,1.293
				c0.122,0.947,0.533,1.42,1.234,1.42c0.7,0,1.14-0.245,1.319-0.737L689.04,7.7l2.871-0.018c0,2.61,0.126,5.651,0.379,9.123
				L690.042,16.997z"/>
			<path fill="#FFFFFF" d="M698.031,7.382c2.679,0.109,4.019,1.114,4.019,3.014v6.465l-2.846,0.037l-0.098-0.865
				c-0.587,0.498-1.364,0.746-2.333,0.746c-0.416,0-0.863-0.048-1.344-0.146c-1.441-0.267-2.162-1.099-2.162-2.495
				c0-0.17,0.012-0.352,0.036-0.546c0.163-1.438,1.535-2.158,4.117-2.158c0.496,0,1.042,0.027,1.637,0.082V10.46
				c0-0.856-0.362-1.284-1.088-1.284h-0.049c-0.057-0.006-0.109-0.009-0.158-0.009c-0.79,0-1.185,0.479-1.185,1.438v0.137
				l-2.907-0.183c0-2.118,1.368-3.178,4.104-3.178H698.031z M699.058,14.575v-1.603c-0.351-0.055-0.668-0.082-0.953-0.082
				c-0.741,0-1.246,0.186-1.515,0.556c-0.163,0.225-0.244,0.434-0.244,0.628c0,0.243,0.13,0.459,0.391,0.646
				c0.203,0.146,0.469,0.219,0.794,0.219C697.945,14.939,698.455,14.818,699.058,14.575z"/>
			<path fill="#FFFFFF" d="M706.459,16.843l-3.041,0.209c0.032-2.009,0.049-3.942,0.049-5.8c0-2.61-0.033-5.072-0.098-7.385
				l2.992-0.036c-0.032,1.487-0.049,3.014-0.049,4.58C706.312,11.112,706.361,13.923,706.459,16.843z"/>
			<path fill="#FFFFFF" d="M710.931,5.552c0,0.37-0.176,0.686-0.525,0.947c-0.351,0.261-0.774,0.391-1.271,0.391
				c-0.488,0-0.908-0.13-1.258-0.391c-0.351-0.262-0.525-0.577-0.525-0.947c0-0.364,0.175-0.677,0.525-0.938
				c0.35-0.262,0.77-0.393,1.258-0.393c0.496,0,0.92,0.131,1.271,0.393C710.755,4.875,710.931,5.188,710.931,5.552z M707.656,17.043
				c-0.057-3.552-0.085-6.62-0.085-9.206l3.078-0.137c-0.098,2.477-0.146,4.938-0.146,7.385c0,0.656,0.004,1.309,0.012,1.958
				H707.656z"/>
			<path fill="#FFFFFF" d="M720.837,4.113c-0.049,2.052-0.073,4.204-0.073,6.456c0,2.051,0.02,4.188,0.061,6.41l-2.895,0.009
				l-0.098-1.394c-0.604,0.674-1.405,1.011-2.407,1.011c-2.5,0-3.75-1.426-3.75-4.279c0-0.061,0.004-0.121,0.013-0.183
				c0.049-2.858,1.286-4.288,3.713-4.288c0.098,0,0.2,0.003,0.306,0.009c0.831,0.037,1.503,0.373,2.016,1.011
				c0-1.348-0.045-2.935-0.135-4.762H720.837z M717.783,13.729l-0.062-3.15c-0.473-0.479-0.957-0.72-1.454-0.72
				c-0.203,0-0.407,0.04-0.61,0.119c-0.644,0.248-0.965,0.946-0.965,2.094c0,0.134,0.004,0.271,0.012,0.41
				c0.082,1.39,0.497,2.124,1.246,2.203c0.073,0.006,0.146,0.009,0.22,0.009C716.821,14.693,717.359,14.372,717.783,13.729z"/>
			<path fill="#FFFFFF" d="M726.528,7.382c2.679,0.109,4.019,1.114,4.019,3.014v6.465l-2.846,0.037l-0.098-0.865
				c-0.587,0.498-1.364,0.746-2.333,0.746c-0.416,0-0.863-0.048-1.344-0.146c-1.441-0.267-2.162-1.099-2.162-2.495
				c0-0.17,0.012-0.352,0.036-0.546c0.163-1.438,1.535-2.158,4.117-2.158c0.496,0,1.042,0.027,1.637,0.082V10.46
				c0-0.856-0.362-1.284-1.088-1.284h-0.049c-0.057-0.006-0.109-0.009-0.158-0.009c-0.79,0-1.185,0.479-1.185,1.438v0.137
				l-2.907-0.183c0-2.118,1.368-3.178,4.104-3.178H726.528z M727.555,14.575v-1.603c-0.351-0.055-0.668-0.082-0.953-0.082
				c-0.741,0-1.246,0.186-1.515,0.556c-0.163,0.225-0.244,0.434-0.244,0.628c0,0.243,0.13,0.459,0.391,0.646
				c0.203,0.146,0.469,0.219,0.794,0.219C726.442,14.939,726.952,14.818,727.555,14.575z"/>
			<path fill="#FFFFFF" d="M740.76,4.113c-0.049,2.052-0.073,4.204-0.073,6.456c0,2.051,0.02,4.188,0.061,6.41l-2.895,0.009
				l-0.098-1.394c-0.604,0.674-1.405,1.011-2.407,1.011c-2.5,0-3.75-1.426-3.75-4.279c0-0.061,0.004-0.121,0.013-0.183
				c0.049-2.858,1.286-4.288,3.713-4.288c0.098,0,0.2,0.003,0.306,0.009c0.831,0.037,1.503,0.373,2.016,1.011
				c0-1.348-0.045-2.935-0.135-4.762H740.76z M737.706,13.729l-0.062-3.15c-0.473-0.479-0.957-0.72-1.454-0.72
				c-0.203,0-0.407,0.04-0.61,0.119c-0.644,0.248-0.965,0.946-0.965,2.094c0,0.134,0.004,0.271,0.012,0.41
				c0.082,1.39,0.497,2.124,1.246,2.203c0.073,0.006,0.146,0.009,0.22,0.009C736.744,14.693,737.282,14.372,737.706,13.729z"/>
		</g>
	</g>
	<g>
		<g>
			<path fill="#FFFFFF" d="M826.787,11.907l3.628-0.182c-0.049,0.376-0.073,0.716-0.073,1.02c0,1.378,0.46,2.066,1.381,2.066h0.049
				c1.115-0.023,1.673-0.467,1.673-1.329V13.4c-0.04-0.916-1.095-1.814-3.163-2.695c-2.012-0.85-3.018-2.252-3.018-4.206
				c0-0.061,0.004-0.122,0.013-0.183c0.057-2.046,1.596-3.087,4.617-3.123h0.098c2.728,0,4.092,1.296,4.092,3.888
				c0,0.207-0.008,0.426-0.024,0.656l-3.188,0.137c0.032-0.273,0.049-0.525,0.049-0.756c0-1.087-0.354-1.63-1.063-1.63
				c-0.854,0-1.323,0.324-1.404,0.974c-0.008,0.092-0.013,0.183-0.013,0.273c0,0.54,0.216,1.044,0.647,1.512
				c0.497,0.54,1.351,1.035,2.56,1.484s2.054,1.064,2.534,1.848c0.343,0.564,0.514,1.166,0.514,1.804
				c0,0.242-0.024,0.491-0.073,0.746c-0.188,0.917-0.709,1.677-1.563,2.281c-0.855,0.604-2.004,0.933-3.445,0.987
				c-0.098,0.007-0.195,0.01-0.293,0.01c-1.312,0-2.406-0.358-3.286-1.074c-0.847-0.687-1.271-1.934-1.271-3.742
				C826.763,12.372,826.771,12.144,826.787,11.907z"/>
			<path fill="#FFFFFF" d="M842.044,7.646c2.769,0,4.153,1.434,4.153,4.299c0,0.115-0.004,0.23-0.012,0.346
				c-0.114,3.102-1.589,4.668-4.422,4.698c-0.033,0.006-0.065,0.009-0.099,0.009c-2.695,0-4.043-1.466-4.043-4.397v-0.255
				C837.704,9.212,839.178,7.646,842.044,7.646z M841.641,9.722c-0.513,0.134-0.863,0.629-1.05,1.484
				c-0.114,0.51-0.171,1.023-0.171,1.539c0,0.346,0.024,0.695,0.073,1.047c0.13,0.874,0.55,1.326,1.258,1.357h0.086
				c0.659,0,1.111-0.325,1.355-0.975c0.203-0.54,0.306-1.181,0.306-1.922c0-0.182-0.005-0.367-0.013-0.555
				c-0.065-0.978-0.261-1.588-0.586-1.83c-0.204-0.146-0.448-0.219-0.733-0.219C842.003,9.649,841.828,9.674,841.641,9.722z"/>
			<path fill="#FFFFFF" d="M846.723,13.765l2.798-0.1v0.118c0,0.935,0.387,1.408,1.16,1.421h0.049c0.749,0,1.124-0.271,1.124-0.811
				v-0.064c-0.033-0.595-0.771-1.074-2.218-1.438c-1.445-0.364-2.314-0.978-2.607-1.839c-0.106-0.304-0.159-0.596-0.159-0.875
				c0-0.51,0.176-0.982,0.525-1.42c0.538-0.668,1.352-1.05,2.443-1.147c0.293-0.024,0.578-0.036,0.854-0.036
				c0.726,0,1.364,0.094,1.918,0.282c0.758,0.261,1.283,0.634,1.576,1.12c0.195,0.334,0.293,0.704,0.293,1.11
				c0,0.194-0.021,0.396-0.062,0.602l-2.613,0.045c0.024-0.151,0.036-0.291,0.036-0.419c0-0.606-0.261-0.932-0.781-0.974
				c-0.058-0.007-0.114-0.009-0.171-0.009c-0.538,0-0.9,0.203-1.088,0.609c-0.065,0.14-0.098,0.268-0.098,0.383
				c0,0.285,0.18,0.531,0.538,0.737c0.505,0.291,1.252,0.587,2.241,0.888s1.655,0.812,1.997,1.534
				c0.122,0.273,0.184,0.547,0.184,0.819c0,0.462-0.18,0.926-0.538,1.394c-0.57,0.747-1.453,1.181-2.65,1.302
				c-0.261,0.031-0.518,0.046-0.77,0.046c-0.896,0-1.727-0.173-2.492-0.519C847.236,16.081,846.739,15.161,846.723,13.765z"/>
			<path fill="#FFFFFF" d="M857.582,4.741l2.773-0.137v3.014l2.333-0.045l0.036,1.721l-2.369,0.082v4.143
				c0,0.966,0.549,1.448,1.648,1.448c0.229,0,0.477-0.021,0.745-0.063l-0.109,2.003c-0.392,0.036-0.762,0.055-1.112,0.055
				c-2.573,0-3.884-0.989-3.933-2.969V9.54l-2.004,0.091l-0.049-2.03l2.053,0.018L857.582,4.741z"/>
			<path fill="#FFFFFF" d="M867.709,7.646c2.825,0,4.238,1.399,4.238,4.198c0,0.34-0.021,0.704-0.062,1.093h-5.46
				c0,1.561,0.403,2.34,1.209,2.34h0.086c0.709-0.042,1.062-0.446,1.062-1.211c0-0.164-0.017-0.346-0.049-0.547l2.907-0.045
				c0,2.312-1.355,3.484-4.067,3.515c-0.032,0.006-0.062,0.009-0.086,0.009c-2.581,0-3.872-1.459-3.872-4.379v-0.273
				C863.698,9.212,865.062,7.646,867.709,7.646z M866.133,11.261h2.761v-0.219c0-1.104-0.42-1.657-1.259-1.657
				C866.731,9.385,866.23,10.011,866.133,11.261z"/>
			<path fill="#FFFFFF" d="M875.11,7.409l0.122,1.484c0.342-0.789,1.241-1.189,2.699-1.202h0.049c1.434,0,2.411,0.419,2.932,1.257
				c0.358,0.57,0.538,1.906,0.538,4.006c0,1.032-0.045,2.253-0.135,3.661h-2.956c0.105-1.876,0.159-3.33,0.159-4.362
				c0-0.516-0.013-0.928-0.037-1.238c-0.081-0.91-0.473-1.365-1.173-1.365s-1.14,0.242-1.319,0.729l0.123,6.602l-2.871,0.018
				c0-2.792-0.126-5.928-0.379-9.406L875.11,7.409z"/>
			<path fill="#FFFFFF" d="M885.885,5.552c0,0.37-0.176,0.686-0.525,0.947c-0.351,0.261-0.774,0.391-1.271,0.391
				c-0.488,0-0.908-0.13-1.258-0.391c-0.351-0.262-0.525-0.577-0.525-0.947c0-0.364,0.175-0.677,0.525-0.938
				c0.35-0.262,0.77-0.393,1.258-0.393c0.496,0,0.92,0.131,1.271,0.393C885.709,4.875,885.885,5.188,885.885,5.552z M882.61,17.043
				c-0.057-3.552-0.085-6.62-0.085-9.206l3.078-0.137c-0.098,2.477-0.146,4.938-0.146,7.385c0,0.656,0.004,1.309,0.012,1.958H882.61
				z"/>
			<path fill="#FFFFFF" d="M889.879,4.113c-0.09,1.827-0.135,3.414-0.135,4.762c0.432-0.576,0.981-0.913,1.649-1.011
				c0.113-0.006,0.224-0.009,0.329-0.009c2.655,0,4.011,1.43,4.068,4.288v0.164c0,2.865-1.413,4.298-4.239,4.298
				c-0.676,0-1.315-0.337-1.918-1.011l-0.098,1.394l-2.895-0.009c0.041-2.223,0.061-4.359,0.061-6.41
				c0-2.252-0.024-4.404-0.073-6.456H889.879z M889.744,10.578l-0.062,3.15c0.424,0.644,0.961,0.965,1.613,0.965
				c0.073,0,0.146-0.003,0.22-0.009c0.749-0.079,1.164-0.828,1.246-2.249c0.008-0.146,0.012-0.285,0.012-0.419
				c0-1.166-0.317-1.86-0.953-2.085c-0.195-0.067-0.387-0.101-0.573-0.101C890.733,9.831,890.232,10.08,889.744,10.578z"/>
			<path fill="#FFFFFF" d="M900.176,5.552c0,0.37-0.176,0.686-0.525,0.947C899.3,6.76,898.876,6.89,898.38,6.89
				c-0.488,0-0.908-0.13-1.258-0.391c-0.351-0.262-0.525-0.577-0.525-0.947c0-0.364,0.175-0.677,0.525-0.938
				c0.35-0.262,0.77-0.393,1.258-0.393c0.496,0,0.92,0.131,1.271,0.393C900,4.875,900.176,5.188,900.176,5.552z M896.901,17.043
				c-0.057-3.552-0.085-6.62-0.085-9.206l3.078-0.137c-0.098,2.477-0.146,4.938-0.146,7.385c0,0.656,0.004,1.309,0.012,1.958
				H896.901z"/>
			<path fill="#FFFFFF" d="M904.28,16.843l-3.041,0.209c0.032-2.009,0.049-3.942,0.049-5.8c0-2.61-0.033-5.072-0.098-7.385
				l2.992-0.036c-0.032,1.487-0.049,3.014-0.049,4.58C904.134,11.112,904.183,13.923,904.28,16.843z"/>
			<path fill="#FFFFFF" d="M908.751,5.552c0,0.37-0.176,0.686-0.525,0.947c-0.351,0.261-0.774,0.391-1.271,0.391
				c-0.488,0-0.908-0.13-1.258-0.391c-0.351-0.262-0.525-0.577-0.525-0.947c0-0.364,0.175-0.677,0.525-0.938
				c0.35-0.262,0.77-0.393,1.258-0.393c0.496,0,0.92,0.131,1.271,0.393C908.575,4.875,908.751,5.188,908.751,5.552z M905.477,17.043
				c-0.057-3.552-0.085-6.62-0.085-9.206L908.47,7.7c-0.098,2.477-0.146,4.938-0.146,7.385c0,0.656,0.004,1.309,0.012,1.958H905.477
				z"/>
			<path fill="#FFFFFF" d="M918.657,4.113c-0.049,2.052-0.073,4.204-0.073,6.456c0,2.051,0.02,4.188,0.061,6.41l-2.895,0.009
				l-0.098-1.394c-0.604,0.674-1.405,1.011-2.407,1.011c-2.5,0-3.75-1.426-3.75-4.279c0-0.061,0.004-0.121,0.013-0.183
				c0.049-2.858,1.286-4.288,3.713-4.288c0.098,0,0.2,0.003,0.306,0.009c0.831,0.037,1.503,0.373,2.016,1.011
				c0-1.348-0.045-2.935-0.135-4.762H918.657z M915.604,13.729l-0.062-3.15c-0.473-0.479-0.957-0.72-1.454-0.72
				c-0.203,0-0.407,0.04-0.61,0.119c-0.644,0.248-0.965,0.946-0.965,2.094c0,0.134,0.004,0.271,0.012,0.41
				c0.082,1.39,0.497,2.124,1.246,2.203c0.073,0.006,0.146,0.009,0.22,0.009C914.642,14.693,915.18,14.372,915.604,13.729z"/>
			<path fill="#FFFFFF" d="M924.35,7.382c2.679,0.109,4.019,1.114,4.019,3.014v6.465l-2.846,0.037l-0.098-0.865
				c-0.587,0.498-1.364,0.746-2.333,0.746c-0.416,0-0.863-0.048-1.344-0.146c-1.441-0.267-2.162-1.099-2.162-2.495
				c0-0.17,0.012-0.352,0.036-0.546c0.163-1.438,1.535-2.158,4.117-2.158c0.496,0,1.042,0.027,1.637,0.082V10.46
				c0-0.856-0.362-1.284-1.088-1.284h-0.049c-0.057-0.006-0.109-0.009-0.158-0.009c-0.79,0-1.185,0.479-1.185,1.438v0.137
				l-2.907-0.183c0-2.118,1.368-3.178,4.104-3.178H924.35z M925.376,14.575v-1.603c-0.351-0.055-0.668-0.082-0.953-0.082
				c-0.741,0-1.246,0.186-1.515,0.556c-0.163,0.225-0.244,0.434-0.244,0.628c0,0.243,0.13,0.459,0.391,0.646
				c0.203,0.146,0.469,0.219,0.794,0.219C924.264,14.939,924.773,14.818,925.376,14.575z"/>
			<path fill="#FFFFFF" d="M938.58,4.113c-0.049,2.052-0.073,4.204-0.073,6.456c0,2.051,0.02,4.188,0.061,6.41l-2.895,0.009
				l-0.098-1.394c-0.604,0.674-1.405,1.011-2.407,1.011c-2.5,0-3.75-1.426-3.75-4.279c0-0.061,0.004-0.121,0.013-0.183
				c0.049-2.858,1.286-4.288,3.713-4.288c0.098,0,0.2,0.003,0.306,0.009c0.831,0.037,1.503,0.373,2.016,1.011
				c0-1.348-0.045-2.935-0.135-4.762H938.58z M935.526,13.729l-0.062-3.15c-0.473-0.479-0.957-0.72-1.454-0.72
				c-0.203,0-0.407,0.04-0.61,0.119c-0.644,0.248-0.965,0.946-0.965,2.094c0,0.134,0.004,0.271,0.012,0.41
				c0.082,1.39,0.497,2.124,1.246,2.203c0.073,0.006,0.146,0.009,0.22,0.009C934.564,14.693,935.103,14.372,935.526,13.729z"/>
		</g>
	</g>
</g>
</svg>
