<?xml version="1.0" encoding="utf-8"?>
<!-- Generator: Adobe Illustrator 16.0.0, SVG Export Plug-In . SVG Version: 6.00 Build 0)  -->
<!DOCTYPE svg PUBLIC "-//W3C//DTD SVG 1.1//EN" "http://www.w3.org/Graphics/SVG/1.1/DTD/svg11.dtd">
<svg version="1.1" id="Capa_1" xmlns="http://www.w3.org/2000/svg" xmlns:xlink="http://www.w3.org/1999/xlink" x="0px" y="0px"
	 width="357.463px" height="63.054px" viewBox="0 0 357.463 63.054" enable-background="new 0 0 357.463 63.054"
	 xml:space="preserve">
<g>
	<g>
		<path fill="#FFFFFF" d="M29.356,11.764c-0.568,0.219-1.705,0.539-3.031,0.539c-1.486,0-2.71-0.379-3.672-1.297
			c-0.846-0.815-1.37-2.127-1.37-3.657c0-2.929,2.025-5.071,5.319-5.071c1.137,0,2.04,0.248,2.462,0.452l-0.32,1.034
			c-0.524-0.248-1.18-0.422-2.171-0.422c-2.39,0-3.949,1.486-3.949,3.949c0,2.491,1.486,3.963,3.789,3.963
			c0.83,0,1.398-0.117,1.69-0.262v-2.93h-1.982v-1.02h3.235V11.764z"/>
		<path fill="#FFFFFF" d="M36.311,10.511c0,0.612,0.029,1.21,0.102,1.69h-1.151l-0.102-0.889h-0.044
			c-0.394,0.554-1.151,1.049-2.156,1.049c-1.429,0-2.157-1.006-2.157-2.025c0-1.705,1.516-2.638,4.241-2.623V7.567
			c0-0.568-0.161-1.632-1.604-1.618c-0.67,0-1.355,0.189-1.851,0.525l-0.291-0.859c0.582-0.365,1.442-0.613,2.331-0.613
			c2.157,0,2.682,1.473,2.682,2.871V10.511z M35.071,8.602c-1.398-0.029-2.987,0.219-2.987,1.589c0,0.845,0.554,1.224,1.195,1.224
			c0.933,0,1.53-0.582,1.734-1.18c0.043-0.146,0.058-0.292,0.058-0.408V8.602z"/>
		<path fill="#FFFFFF" d="M38.382,7.349c0-0.831-0.015-1.544-0.058-2.2h1.122l0.058,1.398h0.044c0.32-0.947,1.107-1.545,1.968-1.545
			c0.131,0,0.232,0.016,0.35,0.029v1.21c-0.132-0.029-0.263-0.029-0.438-0.029c-0.903,0-1.545,0.671-1.72,1.632
			c-0.029,0.176-0.044,0.394-0.044,0.598v3.76h-1.282V7.349z"/>
		<path fill="#FFFFFF" d="M48.031,10.511c0,0.612,0.029,1.21,0.102,1.69h-1.151l-0.102-0.889h-0.044
			c-0.394,0.554-1.151,1.049-2.156,1.049c-1.429,0-2.157-1.006-2.157-2.025c0-1.705,1.516-2.638,4.241-2.623V7.567
			c0-0.568-0.161-1.632-1.604-1.618c-0.67,0-1.355,0.189-1.851,0.525l-0.291-0.859c0.582-0.365,1.442-0.613,2.331-0.613
			c2.157,0,2.682,1.473,2.682,2.871V10.511z M46.792,8.602c-1.398-0.029-2.987,0.219-2.987,1.589c0,0.845,0.554,1.224,1.195,1.224
			c0.933,0,1.53-0.582,1.734-1.18c0.043-0.146,0.058-0.292,0.058-0.408V8.602z"/>
		<path fill="#FFFFFF" d="M50.103,7.057c0-0.742-0.015-1.326-0.058-1.908h1.137l0.072,1.166h0.029
			c0.35-0.656,1.166-1.312,2.331-1.312c0.977,0,2.492,0.584,2.492,3.002v4.197h-1.282V8.136c0-1.137-0.423-2.084-1.632-2.084
			c-0.831,0-1.486,0.598-1.72,1.312c-0.059,0.16-0.088,0.379-0.088,0.598v4.24h-1.282V7.057z"/>
		<path fill="#FFFFFF" d="M59.68,3.458v1.69h1.836v0.977H59.68v3.803c0,0.875,0.248,1.37,0.962,1.37c0.35,0,0.554-0.029,0.743-0.087
			l0.059,0.976c-0.248,0.087-0.642,0.175-1.137,0.175c-0.598,0-1.079-0.204-1.385-0.539c-0.35-0.394-0.495-1.02-0.495-1.851V6.125
			h-1.093V5.148h1.093V3.837L59.68,3.458z"/>
		<path fill="#FFFFFF" d="M64.389,3.166c0,0.438-0.307,0.787-0.816,0.787c-0.466,0-0.772-0.35-0.772-0.787
			c0-0.437,0.32-0.801,0.802-0.801C64.067,2.365,64.389,2.715,64.389,3.166z M62.96,12.201V5.148h1.282v7.053H62.96z"/>
		<path fill="#FFFFFF" d="M65.57,11.458l3.177-4.153c0.32-0.393,0.611-0.729,0.933-1.107V6.168h-3.818v-1.02h5.362v0.801
			l-3.147,4.096c-0.306,0.393-0.583,0.758-0.903,1.107v0.029h4.109v1.02H65.57V11.458z"/>
		<path fill="#FFFFFF" d="M77.565,10.511c0,0.612,0.029,1.21,0.102,1.69h-1.151l-0.102-0.889H76.37
			c-0.394,0.554-1.151,1.049-2.156,1.049c-1.429,0-2.157-1.006-2.157-2.025c0-1.705,1.516-2.638,4.241-2.623V7.567
			c0-0.568-0.161-1.632-1.604-1.618c-0.67,0-1.355,0.189-1.851,0.525l-0.291-0.859c0.582-0.365,1.442-0.613,2.331-0.613
			c2.157,0,2.682,1.473,2.682,2.871V10.511z M76.326,8.602c-1.398-0.029-2.987,0.219-2.987,1.589c0,0.845,0.554,1.224,1.195,1.224
			c0.933,0,1.53-0.582,1.734-1.18c0.043-0.146,0.058-0.292,0.058-0.408V8.602z"/>
		<path fill="#FFFFFF" d="M79.637,7.349c0-0.831-0.015-1.544-0.058-2.2h1.122l0.058,1.398h0.044c0.32-0.947,1.107-1.545,1.967-1.545
			c0.132,0,0.233,0.016,0.351,0.029v1.21c-0.132-0.029-0.263-0.029-0.438-0.029c-0.903,0-1.545,0.671-1.72,1.632
			c-0.029,0.176-0.044,0.394-0.044,0.598v3.76h-1.282V7.349z"/>
		<path fill="#FFFFFF" d="M87.493,1.855h1.282v10.346h-1.282V1.855z"/>
		<path fill="#FFFFFF" d="M95.889,10.511c0,0.612,0.029,1.21,0.102,1.69h-1.151l-0.102-0.889h-0.044
			c-0.394,0.554-1.151,1.049-2.156,1.049c-1.429,0-2.157-1.006-2.157-2.025c0-1.705,1.516-2.638,4.241-2.623V7.567
			c0-0.568-0.161-1.632-1.604-1.618c-0.67,0-1.355,0.189-1.851,0.525l-0.291-0.859c0.582-0.365,1.442-0.613,2.331-0.613
			c2.157,0,2.682,1.473,2.682,2.871V10.511z M94.649,8.602c-1.398-0.029-2.987,0.219-2.987,1.589c0,0.845,0.554,1.224,1.195,1.224
			c0.933,0,1.53-0.582,1.734-1.18c0.043-0.146,0.058-0.292,0.058-0.408V8.602z"/>
		<path fill="#FFFFFF" d="M106.005,10.511c0,0.612,0.029,1.21,0.102,1.69h-1.151l-0.102-0.889h-0.044
			c-0.394,0.554-1.151,1.049-2.156,1.049c-1.429,0-2.157-1.006-2.157-2.025c0-1.705,1.516-2.638,4.241-2.623V7.567
			c0-0.568-0.161-1.632-1.604-1.618c-0.67,0-1.355,0.189-1.851,0.525l-0.291-0.859c0.582-0.365,1.442-0.613,2.331-0.613
			c2.157,0,2.682,1.473,2.682,2.871V10.511z M104.766,8.602c-1.398-0.029-2.987,0.219-2.987,1.589c0,0.845,0.554,1.224,1.195,1.224
			c0.933,0,1.53-0.582,1.734-1.18c0.043-0.146,0.058-0.292,0.058-0.408V8.602z"/>
		<path fill="#FFFFFF" d="M109.563,3.458v1.69h1.836v0.977h-1.836v3.803c0,0.875,0.248,1.37,0.962,1.37
			c0.35,0,0.554-0.029,0.743-0.087l0.059,0.976c-0.248,0.087-0.642,0.175-1.137,0.175c-0.598,0-1.079-0.204-1.385-0.539
			c-0.35-0.394-0.495-1.02-0.495-1.851V6.125h-1.093V5.148h1.093V3.837L109.563,3.458z"/>
		<path fill="#FFFFFF" d="M113.47,8.908c0.029,1.734,1.122,2.447,2.419,2.447c0.919,0,1.487-0.16,1.953-0.363l0.233,0.918
			c-0.452,0.203-1.239,0.451-2.361,0.451c-2.171,0-3.468-1.442-3.468-3.57c0-2.127,1.253-3.789,3.308-3.789
			c2.317,0,2.915,2.012,2.915,3.309c0,0.262-0.015,0.451-0.044,0.598H113.47z M117.229,7.99c0.015-0.802-0.335-2.07-1.777-2.07
			c-1.312,0-1.865,1.182-1.968,2.07H117.229z"/>
		<path fill="#FFFFFF" d="M120.059,7.057c0-0.742-0.015-1.326-0.058-1.908h1.137l0.072,1.166h0.029
			c0.35-0.656,1.166-1.312,2.331-1.312c0.977,0,2.492,0.584,2.492,3.002v4.197h-1.282V8.136c0-1.137-0.423-2.084-1.632-2.084
			c-0.831,0-1.486,0.598-1.72,1.312c-0.059,0.16-0.088,0.379-0.088,0.598v4.24h-1.282V7.057z"/>
		<path fill="#FFFFFF" d="M133.177,11.953c-0.335,0.16-1.078,0.408-2.025,0.408c-2.127,0-3.512-1.442-3.512-3.6
			c0-2.171,1.486-3.76,3.789-3.76c0.758,0,1.428,0.189,1.777,0.379l-0.291,0.977c-0.307-0.16-0.787-0.335-1.486-0.335
			c-1.618,0-2.492,1.21-2.492,2.667c0,1.632,1.049,2.637,2.448,2.637c0.729,0,1.209-0.174,1.574-0.334L133.177,11.953z"/>
		<path fill="#FFFFFF" d="M136.108,3.166c0,0.438-0.307,0.787-0.816,0.787c-0.466,0-0.772-0.35-0.772-0.787
			c0-0.437,0.32-0.801,0.802-0.801C135.787,2.365,136.108,2.715,136.108,3.166z M134.68,12.201V5.148h1.282v7.053H134.68z"/>
		<path fill="#FFFFFF" d="M144.474,8.616c0,2.608-1.821,3.745-3.512,3.745c-1.895,0-3.381-1.398-3.381-3.629
			c0-2.346,1.56-3.73,3.497-3.73C143.104,5.002,144.474,6.475,144.474,8.616z M138.893,8.689c0,1.545,0.874,2.711,2.128,2.711
			c1.224,0,2.142-1.152,2.142-2.74c0-1.195-0.598-2.695-2.113-2.695C139.548,5.965,138.893,7.363,138.893,8.689z M142.943,2.103
			l-1.777,2.084h-0.903l1.268-2.084H142.943z"/>
		<path fill="#FFFFFF" d="M146.094,7.057c0-0.742-0.015-1.326-0.058-1.908h1.137l0.072,1.166h0.029
			c0.35-0.656,1.166-1.312,2.331-1.312c0.977,0,2.492,0.584,2.492,3.002v4.197h-1.282V8.136c0-1.137-0.423-2.084-1.632-2.084
			c-0.831,0-1.486,0.598-1.72,1.312c-0.059,0.16-0.088,0.379-0.088,0.598v4.24h-1.282V7.057z"/>
		<path fill="#FFFFFF" d="M158.703,3.166c0,0.438-0.307,0.787-0.816,0.787c-0.466,0-0.772-0.35-0.772-0.787
			c0-0.437,0.32-0.801,0.802-0.801C158.382,2.365,158.703,2.715,158.703,3.166z M157.274,12.201V5.148h1.282v7.053H157.274z"/>
		<path fill="#FFFFFF" d="M160.686,7.057c0-0.742-0.015-1.326-0.058-1.908h1.137l0.072,1.166h0.029
			c0.35-0.656,1.166-1.312,2.331-1.312c0.977,0,2.492,0.584,2.492,3.002v4.197h-1.282V8.136c0-1.137-0.423-2.084-1.632-2.084
			c-0.831,0-1.486,0.598-1.72,1.312c-0.059,0.16-0.088,0.379-0.088,0.598v4.24h-1.282V7.057z"/>
		<path fill="#FFFFFF" d="M170.263,3.458v1.69h1.836v0.977h-1.836v3.803c0,0.875,0.248,1.37,0.962,1.37
			c0.35,0,0.554-0.029,0.743-0.087l0.059,0.976c-0.248,0.087-0.642,0.175-1.137,0.175c-0.598,0-1.079-0.204-1.385-0.539
			c-0.35-0.394-0.495-1.02-0.495-1.851V6.125h-1.093V5.148h1.093V3.837L170.263,3.458z"/>
		<path fill="#FFFFFF" d="M174.17,8.908c0.029,1.734,1.122,2.447,2.42,2.447c0.918,0,1.486-0.16,1.952-0.363l0.233,0.918
			c-0.452,0.203-1.239,0.451-2.361,0.451c-2.171,0-3.468-1.442-3.468-3.57c0-2.127,1.253-3.789,3.308-3.789
			c2.317,0,2.915,2.012,2.915,3.309c0,0.262-0.015,0.451-0.044,0.598H174.17z M177.93,7.99c0.015-0.802-0.335-2.07-1.777-2.07
			c-1.312,0-1.865,1.182-1.968,2.07H177.93z"/>
		<path fill="#FFFFFF" d="M186.792,11.166c0,1.633-0.335,2.609-1.006,3.235c-0.699,0.627-1.69,0.845-2.579,0.845
			c-0.845,0-1.777-0.203-2.346-0.582l0.32-0.991c0.467,0.306,1.195,0.568,2.069,0.568c1.312,0,2.273-0.685,2.273-2.478v-0.771
			h-0.029c-0.379,0.655-1.151,1.18-2.244,1.18c-1.749,0-3.002-1.486-3.002-3.439c0-2.389,1.56-3.73,3.191-3.73
			c1.224,0,1.88,0.627,2.2,1.21h0.029l0.044-1.063h1.137c-0.044,0.495-0.059,1.078-0.059,1.924V11.166z M185.51,7.932
			c0-0.219-0.015-0.408-0.073-0.568c-0.233-0.758-0.845-1.369-1.792-1.369c-1.225,0-2.099,1.033-2.099,2.666
			c0,1.385,0.714,2.535,2.084,2.535c0.802,0,1.516-0.495,1.777-1.311c0.073-0.219,0.103-0.467,0.103-0.686V7.932z"/>
		<path fill="#FFFFFF" d="M188.819,7.349c0-0.831-0.015-1.544-0.058-2.2h1.122l0.058,1.398h0.044
			c0.32-0.947,1.107-1.545,1.968-1.545c0.131,0,0.232,0.016,0.35,0.029v1.21c-0.132-0.029-0.263-0.029-0.438-0.029
			c-0.903,0-1.545,0.671-1.72,1.632c-0.029,0.176-0.044,0.394-0.044,0.598v3.76h-1.282V7.349z"/>
		<path fill="#FFFFFF" d="M198.469,10.511c0,0.612,0.029,1.21,0.102,1.69h-1.151l-0.102-0.889h-0.044
			c-0.394,0.554-1.151,1.049-2.156,1.049c-1.429,0-2.157-1.006-2.157-2.025c0-1.705,1.516-2.638,4.241-2.623V7.567
			c0-0.568-0.161-1.632-1.604-1.618c-0.67,0-1.355,0.189-1.851,0.525l-0.291-0.859c0.582-0.365,1.442-0.613,2.331-0.613
			c2.157,0,2.682,1.473,2.682,2.871V10.511z M197.229,8.602c-1.398-0.029-2.987,0.219-2.987,1.589c0,0.845,0.554,1.224,1.195,1.224
			c0.933,0,1.53-0.582,1.734-1.18c0.043-0.146,0.058-0.292,0.058-0.408V8.602z"/>
		<path fill="#FFFFFF" d="M200.54,1.855h1.282v10.346h-1.282V1.855z"/>
		<path fill="#FFFFFF" d="M207.784,8.908c0.029,1.734,1.122,2.447,2.419,2.447c0.919,0,1.487-0.16,1.953-0.363l0.233,0.918
			c-0.452,0.203-1.239,0.451-2.361,0.451c-2.171,0-3.468-1.442-3.468-3.57c0-2.127,1.253-3.789,3.308-3.789
			c2.317,0,2.915,2.012,2.915,3.309c0,0.262-0.015,0.451-0.044,0.598H207.784z M211.544,7.99c0.015-0.802-0.335-2.07-1.777-2.07
			c-1.312,0-1.865,1.182-1.968,2.07H211.544z"/>
		<path fill="#FFFFFF" d="M214.373,7.057c0-0.742-0.015-1.326-0.058-1.908h1.137l0.072,1.166h0.029
			c0.35-0.656,1.166-1.312,2.331-1.312c0.977,0,2.492,0.584,2.492,3.002v4.197h-1.282V8.136c0-1.137-0.423-2.084-1.632-2.084
			c-0.831,0-1.486,0.598-1.72,1.312c-0.059,0.16-0.088,0.379-0.088,0.598v4.24h-1.282V7.057z"/>
		<path fill="#FFFFFF" d="M225.379,10.904c0.394,0.232,1.064,0.496,1.705,0.496c0.918,0,1.355-0.453,1.355-1.05
			c0-0.612-0.364-0.933-1.297-1.282c-1.282-0.467-1.88-1.151-1.88-1.996c0-1.137,0.933-2.07,2.434-2.07
			c0.714,0,1.341,0.189,1.72,0.438l-0.307,0.933c-0.276-0.175-0.787-0.423-1.442-0.423c-0.758,0-1.166,0.438-1.166,0.963
			c0,0.582,0.408,0.845,1.326,1.209c1.21,0.451,1.851,1.063,1.851,2.113c0,1.253-0.977,2.127-2.623,2.127
			c-0.772,0-1.486-0.204-1.981-0.495L225.379,10.904z"/>
		<path fill="#FFFFFF" d="M236.281,10.511c0,0.612,0.029,1.21,0.102,1.69h-1.151l-0.102-0.889h-0.044
			c-0.394,0.554-1.151,1.049-2.156,1.049c-1.429,0-2.157-1.006-2.157-2.025c0-1.705,1.516-2.638,4.241-2.623V7.567
			c0-0.568-0.161-1.632-1.604-1.618c-0.67,0-1.355,0.189-1.851,0.525l-0.291-0.859c0.582-0.365,1.442-0.613,2.331-0.613
			c2.157,0,2.682,1.473,2.682,2.871V10.511z M235.042,8.602c-1.398-0.029-2.987,0.219-2.987,1.589c0,0.845,0.554,1.224,1.195,1.224
			c0.933,0,1.53-0.582,1.734-1.18c0.043-0.146,0.058-0.292,0.058-0.408V8.602z"/>
		<path fill="#FFFFFF" d="M238.353,1.855h1.282v10.346h-1.282V1.855z"/>
		<path fill="#FFFFFF" d="M247.695,10.264c0,0.742,0.015,1.384,0.058,1.938h-1.137l-0.072-1.151h-0.029
			c-0.32,0.568-1.078,1.312-2.332,1.312c-1.107,0-2.433-0.627-2.433-3.09V5.148h1.282v3.891c0,1.341,0.422,2.259,1.573,2.259
			c0.86,0,1.457-0.598,1.69-1.181c0.073-0.175,0.117-0.408,0.117-0.656V5.148h1.282V10.264z"/>
		<path fill="#FFFFFF" d="M255.902,1.855v8.524c0,0.626,0.029,1.341,0.058,1.821h-1.136l-0.059-1.225h-0.044
			c-0.379,0.787-1.224,1.385-2.375,1.385c-1.705,0-3.031-1.442-3.031-3.584c-0.015-2.347,1.457-3.775,3.162-3.775
			c1.093,0,1.807,0.511,2.128,1.064h0.029V1.855H255.902z M254.635,8.02c0-0.16-0.015-0.379-0.059-0.539
			c-0.189-0.803-0.889-1.473-1.851-1.473c-1.326,0-2.113,1.166-2.113,2.711c0,1.428,0.714,2.607,2.084,2.607
			c0.859,0,1.646-0.582,1.88-1.529c0.044-0.175,0.059-0.35,0.059-0.554V8.02z"/>
		<path fill="#FFFFFF" d="M266.164,11.953c-0.335,0.16-1.078,0.408-2.025,0.408c-2.127,0-3.512-1.442-3.512-3.6
			c0-2.171,1.486-3.76,3.789-3.76c0.758,0,1.428,0.189,1.777,0.379l-0.291,0.977c-0.307-0.16-0.787-0.335-1.486-0.335
			c-1.618,0-2.492,1.21-2.492,2.667c0,1.632,1.049,2.637,2.448,2.637c0.729,0,1.209-0.174,1.574-0.334L266.164,11.953z"/>
		<path fill="#FFFFFF" d="M273.962,8.616c0,2.608-1.821,3.745-3.512,3.745c-1.895,0-3.381-1.398-3.381-3.629
			c0-2.346,1.56-3.73,3.497-3.73C272.592,5.002,273.962,6.475,273.962,8.616z M268.381,8.689c0,1.545,0.874,2.711,2.128,2.711
			c1.224,0,2.142-1.152,2.142-2.74c0-1.195-0.598-2.695-2.113-2.695C269.036,5.965,268.381,7.363,268.381,8.689z"/>
		<path fill="#FFFFFF" d="M275.582,7.057c0-0.742-0.015-1.326-0.058-1.908h1.137l0.072,1.166h0.029
			c0.35-0.656,1.166-1.312,2.331-1.312c0.977,0,2.492,0.584,2.492,3.002v4.197h-1.282V8.136c0-1.137-0.423-2.084-1.632-2.084
			c-0.831,0-1.486,0.598-1.72,1.312c-0.059,0.16-0.088,0.379-0.088,0.598v4.24h-1.282V7.057z"/>
		<path fill="#FFFFFF" d="M287.477,8.908c0.029,1.734,1.122,2.447,2.42,2.447c0.918,0,1.486-0.16,1.952-0.363l0.233,0.918
			c-0.452,0.203-1.239,0.451-2.361,0.451c-2.171,0-3.468-1.442-3.468-3.57c0-2.127,1.253-3.789,3.308-3.789
			c2.317,0,2.915,2.012,2.915,3.309c0,0.262-0.015,0.451-0.044,0.598H287.477z M291.236,7.99c0.015-0.802-0.335-2.07-1.777-2.07
			c-1.312,0-1.865,1.182-1.968,2.07H291.236z"/>
		<path fill="#FFFFFF" d="M294.065,7.057c0-0.742-0.015-1.326-0.058-1.908h1.137l0.072,1.166h0.029
			c0.35-0.656,1.166-1.312,2.331-1.312c0.977,0,2.492,0.584,2.492,3.002v4.197h-1.282V8.136c0-1.137-0.423-2.084-1.632-2.084
			c-0.831,0-1.486,0.598-1.72,1.312c-0.059,0.16-0.088,0.379-0.088,0.598v4.24h-1.282V7.057z"/>
		<path fill="#FFFFFF" d="M302.288,12.201V6.125h-0.977V5.148h0.977V4.812c0-0.99,0.232-1.894,0.815-2.462
			c0.481-0.466,1.122-0.655,1.72-0.655c0.466,0,0.845,0.102,1.093,0.203l-0.175,0.991c-0.189-0.087-0.438-0.16-0.816-0.16
			c-1.093,0-1.369,0.946-1.369,2.04v0.379h1.705v0.977h-1.705v6.076H302.288z"/>
		<path fill="#FFFFFF" d="M312.607,8.616c0,2.608-1.821,3.745-3.512,3.745c-1.895,0-3.381-1.398-3.381-3.629
			c0-2.346,1.56-3.73,3.497-3.73C311.237,5.002,312.607,6.475,312.607,8.616z M307.026,8.689c0,1.545,0.874,2.711,2.128,2.711
			c1.224,0,2.142-1.152,2.142-2.74c0-1.195-0.598-2.695-2.113-2.695C307.682,5.965,307.026,7.363,307.026,8.689z"/>
		<path fill="#FFFFFF" d="M319.037,11.123h-0.029c-0.394,0.685-1.166,1.238-2.303,1.238c-1.646,0-2.987-1.414-2.987-3.556
			c0-2.651,1.705-3.804,3.191-3.804c1.093,0,1.821,0.539,2.171,1.21h0.029l0.044-1.063h1.209c-0.028,0.582-0.058,1.209-0.058,1.938
			v8h-1.268V11.123z M319.037,8.004c0-0.174-0.015-0.363-0.059-0.523c-0.204-0.787-0.874-1.458-1.836-1.458
			c-1.326,0-2.128,1.122-2.128,2.696c0,1.413,0.67,2.623,2.084,2.623c0.83,0,1.545-0.51,1.836-1.385
			c0.059-0.189,0.103-0.438,0.103-0.627V8.004z"/>
		<path fill="#FFFFFF" d="M328.337,10.264c0,0.742,0.015,1.384,0.058,1.938h-1.137l-0.072-1.151h-0.029
			c-0.32,0.568-1.078,1.312-2.332,1.312c-1.107,0-2.433-0.627-2.433-3.09V5.148h1.282v3.891c0,1.341,0.422,2.259,1.573,2.259
			c0.86,0,1.457-0.598,1.69-1.181c0.073-0.175,0.117-0.408,0.117-0.656V5.148h1.282V10.264z"/>
		<path fill="#FFFFFF" d="M331.181,8.908c0.029,1.734,1.122,2.447,2.419,2.447c0.919,0,1.487-0.16,1.953-0.363l0.233,0.918
			c-0.452,0.203-1.239,0.451-2.361,0.451c-2.171,0-3.468-1.442-3.468-3.57c0-2.127,1.253-3.789,3.308-3.789
			c2.317,0,2.915,2.012,2.915,3.309c0,0.262-0.015,0.451-0.044,0.598H331.181z M334.94,7.99c0.015-0.802-0.335-2.07-1.777-2.07
			c-1.312,0-1.865,1.182-1.968,2.07H334.94z"/>
		<path fill="#FFFFFF" d="M28.696,24.943c0-0.902-0.029-1.632-0.058-2.302h1.137l0.072,1.21h0.029
			c0.51-0.86,1.355-1.355,2.507-1.355c1.719,0,3.001,1.442,3.001,3.57c0,2.535-1.559,3.788-3.22,3.788
			c-0.933,0-1.749-0.407-2.172-1.107h-0.028v3.833h-1.269V24.943z M29.965,26.824c0,0.189,0.014,0.363,0.058,0.523
			c0.233,0.89,1.006,1.502,1.924,1.502c1.355,0,2.142-1.107,2.142-2.726c0-1.399-0.743-2.608-2.098-2.608
			c-0.875,0-1.705,0.612-1.938,1.574c-0.044,0.16-0.087,0.35-0.087,0.51V26.824z"/>
		<path fill="#FFFFFF" d="M36.815,28.397c0.394,0.233,1.064,0.495,1.705,0.495c0.918,0,1.355-0.451,1.355-1.049
			c0-0.612-0.364-0.933-1.297-1.282c-1.282-0.466-1.88-1.151-1.88-1.997c0-1.137,0.933-2.068,2.434-2.068
			c0.714,0,1.341,0.189,1.72,0.437l-0.307,0.933c-0.276-0.175-0.787-0.422-1.442-0.422c-0.758,0-1.166,0.437-1.166,0.961
			c0,0.583,0.408,0.846,1.326,1.21c1.21,0.452,1.851,1.063,1.851,2.112c0,1.254-0.977,2.128-2.623,2.128
			c-0.772,0-1.486-0.204-1.981-0.495L36.815,28.397z"/>
		<path fill="#FFFFFF" d="M44.191,20.66c0,0.437-0.307,0.786-0.816,0.786c-0.466,0-0.772-0.35-0.772-0.786
			c0-0.438,0.32-0.803,0.802-0.803C43.87,19.857,44.191,20.208,44.191,20.66z M42.763,29.694v-7.053h1.282v7.053H42.763z"/>
		<path fill="#FFFFFF" d="M51.201,29.447c-0.335,0.16-1.078,0.407-2.025,0.407c-2.127,0-3.512-1.442-3.512-3.599
			c0-2.172,1.486-3.76,3.789-3.76c0.758,0,1.428,0.189,1.777,0.379l-0.291,0.977c-0.307-0.161-0.787-0.336-1.486-0.336
			c-1.618,0-2.492,1.209-2.492,2.667c0,1.632,1.049,2.638,2.448,2.638c0.729,0,1.209-0.176,1.574-0.336L51.201,29.447z"/>
		<path fill="#FFFFFF" d="M58.999,26.109c0,2.608-1.821,3.745-3.512,3.745c-1.895,0-3.381-1.399-3.381-3.628
			c0-2.347,1.56-3.73,3.497-3.73C57.629,22.496,58.999,23.967,58.999,26.109z M53.418,26.183c0,1.544,0.874,2.71,2.128,2.71
			c1.224,0,2.142-1.15,2.142-2.739c0-1.194-0.598-2.696-2.113-2.696C54.073,23.457,53.418,24.856,53.418,26.183z"/>
		<path fill="#FFFFFF" d="M60.445,28.397c0.394,0.233,1.064,0.495,1.705,0.495c0.918,0,1.355-0.451,1.355-1.049
			c0-0.612-0.364-0.933-1.297-1.282c-1.282-0.466-1.88-1.151-1.88-1.997c0-1.137,0.933-2.068,2.434-2.068
			c0.714,0,1.341,0.189,1.72,0.437l-0.307,0.933c-0.276-0.175-0.787-0.422-1.442-0.422c-0.758,0-1.166,0.437-1.166,0.961
			c0,0.583,0.408,0.846,1.326,1.21c1.21,0.452,1.851,1.063,1.851,2.112c0,1.254-0.977,2.128-2.623,2.128
			c-0.772,0-1.486-0.204-1.981-0.495L60.445,28.397z"/>
		<path fill="#FFFFFF" d="M72.774,26.109c0,2.608-1.821,3.745-3.512,3.745c-1.895,0-3.381-1.399-3.381-3.628
			c0-2.347,1.56-3.73,3.497-3.73C71.404,22.496,72.774,23.967,72.774,26.109z M67.193,26.183c0,1.544,0.874,2.71,2.128,2.71
			c1.224,0,2.142-1.15,2.142-2.739c0-1.194-0.598-2.696-2.113-2.696C67.849,23.457,67.193,24.856,67.193,26.183z"/>
		<path fill="#FFFFFF" d="M79.423,29.447c-0.335,0.16-1.078,0.407-2.025,0.407c-2.127,0-3.512-1.442-3.512-3.599
			c0-2.172,1.486-3.76,3.789-3.76c0.758,0,1.428,0.189,1.777,0.379l-0.291,0.977c-0.307-0.161-0.787-0.336-1.486-0.336
			c-1.618,0-2.492,1.209-2.492,2.667c0,1.632,1.049,2.638,2.448,2.638c0.729,0,1.209-0.176,1.574-0.336L79.423,29.447z"/>
		<path fill="#FFFFFF" d="M82.354,20.66c0,0.437-0.307,0.786-0.816,0.786c-0.466,0-0.772-0.35-0.772-0.786
			c0-0.438,0.32-0.803,0.802-0.803C82.032,19.857,82.354,20.208,82.354,20.66z M80.925,29.694v-7.053h1.282v7.053H80.925z"/>
		<path fill="#FFFFFF" d="M89.292,28.004c0,0.612,0.029,1.209,0.102,1.69h-1.151l-0.102-0.889h-0.044
			c-0.394,0.554-1.151,1.049-2.156,1.049c-1.429,0-2.157-1.005-2.157-2.025c0-1.705,1.516-2.638,4.241-2.623v-0.146
			c0-0.568-0.161-1.633-1.604-1.617c-0.67,0-1.355,0.189-1.851,0.523l-0.291-0.859c0.582-0.363,1.442-0.611,2.331-0.611
			c2.157,0,2.682,1.471,2.682,2.87V28.004z M88.053,26.096c-1.398-0.029-2.987,0.218-2.987,1.588c0,0.845,0.554,1.224,1.195,1.224
			c0.933,0,1.53-0.583,1.734-1.181c0.043-0.145,0.058-0.291,0.058-0.408V26.096z"/>
		<path fill="#FFFFFF" d="M91.362,19.348h1.282v10.347h-1.282V19.348z"/>
		<path fill="#FFFFFF" d="M98.36,22.642l1.53,4.167c0.175,0.467,0.35,1.021,0.466,1.443h0.029c0.131-0.423,0.276-0.962,0.452-1.473
			l1.398-4.138h1.355l-1.924,5.027c-0.918,2.419-1.545,3.644-2.419,4.415c-0.642,0.539-1.253,0.758-1.574,0.816l-0.32-1.064
			c0.32-0.102,0.743-0.306,1.122-0.626c0.35-0.276,0.772-0.772,1.078-1.429c0.059-0.131,0.103-0.232,0.103-0.306
			s-0.029-0.175-0.103-0.335l-2.594-6.499H98.36z"/>
		<path fill="#FFFFFF" d="M107.849,19.348h1.282v10.347h-1.282V19.348z"/>
		<path fill="#FFFFFF" d="M116.245,28.004c0,0.612,0.029,1.209,0.102,1.69h-1.151l-0.102-0.889h-0.044
			c-0.394,0.554-1.151,1.049-2.156,1.049c-1.429,0-2.157-1.005-2.157-2.025c0-1.705,1.516-2.638,4.241-2.623v-0.146
			c0-0.568-0.161-1.633-1.604-1.617c-0.67,0-1.355,0.189-1.851,0.523l-0.291-0.859c0.582-0.363,1.442-0.611,2.331-0.611
			c2.157,0,2.682,1.471,2.682,2.87V28.004z M115.006,26.096c-1.398-0.029-2.987,0.218-2.987,1.588c0,0.845,0.554,1.224,1.195,1.224
			c0.933,0,1.53-0.583,1.734-1.181c0.043-0.145,0.058-0.291,0.058-0.408V26.096z"/>
		<path fill="#FFFFFF" d="M121.405,24.842c0-0.83-0.015-1.545-0.058-2.2h1.122l0.058,1.399h0.044
			c0.32-0.947,1.107-1.545,1.968-1.545c0.131,0,0.232,0.014,0.35,0.029v1.209c-0.132-0.029-0.263-0.029-0.438-0.029
			c-0.903,0-1.545,0.67-1.72,1.633c-0.029,0.174-0.044,0.393-0.044,0.597v3.76h-1.282V24.842z"/>
		<path fill="#FFFFFF" d="M126.74,26.4c0.029,1.734,1.122,2.449,2.42,2.449c0.918,0,1.486-0.16,1.952-0.365l0.233,0.918
			c-0.452,0.205-1.239,0.452-2.361,0.452c-2.171,0-3.468-1.442-3.468-3.569c0-2.129,1.253-3.789,3.308-3.789
			c2.317,0,2.915,2.011,2.915,3.308c0,0.263-0.015,0.452-0.044,0.597H126.74z M130.5,25.482c0.015-0.801-0.335-2.068-1.777-2.068
			c-1.312,0-1.865,1.18-1.968,2.068H130.5z"/>
		<path fill="#FFFFFF" d="M133.329,19.348h1.282v4.416h0.029c0.204-0.364,0.524-0.699,0.918-0.918
			c0.379-0.219,0.831-0.35,1.312-0.35c0.947,0,2.463,0.582,2.463,3.002v4.196h-1.282v-4.052c0-1.136-0.423-2.083-1.632-2.083
			c-0.831,0-1.472,0.583-1.72,1.268c-0.073,0.189-0.088,0.379-0.088,0.612v4.255h-1.282V19.348z"/>
		<path fill="#FFFFFF" d="M146.375,28.004c0,0.612,0.029,1.209,0.102,1.69h-1.151l-0.102-0.889h-0.044
			c-0.394,0.554-1.151,1.049-2.156,1.049c-1.429,0-2.157-1.005-2.157-2.025c0-1.705,1.516-2.638,4.241-2.623v-0.146
			c0-0.568-0.161-1.633-1.604-1.617c-0.67,0-1.355,0.189-1.851,0.523l-0.291-0.859c0.582-0.363,1.442-0.611,2.331-0.611
			c2.157,0,2.682,1.471,2.682,2.87V28.004z M145.136,26.096c-1.398-0.029-2.987,0.218-2.987,1.588c0,0.845,0.554,1.224,1.195,1.224
			c0.933,0,1.53-0.583,1.734-1.181c0.043-0.145,0.058-0.291,0.058-0.408V26.096z"/>
		<path fill="#FFFFFF" d="M148.446,19.348h1.269v4.43h0.028c0.452-0.786,1.269-1.281,2.404-1.281c1.764,0,2.987,1.457,2.987,3.584
			c0,2.521-1.603,3.774-3.177,3.774c-1.02,0-1.836-0.394-2.375-1.312h-0.029l-0.072,1.151h-1.093
			c0.028-0.481,0.058-1.194,0.058-1.821V19.348z M149.715,26.867c0,0.16,0.014,0.32,0.058,0.467c0.233,0.889,0.991,1.5,1.924,1.5
			c1.355,0,2.142-1.092,2.142-2.71c0-1.413-0.729-2.623-2.112-2.623c-0.86,0-1.676,0.612-1.938,1.574
			c-0.044,0.16-0.072,0.335-0.072,0.539V26.867z"/>
		<path fill="#FFFFFF" d="M158.169,20.66c0,0.437-0.307,0.786-0.816,0.786c-0.466,0-0.772-0.35-0.772-0.786
			c0-0.438,0.32-0.803,0.802-0.803C157.848,19.857,158.169,20.208,158.169,20.66z M156.74,29.694v-7.053h1.282v7.053H156.74z"/>
		<path fill="#FFFFFF" d="M160.151,19.348h1.282v10.347h-1.282V19.348z"/>
		<path fill="#FFFFFF" d="M165.021,20.66c0,0.437-0.307,0.786-0.816,0.786c-0.466,0-0.772-0.35-0.772-0.786
			c0-0.438,0.32-0.803,0.802-0.803C164.699,19.857,165.021,20.208,165.021,20.66z M163.592,29.694v-7.053h1.282v7.053H163.592z"/>
		<path fill="#FFFFFF" d="M168.548,20.951v1.69h1.836v0.976h-1.836v3.804c0,0.874,0.248,1.37,0.962,1.37
			c0.35,0,0.554-0.029,0.743-0.088l0.059,0.977c-0.248,0.088-0.642,0.175-1.137,0.175c-0.598,0-1.079-0.204-1.385-0.539
			c-0.35-0.394-0.495-1.021-0.495-1.851v-3.848h-1.093v-0.976h1.093V21.33L168.548,20.951z"/>
		<path fill="#FFFFFF" d="M176.783,28.004c0,0.612,0.029,1.209,0.102,1.69h-1.151l-0.102-0.889h-0.044
			c-0.394,0.554-1.151,1.049-2.156,1.049c-1.429,0-2.157-1.005-2.157-2.025c0-1.705,1.516-2.638,4.241-2.623v-0.146
			c0-0.568-0.161-1.633-1.604-1.617c-0.67,0-1.355,0.189-1.851,0.523l-0.291-0.859c0.582-0.363,1.442-0.611,2.331-0.611
			c2.157,0,2.682,1.471,2.682,2.87V28.004z M175.544,26.096c-1.398-0.029-2.987,0.218-2.987,1.588c0,0.845,0.554,1.224,1.195,1.224
			c0.933,0,1.53-0.583,1.734-1.181c0.043-0.145,0.058-0.291,0.058-0.408V26.096z"/>
		<path fill="#FFFFFF" d="M183.882,29.447c-0.335,0.16-1.078,0.407-2.025,0.407c-2.127,0-3.512-1.442-3.512-3.599
			c0-2.172,1.486-3.76,3.789-3.76c0.758,0,1.428,0.189,1.777,0.379l-0.291,0.977c-0.307-0.161-0.787-0.336-1.486-0.336
			c-1.618,0-2.492,1.209-2.492,2.667c0,1.632,1.049,2.638,2.448,2.638c0.729,0,1.209-0.176,1.574-0.336L183.882,29.447z"/>
		<path fill="#FFFFFF" d="M186.813,20.66c0,0.437-0.307,0.786-0.816,0.786c-0.466,0-0.772-0.35-0.772-0.786
			c0-0.438,0.32-0.803,0.802-0.803C186.492,19.857,186.813,20.208,186.813,20.66z M185.385,29.694v-7.053h1.282v7.053H185.385z"/>
		<path fill="#FFFFFF" d="M195.179,26.109c0,2.608-1.821,3.745-3.512,3.745c-1.895,0-3.381-1.399-3.381-3.628
			c0-2.347,1.56-3.73,3.497-3.73C193.809,22.496,195.179,23.967,195.179,26.109z M189.598,26.183c0,1.544,0.874,2.71,2.128,2.71
			c1.224,0,2.142-1.15,2.142-2.739c0-1.194-0.598-2.696-2.113-2.696C190.253,23.457,189.598,24.856,189.598,26.183z M193.648,19.596
			l-1.777,2.084h-0.903l1.268-2.084H193.648z"/>
		<path fill="#FFFFFF" d="M196.799,24.551c0-0.744-0.015-1.326-0.058-1.909h1.137l0.072,1.165h0.029
			c0.35-0.655,1.166-1.311,2.331-1.311c0.977,0,2.492,0.582,2.492,3.002v4.196h-1.282v-4.065c0-1.137-0.423-2.084-1.632-2.084
			c-0.831,0-1.486,0.598-1.72,1.312c-0.059,0.16-0.088,0.379-0.088,0.597v4.241h-1.282V24.551z"/>
		<path fill="#FFFFFF" d="M208.111,29.694v-6.077h-0.977v-0.976h0.977v-0.335c0-0.991,0.232-1.895,0.815-2.463
			c0.481-0.467,1.122-0.656,1.72-0.656c0.467,0,0.845,0.103,1.093,0.204l-0.175,0.991c-0.189-0.088-0.438-0.16-0.816-0.16
			c-1.093,0-1.369,0.947-1.369,2.04v0.379h1.705v0.976h-1.705v6.077H208.111z"/>
		<path fill="#FFFFFF" d="M214.845,19.596l-1.777,2.084h-0.903l1.282-2.084H214.845z M212.236,29.694v-7.053h1.282v7.053H212.236z"
			/>
		<path fill="#FFFFFF" d="M215.473,28.397c0.394,0.233,1.064,0.495,1.705,0.495c0.918,0,1.355-0.451,1.355-1.049
			c0-0.612-0.364-0.933-1.297-1.282c-1.282-0.466-1.88-1.151-1.88-1.997c0-1.137,0.933-2.068,2.434-2.068
			c0.714,0,1.341,0.189,1.72,0.437l-0.307,0.933c-0.276-0.175-0.787-0.422-1.442-0.422c-0.758,0-1.166,0.437-1.166,0.961
			c0,0.583,0.408,0.846,1.326,1.21c1.21,0.452,1.851,1.063,1.851,2.112c0,1.254-0.977,2.128-2.623,2.128
			c-0.772,0-1.486-0.204-1.981-0.495L215.473,28.397z"/>
		<path fill="#FFFFFF" d="M222.849,20.66c0,0.437-0.307,0.786-0.816,0.786c-0.466,0-0.772-0.35-0.772-0.786
			c0-0.438,0.32-0.803,0.802-0.803C222.527,19.857,222.849,20.208,222.849,20.66z M221.42,29.694v-7.053h1.282v7.053H221.42z"/>
		<path fill="#FFFFFF" d="M229.858,29.447c-0.335,0.16-1.078,0.407-2.025,0.407c-2.127,0-3.512-1.442-3.512-3.599
			c0-2.172,1.486-3.76,3.789-3.76c0.758,0,1.428,0.189,1.777,0.379l-0.291,0.977c-0.307-0.161-0.787-0.336-1.486-0.336
			c-1.618,0-2.492,1.209-2.492,2.667c0,1.632,1.049,2.638,2.448,2.638c0.729,0,1.209-0.176,1.574-0.336L229.858,29.447z"/>
		<path fill="#FFFFFF" d="M236.316,28.004c0,0.612,0.029,1.209,0.102,1.69h-1.151l-0.102-0.889h-0.044
			c-0.394,0.554-1.151,1.049-2.156,1.049c-1.429,0-2.157-1.005-2.157-2.025c0-1.705,1.516-2.638,4.241-2.623v-0.146
			c0-0.568-0.161-1.633-1.604-1.617c-0.67,0-1.355,0.189-1.851,0.523l-0.291-0.859c0.582-0.363,1.442-0.611,2.331-0.611
			c2.157,0,2.682,1.471,2.682,2.87V28.004z M235.077,26.096c-1.398-0.029-2.987,0.218-2.987,1.588c0,0.845,0.554,1.224,1.195,1.224
			c0.933,0,1.53-0.583,1.734-1.181c0.043-0.145,0.058-0.291,0.058-0.408V26.096z"/>
		<path fill="#FFFFFF" d="M241.944,22.642l1.53,4.167c0.175,0.467,0.35,1.021,0.466,1.443h0.029
			c0.131-0.423,0.276-0.962,0.452-1.473l1.398-4.138h1.355l-1.924,5.027c-0.918,2.419-1.545,3.644-2.419,4.415
			c-0.642,0.539-1.253,0.758-1.574,0.816l-0.32-1.064c0.32-0.102,0.743-0.306,1.122-0.626c0.35-0.276,0.772-0.772,1.078-1.429
			c0.059-0.131,0.103-0.232,0.103-0.306s-0.029-0.175-0.103-0.335l-2.594-6.499H241.944z"/>
		<path fill="#FFFFFF" d="M247.266,30.263l4.051-10.565h1.006l-4.08,10.565H247.266z"/>
		<path fill="#FFFFFF" d="M259.727,26.109c0,2.608-1.821,3.745-3.512,3.745c-1.895,0-3.381-1.399-3.381-3.628
			c0-2.347,1.56-3.73,3.497-3.73C258.356,22.496,259.727,23.967,259.727,26.109z M254.146,26.183c0,1.544,0.874,2.71,2.128,2.71
			c1.224,0,2.142-1.15,2.142-2.739c0-1.194-0.598-2.696-2.113-2.696C254.801,23.457,254.146,24.856,254.146,26.183z"/>
		<path fill="#FFFFFF" d="M264.437,24.551c0-0.744-0.029-1.326-0.058-1.909h1.122l0.058,1.151h0.044
			c0.394-0.671,1.049-1.297,2.229-1.297c0.947,0,1.676,0.582,1.981,1.413h0.029c0.219-0.408,0.511-0.699,0.802-0.918
			c0.423-0.321,0.874-0.495,1.545-0.495c0.947,0,2.331,0.611,2.331,3.06v4.139h-1.253v-3.978c0-1.371-0.51-2.172-1.53-2.172
			c-0.743,0-1.297,0.539-1.53,1.151c-0.058,0.189-0.102,0.407-0.102,0.642v4.356h-1.253v-4.226c0-1.123-0.496-1.924-1.472-1.924
			c-0.787,0-1.385,0.641-1.589,1.282c-0.073,0.175-0.102,0.408-0.102,0.626v4.241h-1.254V24.551z"/>
		<path fill="#FFFFFF" d="M277.308,26.4c0.029,1.734,1.122,2.449,2.419,2.449c0.919,0,1.487-0.16,1.953-0.365l0.233,0.918
			c-0.452,0.205-1.239,0.452-2.361,0.452c-2.171,0-3.468-1.442-3.468-3.569c0-2.129,1.253-3.789,3.308-3.789
			c2.317,0,2.915,2.011,2.915,3.308c0,0.263-0.015,0.452-0.044,0.597H277.308z M281.067,25.482c0.015-0.801-0.335-2.068-1.777-2.068
			c-1.312,0-1.865,1.18-1.968,2.068H281.067z"/>
		<path fill="#FFFFFF" d="M283.896,24.551c0-0.744-0.015-1.326-0.058-1.909h1.137l0.072,1.165h0.029
			c0.35-0.655,1.166-1.311,2.331-1.311c0.977,0,2.492,0.582,2.492,3.002v4.196h-1.282v-4.065c0-1.137-0.423-2.084-1.632-2.084
			c-0.831,0-1.486,0.598-1.72,1.312c-0.059,0.16-0.088,0.379-0.088,0.597v4.241h-1.282V24.551z"/>
		<path fill="#FFFFFF" d="M293.475,20.951v1.69h1.836v0.976h-1.836v3.804c0,0.874,0.248,1.37,0.962,1.37
			c0.35,0,0.554-0.029,0.743-0.088l0.059,0.977c-0.248,0.088-0.642,0.175-1.137,0.175c-0.598,0-1.079-0.204-1.385-0.539
			c-0.35-0.394-0.495-1.021-0.495-1.851v-3.848h-1.093v-0.976h1.093V21.33L293.475,20.951z"/>
		<path fill="#FFFFFF" d="M301.71,28.004c0,0.612,0.029,1.209,0.102,1.69h-1.151l-0.102-0.889h-0.044
			c-0.394,0.554-1.151,1.049-2.156,1.049c-1.429,0-2.157-1.005-2.157-2.025c0-1.705,1.516-2.638,4.241-2.623v-0.146
			c0-0.568-0.161-1.633-1.604-1.617c-0.67,0-1.355,0.189-1.851,0.523l-0.291-0.859c0.582-0.363,1.442-0.611,2.331-0.611
			c2.157,0,2.682,1.471,2.682,2.87V28.004z M300.471,26.096c-1.398-0.029-2.987,0.218-2.987,1.588c0,0.845,0.554,1.224,1.195,1.224
			c0.933,0,1.53-0.583,1.734-1.181c0.043-0.145,0.058-0.291,0.058-0.408V26.096z"/>
		<path fill="#FFFFFF" d="M303.781,19.348h1.282v10.347h-1.282V19.348z"/>
		<path fill="#FFFFFF" d="M315.267,28.004c0,0.612,0.029,1.209,0.102,1.69h-1.151l-0.102-0.889h-0.044
			c-0.394,0.554-1.151,1.049-2.156,1.049c-1.429,0-2.157-1.005-2.157-2.025c0-1.705,1.516-2.638,4.241-2.623v-0.146
			c0-0.568-0.161-1.633-1.604-1.617c-0.67,0-1.355,0.189-1.851,0.523l-0.291-0.859c0.582-0.363,1.442-0.611,2.331-0.611
			c2.157,0,2.682,1.471,2.682,2.87V28.004z M314.027,26.096c-1.398-0.029-2.987,0.218-2.987,1.588c0,0.845,0.554,1.224,1.195,1.224
			c0.933,0,1.53-0.583,1.734-1.181c0.043-0.145,0.058-0.291,0.058-0.408V26.096z"/>
		<path fill="#FFFFFF" d="M320.428,19.348h1.282v10.347h-1.282V19.348z"/>
		<path fill="#FFFFFF" d="M328.823,28.004c0,0.612,0.029,1.209,0.102,1.69h-1.151l-0.102-0.889h-0.044
			c-0.394,0.554-1.151,1.049-2.156,1.049c-1.429,0-2.157-1.005-2.157-2.025c0-1.705,1.516-2.638,4.241-2.623v-0.146
			c0-0.568-0.161-1.633-1.604-1.617c-0.67,0-1.355,0.189-1.851,0.523l-0.291-0.859c0.582-0.363,1.442-0.611,2.331-0.611
			c2.157,0,2.682,1.471,2.682,2.87V28.004z M327.584,26.096c-1.398-0.029-2.987,0.218-2.987,1.588c0,0.845,0.554,1.224,1.195,1.224
			c0.933,0,1.53-0.583,1.734-1.181c0.043-0.145,0.058-0.291,0.058-0.408V26.096z"/>
		<path fill="#FFFFFF" d="M59.826,42.437c0-0.903-0.029-1.632-0.058-2.302h1.137l0.072,1.209h0.029
			c0.51-0.859,1.355-1.355,2.507-1.355c1.719,0,3.001,1.443,3.001,3.57c0,2.535-1.559,3.789-3.22,3.789
			c-0.933,0-1.749-0.408-2.172-1.107h-0.029v3.832h-1.268V42.437z M61.094,44.316c0,0.189,0.015,0.364,0.059,0.524
			c0.233,0.89,1.006,1.501,1.924,1.501c1.355,0,2.142-1.107,2.142-2.725c0-1.399-0.743-2.609-2.098-2.609
			c-0.875,0-1.705,0.613-1.938,1.574c-0.044,0.16-0.088,0.35-0.088,0.51V44.316z"/>
		<path fill="#FFFFFF" d="M74.503,43.602c0,2.609-1.821,3.746-3.512,3.746c-1.895,0-3.381-1.399-3.381-3.629
			c0-2.346,1.56-3.73,3.497-3.73C73.133,39.988,74.503,41.46,74.503,43.602z M68.922,43.676c0,1.544,0.874,2.71,2.128,2.71
			c1.224,0,2.142-1.151,2.142-2.739c0-1.195-0.598-2.696-2.113-2.696C69.577,40.95,68.922,42.35,68.922,43.676z"/>
		<path fill="#FFFFFF" d="M76.123,36.841h1.268v4.43h0.029c0.452-0.786,1.269-1.282,2.404-1.282c1.764,0,2.987,1.457,2.987,3.585
			c0,2.521-1.603,3.774-3.177,3.774c-1.02,0-1.836-0.394-2.375-1.312H77.23l-0.072,1.152h-1.093
			c0.028-0.481,0.058-1.195,0.058-1.822V36.841z M77.391,44.359c0,0.161,0.015,0.321,0.059,0.467
			c0.233,0.889,0.991,1.501,1.924,1.501c1.355,0,2.142-1.093,2.142-2.71c0-1.414-0.729-2.623-2.112-2.623
			c-0.86,0-1.676,0.611-1.938,1.574c-0.044,0.16-0.073,0.334-0.073,0.539V44.359z"/>
		<path fill="#FFFFFF" d="M84.417,36.841h1.282v10.347h-1.282V36.841z"/>
		<path fill="#FFFFFF" d="M92.812,45.496c0,0.613,0.029,1.21,0.102,1.691h-1.151l-0.102-0.889h-0.044
			c-0.394,0.553-1.151,1.049-2.156,1.049c-1.429,0-2.157-1.006-2.157-2.025c0-1.705,1.516-2.639,4.241-2.623v-0.146
			c0-0.568-0.161-1.632-1.604-1.617c-0.67,0-1.355,0.189-1.851,0.524L87.8,40.601c0.582-0.364,1.442-0.612,2.331-0.612
			c2.157,0,2.682,1.472,2.682,2.871V45.496z M91.573,43.588c-1.398-0.029-2.987,0.219-2.987,1.588c0,0.846,0.554,1.225,1.195,1.225
			c0.933,0,1.53-0.583,1.734-1.181c0.043-0.146,0.058-0.292,0.058-0.408V43.588z"/>
		<path fill="#FFFFFF" d="M99.911,46.939c-0.335,0.16-1.078,0.408-2.025,0.408c-2.127,0-3.512-1.443-3.512-3.6
			c0-2.172,1.486-3.76,3.789-3.76c0.758,0,1.428,0.189,1.777,0.379l-0.291,0.977c-0.307-0.16-0.787-0.336-1.486-0.336
			c-1.618,0-2.492,1.21-2.492,2.668c0,1.631,1.049,2.637,2.448,2.637c0.729,0,1.209-0.175,1.574-0.335L99.911,46.939z"/>
		<path fill="#FFFFFF" d="M102.843,38.152c0,0.438-0.307,0.787-0.816,0.787c-0.466,0-0.772-0.35-0.772-0.787s0.32-0.802,0.802-0.802
			C102.521,37.351,102.843,37.701,102.843,38.152z M101.414,47.188v-7.053h1.282v7.053H101.414z"/>
		<path fill="#FFFFFF" d="M111.208,43.602c0,2.609-1.821,3.746-3.512,3.746c-1.895,0-3.381-1.399-3.381-3.629
			c0-2.346,1.56-3.73,3.497-3.73C109.838,39.988,111.208,41.46,111.208,43.602z M105.627,43.676c0,1.544,0.874,2.71,2.128,2.71
			c1.224,0,2.142-1.151,2.142-2.739c0-1.195-0.598-2.696-2.113-2.696C106.282,40.95,105.627,42.35,105.627,43.676z M109.678,37.088
			l-1.777,2.084h-0.903l1.268-2.084H109.678z"/>
		<path fill="#FFFFFF" d="M112.828,42.043c0-0.743-0.015-1.326-0.058-1.908h1.137l0.072,1.165h0.029
			c0.35-0.655,1.166-1.312,2.331-1.312c0.977,0,2.492,0.583,2.492,3.002v4.197h-1.282v-4.066c0-1.137-0.423-2.084-1.632-2.084
			c-0.831,0-1.486,0.598-1.72,1.312c-0.059,0.16-0.088,0.379-0.088,0.597v4.241h-1.282V42.043z"/>
		<path fill="#FFFFFF" d="M124.505,40.135l1.384,3.948c0.233,0.655,0.423,1.239,0.568,1.821h0.044
			c0.16-0.582,0.364-1.166,0.598-1.821l1.369-3.948h1.341l-2.769,7.053h-1.224l-2.682-7.053H124.505z"/>
		<path fill="#FFFFFF" d="M133.629,37.088l-1.777,2.084h-0.903l1.282-2.084H133.629z M131.021,47.188v-7.053h1.282v7.053H131.021z"
			/>
		<path fill="#FFFFFF" d="M139.459,46.939c-0.335,0.16-1.078,0.408-2.025,0.408c-2.127,0-3.512-1.443-3.512-3.6
			c0-2.172,1.486-3.76,3.789-3.76c0.758,0,1.428,0.189,1.777,0.379l-0.291,0.977c-0.307-0.16-0.787-0.336-1.486-0.336
			c-1.618,0-2.492,1.21-2.492,2.668c0,1.631,1.049,2.637,2.448,2.637c0.729,0,1.209-0.175,1.574-0.335L139.459,46.939z"/>
		<path fill="#FFFFFF" d="M142.696,38.443v1.691h1.836v0.976h-1.836v3.804c0,0.874,0.248,1.369,0.962,1.369
			c0.35,0,0.554-0.029,0.743-0.087l0.059,0.976c-0.248,0.088-0.642,0.176-1.137,0.176c-0.598,0-1.079-0.205-1.385-0.539
			c-0.35-0.395-0.495-1.021-0.495-1.852V41.11h-1.093v-0.976h1.093v-1.312L142.696,38.443z"/>
		<path fill="#FFFFFF" d="M147.405,38.152c0,0.438-0.307,0.787-0.816,0.787c-0.466,0-0.772-0.35-0.772-0.787s0.32-0.802,0.802-0.802
			C147.084,37.351,147.405,37.701,147.405,38.152z M145.977,47.188v-7.053h1.282v7.053H145.977z"/>
		<path fill="#FFFFFF" d="M149.388,42.043c0-0.743-0.029-1.326-0.058-1.908h1.122l0.058,1.15h0.044
			c0.394-0.67,1.049-1.297,2.229-1.297c0.947,0,1.676,0.583,1.981,1.414h0.029c0.219-0.408,0.511-0.699,0.802-0.918
			c0.423-0.321,0.874-0.496,1.545-0.496c0.947,0,2.331,0.612,2.331,3.061v4.139h-1.253v-3.979c0-1.37-0.51-2.172-1.53-2.172
			c-0.743,0-1.297,0.539-1.53,1.152c-0.058,0.189-0.102,0.407-0.102,0.641v4.357h-1.253v-4.227c0-1.122-0.496-1.924-1.472-1.924
			c-0.787,0-1.385,0.642-1.589,1.283c-0.073,0.174-0.102,0.408-0.102,0.626v4.241h-1.254V42.043z"/>
		<path fill="#FFFFFF" d="M166.5,45.496c0,0.613,0.029,1.21,0.102,1.691h-1.151l-0.102-0.889h-0.044
			c-0.394,0.553-1.151,1.049-2.156,1.049c-1.429,0-2.157-1.006-2.157-2.025c0-1.705,1.516-2.639,4.241-2.623v-0.146
			c0-0.568-0.161-1.632-1.604-1.617c-0.67,0-1.355,0.189-1.851,0.524l-0.291-0.859c0.582-0.364,1.442-0.612,2.331-0.612
			c2.157,0,2.682,1.472,2.682,2.871V45.496z M165.261,43.588c-1.398-0.029-2.987,0.219-2.987,1.588c0,0.846,0.554,1.225,1.195,1.225
			c0.933,0,1.53-0.583,1.734-1.181c0.043-0.146,0.058-0.292,0.058-0.408V43.588z"/>
		<path fill="#FFFFFF" d="M177.738,36.841v8.524c0,0.627,0.029,1.341,0.058,1.822h-1.136l-0.059-1.225h-0.044
			c-0.379,0.787-1.224,1.385-2.375,1.385c-1.705,0-3.031-1.443-3.031-3.585c-0.015-2.347,1.457-3.774,3.162-3.774
			c1.093,0,1.807,0.51,2.128,1.064h0.029v-4.212H177.738z M176.471,43.005c0-0.16-0.015-0.379-0.059-0.539
			c-0.189-0.802-0.889-1.472-1.851-1.472c-1.326,0-2.113,1.166-2.113,2.71c0,1.429,0.714,2.608,2.084,2.608
			c0.859,0,1.646-0.582,1.88-1.529c0.044-0.176,0.059-0.35,0.059-0.555V43.005z"/>
		<path fill="#FFFFFF" d="M180.597,43.894c0.029,1.734,1.122,2.448,2.419,2.448c0.919,0,1.487-0.16,1.953-0.364l0.233,0.918
			c-0.452,0.204-1.239,0.452-2.361,0.452c-2.171,0-3.468-1.443-3.468-3.57c0-2.128,1.253-3.789,3.308-3.789
			c2.317,0,2.915,2.012,2.915,3.309c0,0.262-0.015,0.451-0.044,0.597H180.597z M184.356,42.976c0.015-0.802-0.335-2.069-1.777-2.069
			c-1.312,0-1.865,1.181-1.968,2.069H184.356z"/>
		<path fill="#FFFFFF" d="M187.186,36.841h1.282v10.347h-1.282V36.841z"/>
		<path fill="#FFFFFF" d="M198.743,46.939c-0.335,0.16-1.078,0.408-2.025,0.408c-2.127,0-3.512-1.443-3.512-3.6
			c0-2.172,1.486-3.76,3.789-3.76c0.758,0,1.428,0.189,1.777,0.379l-0.291,0.977c-0.307-0.16-0.787-0.336-1.486-0.336
			c-1.618,0-2.492,1.21-2.492,2.668c0,1.631,1.049,2.637,2.448,2.637c0.729,0,1.209-0.175,1.574-0.335L198.743,46.939z"/>
		<path fill="#FFFFFF" d="M206.541,43.602c0,2.609-1.821,3.746-3.512,3.746c-1.895,0-3.381-1.399-3.381-3.629
			c0-2.346,1.56-3.73,3.497-3.73C205.171,39.988,206.541,41.46,206.541,43.602z M200.96,43.676c0,1.544,0.874,2.71,2.128,2.71
			c1.224,0,2.142-1.151,2.142-2.739c0-1.195-0.598-2.696-2.113-2.696C201.615,40.95,200.96,42.35,200.96,43.676z"/>
		<path fill="#FFFFFF" d="M208.161,42.043c0-0.743-0.015-1.326-0.058-1.908h1.137l0.072,1.165h0.029
			c0.35-0.655,1.166-1.312,2.331-1.312c0.977,0,2.492,0.583,2.492,3.002v4.197h-1.282v-4.066c0-1.137-0.423-2.084-1.632-2.084
			c-0.831,0-1.486,0.598-1.72,1.312c-0.059,0.16-0.088,0.379-0.088,0.597v4.241h-1.282V42.043z"/>
		<path fill="#FFFFFF" d="M216.384,47.188V41.11h-0.977v-0.976h0.977v-0.307c0-0.99,0.335-1.865,0.99-2.434
			c0.554-0.467,1.282-0.714,2.273-0.714c0.816,0,1.574,0.175,2.113,0.466v10.041h-1.282v-9.326c-0.219-0.117-0.554-0.189-1.05-0.189
			c-1.326,0-1.777,0.977-1.777,2.098v0.365h1.646v0.976h-1.646v6.077H216.384z"/>
		<path fill="#FFFFFF" d="M225.305,38.152c0,0.438-0.307,0.787-0.816,0.787c-0.466,0-0.772-0.35-0.772-0.787s0.32-0.802,0.802-0.802
			C224.983,37.351,225.305,37.701,225.305,38.152z M223.876,47.188v-7.053h1.282v7.053H223.876z"/>
		<path fill="#FFFFFF" d="M232.314,46.939c-0.335,0.16-1.078,0.408-2.025,0.408c-2.127,0-3.512-1.443-3.512-3.6
			c0-2.172,1.486-3.76,3.789-3.76c0.758,0,1.428,0.189,1.777,0.379l-0.291,0.977c-0.307-0.16-0.787-0.336-1.486-0.336
			c-1.618,0-2.492,1.21-2.492,2.668c0,1.631,1.049,2.637,2.448,2.637c0.729,0,1.209-0.175,1.574-0.335L232.314,46.939z"/>
		<path fill="#FFFFFF" d="M235.552,38.443v1.691h1.836v0.976h-1.836v3.804c0,0.874,0.248,1.369,0.962,1.369
			c0.35,0,0.554-0.029,0.743-0.087l0.059,0.976c-0.248,0.088-0.642,0.176-1.137,0.176c-0.598,0-1.079-0.205-1.385-0.539
			c-0.35-0.395-0.495-1.021-0.495-1.852V41.11h-1.093v-0.976h1.093v-1.312L235.552,38.443z"/>
		<path fill="#FFFFFF" d="M245.128,43.602c0,2.609-1.821,3.746-3.512,3.746c-1.895,0-3.381-1.399-3.381-3.629
			c0-2.346,1.56-3.73,3.497-3.73C243.758,39.988,245.128,41.46,245.128,43.602z M239.547,43.676c0,1.544,0.874,2.71,2.128,2.71
			c1.224,0,2.142-1.151,2.142-2.739c0-1.195-0.598-2.696-2.113-2.696C240.202,40.95,239.547,42.35,239.547,43.676z"/>
		<path fill="#FFFFFF" d="M254.793,45.496c0,0.613,0.029,1.21,0.102,1.691h-1.151l-0.102-0.889h-0.044
			c-0.394,0.553-1.151,1.049-2.156,1.049c-1.429,0-2.157-1.006-2.157-2.025c0-1.705,1.516-2.639,4.241-2.623v-0.146
			c0-0.568-0.161-1.632-1.604-1.617c-0.67,0-1.355,0.189-1.851,0.524l-0.291-0.859c0.582-0.364,1.442-0.612,2.331-0.612
			c2.157,0,2.682,1.472,2.682,2.871V45.496z M253.554,43.588c-1.398-0.029-2.987,0.219-2.987,1.588c0,0.846,0.554,1.225,1.195,1.225
			c0.933,0,1.53-0.583,1.734-1.181c0.043-0.146,0.058-0.292,0.058-0.408V43.588z"/>
		<path fill="#FFFFFF" d="M256.864,42.334c0-0.83-0.015-1.544-0.058-2.199h1.122l0.058,1.398h0.044
			c0.32-0.947,1.107-1.545,1.968-1.545c0.131,0,0.232,0.015,0.35,0.029v1.209c-0.132-0.029-0.263-0.029-0.438-0.029
			c-0.903,0-1.545,0.671-1.72,1.633c-0.029,0.175-0.044,0.394-0.044,0.598v3.76h-1.282V42.334z"/>
		<path fill="#FFFFFF" d="M261.688,42.043c0-0.743-0.029-1.326-0.058-1.908h1.122l0.058,1.15h0.044
			c0.394-0.67,1.049-1.297,2.229-1.297c0.947,0,1.676,0.583,1.981,1.414h0.029c0.219-0.408,0.511-0.699,0.802-0.918
			c0.423-0.321,0.874-0.496,1.545-0.496c0.947,0,2.331,0.612,2.331,3.061v4.139h-1.253v-3.979c0-1.37-0.51-2.172-1.53-2.172
			c-0.743,0-1.297,0.539-1.53,1.152c-0.058,0.189-0.102,0.407-0.102,0.641v4.357h-1.253v-4.227c0-1.122-0.496-1.924-1.472-1.924
			c-0.787,0-1.385,0.642-1.589,1.283c-0.073,0.174-0.102,0.408-0.102,0.626v4.241h-1.254V42.043z"/>
		<path fill="#FFFFFF" d="M278.801,45.496c0,0.613,0.029,1.21,0.102,1.691h-1.151l-0.102-0.889h-0.044
			c-0.394,0.553-1.151,1.049-2.156,1.049c-1.429,0-2.157-1.006-2.157-2.025c0-1.705,1.516-2.639,4.241-2.623v-0.146
			c0-0.568-0.161-1.632-1.604-1.617c-0.67,0-1.355,0.189-1.851,0.524l-0.291-0.859c0.582-0.364,1.442-0.612,2.331-0.612
			c2.157,0,2.682,1.472,2.682,2.871V45.496z M277.562,43.588c-1.398-0.029-2.987,0.219-2.987,1.588c0,0.846,0.554,1.225,1.195,1.225
			c0.933,0,1.53-0.583,1.734-1.181c0.043-0.146,0.058-0.292,0.058-0.408V43.588z"/>
		<path fill="#FFFFFF" d="M286.949,36.841v8.524c0,0.627,0.029,1.341,0.058,1.822h-1.136l-0.059-1.225h-0.044
			c-0.379,0.787-1.224,1.385-2.375,1.385c-1.705,0-3.031-1.443-3.031-3.585c-0.015-2.347,1.457-3.774,3.162-3.774
			c1.093,0,1.807,0.51,2.128,1.064h0.029v-4.212H286.949z M285.682,43.005c0-0.16-0.015-0.379-0.059-0.539
			c-0.189-0.802-0.889-1.472-1.851-1.472c-1.326,0-2.113,1.166-2.113,2.71c0,1.429,0.714,2.608,2.084,2.608
			c0.859,0,1.646-0.582,1.88-1.529c0.044-0.176,0.059-0.35,0.059-0.555V43.005z"/>
		<path fill="#FFFFFF" d="M295.477,43.602c0,2.609-1.821,3.746-3.512,3.746c-1.895,0-3.381-1.399-3.381-3.629
			c0-2.346,1.56-3.73,3.497-3.73C294.106,39.988,295.477,41.46,295.477,43.602z M289.896,43.676c0,1.544,0.874,2.71,2.128,2.71
			c1.224,0,2.142-1.151,2.142-2.739c0-1.195-0.598-2.696-2.113-2.696C290.551,40.95,289.896,42.35,289.896,43.676z"/>
		<path fill="#FFFFFF" d="M296.441,46.43c0-0.525,0.364-0.918,0.874-0.918c0.511,0,0.86,0.379,0.86,0.918
			c0,0.524-0.35,0.918-0.89,0.918C296.791,47.348,296.441,46.954,296.441,46.43z"/>
	</g>
</g>
</svg>
