<?xml version="1.0" encoding="utf-8"?>
<!-- Generator: Adobe Illustrator 16.0.0, SVG Export Plug-In . SVG Version: 6.00 Build 0)  -->
<!DOCTYPE svg PUBLIC "-//W3C//DTD SVG 1.1//EN" "http://www.w3.org/Graphics/SVG/1.1/DTD/svg11.dtd">
<svg version="1.1" id="Capa_1" xmlns="http://www.w3.org/2000/svg" xmlns:xlink="http://www.w3.org/1999/xlink" x="0px" y="0px"
	 width="357.461px" height="90.143px" viewBox="0 0 357.461 90.143" enable-background="new 0 0 357.461 90.143"
	 xml:space="preserve">
<g>
	<g>
		<path fill="#FFFFFF" d="M23.09,2.379h5.29v1.063h-4.008v3.265h3.701v1.05h-3.701v4.444H23.09V2.379z"/>
		<path fill="#FFFFFF" d="M34.459,10.511c0,0.612,0.029,1.21,0.102,1.69H33.41l-0.102-0.89h-0.044
			c-0.394,0.555-1.151,1.049-2.156,1.049c-1.429,0-2.157-1.006-2.157-2.024c0-1.705,1.516-2.638,4.241-2.623V7.567
			c0-0.567-0.161-1.632-1.604-1.617c-0.67,0-1.355,0.188-1.851,0.524l-0.291-0.858c0.582-0.365,1.442-0.613,2.331-0.613
			c2.157,0,2.682,1.473,2.682,2.871V10.511z M33.22,8.602c-1.398-0.028-2.987,0.219-2.987,1.589c0,0.846,0.554,1.225,1.195,1.225
			c0.933,0,1.53-0.582,1.734-1.181c0.043-0.146,0.058-0.292,0.058-0.407V8.602z"/>
		<path fill="#FFFFFF" d="M36.91,5.148l1.384,3.949c0.233,0.655,0.423,1.238,0.568,1.821h0.044c0.16-0.583,0.364-1.166,0.598-1.821
			l1.369-3.949h1.341l-2.769,7.054h-1.224L35.54,5.148H36.91z"/>
		<path fill="#FFFFFF" d="M49.663,8.616c0,2.607-1.821,3.744-3.512,3.744c-1.895,0-3.381-1.397-3.381-3.629
			c0-2.346,1.56-3.729,3.497-3.729C48.293,5.002,49.663,6.475,49.663,8.616z M44.082,8.689c0,1.545,0.874,2.711,2.128,2.711
			c1.224,0,2.142-1.151,2.142-2.739c0-1.195-0.598-2.695-2.113-2.695C44.737,5.965,44.082,7.363,44.082,8.689z"/>
		<path fill="#FFFFFF" d="M51.283,7.349c0-0.831-0.015-1.544-0.058-2.2h1.122l0.058,1.398h0.044c0.32-0.947,1.107-1.545,1.967-1.545
			c0.132,0,0.233,0.016,0.351,0.029v1.21c-0.132-0.029-0.263-0.029-0.438-0.029c-0.903,0-1.545,0.671-1.72,1.632
			c-0.029,0.176-0.044,0.394-0.044,0.598v3.761h-1.282V7.349z"/>
		<path fill="#FFFFFF" d="M56.618,8.908c0.029,1.733,1.122,2.446,2.419,2.446c0.919,0,1.487-0.16,1.953-0.362l0.233,0.918
			c-0.452,0.202-1.239,0.45-2.361,0.45c-2.171,0-3.468-1.441-3.468-3.569c0-2.127,1.253-3.789,3.308-3.789
			c2.317,0,2.915,2.012,2.915,3.309c0,0.263-0.015,0.451-0.044,0.599L56.618,8.908L56.618,8.908z M60.378,7.99
			c0.015-0.803-0.335-2.07-1.777-2.07c-1.312,0-1.865,1.182-1.968,2.07H60.378z"/>
		<path fill="#FFFFFF" d="M68.234,11.953c-0.335,0.159-1.078,0.407-2.025,0.407c-2.127,0-3.512-1.441-3.512-3.6
			c0-2.171,1.486-3.76,3.789-3.76c0.758,0,1.428,0.188,1.777,0.379l-0.291,0.977c-0.307-0.159-0.787-0.335-1.486-0.335
			c-1.618,0-2.492,1.21-2.492,2.667c0,1.632,1.049,2.638,2.448,2.638c0.729,0,1.209-0.175,1.574-0.334L68.234,11.953z"/>
		<path fill="#FFFFFF" d="M70.363,8.908c0.029,1.733,1.122,2.446,2.42,2.446c0.918,0,1.486-0.16,1.952-0.362l0.233,0.918
			c-0.452,0.202-1.239,0.45-2.361,0.45c-2.171,0-3.468-1.441-3.468-3.569c0-2.127,1.253-3.789,3.308-3.789
			c2.317,0,2.915,2.012,2.915,3.309c0,0.263-0.015,0.451-0.044,0.599L70.363,8.908L70.363,8.908z M74.123,7.99
			c0.015-0.803-0.335-2.07-1.777-2.07c-1.312,0-1.865,1.182-1.968,2.07H74.123z"/>
		<path fill="#FFFFFF" d="M76.952,7.349c0-0.831-0.015-1.544-0.058-2.2h1.122l0.058,1.398h0.044c0.32-0.947,1.107-1.545,1.968-1.545
			c0.131,0,0.232,0.016,0.35,0.029v1.21c-0.132-0.029-0.263-0.029-0.438-0.029c-0.903,0-1.545,0.671-1.72,1.632
			c-0.029,0.176-0.044,0.394-0.044,0.598v3.761h-1.282V7.349z"/>
		<path fill="#FFFFFF" d="M84.809,1.855h1.282v10.347h-1.282V1.855z"/>
		<path fill="#FFFFFF" d="M93.204,10.511c0,0.612,0.029,1.21,0.102,1.69h-1.151l-0.102-0.89h-0.044
			c-0.394,0.555-1.151,1.049-2.156,1.049c-1.429,0-2.157-1.006-2.157-2.024c0-1.705,1.516-2.638,4.241-2.623V7.567
			c0-0.567-0.161-1.632-1.604-1.617c-0.67,0-1.355,0.188-1.851,0.524l-0.291-0.858c0.582-0.365,1.442-0.613,2.331-0.613
			c2.157,0,2.682,1.473,2.682,2.871V10.511z M91.965,8.602c-1.398-0.028-2.987,0.219-2.987,1.589c0,0.846,0.554,1.225,1.195,1.225
			c0.933,0,1.53-0.582,1.734-1.181c0.043-0.146,0.058-0.292,0.058-0.407V8.602z"/>
		<path fill="#FFFFFF" d="M98.365,7.349c0-0.831-0.015-1.544-0.058-2.2h1.122l0.058,1.398h0.044c0.32-0.947,1.107-1.545,1.967-1.545
			c0.132,0,0.233,0.016,0.351,0.029v1.21c-0.132-0.029-0.263-0.029-0.438-0.029c-0.903,0-1.545,0.671-1.72,1.632
			c-0.029,0.176-0.044,0.394-0.044,0.598v3.761h-1.282V7.349z"/>
		<path fill="#FFFFFF" d="M103.7,8.908c0.029,1.733,1.122,2.446,2.419,2.446c0.919,0,1.487-0.16,1.953-0.362l0.233,0.918
			c-0.452,0.202-1.239,0.45-2.361,0.45c-2.171,0-3.468-1.441-3.468-3.569c0-2.127,1.253-3.789,3.308-3.789
			c2.317,0,2.915,2.012,2.915,3.309c0,0.263-0.015,0.451-0.044,0.599L103.7,8.908L103.7,8.908z M107.46,7.99
			c0.015-0.803-0.335-2.07-1.777-2.07c-1.312,0-1.865,1.182-1.968,2.07H107.46z"/>
		<path fill="#FFFFFF" d="M115.316,11.953c-0.335,0.159-1.078,0.407-2.025,0.407c-2.127,0-3.512-1.441-3.512-3.6
			c0-2.171,1.486-3.76,3.789-3.76c0.758,0,1.428,0.188,1.777,0.379l-0.291,0.977c-0.307-0.159-0.787-0.335-1.486-0.335
			c-1.618,0-2.492,1.21-2.492,2.667c0,1.632,1.049,2.638,2.448,2.638c0.729,0,1.209-0.175,1.574-0.334L115.316,11.953z"/>
		<path fill="#FFFFFF" d="M122.722,10.264c0,0.742,0.015,1.384,0.058,1.938h-1.137l-0.072-1.151h-0.029
			c-0.32,0.568-1.078,1.312-2.332,1.312c-1.107,0-2.433-0.627-2.433-3.09V5.148h1.282v3.892c0,1.341,0.422,2.259,1.573,2.259
			c0.86,0,1.457-0.598,1.69-1.181c0.073-0.176,0.117-0.408,0.117-0.656V5.148h1.282L122.722,10.264L122.722,10.264z"/>
		<path fill="#FFFFFF" d="M124.852,7.451c0-0.904-0.029-1.634-0.058-2.304h1.137l0.072,1.209h0.029
			c0.51-0.858,1.355-1.354,2.507-1.354c1.719,0,3.001,1.442,3.001,3.57c0,2.535-1.559,3.788-3.22,3.788
			c-0.933,0-1.749-0.407-2.172-1.106h-0.029v3.832h-1.268L124.852,7.451L124.852,7.451z M126.119,9.33
			c0,0.188,0.015,0.364,0.059,0.524c0.233,0.89,1.006,1.5,1.924,1.5c1.355,0,2.142-1.106,2.142-2.725
			c0-1.398-0.743-2.608-2.098-2.608c-0.875,0-1.705,0.612-1.938,1.573c-0.044,0.161-0.088,0.351-0.088,0.511L126.119,9.33
			L126.119,9.33z"/>
		<path fill="#FFFFFF" d="M133.859,8.908c0.029,1.733,1.122,2.446,2.42,2.446c0.918,0,1.486-0.16,1.952-0.362l0.233,0.918
			c-0.452,0.202-1.239,0.45-2.361,0.45c-2.171,0-3.468-1.441-3.468-3.569c0-2.127,1.253-3.789,3.308-3.789
			c2.317,0,2.915,2.012,2.915,3.309c0,0.263-0.015,0.451-0.044,0.599L133.859,8.908L133.859,8.908z M137.619,7.99
			c0.015-0.803-0.335-2.07-1.777-2.07c-1.312,0-1.865,1.182-1.968,2.07H137.619z"/>
		<path fill="#FFFFFF" d="M140.448,7.349c0-0.831-0.015-1.544-0.058-2.2h1.122l0.058,1.398h0.044
			c0.32-0.947,1.107-1.545,1.968-1.545c0.131,0,0.232,0.016,0.35,0.029v1.21c-0.132-0.029-0.263-0.029-0.438-0.029
			c-0.903,0-1.545,0.671-1.72,1.632c-0.029,0.176-0.044,0.394-0.044,0.598v3.761h-1.282V7.349z"/>
		<path fill="#FFFFFF" d="M150.097,10.511c0,0.612,0.029,1.21,0.102,1.69h-1.151l-0.102-0.89h-0.044
			c-0.394,0.555-1.151,1.049-2.156,1.049c-1.429,0-2.157-1.006-2.157-2.024c0-1.705,1.516-2.638,4.241-2.623V7.567
			c0-0.567-0.161-1.632-1.604-1.617c-0.67,0-1.355,0.188-1.851,0.524l-0.291-0.858c0.582-0.365,1.442-0.613,2.331-0.613
			c2.157,0,2.682,1.473,2.682,2.871V10.511L150.097,10.511z M148.857,8.602c-1.398-0.028-2.987,0.219-2.987,1.589
			c0,0.846,0.554,1.225,1.195,1.225c0.933,0,1.53-0.582,1.734-1.181c0.043-0.146,0.058-0.292,0.058-0.407V8.602z"/>
		<path fill="#FFFFFF" d="M157.195,11.953c-0.335,0.159-1.078,0.407-2.025,0.407c-2.127,0-3.512-1.441-3.512-3.6
			c0-2.171,1.486-3.76,3.789-3.76c0.758,0,1.428,0.188,1.777,0.379l-0.291,0.977c-0.307-0.159-0.787-0.335-1.486-0.335
			c-1.618,0-2.492,1.21-2.492,2.667c0,1.632,1.049,2.638,2.448,2.638c0.729,0,1.209-0.175,1.574-0.334L157.195,11.953z"/>
		<path fill="#FFFFFF" d="M160.127,3.166c0,0.438-0.307,0.787-0.816,0.787c-0.466,0-0.772-0.351-0.772-0.787
			c0-0.438,0.32-0.801,0.802-0.801C159.806,2.365,160.127,2.715,160.127,3.166z M158.698,12.201V5.148h1.282v7.054H158.698z"/>
		<path fill="#FFFFFF" d="M168.492,8.616c0,2.607-1.821,3.744-3.512,3.744c-1.895,0-3.381-1.397-3.381-3.629
			c0-2.346,1.56-3.729,3.497-3.729C167.122,5.002,168.492,6.475,168.492,8.616z M162.911,8.689c0,1.545,0.874,2.711,2.128,2.711
			c1.224,0,2.142-1.151,2.142-2.739c0-1.195-0.598-2.695-2.113-2.695C163.566,5.965,162.911,7.363,162.911,8.689z M166.962,2.103
			l-1.777,2.084h-0.903l1.268-2.084H166.962z"/>
		<path fill="#FFFFFF" d="M170.112,7.057c0-0.742-0.015-1.326-0.058-1.908h1.137l0.072,1.166h0.029
			c0.35-0.655,1.166-1.312,2.331-1.312c0.977,0,2.492,0.584,2.492,3.002v4.197h-1.282V8.136c0-1.137-0.423-2.084-1.632-2.084
			c-0.831,0-1.486,0.598-1.72,1.313c-0.059,0.159-0.088,0.379-0.088,0.598v4.24h-1.282L170.112,7.057L170.112,7.057z"/>
		<path fill="#FFFFFF" d="M187.676,8.616c0,2.607-1.82,3.744-3.512,3.744c-1.895,0-3.381-1.397-3.381-3.629
			c0-2.346,1.56-3.729,3.496-3.729C186.307,5.002,187.676,6.475,187.676,8.616z M182.096,8.689c0,1.545,0.873,2.711,2.127,2.711
			c1.225,0,2.143-1.151,2.143-2.739c0-1.195-0.598-2.695-2.113-2.695C182.75,5.965,182.096,7.363,182.096,8.689z"/>
		<path fill="#FFFFFF" d="M192.387,7.057c0-0.742-0.029-1.326-0.059-1.908h1.122l0.058,1.15h0.044
			c0.394-0.67,1.05-1.297,2.229-1.297c0.947,0,1.676,0.584,1.98,1.414h0.029c0.219-0.408,0.512-0.699,0.802-0.918
			c0.423-0.32,0.874-0.496,1.546-0.496c0.946,0,2.33,0.613,2.33,3.061v4.14h-1.253V8.223c0-1.369-0.51-2.171-1.53-2.171
			c-0.742,0-1.297,0.539-1.529,1.151c-0.059,0.188-0.102,0.407-0.102,0.641v4.357h-1.254V7.975c0-1.121-0.496-1.923-1.472-1.923
			c-0.787,0-1.386,0.642-1.589,1.282c-0.073,0.175-0.102,0.408-0.102,0.627v4.24h-1.255V7.057H192.387z"/>
		<path fill="#FFFFFF" d="M205.973,3.166c0,0.438-0.308,0.787-0.816,0.787c-0.467,0-0.772-0.351-0.772-0.787
			c0-0.438,0.32-0.801,0.802-0.801C205.65,2.365,205.973,2.715,205.973,3.166z M204.543,12.201V5.148h1.282v7.054H204.543z"/>
		<path fill="#FFFFFF" d="M209.499,3.458v1.689h1.836v0.978h-1.836v3.803c0,0.875,0.248,1.37,0.962,1.37
			c0.35,0,0.555-0.029,0.743-0.087l0.06,0.976c-0.248,0.087-0.643,0.175-1.138,0.175c-0.599,0-1.079-0.203-1.385-0.538
			c-0.351-0.395-0.495-1.021-0.495-1.852V6.125h-1.094V5.148h1.094V3.837L209.499,3.458z"/>
		<path fill="#FFFFFF" d="M214.208,3.166c0,0.438-0.308,0.787-0.815,0.787c-0.467,0-0.772-0.351-0.772-0.787
			c0-0.438,0.319-0.801,0.802-0.801C213.887,2.365,214.208,2.715,214.208,3.166z M212.779,12.201V5.148h1.281v7.054H212.779z"/>
		<path fill="#FFFFFF" d="M222.225,11.166c0,1.633-0.336,2.608-1.007,3.234c-0.698,0.627-1.69,0.846-2.579,0.846
			c-0.845,0-1.777-0.203-2.346-0.582l0.32-0.991c0.467,0.306,1.195,0.568,2.068,0.568c1.313,0,2.273-0.686,2.273-2.479v-0.771
			h-0.029c-0.379,0.654-1.15,1.18-2.244,1.18c-1.748,0-3.002-1.486-3.002-3.439c0-2.389,1.561-3.729,3.191-3.729
			c1.225,0,1.88,0.627,2.199,1.21h0.029l0.045-1.063h1.137c-0.045,0.495-0.059,1.078-0.059,1.925v4.092H222.225z M220.941,7.932
			c0-0.219-0.016-0.408-0.073-0.567c-0.233-0.759-0.845-1.369-1.792-1.369c-1.225,0-2.1,1.032-2.1,2.666
			c0,1.385,0.715,2.534,2.084,2.534c0.803,0,1.517-0.494,1.777-1.311c0.073-0.219,0.104-0.467,0.104-0.686V7.932L220.941,7.932z"/>
		<path fill="#FFFFFF" d="M229.294,10.511c0,0.612,0.029,1.21,0.103,1.69h-1.151l-0.103-0.89H228.1
			c-0.395,0.555-1.151,1.049-2.156,1.049c-1.43,0-2.157-1.006-2.157-2.024c0-1.705,1.516-2.638,4.241-2.623V7.567
			c0-0.567-0.161-1.632-1.604-1.617c-0.67,0-1.354,0.188-1.851,0.524l-0.291-0.858c0.582-0.365,1.441-0.613,2.33-0.613
			c2.158,0,2.683,1.473,2.683,2.871V10.511L229.294,10.511z M228.055,8.602c-1.397-0.028-2.986,0.219-2.986,1.589
			c0,0.846,0.554,1.225,1.195,1.225c0.932,0,1.529-0.582,1.733-1.181c0.043-0.146,0.058-0.292,0.058-0.407V8.602z"/>
		<path fill="#FFFFFF" d="M236.393,11.953c-0.334,0.159-1.078,0.407-2.024,0.407c-2.127,0-3.513-1.441-3.513-3.6
			c0-2.171,1.486-3.76,3.789-3.76c0.758,0,1.429,0.188,1.777,0.379l-0.291,0.977c-0.307-0.159-0.787-0.335-1.486-0.335
			c-1.617,0-2.492,1.21-2.492,2.667c0,1.632,1.05,2.638,2.449,2.638c0.729,0,1.209-0.175,1.573-0.334L236.393,11.953z"/>
		<path fill="#FFFFFF" d="M239.324,3.166c0,0.438-0.307,0.787-0.816,0.787c-0.466,0-0.771-0.351-0.771-0.787
			c0-0.438,0.32-0.801,0.802-0.801C239.003,2.365,239.324,2.715,239.324,3.166z M237.896,12.201V5.148h1.281v7.054H237.896z"/>
		<path fill="#FFFFFF" d="M247.689,8.616c0,2.607-1.821,3.744-3.513,3.744c-1.895,0-3.381-1.397-3.381-3.629
			c0-2.346,1.56-3.729,3.497-3.729C246.318,5.002,247.689,6.475,247.689,8.616z M242.107,8.689c0,1.545,0.875,2.711,2.129,2.711
			c1.224,0,2.142-1.151,2.142-2.739c0-1.195-0.599-2.695-2.112-2.695C242.764,5.965,242.107,7.363,242.107,8.689z M246.159,2.103
			l-1.777,2.084h-0.903l1.269-2.084H246.159z"/>
		<path fill="#FFFFFF" d="M249.311,7.057c0-0.742-0.016-1.326-0.059-1.908h1.137l0.072,1.166h0.029
			c0.35-0.655,1.166-1.312,2.33-1.312c0.978,0,2.492,0.584,2.492,3.002v4.197h-1.281V8.136c0-1.137-0.424-2.084-1.633-2.084
			c-0.83,0-1.485,0.598-1.719,1.313c-0.06,0.159-0.089,0.379-0.089,0.598v4.24h-1.282V7.057H249.311z"/>
		<path fill="#FFFFFF" d="M266.566,1.855v8.524c0,0.626,0.029,1.341,0.059,1.821h-1.137l-0.059-1.226h-0.044
			c-0.379,0.787-1.224,1.385-2.375,1.385c-1.704,0-3.03-1.441-3.03-3.584c-0.016-2.347,1.457-3.774,3.162-3.774
			c1.092,0,1.807,0.511,2.127,1.063h0.029v-4.21H266.566z M265.3,8.02c0-0.16-0.015-0.379-0.059-0.539
			c-0.189-0.803-0.89-1.473-1.851-1.473c-1.326,0-2.113,1.166-2.113,2.711c0,1.428,0.714,2.607,2.084,2.607
			c0.859,0,1.646-0.582,1.88-1.529c0.044-0.175,0.059-0.35,0.059-0.554V8.02z"/>
		<path fill="#FFFFFF" d="M269.426,8.908c0.029,1.733,1.122,2.446,2.42,2.446c0.918,0,1.486-0.16,1.952-0.362l0.233,0.918
			c-0.452,0.202-1.239,0.45-2.361,0.45c-2.171,0-3.468-1.441-3.468-3.569c0-2.127,1.253-3.789,3.308-3.789
			c2.317,0,2.915,2.012,2.915,3.309c0,0.263-0.015,0.451-0.044,0.599L269.426,8.908L269.426,8.908z M273.186,7.99
			c0.016-0.803-0.334-2.07-1.776-2.07c-1.312,0-1.865,1.182-1.968,2.07H273.186z"/>
		<path fill="#FFFFFF" d="M279.104,1.855h1.283v10.347h-1.283V1.855z"/>
		<path fill="#FFFFFF" d="M288.928,8.616c0,2.607-1.82,3.744-3.512,3.744c-1.895,0-3.381-1.397-3.381-3.629
			c0-2.346,1.561-3.729,3.497-3.729C287.559,5.002,288.928,6.475,288.928,8.616z M283.348,8.689c0,1.545,0.873,2.711,2.127,2.711
			c1.225,0,2.143-1.151,2.143-2.739c0-1.195-0.598-2.695-2.113-2.695C284.002,5.965,283.348,7.363,283.348,8.689z"/>
		<path fill="#FFFFFF" d="M290.373,10.904c0.395,0.232,1.064,0.496,1.705,0.496c0.918,0,1.355-0.452,1.355-1.05
			c0-0.612-0.365-0.933-1.298-1.282c-1.282-0.467-1.88-1.15-1.88-1.995c0-1.138,0.934-2.07,2.434-2.07
			c0.715,0,1.342,0.188,1.721,0.438l-0.307,0.934c-0.276-0.175-0.787-0.423-1.442-0.423c-0.759,0-1.166,0.438-1.166,0.963
			c0,0.582,0.407,0.845,1.325,1.209c1.211,0.451,1.852,1.063,1.852,2.112c0,1.253-0.977,2.127-2.623,2.127
			c-0.771,0-1.486-0.203-1.98-0.494L290.373,10.904z"/>
		<path fill="#FFFFFF" d="M305.486,1.855v8.524c0,0.626,0.029,1.341,0.059,1.821h-1.137l-0.059-1.226h-0.043
			c-0.38,0.787-1.225,1.385-2.375,1.385c-1.705,0-3.031-1.441-3.031-3.584c-0.016-2.347,1.457-3.774,3.162-3.774
			c1.092,0,1.807,0.511,2.127,1.063h0.029v-4.21H305.486z M304.221,8.02c0-0.16-0.016-0.379-0.06-0.539
			c-0.188-0.803-0.89-1.473-1.851-1.473c-1.326,0-2.113,1.166-2.113,2.711c0,1.428,0.714,2.607,2.084,2.607
			c0.859,0,1.646-0.582,1.88-1.529c0.044-0.175,0.06-0.35,0.06-0.554V8.02z"/>
		<path fill="#FFFFFF" d="M312.587,10.511c0,0.612,0.029,1.21,0.103,1.69h-1.151l-0.103-0.89h-0.043
			c-0.395,0.555-1.151,1.049-2.156,1.049c-1.43,0-2.157-1.006-2.157-2.024c0-1.705,1.516-2.638,4.241-2.623V7.567
			c0-0.567-0.161-1.632-1.604-1.617c-0.67,0-1.354,0.188-1.851,0.524l-0.291-0.858c0.582-0.365,1.441-0.613,2.33-0.613
			c2.158,0,2.683,1.473,2.683,2.871V10.511L312.587,10.511z M311.348,8.602c-1.397-0.028-2.986,0.219-2.986,1.589
			c0,0.846,0.554,1.225,1.195,1.225c0.933,0,1.529-0.582,1.733-1.181c0.043-0.146,0.058-0.292,0.058-0.407V8.602L311.348,8.602z"/>
		<path fill="#FFFFFF" d="M314.658,7.057c0-0.742-0.016-1.326-0.059-1.908h1.137l0.072,1.166h0.029
			c0.35-0.655,1.166-1.312,2.331-1.312c0.978,0,2.492,0.584,2.492,3.002v4.197h-1.282V8.136c0-1.137-0.423-2.084-1.632-2.084
			c-0.831,0-1.486,0.598-1.72,1.313c-0.06,0.159-0.088,0.379-0.088,0.598v4.24h-1.283V7.057H314.658z M315.854,3.939
			c-0.028-0.946,0.364-1.516,0.992-1.516c0.319,0,0.567,0.145,0.902,0.32c0.232,0.131,0.422,0.248,0.611,0.248
			c0.219,0,0.365-0.133,0.394-0.613h0.687c0.015,0.963-0.308,1.473-0.991,1.473c-0.32,0-0.599-0.146-0.89-0.307
			c-0.291-0.16-0.451-0.262-0.627-0.262c-0.232,0-0.35,0.248-0.379,0.655L315.854,3.939L315.854,3.939z"/>
		<path fill="#FFFFFF" d="M329.132,8.616c0,2.607-1.821,3.744-3.512,3.744c-1.896,0-3.382-1.397-3.382-3.629
			c0-2.346,1.561-3.729,3.498-3.729C327.762,5.002,329.132,6.475,329.132,8.616z M323.551,8.689c0,1.545,0.874,2.711,2.129,2.711
			c1.223,0,2.141-1.151,2.141-2.739c0-1.195-0.598-2.695-2.112-2.695C324.206,5.965,323.551,7.363,323.551,8.689z"/>
		<path fill="#FFFFFF" d="M330.577,10.904c0.394,0.232,1.063,0.496,1.705,0.496c0.918,0,1.354-0.452,1.354-1.05
			c0-0.612-0.363-0.933-1.297-1.282c-1.281-0.467-1.88-1.15-1.88-1.995c0-1.138,0.933-2.07,2.435-2.07
			c0.713,0,1.34,0.188,1.719,0.438l-0.307,0.934c-0.275-0.175-0.787-0.423-1.441-0.423c-0.758,0-1.166,0.438-1.166,0.963
			c0,0.582,0.408,0.845,1.326,1.209c1.209,0.451,1.851,1.063,1.851,2.112c0,1.253-0.978,2.127-2.623,2.127
			c-0.772,0-1.485-0.203-1.981-0.494L330.577,10.904z"/>
		<path fill="#FFFFFF" d="M10.364,24.943c0-0.901-0.029-1.632-0.058-2.302h1.137l0.072,1.21h0.029
			c0.51-0.859,1.355-1.354,2.507-1.354c1.719,0,3.001,1.441,3.001,3.569c0,2.535-1.559,3.788-3.22,3.788
			c-0.933,0-1.749-0.406-2.172-1.106h-0.028v3.833h-1.269L10.364,24.943L10.364,24.943z M11.633,26.824
			c0,0.188,0.014,0.362,0.058,0.522c0.233,0.89,1.006,1.502,1.924,1.502c1.355,0,2.142-1.106,2.142-2.726
			c0-1.399-0.743-2.608-2.098-2.608c-0.875,0-1.705,0.612-1.938,1.574c-0.044,0.16-0.087,0.35-0.087,0.51L11.633,26.824
			L11.633,26.824z"/>
		<path fill="#FFFFFF" d="M18.483,28.397c0.394,0.233,1.064,0.495,1.705,0.495c0.918,0,1.355-0.451,1.355-1.049
			c0-0.612-0.364-0.933-1.297-1.282c-1.282-0.466-1.88-1.15-1.88-1.997c0-1.137,0.933-2.067,2.434-2.067
			c0.714,0,1.341,0.188,1.72,0.437l-0.307,0.934c-0.276-0.176-0.787-0.423-1.442-0.423c-0.758,0-1.166,0.438-1.166,0.962
			c0,0.582,0.408,0.846,1.326,1.21c1.21,0.451,1.851,1.063,1.851,2.111c0,1.254-0.977,2.128-2.623,2.128
			c-0.772,0-1.486-0.204-1.981-0.495L18.483,28.397z"/>
		<path fill="#FFFFFF" d="M25.859,20.66c0,0.437-0.307,0.785-0.816,0.785c-0.466,0-0.772-0.35-0.772-0.785
			c0-0.438,0.32-0.804,0.802-0.804C25.538,19.857,25.859,20.208,25.859,20.66z M24.431,29.694v-7.053h1.282v7.053H24.431z"/>
		<path fill="#FFFFFF" d="M32.869,29.448c-0.335,0.159-1.078,0.406-2.025,0.406c-2.127,0-3.512-1.441-3.512-3.599
			c0-2.172,1.486-3.76,3.789-3.76c0.758,0,1.428,0.188,1.777,0.379l-0.291,0.977c-0.307-0.161-0.787-0.336-1.486-0.336
			c-1.618,0-2.492,1.209-2.492,2.667c0,1.632,1.049,2.638,2.448,2.638c0.729,0,1.209-0.176,1.574-0.336L32.869,29.448z"/>
		<path fill="#FFFFFF" d="M40.667,26.109c0,2.608-1.821,3.745-3.512,3.745c-1.895,0-3.381-1.398-3.381-3.628
			c0-2.347,1.56-3.729,3.497-3.729C39.297,22.496,40.667,23.967,40.667,26.109z M35.086,26.183c0,1.544,0.874,2.71,2.128,2.71
			c1.224,0,2.142-1.149,2.142-2.739c0-1.193-0.598-2.695-2.113-2.695C35.741,23.457,35.086,24.856,35.086,26.183z"/>
		<path fill="#FFFFFF" d="M42.113,28.397c0.394,0.233,1.064,0.495,1.705,0.495c0.918,0,1.355-0.451,1.355-1.049
			c0-0.612-0.364-0.933-1.297-1.282c-1.282-0.466-1.88-1.15-1.88-1.997c0-1.137,0.933-2.067,2.434-2.067
			c0.714,0,1.341,0.188,1.72,0.437l-0.307,0.934c-0.276-0.176-0.787-0.423-1.442-0.423c-0.758,0-1.166,0.438-1.166,0.962
			c0,0.582,0.408,0.846,1.326,1.21c1.21,0.451,1.851,1.063,1.851,2.111c0,1.254-0.977,2.128-2.623,2.128
			c-0.772,0-1.486-0.204-1.981-0.495L42.113,28.397z"/>
		<path fill="#FFFFFF" d="M54.442,26.109c0,2.608-1.821,3.745-3.512,3.745c-1.895,0-3.381-1.398-3.381-3.628
			c0-2.347,1.56-3.729,3.497-3.729C53.072,22.496,54.442,23.967,54.442,26.109z M48.861,26.183c0,1.544,0.874,2.71,2.128,2.71
			c1.224,0,2.142-1.149,2.142-2.739c0-1.193-0.598-2.695-2.113-2.695C49.517,23.457,48.861,24.856,48.861,26.183z"/>
		<path fill="#FFFFFF" d="M61.091,29.448c-0.335,0.159-1.078,0.406-2.025,0.406c-2.127,0-3.512-1.441-3.512-3.599
			c0-2.172,1.486-3.76,3.789-3.76c0.758,0,1.428,0.188,1.777,0.379l-0.291,0.977c-0.307-0.161-0.787-0.336-1.486-0.336
			c-1.618,0-2.492,1.209-2.492,2.667c0,1.632,1.049,2.638,2.448,2.638c0.729,0,1.209-0.176,1.574-0.336L61.091,29.448z"/>
		<path fill="#FFFFFF" d="M64.021,20.66c0,0.437-0.307,0.785-0.816,0.785c-0.466,0-0.772-0.35-0.772-0.785
			c0-0.438,0.32-0.804,0.802-0.804C63.7,19.857,64.021,20.208,64.021,20.66z M62.593,29.694v-7.053h1.282v7.053H62.593z"/>
		<path fill="#FFFFFF" d="M70.96,28.004c0,0.612,0.029,1.209,0.102,1.689H69.91l-0.102-0.889h-0.044
			c-0.394,0.554-1.151,1.049-2.156,1.049c-1.429,0-2.157-1.005-2.157-2.024c0-1.705,1.516-2.639,4.241-2.623V25.06
			c0-0.567-0.161-1.633-1.604-1.617c-0.67,0-1.355,0.189-1.851,0.523l-0.291-0.859c0.582-0.362,1.442-0.61,2.331-0.61
			c2.157,0,2.682,1.471,2.682,2.87L70.96,28.004L70.96,28.004z M69.721,26.096c-1.398-0.029-2.987,0.218-2.987,1.588
			c0,0.845,0.554,1.225,1.195,1.225c0.933,0,1.53-0.583,1.734-1.182c0.043-0.145,0.058-0.291,0.058-0.408V26.096z"/>
		<path fill="#FFFFFF" d="M73.03,19.348h1.282v10.347H73.03V19.348z"/>
		<path fill="#FFFFFF" d="M77.186,26.4c0.029,1.734,1.122,2.449,2.42,2.449c0.918,0,1.486-0.16,1.952-0.365l0.233,0.918
			c-0.452,0.205-1.239,0.452-2.361,0.452c-2.171,0-3.468-1.441-3.468-3.568c0-2.129,1.253-3.789,3.308-3.789
			c2.317,0,2.915,2.011,2.915,3.308c0,0.263-0.015,0.452-0.044,0.597L77.186,26.4L77.186,26.4z M80.945,25.482
			c0.015-0.801-0.335-2.067-1.777-2.067c-1.312,0-1.865,1.18-1.968,2.067H80.945z"/>
		<path fill="#FFFFFF" d="M83.6,28.397c0.394,0.233,1.064,0.495,1.705,0.495c0.918,0,1.355-0.451,1.355-1.049
			c0-0.612-0.364-0.933-1.297-1.282c-1.282-0.466-1.88-1.15-1.88-1.997c0-1.137,0.933-2.067,2.434-2.067
			c0.714,0,1.341,0.188,1.72,0.437l-0.307,0.934c-0.276-0.176-0.787-0.423-1.442-0.423c-0.758,0-1.166,0.438-1.166,0.962
			c0,0.582,0.408,0.846,1.326,1.21c1.21,0.451,1.851,1.063,1.851,2.111c0,1.254-0.977,2.128-2.623,2.128
			c-0.772,0-1.486-0.204-1.981-0.495L83.6,28.397z"/>
		<path fill="#FFFFFF" d="M93.103,22.642l1.53,4.167c0.175,0.467,0.35,1.021,0.466,1.443h0.029c0.131-0.423,0.276-0.962,0.452-1.474
			l1.398-4.138h1.355l-1.924,5.027c-0.918,2.419-1.545,3.644-2.419,4.415c-0.642,0.539-1.253,0.758-1.574,0.815l-0.32-1.063
			c0.32-0.103,0.743-0.307,1.122-0.626c0.35-0.276,0.772-0.772,1.078-1.429c0.059-0.132,0.103-0.232,0.103-0.307
			s-0.029-0.175-0.103-0.335l-2.594-6.499h1.401V22.642z"/>
		<path fill="#FFFFFF" d="M103.307,26.4c0.029,1.734,1.122,2.449,2.42,2.449c0.918,0,1.486-0.16,1.952-0.365l0.233,0.918
			c-0.452,0.205-1.239,0.452-2.361,0.452c-2.171,0-3.468-1.441-3.468-3.568c0-2.129,1.253-3.789,3.308-3.789
			c2.317,0,2.915,2.011,2.915,3.308c0,0.263-0.015,0.452-0.044,0.597L103.307,26.4L103.307,26.4z M107.066,25.482
			c0.015-0.801-0.335-2.067-1.777-2.067c-1.312,0-1.865,1.18-1.968,2.067H107.066z"/>
		<path fill="#FFFFFF" d="M109.896,19.348h1.282v10.347h-1.282V19.348z"/>
		<path fill="#FFFFFF" d="M116.25,28.397c0.394,0.233,1.064,0.495,1.705,0.495c0.918,0,1.355-0.451,1.355-1.049
			c0-0.612-0.364-0.933-1.297-1.282c-1.282-0.466-1.88-1.15-1.88-1.997c0-1.137,0.933-2.067,2.434-2.067
			c0.714,0,1.341,0.188,1.72,0.437l-0.307,0.934c-0.276-0.176-0.787-0.423-1.442-0.423c-0.758,0-1.166,0.438-1.166,0.962
			c0,0.582,0.408,0.846,1.326,1.21c1.21,0.451,1.851,1.063,1.851,2.111c0,1.254-0.977,2.128-2.623,2.128
			c-0.772,0-1.486-0.204-1.981-0.495L116.25,28.397z"/>
		<path fill="#FFFFFF" d="M128.101,27.756c0,0.744,0.015,1.385,0.058,1.938h-1.137l-0.072-1.15h-0.029
			c-0.32,0.567-1.078,1.312-2.332,1.312c-1.107,0-2.433-0.626-2.433-3.089v-4.124h1.282v3.892c0,1.341,0.422,2.259,1.573,2.259
			c0.86,0,1.457-0.599,1.69-1.182c0.073-0.175,0.117-0.406,0.117-0.654v-4.313h1.282L128.101,27.756L128.101,27.756z"/>
		<path fill="#FFFFFF" d="M130.361,29.694v-6.076h-0.977v-0.977h0.977v-0.335c0-0.991,0.232-1.895,0.815-2.463
			c0.481-0.467,1.122-0.656,1.72-0.656c0.467,0,0.845,0.104,1.093,0.204l-0.175,0.991c-0.189-0.088-0.438-0.16-0.816-0.16
			c-1.093,0-1.369,0.947-1.369,2.04v0.379h1.705v0.977h-1.705v6.076H130.361z"/>
		<path fill="#FFFFFF" d="M134.487,24.842c0-0.83-0.015-1.545-0.058-2.2h1.122l0.058,1.399h0.044
			c0.32-0.947,1.107-1.545,1.968-1.545c0.131,0,0.232,0.014,0.35,0.028v1.209c-0.132-0.028-0.263-0.028-0.438-0.028
			c-0.903,0-1.545,0.67-1.72,1.633c-0.029,0.174-0.044,0.393-0.044,0.597v3.76h-1.282V24.842z"/>
		<path fill="#FFFFFF" d="M140.74,20.66c0,0.437-0.307,0.785-0.816,0.785c-0.466,0-0.772-0.35-0.772-0.785
			c0-0.438,0.32-0.804,0.802-0.804C140.419,19.857,140.74,20.208,140.74,20.66z M139.312,29.694v-7.053h1.282v7.053H139.312z"/>
		<path fill="#FFFFFF" d="M143.198,24.551c0-0.744-0.029-1.326-0.058-1.909h1.122l0.058,1.151h0.044
			c0.394-0.671,1.049-1.297,2.229-1.297c0.947,0,1.676,0.582,1.981,1.413h0.029c0.219-0.408,0.511-0.699,0.802-0.918
			c0.423-0.321,0.874-0.495,1.545-0.495c0.947,0,2.331,0.61,2.331,3.06v4.139h-1.253v-3.978c0-1.371-0.51-2.172-1.53-2.172
			c-0.743,0-1.297,0.539-1.53,1.15c-0.058,0.189-0.102,0.407-0.102,0.643v4.355h-1.253v-4.226c0-1.123-0.496-1.924-1.472-1.924
			c-0.787,0-1.385,0.641-1.589,1.282c-0.073,0.175-0.102,0.407-0.102,0.626v4.24h-1.254v-5.142H143.198z"/>
		<path fill="#FFFFFF" d="M156.784,20.66c0,0.437-0.307,0.785-0.816,0.785c-0.466,0-0.772-0.35-0.772-0.785
			c0-0.438,0.32-0.804,0.802-0.804C156.463,19.857,156.784,20.208,156.784,20.66z M155.355,29.694v-7.053h1.282v7.053H155.355z"/>
		<path fill="#FFFFFF" d="M159.48,26.4c0.029,1.734,1.122,2.449,2.42,2.449c0.918,0,1.486-0.16,1.952-0.365l0.233,0.918
			c-0.452,0.205-1.239,0.452-2.361,0.452c-2.171,0-3.468-1.441-3.468-3.568c0-2.129,1.253-3.789,3.308-3.789
			c2.317,0,2.915,2.011,2.915,3.308c0,0.263-0.015,0.452-0.044,0.597L159.48,26.4L159.48,26.4z M163.24,25.482
			c0.015-0.801-0.335-2.067-1.777-2.067c-1.312,0-1.865,1.18-1.968,2.067H163.24z"/>
		<path fill="#FFFFFF" d="M166.069,24.551c0-0.744-0.015-1.326-0.058-1.909h1.137l0.072,1.165h0.029
			c0.35-0.655,1.166-1.311,2.331-1.311c0.977,0,2.492,0.582,2.492,3.002v4.195h-1.282v-4.064c0-1.137-0.423-2.084-1.632-2.084
			c-0.831,0-1.486,0.598-1.72,1.312c-0.059,0.16-0.088,0.379-0.088,0.598v4.24h-1.282L166.069,24.551L166.069,24.551z"/>
		<path fill="#FFFFFF" d="M175.646,20.951v1.689h1.836v0.977h-1.836v3.804c0,0.874,0.248,1.37,0.963,1.37
			c0.35,0,0.554-0.029,0.742-0.088l0.06,0.977c-0.248,0.088-0.642,0.175-1.138,0.175c-0.598,0-1.079-0.204-1.384-0.539
			c-0.35-0.394-0.495-1.021-0.495-1.851v-3.848h-1.093v-0.977h1.093V21.33L175.646,20.951z"/>
		<path fill="#FFFFFF" d="M185.223,26.109c0,2.608-1.82,3.745-3.512,3.745c-1.895,0-3.381-1.398-3.381-3.628
			c0-2.347,1.561-3.729,3.497-3.729C183.854,22.496,185.223,23.967,185.223,26.109z M179.643,26.183c0,1.544,0.873,2.71,2.127,2.71
			c1.225,0,2.143-1.149,2.143-2.739c0-1.193-0.598-2.695-2.113-2.695C180.297,23.457,179.643,24.856,179.643,26.183z"/>
		<path fill="#FFFFFF" d="M190.646,26.4c0.028,1.734,1.121,2.449,2.42,2.449c0.918,0,1.485-0.16,1.951-0.365l0.233,0.918
			c-0.452,0.205-1.239,0.452-2.36,0.452c-2.172,0-3.469-1.441-3.469-3.568c0-2.129,1.253-3.789,3.309-3.789
			c2.316,0,2.914,2.011,2.914,3.308c0,0.263-0.015,0.452-0.043,0.597L190.646,26.4L190.646,26.4z M194.406,25.482
			c0.015-0.801-0.336-2.067-1.777-2.067c-1.313,0-1.865,1.18-1.968,2.067H194.406z"/>
		<path fill="#FFFFFF" d="M197.234,24.551c0-0.744-0.028-1.326-0.058-1.909h1.122l0.059,1.151h0.043
			c0.395-0.671,1.05-1.297,2.229-1.297c0.947,0,1.677,0.582,1.981,1.413h0.029c0.219-0.408,0.51-0.699,0.801-0.918
			c0.424-0.321,0.875-0.495,1.545-0.495c0.947,0,2.332,0.61,2.332,3.06v4.139h-1.254v-3.978c0-1.371-0.51-2.172-1.529-2.172
			c-0.743,0-1.297,0.539-1.53,1.15c-0.058,0.189-0.103,0.407-0.103,0.643v4.355h-1.252v-4.226c0-1.123-0.496-1.924-1.473-1.924
			c-0.787,0-1.385,0.641-1.589,1.282c-0.073,0.175-0.103,0.407-0.103,0.626v4.24h-1.254v-5.142H197.234z"/>
		<path fill="#FFFFFF" d="M215.775,26.109c0,2.608-1.821,3.745-3.512,3.745c-1.896,0-3.382-1.398-3.382-3.628
			c0-2.347,1.56-3.729,3.497-3.729C214.404,22.496,215.775,23.967,215.775,26.109z M210.193,26.183c0,1.544,0.875,2.71,2.129,2.71
			c1.224,0,2.142-1.149,2.142-2.739c0-1.193-0.598-2.695-2.112-2.695C210.85,23.457,210.193,24.856,210.193,26.183z"/>
		<path fill="#FFFFFF" d="M222.423,29.448c-0.335,0.159-1.077,0.406-2.024,0.406c-2.127,0-3.512-1.441-3.512-3.599
			c0-2.172,1.485-3.76,3.788-3.76c0.759,0,1.429,0.188,1.777,0.379l-0.291,0.977c-0.308-0.161-0.787-0.336-1.486-0.336
			c-1.618,0-2.491,1.209-2.491,2.667c0,1.632,1.049,2.638,2.447,2.638c0.729,0,1.209-0.176,1.574-0.336L222.423,29.448z"/>
		<path fill="#FFFFFF" d="M225.354,20.66c0,0.437-0.307,0.785-0.815,0.785c-0.466,0-0.772-0.35-0.772-0.785
			c0-0.438,0.32-0.804,0.803-0.804C225.033,19.857,225.354,20.208,225.354,20.66z M223.926,29.694v-7.053h1.282v7.053H223.926z"/>
		<path fill="#FFFFFF" d="M233.721,26.109c0,2.608-1.822,3.745-3.513,3.745c-1.896,0-3.381-1.398-3.381-3.628
			c0-2.347,1.56-3.729,3.497-3.729C232.35,22.496,233.721,23.967,233.721,26.109z M228.139,26.183c0,1.544,0.875,2.71,2.129,2.71
			c1.224,0,2.142-1.149,2.142-2.739c0-1.193-0.599-2.695-2.113-2.695C228.794,23.457,228.139,24.856,228.139,26.183z"/>
		<path fill="#FFFFFF" d="M235.34,24.551c0-0.744-0.015-1.326-0.058-1.909h1.137l0.072,1.165h0.028
			c0.351-0.655,1.166-1.311,2.332-1.311c0.977,0,2.491,0.582,2.491,3.002v4.195h-1.282v-4.064c0-1.137-0.422-2.084-1.631-2.084
			c-0.832,0-1.486,0.598-1.721,1.312c-0.059,0.16-0.088,0.379-0.088,0.598v4.24h-1.282L235.34,24.551L235.34,24.551z"/>
		<path fill="#FFFFFF" d="M248.387,28.004c0,0.612,0.028,1.209,0.102,1.689h-1.151l-0.103-0.889h-0.043
			c-0.395,0.554-1.151,1.049-2.156,1.049c-1.43,0-2.157-1.005-2.157-2.024c0-1.705,1.517-2.639,4.241-2.623V25.06
			c0-0.567-0.161-1.633-1.604-1.617c-0.67,0-1.355,0.189-1.852,0.523l-0.291-0.859c0.582-0.362,1.441-0.61,2.331-0.61
			c2.157,0,2.682,1.471,2.682,2.87L248.387,28.004L248.387,28.004z M247.146,26.096c-1.398-0.029-2.987,0.218-2.987,1.588
			c0,0.845,0.554,1.225,1.194,1.225c0.934,0,1.53-0.583,1.734-1.182c0.043-0.145,0.059-0.291,0.059-0.408V26.096z"/>
		<path fill="#FFFFFF" d="M250.457,19.348h1.281v10.347h-1.281V19.348z"/>
		<path fill="#FFFFFF" d="M263.021,28.66c0,1.632-0.336,2.606-1.006,3.233c-0.699,0.627-1.69,0.847-2.58,0.847
			c-0.845,0-1.776-0.204-2.346-0.583l0.32-0.991c0.467,0.307,1.195,0.567,2.068,0.567c1.313,0,2.273-0.686,2.273-2.477v-0.773
			h-0.029c-0.379,0.656-1.15,1.182-2.244,1.182c-1.748,0-3.002-1.486-3.002-3.438c0-2.391,1.561-3.729,3.191-3.729
			c1.225,0,1.88,0.626,2.2,1.209h0.028l0.045-1.063h1.137c-0.044,0.495-0.059,1.078-0.059,1.923v4.095H263.021z M261.738,25.425
			c0-0.219-0.016-0.408-0.073-0.568c-0.233-0.758-0.845-1.37-1.792-1.37c-1.225,0-2.1,1.035-2.1,2.667
			c0,1.385,0.715,2.536,2.084,2.536c0.803,0,1.517-0.496,1.777-1.312c0.073-0.219,0.104-0.466,0.104-0.686V25.425L261.738,25.425z"
			/>
		<path fill="#FFFFFF" d="M265.85,26.4c0.029,1.734,1.123,2.449,2.42,2.449c0.918,0,1.486-0.16,1.953-0.365l0.232,0.918
			c-0.452,0.205-1.239,0.452-2.361,0.452c-2.171,0-3.468-1.441-3.468-3.568c0-2.129,1.253-3.789,3.308-3.789
			c2.317,0,2.916,2.011,2.916,3.308c0,0.263-0.016,0.452-0.045,0.597L265.85,26.4L265.85,26.4z M269.609,25.482
			c0.015-0.801-0.336-2.067-1.777-2.067c-1.313,0-1.865,1.18-1.968,2.067H269.609z"/>
		<path fill="#FFFFFF" d="M272.438,24.551c0-0.744-0.015-1.326-0.058-1.909h1.138l0.071,1.165h0.029
			c0.35-0.655,1.166-1.311,2.331-1.311c0.977,0,2.492,0.582,2.492,3.002v4.195h-1.282v-4.064c0-1.137-0.423-2.084-1.632-2.084
			c-0.832,0-1.486,0.598-1.721,1.312c-0.059,0.16-0.088,0.379-0.088,0.598v4.24h-1.281V24.551L272.438,24.551z"/>
		<path fill="#FFFFFF" d="M281.243,26.4c0.028,1.734,1.122,2.449,2.419,2.449c0.919,0,1.486-0.16,1.953-0.365l0.232,0.918
			c-0.451,0.205-1.238,0.452-2.361,0.452c-2.17,0-3.467-1.441-3.467-3.568c0-2.129,1.252-3.789,3.308-3.789
			c2.317,0,2.915,2.011,2.915,3.308c0,0.263-0.016,0.452-0.044,0.597L281.243,26.4L281.243,26.4z M285.003,25.482
			c0.015-0.801-0.335-2.067-1.776-2.067c-1.313,0-1.865,1.18-1.969,2.067H285.003z"/>
		<path fill="#FFFFFF" d="M287.832,24.842c0-0.83-0.016-1.545-0.059-2.2h1.123l0.058,1.399h0.044
			c0.32-0.947,1.107-1.545,1.967-1.545c0.133,0,0.233,0.014,0.352,0.028v1.209c-0.133-0.028-0.264-0.028-0.438-0.028
			c-0.903,0-1.545,0.67-1.72,1.633c-0.029,0.174-0.044,0.393-0.044,0.597v3.76h-1.282V24.842L287.832,24.842z"/>
		<path fill="#FFFFFF" d="M297.48,28.004c0,0.612,0.029,1.209,0.103,1.689h-1.151l-0.102-0.889h-0.044
			c-0.394,0.554-1.151,1.049-2.156,1.049c-1.429,0-2.157-1.005-2.157-2.024c0-1.705,1.516-2.639,4.241-2.623V25.06
			c0-0.567-0.161-1.633-1.604-1.617c-0.67,0-1.354,0.189-1.851,0.523l-0.291-0.859c0.582-0.362,1.442-0.61,2.331-0.61
			c2.157,0,2.682,1.471,2.682,2.87V28.004L297.48,28.004z M296.242,26.096c-1.398-0.029-2.987,0.218-2.987,1.588
			c0,0.845,0.554,1.225,1.195,1.225c0.933,0,1.53-0.583,1.733-1.182c0.043-0.145,0.059-0.291,0.059-0.408V26.096L296.242,26.096z"/>
		<path fill="#FFFFFF" d="M305.63,19.348v8.525c0,0.627,0.029,1.34,0.058,1.82h-1.137l-0.058-1.224h-0.044
			c-0.379,0.787-1.225,1.384-2.375,1.384c-1.705,0-3.031-1.441-3.031-3.585c-0.016-2.346,1.457-3.772,3.162-3.772
			c1.093,0,1.807,0.51,2.128,1.063h0.028v-4.212L305.63,19.348L305.63,19.348z M304.361,25.512c0-0.16-0.014-0.379-0.059-0.539
			c-0.188-0.801-0.889-1.472-1.851-1.472c-1.326,0-2.113,1.166-2.113,2.71c0,1.429,0.714,2.608,2.084,2.608
			c0.859,0,1.646-0.583,1.88-1.529c0.045-0.175,0.059-0.351,0.059-0.555V25.512z"/>
		<path fill="#FFFFFF" d="M314.157,26.109c0,2.608-1.821,3.745-3.513,3.745c-1.895,0-3.381-1.398-3.381-3.628
			c0-2.347,1.561-3.729,3.498-3.729C312.787,22.496,314.157,23.967,314.157,26.109z M308.576,26.183c0,1.544,0.874,2.71,2.128,2.71
			c1.224,0,2.142-1.149,2.142-2.739c0-1.193-0.598-2.695-2.113-2.695C309.23,23.457,308.576,24.856,308.576,26.183z"/>
		<path fill="#FFFFFF" d="M323.822,28.004c0,0.612,0.029,1.209,0.102,1.689h-1.15l-0.103-0.889h-0.044
			c-0.395,0.554-1.15,1.049-2.156,1.049c-1.429,0-2.156-1.005-2.156-2.024c0-1.705,1.516-2.639,4.24-2.623V25.06
			c0-0.567-0.16-1.633-1.604-1.617c-0.67,0-1.355,0.189-1.852,0.523l-0.291-0.859c0.582-0.362,1.442-0.61,2.332-0.61
			c2.156,0,2.682,1.471,2.682,2.87V28.004L323.822,28.004z M322.583,26.096c-1.397-0.029-2.987,0.218-2.987,1.588
			c0,0.845,0.555,1.225,1.195,1.225c0.934,0,1.529-0.583,1.734-1.182c0.043-0.145,0.058-0.291,0.058-0.408V26.096L322.583,26.096z"
			/>
		<path fill="#FFFFFF" d="M328.982,19.348h1.283v10.347h-1.283V19.348z"/>
		<path fill="#FFFFFF" d="M337.379,28.004c0,0.612,0.029,1.209,0.102,1.689h-1.15l-0.102-0.889h-0.045
			c-0.394,0.554-1.15,1.049-2.156,1.049c-1.428,0-2.156-1.005-2.156-2.024c0-1.705,1.516-2.639,4.24-2.623V25.06
			c0-0.567-0.16-1.633-1.604-1.617c-0.67,0-1.355,0.189-1.852,0.523l-0.29-0.859c0.581-0.362,1.442-0.61,2.331-0.61
			c2.156,0,2.682,1.471,2.682,2.87V28.004L337.379,28.004z M336.141,26.096c-1.398-0.029-2.988,0.218-2.988,1.588
			c0,0.845,0.555,1.225,1.195,1.225c0.934,0,1.53-0.583,1.734-1.182c0.043-0.145,0.059-0.291,0.059-0.408V26.096L336.141,26.096z"/>
		<path fill="#FFFFFF" d="M339.275,28.397c0.394,0.233,1.063,0.495,1.705,0.495c0.918,0,1.354-0.451,1.354-1.049
			c0-0.612-0.364-0.933-1.297-1.282c-1.282-0.466-1.88-1.15-1.88-1.997c0-1.137,0.933-2.067,2.434-2.067
			c0.715,0,1.342,0.188,1.721,0.437l-0.308,0.934c-0.276-0.176-0.787-0.423-1.442-0.423c-0.758,0-1.166,0.438-1.166,0.962
			c0,0.582,0.408,0.846,1.326,1.21c1.211,0.451,1.852,1.063,1.852,2.111c0,1.254-0.977,2.128-2.623,2.128
			c-0.771,0-1.486-0.204-1.98-0.495L339.275,28.397z"/>
		<path fill="#FFFFFF" d="M6.61,40.135l1.384,3.948c0.233,0.654,0.423,1.239,0.568,1.82h0.044c0.16-0.581,0.364-1.166,0.598-1.82
			l1.369-3.948h1.341l-2.769,7.053H7.922L5.24,40.135H6.61z"/>
		<path fill="#FFFFFF" d="M15.734,37.088l-1.777,2.084h-0.903l1.282-2.084H15.734z M13.126,47.188v-7.053h1.282v7.053H13.126z"/>
		<path fill="#FFFFFF" d="M21.564,46.939c-0.335,0.16-1.078,0.408-2.025,0.408c-2.127,0-3.512-1.443-3.512-3.6
			c0-2.172,1.486-3.761,3.789-3.761c0.758,0,1.428,0.189,1.777,0.38l-0.291,0.977c-0.307-0.16-0.787-0.336-1.486-0.336
			c-1.618,0-2.492,1.21-2.492,2.668c0,1.631,1.049,2.637,2.448,2.637c0.729,0,1.209-0.175,1.574-0.335L21.564,46.939z"/>
		<path fill="#FFFFFF" d="M24.802,38.443v1.691h1.836v0.976h-1.836v3.805c0,0.874,0.248,1.369,0.962,1.369
			c0.35,0,0.554-0.029,0.743-0.088l0.059,0.977c-0.248,0.088-0.642,0.176-1.137,0.176c-0.598,0-1.079-0.205-1.385-0.539
			c-0.35-0.395-0.495-1.021-0.495-1.852V41.11h-1.093v-0.976h1.093v-1.312L24.802,38.443z"/>
		<path fill="#FFFFFF" d="M29.511,38.152c0,0.438-0.307,0.787-0.816,0.787c-0.466,0-0.772-0.35-0.772-0.787
			c0-0.437,0.32-0.802,0.802-0.802C29.189,37.351,29.511,37.701,29.511,38.152z M28.082,47.188v-7.053h1.282v7.053H28.082z"/>
		<path fill="#FFFFFF" d="M31.493,42.043c0-0.743-0.029-1.326-0.058-1.908h1.122l0.058,1.15h0.044
			c0.394-0.67,1.049-1.298,2.229-1.298c0.947,0,1.676,0.583,1.981,1.414h0.029c0.219-0.407,0.511-0.698,0.802-0.918
			c0.423-0.32,0.874-0.496,1.545-0.496c0.947,0,2.331,0.612,2.331,3.062v4.139h-1.253v-3.979c0-1.37-0.51-2.172-1.53-2.172
			c-0.743,0-1.297,0.539-1.53,1.151c-0.058,0.189-0.102,0.407-0.102,0.642v4.356h-1.253V42.96c0-1.122-0.496-1.924-1.472-1.924
			c-0.787,0-1.385,0.642-1.589,1.282c-0.073,0.175-0.102,0.408-0.102,0.626v4.241h-1.254v-5.143H31.493z"/>
		<path fill="#FFFFFF" d="M48.605,45.496c0,0.612,0.029,1.21,0.102,1.69h-1.151l-0.102-0.889H47.41
			c-0.394,0.553-1.151,1.049-2.156,1.049c-1.429,0-2.157-1.006-2.157-2.024c0-1.705,1.516-2.64,4.241-2.623v-0.146
			c0-0.568-0.161-1.632-1.604-1.617c-0.67,0-1.355,0.189-1.851,0.524l-0.291-0.859c0.582-0.364,1.442-0.611,2.331-0.611
			c2.157,0,2.682,1.472,2.682,2.87V45.496z M47.366,43.588c-1.398-0.029-2.987,0.219-2.987,1.588c0,0.846,0.554,1.225,1.195,1.225
			c0.933,0,1.53-0.583,1.734-1.181c0.043-0.146,0.058-0.292,0.058-0.408V43.588z"/>
		<path fill="#FFFFFF" d="M50.502,45.891c0.394,0.232,1.064,0.495,1.705,0.495c0.918,0,1.355-0.452,1.355-1.05
			c0-0.611-0.364-0.933-1.297-1.281c-1.282-0.467-1.88-1.152-1.88-1.997c0-1.137,0.933-2.068,2.434-2.068
			c0.714,0,1.341,0.188,1.72,0.438l-0.307,0.933c-0.276-0.175-0.787-0.423-1.442-0.423c-0.758,0-1.166,0.438-1.166,0.962
			c0,0.583,0.408,0.846,1.326,1.21c1.21,0.451,1.851,1.063,1.851,2.112c0,1.253-0.977,2.128-2.623,2.128
			c-0.772,0-1.486-0.205-1.981-0.496L50.502,45.891z"/>
		<path fill="#FFFFFF" d="M55.459,48.994c0.32-0.875,0.714-2.435,0.874-3.498l1.428-0.146c-0.35,1.238-0.99,2.855-1.398,3.541
			L55.459,48.994z"/>
		<path fill="#FFFFFF" d="M62.222,45.891c0.394,0.232,1.064,0.495,1.705,0.495c0.918,0,1.355-0.452,1.355-1.05
			c0-0.611-0.364-0.933-1.297-1.281c-1.282-0.467-1.88-1.152-1.88-1.997c0-1.137,0.933-2.068,2.434-2.068
			c0.714,0,1.341,0.188,1.72,0.438l-0.307,0.933c-0.276-0.175-0.787-0.423-1.442-0.423c-0.758,0-1.166,0.438-1.166,0.962
			c0,0.583,0.408,0.846,1.326,1.21c1.21,0.451,1.851,1.063,1.851,2.112c0,1.253-0.977,2.128-2.623,2.128
			c-0.772,0-1.486-0.205-1.981-0.496L62.222,45.891z"/>
		<path fill="#FFFFFF" d="M74.071,45.249c0,0.743,0.015,1.384,0.058,1.938h-1.137l-0.072-1.151h-0.029
			c-0.32,0.567-1.078,1.312-2.332,1.312c-1.107,0-2.433-0.627-2.433-3.09v-4.123h1.282v3.891c0,1.341,0.422,2.259,1.573,2.259
			c0.86,0,1.457-0.599,1.69-1.181c0.073-0.176,0.117-0.408,0.117-0.655v-4.313h1.282L74.071,45.249L74.071,45.249z"/>
		<path fill="#FFFFFF" d="M76.026,45.891c0.394,0.232,1.064,0.495,1.705,0.495c0.918,0,1.355-0.452,1.355-1.05
			c0-0.611-0.364-0.933-1.297-1.281c-1.282-0.467-1.88-1.152-1.88-1.997c0-1.137,0.933-2.068,2.434-2.068
			c0.714,0,1.341,0.188,1.72,0.438l-0.307,0.933c-0.276-0.175-0.787-0.423-1.442-0.423c-0.758,0-1.166,0.438-1.166,0.962
			c0,0.583,0.408,0.846,1.326,1.21c1.21,0.451,1.851,1.063,1.851,2.112c0,1.253-0.977,2.128-2.623,2.128
			c-0.772,0-1.486-0.205-1.981-0.496L76.026,45.891z"/>
		<path fill="#FFFFFF" d="M85.195,47.188V41.11h-0.977v-0.976h0.977v-0.336c0-0.99,0.232-1.896,0.815-2.463
			c0.481-0.466,1.122-0.655,1.72-0.655c0.467,0,0.845,0.104,1.093,0.204l-0.175,0.99c-0.189-0.087-0.438-0.16-0.816-0.16
			c-1.093,0-1.369,0.947-1.369,2.041v0.379h1.705v0.976h-1.705v6.077L85.195,47.188L85.195,47.188z"/>
		<path fill="#FFFFFF" d="M94.275,45.496c0,0.612,0.029,1.21,0.102,1.69h-1.151l-0.102-0.889H93.08
			c-0.394,0.553-1.151,1.049-2.156,1.049c-1.429,0-2.157-1.006-2.157-2.024c0-1.705,1.516-2.64,4.241-2.623v-0.146
			c0-0.568-0.161-1.632-1.604-1.617c-0.67,0-1.355,0.189-1.851,0.524l-0.291-0.859c0.582-0.364,1.442-0.611,2.331-0.611
			c2.157,0,2.682,1.472,2.682,2.87V45.496z M93.036,43.588c-1.398-0.029-2.987,0.219-2.987,1.588c0,0.846,0.554,1.225,1.195,1.225
			c0.933,0,1.53-0.583,1.734-1.181c0.043-0.146,0.058-0.292,0.058-0.408V43.588z"/>
		<path fill="#FFFFFF" d="M96.347,42.043c0-0.743-0.029-1.326-0.058-1.908h1.122l0.058,1.15h0.044
			c0.394-0.67,1.049-1.298,2.229-1.298c0.947,0,1.676,0.583,1.981,1.414h0.029c0.219-0.407,0.511-0.698,0.802-0.918
			c0.423-0.32,0.874-0.496,1.545-0.496c0.947,0,2.331,0.612,2.331,3.062v4.139h-1.253v-3.979c0-1.37-0.51-2.172-1.53-2.172
			c-0.743,0-1.297,0.539-1.53,1.151c-0.058,0.189-0.102,0.407-0.102,0.642v4.356h-1.253V42.96c0-1.122-0.496-1.924-1.472-1.924
			c-0.787,0-1.385,0.642-1.589,1.282c-0.073,0.175-0.102,0.408-0.102,0.626v4.241h-1.254v-5.143H96.347z"/>
		<path fill="#FFFFFF" d="M109.933,38.152c0,0.438-0.307,0.787-0.816,0.787c-0.466,0-0.772-0.35-0.772-0.787
			c0-0.437,0.32-0.802,0.802-0.802C109.611,37.351,109.933,37.701,109.933,38.152z M108.504,47.188v-7.053h1.282v7.053H108.504z"/>
		<path fill="#FFFFFF" d="M111.915,36.841h1.282v10.347h-1.282V36.841z"/>
		<path fill="#FFFFFF" d="M116.784,38.152c0,0.438-0.307,0.787-0.816,0.787c-0.466,0-0.772-0.35-0.772-0.787
			c0-0.437,0.32-0.802,0.802-0.802C116.463,37.351,116.784,37.701,116.784,38.152z M115.355,47.188v-7.053h1.282v7.053H115.355z"/>
		<path fill="#FFFFFF" d="M123.722,45.496c0,0.612,0.029,1.21,0.102,1.69h-1.151l-0.102-0.889h-0.044
			c-0.394,0.553-1.151,1.049-2.156,1.049c-1.429,0-2.157-1.006-2.157-2.024c0-1.705,1.516-2.64,4.241-2.623v-0.146
			c0-0.568-0.161-1.632-1.604-1.617c-0.67,0-1.355,0.189-1.851,0.524l-0.291-0.859c0.582-0.364,1.442-0.611,2.331-0.611
			c2.157,0,2.682,1.472,2.682,2.87V45.496z M122.482,43.588c-1.398-0.029-2.987,0.219-2.987,1.588c0,0.846,0.554,1.225,1.195,1.225
			c0.933,0,1.53-0.583,1.734-1.181c0.043-0.146,0.058-0.292,0.058-0.408V43.588z"/>
		<path fill="#FFFFFF" d="M125.618,45.891c0.394,0.232,1.064,0.495,1.705,0.495c0.918,0,1.355-0.452,1.355-1.05
			c0-0.611-0.364-0.933-1.297-1.281c-1.282-0.467-1.88-1.152-1.88-1.997c0-1.137,0.933-2.068,2.434-2.068
			c0.714,0,1.341,0.188,1.72,0.438l-0.307,0.933c-0.276-0.175-0.787-0.423-1.442-0.423c-0.758,0-1.166,0.438-1.166,0.962
			c0,0.583,0.408,0.846,1.326,1.21c1.21,0.451,1.851,1.063,1.851,2.112c0,1.253-0.977,2.128-2.623,2.128
			c-0.772,0-1.486-0.205-1.981-0.496L125.618,45.891z"/>
		<path fill="#FFFFFF" d="M135.122,40.135l1.53,4.167c0.175,0.466,0.35,1.021,0.466,1.442h0.029
			c0.131-0.422,0.276-0.961,0.452-1.473l1.398-4.138h1.355l-1.924,5.027c-0.918,2.418-1.545,3.643-2.419,4.414
			c-0.642,0.54-1.253,0.758-1.574,0.815l-0.32-1.063c0.32-0.104,0.743-0.307,1.122-0.626c0.35-0.277,0.772-0.773,1.078-1.43
			c0.059-0.132,0.103-0.232,0.103-0.306s-0.029-0.176-0.103-0.336l-2.594-6.498h1.401V40.135z"/>
		<path fill="#FFFFFF" d="M149.639,46.939c-0.335,0.16-1.078,0.408-2.025,0.408c-2.127,0-3.512-1.443-3.512-3.6
			c0-2.172,1.486-3.761,3.789-3.761c0.758,0,1.428,0.189,1.777,0.38l-0.291,0.977c-0.307-0.16-0.787-0.336-1.486-0.336
			c-1.618,0-2.492,1.21-2.492,2.668c0,1.631,1.049,2.637,2.448,2.637c0.729,0,1.209-0.175,1.574-0.335L149.639,46.939z"/>
		<path fill="#FFFFFF" d="M157.437,43.602c0,2.609-1.821,3.746-3.512,3.746c-1.895,0-3.381-1.398-3.381-3.629
			c0-2.346,1.56-3.729,3.497-3.729C156.066,39.988,157.437,41.46,157.437,43.602z M151.855,43.676c0,1.544,0.874,2.71,2.128,2.71
			c1.224,0,2.142-1.151,2.142-2.739c0-1.194-0.598-2.695-2.113-2.695C152.511,40.95,151.855,42.35,151.855,43.676z"/>
		<path fill="#FFFFFF" d="M159.057,42.043c0-0.743-0.029-1.326-0.058-1.908h1.122l0.058,1.15h0.044
			c0.394-0.67,1.049-1.298,2.229-1.298c0.947,0,1.676,0.583,1.981,1.414h0.029c0.219-0.407,0.511-0.698,0.802-0.918
			c0.423-0.32,0.874-0.496,1.545-0.496c0.947,0,2.331,0.612,2.331,3.062v4.139h-1.253v-3.979c0-1.37-0.51-2.172-1.53-2.172
			c-0.743,0-1.297,0.539-1.53,1.151c-0.058,0.189-0.102,0.407-0.102,0.642v4.356h-1.253V42.96c0-1.122-0.496-1.924-1.472-1.924
			c-0.787,0-1.385,0.642-1.589,1.282c-0.073,0.175-0.102,0.408-0.102,0.626v4.241h-1.254v-5.143H159.057z"/>
		<path fill="#FFFFFF" d="M177.116,45.249c0,0.743,0.015,1.384,0.058,1.938h-1.137l-0.072-1.151h-0.029
			c-0.32,0.567-1.078,1.312-2.332,1.312c-1.107,0-2.433-0.627-2.433-3.09v-4.123h1.282v3.891c0,1.341,0.422,2.259,1.573,2.259
			c0.86,0,1.457-0.599,1.69-1.181c0.073-0.176,0.117-0.408,0.117-0.655v-4.313h1.282L177.116,45.249L177.116,45.249z"/>
		<path fill="#FFFFFF" d="M179.246,42.043c0-0.743-0.016-1.326-0.058-1.908h1.137l0.071,1.165h0.029
			c0.35-0.655,1.166-1.313,2.331-1.313c0.978,0,2.492,0.583,2.492,3.003v4.196h-1.282v-4.065c0-1.138-0.423-2.084-1.632-2.084
			c-0.831,0-1.485,0.598-1.72,1.312c-0.059,0.16-0.088,0.379-0.088,0.597v4.241h-1.282L179.246,42.043L179.246,42.043z"/>
		<path fill="#FFFFFF" d="M188.766,38.152c0,0.438-0.307,0.787-0.815,0.787c-0.466,0-0.772-0.35-0.772-0.787
			c0-0.437,0.32-0.802,0.803-0.802C188.443,37.351,188.766,37.701,188.766,38.152z M187.337,47.188v-7.053h1.282v7.053H187.337z"/>
		<path fill="#FFFFFF" d="M196.825,36.841v8.524c0,0.627,0.028,1.341,0.058,1.821h-1.137l-0.059-1.225h-0.043
			c-0.379,0.787-1.225,1.385-2.375,1.385c-1.705,0-3.031-1.443-3.031-3.585c-0.016-2.347,1.457-3.774,3.162-3.774
			c1.093,0,1.807,0.511,2.127,1.064h0.029V36.84L196.825,36.841L196.825,36.841z M195.559,43.005c0-0.16-0.016-0.379-0.06-0.539
			c-0.188-0.802-0.89-1.472-1.851-1.472c-1.326,0-2.113,1.166-2.113,2.71c0,1.429,0.714,2.607,2.084,2.607
			c0.859,0,1.646-0.582,1.88-1.528c0.044-0.177,0.06-0.351,0.06-0.556V43.005z"/>
		<path fill="#FFFFFF" d="M203.925,45.496c0,0.612,0.029,1.21,0.103,1.69h-1.151l-0.103-0.889h-0.043
			c-0.395,0.553-1.151,1.049-2.156,1.049c-1.43,0-2.157-1.006-2.157-2.024c0-1.705,1.517-2.64,4.241-2.623v-0.146
			c0-0.568-0.161-1.632-1.604-1.617c-0.671,0-1.355,0.189-1.852,0.524l-0.291-0.859c0.582-0.364,1.441-0.611,2.331-0.611
			c2.157,0,2.682,1.472,2.682,2.87V45.496L203.925,45.496z M202.686,43.588c-1.397-0.029-2.986,0.219-2.986,1.588
			c0,0.846,0.554,1.225,1.195,1.225c0.933,0,1.529-0.583,1.733-1.181c0.043-0.146,0.058-0.292,0.058-0.408V43.588z"/>
		<path fill="#FFFFFF" d="M212.073,36.841v8.524c0,0.627,0.028,1.341,0.058,1.821h-1.137l-0.059-1.225h-0.043
			c-0.379,0.787-1.225,1.385-2.375,1.385c-1.705,0-3.031-1.443-3.031-3.585c-0.016-2.347,1.457-3.774,3.162-3.774
			c1.093,0,1.807,0.511,2.127,1.064h0.029V36.84L212.073,36.841L212.073,36.841z M210.807,43.005c0-0.16-0.016-0.379-0.06-0.539
			c-0.188-0.802-0.89-1.472-1.851-1.472c-1.326,0-2.113,1.166-2.113,2.71c0,1.429,0.714,2.607,2.084,2.607
			c0.859,0,1.646-0.582,1.88-1.528c0.044-0.177,0.06-0.351,0.06-0.556V43.005z"/>
		<path fill="#FFFFFF" d="M214.932,43.894c0.029,1.734,1.123,2.448,2.42,2.448c0.918,0,1.486-0.16,1.953-0.364l0.232,0.918
			c-0.452,0.204-1.239,0.452-2.361,0.452c-2.171,0-3.468-1.442-3.468-3.57s1.253-3.788,3.308-3.788c2.317,0,2.916,2.012,2.916,3.309
			c0,0.262-0.016,0.451-0.045,0.597L214.932,43.894L214.932,43.894z M218.691,42.976c0.015-0.802-0.336-2.068-1.777-2.068
			c-1.313,0-1.865,1.181-1.969,2.068H218.691z"/>
		<path fill="#FFFFFF" d="M221.346,45.891c0.395,0.232,1.064,0.495,1.705,0.495c0.918,0,1.355-0.452,1.355-1.05
			c0-0.611-0.364-0.933-1.297-1.281c-1.282-0.467-1.881-1.152-1.881-1.997c0-1.137,0.934-2.068,2.435-2.068
			c0.714,0,1.341,0.188,1.72,0.438l-0.307,0.933c-0.276-0.175-0.787-0.423-1.442-0.423c-0.758,0-1.166,0.438-1.166,0.962
			c0,0.583,0.408,0.846,1.326,1.21c1.21,0.451,1.851,1.063,1.851,2.112c0,1.253-0.977,2.128-2.623,2.128
			c-0.771,0-1.485-0.205-1.98-0.496L221.346,45.891z"/>
		<path fill="#FFFFFF" d="M226.303,48.994c0.32-0.875,0.715-2.435,0.874-3.498l1.429-0.146c-0.351,1.238-0.99,2.855-1.398,3.541
			L226.303,48.994z"/>
		<path fill="#FFFFFF" d="M238.268,46.939c-0.334,0.16-1.078,0.408-2.024,0.408c-2.127,0-3.513-1.443-3.513-3.6
			c0-2.172,1.486-3.761,3.789-3.761c0.758,0,1.429,0.189,1.777,0.38l-0.291,0.977c-0.307-0.16-0.787-0.336-1.486-0.336
			c-1.617,0-2.492,1.21-2.492,2.668c0,1.631,1.05,2.637,2.449,2.637c0.729,0,1.209-0.175,1.573-0.335L238.268,46.939z"/>
		<path fill="#FFFFFF" d="M246.066,43.602c0,2.609-1.821,3.746-3.512,3.746c-1.896,0-3.382-1.398-3.382-3.629
			c0-2.346,1.56-3.729,3.497-3.729C244.695,39.988,246.066,41.46,246.066,43.602z M240.484,43.676c0,1.544,0.875,2.71,2.129,2.71
			c1.224,0,2.142-1.151,2.142-2.739c0-1.194-0.598-2.695-2.112-2.695C241.141,40.95,240.484,42.35,240.484,43.676z"/>
		<path fill="#FFFFFF" d="M247.688,42.043c0-0.743-0.029-1.326-0.059-1.908h1.122l0.058,1.15h0.045
			c0.394-0.67,1.049-1.298,2.229-1.298c0.947,0,1.676,0.583,1.98,1.414h0.029c0.219-0.407,0.512-0.698,0.803-0.918
			c0.422-0.32,0.873-0.496,1.545-0.496c0.947,0,2.33,0.612,2.33,3.062v4.139h-1.252v-3.979c0-1.37-0.511-2.172-1.531-2.172
			c-0.742,0-1.297,0.539-1.529,1.151c-0.059,0.189-0.102,0.407-0.102,0.642v4.356h-1.254V42.96c0-1.122-0.496-1.924-1.472-1.924
			c-0.787,0-1.385,0.642-1.589,1.282c-0.073,0.175-0.102,0.408-0.102,0.626v4.241h-1.254v-5.143H247.688z"/>
		<path fill="#FFFFFF" d="M266.227,43.602c0,2.609-1.82,3.746-3.512,3.746c-1.895,0-3.381-1.398-3.381-3.629
			c0-2.346,1.561-3.729,3.497-3.729C264.855,39.988,266.227,41.46,266.227,43.602z M260.646,43.676c0,1.544,0.873,2.71,2.127,2.71
			c1.225,0,2.143-1.151,2.143-2.739c0-1.194-0.598-2.695-2.113-2.695C261.301,40.95,260.646,42.35,260.646,43.676z"/>
		<path fill="#FFFFFF" d="M275.964,46.939c-0.335,0.16-1.078,0.408-2.024,0.408c-2.127,0-3.513-1.443-3.513-3.6
			c0-2.172,1.486-3.761,3.789-3.761c0.759,0,1.429,0.189,1.777,0.38l-0.291,0.977c-0.308-0.16-0.787-0.336-1.486-0.336
			c-1.618,0-2.491,1.21-2.491,2.668c0,1.631,1.049,2.637,2.447,2.637c0.729,0,1.209-0.175,1.574-0.335L275.964,46.939z"/>
		<path fill="#FFFFFF" d="M283.762,43.602c0,2.609-1.82,3.746-3.512,3.746c-1.895,0-3.381-1.398-3.381-3.629
			c0-2.346,1.561-3.729,3.497-3.729C282.393,39.988,283.762,41.46,283.762,43.602z M278.182,43.676c0,1.544,0.873,2.71,2.127,2.71
			c1.225,0,2.143-1.151,2.143-2.739c0-1.194-0.598-2.695-2.113-2.695C278.836,40.95,278.182,42.35,278.182,43.676z"/>
		<path fill="#FFFFFF" d="M285.382,42.043c0-0.743-0.015-1.326-0.058-1.908h1.137l0.072,1.165h0.029
			c0.35-0.655,1.166-1.313,2.33-1.313c0.978,0,2.492,0.583,2.492,3.003v4.196h-1.281v-4.065c0-1.138-0.424-2.084-1.633-2.084
			c-0.83,0-1.486,0.598-1.72,1.312c-0.06,0.16-0.088,0.379-0.088,0.597v4.241h-1.282L285.382,42.043L285.382,42.043z"/>
		<path fill="#FFFFFF" d="M293.298,45.891c0.394,0.232,1.063,0.495,1.705,0.495c0.918,0,1.354-0.452,1.354-1.05
			c0-0.611-0.363-0.933-1.297-1.281c-1.281-0.467-1.879-1.152-1.879-1.997c0-1.137,0.933-2.068,2.434-2.068
			c0.714,0,1.341,0.188,1.72,0.438l-0.308,0.933c-0.275-0.175-0.786-0.423-1.441-0.423c-0.758,0-1.166,0.438-1.166,0.962
			c0,0.583,0.408,0.846,1.326,1.21c1.21,0.451,1.852,1.063,1.852,2.112c0,1.253-0.978,2.128-2.623,2.128
			c-0.772,0-1.486-0.205-1.981-0.496L293.298,45.891z"/>
		<path fill="#FFFFFF" d="M299.959,43.894c0.029,1.734,1.122,2.448,2.42,2.448c0.918,0,1.486-0.16,1.952-0.364l0.233,0.918
			c-0.453,0.204-1.239,0.452-2.361,0.452c-2.171,0-3.469-1.442-3.469-3.57s1.254-3.788,3.309-3.788c2.316,0,2.915,2.012,2.915,3.309
			c0,0.262-0.015,0.451-0.044,0.597L299.959,43.894L299.959,43.894z M303.719,42.976c0.016-0.802-0.335-2.068-1.777-2.068
			c-1.312,0-1.864,1.181-1.967,2.068H303.719z"/>
		<path fill="#FFFFFF" d="M311.575,46.939c-0.335,0.16-1.078,0.408-2.025,0.408c-2.127,0-3.512-1.443-3.512-3.6
			c0-2.172,1.485-3.761,3.789-3.761c0.758,0,1.428,0.189,1.776,0.38l-0.291,0.977c-0.307-0.16-0.787-0.336-1.485-0.336
			c-1.618,0-2.492,1.21-2.492,2.668c0,1.631,1.05,2.637,2.448,2.637c0.729,0,1.209-0.175,1.574-0.335L311.575,46.939z"/>
		<path fill="#FFFFFF" d="M318.98,45.249c0,0.743,0.015,1.384,0.058,1.938H317.9l-0.071-1.151H317.8
			c-0.319,0.567-1.077,1.312-2.332,1.312c-1.106,0-2.433-0.627-2.433-3.09v-4.123h1.281v3.891c0,1.341,0.422,2.259,1.574,2.259
			c0.859,0,1.457-0.599,1.689-1.181c0.072-0.176,0.117-0.408,0.117-0.655v-4.313h1.281v5.114H318.98z"/>
		<path fill="#FFFFFF" d="M321.824,43.894c0.029,1.734,1.121,2.448,2.42,2.448c0.918,0,1.486-0.16,1.951-0.364l0.234,0.918
			c-0.453,0.204-1.24,0.452-2.361,0.452c-2.172,0-3.469-1.442-3.469-3.57s1.254-3.788,3.309-3.788c2.316,0,2.915,2.012,2.915,3.309
			c0,0.262-0.015,0.451-0.044,0.597L321.824,43.894L321.824,43.894z M325.584,42.976c0.016-0.802-0.335-2.068-1.777-2.068
			c-1.312,0-1.865,1.181-1.968,2.068H325.584z"/>
		<path fill="#FFFFFF" d="M328.413,42.043c0-0.743-0.015-1.326-0.058-1.908h1.137l0.072,1.165h0.028
			c0.351-0.655,1.166-1.313,2.331-1.313c0.977,0,2.492,0.583,2.492,3.003v4.196h-1.282v-4.065c0-1.138-0.423-2.084-1.632-2.084
			c-0.831,0-1.486,0.598-1.721,1.312c-0.059,0.16-0.088,0.379-0.088,0.597v4.241h-1.281L328.413,42.043L328.413,42.043z"/>
		<path fill="#FFFFFF" d="M341.531,46.939c-0.336,0.16-1.078,0.408-2.025,0.408c-2.127,0-3.512-1.443-3.512-3.6
			c0-2.172,1.486-3.761,3.789-3.761c0.758,0,1.428,0.189,1.777,0.38l-0.291,0.977c-0.308-0.16-0.787-0.336-1.486-0.336
			c-1.618,0-2.492,1.21-2.492,2.668c0,1.631,1.049,2.637,2.448,2.637c0.729,0,1.209-0.175,1.573-0.335L341.531,46.939z"/>
		<path fill="#FFFFFF" d="M344.463,38.152c0,0.438-0.307,0.787-0.816,0.787c-0.465,0-0.771-0.35-0.771-0.787
			c0-0.437,0.32-0.802,0.802-0.802C344.143,37.351,344.463,37.701,344.463,38.152z M343.034,47.188v-7.053h1.282v7.053H343.034z"/>
		<path fill="#FFFFFF" d="M351.4,45.496c0,0.612,0.029,1.21,0.102,1.69h-1.15l-0.103-0.889h-0.044
			c-0.395,0.553-1.15,1.049-2.156,1.049c-1.429,0-2.156-1.006-2.156-2.024c0-1.705,1.516-2.64,4.24-2.623v-0.146
			c0-0.568-0.16-1.632-1.604-1.617c-0.67,0-1.355,0.189-1.852,0.524l-0.291-0.859c0.582-0.364,1.442-0.611,2.331-0.611
			c2.157,0,2.683,1.472,2.683,2.87V45.496L351.4,45.496z M350.161,43.588c-1.397-0.029-2.987,0.219-2.987,1.588
			c0,0.846,0.555,1.225,1.195,1.225c0.934,0,1.529-0.583,1.734-1.181c0.043-0.146,0.058-0.292,0.058-0.408V43.588L350.161,43.588z"
			/>
		<path fill="#FFFFFF" d="M16.099,54.334v8.524c0,0.626,0.029,1.341,0.058,1.82H15.02l-0.058-1.224h-0.044
			c-0.379,0.787-1.224,1.384-2.375,1.384c-1.705,0-3.031-1.441-3.031-3.584c-0.015-2.346,1.457-3.774,3.162-3.774
			c1.093,0,1.807,0.512,2.128,1.063h0.029v-4.211L16.099,54.334L16.099,54.334z M14.831,60.498c0-0.16-0.015-0.379-0.059-0.539
			c-0.189-0.802-0.889-1.474-1.851-1.474c-1.326,0-2.113,1.166-2.113,2.712c0,1.428,0.714,2.607,2.084,2.607
			c0.859,0,1.646-0.583,1.88-1.53c0.044-0.174,0.059-0.35,0.059-0.553V60.498z"/>
		<path fill="#FFFFFF" d="M18.957,61.387c0.029,1.734,1.122,2.448,2.42,2.448c0.918,0,1.486-0.16,1.952-0.364l0.233,0.918
			c-0.452,0.204-1.239,0.451-2.361,0.451c-2.171,0-3.468-1.441-3.468-3.569s1.253-3.789,3.308-3.789
			c2.317,0,2.915,2.012,2.915,3.309c0,0.263-0.015,0.452-0.044,0.598L18.957,61.387L18.957,61.387z M22.717,60.469
			c0.015-0.801-0.335-2.069-1.777-2.069c-1.312,0-1.865,1.182-1.968,2.069H22.717z"/>
		<path fill="#FFFFFF" d="M28.636,54.334h1.282V64.68h-1.282V54.334z"/>
		<path fill="#FFFFFF" d="M37.031,62.99c0,0.61,0.029,1.209,0.102,1.688h-1.151L35.88,63.79h-0.044
			c-0.394,0.555-1.151,1.049-2.156,1.049c-1.429,0-2.157-1.005-2.157-2.025c0-1.705,1.516-2.637,4.241-2.623v-0.145
			c0-0.568-0.161-1.633-1.604-1.618c-0.67,0-1.355,0.189-1.851,0.524l-0.291-0.859c0.582-0.364,1.442-0.612,2.331-0.612
			c2.157,0,2.682,1.473,2.682,2.87V62.99z M35.792,61.081c-1.398-0.029-2.987,0.218-2.987,1.589c0,0.845,0.554,1.223,1.195,1.223
			c0.933,0,1.53-0.582,1.734-1.18c0.043-0.146,0.058-0.291,0.058-0.408V61.081z"/>
		<path fill="#FFFFFF" d="M38.928,63.383c0.394,0.233,1.064,0.496,1.705,0.496c0.918,0,1.355-0.452,1.355-1.049
			c0-0.613-0.364-0.935-1.297-1.283c-1.282-0.466-1.88-1.15-1.88-1.996c0-1.137,0.933-2.069,2.434-2.069
			c0.714,0,1.341,0.189,1.72,0.438l-0.307,0.933c-0.276-0.176-0.787-0.423-1.442-0.423c-0.758,0-1.166,0.438-1.166,0.962
			c0,0.582,0.408,0.846,1.326,1.209c1.21,0.452,1.851,1.064,1.851,2.113c0,1.254-0.977,2.127-2.623,2.127
			c-0.772,0-1.486-0.203-1.981-0.494L38.928,63.383z"/>
		<path fill="#FFFFFF" d="M53.998,63.646c0,1.632-0.335,2.608-1.006,3.235c-0.699,0.627-1.69,0.845-2.579,0.845
			c-0.845,0-1.777-0.204-2.346-0.583l0.32-0.99c0.467,0.307,1.195,0.568,2.069,0.568c1.312,0,2.273-0.686,2.273-2.478v-0.772H52.7
			c-0.379,0.656-1.151,1.18-2.244,1.18c-1.749,0-3.002-1.485-3.002-3.438c0-2.39,1.56-3.73,3.191-3.73c1.224,0,1.88,0.626,2.2,1.21
			h0.029l0.044-1.063h1.137c-0.044,0.496-0.059,1.078-0.059,1.924v4.093H53.998z M52.716,60.41c0-0.22-0.015-0.408-0.073-0.568
			c-0.233-0.758-0.845-1.369-1.792-1.369c-1.225,0-2.099,1.034-2.099,2.666c0,1.385,0.714,2.536,2.084,2.536
			c0.802,0,1.516-0.495,1.777-1.313c0.073-0.219,0.103-0.467,0.103-0.686V60.41z"/>
		<path fill="#FFFFFF" d="M56.026,59.828c0-0.831-0.015-1.545-0.058-2.201h1.122l0.058,1.398h0.044
			c0.32-0.946,1.107-1.545,1.968-1.545c0.131,0,0.232,0.016,0.35,0.029v1.21c-0.132-0.029-0.263-0.029-0.438-0.029
			c-0.903,0-1.545,0.67-1.72,1.633c-0.029,0.175-0.044,0.394-0.044,0.597v3.76h-1.282V59.828z"/>
		<path fill="#FFFFFF" d="M65.675,62.99c0,0.61,0.029,1.209,0.102,1.688h-1.151l-0.102-0.889H64.48
			c-0.394,0.555-1.151,1.049-2.156,1.049c-1.429,0-2.157-1.005-2.157-2.025c0-1.705,1.516-2.637,4.241-2.623v-0.145
			c0-0.568-0.161-1.633-1.604-1.618c-0.67,0-1.355,0.189-1.851,0.524l-0.291-0.859c0.582-0.364,1.442-0.612,2.331-0.612
			c2.157,0,2.682,1.473,2.682,2.87V62.99z M64.436,61.081c-1.398-0.029-2.987,0.218-2.987,1.589c0,0.845,0.554,1.223,1.195,1.223
			c0.933,0,1.53-0.582,1.734-1.18c0.043-0.146,0.058-0.291,0.058-0.408V61.081z"/>
		<path fill="#FFFFFF" d="M68.126,57.627l1.384,3.949c0.233,0.655,0.423,1.237,0.568,1.821h0.044
			c0.16-0.584,0.364-1.166,0.598-1.821l1.369-3.949h1.341l-2.769,7.053h-1.224l-2.682-7.053H68.126z"/>
		<path fill="#FFFFFF" d="M75.209,61.387c0.029,1.734,1.122,2.448,2.42,2.448c0.918,0,1.486-0.16,1.952-0.364l0.233,0.918
			c-0.452,0.204-1.239,0.451-2.361,0.451c-2.171,0-3.468-1.441-3.468-3.569s1.253-3.789,3.308-3.789
			c2.317,0,2.915,2.012,2.915,3.309c0,0.263-0.015,0.452-0.044,0.598L75.209,61.387L75.209,61.387z M78.969,60.469
			c0.015-0.801-0.335-2.069-1.777-2.069c-1.312,0-1.865,1.182-1.968,2.069H78.969z"/>
		<path fill="#FFFFFF" d="M81.623,63.383c0.394,0.233,1.064,0.496,1.705,0.496c0.918,0,1.355-0.452,1.355-1.049
			c0-0.613-0.364-0.935-1.297-1.283c-1.282-0.466-1.88-1.15-1.88-1.996c0-1.137,0.933-2.069,2.434-2.069
			c0.714,0,1.341,0.189,1.72,0.438l-0.307,0.933c-0.276-0.176-0.787-0.423-1.442-0.423c-0.758,0-1.166,0.438-1.166,0.962
			c0,0.582,0.408,0.846,1.326,1.209c1.21,0.452,1.851,1.064,1.851,2.113c0,1.254-0.977,2.127-2.623,2.127
			c-0.772,0-1.486-0.203-1.981-0.494L81.623,63.383z"/>
		<path fill="#FFFFFF" d="M91.157,57.627l1.384,3.949c0.233,0.655,0.423,1.237,0.568,1.821h0.044
			c0.16-0.584,0.364-1.166,0.598-1.821l1.369-3.949h1.341l-2.769,7.053h-1.224l-2.682-7.053H91.157z"/>
		<path fill="#FFFFFF" d="M99.102,55.646c0,0.438-0.307,0.786-0.816,0.786c-0.466,0-0.772-0.35-0.772-0.786
			c0-0.436,0.32-0.802,0.802-0.802C98.78,54.844,99.102,55.193,99.102,55.646z M97.673,64.68v-7.053h1.282v7.053H97.673z"/>
		<path fill="#FFFFFF" d="M107.466,61.096c0,2.607-1.821,3.744-3.512,3.744c-1.895,0-3.381-1.398-3.381-3.628
			c0-2.347,1.56-3.73,3.497-3.73C106.096,57.481,107.466,58.953,107.466,61.096z M101.885,61.168c0,1.545,0.874,2.711,2.128,2.711
			c1.224,0,2.142-1.151,2.142-2.74c0-1.194-0.598-2.695-2.113-2.695C102.54,58.443,101.885,59.842,101.885,61.168z"/>
		<path fill="#FFFFFF" d="M109.087,54.334h1.282V64.68h-1.282V54.334z"/>
		<path fill="#FFFFFF" d="M117.481,62.99c0,0.61,0.029,1.209,0.102,1.688h-1.151l-0.102-0.889h-0.044
			c-0.394,0.555-1.151,1.049-2.156,1.049c-1.429,0-2.157-1.005-2.157-2.025c0-1.705,1.516-2.637,4.241-2.623v-0.145
			c0-0.568-0.161-1.633-1.604-1.618c-0.67,0-1.355,0.189-1.851,0.524l-0.291-0.859c0.582-0.364,1.442-0.612,2.331-0.612
			c2.157,0,2.682,1.473,2.682,2.87V62.99z M116.242,61.081c-1.398-0.029-2.987,0.218-2.987,1.589c0,0.845,0.554,1.223,1.195,1.223
			c0.933,0,1.53-0.582,1.734-1.18c0.043-0.146,0.058-0.291,0.058-0.408V61.081z"/>
		<path fill="#FFFFFF" d="M124.581,64.433c-0.335,0.16-1.078,0.407-2.025,0.407c-2.127,0-3.512-1.441-3.512-3.599
			c0-2.172,1.486-3.761,3.789-3.761c0.758,0,1.428,0.189,1.777,0.379l-0.291,0.978c-0.307-0.161-0.787-0.335-1.486-0.335
			c-1.618,0-2.492,1.209-2.492,2.666c0,1.633,1.049,2.638,2.448,2.638c0.729,0,1.209-0.175,1.574-0.335L124.581,64.433z"/>
		<path fill="#FFFFFF" d="M127.512,55.646c0,0.438-0.307,0.786-0.816,0.786c-0.466,0-0.772-0.35-0.772-0.786
			c0-0.436,0.32-0.802,0.802-0.802C127.19,54.844,127.512,55.193,127.512,55.646z M126.083,64.68v-7.053h1.282v7.053H126.083z"/>
		<path fill="#FFFFFF" d="M135.878,61.096c0,2.607-1.821,3.744-3.512,3.744c-1.895,0-3.381-1.398-3.381-3.628
			c0-2.347,1.56-3.73,3.497-3.73C134.508,57.481,135.878,58.953,135.878,61.096z M130.297,61.168c0,1.545,0.874,2.711,2.128,2.711
			c1.224,0,2.142-1.151,2.142-2.74c0-1.194-0.598-2.695-2.113-2.695C130.952,58.443,130.297,59.842,130.297,61.168z"/>
		<path fill="#FFFFFF" d="M137.497,59.536c0-0.743-0.015-1.326-0.058-1.909h1.137l0.072,1.166h0.029
			c0.35-0.656,1.166-1.313,2.331-1.313c0.977,0,2.492,0.583,2.492,3.002v4.196h-1.282v-4.063c0-1.138-0.423-2.084-1.632-2.084
			c-0.831,0-1.486,0.598-1.72,1.311c-0.059,0.16-0.088,0.379-0.088,0.598v4.24h-1.282L137.497,59.536L137.497,59.536z"/>
		<path fill="#FFFFFF" d="M146.303,61.387c0.029,1.734,1.122,2.448,2.42,2.448c0.918,0,1.486-0.16,1.952-0.364l0.233,0.918
			c-0.452,0.204-1.239,0.451-2.361,0.451c-2.171,0-3.468-1.441-3.468-3.569s1.253-3.789,3.308-3.789
			c2.317,0,2.915,2.012,2.915,3.309c0,0.263-0.015,0.452-0.044,0.598L146.303,61.387L146.303,61.387z M150.062,60.469
			c0.015-0.801-0.335-2.069-1.777-2.069c-1.312,0-1.865,1.182-1.968,2.069H150.062z"/>
		<path fill="#FFFFFF" d="M152.717,63.383c0.394,0.233,1.064,0.496,1.705,0.496c0.918,0,1.355-0.452,1.355-1.049
			c0-0.613-0.364-0.935-1.297-1.283c-1.282-0.466-1.88-1.15-1.88-1.996c0-1.137,0.933-2.069,2.434-2.069
			c0.714,0,1.341,0.189,1.72,0.438l-0.307,0.933c-0.276-0.176-0.787-0.423-1.442-0.423c-0.758,0-1.166,0.438-1.166,0.962
			c0,0.582,0.408,0.846,1.326,1.209c1.21,0.452,1.851,1.064,1.851,2.113c0,1.254-0.977,2.127-2.623,2.127
			c-0.772,0-1.486-0.203-1.981-0.494L152.717,63.383z"/>
		<path fill="#FFFFFF" d="M166.708,62.99c0,0.61,0.029,1.209,0.102,1.688h-1.151l-0.102-0.889h-0.044
			c-0.394,0.555-1.151,1.049-2.156,1.049c-1.429,0-2.157-1.005-2.157-2.025c0-1.705,1.516-2.637,4.241-2.623v-0.145
			c0-0.568-0.161-1.633-1.604-1.618c-0.67,0-1.355,0.189-1.851,0.524l-0.291-0.859c0.582-0.364,1.442-0.612,2.331-0.612
			c2.157,0,2.682,1.473,2.682,2.87V62.99L166.708,62.99z M165.469,61.081c-1.398-0.029-2.987,0.218-2.987,1.589
			c0,0.845,0.554,1.223,1.195,1.223c0.933,0,1.53-0.582,1.734-1.18c0.043-0.146,0.058-0.291,0.058-0.408V61.081z"/>
		<path fill="#FFFFFF" d="M171.87,54.334h1.282V64.68h-1.282V54.334z"/>
		<path fill="#FFFFFF" d="M181.691,61.096c0,2.607-1.82,3.744-3.511,3.744c-1.895,0-3.381-1.398-3.381-3.628
			c0-2.347,1.56-3.73,3.497-3.73C180.322,57.481,181.691,58.953,181.691,61.096z M176.111,61.168c0,1.545,0.874,2.711,2.128,2.711
			c1.224,0,2.142-1.151,2.142-2.74c0-1.194-0.598-2.695-2.113-2.695C176.767,58.443,176.111,59.842,176.111,61.168z"/>
		<path fill="#FFFFFF" d="M183.139,63.383c0.395,0.233,1.064,0.496,1.705,0.496c0.918,0,1.355-0.452,1.355-1.049
			c0-0.613-0.364-0.935-1.297-1.283c-1.282-0.466-1.881-1.15-1.881-1.996c0-1.137,0.934-2.069,2.435-2.069
			c0.714,0,1.341,0.189,1.72,0.438l-0.307,0.933c-0.276-0.176-0.787-0.423-1.442-0.423c-0.758,0-1.165,0.438-1.165,0.962
			c0,0.582,0.407,0.846,1.325,1.209c1.21,0.452,1.851,1.064,1.851,2.113c0,1.254-0.977,2.127-2.623,2.127
			c-0.771,0-1.485-0.203-1.98-0.494L183.139,63.383z"/>
		<path fill="#FFFFFF" d="M192.219,55.004c0.772-0.131,1.69-0.219,2.696-0.219c1.821,0,3.118,0.438,3.978,1.225
			c0.891,0.801,1.399,1.938,1.399,3.526c0,1.603-0.51,2.915-1.414,3.816c-0.933,0.918-2.448,1.414-4.356,1.414
			c-0.918,0-1.66-0.043-2.303-0.117V55.004z M193.486,63.689c0.32,0.043,0.787,0.06,1.281,0.06c2.727,0,4.184-1.517,4.184-4.168
			c0.015-2.316-1.297-3.789-3.979-3.789c-0.656,0-1.152,0.059-1.486,0.131V63.689z"/>
		<path fill="#FFFFFF" d="M201.928,55.004c0.772-0.131,1.69-0.219,2.696-0.219c1.821,0,3.118,0.438,3.978,1.225
			c0.891,0.801,1.399,1.938,1.399,3.526c0,1.603-0.51,2.915-1.414,3.816c-0.933,0.918-2.448,1.414-4.356,1.414
			c-0.918,0-1.66-0.043-2.303-0.117V55.004z M203.195,63.689c0.32,0.043,0.787,0.06,1.281,0.06c2.727,0,4.184-1.517,4.184-4.168
			c0.015-2.316-1.297-3.789-3.979-3.789c-0.656,0-1.152,0.059-1.486,0.131V63.689z"/>
		<path fill="#FFFFFF" d="M212.902,54.858v4.109h4.75v-4.109h1.283v9.821h-1.283v-4.604h-4.75v4.604h-1.282v-9.821H212.902z"/>
		<path fill="#FFFFFF" d="M222.406,54.858v4.109h4.751v-4.109h1.282v9.821h-1.282v-4.604h-4.751v4.604h-1.282v-9.821H222.406z"/>
		<path fill="#FFFFFF" d="M234.154,57.627l1.531,4.168c0.174,0.467,0.35,1.02,0.465,1.441h0.029
			c0.131-0.423,0.276-0.962,0.452-1.472l1.397-4.139h1.355l-1.924,5.026c-0.918,2.421-1.545,3.645-2.419,4.416
			c-0.642,0.539-1.253,0.759-1.574,0.816l-0.319-1.064c0.319-0.102,0.742-0.307,1.121-0.627c0.351-0.275,0.772-0.771,1.078-1.428
			c0.06-0.131,0.104-0.231,0.104-0.307c0-0.072-0.029-0.174-0.104-0.334l-2.594-6.5h1.4V57.627z"/>
		<path fill="#FFFFFF" d="M243.646,54.334h1.281V64.68h-1.281V54.334z"/>
		<path fill="#FFFFFF" d="M252.04,62.99c0,0.61,0.028,1.209,0.103,1.688h-1.151l-0.103-0.889h-0.043
			c-0.395,0.555-1.152,1.049-2.156,1.049c-1.43,0-2.157-1.005-2.157-2.025c0-1.705,1.516-2.637,4.241-2.623v-0.145
			c0-0.568-0.162-1.633-1.604-1.618c-0.67,0-1.354,0.189-1.851,0.524l-0.291-0.859c0.582-0.364,1.441-0.612,2.33-0.612
			c2.158,0,2.683,1.473,2.683,2.87V62.99L252.04,62.99z M250.801,61.081c-1.398-0.029-2.986,0.218-2.986,1.589
			c0,0.845,0.554,1.223,1.194,1.223c0.933,0,1.53-0.582,1.734-1.18c0.043-0.146,0.058-0.291,0.058-0.408V61.081z"/>
		<path fill="#FFFFFF" d="M253.938,63.383c0.395,0.233,1.064,0.496,1.705,0.496c0.918,0,1.355-0.452,1.355-1.049
			c0-0.613-0.364-0.935-1.297-1.283c-1.282-0.466-1.881-1.15-1.881-1.996c0-1.137,0.934-2.069,2.435-2.069
			c0.714,0,1.341,0.189,1.72,0.438l-0.307,0.933c-0.275-0.176-0.787-0.423-1.441-0.423c-0.759,0-1.166,0.438-1.166,0.962
			c0,0.582,0.407,0.846,1.326,1.209c1.209,0.452,1.85,1.064,1.85,2.113c0,1.254-0.977,2.127-2.622,2.127
			c-0.772,0-1.486-0.203-1.981-0.494L253.938,63.383z"/>
		<path fill="#FFFFFF" d="M264.402,55.646c0,0.438-0.307,0.786-0.816,0.786c-0.466,0-0.771-0.35-0.771-0.786
			c0-0.436,0.319-0.802,0.802-0.802C264.081,54.844,264.402,55.193,264.402,55.646z M262.975,64.68v-7.053h1.281v7.053H262.975z"/>
		<path fill="#FFFFFF" d="M266.386,59.536c0-0.743-0.015-1.326-0.058-1.909h1.137l0.072,1.166h0.029
			c0.35-0.656,1.166-1.313,2.33-1.313c0.978,0,2.492,0.583,2.492,3.002v4.196h-1.281v-4.063c0-1.138-0.424-2.084-1.633-2.084
			c-0.83,0-1.486,0.598-1.72,1.311c-0.06,0.16-0.088,0.379-0.088,0.598v4.24h-1.282L266.386,59.536L266.386,59.536z"/>
		<path fill="#FFFFFF" d="M274.607,64.68v-6.076h-0.978v-0.977h0.978v-0.335c0-0.991,0.231-1.895,0.814-2.462
			c0.48-0.468,1.122-0.656,1.721-0.656c0.467,0,0.844,0.102,1.092,0.203l-0.174,0.992c-0.189-0.088-0.438-0.16-0.816-0.16
			c-1.094,0-1.369,0.946-1.369,2.039v0.379h1.705v0.977h-1.705v6.076H274.607z"/>
		<path fill="#FFFFFF" d="M278.732,59.828c0-0.831-0.015-1.545-0.058-2.201h1.122l0.059,1.398h0.043
			c0.32-0.946,1.107-1.545,1.969-1.545c0.131,0,0.232,0.016,0.35,0.029v1.21c-0.132-0.029-0.263-0.029-0.438-0.029
			c-0.903,0-1.545,0.67-1.721,1.633c-0.028,0.175-0.043,0.394-0.043,0.597v3.76h-1.283V59.828z"/>
		<path fill="#FFFFFF" d="M288.382,62.99c0,0.61,0.029,1.209,0.103,1.688h-1.151l-0.103-0.889h-0.043
			c-0.395,0.555-1.151,1.049-2.156,1.049c-1.43,0-2.157-1.005-2.157-2.025c0-1.705,1.517-2.637,4.241-2.623v-0.145
			c0-0.568-0.161-1.633-1.604-1.618c-0.67,0-1.354,0.189-1.851,0.524l-0.291-0.859c0.582-0.364,1.441-0.612,2.331-0.612
			c2.157,0,2.682,1.473,2.682,2.87V62.99L288.382,62.99z M287.143,61.081c-1.397-0.029-2.986,0.218-2.986,1.589
			c0,0.845,0.554,1.223,1.195,1.223c0.933,0,1.529-0.582,1.733-1.18c0.043-0.146,0.058-0.291,0.058-0.408V61.081L287.143,61.081z"/>
		<path fill="#FFFFFF" d="M295.48,64.433c-0.336,0.16-1.078,0.407-2.025,0.407c-2.127,0-3.512-1.441-3.512-3.599
			c0-2.172,1.486-3.761,3.789-3.761c0.758,0,1.428,0.189,1.776,0.379l-0.29,0.978c-0.308-0.161-0.787-0.335-1.486-0.335
			c-1.618,0-2.492,1.209-2.492,2.666c0,1.633,1.049,2.638,2.447,2.638c0.729,0,1.209-0.175,1.574-0.335L295.48,64.433z"/>
		<path fill="#FFFFFF" d="M301.924,64.433c-0.335,0.16-1.078,0.407-2.025,0.407c-2.127,0-3.512-1.441-3.512-3.599
			c0-2.172,1.486-3.761,3.789-3.761c0.758,0,1.428,0.189,1.777,0.379l-0.291,0.978c-0.307-0.161-0.787-0.335-1.486-0.335
			c-1.617,0-2.492,1.209-2.492,2.666c0,1.633,1.049,2.638,2.448,2.638c0.729,0,1.209-0.175,1.574-0.335L301.924,64.433z"/>
		<path fill="#FFFFFF" d="M304.855,55.646c0,0.438-0.308,0.786-0.816,0.786c-0.466,0-0.771-0.35-0.771-0.786
			c0-0.436,0.319-0.802,0.801-0.802C304.534,54.844,304.855,55.193,304.855,55.646z M303.427,64.68v-7.053h1.282v7.053H303.427z"/>
		<path fill="#FFFFFF" d="M313.221,61.096c0,2.607-1.82,3.744-3.512,3.744c-1.895,0-3.381-1.398-3.381-3.628
			c0-2.347,1.561-3.73,3.497-3.73C311.852,57.481,313.221,58.953,313.221,61.096z M307.641,61.168c0,1.545,0.873,2.711,2.127,2.711
			c1.225,0,2.143-1.151,2.143-2.74c0-1.194-0.598-2.695-2.113-2.695C308.295,58.443,307.641,59.842,307.641,61.168z"/>
		<path fill="#FFFFFF" d="M314.841,59.536c0-0.743-0.015-1.326-0.058-1.909h1.137l0.072,1.166h0.029
			c0.35-0.656,1.166-1.313,2.33-1.313c0.978,0,2.492,0.583,2.492,3.002v4.196h-1.281v-4.063c0-1.138-0.424-2.084-1.633-2.084
			c-0.83,0-1.486,0.598-1.72,1.311c-0.06,0.16-0.088,0.379-0.088,0.598v4.24h-1.282L314.841,59.536L314.841,59.536z"/>
		<path fill="#FFFFFF" d="M323.646,61.387c0.028,1.734,1.121,2.448,2.418,2.448c0.92,0,1.487-0.16,1.953-0.364l0.233,0.918
			c-0.452,0.204-1.239,0.451-2.36,0.451c-2.172,0-3.469-1.441-3.469-3.569s1.253-3.789,3.309-3.789c2.316,0,2.914,2.012,2.914,3.309
			c0,0.263-0.015,0.452-0.043,0.598L323.646,61.387L323.646,61.387z M327.404,60.469c0.016-0.801-0.334-2.069-1.776-2.069
			c-1.312,0-1.864,1.182-1.968,2.069H327.404z"/>
		<path fill="#FFFFFF" d="M330.061,63.383c0.394,0.233,1.063,0.496,1.705,0.496c0.918,0,1.354-0.452,1.354-1.049
			c0-0.613-0.364-0.935-1.297-1.283c-1.282-0.466-1.88-1.15-1.88-1.996c0-1.137,0.933-2.069,2.434-2.069
			c0.714,0,1.341,0.189,1.721,0.438l-0.308,0.933c-0.276-0.176-0.787-0.423-1.442-0.423c-0.758,0-1.166,0.438-1.166,0.962
			c0,0.582,0.408,0.846,1.326,1.209c1.21,0.452,1.852,1.064,1.852,2.113c0,1.254-0.978,2.127-2.623,2.127
			c-0.772,0-1.486-0.203-1.981-0.494L330.061,63.383z"/>
		<path fill="#FFFFFF" d="M344.052,62.99c0,0.61,0.029,1.209,0.103,1.688h-1.151L342.9,63.79h-0.043
			c-0.395,0.555-1.151,1.049-2.156,1.049c-1.43,0-2.157-1.005-2.157-2.025c0-1.705,1.517-2.637,4.241-2.623v-0.145
			c0-0.568-0.161-1.633-1.604-1.618c-0.671,0-1.355,0.189-1.852,0.524l-0.291-0.859c0.582-0.364,1.441-0.612,2.331-0.612
			c2.157,0,2.682,1.473,2.682,2.87V62.99L344.052,62.99z M342.813,61.081c-1.398-0.029-2.987,0.218-2.987,1.589
			c0,0.845,0.554,1.223,1.194,1.223c0.934,0,1.53-0.582,1.734-1.18c0.043-0.146,0.059-0.291,0.059-0.408V61.081L342.813,61.081z"/>
		<path fill="#FFFFFF" d="M346.123,54.334h1.281V64.68h-1.281V54.334z"/>
		<path fill="#FFFFFF" d="M33.323,72.497c0.772-0.132,1.69-0.22,2.696-0.22c1.821,0,3.118,0.438,3.978,1.225
			c0.89,0.802,1.399,1.938,1.399,3.526c0,1.604-0.51,2.914-1.414,3.817c-0.933,0.918-2.448,1.413-4.356,1.413
			c-0.918,0-1.661-0.043-2.303-0.116V72.497z M34.591,81.182c0.321,0.044,0.787,0.06,1.282,0.06c2.726,0,4.183-1.517,4.183-4.168
			c0.015-2.316-1.297-3.789-3.979-3.789c-0.655,0-1.151,0.059-1.486,0.132V81.182z"/>
		<path fill="#FFFFFF" d="M44.299,72.352v9.821h-1.282v-9.821H44.299z"/>
		<path fill="#FFFFFF" d="M47.783,72.352v4.109h4.751v-4.109h1.282v9.821h-1.282v-4.604h-4.751v4.604h-1.282v-9.821H47.783z"/>
		<path fill="#FFFFFF" d="M58.891,80.876c0.394,0.232,1.064,0.495,1.705,0.495c0.918,0,1.355-0.451,1.355-1.049
			c0-0.612-0.364-0.934-1.297-1.282c-1.282-0.466-1.88-1.151-1.88-1.997c0-1.137,0.933-2.068,2.434-2.068
			c0.714,0,1.341,0.189,1.72,0.438l-0.307,0.933c-0.276-0.175-0.787-0.422-1.442-0.422c-0.758,0-1.166,0.437-1.166,0.961
			c0,0.583,0.408,0.846,1.326,1.21c1.21,0.452,1.851,1.063,1.851,2.112c0,1.254-0.977,2.128-2.623,2.128
			c-0.772,0-1.486-0.204-1.981-0.495L58.891,80.876z"/>
		<path fill="#FFFFFF" d="M70.74,80.234c0,0.744,0.015,1.386,0.058,1.938h-1.137l-0.072-1.151H69.56
			c-0.32,0.568-1.078,1.313-2.332,1.313c-1.107,0-2.433-0.626-2.433-3.089V75.12h1.282v3.891c0,1.341,0.422,2.259,1.573,2.259
			c0.86,0,1.457-0.598,1.69-1.181c0.073-0.175,0.117-0.407,0.117-0.655V75.12h1.282v5.113H70.74z"/>
		<path fill="#FFFFFF" d="M72.695,80.876c0.394,0.232,1.064,0.495,1.705,0.495c0.918,0,1.355-0.451,1.355-1.049
			c0-0.612-0.364-0.934-1.297-1.282c-1.282-0.466-1.88-1.151-1.88-1.997c0-1.137,0.933-2.068,2.434-2.068
			c0.714,0,1.341,0.189,1.72,0.438l-0.307,0.933c-0.276-0.175-0.787-0.422-1.442-0.422c-0.758,0-1.166,0.437-1.166,0.961
			c0,0.583,0.408,0.846,1.326,1.21c1.21,0.452,1.851,1.063,1.851,2.112c0,1.254-0.977,2.128-2.623,2.128
			c-0.772,0-1.486-0.204-1.981-0.495L72.695,80.876z"/>
		<path fill="#FFFFFF" d="M83.67,81.926c-0.335,0.16-1.078,0.407-2.025,0.407c-2.127,0-3.512-1.442-3.512-3.6
			c0-2.172,1.486-3.76,3.789-3.76c0.758,0,1.428,0.189,1.777,0.379l-0.291,0.978c-0.307-0.161-0.787-0.336-1.486-0.336
			c-1.618,0-2.492,1.209-2.492,2.667c0,1.632,1.049,2.638,2.448,2.638c0.729,0,1.209-0.176,1.574-0.336L83.67,81.926z"/>
		<path fill="#FFFFFF" d="M86.602,73.139c0,0.438-0.307,0.786-0.816,0.786c-0.466,0-0.772-0.35-0.772-0.786
			c0-0.438,0.32-0.803,0.802-0.803C86.28,72.336,86.602,72.687,86.602,73.139z M85.173,82.173V75.12h1.282v7.053H85.173z"/>
		<path fill="#FFFFFF" d="M90.129,73.43v1.69h1.836v0.976h-1.836V79.9c0,0.874,0.248,1.37,0.962,1.37
			c0.35,0,0.554-0.028,0.743-0.088l0.059,0.978c-0.248,0.088-0.642,0.175-1.137,0.175c-0.598,0-1.079-0.204-1.385-0.539
			c-0.35-0.395-0.495-1.021-0.495-1.852v-3.848h-1.093V75.12h1.093v-1.313L90.129,73.43z"/>
		<path fill="#FFFFFF" d="M98.364,80.482c0,0.612,0.029,1.209,0.102,1.69h-1.151l-0.102-0.889h-0.044
			c-0.394,0.554-1.151,1.049-2.156,1.049c-1.429,0-2.157-1.005-2.157-2.025c0-1.705,1.516-2.638,4.241-2.623v-0.146
			c0-0.568-0.161-1.633-1.604-1.617c-0.67,0-1.355,0.188-1.851,0.522l-0.291-0.858c0.582-0.363,1.442-0.611,2.331-0.611
			c2.157,0,2.682,1.471,2.682,2.87V80.482z M97.125,78.574c-1.398-0.029-2.987,0.218-2.987,1.588c0,0.845,0.554,1.224,1.195,1.224
			c0.933,0,1.53-0.583,1.734-1.181c0.043-0.146,0.058-0.291,0.058-0.408V78.574z"/>
		<path fill="#FFFFFF" d="M106.513,71.826v8.524c0,0.627,0.029,1.34,0.058,1.821h-1.137l-0.058-1.224h-0.044
			c-0.379,0.786-1.224,1.384-2.375,1.384c-1.705,0-3.031-1.442-3.031-3.585c-0.015-2.347,1.457-3.773,3.162-3.773
			c1.093,0,1.807,0.51,2.128,1.063h0.029v-4.212L106.513,71.826L106.513,71.826z M105.245,77.99c0-0.16-0.015-0.38-0.059-0.539
			c-0.189-0.802-0.889-1.473-1.851-1.473c-1.326,0-2.113,1.166-2.113,2.71c0,1.43,0.714,2.609,2.084,2.609
			c0.859,0,1.646-0.583,1.88-1.53c0.044-0.175,0.059-0.35,0.059-0.554V77.99z"/>
		<path fill="#FFFFFF" d="M113.612,80.482c0,0.612,0.029,1.209,0.102,1.69h-1.151l-0.102-0.889h-0.044
			c-0.394,0.554-1.151,1.049-2.156,1.049c-1.429,0-2.157-1.005-2.157-2.025c0-1.705,1.516-2.638,4.241-2.623v-0.146
			c0-0.568-0.161-1.633-1.604-1.617c-0.67,0-1.355,0.188-1.851,0.522l-0.291-0.858c0.582-0.363,1.442-0.611,2.331-0.611
			c2.157,0,2.682,1.471,2.682,2.87V80.482z M112.373,78.574c-1.398-0.029-2.987,0.218-2.987,1.588c0,0.845,0.554,1.224,1.195,1.224
			c0.933,0,1.53-0.583,1.734-1.181c0.043-0.146,0.058-0.291,0.058-0.408V78.574z"/>
		<path fill="#FFFFFF" d="M115.509,80.876c0.394,0.232,1.064,0.495,1.705,0.495c0.918,0,1.355-0.451,1.355-1.049
			c0-0.612-0.364-0.934-1.297-1.282c-1.282-0.466-1.88-1.151-1.88-1.997c0-1.137,0.933-2.068,2.434-2.068
			c0.714,0,1.341,0.189,1.72,0.438l-0.307,0.933c-0.276-0.175-0.787-0.422-1.442-0.422c-0.758,0-1.166,0.437-1.166,0.961
			c0,0.583,0.408,0.846,1.326,1.21c1.21,0.452,1.851,1.063,1.851,2.112c0,1.254-0.977,2.128-2.623,2.128
			c-0.772,0-1.486-0.204-1.981-0.495L115.509,80.876z"/>
		<path fill="#FFFFFF" d="M125.26,78.879c0.029,1.733,1.122,2.449,2.42,2.449c0.918,0,1.486-0.16,1.952-0.365l0.233,0.918
			c-0.452,0.205-1.239,0.452-2.361,0.452c-2.171,0-3.468-1.442-3.468-3.569c0-2.129,1.253-3.789,3.308-3.789
			c2.317,0,2.915,2.011,2.915,3.309c0,0.263-0.015,0.451-0.044,0.597L125.26,78.879L125.26,78.879z M129.02,77.961
			c0.015-0.801-0.335-2.068-1.777-2.068c-1.312,0-1.865,1.181-1.968,2.068H129.02z"/>
		<path fill="#FFFFFF" d="M131.849,77.029c0-0.743-0.015-1.325-0.058-1.908h1.137L133,76.285h0.029
			c0.35-0.655,1.166-1.312,2.331-1.312c0.977,0,2.492,0.582,2.492,3.002v4.196h-1.282v-4.065c0-1.137-0.423-2.084-1.632-2.084
			c-0.831,0-1.486,0.599-1.72,1.313c-0.059,0.16-0.088,0.379-0.088,0.597v4.241h-1.282L131.849,77.029L131.849,77.029z"/>
		<path fill="#FFFFFF" d="M143.743,78.879c0.029,1.733,1.122,2.449,2.419,2.449c0.919,0,1.487-0.16,1.953-0.365l0.233,0.918
			c-0.452,0.205-1.239,0.452-2.361,0.452c-2.171,0-3.468-1.442-3.468-3.569c0-2.129,1.253-3.789,3.308-3.789
			c2.317,0,2.915,2.011,2.915,3.309c0,0.263-0.015,0.451-0.044,0.597L143.743,78.879L143.743,78.879z M147.503,77.961
			c0.015-0.801-0.335-2.068-1.777-2.068c-1.312,0-1.865,1.181-1.968,2.068H147.503z"/>
		<path fill="#FFFFFF" d="M150.332,71.826h1.282v10.347h-1.282V71.826z"/>
		<path fill="#FFFFFF" d="M156.862,77.029c0-0.743-0.029-1.325-0.058-1.908h1.122l0.058,1.15h0.044
			c0.394-0.671,1.049-1.297,2.229-1.297c0.947,0,1.676,0.582,1.981,1.413h0.029c0.219-0.408,0.511-0.699,0.802-0.918
			c0.423-0.321,0.874-0.495,1.545-0.495c0.947,0,2.331,0.611,2.331,3.061v4.139h-1.253v-3.979c0-1.37-0.51-2.172-1.53-2.172
			c-0.743,0-1.297,0.539-1.53,1.151c-0.058,0.189-0.102,0.407-0.102,0.642v4.356h-1.253v-4.226c0-1.123-0.496-1.925-1.472-1.925
			c-0.787,0-1.385,0.642-1.589,1.282c-0.073,0.175-0.102,0.408-0.102,0.626v4.241h-1.254v-5.143H156.862z"/>
		<path fill="#FFFFFF" d="M173.975,80.482c0,0.612,0.029,1.209,0.102,1.69h-1.151l-0.102-0.889h-0.044
			c-0.394,0.554-1.151,1.049-2.156,1.049c-1.429,0-2.157-1.005-2.157-2.025c0-1.705,1.516-2.638,4.241-2.623v-0.146
			c0-0.568-0.161-1.633-1.604-1.617c-0.67,0-1.355,0.188-1.851,0.522l-0.291-0.858c0.582-0.363,1.442-0.611,2.331-0.611
			c2.157,0,2.682,1.471,2.682,2.87V80.482L173.975,80.482z M172.735,78.574c-1.398-0.029-2.987,0.218-2.987,1.588
			c0,0.845,0.554,1.224,1.195,1.224c0.933,0,1.53-0.583,1.734-1.181c0.043-0.146,0.058-0.291,0.058-0.408V78.574z"/>
		<path fill="#FFFFFF" d="M176.046,77.32c0-0.829-0.015-1.545-0.058-2.199h1.122l0.058,1.398h0.044
			c0.32-0.946,1.107-1.545,1.968-1.545c0.13,0,0.232,0.015,0.349,0.029v1.209c-0.131-0.029-0.262-0.029-0.438-0.029
			c-0.903,0-1.545,0.67-1.72,1.633c-0.029,0.175-0.044,0.394-0.044,0.598v3.76h-1.282V77.32z"/>
		<path fill="#FFFFFF" d="M185.693,81.926c-0.334,0.16-1.077,0.407-2.024,0.407c-2.127,0-3.512-1.442-3.512-3.6
			c0-2.172,1.485-3.76,3.788-3.76c0.759,0,1.429,0.189,1.777,0.379l-0.291,0.978c-0.307-0.161-0.787-0.336-1.486-0.336
			c-1.617,0-2.491,1.209-2.491,2.667c0,1.632,1.049,2.638,2.448,2.638c0.729,0,1.209-0.176,1.574-0.336L185.693,81.926z"/>
		<path fill="#FFFFFF" d="M193.492,78.588c0,2.607-1.821,3.745-3.512,3.745c-1.896,0-3.381-1.399-3.381-3.628
			c0-2.348,1.56-3.73,3.496-3.73C192.122,74.975,193.492,76.445,193.492,78.588z M187.911,78.661c0,1.544,0.874,2.71,2.128,2.71
			c1.225,0,2.143-1.15,2.143-2.739c0-1.194-0.599-2.696-2.113-2.696C188.566,75.936,187.911,77.335,187.911,78.661z"/>
		<path fill="#FFFFFF" d="M204.279,71.826v8.524c0,0.627,0.029,1.34,0.058,1.821h-1.136l-0.059-1.224h-0.045
			c-0.379,0.786-1.224,1.384-2.375,1.384c-1.705,0-3.031-1.442-3.031-3.585c-0.015-2.347,1.457-3.773,3.162-3.773
			c1.094,0,1.808,0.51,2.129,1.063h0.029v-4.212L204.279,71.826L204.279,71.826z M203.012,77.99c0-0.16-0.015-0.38-0.059-0.539
			c-0.189-0.802-0.889-1.473-1.852-1.473c-1.326,0-2.113,1.166-2.113,2.71c0,1.43,0.715,2.609,2.084,2.609
			c0.859,0,1.646-0.583,1.881-1.53c0.044-0.175,0.059-0.35,0.059-0.554V77.99z"/>
		<path fill="#FFFFFF" d="M207.139,78.879c0.028,1.733,1.121,2.449,2.418,2.449c0.92,0,1.487-0.16,1.953-0.365l0.233,0.918
			c-0.452,0.205-1.239,0.452-2.361,0.452c-2.171,0-3.468-1.442-3.468-3.569c0-2.129,1.253-3.789,3.309-3.789
			c2.316,0,2.914,2.011,2.914,3.309c0,0.263-0.015,0.451-0.044,0.597L207.139,78.879L207.139,78.879z M210.896,77.961
			c0.016-0.801-0.334-2.068-1.776-2.068c-1.312,0-1.865,1.181-1.968,2.068H210.896z"/>
		<path fill="#FFFFFF" d="M213.727,71.826h1.282v10.347h-1.282V71.826z"/>
		<path fill="#FFFFFF" d="M225.284,81.926c-0.335,0.16-1.078,0.407-2.025,0.407c-2.127,0-3.512-1.442-3.512-3.6
			c0-2.172,1.485-3.76,3.789-3.76c0.758,0,1.428,0.189,1.776,0.379l-0.291,0.978c-0.307-0.161-0.787-0.336-1.485-0.336
			c-1.618,0-2.492,1.209-2.492,2.667c0,1.632,1.049,2.638,2.448,2.638c0.729,0,1.209-0.176,1.574-0.336L225.284,81.926z"/>
		<path fill="#FFFFFF" d="M233.083,78.588c0,2.607-1.821,3.745-3.513,3.745c-1.895,0-3.381-1.399-3.381-3.628
			c0-2.348,1.561-3.73,3.498-3.73C231.713,74.975,233.083,76.445,233.083,78.588z M227.502,78.661c0,1.544,0.874,2.71,2.128,2.71
			c1.224,0,2.142-1.15,2.142-2.739c0-1.194-0.598-2.696-2.112-2.696C228.157,75.936,227.502,77.335,227.502,78.661z"/>
		<path fill="#FFFFFF" d="M234.703,77.029c0-0.743-0.016-1.325-0.059-1.908h1.138l0.071,1.165h0.029
			c0.35-0.655,1.166-1.312,2.331-1.312c0.978,0,2.492,0.582,2.492,3.002v4.196h-1.282v-4.065c0-1.137-0.423-2.084-1.632-2.084
			c-0.831,0-1.485,0.599-1.72,1.313c-0.059,0.16-0.088,0.379-0.088,0.597v4.241h-1.282L234.703,77.029L234.703,77.029z"/>
		<path fill="#FFFFFF" d="M242.926,82.173v-6.077h-0.977V75.12h0.977v-0.307c0-0.99,0.336-1.864,0.99-2.434
			c0.555-0.467,1.282-0.715,2.273-0.715c0.815,0,1.574,0.176,2.112,0.467v10.04h-1.282v-9.326c-0.219-0.116-0.554-0.188-1.049-0.188
			c-1.326,0-1.777,0.977-1.777,2.099v0.364h1.646v0.976h-1.646v6.077H242.926z"/>
		<path fill="#FFFFFF" d="M251.848,73.139c0,0.438-0.308,0.786-0.816,0.786c-0.467,0-0.772-0.35-0.772-0.786
			c0-0.438,0.32-0.803,0.802-0.803C251.525,72.336,251.848,72.687,251.848,73.139z M250.418,82.173V75.12h1.282v7.053H250.418z"/>
		<path fill="#FFFFFF" d="M258.855,81.926c-0.334,0.16-1.078,0.407-2.024,0.407c-2.127,0-3.513-1.442-3.513-3.6
			c0-2.172,1.486-3.76,3.789-3.76c0.759,0,1.429,0.189,1.777,0.379l-0.291,0.978c-0.307-0.161-0.787-0.336-1.486-0.336
			c-1.617,0-2.491,1.209-2.491,2.667c0,1.632,1.049,2.638,2.448,2.638c0.729,0,1.209-0.176,1.574-0.336L258.855,81.926z"/>
		<path fill="#FFFFFF" d="M262.094,73.43v1.69h1.836v0.976h-1.836V79.9c0,0.874,0.248,1.37,0.963,1.37
			c0.35,0,0.553-0.028,0.742-0.088l0.059,0.978c-0.248,0.088-0.642,0.175-1.137,0.175c-0.598,0-1.078-0.204-1.385-0.539
			c-0.35-0.395-0.495-1.021-0.495-1.852v-3.848h-1.093V75.12h1.093v-1.313L262.094,73.43z"/>
		<path fill="#FFFFFF" d="M271.669,78.588c0,2.607-1.821,3.745-3.512,3.745c-1.896,0-3.382-1.399-3.382-3.628
			c0-2.348,1.561-3.73,3.498-3.73C270.299,74.975,271.669,76.445,271.669,78.588z M266.088,78.661c0,1.544,0.874,2.71,2.128,2.71
			c1.224,0,2.142-1.15,2.142-2.739c0-1.194-0.598-2.696-2.112-2.696C266.743,75.936,266.088,77.335,266.088,78.661z"/>
		<path fill="#FFFFFF" d="M281.334,80.482c0,0.612,0.029,1.209,0.102,1.69h-1.15l-0.102-0.889h-0.045
			c-0.394,0.554-1.15,1.049-2.156,1.049c-1.428,0-2.156-1.005-2.156-2.025c0-1.705,1.516-2.638,4.24-2.623v-0.146
			c0-0.568-0.16-1.633-1.604-1.617c-0.67,0-1.355,0.188-1.852,0.522l-0.291-0.858c0.582-0.363,1.443-0.611,2.332-0.611
			c2.156,0,2.682,1.471,2.682,2.87V80.482L281.334,80.482z M280.096,78.574c-1.398-0.029-2.988,0.218-2.988,1.588
			c0,0.845,0.555,1.224,1.195,1.224c0.934,0,1.53-0.583,1.734-1.181c0.043-0.146,0.059-0.291,0.059-0.408V78.574L280.096,78.574z"/>
		<path fill="#FFFFFF" d="M283.404,77.32c0-0.829-0.014-1.545-0.057-2.199h1.121l0.059,1.398h0.043
			c0.32-0.946,1.107-1.545,1.969-1.545c0.131,0,0.232,0.015,0.35,0.029v1.209c-0.132-0.029-0.263-0.029-0.438-0.029
			c-0.903,0-1.545,0.67-1.721,1.633c-0.028,0.175-0.043,0.394-0.043,0.598v3.76h-1.283V77.32z"/>
		<path fill="#FFFFFF" d="M288.23,77.029c0-0.743-0.029-1.325-0.059-1.908h1.122l0.058,1.15h0.045
			c0.394-0.671,1.049-1.297,2.229-1.297c0.947,0,1.676,0.582,1.98,1.413h0.029c0.219-0.408,0.512-0.699,0.803-0.918
			c0.422-0.321,0.873-0.495,1.545-0.495c0.947,0,2.33,0.611,2.33,3.061v4.139h-1.252v-3.979c0-1.37-0.511-2.172-1.53-2.172
			c-0.743,0-1.298,0.539-1.53,1.151c-0.059,0.189-0.102,0.407-0.102,0.642v4.356h-1.254v-4.226c0-1.123-0.496-1.925-1.472-1.925
			c-0.786,0-1.385,0.642-1.589,1.282c-0.072,0.175-0.102,0.408-0.102,0.626v4.241h-1.254v-5.143H288.23z"/>
		<path fill="#FFFFFF" d="M305.343,80.482c0,0.612,0.029,1.209,0.103,1.69h-1.151l-0.103-0.889h-0.043
			c-0.395,0.554-1.151,1.049-2.156,1.049c-1.43,0-2.157-1.005-2.157-2.025c0-1.705,1.517-2.638,4.241-2.623v-0.146
			c0-0.568-0.161-1.633-1.604-1.617c-0.671,0-1.355,0.188-1.852,0.522l-0.291-0.858c0.582-0.363,1.441-0.611,2.331-0.611
			c2.157,0,2.682,1.471,2.682,2.87V80.482L305.343,80.482z M304.104,78.574c-1.397-0.029-2.986,0.218-2.986,1.588
			c0,0.845,0.554,1.224,1.195,1.224c0.933,0,1.529-0.583,1.733-1.181c0.043-0.146,0.058-0.291,0.058-0.408V78.574L304.104,78.574z"
			/>
		<path fill="#FFFFFF" d="M313.491,71.826v8.524c0,0.627,0.028,1.34,0.058,1.821h-1.137l-0.059-1.224h-0.043
			c-0.379,0.786-1.225,1.384-2.375,1.384c-1.705,0-3.031-1.442-3.031-3.585c-0.016-2.347,1.457-3.773,3.162-3.773
			c1.093,0,1.807,0.51,2.127,1.063h0.029v-4.212L313.491,71.826L313.491,71.826z M312.225,77.99c0-0.16-0.016-0.38-0.06-0.539
			c-0.188-0.802-0.89-1.473-1.851-1.473c-1.326,0-2.113,1.166-2.113,2.71c0,1.43,0.714,2.609,2.084,2.609
			c0.859,0,1.646-0.583,1.88-1.53c0.044-0.175,0.06-0.35,0.06-0.554V77.99z"/>
		<path fill="#FFFFFF" d="M322.02,78.588c0,2.607-1.821,3.745-3.513,3.745c-1.896,0-3.381-1.399-3.381-3.628
			c0-2.348,1.56-3.73,3.497-3.73C320.648,74.975,322.02,76.445,322.02,78.588z M316.438,78.661c0,1.544,0.875,2.71,2.129,2.71
			c1.224,0,2.142-1.15,2.142-2.739c0-1.194-0.599-2.696-2.113-2.696C317.093,75.936,316.438,77.335,316.438,78.661z"/>
		<path fill="#FFFFFF" d="M322.982,81.415c0-0.524,0.365-0.918,0.875-0.918c0.511,0,0.859,0.379,0.859,0.918
			c0,0.523-0.35,0.918-0.89,0.918C323.333,82.333,322.982,81.939,322.982,81.415z"/>
	</g>
</g>
</svg>
