<?xml version="1.0" encoding="utf-8"?>
<!-- Generator: Adobe Illustrator 16.0.0, SVG Export Plug-In . SVG Version: 6.00 Build 0)  -->
<!DOCTYPE svg PUBLIC "-//W3C//DTD SVG 1.1//EN" "http://www.w3.org/Graphics/SVG/1.1/DTD/svg11.dtd">
<svg version="1.1" id="Capa_1" xmlns="http://www.w3.org/2000/svg" xmlns:xlink="http://www.w3.org/1999/xlink" x="0px" y="0px"
	 width="502.337px" height="129.571px" viewBox="0 0 502.337 129.571" enable-background="new 0 0 502.337 129.571"
	 xml:space="preserve">
<g>
	<path fill="#81AD38" d="M108.707,104.103c0.047-3.716,0.04-13.234,0.033-17.135c-0.007-1.603-0.007-3.231-0.007-4.887v-3.443
		l-3.443-0.192c-0.669-0.04-1.312-0.08-1.927-0.125c-1.417-0.094-2.755-0.187-4.152-0.187c-0.741,0-1.457-0.047-2.191-0.14
		c-0.02,0-0.034-0.007-0.053-0.007c-3.597-0.47-6.385-2.059-8.299-4.707c-0.211-0.299-0.41-0.603-0.596-0.921l241.36-5.88
		l171.524-6.256l1.381,32.227L108.707,104.103z"/>
	<g>
		<path fill-rule="evenodd" clip-rule="evenodd" fill="#2B1C48" d="M105.001,26.661c-0.022-0.064-0.045-0.125-0.066-0.186
			c-0.119-0.29-0.272-0.524-0.458-0.732c0,0-0.012-0.006-0.017-0.017c-0.59-0.618-1.53-0.896-2.919-0.869
			c-6.421,0.114-12.843,0.034-19.269,0.022c-0.393,0-0.77-0.005-1.115-0.022h-0.005c-3.743-0.147-4.05-1.104-2.585-5.185
			c2.918-8.144-1.273-16.608-9.389-18.985c-1.17-0.345-2.328-0.552-3.47-0.64c-2.29-0.175-4.492,0.137-6.503,0.842
			c-6.689,2.351-11.242,9.049-9.607,16.629c1.596,7.395,1.596,7.378-6.34,7.339c-5.83-0.026-11.655-0.006-17.279-0.006V49.34
			c-0.47,2.372-1.973,2.754-5.158,1.656c-7.81-2.689-15.646,0.115-19.139,6.837c-2.847,5.479-2.021,12.48,2.012,17.093
			c3.924,4.486,10.913,6.203,16.732,4.1c3.443-1.246,4.925-1.214,5.482,0.869c-0.006,0-0.012-0.006-0.018-0.006V104.3
			c0.438,0.07,0.863,0.202,1.291,0.202h0.262c6.552,0.045,13.115,0.027,19.668,0.12c1.055,0.017,1.836,0.115,2.393,0.338
			c1.34,0.532,1.367,1.771,0.793,4.209c-0.705,3.028-1.35,6.433-0.666,9.35c1.737,7.427,8.574,11.695,16.045,10.974
			c1.268-0.12,2.558-0.389,3.847-0.808c8.104-2.646,11.743-10.864,8.569-19.353c-1.324-3.557-0.787-4.372,3.021-4.372
			c0.471,0,0.902-0.136,1.301-0.36c1.252,0,2.486,0,3.715,0.006h2.924c0.754,0.008,1.504,0.008,2.246,0h0.82
			c0.623,0,1.246,0,1.869-0.006c0.322,0,0.645,0,0.967-0.005c0.596,0,1.187-0.006,1.782-0.011c0.322,0,0.649,0,0.973-0.006
			c0.623-0.006,1.246-0.011,1.863-0.021c0.284-0.007,0.573-0.007,0.858-0.011c0.606-0.007,1.212-0.018,1.819-0.034
			c0.296,0,0.585-0.011,0.88-0.017c0.662-0.01,1.847-1.475,1.869-2.279c0.152-6.519,0.087-13.049,0.087-20.136
			c-2.164-0.121-4.017-0.301-5.88-0.308c-0.924,0-1.803-0.06-2.65-0.169c-10.99-1.405-15.428-11.378-13.623-20.532
			c1.393-7.086,7.47-12.569,14.312-13.301c1.323-0.143,2.673-0.104,4.022,0.133c2.382,0.408,3.775-0.089,3.923-2.537v-1.021
			c-0.011-5.246-0.011-10.488,0.065-15.734C105.275,27.837,105.192,27.186,105.001,26.661z"/>
		<g>
			<g>
				<path fill="#FFFFFF" d="M32.428,84.771h10.336c3.184,0,4.776,1.953,4.776,5.86v0.309c-0.279,3.271-1.613,4.963-4.003,5.075
					c-4.773,0-8.535,0.065-11.288,0.196v-3.729c1.575,0.094,3.425,0.14,5.55,0.14c1.491,0,3.122-0.022,4.891-0.069
					c1.296-0.019,1.944-0.646,1.944-1.879c0.007,0,0.011-0.005,0.011-0.014c0-1.225-0.829-1.837-2.488-1.837l-9.636,0.07
					L32.428,84.771z"/>
				<path fill="#FFFFFF" d="M36.744,80.956l1.704-0.141c-0.906-0.393-1.366-1.425-1.379-3.098v-0.057
					c0-1.645,0.48-2.767,1.442-3.365c0.655-0.411,2.188-0.616,4.599-0.616c1.185,0,2.585,0.051,4.202,0.154v3.393
					c-2.153-0.121-3.822-0.183-5.006-0.183c-0.592,0-1.066,0.015-1.421,0.043c-1.045,0.093-1.568,0.542-1.568,1.346
					s0.279,1.309,0.836,1.514l7.577-0.14l0.021,3.295c-3.205,0-6.804,0.145-10.796,0.435L36.744,80.956z"/>
				<path fill="#FFFFFF" d="M34.612,68.591c0.425,0,0.788,0.201,1.087,0.603c0.299,0.402,0.449,0.889,0.449,1.458
					c0,0.562-0.15,1.043-0.449,1.444c-0.3,0.402-0.662,0.603-1.087,0.603c-0.418,0-0.776-0.2-1.076-0.603
					c-0.3-0.401-0.45-0.883-0.45-1.444c0-0.569,0.15-1.056,0.45-1.458C33.835,68.792,34.194,68.591,34.612,68.591z M47.802,72.348
					c-4.076,0.066-7.598,0.099-10.566,0.099l-0.157-3.533c2.843,0.112,5.668,0.168,8.476,0.168c0.752,0,1.501-0.004,2.247-0.014
					V72.348z"/>
				<path fill="#FFFFFF" d="M32.961,57.22c2.355,0.056,4.825,0.084,7.41,0.084c2.355,0,4.808-0.023,7.358-0.07l0.01,3.323
					l-1.599,0.112c0.773,0.691,1.16,1.612,1.16,2.762c0,2.869-1.637,4.305-4.912,4.305c-0.069,0-0.139-0.005-0.209-0.015
					c-3.282-0.056-4.922-1.477-4.922-4.262c0-0.112,0.003-0.229,0.01-0.351c0.042-0.953,0.429-1.725,1.16-2.313
					c-1.547,0-3.369,0.052-5.466,0.154V57.22z M43.998,60.725l-3.616,0.07c-0.55,0.542-0.826,1.099-0.826,1.668
					c0,0.234,0.045,0.468,0.136,0.701c0.286,0.738,1.087,1.107,2.404,1.107c0.153,0,0.31-0.004,0.47-0.014
					c1.596-0.094,2.439-0.57,2.529-1.43c0.007-0.085,0.01-0.169,0.01-0.253C45.105,61.828,44.736,61.211,43.998,60.725z"/>
				<path fill="#FFFFFF" d="M36.713,50.687c0.125-3.075,1.278-4.613,3.459-4.613h7.42l0.042,3.267l-0.993,0.112
					c0.571,0.673,0.857,1.565,0.857,2.678c0,0.477-0.056,0.991-0.167,1.543c-0.307,1.654-1.261,2.481-2.864,2.481
					c-0.195,0-0.404-0.015-0.627-0.042c-1.651-0.188-2.477-1.762-2.477-4.726c0-0.569,0.031-1.196,0.094-1.878h-1.212
					c-0.982,0-1.474,0.416-1.474,1.247v0.057c-0.007,0.065-0.01,0.126-0.01,0.182c0,0.907,0.55,1.36,1.651,1.36h0.157l-0.209,3.337
					c-2.432,0-3.647-1.57-3.647-4.711V50.687z M44.969,49.509H43.13c-0.062,0.401-0.094,0.767-0.094,1.093
					c0,0.851,0.213,1.431,0.638,1.739c0.258,0.187,0.498,0.28,0.721,0.28c0.279,0,0.526-0.149,0.742-0.449
					c0.167-0.233,0.25-0.537,0.25-0.911C45.387,50.784,45.248,50.2,44.969,49.509z"/>
				<path fill="#FFFFFF" d="M32.961,34.353c2.355,0.056,4.825,0.084,7.41,0.084c2.355,0,4.808-0.023,7.358-0.07l0.01,3.323
					l-1.599,0.112c0.773,0.691,1.16,1.612,1.16,2.762c0,2.869-1.637,4.305-4.912,4.305c-0.069,0-0.139-0.005-0.209-0.015
					c-3.282-0.056-4.922-1.477-4.922-4.262c0-0.112,0.003-0.229,0.01-0.351c0.042-0.953,0.429-1.725,1.16-2.313
					c-1.547,0-3.369,0.052-5.466,0.154V34.353z M43.998,37.857l-3.616,0.07c-0.55,0.542-0.826,1.099-0.826,1.668
					c0,0.234,0.045,0.468,0.136,0.701c0.286,0.738,1.087,1.107,2.404,1.107c0.153,0,0.31-0.004,0.47-0.014
					c1.596-0.094,2.439-0.57,2.529-1.43c0.007-0.085,0.01-0.169,0.01-0.253C45.105,38.961,44.736,38.344,43.998,37.857z"/>
			</g>
		</g>
		<g>
			<g>
				<path fill="#FFFFFF" d="M69.808,52.924c-0.121,6.046-0.181,12.06-0.181,18.041c0,2.997,0.017,5.987,0.052,8.972l-6.392,0.25
					c-0.12-7.698-0.267-14.825-0.438-21.384c-1.443,0.218-3.402,0.756-5.876,1.614l-1.237-4.208l7.165-3.381L69.808,52.924z"/>
			</g>
		</g>
	</g>
	<path fill="#6D8D35" d="M501.308,68.939L96.966,77.987c-3.597-0.47-6.385-2.059-8.299-4.707c-0.211-0.299-0.41-0.603-0.596-0.921
		c-1.723-2.94-2.311-6.808-1.562-10.582c1.066-5.444,5.748-9.809,11.125-10.385c1.001-0.105,2.014-0.072,3.02,0.1
		c0.709,0.119,1.346,0.179,1.94,0.179c3.616,0,6.007-2.331,6.231-6.085l0.008-1.247V27.788l389.188-8.744l3.041,44.05
		L501.308,68.939z"/>
	<g>
		<g>
			<path fill="#FFFFFF" d="M111.894,47.326c0.004-1.626-0.019-3.285-0.067-4.981c-0.074-2.604-0.209-5.3-0.404-8.085
				c1.411-0.188,2.659-0.298,3.743-0.329c1.705-0.048,2.993,0.1,3.865,0.446c1.349,0.536,2.048,1.692,2.099,3.47l0.009,0.305
				c-0.028,1.952-0.583,3.217-1.668,3.795c-1.085,0.577-2.435,0.907-4.048,0.99c-0.003,0.191-0.001,0.389,0.005,0.593
				c0.029,1.024,0.134,2.234,0.314,3.632L111.894,47.326z M114.761,36.313l0.216,4.523c1.538-0.105,2.428-0.541,2.671-1.308
				c0.114-0.35,0.166-0.706,0.156-1.07c-0.012-0.425-0.107-0.86-0.286-1.306c-0.267-0.654-0.897-0.967-1.89-0.938
				C115.363,36.223,115.074,36.255,114.761,36.313z"/>
			<path fill="#FFFFFF" d="M126.716,37.669c2.814-0.08,4.263,1.336,4.346,4.248c0.003,0.117,0.002,0.234-0.002,0.352
				c-0.026,3.155-1.479,4.791-4.358,4.903c-0.033,0.008-0.066,0.012-0.099,0.013c-2.74,0.078-4.152-1.373-4.237-4.353l-0.008-0.26
				C122.35,39.387,123.803,37.752,126.716,37.669z M126.367,39.791c-0.518,0.15-0.86,0.662-1.025,1.538
				c-0.101,0.521-0.144,1.045-0.129,1.568c0.01,0.353,0.045,0.706,0.105,1.063c0.158,0.885,0.597,1.331,1.318,1.341l0.087-0.002
				c0.67-0.02,1.121-0.361,1.35-1.028c0.191-0.556,0.276-1.209,0.255-1.962c-0.005-0.185-0.015-0.373-0.029-0.564
				c-0.095-0.992-0.311-1.605-0.648-1.844c-0.211-0.142-0.462-0.208-0.751-0.2C126.732,39.706,126.556,39.735,126.367,39.791z"/>
			<path fill="#FFFFFF" d="M135.375,46.777l-3.085,0.301c-0.025-2.044-0.064-4.009-0.118-5.897c-0.076-2.652-0.18-5.153-0.313-7.503
				l3.041-0.124c0.01,1.514,0.037,3.065,0.083,4.656C135.06,40.956,135.191,43.812,135.375,46.777z"/>
			<path fill="#FFFFFF" d="M136.598,46.945c-0.161-3.607-0.278-6.726-0.354-9.354l3.125-0.228c-0.028,2.521-0.006,5.022,0.065,7.509
				c0.019,0.667,0.042,1.33,0.069,1.99L136.598,46.945z M136.274,35.589c0.944-0.884,1.715-1.725,2.313-2.52l2.071,1.145
				c-0.859,0.668-1.813,1.482-2.863,2.444L136.274,35.589z"/>
			<path fill="#FFFFFF" d="M142.325,34.27l2.814-0.22l0.087,3.064l2.37-0.114l0.087,1.747l-2.407,0.152l0.12,4.211
				c0.028,0.981,0.601,1.456,1.718,1.425c0.231-0.007,0.484-0.035,0.756-0.087l-0.054,2.039c-0.396,0.049-0.772,0.078-1.128,0.088
				c-2.616,0.074-3.977-0.894-4.084-2.903l-0.129-4.525l-2.033,0.15l-0.109-2.062l2.086-0.04L142.325,34.27z"/>
			<path fill="#FFFFFF" d="M152.083,34.815c0.011,0.376-0.159,0.702-0.507,0.978s-0.775,0.42-1.279,0.435
				c-0.497,0.015-0.927-0.106-1.29-0.361c-0.364-0.255-0.551-0.571-0.562-0.947c-0.011-0.37,0.158-0.692,0.507-0.968
				c0.348-0.276,0.771-0.421,1.268-0.436c0.504-0.015,0.939,0.106,1.302,0.362C151.885,34.133,152.072,34.445,152.083,34.815z
				 M149.088,46.59c-0.161-3.607-0.278-6.726-0.354-9.354l3.125-0.229c-0.028,2.521-0.006,5.023,0.065,7.51
				c0.019,0.667,0.042,1.33,0.069,1.989L149.088,46.59z"/>
			<path fill="#FFFFFF" d="M158.065,42.472l2.959,0.055c0.063,2.228-1.283,3.396-4.038,3.505c-0.033,0.007-0.062,0.012-0.087,0.013
				c-2.624,0.074-3.978-1.373-4.062-4.34l-0.008-0.277c-0.008-3.188,1.345-4.834,4.059-4.942l0.099-0.003
				c2.5-0.071,3.78,0.961,3.841,3.096c0.003,0.123,0.002,0.246-0.002,0.37l-2.665,0.225l-0.006-0.223
				c-0.032-1.122-0.475-1.672-1.327-1.647c-0.869,0.024-1.278,0.948-1.226,2.768l0.009,0.306c0.106,1.967,0.573,2.938,1.4,2.914
				l0.075-0.002c0.719-0.063,1.067-0.484,1.045-1.262C158.126,42.858,158.104,42.674,158.065,42.472z"/>
			<path fill="#FFFFFF" d="M166.687,36.261c2.727,0.034,4.117,1.016,4.172,2.946l0.187,6.572l-2.891,0.12l-0.125-0.877
				c-0.582,0.522-1.365,0.798-2.35,0.826c-0.422,0.012-0.878-0.024-1.37-0.108c-1.473-0.23-2.229-1.055-2.27-2.474
				c-0.005-0.173,0.002-0.359,0.021-0.557c0.125-1.467,1.499-2.238,4.122-2.312c0.505-0.015,1.06-0.002,1.667,0.035l-0.03-1.073
				c-0.025-0.87-0.406-1.294-1.142-1.273l-0.05,0.002c-0.059-0.005-0.112-0.007-0.162-0.006c-0.803,0.023-1.19,0.523-1.163,1.497
				l0.004,0.14l-2.959-0.102c-0.062-2.153,1.298-3.27,4.079-3.349L166.687,36.261z M167.938,43.543l-0.046-1.63
				c-0.358-0.046-0.681-0.063-0.971-0.056c-0.753,0.021-1.261,0.225-1.523,0.608c-0.159,0.233-0.236,0.448-0.23,0.646
				c0.007,0.246,0.146,0.463,0.416,0.646c0.211,0.142,0.482,0.208,0.813,0.198C166.818,43.945,167.332,43.808,167.938,43.543z"/>
			<path fill="#FFFFFF" d="M176.854,49.448c-0.009-2.08-0.047-4.293-0.114-6.638c-0.061-2.135-0.146-4.374-0.253-6.717L179.427,36
				l0.14,1.422c0.593-0.708,1.398-1.076,2.417-1.104c2.541-0.073,3.854,1.386,3.939,4.379l0.005,0.185
				c0.027,3-1.196,4.536-3.671,4.606c-0.099,0.003-0.199,0.003-0.298,0c-0.845-0.008-1.537-0.331-2.078-0.97
				c0.039,1.37,0.131,2.981,0.274,4.837L176.854,49.448z M179.671,39.317l0.162,3.479c0.494,0.474,0.985,0.704,1.474,0.689
				c0.199-0.006,0.396-0.054,0.592-0.146c0.598-0.265,0.878-1.011,0.843-2.238c-0.004-0.148-0.013-0.301-0.026-0.462
				c-0.125-1.504-0.549-2.284-1.272-2.345c-0.074-0.004-0.145-0.005-0.211-0.003C180.604,38.31,180.083,38.652,179.671,39.317z"/>
			<path fill="#FFFFFF" d="M193.484,45.279l-0.167-1.506c-0.325,0.812-1.249,1.243-2.771,1.293c-0.016,0.007-0.028,0.01-0.037,0.01
				c-1.507,0.043-2.519-0.435-3.035-1.433c-0.351-0.663-0.556-2.05-0.616-4.16c-0.031-1.085-0.022-2.367,0.027-3.844l3.017-0.086
				c-0.106,2.077-0.144,3.674-0.111,4.791c0.016,0.562,0.049,0.999,0.099,1.312c0.152,0.96,0.583,1.43,1.295,1.409
				s1.151-0.283,1.319-0.788l-0.307-6.42l2.917-0.102c0.076,2.653,0.292,5.74,0.649,9.263L193.484,45.279z M189.604,33.802
				c0.944-0.885,1.715-1.726,2.314-2.52l2.07,1.144c-0.859,0.668-1.814,1.481-2.863,2.444L189.604,33.802z"/>
			<path fill="#FFFFFF" d="M199.803,31.991c-0.038,1.86-0.037,3.476,0.002,4.845c0.422-0.598,0.971-0.957,1.647-1.073
				c0.115-0.011,0.227-0.017,0.334-0.02c2.698-0.077,4.118,1.337,4.259,4.241l0.004,0.166c0.083,2.912-1.312,4.409-4.184,4.491
				c-0.687,0.02-1.346-0.305-1.979-0.972l-0.059,1.419l-2.942,0.074c-0.023-2.259-0.064-4.431-0.124-6.518
				c-0.065-2.289-0.152-4.476-0.262-6.56L199.803,31.991z M199.854,38.566l0.029,3.204c0.449,0.643,1.004,0.954,1.667,0.935
				c0.075-0.002,0.149-0.007,0.223-0.015c0.759-0.102,1.16-0.877,1.201-2.322c0.003-0.148,0.004-0.29,0-0.426
				c-0.034-1.186-0.376-1.882-1.029-2.092c-0.201-0.062-0.396-0.092-0.586-0.086C200.837,37.779,200.336,38.048,199.854,38.566z"/>
			<path fill="#FFFFFF" d="M210.65,44.633l-3.085,0.301c-0.025-2.044-0.064-4.009-0.118-5.897c-0.076-2.652-0.18-5.154-0.313-7.504
				l3.041-0.123c0.01,1.514,0.037,3.065,0.083,4.656C210.335,38.812,210.466,41.668,210.65,44.633z"/>
			<path fill="#FFFFFF" d="M214.868,33.026c0.011,0.376-0.159,0.702-0.506,0.978c-0.349,0.275-0.775,0.421-1.28,0.435
				c-0.497,0.015-0.927-0.106-1.29-0.361c-0.364-0.255-0.551-0.571-0.562-0.947c-0.011-0.37,0.158-0.692,0.507-0.968
				c0.349-0.276,0.771-0.421,1.268-0.436c0.504-0.014,0.939,0.106,1.302,0.362C214.67,32.344,214.857,32.656,214.868,33.026z
				 M211.873,44.801c-0.161-3.607-0.278-6.726-0.354-9.354l3.125-0.228c-0.028,2.52-0.006,5.022,0.065,7.509
				c0.019,0.667,0.042,1.33,0.069,1.989L211.873,44.801z"/>
			<path fill="#FFFFFF" d="M220.851,40.683l2.959,0.055c0.063,2.228-1.283,3.396-4.038,3.506c-0.033,0.006-0.062,0.011-0.086,0.012
				c-2.624,0.075-3.978-1.373-4.062-4.34l-0.008-0.277c-0.008-3.188,1.346-4.833,4.059-4.942l0.099-0.002
				c2.5-0.071,3.78,0.96,3.841,3.095c0.003,0.123,0.002,0.246-0.002,0.371l-2.665,0.224l-0.006-0.223
				c-0.032-1.122-0.474-1.672-1.327-1.647c-0.869,0.024-1.277,0.948-1.226,2.768l0.009,0.306c0.105,1.967,0.572,2.938,1.399,2.914
				l0.075-0.002c0.719-0.063,1.067-0.483,1.045-1.261C220.912,41.07,220.89,40.885,220.851,40.683z"/>
			<path fill="#FFFFFF" d="M229.472,34.473c2.727,0.033,4.117,1.015,4.172,2.945l0.187,6.572l-2.892,0.12l-0.125-0.877
				c-0.581,0.522-1.365,0.798-2.35,0.826c-0.422,0.012-0.878-0.023-1.37-0.108c-1.473-0.229-2.229-1.055-2.27-2.474
				c-0.005-0.173,0.002-0.358,0.021-0.557c0.125-1.467,1.499-2.238,4.123-2.312c0.504-0.015,1.06-0.002,1.666,0.035l-0.03-1.073
				c-0.025-0.87-0.405-1.294-1.142-1.273l-0.05,0.002c-0.059-0.004-0.112-0.007-0.162-0.005c-0.803,0.022-1.19,0.522-1.163,1.496
				l0.004,0.14l-2.959-0.102c-0.062-2.153,1.298-3.27,4.079-3.349L229.472,34.473z M230.723,41.754l-0.046-1.63
				c-0.357-0.045-0.681-0.063-0.971-0.056c-0.753,0.021-1.261,0.225-1.523,0.608c-0.159,0.233-0.235,0.449-0.23,0.647
				c0.007,0.246,0.145,0.462,0.416,0.646c0.211,0.142,0.482,0.208,0.814,0.198C229.604,42.156,230.117,42.019,230.723,41.754z"/>
			<path fill="#FFFFFF" d="M239.639,47.659c-0.009-2.08-0.047-4.293-0.114-6.638c-0.061-2.135-0.146-4.373-0.253-6.717l2.941-0.094
				l0.14,1.422c0.593-0.708,1.398-1.076,2.417-1.104c2.541-0.072,3.854,1.387,3.939,4.38l0.005,0.185
				c0.027,2.999-1.196,4.535-3.671,4.605c-0.099,0.003-0.199,0.003-0.298,0c-0.845-0.007-1.537-0.33-2.078-0.97
				c0.039,1.37,0.131,2.982,0.274,4.837L239.639,47.659z M242.456,37.529l0.162,3.479c0.494,0.474,0.985,0.704,1.474,0.689
				c0.199-0.005,0.396-0.054,0.592-0.146c0.598-0.265,0.879-1.01,0.844-2.237c-0.004-0.148-0.013-0.302-0.026-0.463
				c-0.125-1.504-0.55-2.284-1.272-2.345c-0.075-0.004-0.145-0.005-0.211-0.003C243.389,36.521,242.868,36.863,242.456,37.529z"/>
			<path fill="#FFFFFF" d="M254.352,33.764c2.727,0.033,4.117,1.016,4.172,2.946l0.187,6.572l-2.892,0.119l-0.125-0.877
				c-0.581,0.522-1.365,0.798-2.35,0.826c-0.422,0.012-0.878-0.023-1.37-0.108c-1.473-0.229-2.229-1.055-2.27-2.474
				c-0.005-0.173,0.002-0.358,0.021-0.557c0.125-1.467,1.498-2.238,4.122-2.312c0.505-0.015,1.06-0.002,1.666,0.035l-0.03-1.073
				c-0.025-0.87-0.405-1.294-1.142-1.272l-0.05,0.001c-0.059-0.004-0.112-0.007-0.162-0.005c-0.803,0.022-1.19,0.522-1.163,1.496
				l0.004,0.14l-2.959-0.102c-0.062-2.153,1.298-3.27,4.079-3.349L254.352,33.764z M255.604,41.045l-0.046-1.63
				c-0.358-0.045-0.681-0.063-0.971-0.055c-0.753,0.021-1.261,0.225-1.523,0.607c-0.159,0.233-0.235,0.449-0.23,0.647
				c0.007,0.246,0.146,0.462,0.416,0.646c0.211,0.142,0.482,0.208,0.814,0.199C254.484,41.447,254.998,41.31,255.604,41.045z"/>
			<path fill="#FFFFFF" d="M262.822,36.661l0.315,6.708l-3.041,0.104c-0.081-2.839-0.3-6.021-0.658-9.549l2.279-0.251l0.167,1.505
				c0.327-0.751,1.125-1.195,2.397-1.337c0.19-0.018,0.372-0.029,0.545-0.034c1.002-0.028,1.77,0.193,2.306,0.666
				c0.621,0.562,0.953,1.477,0.998,2.741l-2.75,0.281c0.005-0.104,0.007-0.206,0.004-0.306c-0.028-0.986-0.386-1.471-1.073-1.451
				l-0.05,0.001C263.469,35.795,262.989,36.102,262.822,36.661z"/>
			<path fill="#FFFFFF" d="M273.658,33.213c2.727,0.034,4.117,1.016,4.172,2.946l0.187,6.572l-2.892,0.12l-0.125-0.877
				c-0.581,0.522-1.365,0.798-2.35,0.826c-0.422,0.012-0.878-0.024-1.37-0.108c-1.473-0.23-2.229-1.055-2.27-2.474
				c-0.005-0.173,0.002-0.359,0.021-0.557c0.125-1.467,1.499-2.238,4.122-2.312c0.505-0.015,1.061-0.002,1.667,0.035l-0.03-1.073
				c-0.025-0.87-0.406-1.294-1.142-1.273l-0.05,0.002c-0.059-0.005-0.112-0.007-0.162-0.006c-0.803,0.023-1.19,0.523-1.163,1.497
				l0.004,0.14l-2.959-0.102c-0.062-2.153,1.298-3.27,4.079-3.349L273.658,33.213z M274.91,40.495l-0.046-1.63
				c-0.358-0.046-0.681-0.063-0.971-0.056c-0.753,0.021-1.261,0.225-1.523,0.608c-0.159,0.233-0.236,0.448-0.23,0.646
				c0.007,0.246,0.146,0.463,0.416,0.646c0.211,0.142,0.482,0.208,0.813,0.198C273.79,40.897,274.304,40.76,274.91,40.495z"/>
			<path fill="#FFFFFF" d="M287.13,42.453l-3.085,0.302c-0.025-2.044-0.064-4.01-0.118-5.898c-0.076-2.652-0.18-5.153-0.312-7.503
				l3.041-0.124c0.01,1.514,0.037,3.066,0.083,4.657C286.815,36.633,286.946,39.488,287.13,42.453z"/>
			<path fill="#FFFFFF" d="M292.729,32.67c2.727,0.034,4.117,1.016,4.172,2.946l0.187,6.572l-2.892,0.119l-0.125-0.877
				c-0.581,0.523-1.365,0.799-2.35,0.826c-0.422,0.013-0.878-0.023-1.37-0.108c-1.473-0.229-2.229-1.055-2.27-2.474
				c-0.005-0.173,0.002-0.358,0.021-0.557c0.125-1.467,1.499-2.237,4.122-2.312c0.505-0.015,1.061-0.002,1.667,0.036l-0.03-1.073
				c-0.025-0.87-0.406-1.295-1.142-1.273l-0.05,0.001c-0.059-0.004-0.112-0.006-0.162-0.005c-0.803,0.022-1.19,0.522-1.163,1.496
				l0.004,0.14l-2.959-0.102c-0.062-2.153,1.298-3.269,4.079-3.348L292.729,32.67z M293.98,39.952l-0.046-1.63
				c-0.358-0.046-0.681-0.064-0.971-0.056c-0.753,0.021-1.261,0.225-1.523,0.608c-0.159,0.233-0.236,0.448-0.23,0.646
				c0.007,0.246,0.146,0.462,0.416,0.646c0.211,0.142,0.482,0.209,0.813,0.199C292.86,40.354,293.374,40.217,293.98,39.952z"/>
			<path fill="#FFFFFF" d="M302.896,45.857c-0.009-2.081-0.047-4.294-0.114-6.639c-0.061-2.135-0.146-4.373-0.253-6.717l2.941-0.094
				l0.14,1.423c0.593-0.708,1.398-1.076,2.417-1.105c2.541-0.072,3.854,1.387,3.939,4.38l0.005,0.185
				c0.027,3-1.196,4.536-3.671,4.606c-0.099,0.003-0.199,0.003-0.298,0c-0.845-0.008-1.537-0.331-2.078-0.971
				c0.039,1.37,0.131,2.982,0.274,4.837L302.896,45.857z M305.713,35.727l0.162,3.479c0.494,0.474,0.985,0.704,1.474,0.69
				c0.199-0.006,0.396-0.055,0.592-0.146c0.598-0.265,0.879-1.011,0.844-2.238c-0.004-0.148-0.013-0.302-0.026-0.463
				c-0.125-1.503-0.55-2.283-1.272-2.344c-0.075-0.004-0.145-0.005-0.211-0.003C306.646,34.719,306.125,35.062,305.713,35.727z"/>
			<path fill="#FFFFFF" d="M316.196,35.141l0.315,6.707l-3.041,0.105c-0.081-2.839-0.3-6.021-0.658-9.55l2.279-0.25l0.167,1.505
				c0.327-0.751,1.125-1.196,2.397-1.337c0.19-0.018,0.372-0.029,0.546-0.034c1.001-0.028,1.77,0.193,2.306,0.665
				c0.621,0.563,0.953,1.478,0.997,2.742l-2.75,0.281c0.005-0.104,0.007-0.206,0.004-0.306c-0.028-0.986-0.386-1.471-1.073-1.451
				l-0.05,0.001C316.843,34.273,316.363,34.581,316.196,35.141z"/>
			<path fill="#FFFFFF" d="M326.271,31.983c2.872-0.082,4.348,1.299,4.429,4.144c0.01,0.346,0,0.717-0.03,1.111l-5.549,0.158
				c0.045,1.587,0.477,2.367,1.296,2.344l0.087-0.003c0.719-0.063,1.067-0.483,1.045-1.261c-0.005-0.167-0.027-0.352-0.066-0.555
				l2.954-0.13c0.067,2.351-1.277,3.581-4.032,3.69c-0.033,0.008-0.062,0.011-0.087,0.012c-2.624,0.075-3.978-1.372-4.062-4.339
				l-0.008-0.278C322.239,33.691,323.581,32.06,326.271,31.983z M324.773,35.702l2.806-0.079l-0.006-0.223
				c-0.032-1.122-0.475-1.672-1.327-1.647C325.328,33.779,324.837,34.43,324.773,35.702z"/>
			<path fill="#FFFFFF" d="M334.083,41.031c-1.145-3.542-2.167-6.582-3.067-9.119l3.013-0.206l1.719,6.686
				c0.723-2.54,1.291-4.854,1.703-6.94l2.976,0.193c-0.862,2.612-1.863,5.697-3.004,9.256L334.083,41.031z"/>
			<path fill="#FFFFFF" d="M344.919,31.452c2.872-0.082,4.349,1.299,4.43,4.144c0.01,0.346,0,0.717-0.03,1.111l-5.55,0.158
				c0.045,1.587,0.477,2.367,1.296,2.344l0.087-0.003c0.719-0.063,1.067-0.483,1.045-1.261c-0.005-0.167-0.027-0.352-0.066-0.555
				l2.954-0.13c0.067,2.351-1.277,3.581-4.033,3.69c-0.033,0.008-0.062,0.011-0.087,0.012c-2.624,0.075-3.978-1.372-4.062-4.339
				l-0.008-0.278C340.888,33.16,342.229,31.528,344.919,31.452z M343.421,35.171l2.806-0.08l-0.006-0.223
				c-0.032-1.121-0.475-1.671-1.327-1.646C343.976,33.248,343.485,33.897,343.421,35.171z"/>
			<path fill="#FFFFFF" d="M352.436,30.996l0.167,1.505c0.325-0.812,1.228-1.244,2.708-1.3l0.05-0.001
				c1.457-0.041,2.462,0.356,3.017,1.192c0.381,0.569,0.601,1.922,0.662,4.056c0.03,1.05,0.02,2.29-0.03,3.726l-3.005,0.086
				c0.054-1.909,0.065-3.39,0.035-4.438c-0.015-0.524-0.039-0.944-0.073-1.258c-0.109-0.922-0.52-1.374-1.231-1.354
				c-0.712,0.021-1.152,0.28-1.32,0.777l0.315,6.707l-2.917,0.103c-0.081-2.838-0.299-6.022-0.657-9.55L352.436,30.996z"/>
			<path fill="#FFFFFF" d="M365.157,36.571l2.959,0.055c0.063,2.228-1.283,3.396-4.038,3.505c-0.033,0.007-0.062,0.012-0.087,0.013
				c-2.624,0.074-3.978-1.373-4.062-4.34l-0.008-0.277c-0.008-3.188,1.345-4.834,4.059-4.942l0.099-0.003
				c2.5-0.071,3.78,0.961,3.841,3.096c0.003,0.123,0.002,0.246-0.002,0.37l-2.665,0.225l-0.006-0.223
				c-0.032-1.122-0.475-1.672-1.327-1.647c-0.869,0.024-1.278,0.948-1.226,2.768l0.009,0.306c0.106,1.967,0.573,2.938,1.4,2.914
				l0.075-0.002c0.719-0.063,1.067-0.484,1.045-1.262C365.218,36.958,365.196,36.773,365.157,36.571z"/>
			<path fill="#FFFFFF" d="M372.396,28.538c0.011,0.376-0.159,0.702-0.507,0.978s-0.775,0.421-1.279,0.435
				c-0.497,0.015-0.927-0.106-1.29-0.361c-0.364-0.255-0.551-0.571-0.562-0.947c-0.011-0.37,0.158-0.692,0.507-0.968
				c0.348-0.276,0.771-0.421,1.268-0.436c0.504-0.014,0.939,0.106,1.302,0.362C372.198,27.855,372.385,28.168,372.396,28.538z
				 M369.401,40.312c-0.161-3.607-0.278-6.726-0.354-9.354l3.125-0.228c-0.028,2.52-0.006,5.022,0.065,7.509
				c0.019,0.667,0.042,1.33,0.069,1.99L369.401,40.312z"/>
			<path fill="#FFFFFF" d="M377.509,30.523c2.814-0.08,4.263,1.336,4.346,4.248c0.003,0.117,0.002,0.234-0.002,0.352
				c-0.026,3.155-1.479,4.791-4.358,4.903c-0.033,0.008-0.066,0.012-0.099,0.013c-2.74,0.078-4.151-1.373-4.236-4.353l-0.007-0.26
				C373.143,32.241,374.596,30.606,377.509,30.523z M375.844,28.764c0.944-0.884,1.715-1.726,2.313-2.521l2.07,1.146
				c-0.859,0.668-1.813,1.481-2.863,2.443L375.844,28.764z M377.16,32.646c-0.517,0.15-0.859,0.662-1.025,1.538
				c-0.101,0.521-0.144,1.045-0.129,1.568c0.01,0.353,0.045,0.706,0.105,1.063c0.158,0.885,0.598,1.331,1.318,1.341l0.087-0.002
				c0.67-0.02,1.121-0.361,1.35-1.028c0.191-0.556,0.276-1.209,0.255-1.962c-0.005-0.185-0.015-0.373-0.029-0.564
				c-0.095-0.992-0.311-1.605-0.649-1.844c-0.211-0.142-0.462-0.208-0.751-0.2C377.526,32.561,377.349,32.59,377.16,32.646z"/>
			<path fill="#FFFFFF" d="M384.691,30.077l0.167,1.505c0.325-0.812,1.228-1.244,2.709-1.3l0.05-0.001
				c1.456-0.042,2.461,0.355,3.016,1.192c0.38,0.569,0.601,1.922,0.662,4.056c0.03,1.05,0.02,2.29-0.031,3.726l-3.004,0.086
				c0.054-1.909,0.065-3.39,0.035-4.438c-0.015-0.524-0.039-0.944-0.073-1.258c-0.109-0.923-0.52-1.374-1.231-1.354
				c-0.712,0.021-1.152,0.28-1.32,0.777l0.315,6.707l-2.917,0.102c-0.081-2.838-0.3-6.021-0.657-9.549L384.691,30.077z"/>
			<path fill="#FFFFFF" d="M392.477,40.804c0.914-0.224,1.437-0.618,1.57-1.184c-0.642-0.142-1.065-0.321-1.271-0.538
				s-0.312-0.464-0.32-0.741c-0.008-0.277,0.064-0.526,0.216-0.743c0.151-0.217,0.372-0.386,0.663-0.504
				c0.291-0.12,0.58-0.187,0.87-0.202h0.025c0.273-0.008,0.539,0.021,0.797,0.088c0.259,0.073,0.472,0.188,0.638,0.344
				c0.166,0.154,0.284,0.323,0.355,0.503c0.072,0.181,0.115,0.396,0.131,0.65l0.001,0.036c0.007,0.247-0.031,0.52-0.114,0.819
				c-0.082,0.317-0.23,0.62-0.445,0.91c-0.216,0.29-0.533,0.57-0.952,0.838c-0.419,0.269-1.05,0.439-1.893,0.513L392.477,40.804z"/>
			<path fill="#FFFFFF" d="M401.984,43.034c-0.01-2.081-0.048-4.293-0.115-6.638c-0.061-2.135-0.146-4.374-0.253-6.718l2.942-0.094
				l0.14,1.423c0.593-0.708,1.398-1.076,2.417-1.105c2.541-0.072,3.854,1.387,3.939,4.38l0.005,0.185
				c0.027,3-1.196,4.536-3.671,4.606c-0.099,0.003-0.199,0.003-0.298,0c-0.845-0.008-1.538-0.331-2.078-0.971
				c0.039,1.37,0.131,2.982,0.274,4.837L401.984,43.034z M404.802,32.903l0.162,3.479c0.493,0.474,0.985,0.704,1.474,0.69
				c0.198-0.006,0.396-0.055,0.592-0.146c0.598-0.265,0.878-1.011,0.843-2.238c-0.004-0.148-0.013-0.302-0.026-0.463
				c-0.125-1.503-0.549-2.283-1.272-2.344c-0.075-0.004-0.145-0.005-0.211-0.003C405.734,31.896,405.214,32.238,404.802,32.903z"/>
			<path fill="#FFFFFF" d="M415.285,32.317l0.315,6.707l-3.041,0.105c-0.081-2.839-0.3-6.021-0.658-9.55l2.279-0.25l0.167,1.505
				c0.327-0.751,1.125-1.196,2.397-1.337c0.19-0.018,0.372-0.029,0.545-0.034c1.001-0.028,1.77,0.193,2.306,0.666
				c0.621,0.562,0.954,1.477,0.998,2.741l-2.75,0.281c0.005-0.104,0.007-0.206,0.004-0.306c-0.028-0.986-0.386-1.471-1.073-1.451
				l-0.05,0.001C415.931,31.451,415.451,31.758,415.285,32.317z"/>
			<path fill="#FFFFFF" d="M425.694,29.15c2.814-0.08,4.263,1.336,4.346,4.248c0.003,0.117,0.002,0.234-0.002,0.352
				c-0.026,3.156-1.479,4.791-4.358,4.903c-0.033,0.008-0.066,0.012-0.099,0.013c-2.74,0.078-4.152-1.373-4.237-4.353l-0.007-0.26
				C421.328,30.868,422.781,29.233,425.694,29.15z M425.345,31.272c-0.518,0.15-0.86,0.663-1.025,1.538
				c-0.101,0.521-0.144,1.045-0.129,1.568c0.01,0.353,0.045,0.706,0.105,1.063c0.157,0.885,0.597,1.332,1.318,1.342l0.086-0.003
				c0.671-0.019,1.121-0.361,1.35-1.028c0.191-0.556,0.276-1.209,0.255-1.962c-0.005-0.185-0.015-0.373-0.029-0.564
				c-0.095-0.992-0.311-1.605-0.648-1.843c-0.211-0.142-0.462-0.209-0.751-0.201C425.71,31.188,425.533,31.217,425.345,31.272z"/>
			<path fill="#FFFFFF" d="M432.588,25.999l2.814-0.22l0.087,3.064l2.37-0.114l0.087,1.748l-2.407,0.151l0.12,4.211
				c0.028,0.981,0.601,1.457,1.718,1.425c0.231-0.006,0.483-0.035,0.755-0.087l-0.054,2.039c-0.396,0.049-0.772,0.078-1.128,0.088
				c-2.616,0.075-3.977-0.893-4.084-2.903l-0.129-4.525l-2.033,0.15l-0.109-2.062l2.086-0.041L432.588,25.999z"/>
			<path fill="#FFFFFF" d="M442.964,28.658c2.872-0.082,4.348,1.299,4.429,4.144c0.01,0.346,0,0.717-0.03,1.111l-5.549,0.158
				c0.045,1.587,0.477,2.367,1.296,2.344l0.087-0.002c0.719-0.063,1.067-0.484,1.045-1.262c-0.005-0.167-0.027-0.351-0.066-0.554
				l2.954-0.131c0.067,2.351-1.277,3.582-4.032,3.69c-0.033,0.008-0.062,0.012-0.087,0.013c-2.624,0.074-3.978-1.373-4.062-4.34
				l-0.008-0.278C438.933,30.366,440.274,28.735,442.964,28.658z M441.467,32.378l2.806-0.08l-0.006-0.223
				c-0.032-1.122-0.475-1.672-1.327-1.647C442.021,30.454,441.53,31.104,441.467,32.378z"/>
			<path fill="#FFFFFF" d="M453.443,34.056l2.959,0.055c0.063,2.228-1.283,3.396-4.038,3.506c-0.033,0.006-0.062,0.011-0.087,0.012
				c-2.624,0.075-3.978-1.373-4.063-4.34l-0.008-0.277c-0.008-3.188,1.346-4.833,4.06-4.942l0.099-0.002
				c2.5-0.071,3.78,0.96,3.841,3.095c0.003,0.123,0.002,0.246-0.002,0.371l-2.665,0.224l-0.006-0.223
				c-0.032-1.122-0.475-1.672-1.327-1.647c-0.869,0.024-1.278,0.948-1.226,2.768l0.009,0.306c0.106,1.967,0.573,2.938,1.4,2.914
				l0.075-0.002c0.719-0.063,1.067-0.483,1.045-1.261C453.504,34.443,453.482,34.258,453.443,34.056z"/>
			<path fill="#FFFFFF" d="M462.506,33.798l2.959,0.054c0.063,2.228-1.283,3.396-4.038,3.506c-0.033,0.007-0.062,0.012-0.086,0.013
				c-2.624,0.074-3.978-1.374-4.063-4.341l-0.008-0.277c-0.008-3.187,1.346-4.833,4.059-4.941l0.099-0.003
				c2.5-0.071,3.78,0.961,3.841,3.096c0.003,0.123,0.002,0.246-0.002,0.37l-2.665,0.225l-0.006-0.223
				c-0.032-1.122-0.474-1.673-1.327-1.648c-0.869,0.025-1.277,0.948-1.226,2.768l0.009,0.306c0.105,1.968,0.572,2.938,1.399,2.915
				l0.075-0.002c0.719-0.063,1.067-0.484,1.045-1.262C462.567,34.185,462.545,34,462.506,33.798z"/>
			<path fill="#FFFFFF" d="M469.746,25.765c0.011,0.376-0.159,0.702-0.506,0.978c-0.349,0.275-0.775,0.421-1.28,0.435
				c-0.497,0.015-0.927-0.106-1.29-0.361c-0.364-0.255-0.551-0.571-0.562-0.947c-0.011-0.37,0.158-0.692,0.507-0.968
				c0.349-0.276,0.771-0.421,1.268-0.436c0.504-0.015,0.939,0.106,1.302,0.362C469.548,25.082,469.735,25.395,469.746,25.765z
				 M466.751,37.539c-0.161-3.607-0.278-6.726-0.354-9.354l3.125-0.229c-0.027,2.521-0.005,5.023,0.065,7.51
				c0.019,0.667,0.042,1.33,0.069,1.989L466.751,37.539z"/>
			<path fill="#FFFFFF" d="M474.859,27.75c2.814-0.081,4.263,1.335,4.346,4.247c0.003,0.117,0.002,0.235-0.002,0.353
				c-0.026,3.155-1.479,4.791-4.358,4.903c-0.033,0.008-0.066,0.012-0.099,0.013c-2.739,0.078-4.151-1.373-4.236-4.353l-0.008-0.26
				C470.493,29.467,471.946,27.833,474.859,27.75z M473.194,25.99c0.944-0.885,1.715-1.726,2.313-2.521l2.071,1.146
				c-0.859,0.667-1.814,1.481-2.863,2.443L473.194,25.99z M474.51,29.872c-0.517,0.15-0.859,0.662-1.025,1.538
				c-0.101,0.521-0.144,1.045-0.129,1.568c0.01,0.353,0.045,0.706,0.105,1.063c0.158,0.885,0.598,1.331,1.318,1.341l0.087-0.002
				c0.671-0.02,1.121-0.361,1.35-1.028c0.191-0.557,0.276-1.21,0.255-1.963c-0.005-0.185-0.015-0.372-0.029-0.563
				c-0.095-0.992-0.311-1.605-0.649-1.844c-0.211-0.142-0.461-0.209-0.751-0.2C474.876,29.787,474.699,29.816,474.51,29.872z"/>
			<path fill="#FFFFFF" d="M482.042,27.304l0.167,1.505c0.325-0.812,1.228-1.245,2.709-1.3l0.049-0.001
				c1.457-0.042,2.462,0.355,3.017,1.192c0.381,0.569,0.602,1.922,0.663,4.056c0.03,1.05,0.02,2.29-0.031,3.726l-3.005,0.085
				c0.054-1.909,0.065-3.389,0.035-4.438c-0.015-0.524-0.039-0.944-0.073-1.258c-0.109-0.923-0.52-1.374-1.231-1.354
				c-0.712,0.02-1.152,0.279-1.32,0.777l0.315,6.707l-2.917,0.102c-0.081-2.838-0.3-6.021-0.657-9.55L482.042,27.304z"/>
			<path fill="#FFFFFF" d="M489.827,38.03c0.914-0.224,1.436-0.619,1.569-1.184c-0.642-0.142-1.065-0.321-1.271-0.538
				c-0.205-0.218-0.311-0.465-0.319-0.742c-0.008-0.277,0.064-0.525,0.215-0.743c0.151-0.216,0.372-0.385,0.663-0.503
				c0.291-0.12,0.58-0.187,0.87-0.202l0.025-0.001c0.273-0.008,0.539,0.022,0.797,0.089c0.259,0.073,0.472,0.188,0.638,0.344
				c0.166,0.154,0.285,0.323,0.356,0.503c0.072,0.181,0.115,0.396,0.131,0.65l0.001,0.036c0.007,0.247-0.031,0.52-0.114,0.819
				c-0.082,0.316-0.23,0.62-0.446,0.909c-0.216,0.291-0.533,0.57-0.952,0.839c-0.419,0.268-1.05,0.439-1.893,0.513L489.827,38.03z"
				/>
			<path fill="#FFFFFF" d="M137.826,61.705c2.726,0.033,4.117,1.017,4.171,2.947l0.188,6.571l-2.892,0.119l-0.125-0.876
				c-0.582,0.522-1.365,0.797-2.35,0.825c-0.422,0.013-0.879-0.023-1.37-0.108c-1.473-0.229-2.229-1.054-2.27-2.473
				c-0.005-0.173,0.003-0.358,0.021-0.557c0.125-1.468,1.498-2.237,4.122-2.312c0.505-0.015,1.06-0.002,1.667,0.035l-0.031-1.073
				c-0.024-0.871-0.406-1.294-1.142-1.272l-0.05,0.001c-0.058-0.004-0.112-0.007-0.162-0.005c-0.803,0.022-1.19,0.521-1.163,1.496
				l0.004,0.14l-2.96-0.102c-0.061-2.153,1.299-3.27,4.08-3.35L137.826,61.705z M139.077,68.986l-0.046-1.629
				c-0.358-0.045-0.682-0.063-0.971-0.055c-0.753,0.021-1.261,0.225-1.523,0.608c-0.159,0.232-0.236,0.448-0.23,0.646
				c0.007,0.245,0.146,0.461,0.416,0.645c0.211,0.142,0.482,0.208,0.813,0.199C137.958,69.389,138.471,69.251,139.077,68.986z"/>
			<path fill="#FFFFFF" d="M144.901,58.818l2.814-0.22l0.087,3.063l2.37-0.114l0.087,1.749l-2.406,0.151l0.12,4.211
				c0.028,0.98,0.601,1.456,1.718,1.424c0.231-0.007,0.483-0.035,0.755-0.087l-0.054,2.039c-0.396,0.049-0.772,0.078-1.128,0.088
				c-2.616,0.075-3.977-0.893-4.083-2.902l-0.129-4.526l-2.034,0.15l-0.108-2.062l2.087-0.041L144.901,58.818z"/>
			<path fill="#FFFFFF" d="M155.277,61.477c2.872-0.082,4.348,1.3,4.429,4.145c0.01,0.345,0,0.716-0.03,1.111l-5.549,0.158
				c0.045,1.586,0.478,2.367,1.297,2.344l0.087-0.002c0.718-0.063,1.067-0.485,1.045-1.262c-0.005-0.167-0.026-0.351-0.065-0.554
				l2.954-0.131c0.067,2.351-1.277,3.581-4.033,3.689c-0.033,0.008-0.062,0.012-0.086,0.012c-2.624,0.075-3.979-1.371-4.063-4.339
				l-0.008-0.278C151.246,63.186,152.587,61.553,155.277,61.477z M153.78,65.197l2.806-0.08l-0.006-0.223
				c-0.032-1.123-0.475-1.672-1.327-1.647C154.335,63.273,153.844,63.923,153.78,65.197z"/>
			<path fill="#FFFFFF" d="M162.794,61.021l0.167,1.507c0.325-0.812,1.228-1.246,2.709-1.301l0.05-0.002
				c1.457-0.041,2.462,0.357,3.017,1.193c0.38,0.569,0.601,1.922,0.662,4.056c0.03,1.05,0.02,2.291-0.031,3.725l-3.004,0.086
				c0.054-1.909,0.065-3.389,0.036-4.438c-0.015-0.523-0.039-0.942-0.073-1.257c-0.109-0.923-0.52-1.375-1.231-1.354
				c-0.712,0.021-1.152,0.28-1.32,0.778l0.316,6.707l-2.917,0.102c-0.081-2.838-0.3-6.021-0.657-9.55L162.794,61.021z"/>
			<path fill="#FFFFFF" d="M175.515,66.597l2.959,0.055c0.063,2.228-1.283,3.395-4.039,3.505c-0.033,0.007-0.062,0.011-0.086,0.012
				c-2.624,0.075-3.978-1.372-4.062-4.34l-0.008-0.277c-0.009-3.186,1.345-4.833,4.059-4.941l0.1-0.003
				c2.5-0.071,3.78,0.961,3.841,3.096c0.004,0.123,0.003,0.246-0.002,0.371l-2.665,0.225l-0.006-0.223
				c-0.032-1.123-0.475-1.673-1.327-1.648c-0.869,0.024-1.278,0.947-1.226,2.768l0.008,0.305c0.106,1.968,0.573,2.939,1.4,2.916
				l0.075-0.003c0.718-0.064,1.067-0.484,1.045-1.261C175.576,66.984,175.554,66.799,175.515,66.597z"/>
			<path fill="#FFFFFF" d="M182.754,58.563c0.011,0.377-0.158,0.703-0.507,0.978c-0.348,0.276-0.774,0.421-1.279,0.436
				c-0.497,0.014-0.927-0.106-1.291-0.362c-0.363-0.255-0.55-0.57-0.561-0.947c-0.01-0.37,0.158-0.693,0.507-0.968
				c0.348-0.275,0.771-0.421,1.267-0.435c0.505-0.015,0.939,0.105,1.303,0.361C182.557,57.881,182.744,58.193,182.754,58.563z
				 M179.76,70.338c-0.161-3.607-0.279-6.726-0.354-9.354l3.125-0.228c-0.028,2.521-0.006,5.023,0.065,7.51
				c0.019,0.667,0.042,1.33,0.069,1.989L179.76,70.338z"/>
			<path fill="#FFFFFF" d="M187.868,60.548c2.814-0.08,4.263,1.337,4.346,4.248c0.003,0.117,0.002,0.234-0.002,0.352
				c-0.026,3.157-1.479,4.791-4.359,4.903c-0.033,0.008-0.066,0.012-0.099,0.013c-2.74,0.078-4.152-1.372-4.237-4.353l-0.007-0.26
				C183.501,62.267,184.954,60.631,187.868,60.548z M186.203,58.789c0.944-0.885,1.715-1.725,2.314-2.52l2.07,1.145
				c-0.858,0.667-1.813,1.481-2.862,2.444L186.203,58.789z M187.519,62.67c-0.518,0.15-0.859,0.664-1.025,1.539
				c-0.101,0.522-0.145,1.044-0.129,1.568c0.01,0.353,0.045,0.707,0.105,1.063c0.158,0.884,0.597,1.332,1.318,1.342l0.087-0.003
				c0.67-0.019,1.121-0.362,1.351-1.028c0.19-0.556,0.276-1.209,0.254-1.963c-0.005-0.185-0.015-0.373-0.029-0.563
				c-0.095-0.992-0.311-1.606-0.649-1.844c-0.211-0.142-0.462-0.209-0.751-0.2C187.884,62.585,187.708,62.615,187.519,62.67z"/>
			<path fill="#FFFFFF" d="M195.05,60.102l0.167,1.507c0.326-0.812,1.228-1.246,2.709-1.301l0.05-0.002
				c1.457-0.041,2.462,0.357,3.017,1.193c0.38,0.569,0.601,1.922,0.662,4.056c0.03,1.05,0.02,2.291-0.031,3.725l-3.004,0.086
				c0.054-1.909,0.065-3.389,0.036-4.438c-0.015-0.523-0.039-0.942-0.073-1.257c-0.109-0.923-0.52-1.375-1.231-1.354
				c-0.712,0.021-1.152,0.28-1.32,0.778l0.316,6.707l-2.917,0.102c-0.081-2.838-0.3-6.021-0.657-9.55L195.05,60.102z"/>
			<path fill="#FFFFFF" d="M202.835,70.829c0.914-0.223,1.437-0.618,1.569-1.184c-0.642-0.143-1.065-0.322-1.27-0.538
				c-0.205-0.217-0.312-0.464-0.32-0.741s0.064-0.525,0.215-0.743s0.372-0.386,0.663-0.505c0.29-0.119,0.58-0.187,0.87-0.201
				l0.025-0.001c0.273-0.008,0.539,0.021,0.798,0.089c0.259,0.072,0.472,0.188,0.638,0.344c0.165,0.155,0.284,0.324,0.355,0.504
				c0.072,0.181,0.115,0.396,0.13,0.649l0.001,0.036c0.007,0.247-0.031,0.521-0.113,0.818c-0.082,0.317-0.23,0.622-0.446,0.911
				c-0.215,0.291-0.533,0.57-0.952,0.838c-0.419,0.269-1.05,0.438-1.893,0.512L202.835,70.829z"/>
			<path fill="#FFFFFF" d="M216.689,59.458c2.726,0.034,4.117,1.017,4.172,2.947l0.188,6.571l-2.892,0.119l-0.125-0.876
				c-0.582,0.523-1.364,0.798-2.35,0.825c-0.422,0.013-0.879-0.023-1.37-0.108c-1.473-0.229-2.23-1.054-2.271-2.473
				c-0.005-0.173,0.003-0.358,0.021-0.557c0.125-1.468,1.498-2.237,4.122-2.312c0.505-0.015,1.06-0.002,1.667,0.036l-0.031-1.073
				c-0.025-0.871-0.406-1.295-1.143-1.273l-0.049,0.001c-0.058-0.004-0.112-0.006-0.162-0.005c-0.803,0.022-1.19,0.521-1.163,1.496
				l0.004,0.14l-2.96-0.102c-0.061-2.153,1.299-3.27,4.08-3.349L216.689,59.458z M217.941,66.74l-0.046-1.629
				c-0.358-0.046-0.682-0.064-0.972-0.056c-0.753,0.021-1.261,0.225-1.523,0.608c-0.159,0.233-0.236,0.448-0.23,0.646
				c0.007,0.245,0.146,0.461,0.416,0.645c0.211,0.142,0.482,0.209,0.813,0.199C216.821,67.143,217.335,67.004,217.941,66.74z"/>
			<path fill="#FFFFFF" d="M221.803,65.806l2.84-0.183l0.003,0.12c0.027,0.95,0.435,1.421,1.221,1.41l0.05-0.002
				c0.761-0.021,1.134-0.307,1.119-0.856l-0.002-0.064c-0.05-0.603-0.815-1.069-2.295-1.397c-1.479-0.328-2.381-0.928-2.704-1.794
				c-0.116-0.306-0.179-0.6-0.187-0.884c-0.015-0.519,0.149-1.004,0.493-1.459c0.527-0.695,1.344-1.107,2.45-1.237
				c0.297-0.033,0.586-0.054,0.868-0.062c0.737-0.021,1.39,0.056,1.958,0.231c0.777,0.243,1.322,0.608,1.634,1.093
				c0.208,0.334,0.318,0.707,0.33,1.12c0.006,0.197-0.009,0.402-0.044,0.613l-2.656,0.122c0.021-0.155,0.029-0.298,0.026-0.428
				c-0.018-0.617-0.292-0.938-0.823-0.967c-0.059-0.005-0.117-0.006-0.175-0.004c-0.546,0.016-0.909,0.231-1.087,0.65
				c-0.062,0.145-0.091,0.274-0.088,0.392c0.008,0.291,0.198,0.536,0.567,0.734c0.522,0.282,1.29,0.562,2.304,0.837
				c1.014,0.277,1.706,0.777,2.075,1.502c0.132,0.275,0.202,0.551,0.209,0.828c0.014,0.469-0.155,0.946-0.506,1.432
				c-0.558,0.776-1.443,1.242-2.657,1.399c-0.264,0.039-0.524,0.062-0.78,0.068c-0.911,0.026-1.761-0.126-2.548-0.454
				C222.392,68.146,221.86,67.225,221.803,65.806z"/>
			<path fill="#FFFFFF" d="M234.005,57.103c0.011,0.377-0.158,0.703-0.507,0.979c-0.348,0.275-0.774,0.421-1.279,0.436
				c-0.497,0.014-0.927-0.107-1.291-0.362c-0.363-0.255-0.55-0.571-0.561-0.948c-0.01-0.37,0.158-0.692,0.507-0.967
				c0.348-0.276,0.771-0.421,1.267-0.435c0.505-0.015,0.939,0.105,1.303,0.361C233.808,56.42,233.995,56.732,234.005,57.103z
				 M231.011,68.877c-0.161-3.606-0.279-6.725-0.354-9.354l3.125-0.228c-0.028,2.52-0.006,5.023,0.065,7.51
				c0.019,0.667,0.042,1.33,0.069,1.989L231.011,68.877z"/>
			<path fill="#FFFFFF" d="M234.777,65.437l2.84-0.183l0.003,0.12c0.027,0.95,0.435,1.42,1.221,1.409l0.05-0.001
				c0.761-0.021,1.134-0.307,1.119-0.856l-0.002-0.064c-0.05-0.603-0.815-1.07-2.295-1.398c-1.479-0.328-2.381-0.927-2.704-1.793
				c-0.116-0.306-0.179-0.601-0.187-0.885c-0.015-0.519,0.149-1.004,0.493-1.458c0.527-0.695,1.344-1.107,2.45-1.238
				c0.297-0.032,0.586-0.054,0.868-0.062c0.737-0.021,1.39,0.057,1.958,0.231c0.777,0.244,1.322,0.608,1.634,1.093
				c0.208,0.335,0.318,0.708,0.33,1.121c0.006,0.197-0.009,0.401-0.044,0.612l-2.656,0.122c0.021-0.155,0.029-0.297,0.026-0.427
				c-0.018-0.617-0.292-0.938-0.823-0.968c-0.059-0.004-0.117-0.006-0.175-0.004c-0.546,0.016-0.909,0.232-1.087,0.65
				c-0.062,0.145-0.091,0.274-0.088,0.392c0.008,0.291,0.198,0.536,0.567,0.734c0.522,0.282,1.29,0.562,2.304,0.838
				c1.014,0.277,1.706,0.777,2.075,1.502c0.132,0.274,0.202,0.55,0.21,0.827c0.014,0.469-0.156,0.947-0.506,1.432
				c-0.558,0.776-1.443,1.242-2.657,1.4c-0.264,0.039-0.524,0.061-0.78,0.068c-0.911,0.025-1.761-0.126-2.548-0.455
				C235.366,67.775,234.834,66.854,234.777,65.437z"/>
			<path fill="#FFFFFF" d="M245.553,55.951l2.814-0.221l0.087,3.063l2.37-0.114l0.087,1.749l-2.406,0.151l0.12,4.211
				c0.028,0.98,0.601,1.456,1.718,1.425c0.231-0.007,0.483-0.036,0.756-0.088l-0.054,2.04c-0.396,0.048-0.773,0.077-1.128,0.088
				c-2.616,0.074-3.977-0.893-4.084-2.903l-0.129-4.526l-2.034,0.151l-0.108-2.062l2.086-0.041L245.553,55.951z"/>
			<path fill="#FFFFFF" d="M255.93,58.608c2.872-0.081,4.349,1.301,4.43,4.146c0.01,0.345,0,0.715-0.03,1.11l-5.549,0.158
				c0.045,1.586,0.477,2.367,1.297,2.345l0.086-0.003c0.719-0.063,1.067-0.484,1.045-1.262c-0.005-0.166-0.026-0.351-0.065-0.554
				l2.954-0.13c0.067,2.351-1.277,3.58-4.033,3.688c-0.033,0.008-0.062,0.012-0.086,0.013c-2.624,0.074-3.979-1.371-4.063-4.339
				l-0.008-0.278C251.898,60.317,253.24,58.686,255.93,58.608z M254.433,62.329l2.806-0.08l-0.006-0.223
				c-0.032-1.123-0.474-1.671-1.326-1.646C254.987,60.405,254.497,61.055,254.433,62.329z"/>
			<path fill="#FFFFFF" d="M263.447,58.153l0.167,1.506c0.326-0.812,1.228-1.246,2.709-1.301l0.05-0.001
				c1.456-0.042,2.462,0.356,3.016,1.193c0.38,0.568,0.602,1.922,0.662,4.056c0.03,1.05,0.02,2.29-0.031,3.725l-3.005,0.086
				c0.054-1.91,0.065-3.389,0.036-4.438c-0.015-0.523-0.039-0.943-0.073-1.257c-0.109-0.924-0.52-1.375-1.231-1.354
				c-0.712,0.02-1.152,0.279-1.32,0.778l0.316,6.706l-2.917,0.102c-0.081-2.838-0.3-6.021-0.658-9.549L263.447,58.153z"/>
			<path fill="#FFFFFF" d="M276.168,63.729l2.959,0.054c0.063,2.228-1.283,3.396-4.038,3.505c-0.033,0.007-0.062,0.012-0.086,0.013
				c-2.624,0.074-3.979-1.373-4.063-4.341l-0.008-0.277c-0.008-3.186,1.345-4.833,4.059-4.941l0.1-0.003
				c2.5-0.071,3.78,0.962,3.841,3.097c0.004,0.123,0.003,0.246-0.002,0.37l-2.665,0.225l-0.006-0.223
				c-0.032-1.123-0.475-1.673-1.327-1.648c-0.87,0.025-1.278,0.947-1.226,2.768l0.008,0.305c0.106,1.969,0.573,2.939,1.4,2.916
				l0.074-0.002c0.719-0.064,1.067-0.485,1.045-1.262C276.229,64.116,276.207,63.932,276.168,63.729z"/>
			<path fill="#FFFFFF" d="M283.407,55.695c0.011,0.377-0.158,0.703-0.506,0.979s-0.775,0.42-1.279,0.435
				c-0.497,0.015-0.927-0.106-1.291-0.361s-0.551-0.571-0.562-0.948c-0.01-0.37,0.158-0.692,0.507-0.968
				c0.348-0.275,0.77-0.42,1.267-0.435c0.504-0.015,0.939,0.106,1.303,0.362C283.209,55.013,283.396,55.325,283.407,55.695z
				 M280.413,67.47c-0.161-3.606-0.279-6.725-0.354-9.354l3.125-0.229c-0.028,2.521-0.006,5.024,0.065,7.511
				c0.019,0.667,0.042,1.33,0.069,1.988L280.413,67.47z"/>
			<path fill="#FFFFFF" d="M288.948,57.399c2.726,0.033,4.117,1.017,4.171,2.947l0.188,6.571l-2.892,0.119l-0.125-0.876
				c-0.582,0.522-1.365,0.797-2.35,0.825c-0.422,0.012-0.879-0.023-1.37-0.108c-1.473-0.229-2.229-1.054-2.27-2.473
				c-0.005-0.173,0.003-0.358,0.021-0.557c0.125-1.468,1.498-2.237,4.122-2.312c0.505-0.015,1.06-0.002,1.667,0.035l-0.031-1.073
				c-0.025-0.871-0.406-1.294-1.142-1.272l-0.05,0.001c-0.058-0.004-0.112-0.007-0.162-0.005c-0.803,0.022-1.19,0.521-1.163,1.496
				l0.004,0.14l-2.96-0.102c-0.061-2.153,1.299-3.27,4.08-3.35L288.948,57.399z M290.199,64.681l-0.046-1.629
				c-0.358-0.045-0.682-0.063-0.971-0.055c-0.753,0.021-1.261,0.225-1.523,0.608c-0.159,0.232-0.236,0.448-0.23,0.646
				c0.007,0.245,0.146,0.461,0.416,0.645c0.211,0.142,0.482,0.208,0.813,0.199C289.08,65.083,289.593,64.945,290.199,64.681z"/>
			<path fill="#FFFFFF" d="M298.639,57.354l3.247-0.287c-0.021,1.854-0.016,3.379,0.019,4.576c0.013,0.45,0.033,0.854,0.059,1.212
				c0.071,1.318,0.488,1.985,1.25,2.001c0.05,0.006,0.096,0.007,0.137,0.006c0.678-0.02,1.101-0.321,1.266-0.906
				c0.09-0.342,0.117-1.149,0.081-2.421c-0.029-1.018-0.1-2.331-0.212-3.939l3.049-0.253c0.086,1.88,0.149,3.496,0.188,4.848
				c0.048,1.684,0.06,2.956,0.034,3.816c-0.039,1.544-0.597,2.732-1.675,3.566c-0.973,0.756-2.356,1.16-4.153,1.212
				c-0.207,0.006-0.419,0.006-0.633-0.001l-0.413-2.248c0.157,0.002,0.311,0,0.46-0.004c1.39-0.04,2.337-0.249,2.84-0.628
				c0.519-0.392,0.767-1.004,0.743-1.836l-0.004-0.148c-0.456,0.568-1.172,0.866-2.149,0.895l-0.174,0.005
				c-1.069-0.007-1.906-0.296-2.51-0.868c-0.605-0.572-0.949-1.391-1.033-2.453C298.971,62.436,298.832,60.388,298.639,57.354z"/>
			<path fill="#FFFFFF" d="M316.649,59.75l0.314,6.707l-3.041,0.104c-0.081-2.839-0.3-6.021-0.657-9.549l2.279-0.251l0.167,1.506
				c0.327-0.751,1.125-1.196,2.397-1.338c0.19-0.018,0.372-0.029,0.546-0.034c1.001-0.028,1.77,0.194,2.305,0.667
				c0.621,0.562,0.953,1.476,0.998,2.741l-2.75,0.281c0.005-0.104,0.007-0.206,0.004-0.306c-0.028-0.987-0.385-1.472-1.073-1.452
				l-0.05,0.002C317.295,58.883,316.815,59.189,316.649,59.75z"/>
			<path fill="#FFFFFF" d="M326.723,56.592c2.872-0.082,4.348,1.3,4.429,4.145c0.01,0.345,0,0.716-0.03,1.111l-5.549,0.158
				c0.045,1.586,0.478,2.367,1.297,2.344l0.087-0.002c0.718-0.063,1.067-0.485,1.045-1.262c-0.005-0.167-0.026-0.351-0.065-0.554
				l2.954-0.131c0.067,2.351-1.277,3.581-4.033,3.689c-0.033,0.008-0.062,0.012-0.086,0.012c-2.624,0.075-3.979-1.371-4.063-4.339
				l-0.008-0.278C322.691,58.301,324.033,56.668,326.723,56.592z M325.226,60.312l2.806-0.08l-0.006-0.223
				c-0.032-1.123-0.475-1.672-1.327-1.647C325.781,58.389,325.29,59.038,325.226,60.312z"/>
			<path fill="#FFFFFF" d="M332.413,69.639c-0.01-2.081-0.048-4.293-0.115-6.638c-0.061-2.136-0.146-4.375-0.253-6.718l2.942-0.094
				l0.14,1.423c0.593-0.708,1.398-1.077,2.416-1.106c2.541-0.072,3.854,1.388,3.939,4.38l0.005,0.185
				c0.027,3.001-1.196,4.536-3.671,4.606c-0.099,0.003-0.199,0.003-0.298,0c-0.845-0.008-1.538-0.33-2.078-0.969
				c0.039,1.369,0.13,2.981,0.274,4.837L332.413,69.639z M335.231,59.508l0.162,3.479c0.493,0.473,0.984,0.702,1.473,0.688
				c0.198-0.006,0.396-0.054,0.592-0.146c0.597-0.265,0.878-1.01,0.843-2.238c-0.004-0.148-0.013-0.302-0.026-0.462
				c-0.125-1.503-0.549-2.284-1.272-2.345c-0.075-0.004-0.145-0.005-0.211-0.003C336.163,58.499,335.643,58.842,335.231,59.508z"/>
			<path fill="#FFFFFF" d="M347.127,55.741c2.726,0.034,4.117,1.017,4.171,2.947l0.188,6.571l-2.892,0.12l-0.125-0.876
				c-0.582,0.522-1.365,0.797-2.35,0.825c-0.422,0.012-0.879-0.024-1.37-0.108c-1.473-0.229-2.229-1.054-2.27-2.473
				c-0.005-0.173,0.003-0.359,0.021-0.557c0.125-1.468,1.498-2.238,4.122-2.312c0.505-0.015,1.06-0.002,1.667,0.035l-0.031-1.073
				c-0.024-0.871-0.406-1.294-1.142-1.273l-0.05,0.002c-0.058-0.005-0.112-0.007-0.162-0.006c-0.803,0.023-1.19,0.522-1.163,1.497
				l0.004,0.14l-2.96-0.102c-0.061-2.153,1.298-3.271,4.08-3.35L347.127,55.741z M348.378,63.023l-0.046-1.629
				c-0.358-0.046-0.681-0.063-0.971-0.056c-0.753,0.021-1.261,0.225-1.523,0.608c-0.159,0.233-0.236,0.448-0.23,0.646
				c0.007,0.245,0.146,0.462,0.416,0.646c0.211,0.142,0.482,0.208,0.813,0.198C347.259,63.426,347.772,63.288,348.378,63.023z"/>
			<path fill="#FFFFFF" d="M355.597,58.641l0.315,6.706l-3.042,0.105c-0.081-2.839-0.3-6.021-0.657-9.55l2.279-0.25l0.167,1.506
				c0.327-0.751,1.125-1.197,2.397-1.338c0.189-0.019,0.372-0.029,0.545-0.034c1.001-0.028,1.77,0.194,2.305,0.666
				c0.621,0.563,0.953,1.477,0.998,2.742l-2.75,0.281c0.005-0.104,0.007-0.206,0.004-0.306c-0.028-0.987-0.386-1.472-1.073-1.452
				l-0.05,0.001C356.242,57.772,355.763,58.08,355.597,58.641z"/>
			<path fill="#FFFFFF" d="M366.433,55.191c2.726,0.034,4.117,1.017,4.171,2.947l0.188,6.571l-2.892,0.119l-0.125-0.876
				c-0.582,0.523-1.365,0.798-2.35,0.825c-0.422,0.013-0.879-0.023-1.37-0.108c-1.473-0.229-2.229-1.054-2.27-2.473
				c-0.005-0.173,0.003-0.358,0.021-0.557c0.125-1.467,1.498-2.237,4.122-2.312c0.505-0.014,1.06-0.002,1.667,0.036l-0.031-1.073
				c-0.025-0.871-0.406-1.294-1.142-1.273l-0.05,0.001c-0.058-0.004-0.112-0.006-0.162-0.005c-0.803,0.023-1.19,0.521-1.163,1.496
				l0.004,0.14l-2.96-0.102c-0.061-2.152,1.299-3.27,4.08-3.349L366.433,55.191z M367.684,62.474l-0.046-1.629
				c-0.358-0.046-0.682-0.063-0.971-0.056c-0.753,0.021-1.261,0.225-1.523,0.608c-0.159,0.233-0.236,0.448-0.23,0.646
				c0.007,0.245,0.146,0.461,0.416,0.646c0.211,0.142,0.482,0.208,0.813,0.198C366.565,62.876,367.078,62.738,367.684,62.474z"/>
			<path fill="#FFFFFF" d="M376.758,60.863l2.959,0.055c0.063,2.228-1.283,3.395-4.039,3.504c-0.033,0.007-0.062,0.012-0.086,0.013
				c-2.624,0.074-3.979-1.372-4.063-4.34l-0.008-0.277c-0.008-3.187,1.345-4.834,4.059-4.942l0.1-0.003
				c2.5-0.071,3.78,0.962,3.841,3.097c0.004,0.123,0.003,0.246-0.002,0.37l-2.665,0.225l-0.006-0.223
				c-0.032-1.123-0.475-1.672-1.327-1.648c-0.869,0.025-1.278,0.948-1.226,2.769l0.008,0.305c0.106,1.968,0.573,2.938,1.4,2.915
				l0.075-0.002c0.718-0.064,1.067-0.485,1.045-1.262C376.819,61.25,376.797,61.065,376.758,60.863z"/>
			<path fill="#FFFFFF" d="M383.998,52.829c0.011,0.377-0.158,0.703-0.507,0.979c-0.348,0.275-0.774,0.421-1.279,0.435
				c-0.497,0.015-0.927-0.106-1.291-0.361c-0.363-0.255-0.55-0.571-0.561-0.948c-0.01-0.37,0.158-0.692,0.507-0.967
				c0.348-0.276,0.771-0.421,1.267-0.436c0.505-0.014,0.939,0.106,1.303,0.362C383.8,52.146,383.987,52.459,383.998,52.829z
				 M381.003,64.604c-0.161-3.606-0.279-6.725-0.354-9.354l3.125-0.228c-0.028,2.52-0.006,5.023,0.065,7.51
				c0.019,0.667,0.042,1.33,0.069,1.988L381.003,64.604z"/>
			<path fill="#FFFFFF" d="M389.111,54.814c2.814-0.08,4.263,1.337,4.346,4.248c0.003,0.117,0.002,0.234-0.002,0.352
				c-0.026,3.156-1.479,4.791-4.359,4.903c-0.033,0.008-0.066,0.012-0.099,0.013c-2.74,0.078-4.152-1.372-4.237-4.353l-0.007-0.26
				C384.744,56.532,386.197,54.897,389.111,54.814z M387.446,53.056c0.944-0.885,1.715-1.726,2.314-2.521l2.07,1.146
				c-0.858,0.666-1.813,1.481-2.862,2.443L387.446,53.056z M388.762,56.937c-0.518,0.15-0.859,0.663-1.025,1.539
				c-0.101,0.521-0.145,1.044-0.129,1.568c0.01,0.353,0.045,0.706,0.105,1.063c0.158,0.884,0.597,1.331,1.318,1.341l0.087-0.002
				c0.67-0.02,1.121-0.362,1.351-1.028c0.19-0.556,0.276-1.209,0.254-1.963c-0.005-0.185-0.015-0.373-0.029-0.563
				c-0.095-0.992-0.311-1.606-0.649-1.845c-0.211-0.142-0.462-0.208-0.751-0.2C389.127,56.852,388.951,56.881,388.762,56.937z"/>
			<path fill="#FFFFFF" d="M396.293,54.368l0.167,1.506c0.326-0.812,1.228-1.245,2.709-1.301l0.05-0.001
				c1.457-0.042,2.462,0.356,3.017,1.193c0.38,0.568,0.601,1.922,0.662,4.056c0.03,1.05,0.02,2.29-0.031,3.725l-3.004,0.086
				c0.054-1.909,0.065-3.389,0.036-4.438c-0.015-0.523-0.039-0.943-0.073-1.257c-0.109-0.924-0.52-1.375-1.231-1.354
				c-0.712,0.021-1.152,0.28-1.32,0.778l0.316,6.706l-2.917,0.102c-0.081-2.838-0.3-6.021-0.658-9.549L396.293,54.368z"/>
			<path fill="#FFFFFF" d="M411.82,52.036c0.011,0.377-0.158,0.704-0.506,0.979c-0.348,0.275-0.774,0.421-1.279,0.436
				c-0.497,0.014-0.927-0.106-1.291-0.362c-0.364-0.255-0.55-0.57-0.561-0.947c-0.01-0.37,0.158-0.693,0.507-0.968
				c0.348-0.275,0.77-0.421,1.267-0.435c0.505-0.015,0.939,0.105,1.303,0.361C411.623,51.354,411.81,51.666,411.82,52.036z
				 M408.826,63.812c-0.161-3.607-0.279-6.726-0.354-9.354l3.125-0.228c-0.028,2.521-0.006,5.023,0.065,7.51
				c0.019,0.667,0.042,1.33,0.069,1.989L408.826,63.812z"/>
			<path fill="#FFFFFF" d="M414.841,53.84l0.167,1.506c0.326-0.812,1.228-1.246,2.709-1.301l0.05-0.001
				c1.456-0.042,2.461,0.356,3.016,1.193c0.38,0.568,0.602,1.922,0.662,4.056c0.03,1.05,0.02,2.29-0.031,3.725l-3.005,0.086
				c0.054-1.91,0.065-3.389,0.036-4.438c-0.015-0.523-0.039-0.943-0.073-1.257c-0.109-0.924-0.52-1.375-1.231-1.354
				c-0.712,0.02-1.152,0.279-1.32,0.778l0.316,6.706l-2.917,0.102c-0.081-2.838-0.3-6.021-0.658-9.549L414.841,53.84z"/>
			<path fill="#FFFFFF" d="M424.312,50.857l2.814-0.22l0.087,3.063l2.37-0.114l0.087,1.749l-2.406,0.151l0.12,4.211
				c0.028,0.98,0.601,1.456,1.718,1.424c0.231-0.007,0.483-0.035,0.756-0.087l-0.054,2.039c-0.396,0.049-0.773,0.078-1.128,0.088
				c-2.616,0.075-3.977-0.893-4.084-2.902l-0.129-4.526l-2.034,0.15l-0.108-2.062l2.086-0.041L424.312,50.857z"/>
			<path fill="#FFFFFF" d="M434.688,53.516c2.872-0.082,4.349,1.3,4.43,4.145c0.01,0.345,0,0.716-0.03,1.111l-5.55,0.158
				c0.045,1.586,0.478,2.367,1.297,2.344l0.087-0.002c0.719-0.063,1.067-0.485,1.045-1.262c-0.005-0.167-0.026-0.351-0.065-0.554
				l2.954-0.131c0.067,2.351-1.277,3.581-4.033,3.689c-0.033,0.008-0.062,0.012-0.086,0.013c-2.624,0.074-3.979-1.372-4.063-4.34
				l-0.008-0.278C430.657,55.225,431.999,53.593,434.688,53.516z M433.192,57.236l2.806-0.08l-0.006-0.223
				c-0.032-1.123-0.474-1.672-1.327-1.647C433.746,55.312,433.255,55.962,433.192,57.236z"/>
			<path fill="#FFFFFF" d="M440.578,63.936l2.914-0.204c-0.007,0.074-0.009,0.148-0.006,0.223c0.019,0.673,0.39,1.029,1.111,1.07
				c0.116,0.009,0.224,0.012,0.324,0.009c0.62-0.018,1.058-0.215,1.312-0.592c0.222-0.34,0.321-0.967,0.294-1.881
				c-0.007-0.247-0.023-0.517-0.048-0.812c-0.444,0.704-1.294,1.104-2.55,1.202c-2.459,0.052-3.732-1.471-3.821-4.568l-0.002-0.065
				c-0.073-3.133,1.343-4.753,4.248-4.854c0.795-0.022,1.517,0.303,2.165,0.976l-0.004-1.473l2.722,0.015
				c0.145,5.09,0.214,8.244,0.207,9.46c-0.007,1.217-0.225,2.199-0.655,2.946c-0.431,0.747-1.185,1.238-2.263,1.473
				c-0.568,0.128-1.133,0.198-1.696,0.215c-0.504,0.014-1.007-0.014-1.506-0.087c-1.065-0.154-1.803-0.481-2.215-0.983
				c-0.342-0.41-0.523-0.954-0.543-1.633C440.561,64.235,440.565,64.09,440.578,63.936z M446.408,60.101l-0.107-3.757
				c-0.423-0.6-0.946-0.891-1.566-0.873c-0.125,0.003-0.252,0.02-0.384,0.048c-0.798,0.165-1.218,1.002-1.258,2.51
				c-0.003,0.16-0.003,0.314,0.001,0.463c0.035,1.229,0.363,1.972,0.983,2.231c0.209,0.093,0.43,0.137,0.662,0.13
				C445.252,60.838,445.808,60.588,446.408,60.101z"/>
			<path fill="#FFFFFF" d="M453.58,55.849l0.314,6.707l-3.041,0.104c-0.081-2.839-0.3-6.021-0.657-9.549l2.279-0.251l0.167,1.506
				c0.327-0.751,1.125-1.196,2.397-1.338c0.19-0.018,0.372-0.029,0.546-0.034c1.001-0.028,1.77,0.194,2.305,0.667
				c0.621,0.562,0.953,1.476,0.998,2.741l-2.75,0.281c0.005-0.104,0.007-0.206,0.004-0.306c-0.028-0.987-0.385-1.472-1.073-1.452
				l-0.05,0.001C454.226,54.981,453.746,55.288,453.58,55.849z"/>
			<path fill="#FFFFFF" d="M464.416,52.399c2.726,0.034,4.117,1.017,4.172,2.947l0.188,6.571l-2.892,0.12l-0.125-0.876
				c-0.582,0.522-1.364,0.797-2.35,0.825c-0.422,0.012-0.879-0.024-1.37-0.108c-1.473-0.229-2.23-1.054-2.271-2.473
				c-0.005-0.173,0.003-0.359,0.021-0.557c0.125-1.468,1.498-2.238,4.122-2.312c0.504-0.015,1.06-0.002,1.666,0.035l-0.031-1.073
				c-0.024-0.871-0.405-1.294-1.142-1.273l-0.05,0.002c-0.058-0.005-0.111-0.007-0.161-0.006c-0.803,0.023-1.19,0.522-1.163,1.497
				l0.004,0.14l-2.96-0.102c-0.061-2.153,1.299-3.271,4.08-3.35L464.416,52.399z M465.667,59.682l-0.046-1.629
				c-0.357-0.046-0.681-0.063-0.971-0.056c-0.753,0.021-1.261,0.225-1.523,0.608c-0.159,0.233-0.236,0.448-0.23,0.646
				c0.007,0.245,0.146,0.462,0.416,0.646c0.211,0.142,0.482,0.208,0.814,0.198C464.548,60.084,465.062,59.946,465.667,59.682z"/>
			<path fill="#FFFFFF" d="M473.257,61.772l-3.085,0.301c-0.025-2.043-0.064-4.009-0.118-5.897c-0.076-2.652-0.18-5.153-0.313-7.503
				l3.041-0.124c0.01,1.513,0.038,3.066,0.083,4.657C472.942,55.952,473.073,58.808,473.257,61.772z"/>
			<path fill="#FFFFFF" d="M120.059,86.835c2.727,0.033,4.117,1.017,4.172,2.947l0.188,6.571l-2.892,0.119l-0.125-0.877
				c-0.581,0.522-1.364,0.798-2.349,0.826c-0.422,0.012-0.879-0.023-1.37-0.108c-1.473-0.229-2.229-1.054-2.27-2.474
				c-0.005-0.173,0.002-0.358,0.021-0.557c0.124-1.467,1.498-2.238,4.122-2.312c0.504-0.015,1.06-0.002,1.666,0.035l-0.031-1.072
				c-0.025-0.871-0.405-1.295-1.142-1.273l-0.05,0.001c-0.059-0.004-0.112-0.007-0.162-0.005c-0.803,0.022-1.19,0.522-1.162,1.497
				l0.004,0.14l-2.96-0.102c-0.062-2.153,1.298-3.271,4.079-3.35L120.059,86.835z M121.31,94.116l-0.046-1.629
				c-0.357-0.045-0.681-0.063-0.971-0.055c-0.753,0.021-1.261,0.224-1.523,0.606c-0.159,0.233-0.235,0.449-0.23,0.647
				c0.007,0.246,0.145,0.462,0.416,0.646c0.211,0.142,0.482,0.208,0.814,0.199C120.191,94.519,120.704,94.381,121.31,94.116z"/>
			<path fill="#FFFFFF" d="M133.53,96.075l-3.085,0.301c-0.025-2.043-0.064-4.009-0.118-5.898c-0.076-2.651-0.18-5.152-0.313-7.502
				l3.041-0.123c0.01,1.513,0.038,3.064,0.083,4.656C133.215,90.254,133.346,93.11,133.53,96.075z"/>
			<path fill="#FFFFFF" d="M139.129,86.291c2.727,0.034,4.117,1.017,4.172,2.947l0.188,6.571l-2.892,0.12l-0.125-0.878
				c-0.581,0.523-1.364,0.799-2.349,0.827c-0.422,0.012-0.879-0.024-1.37-0.109c-1.473-0.229-2.229-1.053-2.27-2.473
				c-0.005-0.173,0.002-0.359,0.021-0.557c0.124-1.467,1.498-2.238,4.122-2.313c0.504-0.014,1.06-0.001,1.666,0.036l-0.031-1.072
				c-0.025-0.871-0.405-1.295-1.142-1.274l-0.05,0.002c-0.059-0.005-0.112-0.007-0.162-0.006c-0.803,0.023-1.19,0.522-1.162,1.497
				l0.004,0.14l-2.96-0.101c-0.062-2.153,1.298-3.271,4.079-3.35L139.129,86.291z M140.38,93.573l-0.046-1.629
				c-0.357-0.046-0.681-0.063-0.971-0.056c-0.753,0.021-1.261,0.225-1.523,0.607c-0.159,0.233-0.235,0.448-0.23,0.646
				c0.007,0.246,0.145,0.462,0.416,0.646c0.211,0.142,0.482,0.208,0.814,0.198C139.261,93.976,139.774,93.838,140.38,93.573z"/>
			<path fill="#FFFFFF" d="M144.243,92.639l2.84-0.183l0.003,0.12c0.027,0.951,0.434,1.421,1.221,1.41l0.05-0.001
				c0.761-0.021,1.134-0.308,1.119-0.857l-0.002-0.064c-0.05-0.604-0.815-1.069-2.295-1.397s-2.381-0.927-2.704-1.794
				c-0.116-0.305-0.179-0.6-0.187-0.884c-0.015-0.519,0.15-1.005,0.493-1.459c0.527-0.694,1.344-1.106,2.45-1.237
				c0.297-0.033,0.587-0.054,0.868-0.062c0.737-0.021,1.389,0.056,1.957,0.231c0.777,0.243,1.322,0.608,1.635,1.092
				c0.208,0.334,0.318,0.709,0.33,1.122c0.005,0.197-0.009,0.401-0.045,0.612l-2.655,0.122c0.021-0.155,0.029-0.297,0.025-0.427
				c-0.018-0.617-0.292-0.94-0.823-0.969c-0.058-0.004-0.116-0.006-0.174-0.004c-0.546,0.016-0.909,0.233-1.087,0.651
				c-0.062,0.145-0.091,0.274-0.088,0.392c0.008,0.291,0.197,0.536,0.568,0.734c0.522,0.281,1.29,0.561,2.304,0.838
				c1.014,0.276,1.706,0.777,2.074,1.501c0.132,0.274,0.203,0.55,0.21,0.828c0.013,0.469-0.156,0.946-0.506,1.432
				c-0.558,0.775-1.443,1.242-2.656,1.4c-0.265,0.038-0.525,0.061-0.781,0.067c-0.911,0.026-1.76-0.125-2.547-0.455
				C144.832,94.978,144.3,94.058,144.243,92.639z"/>
			<path fill="#FFFFFF" d="M160.234,95.23c-1.145-3.542-2.168-6.583-3.068-9.12l3.013-0.206l1.719,6.686
				c0.723-2.54,1.291-4.854,1.704-6.94l2.975,0.193c-0.862,2.612-1.863,5.698-3.004,9.256L160.234,95.23z"/>
			<path fill="#FFFFFF" d="M167.456,95.312c-0.161-3.607-0.278-6.725-0.354-9.354l3.125-0.229c-0.028,2.521-0.006,5.024,0.065,7.511
				c0.019,0.667,0.042,1.329,0.069,1.988L167.456,95.312z M167.132,83.956c0.944-0.885,1.715-1.726,2.314-2.52l2.07,1.144
				c-0.859,0.668-1.813,1.482-2.863,2.444L167.132,83.956z"/>
			<path fill="#FFFFFF" d="M176.434,91.194l2.959,0.055c0.063,2.228-1.282,3.395-4.038,3.504c-0.033,0.007-0.062,0.012-0.087,0.013
				c-2.624,0.074-3.978-1.372-4.062-4.34l-0.008-0.277c-0.008-3.188,1.346-4.834,4.06-4.942l0.099-0.003
				c2.5-0.071,3.78,0.962,3.841,3.097c0.003,0.123,0.002,0.246-0.002,0.37l-2.666,0.225l-0.006-0.223
				c-0.032-1.123-0.475-1.673-1.327-1.649c-0.869,0.025-1.278,0.949-1.226,2.769l0.009,0.306c0.106,1.967,0.573,2.938,1.4,2.915
				l0.075-0.002c0.719-0.064,1.067-0.485,1.045-1.263C176.495,91.58,176.473,91.396,176.434,91.194z"/>
			<path fill="#FFFFFF" d="M182.247,82.377l2.814-0.22l0.087,3.064l2.37-0.114l0.087,1.748l-2.406,0.151l0.12,4.211
				c0.028,0.981,0.601,1.457,1.718,1.425c0.231-0.007,0.484-0.035,0.755-0.087l-0.053,2.039c-0.396,0.049-0.773,0.078-1.128,0.088
				c-2.616,0.074-3.977-0.894-4.084-2.903l-0.129-4.525l-2.033,0.15l-0.109-2.062l2.086-0.041L182.247,82.377z"/>
			<path fill="#FFFFFF" d="M192.003,82.923c0.011,0.377-0.158,0.703-0.507,0.978c-0.349,0.275-0.775,0.421-1.28,0.435
				c-0.497,0.015-0.927-0.106-1.29-0.361c-0.363-0.254-0.55-0.57-0.561-0.947c-0.011-0.37,0.158-0.692,0.506-0.968
				c0.349-0.276,0.771-0.421,1.268-0.436c0.505-0.014,0.939,0.106,1.302,0.362C191.806,82.24,191.993,82.553,192.003,82.923z
				 M189.008,94.697c-0.16-3.607-0.278-6.725-0.353-9.354l3.125-0.229c-0.028,2.521-0.006,5.024,0.065,7.511
				c0.019,0.667,0.042,1.329,0.069,1.988L189.008,94.697z"/>
			<path fill="#FFFFFF" d="M194.74,84.781l0.092,1.479c0.427-0.722,0.932-1.178,1.514-1.367c0.345-0.108,0.695-0.168,1.051-0.179
				c0.265-0.007,0.531,0.011,0.797,0.052c0.648,0.105,1.122,0.586,1.419,1.441c0.196-0.678,0.556-1.138,1.079-1.378
				c0.524-0.24,1.109-0.372,1.754-0.397l0.049-0.001c0.629-0.019,1.237,0.079,1.822,0.291c0.595,0.217,1.056,0.645,1.385,1.279
				c0.329,0.637,0.518,1.516,0.566,2.638l0.153,5.378l-2.681,0.122c0.05-2.032,0.055-3.761,0.014-5.187
				c-0.041-1.425-0.427-2.184-1.158-2.274c-0.108-0.009-0.212-0.012-0.311-0.01c-0.579,0.017-1.019,0.307-1.317,0.872
				c-0.031,0.644-0.035,1.394-0.01,2.251c0.033,1.166,0.118,2.525,0.253,4.077l-3.104,0.106c0.048-2.391,0.057-4.132,0.025-5.225
				l-0.003-0.111c-0.039-1.078-0.341-1.638-0.905-1.678l-0.161,0.005c-0.505,0.015-0.987,0.244-1.447,0.689l0.218,6.774
				l-2.928,0.166l-0.043-1.518c-0.077-2.69-0.207-5.375-0.391-8.057L194.74,84.781z"/>
			<path fill="#FFFFFF" d="M211.698,84.224c2.727,0.034,4.117,1.017,4.172,2.947l0.188,6.571l-2.892,0.119l-0.125-0.877
				c-0.581,0.523-1.364,0.799-2.349,0.826c-0.422,0.013-0.879-0.023-1.37-0.108c-1.473-0.229-2.229-1.054-2.27-2.474
				c-0.005-0.173,0.002-0.358,0.021-0.557c0.124-1.467,1.498-2.237,4.122-2.312c0.504-0.015,1.06-0.002,1.666,0.036l-0.03-1.072
				c-0.025-0.871-0.405-1.296-1.142-1.274l-0.05,0.001c-0.059-0.004-0.112-0.006-0.162-0.005c-0.803,0.022-1.19,0.522-1.163,1.497
				l0.004,0.14l-2.96-0.102c-0.062-2.153,1.298-3.27,4.079-3.349L211.698,84.224z M212.949,91.506l-0.046-1.629
				c-0.357-0.046-0.681-0.064-0.971-0.056c-0.753,0.021-1.261,0.225-1.523,0.607c-0.159,0.233-0.235,0.448-0.23,0.646
				c0.007,0.246,0.146,0.462,0.416,0.646c0.211,0.141,0.482,0.208,0.814,0.198C211.83,91.908,212.343,91.771,212.949,91.506z"/>
			<path fill="#FFFFFF" d="M216.812,90.57l2.84-0.183l0.003,0.12c0.027,0.951,0.434,1.422,1.221,1.411l0.05-0.002
				c0.761-0.021,1.134-0.307,1.119-0.856l-0.002-0.064c-0.05-0.604-0.815-1.069-2.295-1.397c-1.48-0.328-2.381-0.927-2.704-1.794
				c-0.116-0.306-0.179-0.6-0.187-0.884c-0.015-0.519,0.15-1.005,0.493-1.46c0.527-0.694,1.344-1.106,2.45-1.236
				c0.297-0.033,0.587-0.054,0.868-0.062c0.737-0.021,1.389,0.056,1.957,0.231c0.777,0.243,1.322,0.608,1.635,1.092
				c0.208,0.334,0.318,0.708,0.33,1.121c0.005,0.197-0.009,0.402-0.045,0.613l-2.655,0.122c0.021-0.155,0.029-0.297,0.025-0.427
				c-0.018-0.617-0.292-0.94-0.823-0.969c-0.058-0.005-0.116-0.006-0.174-0.004c-0.546,0.016-0.909,0.232-1.087,0.651
				c-0.062,0.145-0.091,0.274-0.087,0.392c0.008,0.291,0.197,0.536,0.567,0.734c0.522,0.281,1.29,0.561,2.304,0.837
				c1.014,0.277,1.706,0.777,2.074,1.501c0.132,0.275,0.203,0.551,0.21,0.829c0.013,0.469-0.156,0.946-0.506,1.432
				c-0.558,0.775-1.443,1.242-2.656,1.399c-0.265,0.039-0.525,0.062-0.781,0.068c-0.911,0.026-1.76-0.126-2.547-0.455
				C217.4,92.91,216.869,91.99,216.812,90.57z"/>
			<path fill="#FFFFFF" d="M239.513,80.105c0.01,2.088,0.048,4.275,0.113,6.564c0.06,2.086,0.142,4.257,0.248,6.514l-2.943,0.093
				l-0.14-1.412c-0.593,0.701-1.398,1.067-2.417,1.096c-2.541,0.072-3.852-1.341-3.935-4.241c-0.002-0.062,0-0.123,0.007-0.185
				c-0.034-2.907,1.183-4.396,3.649-4.467c0.099-0.003,0.203-0.003,0.311,0.001c0.845,0.012,1.538,0.335,2.078,0.968
				c-0.039-1.369-0.131-2.98-0.274-4.837L239.513,80.105z M236.688,89.967l-0.153-3.199c-0.494-0.474-0.994-0.703-1.498-0.689
				c-0.207,0.006-0.413,0.052-0.618,0.138c-0.646,0.271-0.954,0.991-0.92,2.157c0.003,0.136,0.012,0.274,0.024,0.416
				c0.123,1.41,0.566,2.146,1.33,2.204c0.075,0.004,0.149,0.004,0.224,0.002C235.739,90.977,236.276,90.634,236.688,89.967z"/>
			<path fill="#FFFFFF" d="M244.632,83.554c2.872-0.081,4.348,1.3,4.429,4.145c0.01,0.346,0,0.716-0.03,1.112l-5.549,0.157
				c0.045,1.586,0.477,2.368,1.297,2.345l0.087-0.003c0.718-0.063,1.067-0.484,1.045-1.262c-0.005-0.167-0.027-0.352-0.066-0.555
				l2.954-0.13c0.067,2.351-1.278,3.581-4.033,3.689c-0.033,0.008-0.062,0.012-0.086,0.013c-2.624,0.075-3.979-1.371-4.063-4.339
				l-0.008-0.278C240.6,85.262,241.941,83.631,244.632,83.554z M243.134,87.273l2.806-0.08l-0.006-0.222
				c-0.032-1.123-0.475-1.672-1.327-1.647C243.688,85.35,243.198,86,243.134,87.273z"/>
			<path fill="#FFFFFF" d="M253.625,92.653l-3.085,0.301c-0.025-2.043-0.064-4.008-0.118-5.897c-0.076-2.651-0.18-5.152-0.313-7.503
				l3.041-0.123c0.01,1.513,0.038,3.064,0.083,4.656C253.311,86.832,253.442,89.688,253.625,92.653z"/>
			<path fill="#FFFFFF" d="M264.298,88.69l2.959,0.055c0.063,2.228-1.283,3.395-4.038,3.505c-0.033,0.007-0.062,0.012-0.087,0.012
				c-2.624,0.075-3.978-1.372-4.062-4.34l-0.008-0.277c-0.009-3.187,1.345-4.833,4.059-4.941l0.099-0.003
				c2.5-0.071,3.78,0.961,3.841,3.096c0.003,0.123,0.002,0.247-0.002,0.371l-2.666,0.225l-0.006-0.223
				c-0.032-1.123-0.475-1.674-1.327-1.649c-0.869,0.024-1.278,0.948-1.226,2.768l0.009,0.306c0.106,1.968,0.573,2.939,1.4,2.916
				l0.075-0.003c0.719-0.064,1.067-0.484,1.045-1.262C264.359,89.077,264.337,88.892,264.298,88.69z"/>
			<path fill="#FFFFFF" d="M272.492,82.761c2.814-0.08,4.263,1.335,4.346,4.247c0.003,0.117,0.002,0.235-0.002,0.353
				c-0.026,3.156-1.479,4.791-4.359,4.903c-0.033,0.008-0.066,0.012-0.099,0.013c-2.739,0.078-4.152-1.372-4.237-4.353l-0.007-0.26
				C268.125,84.478,269.579,82.844,272.492,82.761z M272.142,84.883c-0.517,0.15-0.859,0.663-1.025,1.538
				c-0.101,0.521-0.144,1.045-0.129,1.569c0.01,0.353,0.045,0.705,0.105,1.062c0.157,0.885,0.597,1.332,1.318,1.342l0.087-0.002
				c0.671-0.02,1.121-0.362,1.35-1.029c0.191-0.556,0.276-1.208,0.255-1.962c-0.005-0.185-0.015-0.373-0.029-0.564
				c-0.095-0.991-0.311-1.605-0.649-1.844c-0.211-0.142-0.461-0.208-0.751-0.2C272.508,84.798,272.331,84.827,272.142,84.883z"/>
			<path fill="#FFFFFF" d="M279.673,82.314l0.167,1.505c0.325-0.812,1.228-1.245,2.709-1.3l0.05-0.001
				c1.456-0.042,2.462,0.356,3.016,1.192c0.381,0.569,0.602,1.923,0.663,4.057c0.03,1.049,0.02,2.29-0.031,3.725l-3.005,0.086
				c0.054-1.91,0.065-3.389,0.035-4.438c-0.015-0.524-0.039-0.944-0.073-1.257c-0.109-0.924-0.52-1.375-1.231-1.354
				c-0.712,0.02-1.152,0.28-1.32,0.778l0.316,6.706l-2.917,0.102c-0.081-2.838-0.3-6.021-0.658-9.549L279.673,82.314z"/>
			<path fill="#FFFFFF" d="M288.976,82.624c-0.021-0.166-0.034-0.335-0.039-0.508c-0.017-0.58,0.045-1.178,0.186-1.793
				c0.167-0.802,0.729-1.454,1.684-1.956c0.709-0.379,1.615-0.583,2.716-0.615c0.364-0.01,0.754,0,1.169,0.031l0.033,2.028
				c-0.249-0.018-0.481-0.023-0.696-0.018c-0.687,0.02-1.188,0.16-1.504,0.424c-0.349,0.274-0.511,0.797-0.489,1.568
				c0.005,0.186,0.023,0.39,0.054,0.61l2.656-0.103l0.053,1.878l-2.727,0.207c0.124,2.021,0.211,3.934,0.263,5.735
				c0.015,0.542,0.026,1.073,0.033,1.593l-3.151,0.191c-0.034-2.056-0.062-4.487-0.083-7.297l-2.009,0.132l-0.106-1.988
				L288.976,82.624z"/>
			<path fill="#FFFFFF" d="M299.588,91.344l-3.085,0.301c-0.025-2.043-0.064-4.008-0.118-5.897c-0.076-2.651-0.18-5.152-0.313-7.502
				l3.041-0.124c0.01,1.513,0.038,3.064,0.083,4.656C299.273,85.522,299.404,88.379,299.588,91.344z"/>
			<path fill="#FFFFFF" d="M303.805,79.737c0.011,0.377-0.158,0.703-0.507,0.978c-0.348,0.275-0.775,0.421-1.28,0.436
				c-0.497,0.014-0.927-0.107-1.29-0.362c-0.363-0.254-0.55-0.57-0.561-0.947c-0.011-0.37,0.158-0.692,0.506-0.968
				c0.349-0.276,0.771-0.421,1.268-0.435c0.505-0.015,0.939,0.105,1.302,0.361C303.607,79.055,303.794,79.367,303.805,79.737z
				 M300.811,91.512c-0.161-3.607-0.278-6.725-0.354-9.354l3.125-0.228c-0.028,2.521-0.006,5.023,0.065,7.51
				c0.019,0.667,0.042,1.329,0.069,1.989L300.811,91.512z"/>
			<path fill="#FFFFFF" d="M309.789,87.395l2.959,0.055c0.063,2.228-1.282,3.395-4.038,3.505c-0.033,0.007-0.062,0.011-0.087,0.012
				c-2.624,0.075-3.978-1.372-4.062-4.34l-0.008-0.277c-0.008-3.187,1.345-4.833,4.059-4.941l0.099-0.003
				c2.5-0.071,3.78,0.961,3.841,3.096c0.003,0.123,0.002,0.246-0.002,0.371l-2.666,0.224l-0.006-0.223
				c-0.032-1.123-0.475-1.673-1.327-1.648c-0.869,0.024-1.278,0.948-1.226,2.768l0.009,0.306c0.106,1.967,0.573,2.939,1.4,2.915
				l0.075-0.002c0.719-0.064,1.067-0.484,1.045-1.262C309.85,87.781,309.828,87.596,309.789,87.395z"/>
			<path fill="#FFFFFF" d="M315.602,78.577l2.814-0.22l0.087,3.064l2.37-0.114l0.087,1.748l-2.406,0.151l0.12,4.211
				c0.028,0.981,0.601,1.457,1.718,1.425c0.231-0.006,0.484-0.035,0.755-0.087l-0.053,2.039c-0.396,0.049-0.773,0.078-1.129,0.088
				c-2.615,0.075-3.976-0.893-4.083-2.903l-0.129-4.525l-2.033,0.15l-0.109-2.062l2.086-0.041L315.602,78.577z"/>
			<path fill="#FFFFFF" d="M326.313,81.227c2.814-0.08,4.263,1.336,4.346,4.248c0.003,0.117,0.002,0.234-0.002,0.353
				c-0.026,3.156-1.479,4.791-4.358,4.903c-0.033,0.008-0.066,0.012-0.099,0.013c-2.739,0.078-4.152-1.373-4.237-4.354l-0.007-0.26
				C321.947,82.944,323.399,81.31,326.313,81.227z M325.963,83.349c-0.517,0.151-0.859,0.664-1.025,1.538
				c-0.101,0.522-0.144,1.046-0.129,1.57c0.01,0.353,0.045,0.705,0.105,1.062c0.157,0.886,0.597,1.333,1.318,1.343l0.087-0.002
				c0.671-0.02,1.121-0.362,1.35-1.03c0.191-0.556,0.276-1.208,0.255-1.962c-0.005-0.185-0.015-0.373-0.029-0.563
				c-0.095-0.991-0.311-1.606-0.649-1.844c-0.211-0.142-0.461-0.209-0.751-0.2C326.33,83.265,326.152,83.294,325.963,83.349z"/>
			<path fill="#FFFFFF" d="M340.646,80.55c2.727,0.034,4.117,1.017,4.172,2.947l0.188,6.571l-2.892,0.119l-0.125-0.877
				c-0.582,0.522-1.364,0.799-2.349,0.826c-0.422,0.013-0.879-0.023-1.37-0.108c-1.473-0.229-2.229-1.054-2.27-2.474
				c-0.005-0.173,0.002-0.358,0.021-0.557c0.124-1.467,1.498-2.237,4.122-2.312c0.505-0.015,1.06-0.002,1.667,0.036l-0.031-1.072
				c-0.025-0.871-0.406-1.296-1.142-1.274l-0.05,0.001c-0.059-0.004-0.112-0.006-0.162-0.005c-0.803,0.022-1.19,0.522-1.162,1.497
				l0.004,0.14l-2.96-0.102c-0.062-2.153,1.298-3.27,4.079-3.349L340.646,80.55z M341.897,87.832l-0.046-1.629
				c-0.358-0.046-0.681-0.064-0.971-0.056c-0.753,0.021-1.261,0.225-1.523,0.607c-0.159,0.233-0.236,0.448-0.23,0.646
				c0.007,0.246,0.146,0.462,0.417,0.646c0.211,0.142,0.482,0.209,0.813,0.199C340.778,88.234,341.291,88.096,341.897,87.832z"/>
			<path fill="#FFFFFF" d="M349.115,83.448l0.315,6.707l-3.042,0.105c-0.081-2.839-0.3-6.022-0.657-9.55l2.279-0.251l0.167,1.506
				c0.327-0.751,1.126-1.196,2.397-1.337c0.19-0.019,0.372-0.029,0.545-0.034c1.001-0.029,1.771,0.193,2.306,0.666
				c0.621,0.562,0.953,1.476,0.997,2.74l-2.75,0.282c0.005-0.105,0.007-0.207,0.004-0.306c-0.028-0.987-0.386-1.472-1.073-1.452
				l-0.05,0.002C349.761,82.581,349.282,82.888,349.115,83.448z"/>
			<path fill="#FFFFFF" d="M357.148,80.154l0.092,1.479c0.427-0.722,0.931-1.178,1.514-1.367c0.345-0.108,0.695-0.169,1.051-0.179
				c0.265-0.008,0.53,0.011,0.797,0.052c0.649,0.105,1.122,0.586,1.42,1.441c0.196-0.679,0.555-1.138,1.079-1.378
				c0.524-0.24,1.108-0.373,1.754-0.397l0.049-0.002c0.629-0.018,1.236,0.079,1.822,0.291c0.594,0.218,1.056,0.646,1.385,1.28
				c0.329,0.637,0.517,1.516,0.566,2.638l0.153,5.378l-2.681,0.122c0.05-2.032,0.055-3.762,0.014-5.188
				c-0.041-1.425-0.427-2.183-1.159-2.273c-0.107-0.01-0.211-0.013-0.311-0.01c-0.58,0.017-1.019,0.307-1.317,0.871
				c-0.031,0.645-0.035,1.394-0.01,2.251c0.033,1.166,0.118,2.526,0.253,4.077l-3.104,0.107c0.048-2.391,0.057-4.132,0.025-5.225
				l-0.003-0.111c-0.039-1.079-0.34-1.638-0.905-1.678l-0.161,0.005c-0.505,0.014-0.987,0.244-1.447,0.688l0.218,6.775l-2.927,0.166
				l-0.043-1.518c-0.077-2.69-0.207-5.375-0.391-8.057L357.148,80.154z"/>
			<path fill="#FFFFFF" d="M374.105,79.597c2.726,0.033,4.117,1.017,4.172,2.947l0.188,6.571l-2.892,0.119l-0.125-0.877
				c-0.582,0.522-1.364,0.798-2.349,0.826c-0.422,0.012-0.879-0.023-1.37-0.108c-1.473-0.229-2.229-1.054-2.27-2.474
				c-0.005-0.173,0.002-0.358,0.021-0.557c0.124-1.467,1.498-2.238,4.122-2.312c0.505-0.015,1.06-0.002,1.667,0.035l-0.031-1.072
				c-0.025-0.871-0.406-1.295-1.142-1.273l-0.05,0.001c-0.059-0.004-0.112-0.007-0.162-0.005c-0.803,0.022-1.19,0.522-1.162,1.497
				l0.004,0.14l-2.96-0.102c-0.062-2.153,1.298-3.27,4.079-3.35L374.105,79.597z M375.357,86.878l-0.046-1.629
				c-0.358-0.045-0.682-0.063-0.971-0.055c-0.753,0.021-1.261,0.225-1.523,0.607c-0.159,0.232-0.236,0.448-0.23,0.646
				c0.007,0.246,0.146,0.462,0.417,0.646c0.211,0.142,0.482,0.208,0.813,0.199C374.238,87.28,374.75,87.143,375.357,86.878z"/>
			<path fill="#FFFFFF" d="M388.475,75.861c0.01,2.088,0.048,4.275,0.113,6.564c0.06,2.086,0.142,4.257,0.248,6.514l-2.943,0.093
				l-0.14-1.412c-0.593,0.701-1.399,1.067-2.417,1.096c-2.541,0.072-3.853-1.341-3.935-4.241c-0.002-0.062,0-0.123,0.007-0.185
				c-0.034-2.907,1.183-4.396,3.65-4.467c0.099-0.003,0.203-0.003,0.311,0.001c0.845,0.012,1.538,0.335,2.078,0.968
				c-0.039-1.369-0.131-2.981-0.275-4.837L388.475,75.861z M385.649,85.723l-0.153-3.199c-0.494-0.474-0.994-0.703-1.498-0.689
				c-0.207,0.006-0.413,0.052-0.618,0.138c-0.646,0.271-0.954,0.991-0.92,2.157c0.004,0.136,0.013,0.274,0.025,0.416
				c0.123,1.41,0.566,2.146,1.33,2.204c0.075,0.004,0.149,0.004,0.224,0.002C384.701,86.732,385.238,86.39,385.649,85.723z"/>
			<path fill="#FFFFFF" d="M393.928,79.301c2.814-0.08,4.263,1.336,4.346,4.248c0.003,0.117,0.002,0.234-0.002,0.352
				c-0.026,3.156-1.479,4.791-4.359,4.903c-0.033,0.008-0.066,0.012-0.099,0.013c-2.739,0.078-4.152-1.372-4.237-4.353l-0.007-0.26
				C389.562,81.018,391.015,79.384,393.928,79.301z M393.578,81.423c-0.517,0.15-0.859,0.663-1.025,1.538
				c-0.101,0.521-0.144,1.045-0.129,1.569c0.01,0.353,0.045,0.705,0.105,1.062c0.157,0.885,0.597,1.332,1.318,1.342l0.087-0.002
				c0.671-0.02,1.121-0.362,1.35-1.029c0.191-0.556,0.276-1.208,0.255-1.962c-0.005-0.185-0.015-0.373-0.029-0.564
				c-0.095-0.991-0.311-1.605-0.649-1.844c-0.211-0.142-0.461-0.208-0.751-0.2C393.944,81.338,393.767,81.367,393.578,81.423z"/>
			<path fill="#FFFFFF" d="M407.499,78.914c2.872-0.082,4.348,1.299,4.429,4.144c0.01,0.346,0,0.717-0.03,1.112l-5.549,0.158
				c0.045,1.586,0.477,2.367,1.297,2.344l0.087-0.003c0.718-0.063,1.067-0.484,1.045-1.262c-0.005-0.167-0.027-0.352-0.066-0.555
				l2.954-0.13c0.067,2.351-1.277,3.581-4.033,3.69c-0.033,0.008-0.062,0.012-0.086,0.012c-2.624,0.075-3.979-1.371-4.063-4.339
				l-0.008-0.278C403.467,80.622,404.808,78.99,407.499,78.914z M406.001,82.633l2.806-0.079l-0.006-0.222
				c-0.032-1.123-0.475-1.673-1.327-1.648C406.556,80.71,406.064,81.36,406.001,82.633z"/>
			<path fill="#FFFFFF" d="M415.015,78.458l0.167,1.506c0.325-0.812,1.228-1.245,2.709-1.3l0.05-0.002
				c1.457-0.041,2.462,0.357,3.016,1.192c0.381,0.57,0.602,1.923,0.663,4.057c0.03,1.049,0.02,2.291-0.031,3.725l-3.004,0.086
				c0.054-1.909,0.065-3.389,0.035-4.438c-0.015-0.524-0.039-0.943-0.073-1.257c-0.109-0.923-0.52-1.375-1.231-1.354
				c-0.712,0.021-1.152,0.28-1.32,0.778l0.316,6.707l-2.917,0.102c-0.081-2.838-0.3-6.021-0.658-9.55L415.015,78.458z"/>
			<path fill="#FFFFFF" d="M432.367,83.902l2.959,0.055c0.063,2.228-1.283,3.395-4.038,3.504c-0.033,0.007-0.062,0.012-0.087,0.013
				c-2.624,0.074-3.978-1.372-4.062-4.34l-0.008-0.277c-0.008-3.188,1.346-4.834,4.06-4.942l0.099-0.003
				c2.5-0.071,3.78,0.962,3.841,3.097c0.003,0.123,0.002,0.246-0.002,0.37l-2.666,0.225l-0.006-0.223
				c-0.032-1.123-0.475-1.673-1.327-1.648c-0.869,0.024-1.278,0.948-1.226,2.768l0.009,0.306c0.106,1.967,0.573,2.938,1.4,2.915
				l0.075-0.002c0.719-0.064,1.067-0.485,1.045-1.263C432.428,84.288,432.406,84.104,432.367,83.902z"/>
			<path fill="#FFFFFF" d="M440.561,77.972c2.814-0.08,4.263,1.336,4.346,4.248c0.003,0.117,0.002,0.234-0.002,0.352
				c-0.026,3.157-1.479,4.791-4.358,4.903c-0.033,0.008-0.066,0.012-0.099,0.013c-2.739,0.078-4.152-1.372-4.237-4.353l-0.007-0.26
				C436.194,79.689,437.647,78.055,440.561,77.972z M440.211,80.094c-0.517,0.15-0.859,0.664-1.025,1.538
				c-0.101,0.522-0.144,1.045-0.129,1.569c0.01,0.353,0.045,0.706,0.105,1.062c0.157,0.885,0.597,1.333,1.318,1.343l0.087-0.003
				c0.671-0.019,1.121-0.362,1.35-1.029c0.191-0.556,0.276-1.208,0.255-1.962c-0.005-0.185-0.015-0.373-0.029-0.564
				c-0.095-0.991-0.311-1.605-0.649-1.843c-0.211-0.142-0.461-0.209-0.751-0.2C440.577,80.009,440.4,80.039,440.211,80.094z"/>
			<path fill="#FFFFFF" d="M449.22,87.08l-3.085,0.301c-0.025-2.042-0.065-4.008-0.119-5.897c-0.076-2.651-0.18-5.152-0.312-7.502
				l3.041-0.124c0.01,1.513,0.038,3.065,0.083,4.657C448.905,81.26,449.036,84.115,449.22,87.08z"/>
			<path fill="#FFFFFF" d="M454.391,77.578c2.814-0.08,4.263,1.335,4.346,4.247c0.003,0.117,0.002,0.235-0.002,0.353
				c-0.026,3.156-1.479,4.791-4.358,4.903c-0.033,0.008-0.066,0.012-0.099,0.013c-2.74,0.078-4.152-1.372-4.237-4.353l-0.007-0.26
				C450.025,79.295,451.478,77.661,454.391,77.578z M454.042,79.7c-0.518,0.15-0.86,0.663-1.025,1.538
				c-0.101,0.521-0.144,1.045-0.129,1.569c0.01,0.353,0.045,0.705,0.105,1.062c0.157,0.885,0.597,1.332,1.318,1.342l0.087-0.002
				c0.67-0.02,1.121-0.362,1.35-1.029c0.191-0.556,0.276-1.208,0.255-1.962c-0.005-0.185-0.015-0.373-0.029-0.564
				c-0.095-0.991-0.311-1.605-0.648-1.844c-0.211-0.142-0.462-0.208-0.751-0.2C454.408,79.615,454.231,79.645,454.042,79.7z"/>
			<path fill="#FFFFFF" d="M461.29,77.187l0.092,1.479c0.426-0.722,0.931-1.178,1.514-1.368c0.345-0.108,0.695-0.168,1.051-0.178
				c0.265-0.008,0.531,0.01,0.797,0.052c0.648,0.105,1.122,0.585,1.419,1.44c0.196-0.678,0.556-1.138,1.079-1.377
				c0.523-0.241,1.108-0.373,1.753-0.398l0.049-0.001c0.629-0.019,1.237,0.079,1.823,0.291c0.594,0.218,1.056,0.646,1.384,1.28
				c0.329,0.637,0.518,1.516,0.566,2.637l0.153,5.378l-2.681,0.123c0.05-2.033,0.055-3.762,0.014-5.188
				c-0.041-1.425-0.427-2.184-1.158-2.273c-0.108-0.01-0.212-0.013-0.311-0.01c-0.579,0.017-1.019,0.307-1.317,0.871
				c-0.031,0.644-0.035,1.394-0.01,2.251c0.033,1.166,0.118,2.526,0.253,4.077l-3.104,0.107c0.048-2.392,0.057-4.132,0.025-5.225
				l-0.003-0.111c-0.039-1.079-0.341-1.639-0.905-1.678l-0.161,0.004c-0.505,0.015-0.987,0.244-1.447,0.689l0.218,6.774
				l-2.928,0.167l-0.043-1.518c-0.077-2.69-0.207-5.376-0.391-8.058L461.29,77.187z"/>
			<path fill="#FFFFFF" d="M476.724,73.347c-0.038,1.861-0.037,3.476,0.002,4.845c0.421-0.598,0.971-0.956,1.646-1.074
				c0.116-0.01,0.227-0.016,0.335-0.02c2.698-0.076,4.118,1.337,4.258,4.242l0.005,0.166c0.083,2.913-1.312,4.409-4.184,4.49
				c-0.687,0.02-1.346-0.305-1.978-0.971l-0.059,1.418l-2.942,0.075c-0.023-2.259-0.064-4.432-0.124-6.518
				c-0.065-2.289-0.152-4.475-0.262-6.561L476.724,73.347z M476.775,79.923l0.029,3.203c0.449,0.642,1.004,0.953,1.667,0.935
				c0.075-0.002,0.149-0.007,0.223-0.015c0.759-0.103,1.16-0.877,1.202-2.322c0.003-0.149,0.004-0.291,0-0.427
				c-0.034-1.185-0.376-1.881-1.028-2.092c-0.201-0.062-0.396-0.091-0.587-0.085C477.759,79.135,477.257,79.403,476.775,79.923z"/>
			<path fill="#FFFFFF" d="M487.232,74.512c0.011,0.377-0.158,0.703-0.507,0.977c-0.349,0.276-0.775,0.421-1.28,0.436
				c-0.497,0.014-0.927-0.106-1.29-0.362c-0.363-0.253-0.55-0.569-0.561-0.946c-0.011-0.37,0.158-0.692,0.506-0.969
				c0.349-0.275,0.771-0.421,1.268-0.435c0.505-0.015,0.939,0.106,1.302,0.361C487.035,73.829,487.222,74.142,487.232,74.512z
				 M484.238,86.286c-0.161-3.608-0.278-6.726-0.354-9.354l3.125-0.228c-0.028,2.521-0.006,5.023,0.065,7.51
				c0.019,0.667,0.042,1.329,0.069,1.989L484.238,86.286z"/>
			<path fill="#FFFFFF" d="M492.772,76.216c2.727,0.033,4.117,1.016,4.172,2.946l0.188,6.571l-2.892,0.12l-0.125-0.877
				c-0.581,0.522-1.364,0.798-2.349,0.826c-0.422,0.012-0.879-0.023-1.37-0.108c-1.473-0.229-2.229-1.054-2.27-2.474
				c-0.005-0.173,0.002-0.358,0.021-0.557c0.124-1.467,1.498-2.238,4.122-2.312c0.504-0.015,1.06-0.002,1.666,0.035l-0.031-1.072
				c-0.025-0.871-0.405-1.295-1.142-1.274l-0.05,0.002c-0.059-0.004-0.112-0.007-0.162-0.005c-0.803,0.022-1.19,0.522-1.162,1.497
				l0.004,0.14l-2.96-0.102c-0.062-2.153,1.298-3.271,4.079-3.35L492.772,76.216z M494.024,83.497l-0.046-1.629
				c-0.357-0.045-0.681-0.063-0.971-0.056c-0.753,0.021-1.261,0.225-1.523,0.607c-0.159,0.233-0.235,0.449-0.23,0.647
				c0.007,0.246,0.145,0.462,0.416,0.646c0.211,0.142,0.482,0.208,0.814,0.198C492.905,83.899,493.418,83.762,494.024,83.497z"/>
		</g>
	</g>
</g>
</svg>
