<?xml version="1.0" encoding="utf-8"?>
<!-- Generator: Adobe Illustrator 16.0.0, SVG Export Plug-In . SVG Version: 6.00 Build 0)  -->
<!DOCTYPE svg PUBLIC "-//W3C//DTD SVG 1.1//EN" "http://www.w3.org/Graphics/SVG/1.1/DTD/svg11.dtd">
<svg version="1.1" id="Capa_1" xmlns="http://www.w3.org/2000/svg" xmlns:xlink="http://www.w3.org/1999/xlink" x="0px" y="0px"
	 width="841.438px" height="280.253px" viewBox="0 0 841.438 280.253" enable-background="new 0 0 841.438 280.253"
	 xml:space="preserve">
<g>
	<g>
		<g>
			<path fill="#6F3A89" d="M253.521,16.314c-0.538,0.259-1.812,0.577-3.425,0.577c-4.64,0-7.029-2.907-7.029-6.73
				c0-4.58,3.266-7.108,7.327-7.108c1.573,0,2.769,0.299,3.306,0.598l-0.637,2.389c-0.598-0.259-1.454-0.497-2.549-0.497
				c-2.39,0-4.262,1.453-4.262,4.44c0,2.688,1.593,4.381,4.281,4.381c0.937,0,1.932-0.18,2.549-0.438L253.521,16.314z"/>
			<path fill="#6F3A89" d="M264.676,11.694c0,3.564-2.528,5.197-5.137,5.197c-2.848,0-5.038-1.871-5.038-5.018
				c0-3.166,2.071-5.178,5.217-5.178C262.685,6.696,264.676,8.748,264.676,11.694z M257.627,11.794c0,1.673,0.697,2.928,1.991,2.928
				c1.195,0,1.932-1.175,1.932-2.947c0-1.434-0.558-2.907-1.932-2.907C258.185,8.867,257.627,10.36,257.627,11.794z"/>
			<path fill="#6F3A89" d="M266.552,10.042c0-1.215-0.04-2.23-0.08-3.106h2.569l0.119,1.314h0.06
				c0.418-0.638,1.295-1.554,2.947-1.554c1.274,0,2.25,0.657,2.668,1.673h0.04c0.379-0.518,0.797-0.916,1.274-1.194
				c0.538-0.299,1.135-0.479,1.852-0.479c1.872,0,3.286,1.314,3.286,4.242v5.734h-2.947v-5.297c0-1.414-0.458-2.23-1.434-2.23
				c-0.717,0-1.194,0.479-1.414,1.056c-0.06,0.219-0.1,0.518-0.1,0.776v5.695h-2.947v-5.476c0-1.215-0.438-2.052-1.413-2.052
				c-0.777,0-1.235,0.598-1.414,1.075c-0.1,0.239-0.119,0.519-0.119,0.777v5.675h-2.947V10.042z"/>
			<path fill="#6F3A89" d="M283.682,10.201c0-1.274-0.04-2.35-0.08-3.266h2.629l0.14,1.354h0.039
				c0.717-1.016,1.832-1.573,3.246-1.573c2.131,0,4.042,1.852,4.042,4.958c0,3.544-2.25,5.217-4.42,5.217
				c-1.175,0-2.091-0.478-2.529-1.115h-0.04v4.839h-3.026V10.201z M286.708,12.491c0,0.239,0.021,0.438,0.06,0.637
				c0.199,0.816,0.896,1.435,1.772,1.435c1.314,0,2.091-1.096,2.091-2.748c0-1.554-0.697-2.729-2.051-2.729
				c-0.856,0-1.613,0.638-1.812,1.533c-0.039,0.159-0.06,0.358-0.06,0.538V12.491z"/>
			<path fill="#6F3A89" d="M305.271,11.694c0,3.564-2.529,5.197-5.138,5.197c-2.848,0-5.038-1.871-5.038-5.018
				c0-3.166,2.071-5.178,5.217-5.178C303.279,6.696,305.271,8.748,305.271,11.694z M298.222,11.794c0,1.673,0.697,2.928,1.991,2.928
				c1.195,0,1.932-1.175,1.932-2.947c0-1.434-0.558-2.907-1.932-2.907C298.779,8.867,298.222,10.36,298.222,11.794z"/>
			<path fill="#6F3A89" d="M307.146,10.042c0-1.215-0.04-2.23-0.08-3.106h2.629l0.14,1.354h0.06
				c0.398-0.638,1.374-1.573,3.007-1.573c1.991,0,3.484,1.334,3.484,4.201v5.755h-3.026v-5.396c0-1.254-0.438-2.11-1.533-2.11
				c-0.837,0-1.335,0.577-1.554,1.135c-0.079,0.199-0.1,0.478-0.1,0.757v5.615h-3.026V10.042z"/>
			<path fill="#6F3A89" d="M321.149,12.77c0.079,1.255,1.334,1.853,2.747,1.853c1.036,0,1.872-0.14,2.688-0.418l0.398,2.051
				c-0.996,0.418-2.21,0.617-3.524,0.617c-3.306,0-5.197-1.912-5.197-4.958c0-2.47,1.533-5.197,4.918-5.197
				c3.146,0,4.342,2.449,4.342,4.858c0,0.518-0.061,0.976-0.1,1.194H321.149z M324.713,10.699c0-0.737-0.318-1.972-1.712-1.972
				c-1.274,0-1.792,1.175-1.872,1.972H324.713z"/>
			<path fill="#6F3A89" d="M329.337,10.042c0-1.215-0.04-2.23-0.08-3.106h2.629l0.14,1.354h0.06
				c0.398-0.638,1.374-1.573,3.007-1.573c1.991,0,3.484,1.334,3.484,4.201v5.755h-3.026v-5.396c0-1.254-0.438-2.11-1.533-2.11
				c-0.837,0-1.335,0.577-1.554,1.135c-0.079,0.199-0.1,0.478-0.1,0.757v5.615h-3.026V10.042z"/>
			<path fill="#6F3A89" d="M344.274,4.307v2.629h2.171v2.23h-2.171v3.524c0,1.175,0.299,1.712,1.195,1.712
				c0.418,0,0.617-0.02,0.896-0.079l0.021,2.29c-0.379,0.14-1.115,0.259-1.952,0.259c-0.976,0-1.792-0.339-2.29-0.836
				c-0.558-0.578-0.836-1.514-0.836-2.888V9.166h-1.294v-2.23h1.294V5.123L344.274,4.307z"/>
			<path fill="#6F3A89" d="M350.431,12.77c0.079,1.255,1.334,1.853,2.747,1.853c1.036,0,1.872-0.14,2.688-0.418l0.398,2.051
				c-0.996,0.418-2.21,0.617-3.524,0.617c-3.306,0-5.197-1.912-5.197-4.958c0-2.47,1.533-5.197,4.918-5.197
				c3.146,0,4.342,2.449,4.342,4.858c0,0.518-0.061,0.976-0.1,1.194H350.431z M353.994,10.699c0-0.737-0.318-1.972-1.712-1.972
				c-1.274,0-1.792,1.175-1.872,1.972H353.994z"/>
			<path fill="#6F3A89" d="M372.08,2.535v11.23c0,1.095,0.04,2.25,0.08,2.907h-2.688l-0.12-1.414h-0.06
				c-0.597,1.075-1.792,1.633-3.046,1.633c-2.311,0-4.162-1.971-4.162-4.998c-0.02-3.285,2.031-5.197,4.36-5.197
				c1.215,0,2.131,0.438,2.569,1.096h0.04V2.535H372.08z M369.054,11.058c0-0.159,0-0.379-0.04-0.558
				c-0.18-0.797-0.837-1.474-1.772-1.474c-1.394,0-2.091,1.234-2.091,2.768c0,1.653,0.816,2.688,2.071,2.688
				c0.876,0,1.593-0.598,1.771-1.453c0.04-0.22,0.061-0.458,0.061-0.697V11.058z"/>
			<path fill="#6F3A89" d="M376.844,12.77c0.079,1.255,1.334,1.853,2.747,1.853c1.036,0,1.872-0.14,2.688-0.418l0.398,2.051
				c-0.996,0.418-2.21,0.617-3.524,0.617c-3.306,0-5.197-1.912-5.197-4.958c0-2.47,1.533-5.197,4.918-5.197
				c3.146,0,4.342,2.449,4.342,4.858c0,0.518-0.061,0.976-0.1,1.194H376.844z M380.407,10.699c0-0.737-0.318-1.972-1.712-1.972
				c-1.274,0-1.792,1.175-1.872,1.972H380.407z"/>
			<path fill="#6F3A89" d="M392.28,13.228l-0.956,3.445h-3.126l4.082-13.421h3.982l4.182,13.421h-3.285l-1.036-3.445H392.28z
				 M395.686,10.958L394.85,8.11c-0.239-0.797-0.479-1.792-0.678-2.589h-0.04c-0.198,0.797-0.397,1.812-0.617,2.589l-0.796,2.848
				H395.686z"/>
			<path fill="#6F3A89" d="M405.107,4.307v2.629h2.171v2.23h-2.171v3.524c0,1.175,0.299,1.712,1.195,1.712
				c0.418,0,0.617-0.02,0.896-0.079l0.021,2.29c-0.379,0.14-1.115,0.259-1.952,0.259c-0.976,0-1.792-0.339-2.29-0.836
				c-0.557-0.578-0.836-1.514-0.836-2.888V9.166h-1.294v-2.23h1.294V5.123L405.107,4.307z"/>
			<path fill="#6F3A89" d="M411.264,12.77c0.079,1.255,1.334,1.853,2.747,1.853c1.036,0,1.872-0.14,2.688-0.418l0.398,2.051
				c-0.996,0.418-2.21,0.617-3.524,0.617c-3.306,0-5.197-1.912-5.197-4.958c0-2.47,1.533-5.197,4.918-5.197
				c3.146,0,4.342,2.449,4.342,4.858c0,0.518-0.061,0.976-0.1,1.194H411.264z M414.827,10.699c0-0.737-0.318-1.972-1.712-1.972
				c-1.274,0-1.792,1.175-1.872,1.972H414.827z"/>
			<path fill="#6F3A89" d="M419.451,10.042c0-1.215-0.04-2.23-0.08-3.106H422l0.14,1.354h0.06c0.398-0.638,1.374-1.573,3.007-1.573
				c1.991,0,3.484,1.334,3.484,4.201v5.755h-3.026v-5.396c0-1.254-0.438-2.11-1.533-2.11c-0.837,0-1.335,0.577-1.554,1.135
				c-0.079,0.199-0.1,0.478-0.1,0.757v5.615h-3.026V10.042z"/>
			<path fill="#6F3A89" d="M438.432,16.414c-0.537,0.259-1.553,0.458-2.708,0.458c-3.146,0-5.157-1.932-5.157-4.979
				c0-2.848,1.951-5.177,5.575-5.177c0.797,0,1.673,0.139,2.311,0.378l-0.479,2.25c-0.358-0.159-0.896-0.299-1.692-0.299
				c-1.593,0-2.629,1.136-2.608,2.729c0,1.772,1.194,2.728,2.668,2.728c0.717,0,1.274-0.119,1.732-0.318L438.432,16.414z"/>
			<path fill="#6F3A89" d="M443.233,4.228c0,0.836-0.617,1.514-1.633,1.514c-0.956,0-1.573-0.678-1.573-1.514
				c0-0.856,0.638-1.514,1.613-1.514S443.214,3.371,443.233,4.228z M440.107,16.673V6.936h3.026v9.737H440.107z"/>
			<path fill="#6F3A89" d="M455.184,11.694c0,3.564-2.529,5.197-5.138,5.197c-2.848,0-5.038-1.871-5.038-5.018
				c0-3.166,2.071-5.178,5.217-5.178C453.191,6.696,455.184,8.748,455.184,11.694z M448.134,11.794c0,1.673,0.697,2.928,1.991,2.928
				c1.195,0,1.932-1.175,1.932-2.947c0-1.434-0.558-2.907-1.932-2.907C448.691,8.867,448.134,10.36,448.134,11.794z M453.252,2.694
				l-2.43,3.026h-2.071l1.713-3.026H453.252z"/>
			<path fill="#6F3A89" d="M457.059,10.042c0-1.215-0.04-2.23-0.08-3.106h2.629l0.14,1.354h0.06
				c0.398-0.638,1.374-1.573,3.007-1.573c1.991,0,3.484,1.334,3.484,4.201v5.755h-3.026v-5.396c0-1.254-0.438-2.11-1.533-2.11
				c-0.837,0-1.335,0.577-1.554,1.135c-0.079,0.199-0.1,0.478-0.1,0.757v5.615h-3.026V10.042z"/>
			<path fill="#6F3A89" d="M475.901,3.252v13.421h-3.027V3.252H475.901z"/>
			<path fill="#6F3A89" d="M478.491,10.042c0-1.215-0.04-2.23-0.08-3.106h2.629l0.14,1.354h0.06
				c0.398-0.638,1.374-1.573,3.007-1.573c1.991,0,3.484,1.334,3.484,4.201v5.755h-3.026v-5.396c0-1.254-0.438-2.11-1.533-2.11
				c-0.837,0-1.335,0.577-1.554,1.135c-0.079,0.199-0.1,0.478-0.1,0.757v5.615h-3.026V10.042z"/>
			<path fill="#6F3A89" d="M493.429,4.307v2.629h2.171v2.23h-2.171v3.524c0,1.175,0.299,1.712,1.195,1.712
				c0.418,0,0.617-0.02,0.896-0.079l0.021,2.29c-0.379,0.14-1.115,0.259-1.952,0.259c-0.976,0-1.792-0.339-2.29-0.836
				c-0.558-0.578-0.836-1.514-0.836-2.888V9.166h-1.294v-2.23h1.294V5.123L493.429,4.307z"/>
			<path fill="#6F3A89" d="M499.585,12.77c0.079,1.255,1.334,1.853,2.747,1.853c1.036,0,1.872-0.14,2.688-0.418l0.398,2.051
				c-0.996,0.418-2.21,0.617-3.524,0.617c-3.306,0-5.197-1.912-5.197-4.958c0-2.47,1.533-5.197,4.918-5.197
				c3.146,0,4.342,2.449,4.342,4.858c0,0.518-0.061,0.976-0.1,1.194H499.585z M503.148,10.699c0-0.737-0.318-1.972-1.712-1.972
				c-1.274,0-1.792,1.175-1.872,1.972H503.148z"/>
			<path fill="#6F3A89" d="M516.992,15.259c0,1.872-0.379,3.405-1.494,4.381c-1.055,0.916-2.509,1.195-3.942,1.195
				c-1.294,0-2.629-0.259-3.505-0.737l0.598-2.31c0.617,0.358,1.673,0.736,2.827,0.736c1.435,0,2.529-0.757,2.529-2.568v-0.617
				h-0.04c-0.577,0.796-1.513,1.254-2.628,1.254c-2.41,0-4.122-1.951-4.122-4.739c0-3.146,2.011-5.137,4.421-5.137
				c1.334,0,2.17,0.577,2.668,1.394h0.04l0.1-1.175h2.628c-0.04,0.637-0.079,1.454-0.079,2.907V15.259z M513.965,10.898
				c0-0.18-0.02-0.379-0.06-0.558c-0.219-0.797-0.796-1.334-1.633-1.334c-1.115,0-1.991,0.995-1.991,2.768
				c0,1.453,0.717,2.589,1.972,2.589c0.796,0,1.413-0.518,1.612-1.215c0.08-0.239,0.1-0.558,0.1-0.816V10.898z"/>
			<path fill="#6F3A89" d="M519.425,10.142c0-1.434-0.021-2.37-0.08-3.206h2.589l0.119,1.792h0.08
				c0.498-1.434,1.673-2.031,2.629-2.031c0.278,0,0.418,0.021,0.637,0.06v2.848c-0.239-0.039-0.478-0.079-0.816-0.079
				c-1.115,0-1.872,0.597-2.071,1.533c-0.039,0.199-0.06,0.438-0.06,0.677v4.938h-3.026V10.142z"/>
			<path fill="#6F3A89" d="M534.88,14.323c0,0.916,0.04,1.812,0.159,2.35h-2.729l-0.179-0.976h-0.06
				c-0.638,0.776-1.633,1.194-2.788,1.194c-1.972,0-3.146-1.434-3.146-2.986c0-2.529,2.271-3.724,5.715-3.724v-0.12
				c0-0.537-0.278-1.274-1.771-1.274c-0.996,0-2.052,0.339-2.688,0.737l-0.558-1.952c0.677-0.378,2.011-0.876,3.783-0.876
				c3.246,0,4.262,1.912,4.262,4.222V14.323z M531.952,12.073c-1.593,0-2.827,0.378-2.827,1.533c0,0.776,0.518,1.154,1.194,1.154
				c0.737,0,1.374-0.497,1.573-1.114c0.04-0.159,0.06-0.339,0.06-0.519V12.073z"/>
			<path fill="#6F3A89" d="M537.293,2.535h3.026v14.138h-3.026V2.535z"/>
			<path fill="#6F3A89" d="M549.124,12.77c0.079,1.255,1.334,1.853,2.747,1.853c1.036,0,1.872-0.14,2.688-0.418l0.398,2.051
				c-0.996,0.418-2.21,0.617-3.524,0.617c-3.306,0-5.197-1.912-5.197-4.958c0-2.47,1.533-5.197,4.918-5.197
				c3.146,0,4.342,2.449,4.342,4.858c0,0.518-0.061,0.976-0.1,1.194H549.124z M552.688,10.699c0-0.737-0.318-1.972-1.712-1.972
				c-1.274,0-1.792,1.175-1.872,1.972H552.688z"/>
			<path fill="#6F3A89" d="M557.312,10.042c0-1.215-0.04-2.23-0.08-3.106h2.629L560,8.29h0.06c0.398-0.638,1.374-1.573,3.007-1.573
				c1.991,0,3.484,1.334,3.484,4.201v5.755h-3.026v-5.396c0-1.254-0.438-2.11-1.533-2.11c-0.837,0-1.335,0.577-1.554,1.135
				c-0.079,0.199-0.1,0.478-0.1,0.757v5.615h-3.026V10.042z"/>
			<path fill="#6F3A89" d="M573.207,13.547c0.796,0.418,2.07,0.836,3.365,0.836c1.394,0,2.131-0.577,2.131-1.453
				c0-0.837-0.638-1.314-2.251-1.872c-2.229-0.797-3.703-2.031-3.703-3.982c0-2.29,1.932-4.022,5.077-4.022
				c1.533,0,2.629,0.299,3.426,0.677l-0.678,2.43c-0.518-0.259-1.493-0.638-2.787-0.638c-1.314,0-1.952,0.617-1.952,1.295
				c0,0.855,0.737,1.234,2.489,1.892c2.37,0.876,3.465,2.11,3.465,4.002c0,2.25-1.713,4.162-5.396,4.162
				c-1.533,0-3.047-0.418-3.803-0.836L573.207,13.547z"/>
			<path fill="#6F3A89" d="M592.028,14.323c0,0.916,0.04,1.812,0.159,2.35h-2.729l-0.179-0.976h-0.06
				c-0.638,0.776-1.633,1.194-2.788,1.194c-1.972,0-3.146-1.434-3.146-2.986c0-2.529,2.271-3.724,5.715-3.724v-0.12
				c0-0.537-0.278-1.274-1.771-1.274c-0.996,0-2.052,0.339-2.688,0.737l-0.558-1.952c0.677-0.378,2.011-0.876,3.783-0.876
				c3.246,0,4.262,1.912,4.262,4.222V14.323z M589.101,12.073c-1.593,0-2.827,0.378-2.827,1.533c0,0.776,0.518,1.154,1.194,1.154
				c0.737,0,1.374-0.497,1.573-1.114c0.04-0.159,0.06-0.339,0.06-0.519V12.073z"/>
			<path fill="#6F3A89" d="M594.44,2.535h3.026v14.138h-3.026V2.535z"/>
			<path fill="#6F3A89" d="M609.098,13.547c0,1.274,0.04,2.31,0.079,3.126h-2.628l-0.14-1.374h-0.06
				c-0.378,0.598-1.294,1.593-3.047,1.593c-1.991,0-3.425-1.234-3.425-4.241V6.936h3.026v5.237c0,1.413,0.458,2.27,1.533,2.27
				c0.837,0,1.335-0.577,1.514-1.055c0.08-0.18,0.12-0.398,0.12-0.657V6.936h3.026V13.547z"/>
			<path fill="#6F3A89" d="M620.97,2.535v11.23c0,1.095,0.04,2.25,0.08,2.907h-2.688l-0.12-1.414h-0.06
				c-0.597,1.075-1.792,1.633-3.046,1.633c-2.311,0-4.162-1.971-4.162-4.998c-0.021-3.285,2.031-5.197,4.36-5.197
				c1.215,0,2.131,0.438,2.569,1.096h0.04V2.535H620.97z M617.943,11.058c0-0.159,0-0.379-0.04-0.558
				c-0.18-0.797-0.837-1.474-1.772-1.474c-1.394,0-2.091,1.234-2.091,2.768c0,1.653,0.816,2.688,2.071,2.688
				c0.876,0,1.593-0.598,1.771-1.453c0.04-0.22,0.061-0.458,0.061-0.697V11.058z"/>
			<path fill="#6F3A89" d="M634.734,16.414c-0.537,0.259-1.553,0.458-2.708,0.458c-3.146,0-5.157-1.932-5.157-4.979
				c0-2.848,1.951-5.177,5.575-5.177c0.797,0,1.673,0.139,2.311,0.378l-0.479,2.25c-0.358-0.159-0.896-0.299-1.692-0.299
				c-1.593,0-2.629,1.136-2.608,2.729c0,1.772,1.194,2.728,2.668,2.728c0.717,0,1.274-0.119,1.732-0.318L634.734,16.414z"/>
			<path fill="#6F3A89" d="M645.809,11.694c0,3.564-2.528,5.197-5.137,5.197c-2.848,0-5.038-1.871-5.038-5.018
				c0-3.166,2.071-5.178,5.217-5.178C643.817,6.696,645.809,8.748,645.809,11.694z M638.76,11.794c0,1.673,0.697,2.928,1.991,2.928
				c1.195,0,1.932-1.175,1.932-2.947c0-1.434-0.558-2.907-1.932-2.907C639.317,8.867,638.76,10.36,638.76,11.794z"/>
			<path fill="#6F3A89" d="M647.685,10.042c0-1.215-0.04-2.23-0.08-3.106h2.629l0.14,1.354h0.06
				c0.398-0.638,1.374-1.573,3.007-1.573c1.991,0,3.484,1.334,3.484,4.201v5.755h-3.026v-5.396c0-1.254-0.438-2.11-1.533-2.11
				c-0.837,0-1.335,0.577-1.554,1.135c-0.079,0.199-0.1,0.478-0.1,0.757v5.615h-3.026V10.042z"/>
			<path fill="#6F3A89" d="M665.711,12.77c0.079,1.255,1.334,1.853,2.747,1.853c1.036,0,1.872-0.14,2.688-0.418l0.398,2.051
				c-0.996,0.418-2.21,0.617-3.524,0.617c-3.306,0-5.197-1.912-5.197-4.958c0-2.47,1.533-5.197,4.918-5.197
				c3.146,0,4.342,2.449,4.342,4.858c0,0.518-0.061,0.976-0.1,1.194H665.711z M669.274,10.699c0-0.737-0.318-1.972-1.712-1.972
				c-1.274,0-1.792,1.175-1.872,1.972H669.274z"/>
			<path fill="#6F3A89" d="M673.898,10.042c0-1.215-0.04-2.23-0.08-3.106h2.629l0.14,1.354h0.06
				c0.398-0.638,1.374-1.573,3.007-1.573c1.991,0,3.484,1.334,3.484,4.201v5.755h-3.026v-5.396c0-1.254-0.438-2.11-1.533-2.11
				c-0.837,0-1.335,0.577-1.554,1.135c-0.079,0.199-0.1,0.478-0.1,0.757v5.615h-3.026V10.042z"/>
			<path fill="#6F3A89" d="M685.93,16.673V9.166h-1.295v-2.23h1.295V6.558c0-1.175,0.358-2.47,1.215-3.266
				c0.776-0.718,1.812-0.977,2.708-0.977c0.657,0,1.175,0.1,1.593,0.199l-0.119,2.33c-0.259-0.08-0.578-0.14-0.976-0.14
				c-0.996,0-1.414,0.776-1.414,1.732v0.498h1.951v2.23h-1.932v7.507H685.93z"/>
			<path fill="#6F3A89" d="M701.781,11.694c0,3.564-2.528,5.197-5.137,5.197c-2.848,0-5.038-1.871-5.038-5.018
				c0-3.166,2.071-5.178,5.217-5.178C699.79,6.696,701.781,8.748,701.781,11.694z M694.732,11.794c0,1.673,0.697,2.928,1.991,2.928
				c1.195,0,1.932-1.175,1.932-2.947c0-1.434-0.558-2.907-1.932-2.907C695.29,8.867,694.732,10.36,694.732,11.794z"/>
			<path fill="#6F3A89" d="M710.129,15.438h-0.04c-0.617,0.936-1.593,1.453-2.907,1.453c-2.111,0-4.022-1.871-4.022-4.958
				c0-3.505,2.21-5.237,4.301-5.237c1.255,0,2.171,0.458,2.729,1.374l0.04,0.021l0.079-1.155h2.907
				c-0.02,0.956-0.06,1.911-0.06,2.927v10.753h-3.026V15.438z M710.129,11.018c0-0.179-0.021-0.339-0.061-0.498
				c-0.159-0.776-0.816-1.453-1.752-1.453c-1.374,0-2.091,1.175-2.091,2.748c0,1.612,0.797,2.688,2.071,2.688
				c0.855,0,1.553-0.577,1.752-1.374c0.06-0.198,0.08-0.458,0.08-0.656V11.018z"/>
			<path fill="#6F3A89" d="M724.748,13.547c0,1.274,0.04,2.31,0.079,3.126h-2.628l-0.14-1.374H722
				c-0.378,0.598-1.294,1.593-3.047,1.593c-1.991,0-3.425-1.234-3.425-4.241V6.936h3.026v5.237c0,1.413,0.458,2.27,1.533,2.27
				c0.837,0,1.335-0.577,1.514-1.055c0.08-0.18,0.12-0.398,0.12-0.657V6.936h3.026V13.547z"/>
			<path fill="#6F3A89" d="M729.512,12.77c0.079,1.255,1.334,1.853,2.747,1.853c1.036,0,1.872-0.14,2.688-0.418l0.398,2.051
				c-0.996,0.418-2.21,0.617-3.524,0.617c-3.306,0-5.197-1.912-5.197-4.958c0-2.47,1.533-5.197,4.918-5.197
				c3.146,0,4.342,2.449,4.342,4.858c0,0.518-0.061,0.976-0.1,1.194H729.512z M733.075,10.699c0-0.737-0.318-1.972-1.712-1.972
				c-1.274,0-1.792,1.175-1.872,1.972H733.075z"/>
			<path fill="#6F3A89" d="M741.723,10.201c0-1.274-0.04-2.35-0.08-3.266h2.629l0.14,1.354h0.039
				c0.717-1.016,1.832-1.573,3.246-1.573c2.131,0,4.042,1.852,4.042,4.958c0,3.544-2.25,5.217-4.42,5.217
				c-1.175,0-2.091-0.478-2.529-1.115h-0.04v4.839h-3.026V10.201z M744.749,12.491c0,0.239,0.021,0.438,0.06,0.637
				c0.199,0.816,0.896,1.435,1.772,1.435c1.314,0,2.091-1.096,2.091-2.748c0-1.554-0.697-2.729-2.051-2.729
				c-0.856,0-1.613,0.638-1.812,1.533c-0.039,0.159-0.06,0.358-0.06,0.538V12.491z"/>
			<path fill="#6F3A89" d="M753.613,14.044c0.558,0.339,1.713,0.717,2.609,0.717c0.916,0,1.294-0.298,1.294-0.796
				c0-0.518-0.299-0.757-1.414-1.135c-2.031-0.678-2.808-1.772-2.787-2.928c0-1.832,1.553-3.206,3.962-3.206
				c1.136,0,2.131,0.279,2.729,0.578l-0.518,2.091c-0.438-0.239-1.295-0.558-2.111-0.558c-0.736,0-1.154,0.299-1.154,0.776
				s0.378,0.717,1.572,1.135c1.853,0.638,2.609,1.593,2.629,3.007c0,1.832-1.414,3.166-4.201,3.166c-1.274,0-2.41-0.299-3.146-0.696
				L753.613,14.044z"/>
			<path fill="#6F3A89" d="M765.405,4.228c0,0.836-0.617,1.514-1.633,1.514c-0.956,0-1.573-0.678-1.573-1.514
				c0-0.856,0.638-1.514,1.613-1.514S765.386,3.371,765.405,4.228z M762.279,16.673V6.936h3.026v9.737H762.279z"/>
			<path fill="#6F3A89" d="M775.044,16.414c-0.537,0.259-1.553,0.458-2.708,0.458c-3.146,0-5.157-1.932-5.157-4.979
				c0-2.848,1.951-5.177,5.575-5.177c0.797,0,1.673,0.139,2.311,0.378l-0.479,2.25c-0.358-0.159-0.896-0.299-1.692-0.299
				c-1.593,0-2.629,1.136-2.608,2.729c0,1.772,1.194,2.728,2.668,2.728c0.717,0,1.274-0.119,1.732-0.318L775.044,16.414z"/>
			<path fill="#6F3A89" d="M786.119,11.694c0,3.564-2.529,5.197-5.138,5.197c-2.848,0-5.038-1.871-5.038-5.018
				c0-3.166,2.071-5.178,5.217-5.178C784.127,6.696,786.119,8.748,786.119,11.694z M779.069,11.794c0,1.673,0.697,2.928,1.991,2.928
				c1.195,0,1.932-1.175,1.932-2.947c0-1.434-0.558-2.907-1.932-2.907C779.627,8.867,779.069,10.36,779.069,11.794z"/>
			<path fill="#6F3A89" d="M787.974,14.044c0.558,0.339,1.713,0.717,2.609,0.717c0.916,0,1.294-0.298,1.294-0.796
				c0-0.518-0.299-0.757-1.414-1.135c-2.031-0.678-2.808-1.772-2.787-2.928c0-1.832,1.553-3.206,3.962-3.206
				c1.136,0,2.131,0.279,2.729,0.578l-0.518,2.091c-0.438-0.239-1.295-0.558-2.111-0.558c-0.736,0-1.154,0.299-1.154,0.776
				s0.378,0.717,1.572,1.135c1.853,0.638,2.609,1.593,2.629,3.007c0,1.832-1.414,3.166-4.201,3.166c-1.274,0-2.41-0.299-3.146-0.696
				L787.974,14.044z"/>
			<path fill="#6F3A89" d="M806.258,11.694c0,3.564-2.529,5.197-5.138,5.197c-2.848,0-5.038-1.871-5.038-5.018
				c0-3.166,2.071-5.178,5.217-5.178C804.266,6.696,806.258,8.748,806.258,11.694z M799.208,11.794c0,1.673,0.697,2.928,1.991,2.928
				c1.195,0,1.932-1.175,1.932-2.947c0-1.434-0.558-2.907-1.932-2.907C799.766,8.867,799.208,10.36,799.208,11.794z"/>
			<path fill="#6F3A89" d="M815.5,16.414c-0.537,0.259-1.553,0.458-2.708,0.458c-3.146,0-5.157-1.932-5.157-4.979
				c0-2.848,1.951-5.177,5.575-5.177c0.797,0,1.673,0.139,2.311,0.378l-0.479,2.25c-0.358-0.159-0.896-0.299-1.692-0.299
				c-1.593,0-2.629,1.136-2.608,2.729c0,1.772,1.194,2.728,2.668,2.728c0.717,0,1.274-0.119,1.732-0.318L815.5,16.414z"/>
			<path fill="#6F3A89" d="M820.302,4.228c0,0.836-0.617,1.514-1.633,1.514c-0.956,0-1.573-0.678-1.573-1.514
				c0-0.856,0.638-1.514,1.613-1.514S820.282,3.371,820.302,4.228z M817.176,16.673V6.936h3.026v9.737H817.176z"/>
			<path fill="#6F3A89" d="M830.737,14.323c0,0.916,0.04,1.812,0.159,2.35h-2.729l-0.179-0.976h-0.06
				c-0.638,0.776-1.633,1.194-2.788,1.194c-1.972,0-3.146-1.434-3.146-2.986c0-2.529,2.271-3.724,5.715-3.724v-0.12
				c0-0.537-0.278-1.274-1.771-1.274c-0.996,0-2.052,0.339-2.688,0.737l-0.558-1.952c0.677-0.378,2.011-0.876,3.783-0.876
				c3.246,0,4.262,1.912,4.262,4.222V14.323z M827.81,12.073c-1.593,0-2.827,0.378-2.827,1.533c0,0.776,0.518,1.154,1.194,1.154
				c0.737,0,1.374-0.497,1.573-1.114c0.04-0.159,0.06-0.339,0.06-0.519V12.073z"/>
			<path fill="#6F3A89" d="M833.15,2.535h3.026v14.138h-3.026V2.535z"/>
			<path fill="#6F3A89" d="M376.366,34.104c0-1.274-0.04-2.35-0.08-3.266h2.629l0.14,1.354h0.039
				c0.717-1.016,1.832-1.573,3.246-1.573c2.131,0,4.042,1.852,4.042,4.958c0,3.544-2.25,5.217-4.42,5.217
				c-1.175,0-2.091-0.478-2.529-1.115h-0.04v4.839h-3.026V34.104z M379.393,36.395c0,0.239,0.021,0.438,0.06,0.637
				c0.199,0.816,0.896,1.435,1.772,1.435c1.314,0,2.091-1.096,2.091-2.748c0-1.554-0.697-2.729-2.051-2.729
				c-0.856,0-1.613,0.638-1.812,1.533c-0.039,0.159-0.06,0.358-0.06,0.538V36.395z"/>
			<path fill="#6F3A89" d="M396.382,38.227c0,0.916,0.04,1.812,0.159,2.35h-2.729l-0.179-0.976h-0.06
				c-0.638,0.776-1.633,1.194-2.788,1.194c-1.972,0-3.146-1.434-3.146-2.986c0-2.529,2.271-3.724,5.715-3.724v-0.12
				c0-0.537-0.278-1.274-1.771-1.274c-0.996,0-2.052,0.339-2.688,0.737l-0.558-1.952c0.677-0.378,2.011-0.876,3.783-0.876
				c3.246,0,4.262,1.912,4.262,4.222V38.227z M393.454,35.977c-1.593,0-2.827,0.378-2.827,1.533c0,0.776,0.518,1.155,1.194,1.155
				c0.737,0,1.374-0.498,1.573-1.115c0.04-0.16,0.06-0.339,0.06-0.519V35.977z"/>
			<path fill="#6F3A89" d="M398.795,34.045c0-1.434-0.021-2.37-0.08-3.206h2.589l0.119,1.792h0.08
				c0.498-1.434,1.673-2.031,2.629-2.031c0.278,0,0.418,0.021,0.637,0.06v2.848c-0.239-0.039-0.478-0.079-0.816-0.079
				c-1.115,0-1.872,0.597-2.071,1.533c-0.039,0.199-0.06,0.438-0.06,0.677v4.938h-3.026V34.045z"/>
			<path fill="#6F3A89" d="M414.25,38.227c0,0.916,0.04,1.812,0.159,2.35h-2.729l-0.179-0.976h-0.06
				c-0.638,0.776-1.633,1.194-2.788,1.194c-1.972,0-3.146-1.434-3.146-2.986c0-2.529,2.271-3.724,5.715-3.724v-0.12
				c0-0.537-0.278-1.274-1.771-1.274c-0.996,0-2.052,0.339-2.688,0.737l-0.558-1.952c0.677-0.378,2.011-0.876,3.783-0.876
				c3.246,0,4.262,1.912,4.262,4.222V38.227z M411.322,35.977c-1.593,0-2.827,0.378-2.827,1.533c0,0.776,0.518,1.155,1.194,1.155
				c0.737,0,1.374-0.498,1.573-1.115c0.04-0.16,0.06-0.339,0.06-0.519V35.977z"/>
			<path fill="#6F3A89" d="M420.687,26.438h3.026v14.138h-3.026V26.438z"/>
			<path fill="#6F3A89" d="M434.269,38.227c0,0.916,0.04,1.812,0.159,2.35h-2.729l-0.179-0.976h-0.06
				c-0.638,0.776-1.633,1.194-2.788,1.194c-1.972,0-3.146-1.434-3.146-2.986c0-2.529,2.271-3.724,5.715-3.724v-0.12
				c0-0.537-0.278-1.274-1.771-1.274c-0.996,0-2.052,0.339-2.688,0.737l-0.558-1.952c0.677-0.378,2.011-0.876,3.783-0.876
				c3.246,0,4.262,1.912,4.262,4.222V38.227z M431.341,35.977c-1.593,0-2.827,0.378-2.827,1.533c0,0.776,0.518,1.155,1.194,1.155
				c0.737,0,1.374-0.498,1.573-1.115c0.04-0.16,0.06-0.339,0.06-0.519V35.977z"/>
			<path fill="#6F3A89" d="M436.661,37.947c0.558,0.339,1.713,0.718,2.609,0.718c0.916,0,1.294-0.299,1.294-0.797
				c0-0.518-0.299-0.757-1.414-1.135c-2.031-0.678-2.808-1.772-2.787-2.928c0-1.832,1.553-3.206,3.962-3.206
				c1.136,0,2.131,0.279,2.729,0.578l-0.518,2.091c-0.438-0.239-1.295-0.558-2.111-0.558c-0.736,0-1.154,0.299-1.154,0.776
				s0.378,0.717,1.572,1.135c1.853,0.638,2.609,1.593,2.629,3.007c0,1.832-1.414,3.166-4.201,3.166c-1.274,0-2.41-0.299-3.146-0.696
				L436.661,37.947z"/>
			<path fill="#6F3A89" d="M451.6,30.839l1.314,4.521c0.238,0.836,0.398,1.593,0.558,2.369h0.06
				c0.159-0.796,0.318-1.533,0.537-2.369l1.255-4.521h3.187l-3.625,9.737h-3.026l-3.544-9.737H451.6z"/>
			<path fill="#6F3A89" d="M459.907,40.576v-9.737h3.026v9.737H459.907z M464.646,26.598l-2.43,3.026h-2.07l1.712-3.026H464.646z"/>
			<path fill="#6F3A89" d="M472.673,40.317c-0.537,0.259-1.553,0.458-2.708,0.458c-3.146,0-5.157-1.932-5.157-4.979
				c0-2.848,1.951-5.177,5.575-5.177c0.797,0,1.673,0.139,2.311,0.378l-0.479,2.25c-0.358-0.159-0.896-0.299-1.692-0.299
				c-1.593,0-2.629,1.136-2.608,2.729c0,1.772,1.194,2.728,2.668,2.728c0.717,0,1.274-0.119,1.732-0.318L472.673,40.317z"/>
			<path fill="#6F3A89" d="M478.052,28.21v2.629h2.171v2.23h-2.171v3.524c0,1.175,0.299,1.712,1.195,1.712
				c0.418,0,0.617-0.02,0.896-0.079l0.021,2.29c-0.379,0.14-1.115,0.259-1.952,0.259c-0.976,0-1.792-0.339-2.29-0.837
				c-0.558-0.577-0.836-1.513-0.836-2.887v-3.982h-1.294v-2.23h1.294v-1.812L478.052,28.21z"/>
			<path fill="#6F3A89" d="M485.103,28.131c0,0.836-0.617,1.514-1.633,1.514c-0.956,0-1.573-0.678-1.573-1.514
				c0-0.856,0.638-1.514,1.613-1.514S485.083,27.274,485.103,28.131z M481.977,40.576v-9.737h3.026v9.737H481.977z"/>
			<path fill="#6F3A89" d="M487.435,33.945c0-1.215-0.04-2.23-0.08-3.106h2.569l0.119,1.314h0.06
				c0.418-0.638,1.295-1.554,2.947-1.554c1.274,0,2.25,0.657,2.668,1.673h0.04c0.379-0.518,0.797-0.916,1.274-1.194
				c0.538-0.299,1.135-0.479,1.852-0.479c1.872,0,3.286,1.314,3.286,4.241v5.735h-2.947v-5.297c0-1.414-0.458-2.23-1.434-2.23
				c-0.717,0-1.194,0.479-1.414,1.056c-0.06,0.219-0.1,0.518-0.1,0.776v5.695h-2.947v-5.476c0-1.215-0.438-2.052-1.413-2.052
				c-0.777,0-1.235,0.598-1.414,1.075c-0.1,0.239-0.119,0.519-0.119,0.777v5.675h-2.947V33.945z"/>
			<path fill="#6F3A89" d="M512.669,38.227c0,0.916,0.04,1.812,0.159,2.35H510.1l-0.179-0.976h-0.06
				c-0.638,0.776-1.633,1.194-2.788,1.194c-1.972,0-3.146-1.434-3.146-2.986c0-2.529,2.271-3.724,5.715-3.724v-0.12
				c0-0.537-0.278-1.274-1.771-1.274c-0.996,0-2.052,0.339-2.688,0.737l-0.558-1.952c0.677-0.378,2.011-0.876,3.783-0.876
				c3.246,0,4.262,1.912,4.262,4.222V38.227z M509.741,35.977c-1.593,0-2.827,0.378-2.827,1.533c0,0.776,0.518,1.155,1.194,1.155
				c0.737,0,1.374-0.498,1.573-1.115c0.04-0.16,0.06-0.339,0.06-0.519V35.977z"/>
			<path fill="#6F3A89" d="M515.062,37.947c0.558,0.339,1.713,0.718,2.609,0.718c0.916,0,1.294-0.299,1.294-0.797
				c0-0.518-0.299-0.757-1.414-1.135c-2.031-0.678-2.808-1.772-2.787-2.928c0-1.832,1.553-3.206,3.962-3.206
				c1.136,0,2.131,0.279,2.729,0.578l-0.518,2.091c-0.438-0.239-1.295-0.558-2.111-0.558c-0.736,0-1.154,0.299-1.154,0.776
				s0.378,0.717,1.572,1.135c1.853,0.638,2.609,1.593,2.629,3.007c0,1.832-1.414,3.166-4.201,3.166c-1.274,0-2.41-0.299-3.146-0.696
				L515.062,37.947z"/>
			<path fill="#6F3A89" d="M537.189,26.438v11.23c0,1.095,0.04,2.25,0.08,2.907h-2.688l-0.12-1.414h-0.06
				c-0.597,1.075-1.792,1.633-3.046,1.633c-2.311,0-4.162-1.971-4.162-4.998c-0.02-3.285,2.031-5.197,4.36-5.197
				c1.215,0,2.131,0.438,2.569,1.096h0.04v-5.257H537.189z M534.163,34.961c0-0.159,0-0.379-0.04-0.558
				c-0.18-0.797-0.837-1.474-1.772-1.474c-1.394,0-2.091,1.234-2.091,2.768c0,1.653,0.816,2.688,2.071,2.688
				c0.876,0,1.593-0.598,1.771-1.453c0.04-0.22,0.061-0.458,0.061-0.697V34.961z"/>
			<path fill="#6F3A89" d="M541.952,36.673c0.079,1.255,1.334,1.853,2.747,1.853c1.036,0,1.872-0.14,2.688-0.418l0.398,2.051
				c-0.996,0.418-2.21,0.617-3.524,0.617c-3.306,0-5.197-1.912-5.197-4.958c0-2.47,1.533-5.197,4.918-5.197
				c3.146,0,4.342,2.449,4.342,4.858c0,0.518-0.061,0.976-0.1,1.194H541.952z M545.516,34.603c0-0.737-0.318-1.972-1.712-1.972
				c-1.274,0-1.792,1.175-1.872,1.972H545.516z"/>
			<path fill="#6F3A89" d="M550.14,26.438h3.026v14.138h-3.026V26.438z"/>
			<path fill="#6F3A89" d="M566.949,40.317c-0.537,0.259-1.553,0.458-2.708,0.458c-3.146,0-5.157-1.932-5.157-4.979
				c0-2.848,1.951-5.177,5.575-5.177c0.797,0,1.673,0.139,2.311,0.378l-0.479,2.25c-0.358-0.159-0.896-0.299-1.692-0.299
				c-1.593,0-2.629,1.136-2.608,2.729c0,1.772,1.194,2.728,2.668,2.728c0.717,0,1.274-0.119,1.732-0.318L566.949,40.317z"/>
			<path fill="#6F3A89" d="M578.023,35.598c0,3.564-2.529,5.197-5.138,5.197c-2.848,0-5.038-1.871-5.038-5.018
				c0-3.166,2.071-5.178,5.217-5.178C576.031,30.6,578.023,32.651,578.023,35.598z M570.974,35.697c0,1.673,0.697,2.928,1.991,2.928
				c1.195,0,1.932-1.175,1.932-2.947c0-1.434-0.558-2.907-1.932-2.907C571.531,32.771,570.974,34.264,570.974,35.697z"/>
			<path fill="#6F3A89" d="M579.899,33.945c0-1.215-0.04-2.23-0.08-3.106h2.629l0.14,1.354h0.06
				c0.398-0.638,1.374-1.573,3.007-1.573c1.991,0,3.484,1.334,3.484,4.201v5.755h-3.026V35.18c0-1.254-0.438-2.11-1.533-2.11
				c-0.837,0-1.335,0.577-1.554,1.135c-0.079,0.199-0.1,0.478-0.1,0.757v5.615h-3.026V33.945z"/>
			<path fill="#6F3A89" d="M591.931,40.576v-7.507h-1.295v-2.23h1.295v-0.418c0-1.115,0.537-2.35,1.474-3.106
				c0.956-0.757,2.15-1.096,3.703-1.096c1.454,0,2.769,0.299,3.744,0.816v13.541h-3.027V28.668
				c-0.219-0.119-0.597-0.198-1.154-0.198c-1.215,0-1.732,0.876-1.732,1.991v0.378h1.772v2.23h-1.753v7.507H591.931z"/>
			<path fill="#6F3A89" d="M606.41,28.131c0,0.836-0.617,1.514-1.633,1.514c-0.956,0-1.573-0.678-1.573-1.514
				c0-0.856,0.638-1.514,1.613-1.514S606.391,27.274,606.41,28.131z M603.284,40.576v-9.737h3.026v9.737H603.284z"/>
			<path fill="#6F3A89" d="M616.05,40.317c-0.537,0.259-1.553,0.458-2.708,0.458c-3.146,0-5.157-1.932-5.157-4.979
				c0-2.848,1.951-5.177,5.575-5.177c0.797,0,1.673,0.139,2.311,0.378l-0.479,2.25c-0.358-0.159-0.896-0.299-1.692-0.299
				c-1.593,0-2.629,1.136-2.608,2.729c0,1.772,1.194,2.728,2.668,2.728c0.717,0,1.274-0.119,1.732-0.318L616.05,40.317z"/>
			<path fill="#6F3A89" d="M621.429,28.21v2.629h2.171v2.23h-2.171v3.524c0,1.175,0.299,1.712,1.195,1.712
				c0.418,0,0.617-0.02,0.896-0.079l0.021,2.29c-0.379,0.14-1.115,0.259-1.952,0.259c-0.976,0-1.792-0.339-2.29-0.837
				c-0.558-0.577-0.836-1.513-0.836-2.887v-3.982h-1.294v-2.23h1.294v-1.812L621.429,28.21z"/>
			<path fill="#6F3A89" d="M634.873,35.598c0,3.564-2.529,5.197-5.138,5.197c-2.848,0-5.038-1.871-5.038-5.018
				c0-3.166,2.071-5.178,5.217-5.178C632.881,30.6,634.873,32.651,634.873,35.598z M627.823,35.697c0,1.673,0.697,2.928,1.991,2.928
				c1.195,0,1.932-1.175,1.932-2.947c0-1.434-0.558-2.907-1.932-2.907C628.381,32.771,627.823,34.264,627.823,35.697z"/>
			<path fill="#6F3A89" d="M648.876,38.227c0,0.916,0.04,1.812,0.159,2.35h-2.729l-0.179-0.976h-0.06
				c-0.638,0.776-1.633,1.194-2.788,1.194c-1.972,0-3.146-1.434-3.146-2.986c0-2.529,2.271-3.724,5.715-3.724v-0.12
				c0-0.537-0.278-1.274-1.771-1.274c-0.996,0-2.052,0.339-2.688,0.737l-0.558-1.952c0.677-0.378,2.011-0.876,3.783-0.876
				c3.246,0,4.262,1.912,4.262,4.222V38.227z M645.948,35.977c-1.593,0-2.827,0.378-2.827,1.533c0,0.776,0.518,1.155,1.194,1.155
				c0.737,0,1.374-0.498,1.573-1.115c0.04-0.16,0.06-0.339,0.06-0.519V35.977z"/>
			<path fill="#6F3A89" d="M651.289,34.045c0-1.434-0.021-2.37-0.08-3.206h2.589l0.119,1.792h0.08
				c0.498-1.434,1.673-2.031,2.629-2.031c0.278,0,0.418,0.021,0.637,0.06v2.848c-0.239-0.039-0.478-0.079-0.816-0.079
				c-1.115,0-1.872,0.597-2.071,1.533c-0.039,0.199-0.06,0.438-0.06,0.677v4.938h-3.026V34.045z"/>
			<path fill="#6F3A89" d="M658.858,33.945c0-1.215-0.04-2.23-0.08-3.106h2.569l0.119,1.314h0.06
				c0.418-0.638,1.295-1.554,2.947-1.554c1.274,0,2.25,0.657,2.668,1.673h0.04c0.379-0.518,0.797-0.916,1.274-1.194
				c0.538-0.299,1.135-0.479,1.852-0.479c1.872,0,3.286,1.314,3.286,4.241v5.735h-2.947v-5.297c0-1.414-0.458-2.23-1.434-2.23
				c-0.717,0-1.194,0.479-1.414,1.056c-0.06,0.219-0.1,0.518-0.1,0.776v5.695h-2.947v-5.476c0-1.215-0.438-2.052-1.413-2.052
				c-0.777,0-1.235,0.598-1.414,1.075c-0.1,0.239-0.119,0.519-0.119,0.777v5.675h-2.947V33.945z"/>
			<path fill="#6F3A89" d="M684.093,38.227c0,0.916,0.04,1.812,0.159,2.35h-2.729l-0.179-0.976h-0.06
				c-0.638,0.776-1.633,1.194-2.788,1.194c-1.972,0-3.146-1.434-3.146-2.986c0-2.529,2.271-3.724,5.715-3.724v-0.12
				c0-0.537-0.278-1.274-1.771-1.274c-0.996,0-2.052,0.339-2.688,0.737l-0.558-1.952c0.677-0.378,2.011-0.876,3.783-0.876
				c3.246,0,4.262,1.912,4.262,4.222V38.227z M681.165,35.977c-1.593,0-2.827,0.378-2.827,1.533c0,0.776,0.518,1.155,1.194,1.155
				c0.737,0,1.374-0.498,1.573-1.115c0.04-0.16,0.06-0.339,0.06-0.519V35.977z"/>
			<path fill="#6F3A89" d="M695.944,26.438v11.23c0,1.095,0.04,2.25,0.08,2.907h-2.688l-0.12-1.414h-0.06
				c-0.597,1.075-1.792,1.633-3.046,1.633c-2.311,0-4.162-1.971-4.162-4.998c-0.021-3.285,2.031-5.197,4.36-5.197
				c1.215,0,2.131,0.438,2.569,1.096h0.04v-5.257H695.944z M692.918,34.961c0-0.159,0-0.379-0.04-0.558
				c-0.18-0.797-0.837-1.474-1.772-1.474c-1.394,0-2.091,1.234-2.091,2.768c0,1.653,0.816,2.688,2.071,2.688
				c0.876,0,1.593-0.598,1.771-1.453c0.04-0.22,0.061-0.458,0.061-0.697V34.961z"/>
			<path fill="#6F3A89" d="M707.996,35.598c0,3.564-2.529,5.197-5.138,5.197c-2.848,0-5.038-1.871-5.038-5.018
				c0-3.166,2.071-5.178,5.217-5.178C706.004,30.6,707.996,32.651,707.996,35.598z M700.946,35.697c0,1.673,0.697,2.928,1.991,2.928
				c1.195,0,1.932-1.175,1.932-2.947c0-1.434-0.558-2.907-1.932-2.907C701.504,32.771,700.946,34.264,700.946,35.697z"/>
		</g>
	</g>
	<g>
		<rect y="88.633" fill="#83599A" width="37.461" height="46.845"/>
		<rect y="145.304" fill="#83599A" width="37.46" height="46.847"/>
		<g>
			<path fill="#FFFFFF" d="M18.215,102.681h-0.091l-5.134,2.789l-0.771-3.063l6.45-3.476h3.407v29.725h-3.861V102.681z"/>
		</g>
		<g>
			<path fill="#FFFFFF" d="M9.296,185.327v-2.47l3.135-3.063c7.54-7.226,10.993-11.067,10.993-15.549
				c0-3.018-1.408-5.808-5.814-5.808c-2.681,0-4.906,1.372-6.27,2.516l-1.271-2.836c1.999-1.691,4.951-3.018,8.312-3.018
				c6.36,0,9.04,4.39,9.04,8.643c0,5.487-3.952,9.924-10.176,15.96l-2.316,2.195v0.092h13.219v3.338H9.296z"/>
		</g>
		<rect y="202.047" fill="#83599A" width="37.463" height="46.846"/>
		<g>
			<path fill="#FFFFFF" d="M10.252,237.498c1.136,0.687,3.725,1.829,6.541,1.829c5.088,0,6.724-3.246,6.678-5.762
				c-0.045-4.161-3.771-5.945-7.632-5.945h-2.226v-3.018h2.226c2.907,0,6.587-1.51,6.587-5.03c0-2.378-1.499-4.482-5.179-4.482
				c-2.361,0-4.633,1.052-5.905,1.967l-1.09-2.927c1.59-1.144,4.588-2.286,7.768-2.286c5.814,0,8.449,3.476,8.449,7.088
				c0,3.109-1.862,5.716-5.451,7.042v0.092c3.634,0.687,6.541,3.43,6.587,7.592c0,4.756-3.725,8.917-10.766,8.917
				c-3.316,0-6.224-1.052-7.677-2.012L10.252,237.498z"/>
		</g>
	</g>
</g>
</svg>
