<?xml version="1.0" encoding="utf-8"?>
<!-- Generator: Adobe Illustrator 16.0.0, SVG Export Plug-In . SVG Version: 6.00 Build 0)  -->
<!DOCTYPE svg PUBLIC "-//W3C//DTD SVG 1.1//EN" "http://www.w3.org/Graphics/SVG/1.1/DTD/svg11.dtd">
<svg version="1.1" id="Capa_1" xmlns="http://www.w3.org/2000/svg" xmlns:xlink="http://www.w3.org/1999/xlink" x="0px" y="0px"
	 width="535.135px" height="138.031px" viewBox="0 0 535.135 138.031" enable-background="new 0 0 535.135 138.031"
	 xml:space="preserve">
<g>
	<path fill="#DC9B2F" d="M94.098,83.307l-5.306,0.125l-3.118,0.078l-7.069,0.17l-0.859-35.562l22.554-0.552l11.759-0.281v1.044
		c-0.154,2.61-1.636,3.14-4.175,2.703c-1.44-0.256-2.88-0.29-4.29-0.141c-7.289,0.783-13.756,6.616-15.245,14.171
		c-0.818,4.142-0.43,8.437,1.177,12.127C90.549,79.546,92.073,81.648,94.098,83.307z"/>
	<path fill="#ABC02F" d="M111.953,87.441c0,6.08,0.043,11.779-0.03,17.395l-3.87,0.1l-21.842,0.529L85.674,83.51l-0.147-5.854
		l-0.007-0.368l4.005-0.098c1.024,2.356,2.549,4.459,4.573,6.117c2.278,1.87,5.199,3.167,8.761,3.625
		c0.902,0.12,1.843,0.184,2.83,0.184C107.67,87.123,109.645,87.312,111.953,87.441z"/>
	<path fill="#DC9B2F" d="M115.804,110.9c0.051-3.959,0.043-14.1,0.035-18.252c-0.007-1.71-0.007-3.444-0.007-5.207v-3.67
		l-3.668-0.205c-0.712-0.041-1.396-0.084-2.053-0.135c-1.508-0.098-2.937-0.195-4.423-0.195c-0.79,0-1.553-0.05-2.335-0.149
		c-0.021,0-0.036-0.007-0.057-0.007c-3.831-0.502-6.735-2.242-8.84-5.014c-5.072-6.681-2.101-11.915-2.3-12.255l441.507-7.9
		l1.471,40.576L115.804,110.9z"/>
	<g>
		<path fill-rule="evenodd" clip-rule="evenodd" fill="#81AD38" d="M111.856,28.402c-0.022-0.069-0.049-0.133-0.07-0.198
			c-0.129-0.309-0.29-0.558-0.487-0.779c0,0-0.012-0.007-0.017-0.017c-0.63-0.66-1.632-0.955-3.111-0.928
			c-6.84,0.122-13.68,0.036-20.526,0.023c-0.419,0-0.821-0.005-1.187-0.023h-0.007c-3.986-0.156-4.312-1.175-2.753-5.522
			c3.107-8.677-1.359-17.693-10.002-20.226C72.451,0.366,71.217,0.146,70,0.052c-2.44-0.188-4.786,0.146-6.927,0.896
			c-7.128,2.503-11.976,9.639-10.235,17.716c1.7,7.877,1.7,7.859-6.754,7.816c-6.214-0.027-12.416-0.006-18.409-0.006v26.088
			c-0.5,2.525-2.1,2.934-5.493,1.764c-8.319-2.864-16.669,0.121-20.388,7.283c-3.032,5.838-2.154,13.297,2.142,18.209
			c4.181,4.779,11.627,6.608,17.826,4.367c3.668-1.327,5.245-1.293,5.84,0.926c0,0-0.012-0.006-0.019-0.006v26.004
			c0.466,0.076,0.92,0.217,1.374,0.217h0.279c6.98,0.046,13.972,0.029,20.952,0.129c1.124,0.016,1.957,0.121,2.551,0.357
			c1.426,0.567,1.453,1.889,0.845,4.484c-0.752,3.227-1.438,6.852-0.711,9.961c1.85,7.911,9.133,12.458,17.092,11.689
			c1.351-0.127,2.724-0.414,4.098-0.861c8.636-2.817,12.511-11.572,9.13-20.615c-1.409-3.788-0.839-4.658,3.217-4.658
			c0.503,0,0.964-0.144,1.387-0.384c1.332,0,2.649,0,3.958,0.007h3.115c0.802,0.007,1.601,0.007,2.393,0h0.875
			c0.662,0,1.325,0,1.989-0.007c0.344,0,0.687,0,1.031-0.005c0.635,0,1.263-0.006,1.897-0.01c0.344,0,0.693,0,1.036-0.008
			c0.663-0.006,1.327-0.012,1.984-0.022c0.304-0.007,0.613-0.007,0.916-0.012c0.644-0.005,1.291-0.017,1.938-0.036
			c0.314,0,0.622-0.01,0.938-0.018c0.703-0.01,1.967-1.571,1.989-2.428c0.164-6.943,0.093-13.899,0.093-21.449
			c-2.305-0.131-4.278-0.322-6.264-0.327c-0.983,0-1.921-0.065-2.824-0.181C91.155,85.437,86.428,74.812,88.35,65.061
			c1.483-7.549,7.957-13.39,15.246-14.169c1.41-0.153,2.845-0.11,4.285,0.141c2.539,0.437,4.022-0.095,4.177-2.703V47.24
			c-0.009-5.588-0.009-11.17,0.073-16.761C112.148,29.654,112.058,28.962,111.856,28.402z"/>
		<g>
			<g>
				<path fill="#FFFFFF" d="M34.547,90.305h11.012c3.392,0,5.088,2.082,5.088,6.243v0.329c-0.297,3.484-1.719,5.287-4.265,5.406
					c-5.084,0-9.092,0.07-12.024,0.209V98.52c1.678,0.1,3.648,0.149,5.912,0.149c1.589,0,3.325-0.024,5.211-0.075
					c1.381-0.02,2.07-0.687,2.07-2.001c0.008,0,0.012-0.005,0.012-0.015c0-1.305-0.884-1.957-2.65-1.957l-10.265,0.074
					L34.547,90.305z"/>
				<path fill="#FFFFFF" d="M39.146,86.242l1.814-0.149c-0.965-0.418-1.454-1.519-1.47-3.301v-0.06c0-1.752,0.513-2.947,1.537-3.584
					c0.697-0.439,2.33-0.658,4.898-0.658c1.262,0,2.754,0.055,4.476,0.164v3.615c-2.293-0.129-4.071-0.194-5.333-0.194
					c-0.631,0-1.136,0.015-1.514,0.045c-1.114,0.1-1.671,0.577-1.671,1.434s0.297,1.394,0.891,1.613l8.072-0.149l0.022,3.51
					c-3.414,0-7.248,0.154-11.501,0.463L39.146,86.242z"/>
				<path fill="#FFFFFF" d="M36.874,73.068c0.453,0,0.839,0.215,1.158,0.643s0.479,0.946,0.479,1.553
					c0,0.598-0.159,1.111-0.479,1.539s-0.705,0.643-1.158,0.643c-0.445,0-0.827-0.215-1.146-0.643s-0.479-0.941-0.479-1.539
					c0-0.606,0.16-1.125,0.479-1.553S36.429,73.068,36.874,73.068z M50.925,77.071c-4.342,0.069-8.095,0.104-11.256,0.104
					l-0.167-3.764c3.028,0.119,6.038,0.18,9.029,0.18c0.802,0,1.6-0.006,2.394-0.016V77.071z"/>
				<path fill="#FFFFFF" d="M35.115,60.955c2.509,0.061,5.14,0.09,7.894,0.09c2.509,0,5.121-0.024,7.838-0.074l0.012,3.54
					l-1.704,0.119c0.824,0.737,1.236,1.718,1.236,2.942c0,3.057-1.744,4.586-5.233,4.586c-0.074,0-0.148-0.006-0.223-0.016
					c-3.496-0.06-5.244-1.573-5.244-4.541c0-0.119,0.004-0.243,0.012-0.373c0.044-1.016,0.456-1.837,1.235-2.464
					c-1.647,0-3.589,0.055-5.822,0.164V60.955z M46.872,64.689l-3.853,0.075c-0.586,0.577-0.879,1.17-0.879,1.777
					c0,0.249,0.048,0.498,0.145,0.747c0.305,0.786,1.158,1.18,2.561,1.18c0.163,0,0.33-0.006,0.501-0.016
					c1.7-0.1,2.598-0.607,2.694-1.523c0.008-0.09,0.012-0.179,0.012-0.269C48.053,65.865,47.659,65.207,46.872,64.689z"/>
				<path fill="#FFFFFF" d="M39.112,53.996c0.133-3.275,1.361-4.914,3.685-4.914h7.905l0.045,3.48l-1.059,0.119
					c0.609,0.717,0.913,1.668,0.913,2.853c0,0.508-0.059,1.056-0.178,1.644c-0.326,1.762-1.344,2.643-3.051,2.643
					c-0.208,0-0.431-0.014-0.668-0.045c-1.759-0.198-2.639-1.876-2.639-5.033c0-0.607,0.033-1.273,0.101-2.001h-1.292
					c-1.047,0-1.569,0.443-1.569,1.329v0.061c-0.008,0.069-0.012,0.134-0.012,0.193c0,0.967,0.587,1.449,1.76,1.449h0.167
					l-0.223,3.555c-2.591,0-3.886-1.673-3.886-5.019V53.996z M47.907,52.741h-1.959c-0.067,0.429-0.101,0.817-0.101,1.165
					c0,0.906,0.227,1.523,0.68,1.852c0.274,0.199,0.53,0.299,0.768,0.299c0.297,0,0.561-0.158,0.791-0.478
					c0.178-0.249,0.267-0.572,0.267-0.971C48.353,54.101,48.204,53.479,47.907,52.741z"/>
				<path fill="#FFFFFF" d="M35.115,36.596c2.509,0.06,5.14,0.09,7.894,0.09c2.509,0,5.121-0.025,7.838-0.075l0.012,3.54
					l-1.704,0.119c0.824,0.737,1.236,1.718,1.236,2.942c0,3.058-1.744,4.585-5.233,4.585c-0.074,0-0.148-0.004-0.223-0.015
					c-3.496-0.06-5.244-1.573-5.244-4.54c0-0.119,0.004-0.244,0.012-0.373c0.044-1.016,0.456-1.838,1.235-2.465
					c-1.647,0-3.589,0.055-5.822,0.164V36.596z M46.872,40.33l-3.853,0.074c-0.586,0.577-0.879,1.17-0.879,1.777
					c0,0.249,0.048,0.498,0.145,0.746c0.305,0.787,1.158,1.181,2.561,1.181c0.163,0,0.33-0.005,0.501-0.015
					c1.7-0.1,2.598-0.607,2.694-1.523c0.008-0.09,0.012-0.18,0.012-0.27C48.053,41.504,47.659,40.848,46.872,40.33z"/>
			</g>
		</g>
		<g>
			<g>
				<path fill="#FFFFFF" d="M57.48,65.877c-0.092-0.818-0.137-1.576-0.137-2.271c0-2.441,0.595-4.202,1.784-5.28
					c1.52-1.378,3.46-2.203,5.821-2.477c0.841-0.095,1.665-0.144,2.471-0.144c1.445,0,2.837,0.15,4.173,0.451
					c2.087,0.477,3.661,1.419,4.723,2.824c0.86,1.174,1.29,2.674,1.29,4.502c0,0.355-0.009,0.73-0.027,1.126
					c-0.22,2.347-1.167,4.507-2.842,6.478c-1.675,1.973-4.571,4.793-8.689,8.463l11.998,0.062l-0.082,5.138
					c-5.254,0.177-12.025,0.266-20.317,0.266l-0.632-5.588c4.979-4.011,8.529-7.094,10.653-9.25c1.939-1.979,2.91-3.923,2.91-5.834
					V63.83c-0.201-2.046-1.354-3.069-3.459-3.069h-0.11c-1.83,0.041-2.745,1.282-2.745,3.726c0,0.463,0.027,0.961,0.082,1.493
					L57.48,65.877z"/>
			</g>
		</g>
	</g>
	<path fill="#CE6F28" d="M532.954,57.911c0,0-441.958,16.006-441.593,11.922c0.796-8.946,6.921-14.472,12.647-15.085
		c1.066-0.113,2.146-0.076,3.217,0.107c0.755,0.127,1.434,0.19,2.066,0.19c3.853,0,6.398-2.483,6.638-6.483l0.01-1.327V29.603
		l414.598-9.314l2.157,31.396L532.954,57.911z"/>
	<g>
		<g>
			<path fill="#FFFFFF" d="M142.395,64.084c0.003-1.73-0.021-3.498-0.072-5.307c-0.079-2.773-0.223-5.645-0.431-8.611
				c1.504-0.201,2.833-0.317,3.987-0.351c1.817-0.052,3.189,0.106,4.117,0.476c1.438,0.57,2.184,1.803,2.237,3.695l0.009,0.325
				c-0.029,2.079-0.621,3.427-1.777,4.042s-2.593,0.967-4.312,1.055c-0.003,0.205-0.001,0.415,0.005,0.632
				c0.031,1.091,0.143,2.381,0.335,3.868L142.395,64.084z M145.449,52.354l0.229,4.818c1.638-0.111,2.587-0.576,2.846-1.393
				c0.121-0.373,0.177-0.752,0.166-1.14c-0.013-0.454-0.114-0.917-0.305-1.393c-0.284-0.696-0.955-1.028-2.014-0.999
				C146.09,52.256,145.783,52.291,145.449,52.354z"/>
			<path fill="#FFFFFF" d="M154.025,63.91c-0.001-1.881-0.029-3.774-0.083-5.681c-0.083-2.919-0.229-5.864-0.438-8.839
				c1.364-0.145,2.588-0.231,3.673-0.262c3.015-0.086,4.949,0.27,5.801,1.067c0.799,0.747,1.211,1.584,1.237,2.511
				c0.013,0.421-0.051,0.857-0.188,1.308c-0.47,1.461-1.519,2.409-3.148,2.843c1.15,0.086,2.03,0.521,2.646,1.307
				c0.587,0.76,0.924,2.703,1.014,5.832l0.012,0.424l-3.993,0.152c0.02-0.828,0.021-1.572,0.002-2.229
				c-0.057-1.991-0.307-3.204-0.751-3.64c-0.509-0.484-1.103-0.718-1.781-0.698c-0.132,0.004-0.269,0.018-0.408,0.041
				c0.109,2.003,0.277,3.899,0.506,5.688L154.025,63.91z M157.062,51.588l0.213,4.219c1.638-0.106,2.667-0.551,3.086-1.332
				c0.227-0.414,0.334-0.814,0.323-1.203c-0.01-0.335-0.107-0.662-0.293-0.979c-0.333-0.549-1.13-0.807-2.392-0.771
				C157.71,51.531,157.397,51.553,157.062,51.588z"/>
			<path fill="#FFFFFF" d="M171.417,49.009c3.712-0.105,5.636,2.208,5.771,6.94c0.135,4.738-1.786,7.164-5.763,7.277
				s-6.036-2.284-6.176-7.194C165.119,51.471,167.177,49.13,171.417,49.009z M168.981,56.449c-0.005,0.172-0.004,0.336,0.001,0.494
				c0.07,2.478,0.882,3.693,2.434,3.649c1.648-0.047,2.433-1.474,2.353-4.28c-0.079-2.807-0.886-4.188-2.42-4.145
				C169.805,52.213,169.017,53.64,168.981,56.449z"/>
			<path fill="#FFFFFF" d="M189.126,54.08l-3,0.104c-0.093-1.668-0.683-2.529-1.77-2.584l-0.237,0.007
				c-0.97,0.027-1.741,0.526-2.313,1.496c-0.573,0.971-0.834,2.33-0.784,4.078l0.012,0.434c0.11,1.957,1.058,2.91,2.849,2.859
				c1.234-0.035,1.83-0.802,1.788-2.301c-0.005-0.15-0.014-0.305-0.026-0.463l-2.632,0.105l0.069-2.223l6.761-0.113l0.068,2.415
				l-1.348,0.058c0.098,3.432-1.688,5.199-5.355,5.304c-3.396,0.097-5.15-1.872-5.266-5.908c-0.01-0.335-0.006-0.687,0.01-1.056
				c0.174-4.748,2.127-7.274,5.86-7.578c0.185-0.012,0.36-0.02,0.528-0.025c3.113-0.088,4.714,1.432,4.803,4.561
				C189.15,53.514,189.145,53.79,189.126,54.08z"/>
			<path fill="#FFFFFF" d="M191.43,62.845c-0.001-1.881-0.03-3.774-0.084-5.681c-0.083-2.918-0.228-5.865-0.437-8.838
				c1.363-0.145,2.587-0.232,3.672-0.264c3.016-0.086,4.949,0.271,5.802,1.068c0.798,0.747,1.21,1.584,1.236,2.511
				c0.013,0.421-0.051,0.856-0.188,1.308c-0.47,1.461-1.519,2.408-3.147,2.843c1.149,0.086,2.03,0.521,2.645,1.306
				c0.587,0.76,0.924,2.704,1.014,5.833l0.012,0.424l-3.993,0.153c0.021-0.83,0.021-1.572,0.003-2.23
				c-0.057-1.991-0.308-3.205-0.752-3.639c-0.509-0.486-1.103-0.719-1.78-0.699c-0.133,0.004-0.27,0.018-0.409,0.041
				c0.109,2.003,0.277,3.899,0.506,5.688L191.43,62.845z M194.466,50.523l0.213,4.217c1.638-0.105,2.667-0.55,3.087-1.331
				c0.227-0.415,0.334-0.815,0.323-1.204c-0.01-0.334-0.107-0.66-0.293-0.978c-0.334-0.55-1.131-0.808-2.392-0.771
				C195.113,50.465,194.801,50.487,194.466,50.523z"/>
			<path fill="#FFFFFF" d="M202.279,62.279c1.497-5.66,2.702-10.457,3.614-14.391l4.958-0.201c1.332,4.028,2.857,8.615,4.575,13.764
				l-3.371,0.608l-1.179-3.706l-4.112,0.117l-0.996,4.064L202.279,62.279z M210.692,55.586c-0.499-1.406-1.297-3.084-2.394-5.033
				c-0.754,1.687-1.385,3.428-1.89,5.225L210.692,55.586z"/>
			<path fill="#FFFFFF" d="M220.046,47.534l3.373,10.128l1.992-9.529l6.033-0.123c-0.045,2.139-0.036,4.297,0.025,6.472
				c0.069,2.425,0.205,4.878,0.408,7.358l-3.843,0.308c-0.075-2.616-0.206-5.812-0.393-9.589l-1.909,8.727l-4.094,0.324
				l-2.912-9.271l0.217,9.467l-3.223,0.26c0-2.164-0.03-4.312-0.091-6.441c-0.075-2.655-0.199-5.276-0.369-7.863L220.046,47.534z"/>
			<path fill="#FFFFFF" d="M232.263,61.425c1.498-5.66,2.702-10.457,3.615-14.391l4.958-0.2c1.331,4.027,2.857,8.615,4.575,13.763
				l-3.372,0.608l-1.178-3.706l-4.113,0.117l-0.996,4.064L232.263,61.425z M240.677,54.732c-0.499-1.407-1.298-3.085-2.394-5.033
				c-0.755,1.686-1.386,3.427-1.89,5.225L240.677,54.732z"/>
			<path fill="#FFFFFF" d="M250.768,60.918c-0.046-2.216-0.103-4.497-0.169-6.844c-0.067-2.353-0.145-4.768-0.232-7.245
				c1.011-0.122,1.945-0.194,2.8-0.218c2.381-0.068,4.146,0.236,5.294,0.914c1.562,0.93,2.415,2.704,2.561,5.324l0.021,0.71
				c0.063,2.248-0.182,3.86-0.735,4.837c-0.613,1.076-1.771,1.813-3.472,2.21c-0.981,0.231-2.062,0.364-3.245,0.398
				C252.708,61.03,251.767,61.001,250.768,60.918z M253.727,49.555c-0.089,2.168-0.104,4.26-0.047,6.277
				c0.021,0.762,0.052,1.512,0.09,2.248c0.311,0.043,0.607,0.061,0.89,0.053c0.776-0.021,1.422-0.24,1.939-0.657
				c0.708-0.56,1.035-1.778,0.981-3.659l-0.001-0.039c-0.062-1.893-0.45-3.125-1.165-3.697c-0.551-0.432-1.194-0.637-1.936-0.615
				C254.24,49.471,253.99,49.502,253.727,49.555z"/>
			<path fill="#FFFFFF" d="M270.344,46.525l0.079,2.781l-5.229-0.01l0.092,3.234l4.692-0.232l0.195,2.668l-4.192,0.12l0.071,2.505
				l5.489-0.157l0.08,2.8l-9.155,0.162c0.044-1.85,0.04-3.711-0.014-5.584c-0.073-2.597-0.241-5.213-0.502-7.85
				C263.942,46.847,266.74,46.701,270.344,46.525z"/>
			<path fill="#FFFFFF" d="M276.954,60.151c1.497-5.659,2.701-10.456,3.614-14.391l4.958-0.2c1.331,4.027,2.857,8.615,4.575,13.764
				l-3.371,0.607l-1.179-3.705l-4.112,0.117l-0.997,4.063L276.954,60.151z M285.367,53.459c-0.5-1.406-1.297-3.085-2.394-5.033
				c-0.755,1.686-1.385,3.427-1.89,5.225L285.367,53.459z"/>
			<path fill="#FFFFFF" d="M290.204,48.506l-0.074-2.593c1.297-0.011,2.58-0.034,3.85-0.07c1.975-0.056,3.91-0.142,5.804-0.255
				l0.198,2.758l-3.333,0.096c0.133,4.673,0.306,8.378,0.515,11.115l-3.726,0.244c0.062-4.673,0.094-8.482,0.099-11.43
				L290.204,48.506z"/>
			<path fill="#FFFFFF" d="M309.573,45.408l0.079,2.78l-5.229-0.009l0.092,3.234l4.692-0.232l0.195,2.668l-4.192,0.119l0.071,2.505
				l5.488-0.157l0.08,2.801l-9.155,0.162c0.044-1.85,0.04-3.711-0.014-5.585c-0.073-2.597-0.241-5.212-0.502-7.85
				C303.171,45.729,305.969,45.584,309.573,45.408z"/>
			<path fill="#FFFFFF" d="M312.179,59.256c0.042-2.25,0.032-4.44-0.028-6.57c-0.07-2.457-0.209-4.838-0.416-7.142l3.885-0.249
				l3.783,7.322c-0.108-2.549-0.279-5.155-0.515-7.82l4.086-0.155c-0.291,4.04-0.379,8.114-0.262,12.224
				c0.016,0.552,0.036,1.104,0.062,1.655l-3.584,0.132l-4.035-7.838c0.197,2.928,0.382,5.649,0.55,8.164L312.179,59.256z"/>
			<path fill="#FFFFFF" d="M334.556,49.748l-2.936,0.094l-0.008-0.266c-0.044-1.545-0.647-2.301-1.812-2.268
				c-1.243,0.035-1.825,1.48-1.744,4.332c0.092,3.215,0.791,4.803,2.096,4.766h0.013c1.306-0.044,1.935-0.852,1.89-2.422
				l-0.027-0.977l3.281-0.094l0.021,0.739c0.094,3.273-1.661,5.037-5.264,5.291c-0.105,0.01-0.212,0.016-0.317,0.019
				c-3.395,0.097-5.161-2.286-5.3-7.15c-0.135-4.758,1.543-7.188,5.034-7.287c3.289-0.094,4.979,1.45,5.069,4.631
				C334.558,49.348,334.559,49.545,334.556,49.748z"/>
			<path fill="#FFFFFF" d="M339.952,57.992l-3.285,0.32c-0.138-4.824-0.373-9.351-0.705-13.576l3.763-0.345
				C339.754,48.857,339.83,53.391,339.952,57.992z"/>
			<path fill="#FFFFFF" d="M347.06,44.004c3.712-0.105,5.637,2.208,5.771,6.94c0.135,4.739-1.787,7.165-5.764,7.278
				s-6.035-2.284-6.175-7.194C340.763,46.467,342.819,44.125,347.06,44.004z M344.624,51.445c-0.005,0.171-0.004,0.335,0.001,0.493
				c0.07,2.478,0.882,3.694,2.434,3.65c1.648-0.048,2.433-1.474,2.353-4.28c-0.079-2.807-0.886-4.188-2.42-4.145
				C345.448,47.209,344.659,48.635,344.624,51.445z M345.034,42.129c1.005-0.943,1.827-1.838,2.465-2.686l2.205,1.22
				c-0.915,0.71-1.931,1.579-3.05,2.604L345.034,42.129z"/>
			<path fill="#FFFFFF" d="M354.039,58.064c0.042-2.251,0.032-4.441-0.028-6.571c-0.07-2.458-0.209-4.839-0.416-7.142l3.886-0.249
				l3.782,7.322c-0.108-2.549-0.279-5.155-0.515-7.82l4.087-0.155c-0.291,4.041-0.379,8.114-0.262,12.223
				c0.016,0.553,0.036,1.104,0.062,1.656l-3.585,0.132l-4.034-7.839c0.197,2.929,0.382,5.65,0.55,8.165L354.039,58.064z"/>
			<path fill="#FFFFFF" d="M371.551,57.555c0.003-1.729-0.021-3.498-0.072-5.307c-0.079-2.773-0.223-5.644-0.431-8.611
				c1.503-0.201,2.833-0.317,3.987-0.35c1.816-0.053,3.189,0.105,4.117,0.475c1.438,0.57,2.184,1.803,2.237,3.695l0.009,0.325
				c-0.029,2.079-0.621,3.427-1.778,4.042c-1.155,0.615-2.592,0.967-4.312,1.055c-0.003,0.205-0.001,0.416,0.005,0.633
				c0.031,1.091,0.143,2.38,0.335,3.867L371.551,57.555z M374.604,45.824l0.23,4.819c1.639-0.112,2.588-0.577,2.847-1.394
				c0.121-0.372,0.177-0.752,0.166-1.14c-0.013-0.454-0.114-0.917-0.305-1.393c-0.285-0.695-0.955-1.028-2.014-0.999
				C375.246,45.728,374.938,45.763,374.604,45.824z"/>
			<path fill="#FFFFFF" d="M382.976,52.01l3.922-0.309c-0.042,0.408-0.058,0.777-0.049,1.106c0.043,1.492,0.563,2.224,1.56,2.195
				l0.054-0.001c1.206-0.062,1.797-0.559,1.771-1.492l-0.003-0.088c-0.072-0.991-1.242-1.932-3.509-2.82
				c-2.205-0.859-3.336-2.346-3.396-4.463c-0.002-0.065,0-0.131,0.008-0.197c-0.001-2.217,1.633-3.391,4.902-3.523l0.105-0.004
				c2.953-0.084,4.471,1.277,4.551,4.084c0.007,0.223,0.005,0.461-0.006,0.711l-3.448,0.246c0.027-0.297,0.037-0.57,0.029-0.82
				c-0.033-1.176-0.434-1.754-1.2-1.732c-0.926,0.026-1.424,0.393-1.491,1.1c-0.006,0.098-0.007,0.197-0.005,0.295
				c0.017,0.586,0.266,1.124,0.748,1.617c0.555,0.569,1.493,1.079,2.816,1.527c1.323,0.449,2.258,1.091,2.802,1.924
				c0.388,0.601,0.592,1.246,0.611,1.937c0.008,0.263-0.011,0.532-0.056,0.811c-0.175,0.999-0.716,1.837-1.624,2.519
				c-0.906,0.68-2.14,1.072-3.699,1.176c-0.105,0.01-0.21,0.016-0.317,0.019c-1.418,0.04-2.616-0.313-3.59-1.062
				c-0.938-0.717-1.437-2.055-1.492-4.014C382.962,52.514,382.964,52.267,382.976,52.01z"/>
			<path fill="#FFFFFF" d="M398.689,56.318l-3.285,0.32c-0.138-4.824-0.373-9.35-0.705-13.576l3.763-0.345
				C398.491,47.184,398.567,51.717,398.689,56.318z"/>
			<path fill="#FFFFFF" d="M410.038,47.598l-2.937,0.094l-0.008-0.266c-0.044-1.545-0.647-2.301-1.811-2.268
				c-1.244,0.035-1.826,1.479-1.745,4.332c0.092,3.214,0.791,4.803,2.097,4.766l0.013-0.001c1.305-0.044,1.935-0.851,1.89-2.422
				l-0.027-0.976l3.28-0.094l0.021,0.739c0.094,3.273-1.661,5.037-5.263,5.29c-0.105,0.011-0.212,0.017-0.317,0.02
				c-3.396,0.097-5.162-2.287-5.301-7.15c-0.135-4.759,1.543-7.188,5.035-7.287c3.288-0.094,4.979,1.45,5.069,4.631
				C410.04,47.197,410.041,47.395,410.038,47.598z"/>
			<path fill="#FFFFFF" d="M417.502,41.998c3.713-0.106,5.637,2.207,5.771,6.939c0.135,4.739-1.786,7.165-5.763,7.278
				c-3.978,0.113-6.036-2.284-6.176-7.194C411.205,44.459,413.262,42.118,417.502,41.998z M415.067,49.438
				c-0.005,0.172-0.004,0.336,0.001,0.494c0.07,2.479,0.881,3.694,2.434,3.65c1.648-0.047,2.433-1.474,2.353-4.28
				c-0.079-2.807-0.886-4.188-2.421-4.145C415.891,45.201,415.102,46.628,415.067,49.438z"/>
			<path fill="#FFFFFF" d="M424.334,50.832l3.922-0.31c-0.042,0.409-0.058,0.778-0.049,1.106c0.043,1.492,0.563,2.225,1.559,2.195
				l0.054-0.002c1.207-0.061,1.798-0.557,1.771-1.49l-0.003-0.089c-0.072-0.991-1.242-1.931-3.509-2.82
				c-2.205-0.858-3.337-2.346-3.397-4.462c-0.002-0.066,0-0.132,0.008-0.198c-0.001-2.216,1.634-3.391,4.902-3.523l0.105-0.003
				c2.954-0.084,4.471,1.276,4.551,4.083c0.007,0.224,0.005,0.461-0.006,0.711l-3.447,0.246c0.027-0.296,0.037-0.569,0.029-0.819
				c-0.033-1.177-0.434-1.755-1.201-1.732c-0.925,0.025-1.423,0.393-1.49,1.099c-0.006,0.099-0.007,0.197-0.005,0.296
				c0.017,0.585,0.266,1.123,0.748,1.617c0.554,0.568,1.493,1.078,2.816,1.527s2.258,1.09,2.801,1.924
				c0.388,0.6,0.592,1.246,0.611,1.936c0.008,0.263-0.011,0.533-0.056,0.811c-0.175,0.999-0.715,1.838-1.623,2.519
				c-0.907,0.681-2.141,1.072-3.7,1.176c-0.104,0.01-0.21,0.017-0.315,0.019c-1.42,0.041-2.617-0.312-3.591-1.062
				c-0.939-0.717-1.437-2.055-1.492-4.013C424.32,51.335,424.322,51.088,424.334,50.832z"/>
			<path fill="#FFFFFF" d="M442.116,41.297c3.713-0.106,5.637,2.207,5.771,6.939c0.135,4.739-1.786,7.165-5.764,7.278
				c-3.977,0.113-6.035-2.284-6.175-7.194C435.819,43.758,437.876,41.417,442.116,41.297z M439.681,48.736
				c-0.005,0.172-0.004,0.336,0.001,0.494c0.07,2.479,0.882,3.693,2.434,3.65c1.649-0.047,2.433-1.474,2.353-4.28
				c-0.079-2.807-0.886-4.188-2.42-4.145C440.505,44.5,439.716,45.927,439.681,48.736z"/>
			<path fill="#FFFFFF" d="M458.948,46.204l-2.937,0.095l-0.008-0.268c-0.044-1.544-0.646-2.3-1.811-2.267
				c-1.243,0.035-1.825,1.479-1.744,4.331c0.092,3.215,0.791,4.803,2.096,4.766h0.013c1.305-0.043,1.935-0.851,1.89-2.422
				l-0.027-0.977l3.281-0.093l0.021,0.739c0.094,3.273-1.661,5.037-5.264,5.291c-0.105,0.01-0.212,0.016-0.317,0.019
				c-3.395,0.097-5.162-2.286-5.301-7.151c-0.135-4.758,1.544-7.188,5.035-7.286c3.289-0.094,4.979,1.45,5.069,4.631
				C458.95,45.803,458.951,46,458.948,46.204z"/>
			<path fill="#FFFFFF" d="M464.345,54.447l-3.286,0.32c-0.138-4.824-0.373-9.35-0.705-13.576l3.764-0.344
				C464.146,45.312,464.223,49.846,464.345,54.447z"/>
			<path fill="#FFFFFF" d="M464.911,54.797c1.497-5.66,2.701-10.457,3.614-14.392l4.958-0.2c1.331,4.027,2.857,8.615,4.575,13.764
				l-3.371,0.608l-1.179-3.706l-4.112,0.117l-0.997,4.064L464.911,54.797z M473.324,48.104c-0.5-1.406-1.297-3.084-2.394-5.033
				c-0.755,1.686-1.385,3.428-1.89,5.225L473.324,48.104z"/>
			<path fill="#FFFFFF" d="M482.051,39.862c-0.062,3.43-0.058,6.366,0.013,8.812c0.027,0.973,0.065,1.869,0.115,2.69l5.894-0.386
				l0.185,3.212l-9.439,0.427c-0.016-0.867-0.035-1.732-0.06-2.594c-0.113-3.949-0.34-7.877-0.681-11.781L482.051,39.862z"/>
			<path fill="#FFFFFF" d="M137.416,90.506l-0.029-6.117c-2.101-3.111-3.726-5.643-4.876-7.597l3.723-0.393l2.682,5.43
				c1.062-2.675,1.92-4.669,2.57-5.983l3.61-0.104c-2.047,4.025-3.518,6.939-4.41,8.74l0.166,5.807L137.416,90.506z"/>
			<path fill="#FFFFFF" d="M149.909,84.881l3.924-0.31c-0.042,0.409-0.059,0.778-0.049,1.106c0.042,1.492,0.562,2.225,1.558,2.195
				l0.054-0.001c1.206-0.062,1.797-0.558,1.771-1.491l-0.002-0.089c-0.072-0.991-1.242-1.931-3.509-2.82
				c-2.204-0.858-3.337-2.345-3.396-4.462c-0.002-0.065,0-0.132,0.008-0.197c-0.002-2.217,1.632-3.393,4.902-3.524l0.105-0.003
				c2.954-0.084,4.471,1.276,4.551,4.083c0.006,0.224,0.004,0.461-0.006,0.711l-3.448,0.246c0.026-0.296,0.036-0.569,0.029-0.819
				c-0.033-1.177-0.433-1.754-1.2-1.732c-0.926,0.026-1.423,0.393-1.491,1.099c-0.006,0.099-0.007,0.197-0.004,0.296
				c0.017,0.585,0.265,1.123,0.747,1.617c0.555,0.569,1.493,1.078,2.816,1.527c1.324,0.449,2.257,1.091,2.802,1.924
				c0.388,0.6,0.592,1.246,0.611,1.936c0.008,0.264-0.011,0.533-0.056,0.811c-0.175,0.999-0.716,1.838-1.624,2.519
				c-0.906,0.681-2.141,1.073-3.699,1.177c-0.105,0.009-0.211,0.016-0.317,0.018c-1.419,0.041-2.616-0.312-3.59-1.062
				c-0.938-0.717-1.437-2.055-1.492-4.013C149.896,85.384,149.898,85.137,149.909,84.881z"/>
			<path fill="#FFFFFF" d="M161.152,89.682c1.497-5.66,2.701-10.457,3.613-14.391l4.958-0.201c1.332,4.027,2.858,8.615,4.575,13.764
				l-3.372,0.608l-1.178-3.706l-4.112,0.117l-0.996,4.064L161.152,89.682z M169.565,82.988c-0.5-1.406-1.298-3.084-2.394-5.033
				c-0.756,1.687-1.385,3.428-1.89,5.225L169.565,82.988z"/>
			<path fill="#FFFFFF" d="M178.293,74.747c-0.062,3.43-0.058,6.366,0.012,8.812c0.028,0.973,0.066,1.869,0.116,2.69l5.894-0.386
				l0.184,3.212l-9.438,0.427c-0.016-0.867-0.035-1.732-0.061-2.594c-0.112-3.949-0.34-7.877-0.681-11.781L178.293,74.747z"/>
			<path fill="#FFFFFF" d="M196.251,74.611l0.277,9.75c0.086,3.004-1.716,4.559-5.4,4.663l-0.291,0.009
				c-3.094-0.175-4.726-1.389-4.896-3.641c-0.128-4.502-0.291-8.049-0.488-10.643l3.519-0.1c-0.046,1.488-0.04,3.234,0.017,5.239
				c0.04,1.407,0.105,2.944,0.198,4.612c0.053,1.222,0.659,1.816,1.823,1.783c0.001,0.006,0.006,0.01,0.015,0.01
				c1.154-0.033,1.71-0.832,1.665-2.396l-0.325-9.088L196.251,74.611z"/>
			<path fill="#FFFFFF" d="M197.921,88.653c-0.045-2.216-0.102-4.497-0.168-6.843c-0.067-2.354-0.145-4.768-0.233-7.246
				c1.013-0.121,1.945-0.193,2.801-0.218c2.381-0.067,4.146,0.237,5.294,0.915c1.562,0.93,2.416,2.704,2.562,5.324l0.02,0.71
				c0.064,2.248-0.181,3.86-0.735,4.836c-0.613,1.077-1.771,1.813-3.472,2.211c-0.981,0.231-2.063,0.364-3.245,0.397
				C199.861,88.766,198.922,88.737,197.921,88.653z M200.882,77.291c-0.089,2.167-0.104,4.259-0.048,6.276
				c0.022,0.763,0.053,1.513,0.091,2.248c0.311,0.044,0.606,0.062,0.888,0.054c0.776-0.022,1.424-0.241,1.941-0.658
				c0.707-0.559,1.034-1.778,0.98-3.658l-0.001-0.039c-0.062-1.894-0.451-3.125-1.164-3.697c-0.551-0.432-1.196-0.637-1.938-0.616
				C201.395,77.207,201.145,77.238,200.882,77.291z"/>
			<path fill="#FFFFFF" d="M218.027,87.696l-3.286,0.319c-0.138-4.824-0.373-9.35-0.706-13.576l3.764-0.344
				C217.829,78.561,217.905,83.094,218.027,87.696z"/>
			<path fill="#FFFFFF" d="M219.522,88.127c0.041-2.251,0.031-4.441-0.029-6.57c-0.069-2.459-0.208-4.84-0.415-7.143l3.885-0.248
				l3.782,7.322c-0.107-2.55-0.278-5.156-0.514-7.82l4.086-0.156c-0.291,4.041-0.378,8.115-0.261,12.223
				c0.016,0.553,0.036,1.104,0.061,1.656l-3.584,0.133l-4.035-7.839c0.198,2.929,0.382,5.649,0.551,8.164L219.522,88.127z"/>
			<path fill="#FFFFFF" d="M231.67,76.404l-0.073-2.594c1.296-0.01,2.58-0.033,3.85-0.07c1.975-0.056,3.91-0.141,5.804-0.254
				l0.198,2.758l-3.333,0.095c0.133,4.673,0.305,8.378,0.515,11.115l-3.726,0.244c0.061-4.672,0.093-8.481,0.098-11.429
				L231.67,76.404z"/>
			<path fill="#FFFFFF" d="M251.041,73.307l0.079,2.779l-5.229-0.008l0.092,3.233l4.692-0.232l0.195,2.669l-4.192,0.119l0.071,2.504
				l5.488-0.156l0.08,2.8l-9.155,0.162c0.044-1.849,0.04-3.711-0.014-5.585c-0.074-2.596-0.241-5.212-0.502-7.85
				C244.639,73.627,247.437,73.481,251.041,73.307z"/>
			<path fill="#FFFFFF" d="M264.376,78.166l-3.002,0.105c-0.092-1.668-0.681-2.53-1.768-2.584l-0.237,0.006
				c-0.97,0.027-1.742,0.527-2.314,1.496c-0.573,0.971-0.834,2.33-0.784,4.078l0.013,0.435c0.109,1.956,1.058,2.91,2.848,2.858
				c1.235-0.035,1.831-0.801,1.788-2.301c-0.004-0.15-0.014-0.305-0.025-0.462l-2.632,0.104l0.069-2.223l6.76-0.113l0.069,2.415
				l-1.35,0.058c0.098,3.432-1.688,5.199-5.354,5.305c-3.396,0.096-5.149-1.873-5.265-5.909c-0.01-0.335-0.006-0.687,0.01-1.056
				c0.174-4.748,2.127-7.273,5.859-7.578c0.186-0.012,0.361-0.02,0.529-0.024c3.113-0.089,4.713,1.431,4.803,4.56
				C264.399,77.6,264.394,77.876,264.376,78.166z"/>
			<path fill="#FFFFFF" d="M266.678,86.932c-0.001-1.881-0.028-3.775-0.082-5.682c-0.084-2.918-0.229-5.864-0.438-8.838
				c1.364-0.145,2.589-0.232,3.674-0.264c3.015-0.086,4.949,0.271,5.801,1.068c0.798,0.748,1.211,1.584,1.237,2.511
				c0.012,0.421-0.051,0.857-0.188,1.308c-0.471,1.461-1.519,2.408-3.149,2.844c1.151,0.086,2.031,0.52,2.646,1.306
				c0.586,0.759,0.924,2.703,1.013,5.832l0.013,0.424l-3.993,0.153c0.02-0.829,0.021-1.572,0.002-2.23
				c-0.057-1.991-0.308-3.204-0.752-3.639c-0.508-0.485-1.103-0.719-1.781-0.699c-0.132,0.004-0.268,0.018-0.408,0.041
				c0.11,2.004,0.278,3.9,0.506,5.689L266.678,86.932z M269.715,74.609l0.214,4.217c1.638-0.105,2.667-0.549,3.085-1.33
				c0.227-0.415,0.335-0.816,0.324-1.204c-0.01-0.335-0.108-0.661-0.293-0.978c-0.333-0.551-1.131-0.808-2.393-0.771
				C270.362,74.551,270.051,74.574,269.715,74.609z"/>
			<path fill="#FFFFFF" d="M277.529,86.365c1.497-5.66,2.701-10.457,3.613-14.391l4.958-0.2c1.332,4.027,2.858,8.614,4.575,13.763
				l-3.371,0.609l-1.179-3.707l-4.112,0.117l-0.996,4.064L277.529,86.365z M285.942,79.673c-0.5-1.407-1.297-3.085-2.394-5.033
				c-0.756,1.687-1.385,3.427-1.89,5.225L285.942,79.673z"/>
			<path fill="#FFFFFF" d="M294.669,71.432c-0.062,3.43-0.058,6.365,0.012,8.811c0.028,0.973,0.066,1.87,0.116,2.691l5.894-0.385
				l0.184,3.211l-9.438,0.426c-0.016-0.867-0.035-1.73-0.061-2.592c-0.112-3.95-0.34-7.879-0.681-11.782L294.669,71.432z"/>
			<path fill="#FFFFFF" d="M306.297,85.546c1.497-5.66,2.701-10.457,3.613-14.392l4.958-0.199c1.332,4.027,2.858,8.615,4.575,13.763
				l-3.372,0.608l-1.178-3.706l-4.112,0.117l-0.996,4.064L306.297,85.546z M314.71,78.854c-0.5-1.407-1.298-3.085-2.394-5.033
				c-0.756,1.686-1.385,3.427-1.89,5.225L314.71,78.854z"/>
			<path fill="#FFFFFF" d="M327.655,84.898c-1.203-4.4-2.608-8.994-4.22-13.783l3.855-0.406l2.569,10.742
				c1.047-3.812,1.893-7.261,2.536-10.345l3.674,0.231c-1.682,6.014-2.937,10.453-3.764,13.318L327.655,84.898z"/>
			<path fill="#FFFFFF" d="M340.475,84.207l-3.285,0.32c-0.138-4.824-0.373-9.35-0.706-13.576l3.763-0.344
				C340.276,75.072,340.353,79.605,340.475,84.207z M336.738,68.693c1.004-0.943,1.827-1.838,2.465-2.685l2.205,1.22
				c-0.916,0.711-1.933,1.578-3.051,2.604L336.738,68.693z"/>
			<path fill="#FFFFFF" d="M351.821,75.486l-2.935,0.094l-0.008-0.266c-0.044-1.545-0.648-2.301-1.812-2.268
				c-1.243,0.035-1.824,1.48-1.743,4.332c0.092,3.215,0.791,4.803,2.096,4.766h0.013c1.306-0.044,1.935-0.852,1.89-2.422
				l-0.028-0.977l3.281-0.094l0.021,0.739c0.093,3.273-1.662,5.037-5.264,5.291c-0.105,0.01-0.212,0.016-0.316,0.019
				c-3.396,0.098-5.162-2.286-5.301-7.15c-0.136-4.758,1.543-7.188,5.034-7.287c3.289-0.094,4.979,1.45,5.069,4.631
				C351.824,75.086,351.824,75.283,351.821,75.486z"/>
			<path fill="#FFFFFF" d="M353.298,72.939l-0.073-2.594c1.296-0.011,2.58-0.034,3.85-0.07c1.975-0.057,3.909-0.141,5.804-0.254
				l0.198,2.757l-3.333,0.095c0.133,4.674,0.305,8.379,0.515,11.115l-3.726,0.244c0.061-4.672,0.093-8.481,0.098-11.428
				L353.298,72.939z"/>
			<path fill="#FFFFFF" d="M368.264,83.416l-3.286,0.32c-0.138-4.824-0.373-9.351-0.706-13.577l3.764-0.345
				C368.065,74.281,368.142,78.814,368.264,83.416z"/>
			<path fill="#FFFFFF" d="M373.899,69.381l3.373,10.127l1.991-9.529l6.033-0.122c-0.046,2.139-0.037,4.296,0.025,6.472
				c0.068,2.426,0.205,4.879,0.408,7.359l-3.843,0.307c-0.074-2.615-0.205-5.812-0.393-9.59l-1.909,8.729l-4.094,0.323l-2.911-9.271
				l0.217,9.467l-3.223,0.259c0-2.164-0.03-4.311-0.091-6.439c-0.076-2.656-0.199-5.277-0.37-7.864L373.899,69.381z"/>
			<path fill="#FFFFFF" d="M386.115,83.271c1.497-5.66,2.702-10.457,3.613-14.391l4.958-0.201c1.333,4.028,2.858,8.615,4.576,13.764
				l-3.372,0.609l-1.179-3.707l-4.112,0.117l-0.995,4.064L386.115,83.271z M394.528,76.579c-0.499-1.407-1.297-3.085-2.394-5.033
				c-0.755,1.687-1.385,3.427-1.89,5.225L394.528,76.579z"/>
			<path fill="#FFFFFF" d="M399.593,77.767l3.924-0.31c-0.042,0.409-0.059,0.778-0.049,1.107c0.042,1.492,0.562,2.224,1.558,2.195
				l0.054-0.002c1.207-0.061,1.797-0.558,1.771-1.49l-0.002-0.09c-0.072-0.99-1.242-1.931-3.509-2.82
				c-2.204-0.857-3.337-2.346-3.396-4.462c-0.002-0.065,0-0.132,0.008-0.197c-0.002-2.217,1.632-3.392,4.902-3.524l0.105-0.002
				c2.954-0.085,4.471,1.275,4.551,4.082c0.006,0.225,0.004,0.461-0.006,0.711l-3.447,0.246c0.026-0.296,0.036-0.569,0.029-0.819
				c-0.033-1.177-0.434-1.755-1.201-1.732c-0.926,0.026-1.423,0.394-1.491,1.099c-0.006,0.099-0.007,0.197-0.004,0.297
				c0.017,0.584,0.266,1.123,0.747,1.616c0.555,0.569,1.493,1.079,2.816,1.528c1.324,0.449,2.257,1.09,2.802,1.923
				c0.388,0.601,0.592,1.247,0.611,1.937c0.008,0.263-0.011,0.533-0.056,0.811c-0.175,0.998-0.716,1.838-1.623,2.518
				c-0.907,0.681-2.141,1.073-3.7,1.177c-0.105,0.009-0.211,0.016-0.317,0.019c-1.419,0.041-2.616-0.313-3.59-1.062
				c-0.938-0.717-1.437-2.055-1.492-4.013C399.58,78.27,399.582,78.023,399.593,77.767z"/>
			<path fill="#FFFFFF" d="M422.931,74.526l0.07,2.465l-6.614,0.188l-0.07-2.465L422.931,74.526z"/>
			<path fill="#FFFFFF" d="M429.355,82.139c0.003-1.73-0.021-3.499-0.072-5.307c-0.079-2.773-0.223-5.645-0.432-8.611
				c1.504-0.201,2.834-0.318,3.988-0.351c1.817-0.052,3.188,0.106,4.117,0.475c1.438,0.57,2.183,1.803,2.236,3.695l0.01,0.325
				c-0.03,2.08-0.622,3.428-1.779,4.043c-1.155,0.614-2.592,0.967-4.312,1.055c-0.003,0.204-0.001,0.414,0.006,0.631
				c0.031,1.092,0.142,2.381,0.335,3.869L429.355,82.139z M432.408,70.408l0.23,4.818c1.639-0.112,2.587-0.576,2.847-1.394
				c0.121-0.372,0.177-0.751,0.165-1.14c-0.013-0.453-0.113-0.917-0.304-1.393c-0.285-0.695-0.955-1.028-2.014-0.998
				C433.051,70.311,432.743,70.346,432.408,70.408z"/>
			<path fill="#FFFFFF" d="M439.999,81.736c1.498-5.66,2.702-10.457,3.614-14.391l4.958-0.201c1.332,4.028,2.858,8.615,4.575,13.764
				l-3.372,0.609l-1.178-3.707l-4.112,0.117l-0.996,4.064L439.999,81.736z M448.413,75.044c-0.5-1.407-1.298-3.085-2.394-5.033
				c-0.756,1.687-1.386,3.427-1.89,5.225L448.413,75.044z"/>
			<path fill="#FFFFFF" d="M453.679,81.445c0.003-1.73-0.021-3.498-0.072-5.307c-0.079-2.773-0.223-5.645-0.432-8.611
				c1.504-0.201,2.834-0.317,3.988-0.351c1.816-0.052,3.188,0.106,4.116,0.476c1.438,0.57,2.183,1.803,2.236,3.695l0.01,0.325
				c-0.03,2.079-0.621,3.427-1.778,4.042c-1.155,0.615-2.593,0.967-4.312,1.055c-0.003,0.205-0.001,0.415,0.006,0.632
				c0.031,1.091,0.142,2.381,0.335,3.868L453.679,81.445z M456.731,69.715l0.23,4.818c1.639-0.111,2.587-0.576,2.847-1.393
				c0.121-0.373,0.177-0.752,0.165-1.141c-0.013-0.453-0.113-0.916-0.304-1.392c-0.285-0.696-0.956-1.028-2.014-0.999
				C457.374,69.617,457.066,69.652,456.731,69.715z"/>
			<path fill="#FFFFFF" d="M465.102,75.9l3.923-0.309c-0.042,0.408-0.059,0.777-0.049,1.105c0.042,1.492,0.562,2.225,1.559,2.195
				l0.054-0.001c1.206-0.061,1.797-0.558,1.771-1.491l-0.002-0.089c-0.072-0.991-1.243-1.931-3.51-2.82
				c-2.204-0.858-3.336-2.345-3.396-4.462c-0.002-0.065,0-0.131,0.008-0.197c-0.002-2.217,1.632-3.393,4.902-3.524l0.104-0.003
				c2.954-0.084,4.472,1.277,4.552,4.084c0.006,0.223,0.004,0.46-0.006,0.71l-3.448,0.247c0.026-0.297,0.036-0.57,0.029-0.82
				c-0.033-1.176-0.434-1.754-1.2-1.732c-0.926,0.026-1.424,0.393-1.492,1.099c-0.006,0.099-0.007,0.197-0.004,0.296
				c0.017,0.585,0.266,1.124,0.748,1.617c0.555,0.569,1.492,1.078,2.816,1.527c1.323,0.449,2.257,1.091,2.802,1.924
				c0.387,0.6,0.591,1.246,0.61,1.936c0.008,0.264-0.011,0.533-0.056,0.812c-0.175,0.998-0.715,1.837-1.623,2.518
				c-0.907,0.681-2.141,1.073-3.699,1.177c-0.105,0.009-0.211,0.016-0.317,0.019c-1.42,0.04-2.616-0.313-3.591-1.062
				c-0.938-0.716-1.436-2.054-1.491-4.013C465.089,76.404,465.091,76.156,465.102,75.9z"/>
			<path fill="#FFFFFF" d="M480.817,80.209l-3.285,0.32c-0.138-4.824-0.373-9.351-0.706-13.577l3.763-0.344
				C480.619,71.074,480.695,75.607,480.817,80.209z"/>
			<path fill="#FFFFFF" d="M485.112,80.412c-1.202-4.399-2.608-8.994-4.219-13.783l3.854-0.406l2.57,10.742
				c1.047-3.812,1.893-7.261,2.536-10.345l3.674,0.231c-1.682,6.015-2.937,10.453-3.764,13.318L485.112,80.412z"/>
			<path fill="#FFFFFF" d="M497.932,79.721l-3.286,0.32c-0.138-4.824-0.372-9.35-0.705-13.576l3.763-0.344
				C497.733,70.586,497.81,75.119,497.932,79.721z"/>
		</g>
	</g>
</g>
</svg>
