<?xml version="1.0" encoding="utf-8"?>
<!-- Generator: Adobe Illustrator 16.0.0, SVG Export Plug-In . SVG Version: 6.00 Build 0)  -->
<!DOCTYPE svg PUBLIC "-//W3C//DTD SVG 1.1//EN" "http://www.w3.org/Graphics/SVG/1.1/DTD/svg11.dtd">
<svg version="1.1" id="Capa_1" xmlns="http://www.w3.org/2000/svg" xmlns:xlink="http://www.w3.org/1999/xlink" x="0px" y="0px"
	 width="234.221px" height="54.455px" viewBox="0 0 234.221 54.455" enable-background="new 0 0 234.221 54.455"
	 xml:space="preserve">
<g>
	<g>
		<path fill="#2B1C48" d="M58.931,2.748l3.507,11.622l2.573-10.77l6.862,0.057c-0.12,2.431-0.181,4.883-0.181,7.358
			c0,2.76,0.075,5.553,0.226,8.38l-4.379,0.225c0-2.977-0.045-6.615-0.136-10.915l-2.453,9.86l-4.665,0.235l-3.01-10.635
			l-0.06,10.77l-3.672,0.19c0.069-2.46,0.104-4.901,0.104-7.325c0-3.021-0.055-6.005-0.165-8.951L58.931,2.748z"/>
		<path fill="#2B1C48" d="M82.919,3.23v3.163l-5.944-0.179v3.679l5.343-0.111l0.135,3.04h-4.771v2.849h6.246v3.187l-10.414-0.112
			c0.11-2.102,0.165-4.218,0.165-6.35c0-2.954-0.105-5.935-0.315-8.94C75.63,3.388,78.815,3.312,82.919,3.23z"/>
		<path fill="#2B1C48" d="M85.372,18.958c0.02-2.521,0.03-5.115,0.03-7.785c0-2.677-0.011-5.426-0.03-8.245
			c1.153-0.104,2.217-0.157,3.19-0.157c2.708,0,4.705,0.404,5.989,1.212c1.745,1.106,2.658,3.152,2.738,6.136v0.808
			c0,2.558-0.331,4.383-0.993,5.475c-0.732,1.204-2.071,2.004-4.018,2.4c-1.124,0.232-2.357,0.348-3.702,0.348
			C87.574,19.148,86.505,19.085,85.372,18.958z M89.104,6.136c-0.17,2.461-0.256,4.839-0.256,7.135c0,0.868,0.011,1.721,0.03,2.558
			c0.352,0.061,0.688,0.09,1.009,0.09c0.883,0,1.625-0.228,2.227-0.685c0.823-0.612,1.234-1.989,1.234-4.128v-0.045
			c-0.01-2.153-0.411-3.567-1.204-4.24c-0.612-0.509-1.339-0.763-2.182-0.763C89.69,6.058,89.405,6.084,89.104,6.136z"/>
		<path fill="#2B1C48" d="M102.648,18.521l-3.747,0.258c0-5.489-0.121-10.642-0.361-15.458l4.289-0.27
			C102.718,8.129,102.658,13.286,102.648,18.521z"/>
		<path fill="#2B1C48" d="M104.273,18.958c0.02-2.521,0.03-5.115,0.03-7.785c0-2.677-0.011-5.426-0.03-8.245
			c1.153-0.104,2.217-0.157,3.19-0.157c2.708,0,4.705,0.404,5.989,1.212c1.745,1.106,2.658,3.152,2.738,6.136v0.808
			c0,2.558-0.331,4.383-0.993,5.475c-0.732,1.204-2.071,2.004-4.018,2.4c-1.124,0.232-2.357,0.348-3.702,0.348
			C106.476,19.148,105.406,19.085,104.273,18.958z M108.005,6.136c-0.17,2.461-0.256,4.839-0.256,7.135
			c0,0.868,0.011,1.721,0.03,2.558c0.352,0.061,0.688,0.09,1.009,0.09c0.883,0,1.625-0.228,2.227-0.685
			c0.823-0.612,1.234-1.989,1.234-4.128v-0.045c-0.01-2.153-0.411-3.567-1.204-4.24c-0.612-0.509-1.339-0.763-2.182-0.763
			C108.592,6.058,108.307,6.084,108.005,6.136z"/>
		<path fill="#2B1C48" d="M116.448,18.936c1.886-6.387,3.41-11.801,4.574-16.243l5.644-0.067c1.385,4.622,2.97,9.887,4.756,15.795
			l-3.853,0.583l-1.22-4.252h-4.68l-1.265,4.589L116.448,18.936z M126.229,11.6c-0.521-1.616-1.374-3.549-2.559-5.8
			c-0.913,1.892-1.685,3.852-2.317,5.878L126.229,11.6z"/>
		<path fill="#2B1C48" d="M131.948,13.113l4.47-0.224c-0.061,0.463-0.09,0.882-0.09,1.256c0,1.698,0.566,2.547,1.7,2.547h0.061
			c1.374-0.03,2.062-0.576,2.062-1.638v-0.102c-0.051-1.129-1.35-2.236-3.897-3.32c-2.479-1.047-3.718-2.774-3.718-5.183
			c0-0.075,0.005-0.149,0.016-0.225c0.069-2.52,1.966-3.803,5.688-3.848h0.12c3.361,0,5.041,1.597,5.041,4.79
			c0,0.255-0.01,0.523-0.029,0.808l-3.928,0.168c0.039-0.336,0.06-0.646,0.06-0.931c0-1.339-0.437-2.008-1.31-2.008
			c-1.053,0-1.63,0.4-1.73,1.2c-0.01,0.112-0.015,0.225-0.015,0.337c0,0.665,0.266,1.286,0.798,1.861
			c0.611,0.666,1.662,1.275,3.152,1.829s2.53,1.312,3.123,2.277c0.421,0.695,0.632,1.436,0.632,2.221c0,0.3-0.03,0.606-0.091,0.92
			c-0.23,1.13-0.872,2.066-1.926,2.811s-2.468,1.149-4.244,1.217c-0.12,0.008-0.24,0.012-0.361,0.012
			c-1.615,0-2.964-0.441-4.048-1.324c-1.043-0.845-1.564-2.382-1.564-4.61C131.919,13.686,131.929,13.405,131.948,13.113z"/>
		<path fill="#2B1C48" d="M151.181,18.958c0.02-2.521,0.03-5.115,0.03-7.785c0-2.677-0.011-5.426-0.03-8.245
			c1.153-0.104,2.217-0.157,3.19-0.157c2.708,0,4.705,0.404,5.989,1.212c1.745,1.106,2.658,3.152,2.738,6.136v0.808
			c0,2.558-0.331,4.383-0.993,5.475c-0.732,1.204-2.071,2.004-4.018,2.4c-1.124,0.232-2.357,0.348-3.702,0.348
			C153.383,19.148,152.313,19.085,151.181,18.958z M154.912,6.136c-0.17,2.461-0.256,4.839-0.256,7.135
			c0,0.868,0.011,1.721,0.03,2.558c0.352,0.061,0.688,0.09,1.009,0.09c0.883,0,1.625-0.228,2.227-0.685
			c0.823-0.612,1.234-1.989,1.234-4.128v-0.045c-0.01-2.153-0.411-3.567-1.204-4.24c-0.612-0.509-1.339-0.763-2.182-0.763
			C155.499,6.058,155.214,6.084,154.912,6.136z"/>
		<path fill="#2B1C48" d="M173.904,3.23v3.163l-5.944-0.179v3.679l5.343-0.111l0.135,3.04h-4.771v2.849h6.246v3.187l-10.414-0.112
			c0.11-2.102,0.165-4.218,0.165-6.35c0-2.954-0.105-5.935-0.315-8.94C166.615,3.388,169.801,3.312,173.904,3.23z"/>
		<path fill="#2B1C48" d="M0.843,49.048c0.061-2.139,0.09-4.293,0.09-6.462c0-3.32-0.07-6.675-0.21-10.062
			c1.555-0.119,2.949-0.18,4.184-0.18c3.431,0,5.618,0.468,6.561,1.402c0.883,0.875,1.325,1.84,1.325,2.895
			c0,0.479-0.086,0.973-0.256,1.48c-0.582,1.646-1.807,2.688-3.672,3.13c1.304,0.135,2.292,0.658,2.964,1.57
			c0.643,0.883,0.964,3.104,0.964,6.664v0.482l-4.545,0.045c0.05-0.942,0.075-1.788,0.075-2.535c0-2.267-0.246-3.653-0.737-4.162
			c-0.562-0.568-1.229-0.853-2.002-0.853c-0.15,0-0.306,0.011-0.467,0.033c0.061,2.281,0.19,4.442,0.392,6.484L0.843,49.048z
			 M4.695,35.138l0.105,4.801c1.866-0.067,3.05-0.538,3.552-1.413c0.271-0.464,0.406-0.916,0.406-1.357
			c0-0.382-0.101-0.756-0.302-1.122c-0.36-0.636-1.259-0.953-2.693-0.953C5.433,35.093,5.076,35.107,4.695,35.138z"/>
		<path fill="#2B1C48" d="M23.747,33.051v3.163l-5.944-0.179v3.679l5.343-0.111l0.135,3.04H18.51v2.849h6.246v3.187l-10.414-0.112
			c0.11-2.102,0.165-4.218,0.165-6.35c0-2.954-0.105-5.935-0.315-8.94C16.458,33.208,19.644,33.133,23.747,33.051z"/>
		<path fill="#2B1C48" d="M26.32,48.868c0.061-1.967,0.09-3.979,0.09-6.035c0-3.156-0.07-6.424-0.21-9.805
			c1.715-0.18,3.23-0.27,4.545-0.27c2.066,0,3.621,0.225,4.665,0.674c1.615,0.695,2.423,2.12,2.423,4.273v0.37
			c-0.101,2.363-0.818,3.876-2.152,4.538s-2.979,1.016-4.936,1.06c-0.011,0.232-0.016,0.472-0.016,0.719
			c0,1.241,0.085,2.711,0.256,4.408L26.32,48.868z M30.173,35.631l0.105,5.485c1.866-0.074,2.959-0.571,3.28-1.491
			c0.15-0.419,0.226-0.849,0.226-1.29c0-0.517-0.1-1.048-0.301-1.594c-0.301-0.8-1.054-1.2-2.257-1.2
			C30.905,35.541,30.554,35.571,30.173,35.631z"/>
		<path fill="#2B1C48" d="M38.436,48.756c1.886-6.387,3.41-11.801,4.574-16.243l5.644-0.067c1.385,4.622,2.97,9.887,4.756,15.795
			l-3.853,0.583l-1.22-4.252h-4.68l-1.265,4.589L38.436,48.756z M48.217,41.42c-0.521-1.616-1.374-3.549-2.559-5.8
			c-0.913,1.892-1.685,3.852-2.317,5.878L48.217,41.42z"/>
		<path fill="#2B1C48" d="M53.995,49.048c0.061-2.139,0.09-4.293,0.09-6.462c0-3.32-0.07-6.675-0.21-10.062
			c1.555-0.119,2.949-0.18,4.184-0.18c3.431,0,5.618,0.468,6.561,1.402c0.883,0.875,1.325,1.84,1.325,2.895
			c0,0.479-0.086,0.973-0.256,1.48c-0.582,1.646-1.807,2.688-3.672,3.13c1.304,0.135,2.292,0.658,2.964,1.57
			c0.643,0.883,0.964,3.104,0.964,6.664v0.482l-4.545,0.045c0.05-0.942,0.075-1.788,0.075-2.535c0-2.267-0.246-3.653-0.737-4.162
			c-0.562-0.568-1.229-0.853-2.002-0.853c-0.15,0-0.306,0.011-0.467,0.033c0.061,2.281,0.19,4.442,0.392,6.484L53.995,49.048z
			 M57.848,35.138l0.105,4.801c1.866-0.067,3.05-0.538,3.552-1.413c0.271-0.464,0.406-0.916,0.406-1.357
			c0-0.382-0.101-0.756-0.302-1.122c-0.36-0.636-1.259-0.953-2.693-0.953C58.585,35.093,58.229,35.107,57.848,35.138z"/>
		<path fill="#2B1C48" d="M66.351,48.756c1.886-6.387,3.41-11.801,4.574-16.243l5.644-0.067c1.385,4.622,2.97,9.887,4.756,15.795
			l-3.853,0.583l-1.22-4.252h-4.68l-1.265,4.589L66.351,48.756z M76.132,41.42c-0.521-1.616-1.374-3.549-2.559-5.8
			c-0.913,1.892-1.685,3.852-2.317,5.878L76.132,41.42z"/>
		<path fill="#2B1C48" d="M93.349,38.795l-3.341,0.011v-0.303c0-1.758-0.662-2.637-1.987-2.637c-1.414,0-2.121,1.623-2.121,4.869
			c0,3.657,0.742,5.485,2.227,5.485h0.016c1.484-0.007,2.227-0.904,2.227-2.692v-1.11h3.732v0.841c0,3.725-2.052,5.673-6.155,5.845
			c-0.12,0.008-0.24,0.012-0.36,0.012c-3.863,0-5.794-2.768-5.794-8.302c0-5.414,1.986-8.121,5.959-8.121
			c3.742,0,5.613,1.81,5.613,5.429C93.363,38.339,93.358,38.562,93.349,38.795z"/>
		<path fill="#2B1C48" d="M99.218,48.341l-3.747,0.258c0-5.489-0.121-10.642-0.361-15.458l4.289-0.27
			C99.287,37.949,99.228,43.106,99.218,48.341z"/>
		<path fill="#2B1C48" d="M107.75,32.67c4.224,0,6.336,2.691,6.336,8.076c0,5.393-2.263,8.089-6.787,8.089
			c-4.525,0-6.787-2.794-6.787-8.38C100.512,35.265,102.924,32.67,107.75,32.67z M104.74,41.049
			c-0.01,0.195-0.016,0.382-0.016,0.562c0,2.819,0.883,4.229,2.649,4.229c1.876,0,2.813-1.596,2.813-4.79
			c0-3.192-0.872-4.79-2.618-4.79C105.813,36.259,104.87,37.856,104.74,41.049z M105.508,30.471c1.174-1.039,2.137-2.03,2.89-2.973
			l2.468,1.458c-1.063,0.778-2.248,1.731-3.552,2.861L105.508,30.471z"/>
		<path fill="#2B1C48" d="M115.229,48.88c0.121-2.559,0.181-5.049,0.181-7.472c0-2.797-0.08-5.508-0.24-8.133l4.424-0.157
			l4.063,8.447c-0.04-2.901-0.15-5.871-0.331-8.907l4.65-0.045c-0.462,4.585-0.692,9.214-0.692,13.888
			c0,0.629,0.005,1.257,0.015,1.885l-4.078,0.034l-4.334-9.042c0.13,3.336,0.251,6.436,0.361,9.3L115.229,48.88z"/>
		<path fill="#2B1C48" d="M139.143,48.341l-3.747,0.258c0-5.489-0.121-10.642-0.361-15.458l4.289-0.27
			C139.212,37.949,139.152,43.106,139.143,48.341z"/>
		<path fill="#2B1C48" d="M140.827,48.88c0.121-2.559,0.181-5.049,0.181-7.472c0-2.797-0.08-5.508-0.24-8.133l4.424-0.157
			l4.063,8.447c-0.04-2.901-0.15-5.871-0.331-8.907l4.65-0.045c-0.462,4.585-0.692,9.214-0.692,13.888
			c0,0.629,0.005,1.257,0.015,1.885l-4.078,0.034l-4.334-9.042c0.13,3.336,0.251,6.436,0.361,9.3L140.827,48.88z"/>
		<path fill="#2B1C48" d="M155.019,35.945v-2.95c1.475,0.029,2.935,0.045,4.379,0.045c2.247,0,4.449-0.034,6.606-0.102l0.136,3.142
			h-3.793c0,5.317,0.075,9.535,0.227,12.653l-4.244,0.157c0.221-5.31,0.381-9.64,0.481-12.99L155.019,35.945z"/>
		<path fill="#2B1C48" d="M177.141,33.051v3.163l-5.944-0.179v3.679l5.343-0.111l0.135,3.04h-4.771v2.849h6.246v3.187l-10.414-0.112
			c0.11-2.102,0.165-4.218,0.165-6.35c0-2.954-0.105-5.935-0.315-8.94C169.852,33.208,173.037,33.133,177.141,33.051z"/>
		<path fill="#2B1C48" d="M192.145,39.008l-3.416,0.022c-0.051-1.899-0.692-2.898-1.927-2.995h-0.271
			c-1.104,0-1.997,0.542-2.679,1.626c-0.683,1.085-1.023,2.622-1.023,4.611v0.493c0.06,2.229,1.108,3.343,3.146,3.343
			c1.404,0,2.106-0.853,2.106-2.558c0-0.172-0.005-0.348-0.015-0.527l-2.995,0.034l0.15-2.524l7.69,0.09v2.748l-1.535,0.022
			c0,3.904-2.087,5.856-6.261,5.856c-3.862,0-5.794-2.296-5.794-6.889c0-0.381,0.016-0.781,0.046-1.2
			c0.351-5.392,2.653-8.2,6.907-8.425c0.21-0.007,0.411-0.011,0.602-0.011c3.542,0,5.312,1.78,5.312,5.34
			C192.189,38.364,192.174,38.679,192.145,39.008z"/>
		<path fill="#2B1C48" d="M194.477,49.048c0.061-2.139,0.09-4.293,0.09-6.462c0-3.32-0.07-6.675-0.21-10.062
			c1.555-0.119,2.949-0.18,4.184-0.18c3.431,0,5.618,0.468,6.561,1.402c0.883,0.875,1.325,1.84,1.325,2.895
			c0,0.479-0.086,0.973-0.256,1.48c-0.582,1.646-1.807,2.688-3.672,3.13c1.304,0.135,2.292,0.658,2.964,1.57
			c0.643,0.883,0.964,3.104,0.964,6.664v0.482l-4.545,0.045c0.05-0.942,0.075-1.788,0.075-2.535c0-2.267-0.246-3.653-0.737-4.162
			c-0.562-0.568-1.229-0.853-2.002-0.853c-0.15,0-0.306,0.011-0.467,0.033c0.061,2.281,0.19,4.442,0.392,6.484L194.477,49.048z
			 M198.329,35.138l0.105,4.801c1.866-0.067,3.05-0.538,3.552-1.413c0.271-0.464,0.406-0.916,0.406-1.357
			c0-0.382-0.101-0.756-0.302-1.122c-0.36-0.636-1.259-0.953-2.693-0.953C199.066,35.093,198.71,35.107,198.329,35.138z"/>
		<path fill="#2B1C48" d="M206.832,48.756c1.886-6.387,3.41-11.801,4.574-16.243l5.644-0.067c1.385,4.622,2.97,9.887,4.756,15.795
			l-3.853,0.583l-1.22-4.252h-4.68l-1.265,4.589L206.832,48.756z M216.613,41.42c-0.521-1.616-1.374-3.549-2.559-5.8
			c-0.913,1.892-1.685,3.852-2.317,5.878L216.613,41.42z"/>
		<path fill="#2B1C48" d="M226.802,32.333c-0.181,3.896-0.271,7.235-0.271,10.018c0,1.106,0.015,2.128,0.045,3.062l6.712-0.247
			l0.105,3.657l-10.745,0.18c0.01-0.987,0.015-1.971,0.015-2.95c0-4.495-0.13-8.967-0.391-13.417L226.802,32.333z"/>
	</g>
</g>
</svg>
