<?xml version="1.0" encoding="utf-8"?>
<!-- Generator: Adobe Illustrator 16.0.0, SVG Export Plug-In . SVG Version: 6.00 Build 0)  -->
<!DOCTYPE svg PUBLIC "-//W3C//DTD SVG 1.1//EN" "http://www.w3.org/Graphics/SVG/1.1/DTD/svg11.dtd">
<svg version="1.1" id="Capa_1" xmlns="http://www.w3.org/2000/svg" xmlns:xlink="http://www.w3.org/1999/xlink" x="0px" y="0px"
	 width="774.792px" height="156.703px" viewBox="0 0 774.792 156.703" enable-background="new 0 0 774.792 156.703"
	 xml:space="preserve">
<g>
	
		<rect x="24.961" y="8.581" transform="matrix(0.9997 -0.0243 0.0243 0.9997 -0.9466 9.2125)" fill="#2B1C48" width="705.73" height="69.796"/>
	<g>
		<path fill="#FFFFFF" d="M36.55,62.254c0.021-3.354-0.011-6.784-0.097-10.29c-0.131-5.379-0.386-10.946-0.766-16.701
			c2.917-0.377,5.495-0.594,7.735-0.647c3.522-0.086,6.182,0.231,7.979,0.953c2.782,1.118,4.217,3.513,4.307,7.184l0.016,0.631
			c-0.073,4.032-1.233,6.64-3.479,7.823c-2.247,1.184-5.036,1.854-8.369,2.012c-0.008,0.396-0.006,0.804,0.004,1.225
			c0.052,2.116,0.258,4.617,0.619,7.503L36.55,62.254z M42.566,39.533l0.407,9.345c3.177-0.205,5.02-1.098,5.529-2.679
			c0.239-0.72,0.35-1.456,0.331-2.208c-0.021-0.88-0.214-1.78-0.579-2.703c-0.546-1.351-1.846-2.002-3.897-1.951
			C43.811,39.35,43.213,39.415,42.566,39.533z"/>
		<path fill="#FFFFFF" d="M67.249,42.433c5.813-0.142,8.794,2.796,8.94,8.812c0.006,0.242,0.003,0.484-0.008,0.727
			c-0.081,6.52-3.095,9.884-9.044,10.092c-0.068,0.015-0.136,0.022-0.205,0.024c-5.66,0.138-8.564-2.872-8.714-9.028l-0.013-0.535
			C58.214,45.943,61.229,42.579,67.249,42.433z M66.508,46.812c-1.07,0.307-1.78,1.363-2.13,3.171
			c-0.214,1.076-0.307,2.156-0.28,3.239c0.018,0.727,0.087,1.458,0.208,2.195c0.318,1.828,1.222,2.757,2.711,2.784l0.18-0.004
			c1.385-0.034,2.317-0.739,2.797-2.115c0.4-1.146,0.581-2.495,0.543-4.05c-0.009-0.383-0.027-0.771-0.054-1.166
			c-0.187-2.049-0.629-3.319-1.325-3.813c-0.436-0.295-0.952-0.436-1.55-0.421C67.265,46.642,66.899,46.701,66.508,46.812z"/>
		<path fill="#FFFFFF" d="M85.057,61.321l-6.375,0.595c-0.035-4.22-0.099-8.281-0.194-12.182c-0.133-5.48-0.328-10.647-0.583-15.5
			l6.282-0.229c0.008,3.124,0.052,6.331,0.132,9.619C84.457,49.296,84.703,55.195,85.057,61.321z"/>
		<path fill="#FFFFFF" d="M87.581,61.681c-0.301-7.454-0.518-13.896-0.65-19.325l6.457-0.444c-0.079,5.205-0.055,10.377,0.07,15.513
			c0.034,1.377,0.075,2.747,0.126,4.11L87.581,61.681z M87.01,38.221c1.958-1.82,3.558-3.549,4.801-5.187l4.267,2.383
			c-1.78,1.37-3.759,3.045-5.935,5.023L87.01,38.221z"/>
		<path fill="#FFFFFF" d="M99.52,35.544l5.815-0.429l0.154,6.329l4.896-0.215l0.165,3.611l-4.972,0.293l0.212,8.699
			c0.049,2.027,1.228,3.012,3.537,2.956c0.479-0.012,0.999-0.069,1.561-0.172l-0.128,4.212c-0.819,0.097-1.596,0.153-2.331,0.171
			c-5.403,0.132-8.207-1.878-8.411-6.031l-0.228-9.35l-4.202,0.294l-0.206-4.261l4.31-0.067L99.52,35.544z"/>
		<path fill="#FFFFFF" d="M119.669,36.756c0.019,0.777-0.333,1.449-1.054,2.016c-0.722,0.565-1.605,0.861-2.647,0.887
			c-1.026,0.025-1.914-0.228-2.662-0.758c-0.749-0.53-1.133-1.184-1.151-1.961c-0.019-0.766,0.333-1.431,1.055-1.997
			c0.722-0.565,1.596-0.861,2.622-0.886c1.042-0.025,1.938,0.227,2.687,0.757S119.651,35.991,119.669,36.756z M113.383,61.052
			c-0.301-7.453-0.518-13.896-0.65-19.325l6.457-0.444c-0.079,5.206-0.055,10.377,0.07,15.514c0.034,1.376,0.076,2.746,0.126,4.109
			L113.383,61.052z"/>
		<path fill="#FFFFFF" d="M131.964,52.622l6.111,0.138c0.112,4.602-2.678,7.004-8.371,7.206c-0.068,0.015-0.127,0.022-0.179,0.023
			c-5.421,0.132-8.206-2.867-8.354-8.998l-0.014-0.574c0.01-6.581,2.819-9.972,8.426-10.172l0.206-0.005
			c5.164-0.126,7.799,2.017,7.907,6.427c0.006,0.255,0.004,0.51-0.007,0.765l-5.507,0.44l-0.011-0.459
			c-0.057-2.319-0.966-3.458-2.727-3.415c-1.795,0.044-2.647,1.946-2.556,5.706l0.016,0.631c0.202,4.063,1.157,6.074,2.867,6.032
			l0.154-0.004c1.485-0.125,2.208-0.991,2.169-2.597C132.086,53.423,132.042,53.041,131.964,52.622z"/>
		<path fill="#FFFFFF" d="M149.823,39.867c5.631,0.092,8.496,2.133,8.592,6.122l0.331,13.575l-5.975,0.222l-0.249-1.811
			c-1.206,1.075-2.826,1.637-4.861,1.687c-0.872,0.021-1.815-0.058-2.829-0.237c-3.04-0.486-4.596-2.196-4.667-5.128
			c-0.009-0.356,0.007-0.739,0.049-1.149c0.269-3.028,3.113-4.609,8.533-4.741c1.043-0.025,2.19,0.004,3.441,0.088l-0.054-2.218
			c-0.044-1.797-0.827-2.677-2.349-2.64l-0.103,0.002c-0.12-0.01-0.231-0.014-0.334-0.011c-1.659,0.04-2.463,1.067-2.414,3.081
			l0.007,0.287l-6.114-0.233c-0.108-4.448,2.71-6.743,8.456-6.883L149.823,39.867z M152.346,54.919l-0.082-3.365
			c-0.738-0.097-1.406-0.138-2.005-0.123c-1.556,0.037-2.606,0.452-3.152,1.243c-0.331,0.48-0.491,0.924-0.481,1.332
			c0.013,0.51,0.297,0.956,0.854,1.337c0.435,0.296,0.994,0.436,1.678,0.419C150.03,55.74,151.092,55.459,152.346,54.919z"/>
		<path fill="#FFFFFF" d="M170.769,58.984c0.021-3.354-0.011-6.784-0.097-10.29c-0.131-5.379-0.386-10.945-0.766-16.701
			c2.917-0.377,5.495-0.593,7.735-0.647c3.522-0.086,6.182,0.232,7.979,0.953c2.782,1.118,4.217,3.514,4.307,7.185l0.016,0.631
			c-0.073,4.031-1.233,6.64-3.479,7.822c-2.247,1.184-5.036,1.854-8.369,2.012c-0.008,0.396-0.006,0.804,0.004,1.225
			c0.052,2.116,0.258,4.617,0.619,7.503L170.769,58.984z M176.785,36.264l0.407,9.345c3.177-0.204,5.02-1.098,5.529-2.679
			c0.239-0.72,0.35-1.456,0.331-2.208c-0.021-0.88-0.214-1.78-0.579-2.702c-0.546-1.352-1.846-2.002-3.897-1.952
			C178.029,36.081,177.432,36.146,176.785,36.264z"/>
		<path fill="#FFFFFF" d="M206.229,58.694l-0.333-3.109c-0.678,1.674-2.59,2.557-5.736,2.646c-0.034,0.014-0.06,0.021-0.076,0.021
			c-3.112,0.076-5.198-0.919-6.258-2.984c-0.718-1.373-1.13-4.238-1.236-8.598c-0.055-2.243-0.025-4.891,0.089-7.941l6.232-0.152
			c-0.238,4.291-0.328,7.591-0.272,9.897c0.028,1.16,0.093,2.063,0.194,2.712c0.305,1.982,1.192,2.955,2.663,2.919
			c1.47-0.035,2.381-0.574,2.732-1.616l-0.58-13.262l6.026-0.186c0.133,5.481,0.554,11.86,1.262,19.139L206.229,58.694z
			 M198.311,34.955c1.957-1.82,3.558-3.549,4.801-5.187l4.267,2.383c-1.78,1.37-3.759,3.045-5.934,5.023L198.311,34.955z"/>
		<path fill="#FFFFFF" d="M219.395,31.305c-0.095,3.841-0.107,7.176-0.039,10.006c0.876-1.232,2.014-1.969,3.411-2.207
			c0.238-0.018,0.469-0.03,0.691-0.035c5.574-0.136,8.495,2.796,8.761,8.797l0.008,0.344c0.146,6.017-2.747,9.097-8.68,9.241
			c-1.42,0.035-2.779-0.64-4.079-2.024l-0.134,2.931l-6.08,0.129c-0.028-4.667-0.094-9.154-0.199-13.463
			c-0.115-4.729-0.276-9.246-0.484-13.552L219.395,31.305z M219.443,44.886l0.033,6.618c0.921,1.33,2.066,1.978,3.435,1.944
			c0.154-0.004,0.308-0.014,0.461-0.03c1.569-0.204,2.403-1.8,2.501-4.786c0.009-0.307,0.011-0.6,0.004-0.88
			c-0.06-2.447-0.762-3.891-2.107-4.33c-0.414-0.13-0.817-0.19-1.21-0.181C221.482,43.268,220.443,43.815,219.443,44.886z"/>
		<path fill="#FFFFFF" d="M241.693,57.506l-6.376,0.595c-0.034-4.22-0.099-8.28-0.194-12.181
			c-0.133-5.481-0.328-10.648-0.583-15.501l6.282-0.229c0.007,3.124,0.051,6.331,0.131,9.619
			C241.092,45.481,241.338,51.38,241.693,57.506z"/>
		<path fill="#FFFFFF" d="M250.502,33.569c0.019,0.777-0.333,1.449-1.054,2.016c-0.722,0.565-1.604,0.861-2.647,0.887
			c-1.026,0.025-1.914-0.228-2.662-0.758c-0.749-0.53-1.132-1.184-1.151-1.962c-0.019-0.765,0.333-1.43,1.055-1.996
			c0.722-0.565,1.596-0.861,2.622-0.886c1.042-0.025,1.938,0.227,2.688,0.757C250.1,32.157,250.484,32.805,250.502,33.569z
			 M244.216,57.865c-0.301-7.454-0.518-13.896-0.65-19.325l6.457-0.444c-0.079,5.205-0.056,10.377,0.069,15.514
			c0.034,1.376,0.076,2.746,0.126,4.109L244.216,57.865z"/>
		<path fill="#FFFFFF" d="M262.797,49.436l6.111,0.138c0.112,4.602-2.678,7.003-8.371,7.206c-0.068,0.015-0.128,0.021-0.179,0.023
			c-5.42,0.132-8.205-2.867-8.354-8.999l-0.014-0.573c0.011-6.581,2.82-9.972,8.427-10.172l0.205-0.005
			c5.164-0.126,7.799,2.016,7.907,6.426c0.006,0.256,0.004,0.511-0.007,0.766l-5.507,0.44l-0.011-0.459
			c-0.057-2.319-0.965-3.458-2.727-3.415c-1.795,0.043-2.647,1.945-2.556,5.705l0.015,0.631c0.202,4.064,1.157,6.075,2.867,6.033
			l0.154-0.004c1.485-0.125,2.208-0.991,2.169-2.597C262.919,50.235,262.875,49.854,262.797,49.436z"/>
		<path fill="#FFFFFF" d="M280.657,36.68c5.631,0.093,8.495,2.134,8.592,6.123l0.331,13.575l-5.974,0.222l-0.25-1.812
			c-1.206,1.075-2.826,1.638-4.86,1.688c-0.872,0.021-1.815-0.058-2.829-0.237c-3.04-0.487-4.596-2.196-4.667-5.128
			c-0.008-0.356,0.008-0.74,0.049-1.149c0.268-3.029,3.112-4.609,8.533-4.741c1.043-0.025,2.19,0.004,3.441,0.088l-0.054-2.218
			c-0.043-1.797-0.827-2.677-2.349-2.64l-0.102,0.002c-0.12-0.01-0.231-0.014-0.334-0.011c-1.659,0.04-2.463,1.067-2.415,3.081
			l0.007,0.287l-6.113-0.234c-0.108-4.447,2.71-6.742,8.455-6.882L280.657,36.68z M283.179,51.731l-0.082-3.365
			c-0.738-0.097-1.407-0.138-2.005-0.123c-1.556,0.038-2.607,0.453-3.152,1.244c-0.331,0.479-0.491,0.924-0.48,1.332
			c0.012,0.51,0.297,0.955,0.854,1.337c0.435,0.296,0.994,0.435,1.679,0.418C280.864,52.554,281.926,52.272,283.179,51.731z"/>
		<path fill="#FFFFFF" d="M319.937,28.855c0.002,4.311,0.061,8.83,0.176,13.56c0.105,4.308,0.257,8.793,0.456,13.456l-6.078,0.168
			l-0.276-2.921c-1.231,1.446-2.898,2.194-5.001,2.246c-5.25,0.127-7.947-2.804-8.093-8.795c-0.003-0.127,0.002-0.255,0.017-0.383
			c-0.043-6.006,2.482-9.071,7.578-9.195c0.205-0.005,0.419-0.004,0.642,0.004c1.746,0.034,3.174,0.707,4.284,2.019
			c-0.069-2.829-0.244-6.16-0.525-9.992L319.937,28.855z M314.016,49.201l-0.289-6.612c-1.017-0.982-2.046-1.461-3.089-1.436
			c-0.428,0.011-0.854,0.104-1.276,0.279c-1.338,0.557-1.978,2.038-1.919,4.447c0.007,0.28,0.022,0.567,0.047,0.859
			c0.242,2.915,1.151,4.437,2.729,4.563c0.154,0.009,0.309,0.012,0.462,0.008C312.048,51.277,313.16,50.574,314.016,49.201z"/>
		<path fill="#FFFFFF" d="M330.479,36.021c5.933-0.145,8.972,2.721,9.115,8.597c0.018,0.714-0.007,1.48-0.072,2.298l-11.465,0.279
			c0.08,3.276,0.966,4.893,2.659,4.852l0.179-0.004c1.486-0.126,2.209-0.991,2.17-2.598c-0.009-0.344-0.052-0.726-0.131-1.145
			l6.102-0.244c0.119,4.856-2.668,7.386-8.361,7.588c-0.068,0.015-0.128,0.022-0.179,0.023c-5.421,0.132-8.206-2.867-8.355-8.998
			l-0.014-0.574C322.138,39.515,324.922,36.156,330.479,36.021z M327.356,43.692l5.796-0.142l-0.011-0.459
			c-0.057-2.319-0.966-3.458-2.727-3.415C328.517,39.723,327.497,41.062,327.356,43.692z"/>
		<path fill="#FFFFFF" d="M349.842,54.432c2.949-10.964,5.323-20.255,7.123-27.875l9.615-0.349
			c2.552,7.819,5.472,16.728,8.761,26.723l-6.542,1.154l-2.254-7.196l-7.977,0.194l-1.964,7.872L349.842,54.432z M366.209,41.521
			c-0.957-2.731-2.49-5.991-4.601-9.778c-1.478,3.263-2.713,6.635-3.706,10.114L366.209,41.521z"/>
		<path fill="#FFFFFF" d="M379.627,28.722l5.815-0.429l0.154,6.328l4.896-0.215l0.165,3.612l-4.972,0.293l0.212,8.699
			c0.049,2.026,1.228,3.012,3.537,2.955c0.479-0.011,0.999-0.068,1.562-0.172l-0.129,4.212c-0.818,0.097-1.596,0.154-2.331,0.172
			c-5.403,0.132-8.207-1.879-8.411-6.031l-0.228-9.35l-4.202,0.294l-0.207-4.262l4.31-0.066L379.627,28.722z"/>
		<path fill="#FFFFFF" d="M401.039,34.303c5.933-0.145,8.972,2.722,9.115,8.597c0.017,0.715-0.007,1.48-0.072,2.298l-11.465,0.279
			c0.08,3.276,0.966,4.894,2.659,4.852l0.18-0.004c1.485-0.126,2.208-0.991,2.169-2.598c-0.008-0.344-0.052-0.726-0.13-1.145
			l6.102-0.244c0.119,4.856-2.668,7.386-8.361,7.588c-0.068,0.015-0.128,0.022-0.179,0.023c-5.421,0.132-8.205-2.867-8.354-8.998
			l-0.014-0.573C392.697,37.796,395.481,34.438,401.039,34.303z M397.915,41.974l5.797-0.142l-0.011-0.459
			c-0.057-2.319-0.966-3.458-2.727-3.415C399.076,38.005,398.056,39.343,397.915,41.974z"/>
		<path fill="#FFFFFF" d="M416.569,33.427l0.333,3.11c0.678-1.674,2.546-2.562,5.606-2.662l0.103-0.002
			c3.009-0.073,5.083,0.756,6.22,2.488c0.782,1.18,1.226,3.975,1.333,8.385c0.053,2.167,0.021,4.731-0.095,7.693l-6.207,0.151
			c0.126-3.944,0.163-7,0.11-9.167c-0.026-1.083-0.073-1.949-0.14-2.598c-0.218-1.908-1.062-2.844-2.532-2.809
			c-1.471,0.036-2.382,0.568-2.733,1.598l0.594,13.854l-6.027,0.186c-0.143-5.863-0.568-12.44-1.276-19.731L416.569,33.427z"/>
		<path fill="#FFFFFF" d="M442.799,45.051l6.111,0.138c0.112,4.602-2.678,7.004-8.371,7.206c-0.068,0.015-0.128,0.022-0.179,0.023
			c-5.42,0.132-8.205-2.867-8.354-8.998l-0.014-0.573c0.011-6.582,2.82-9.973,8.427-10.173l0.205-0.005
			c5.164-0.126,7.8,2.017,7.907,6.427c0.006,0.255,0.003,0.51-0.007,0.765l-5.507,0.44l-0.011-0.459
			c-0.057-2.319-0.965-3.458-2.727-3.415c-1.795,0.044-2.647,1.946-2.556,5.706l0.016,0.631c0.201,4.063,1.157,6.074,2.867,6.032
			l0.154-0.003c1.485-0.126,2.208-0.991,2.169-2.598C442.921,45.852,442.877,45.47,442.799,45.051z"/>
		<path fill="#FFFFFF" d="M457.82,28.52c0.019,0.777-0.333,1.449-1.054,2.016c-0.722,0.565-1.605,0.861-2.647,0.887
			c-1.026,0.025-1.914-0.228-2.662-0.758s-1.132-1.184-1.151-1.962c-0.019-0.765,0.333-1.43,1.055-1.996
			c0.722-0.565,1.596-0.861,2.622-0.886c1.043-0.025,1.939,0.227,2.688,0.757S457.801,27.755,457.82,28.52z M451.534,52.815
			c-0.301-7.453-0.518-13.896-0.65-19.325l6.457-0.444c-0.079,5.206-0.055,10.377,0.07,15.514c0.034,1.376,0.075,2.746,0.126,4.109
			L451.534,52.815z"/>
		<path fill="#FFFFFF" d="M468.366,32.663c5.813-0.142,8.794,2.796,8.94,8.812c0.006,0.242,0.003,0.484-0.008,0.728
			c-0.081,6.519-3.096,9.883-9.044,10.092c-0.068,0.014-0.137,0.022-0.205,0.023c-5.66,0.138-8.565-2.871-8.715-9.027l-0.013-0.535
			C459.332,36.173,462.347,32.81,468.366,32.663z M464.941,29.016c1.958-1.82,3.558-3.549,4.801-5.187l4.267,2.383
			c-1.78,1.37-3.758,3.045-5.934,5.023L464.941,29.016z M467.625,37.042c-1.07,0.308-1.78,1.364-2.13,3.171
			c-0.213,1.076-0.307,2.156-0.28,3.239c0.018,0.727,0.087,1.459,0.208,2.195c0.318,1.829,1.222,2.757,2.711,2.784l0.18-0.004
			c1.385-0.034,2.317-0.738,2.797-2.115c0.399-1.145,0.581-2.494,0.543-4.05c-0.009-0.383-0.027-0.771-0.054-1.166
			c-0.187-2.048-0.628-3.319-1.325-3.812c-0.435-0.296-0.952-0.436-1.55-0.422C468.383,36.871,468.017,36.931,467.625,37.042z"/>
		<path fill="#FFFFFF" d="M483.205,31.804l0.332,3.11c0.678-1.674,2.547-2.562,5.607-2.662l0.103-0.002
			c3.009-0.073,5.083,0.756,6.22,2.488c0.781,1.18,1.226,3.975,1.333,8.385c0.053,2.167,0.021,4.731-0.095,7.693l-6.207,0.151
			c0.126-3.944,0.163-7,0.11-9.167c-0.026-1.083-0.073-1.949-0.14-2.598c-0.218-1.908-1.062-2.844-2.532-2.809
			c-1.471,0.036-2.382,0.568-2.733,1.598l0.594,13.854l-6.027,0.186c-0.143-5.863-0.568-12.44-1.276-19.731L483.205,31.804z"/>
		<path fill="#FFFFFF" d="M499.195,54.026c1.888-0.454,2.972-1.265,3.251-2.432c-1.325-0.3-2.198-0.674-2.619-1.122
			c-0.422-0.449-0.64-0.961-0.653-1.534c-0.014-0.573,0.136-1.084,0.45-1.531c0.313-0.448,0.771-0.794,1.373-1.038
			s1.201-0.38,1.8-0.407l0.051-0.002c0.564-0.014,1.113,0.05,1.647,0.189c0.534,0.153,0.972,0.392,1.313,0.715
			c0.341,0.323,0.585,0.671,0.731,1.044c0.146,0.372,0.234,0.819,0.264,1.342l0.002,0.076c0.012,0.511-0.068,1.073-0.241,1.689
			c-0.172,0.655-0.482,1.281-0.93,1.879c-0.447,0.597-1.105,1.171-1.972,1.722c-0.868,0.551-2.173,0.897-3.914,1.042L499.195,54.026
			z"/>
		<path fill="#FFFFFF" d="M516.968,50.36c2.95-10.963,5.324-20.255,7.123-27.874l9.615-0.35c2.552,7.82,5.472,16.728,8.761,26.723
			l-6.542,1.154l-2.254-7.195l-7.977,0.194l-1.964,7.872L516.968,50.36z M533.335,37.451c-0.957-2.731-2.49-5.991-4.601-9.779
			c-1.478,3.263-2.713,6.635-3.706,10.115L533.335,37.451z"/>
		<path fill="#FFFFFF" d="M542.624,43.71l5.869-0.354l0.006,0.248c0.048,1.964,0.884,2.938,2.509,2.924l0.103-0.003
			c1.573-0.038,2.346-0.624,2.318-1.759l-0.003-0.134c-0.099-1.247-1.675-2.217-4.729-2.907c-3.054-0.691-4.911-1.934-5.57-3.729
			c-0.238-0.632-0.364-1.241-0.378-1.828c-0.026-1.07,0.317-2.073,1.03-3.009c1.094-1.43,2.785-2.274,5.071-2.534
			c0.614-0.066,1.212-0.106,1.793-0.12c1.522-0.037,2.869,0.128,4.042,0.494c1.604,0.51,2.726,1.267,3.366,2.271
			c0.427,0.691,0.652,1.464,0.672,2.317c0.01,0.408-0.022,0.83-0.097,1.265l-5.487,0.229c0.044-0.319,0.062-0.613,0.056-0.881
			c-0.031-1.274-0.595-1.943-1.691-2.006c-0.12-0.01-0.24-0.014-0.359-0.011c-1.129,0.027-1.879,0.474-2.251,1.337
			c-0.13,0.297-0.191,0.565-0.186,0.808c0.015,0.6,0.403,1.106,1.166,1.521c1.075,0.586,2.659,1.169,4.752,1.749
			c2.093,0.581,3.517,1.621,4.272,3.12c0.271,0.567,0.413,1.138,0.427,1.711c0.023,0.969-0.329,1.953-1.057,2.953
			c-1.159,1.597-2.992,2.554-5.5,2.869c-0.546,0.077-1.083,0.122-1.613,0.135c-1.881,0.046-3.634-0.274-5.259-0.962
			C543.819,48.546,542.729,46.641,542.624,43.71z"/>
		<path fill="#FFFFFF" d="M567.904,25.838c0.019,0.778-0.333,1.45-1.055,2.016c-0.722,0.566-1.604,0.861-2.647,0.887
			c-1.026,0.025-1.914-0.228-2.662-0.758c-0.749-0.529-1.132-1.184-1.151-1.961c-0.019-0.765,0.333-1.431,1.055-1.996
			c0.722-0.566,1.596-0.861,2.622-0.887c1.043-0.025,1.939,0.228,2.688,0.757C567.5,24.426,567.885,25.073,567.904,25.838z
			 M561.617,50.134c-0.301-7.453-0.518-13.895-0.65-19.325l6.457-0.444c-0.078,5.206-0.056,10.377,0.07,15.514
			c0.033,1.377,0.075,2.747,0.125,4.11L561.617,50.134z"/>
		<path fill="#FFFFFF" d="M569.426,43.057l5.868-0.354l0.007,0.249c0.047,1.963,0.884,2.938,2.509,2.923l0.103-0.002
			c1.573-0.038,2.346-0.625,2.318-1.759l-0.003-0.135c-0.1-1.247-1.676-2.216-4.729-2.907c-3.054-0.69-4.91-1.934-5.569-3.729
			c-0.238-0.632-0.364-1.241-0.379-1.827c-0.025-1.071,0.317-2.074,1.03-3.01c1.095-1.43,2.785-2.274,5.071-2.534
			c0.614-0.065,1.212-0.105,1.794-0.12c1.521-0.037,2.868,0.128,4.041,0.495c1.604,0.509,2.726,1.267,3.366,2.271
			c0.427,0.691,0.651,1.464,0.672,2.318c0.01,0.407-0.022,0.829-0.098,1.265l-5.486,0.229c0.044-0.32,0.062-0.614,0.056-0.882
			c-0.031-1.274-0.595-1.943-1.691-2.006c-0.12-0.01-0.24-0.013-0.359-0.01c-1.129,0.027-1.879,0.473-2.252,1.336
			c-0.13,0.297-0.191,0.566-0.186,0.809c0.015,0.599,0.403,1.106,1.167,1.521c1.074,0.586,2.658,1.17,4.751,1.75
			c2.094,0.58,3.518,1.62,4.272,3.119c0.271,0.567,0.413,1.138,0.427,1.712c0.023,0.969-0.329,1.952-1.058,2.952
			c-1.158,1.598-2.991,2.554-5.499,2.87c-0.546,0.077-1.084,0.122-1.613,0.135c-1.881,0.046-3.635-0.275-5.259-0.963
			C570.622,47.894,569.532,45.988,569.426,43.057z"/>
		<path fill="#FFFFFF" d="M591.766,23.555l5.815-0.429l0.154,6.328l4.896-0.215l0.165,3.611l-4.972,0.294l0.212,8.699
			c0.049,2.026,1.229,3.012,3.537,2.955c0.479-0.012,0.999-0.068,1.561-0.172l-0.128,4.212c-0.819,0.097-1.597,0.154-2.331,0.172
			c-5.404,0.132-8.207-1.879-8.411-6.032l-0.228-9.349l-4.202,0.293l-0.206-4.261l4.31-0.066L591.766,23.555z"/>
		<path fill="#FFFFFF" d="M613.177,29.136c5.934-0.145,8.972,2.721,9.115,8.597c0.018,0.714-0.007,1.48-0.072,2.298l-11.465,0.279
			c0.079,3.275,0.966,4.893,2.658,4.852l0.18-0.004c1.485-0.126,2.209-0.991,2.17-2.598c-0.009-0.344-0.053-0.726-0.131-1.145
			l6.103-0.244c0.118,4.856-2.669,7.386-8.361,7.588c-0.068,0.015-0.128,0.022-0.18,0.023c-5.42,0.132-8.205-2.867-8.354-8.998
			l-0.014-0.574C604.836,32.629,607.621,29.271,613.177,29.136z M610.054,36.807l5.796-0.142l-0.011-0.459
			c-0.057-2.319-0.966-3.458-2.727-3.415C611.214,32.837,610.195,34.176,610.054,36.807z"/>
		<path fill="#FFFFFF" d="M628.708,28.26l0.333,3.11c0.678-1.675,2.546-2.562,5.606-2.662l0.103-0.002
			c3.009-0.073,5.082,0.756,6.22,2.488c0.781,1.18,1.227,3.975,1.334,8.385c0.053,2.167,0.021,4.731-0.095,7.693l-6.207,0.15
			c0.126-3.943,0.162-6.999,0.109-9.166c-0.025-1.083-0.072-1.949-0.14-2.599c-0.218-1.907-1.062-2.844-2.532-2.808
			s-2.382,0.568-2.732,1.597l0.594,13.855l-6.026,0.186c-0.144-5.863-0.568-12.44-1.276-19.731L628.708,28.26z"/>
		<path fill="#FFFFFF" d="M654.938,39.884l6.111,0.138c0.112,4.602-2.679,7.004-8.371,7.206c-0.067,0.015-0.127,0.022-0.179,0.023
			c-5.421,0.132-8.205-2.867-8.354-8.998l-0.014-0.574c0.01-6.581,2.819-9.972,8.426-10.172l0.205-0.005
			c5.164-0.126,7.8,2.017,7.907,6.427c0.007,0.255,0.004,0.51-0.007,0.765l-5.507,0.44l-0.011-0.459
			c-0.057-2.319-0.966-3.458-2.727-3.415c-1.796,0.044-2.647,1.946-2.557,5.706l0.016,0.631c0.202,4.063,1.157,6.074,2.867,6.032
			l0.154-0.003c1.485-0.126,2.209-0.991,2.17-2.598C655.06,40.685,655.016,40.303,654.938,39.884z"/>
		<path fill="#FFFFFF" d="M669.959,23.353c0.019,0.777-0.333,1.449-1.055,2.015c-0.723,0.566-1.604,0.862-2.647,0.888
			c-1.026,0.024-1.914-0.228-2.662-0.758c-0.749-0.53-1.132-1.184-1.151-1.962c-0.019-0.765,0.333-1.43,1.055-1.996
			c0.722-0.565,1.596-0.861,2.622-0.887c1.043-0.025,1.938,0.228,2.688,0.758C669.556,21.94,669.94,22.588,669.959,23.353z
			 M663.672,47.648c-0.301-7.454-0.518-13.896-0.65-19.325l6.457-0.444c-0.078,5.205-0.056,10.377,0.07,15.514
			c0.033,1.376,0.075,2.746,0.125,4.109L663.672,47.648z"/>
		<path fill="#FFFFFF" d="M681.389,26.919c5.631,0.093,8.495,2.134,8.593,6.123l0.331,13.575l-5.975,0.222l-0.249-1.812
			c-1.206,1.075-2.826,1.638-4.861,1.688c-0.872,0.021-1.815-0.058-2.829-0.237c-3.04-0.487-4.596-2.196-4.667-5.128
			c-0.009-0.356,0.008-0.74,0.049-1.149c0.269-3.029,3.112-4.609,8.533-4.741c1.043-0.026,2.19,0.004,3.441,0.088l-0.054-2.218
			c-0.044-1.797-0.827-2.678-2.349-2.641l-0.103,0.003c-0.12-0.01-0.231-0.014-0.334-0.011c-1.659,0.04-2.464,1.067-2.414,3.081
			l0.007,0.287l-6.114-0.234c-0.107-4.448,2.711-6.742,8.456-6.882L681.389,26.919z M683.912,41.971l-0.082-3.364
			c-0.738-0.098-1.406-0.139-2.005-0.124c-1.556,0.038-2.606,0.453-3.152,1.244c-0.33,0.479-0.49,0.924-0.48,1.331
			c0.013,0.511,0.297,0.956,0.854,1.338c0.435,0.296,0.994,0.435,1.678,0.418C681.596,42.793,682.659,42.512,683.912,41.971z"/>
		<path fill="#FFFFFF" d="M701.407,26.91l6.71-0.565c-0.061,3.828-0.061,6.978-0.001,9.45c0.023,0.931,0.061,1.766,0.113,2.504
			c0.134,2.726,0.989,4.108,2.564,4.146c0.103,0.01,0.196,0.014,0.282,0.012c1.402-0.034,2.276-0.654,2.624-1.862
			c0.188-0.706,0.25-2.371,0.186-4.997c-0.051-2.104-0.186-4.816-0.403-8.14l6.302-0.498c0.162,3.886,0.278,7.225,0.346,10.016
			c0.085,3.479,0.098,6.107,0.038,7.881c-0.093,3.19-1.257,5.643-3.49,7.354c-2.016,1.554-4.879,2.377-8.589,2.467
			c-0.428,0.011-0.864,0.009-1.309-0.006l-0.832-4.647c0.325,0.004,0.642,0.003,0.949-0.005c2.873-0.069,4.83-0.493,5.872-1.271
			c1.075-0.804,1.592-2.066,1.55-3.787l-0.008-0.306c-0.946,1.171-2.429,1.78-4.446,1.83l-0.358,0.009
			c-2.208-0.023-3.934-0.628-5.178-1.816c-1.243-1.188-1.947-2.879-2.112-5.075S701.782,33.176,701.407,26.91z"/>
	</g>
	
		<rect x="0.495" y="69.333" transform="matrix(0.9997 -0.0243 0.0243 0.9997 -2.1827 9.4609)" fill="#ABC02F" width="773.802" height="50.046"/>
	<g>
		<g>
			<path fill="#FFFFFF" d="M10.559,113.715c0.014-3.647-0.024-7.319-0.115-11.017c-0.138-5.659-0.396-11.373-0.776-17.141
				c2.645-0.269,5.02-0.429,7.123-0.479c5.848-0.143,9.595,0.563,11.241,2.117c1.541,1.455,2.333,3.081,2.377,4.878
				c0.02,0.815-0.105,1.66-0.375,2.534c-0.923,2.828-2.966,4.657-6.128,5.486c2.229,0.176,3.935,1.027,5.118,2.554
				c1.131,1.478,1.771,5.25,1.918,11.317l0.02,0.822l-7.744,0.265c0.046-1.607,0.054-3.049,0.023-4.324
				c-0.094-3.861-0.571-6.216-1.43-7.062c-0.981-0.945-2.13-1.401-3.447-1.37c-0.256,0.007-0.521,0.032-0.793,0.077
				c0.197,3.885,0.509,7.563,0.936,11.035L10.559,113.715z M16.547,89.848l0.379,8.179c3.178-0.192,5.176-1.045,5.995-2.557
				c0.442-0.802,0.654-1.578,0.636-2.33c-0.016-0.65-0.203-1.283-0.56-1.899c-0.642-1.068-2.186-1.573-4.631-1.514
				C17.802,89.74,17.195,89.78,16.547,89.848z"/>
			<path fill="#FFFFFF" d="M40.967,93.595c5.934-0.145,8.972,2.722,9.115,8.598c0.017,0.714-0.007,1.479-0.073,2.298l-11.465,0.278
				c0.08,3.276,0.966,4.894,2.659,4.853l0.179-0.005c1.486-0.125,2.209-0.991,2.169-2.597c-0.008-0.345-0.052-0.726-0.13-1.145
				l6.102-0.245c0.118,4.856-2.668,7.387-8.361,7.589c-0.068,0.015-0.127,0.021-0.179,0.023c-5.42,0.132-8.205-2.867-8.354-8.999
				l-0.014-0.573C32.626,97.089,35.41,93.73,40.967,93.595z M37.844,101.267l5.796-0.142l-0.011-0.459
				c-0.057-2.319-0.966-3.458-2.727-3.415C39.004,97.297,37.985,98.636,37.844,101.267z"/>
			<path fill="#FFFFFF" d="M52.609,120.592c-0.002-4.298-0.062-8.868-0.18-13.712c-0.107-4.41-0.263-9.036-0.466-13.878l6.078-0.167
				l0.277,2.939c1.23-1.458,2.897-2.213,5-2.265c5.25-0.128,7.95,2.899,8.1,9.081l0.009,0.383c0.031,6.197-2.509,9.358-7.622,9.482
				c-0.205,0.006-0.411,0.004-0.616-0.004c-1.746-0.021-3.174-0.694-4.284-2.02c0.069,2.83,0.244,6.161,0.526,9.993L52.609,120.592z
				 M58.516,99.691l0.303,7.186c1.016,0.983,2.029,1.462,3.038,1.438c0.411-0.01,0.819-0.109,1.225-0.298
				c1.236-0.54,1.823-2.078,1.761-4.615c-0.007-0.306-0.024-0.624-0.049-0.955c-0.247-3.105-1.116-4.724-2.608-4.854
				c-0.154-0.009-0.3-0.012-0.437-0.008C60.45,97.616,59.372,98.318,58.516,99.691z"/>
			<path fill="#FFFFFF" d="M83.12,92.014c5.631,0.093,8.496,2.134,8.593,6.123l0.331,13.574l-5.974,0.223l-0.25-1.812
				c-1.206,1.075-2.826,1.638-4.861,1.688c-0.872,0.021-1.815-0.059-2.829-0.237c-3.04-0.487-4.596-2.196-4.667-5.129
				c-0.009-0.356,0.007-0.739,0.049-1.148c0.269-3.029,3.113-4.61,8.533-4.742c1.043-0.025,2.19,0.004,3.441,0.089l-0.054-2.218
				c-0.044-1.798-0.827-2.678-2.349-2.641l-0.103,0.003c-0.12-0.01-0.231-0.014-0.334-0.012c-1.658,0.041-2.463,1.068-2.414,3.082
				l0.007,0.286l-6.113-0.233c-0.108-4.448,2.71-6.742,8.455-6.883L83.12,92.014z M85.643,107.065l-0.082-3.365
				c-0.738-0.097-1.406-0.138-2.005-0.123c-1.556,0.038-2.606,0.452-3.152,1.243c-0.331,0.48-0.491,0.925-0.481,1.332
				c0.013,0.51,0.297,0.956,0.854,1.338c0.435,0.295,0.994,0.435,1.678,0.418C83.327,107.887,84.39,107.606,85.643,107.065z"/>
			<path fill="#FFFFFF" d="M100.591,98.073l0.594,13.855l-6.283,0.191c-0.143-5.863-0.568-12.44-1.276-19.731l4.71-0.497l0.333,3.11
				c0.681-1.547,2.335-2.461,4.963-2.742c0.393-0.034,0.769-0.057,1.128-0.065c2.068-0.051,3.654,0.415,4.756,1.396
				c1.277,1.168,1.957,3.058,2.037,5.671l-5.684,0.559c0.012-0.217,0.016-0.428,0.01-0.631c-0.049-2.04-0.784-3.042-2.203-3.008
				l-0.103,0.003C101.933,96.287,100.939,96.917,100.591,98.073z"/>
			<path fill="#FFFFFF" d="M123.004,91.042c5.631,0.093,8.495,2.134,8.592,6.123l0.331,13.575l-5.974,0.222l-0.25-1.812
				c-1.206,1.075-2.826,1.638-4.861,1.688c-0.872,0.021-1.815-0.058-2.829-0.237c-3.04-0.487-4.596-2.196-4.667-5.128
				c-0.009-0.357,0.008-0.74,0.049-1.149c0.268-3.029,3.112-4.609,8.533-4.742c1.042-0.025,2.19,0.005,3.441,0.089l-0.054-2.218
				c-0.043-1.797-0.827-2.678-2.348-2.641l-0.103,0.003c-0.12-0.01-0.231-0.014-0.334-0.011c-1.659,0.04-2.463,1.067-2.415,3.081
				l0.007,0.287l-6.114-0.234c-0.108-4.448,2.71-6.742,8.456-6.882L123.004,91.042z M125.526,106.094l-0.082-3.365
				c-0.738-0.097-1.407-0.138-2.005-0.123c-1.556,0.038-2.607,0.453-3.152,1.244c-0.331,0.479-0.491,0.924-0.481,1.331
				c0.012,0.511,0.296,0.956,0.854,1.338c0.435,0.296,0.995,0.435,1.679,0.418C123.211,106.915,124.273,106.635,125.526,106.094z"/>
			<path fill="#FFFFFF" d="M144.284,102.844l6.111,0.139c0.112,4.601-2.678,7.003-8.371,7.205c-0.068,0.015-0.128,0.022-0.179,0.023
				c-5.42,0.132-8.205-2.867-8.354-8.998l-0.014-0.573c0.01-6.581,2.819-9.972,8.426-10.173l0.205-0.005
				c5.164-0.126,7.8,2.017,7.907,6.427c0.006,0.255,0.003,0.51-0.007,0.766l-5.507,0.44l-0.011-0.459
				c-0.056-2.32-0.965-3.459-2.727-3.416c-1.795,0.044-2.647,1.946-2.556,5.706l0.016,0.631c0.202,4.063,1.157,6.074,2.867,6.033
				l0.154-0.004c1.485-0.125,2.208-0.991,2.169-2.598C144.406,103.645,144.362,103.263,144.284,102.844z"/>
			<path fill="#FFFFFF" d="M159.305,86.312c0.019,0.777-0.333,1.449-1.054,2.016c-0.722,0.565-1.604,0.861-2.647,0.887
				c-1.026,0.025-1.914-0.228-2.662-0.758c-0.749-0.529-1.133-1.184-1.151-1.961c-0.019-0.765,0.333-1.431,1.055-1.996
				c0.722-0.566,1.596-0.862,2.622-0.887c1.042-0.025,1.938,0.227,2.687,0.757S159.287,85.548,159.305,86.312z M153.019,110.608
				c-0.301-7.453-0.518-13.896-0.65-19.325l6.456-0.444c-0.078,5.206-0.055,10.377,0.07,15.514c0.034,1.377,0.076,2.746,0.126,4.109
				L153.019,110.608z"/>
			<path fill="#FFFFFF" d="M169.852,90.456c5.813-0.142,8.793,2.796,8.94,8.812c0.006,0.242,0.003,0.485-0.008,0.728
				c-0.081,6.519-3.096,9.883-9.044,10.092c-0.068,0.015-0.136,0.022-0.205,0.023c-5.66,0.139-8.564-2.871-8.715-9.027l-0.013-0.535
				C160.817,93.967,163.833,90.603,169.852,90.456z M166.426,86.809c1.958-1.82,3.558-3.549,4.801-5.187l4.267,2.383
				c-1.78,1.37-3.758,3.045-5.934,5.023L166.426,86.809z M169.111,94.836c-1.07,0.307-1.781,1.363-2.13,3.17
				c-0.213,1.076-0.307,2.156-0.28,3.24c0.018,0.727,0.086,1.458,0.208,2.194c0.318,1.829,1.222,2.758,2.711,2.785l0.18-0.005
				c1.385-0.033,2.317-0.738,2.797-2.115c0.4-1.145,0.581-2.494,0.543-4.05c-0.009-0.382-0.027-0.771-0.054-1.165
				c-0.188-2.049-0.629-3.32-1.325-3.813c-0.435-0.295-0.952-0.436-1.55-0.421C169.868,94.664,169.502,94.725,169.111,94.836z"/>
			<path fill="#FFFFFF" d="M184.69,89.597l0.332,3.11c0.678-1.674,2.547-2.562,5.607-2.661l0.103-0.003
				c3.009-0.073,5.083,0.756,6.22,2.488c0.781,1.18,1.226,3.976,1.333,8.386c0.053,2.166,0.021,4.73-0.095,7.692l-6.207,0.151
				c0.126-3.944,0.164-7,0.11-9.166c-0.026-1.084-0.073-1.95-0.14-2.599c-0.218-1.908-1.062-2.844-2.532-2.808
				c-1.471,0.035-2.382,0.567-2.733,1.597l0.594,13.855l-6.027,0.185c-0.143-5.863-0.568-12.44-1.276-19.73L184.69,89.597z"/>
			<path fill="#FFFFFF" d="M217.359,107.473l-6.375,0.596c-0.228-9.355-0.647-18.133-1.257-26.332l7.298-0.637
				C217.047,89.759,217.159,98.55,217.359,107.473z"/>
			<path fill="#FFFFFF" d="M224.188,88.635l0.333,3.11c0.678-1.674,2.546-2.562,5.607-2.662l0.103-0.002
				c3.009-0.073,5.083,0.756,6.22,2.488c0.782,1.18,1.226,3.975,1.333,8.385c0.053,2.167,0.021,4.731-0.095,7.693l-6.207,0.151
				c0.126-3.944,0.163-7,0.11-9.167c-0.026-1.083-0.073-1.949-0.14-2.598c-0.218-1.908-1.062-2.844-2.532-2.809
				c-1.471,0.036-2.382,0.568-2.733,1.598l0.594,13.854l-6.026,0.186c-0.143-5.863-0.569-12.44-1.276-19.731L224.188,88.635z"/>
			<path fill="#FFFFFF" d="M243.776,82.553l5.815-0.429l0.154,6.328l4.896-0.215l0.165,3.612l-4.972,0.293l0.212,8.699
				c0.049,2.026,1.229,3.012,3.537,2.956c0.479-0.012,0.999-0.069,1.562-0.172l-0.128,4.211c-0.819,0.097-1.596,0.154-2.332,0.172
				c-5.403,0.132-8.207-1.879-8.41-6.031l-0.228-9.35l-4.202,0.294l-0.207-4.262l4.31-0.066L243.776,82.553z"/>
			<path fill="#FFFFFF" d="M265.187,88.134c5.934-0.145,8.972,2.722,9.115,8.598c0.018,0.714-0.007,1.479-0.072,2.297l-11.465,0.279
				c0.08,3.276,0.966,4.894,2.659,4.852l0.18-0.004c1.485-0.125,2.208-0.991,2.169-2.598c-0.008-0.344-0.052-0.726-0.13-1.145
				l6.102-0.244c0.119,4.856-2.668,7.386-8.361,7.588c-0.068,0.015-0.128,0.022-0.179,0.023c-5.42,0.132-8.205-2.867-8.354-8.998
				l-0.014-0.573C256.846,91.627,259.63,88.27,265.187,88.134z M262.063,95.805l5.796-0.142l-0.011-0.459
				c-0.057-2.319-0.966-3.458-2.727-3.415C263.224,91.836,262.205,93.174,262.063,95.805z"/>
			<path fill="#FFFFFF" d="M277.261,109.706l6.021-0.396c-0.013,0.153-0.018,0.307-0.014,0.46c0.034,1.389,0.796,2.129,2.287,2.221
				c0.24,0.02,0.463,0.026,0.668,0.021c1.283-0.031,2.188-0.436,2.716-1.214c0.462-0.7,0.67-1.993,0.624-3.88
				c-0.012-0.51-0.043-1.07-0.092-1.681c-0.923,1.451-2.682,2.271-5.278,2.462c-5.08,0.086-7.697-3.07-7.853-9.47l-0.003-0.134
				c-0.124-6.476,2.815-9.806,8.816-9.99c1.642-0.04,3.129,0.639,4.464,2.034l0.002-3.042l5.622,0.055
				c0.256,10.516,0.372,17.029,0.348,19.543c-0.025,2.513-0.484,4.539-1.379,6.078c-0.896,1.54-2.458,2.547-4.687,3.022
				c-1.174,0.258-2.343,0.401-3.506,0.43c-1.043,0.025-2.08-0.039-3.109-0.192c-2.199-0.329-3.721-1.012-4.567-2.05
				c-0.705-0.851-1.074-1.977-1.108-3.379C277.225,110.325,277.234,110.025,277.261,109.706z M289.336,101.836l-0.189-7.763
				c-0.869-1.241-1.944-1.846-3.226-1.814c-0.257,0.006-0.521,0.038-0.793,0.096c-1.652,0.334-2.525,2.058-2.62,5.172
				c-0.009,0.331-0.01,0.65-0.002,0.956c0.062,2.536,0.732,4.076,2.012,4.619c0.432,0.193,0.888,0.284,1.367,0.272
				C286.944,103.349,288.095,102.836,289.336,101.836z"/>
			<path fill="#FFFFFF" d="M304.189,93.114l0.594,13.855l-6.283,0.191c-0.143-5.863-0.568-12.44-1.276-19.731l4.71-0.497l0.332,3.11
				c0.681-1.547,2.335-2.461,4.964-2.742c0.392-0.035,0.768-0.057,1.127-0.065c2.069-0.051,3.655,0.415,4.756,1.396
				c1.277,1.168,1.957,3.058,2.038,5.67l-5.684,0.56c0.012-0.217,0.015-0.428,0.01-0.632c-0.05-2.039-0.784-3.041-2.203-3.007
				l-0.103,0.003C305.531,91.328,304.537,91.958,304.189,93.114z"/>
			<path fill="#FFFFFF" d="M326.602,86.083c5.631,0.093,8.495,2.134,8.592,6.123l0.331,13.574l-5.974,0.223l-0.25-1.812
				c-1.206,1.075-2.826,1.638-4.86,1.688c-0.872,0.021-1.815-0.058-2.829-0.237c-3.04-0.487-4.596-2.196-4.667-5.128
				c-0.009-0.357,0.007-0.74,0.049-1.149c0.268-3.029,3.112-4.609,8.533-4.742c1.042-0.025,2.189,0.004,3.441,0.089l-0.054-2.218
				c-0.043-1.798-0.827-2.678-2.348-2.641l-0.103,0.003c-0.12-0.01-0.231-0.014-0.334-0.012c-1.659,0.041-2.463,1.068-2.415,3.082
				l0.007,0.286l-6.114-0.233c-0.108-4.448,2.71-6.742,8.455-6.882L326.602,86.083z M329.125,101.135l-0.082-3.365
				c-0.738-0.097-1.407-0.138-2.005-0.123c-1.556,0.038-2.607,0.452-3.152,1.244c-0.331,0.479-0.49,0.924-0.48,1.331
				c0.012,0.51,0.297,0.956,0.854,1.338c0.435,0.295,0.994,0.435,1.679,0.418C326.809,101.956,327.871,101.676,329.125,101.135z"/>
			<path fill="#FFFFFF" d="M344.783,105.517l-6.375,0.596c-0.035-4.221-0.1-8.281-0.194-12.182
				c-0.134-5.48-0.328-10.647-0.583-15.501l6.282-0.229c0.007,3.125,0.052,6.331,0.132,9.62
				C344.182,93.492,344.429,99.392,344.783,105.517z"/>
			<path fill="#FFFFFF" d="M365.998,85.123c5.631,0.093,8.496,2.134,8.592,6.123l0.331,13.575l-5.975,0.222l-0.249-1.812
				c-1.206,1.076-2.826,1.638-4.861,1.688c-0.872,0.021-1.815-0.058-2.829-0.237c-3.041-0.487-4.596-2.196-4.667-5.128
				c-0.009-0.356,0.007-0.74,0.049-1.149c0.268-3.029,3.113-4.609,8.533-4.741c1.042-0.025,2.19,0.004,3.441,0.088l-0.054-2.218
				c-0.044-1.797-0.827-2.677-2.349-2.64l-0.103,0.002c-0.12-0.01-0.231-0.014-0.334-0.011c-1.659,0.04-2.463,1.067-2.414,3.081
				l0.007,0.287l-6.114-0.233c-0.108-4.448,2.71-6.743,8.456-6.883L365.998,85.123z M368.521,100.175l-0.082-3.364
				c-0.738-0.097-1.407-0.139-2.005-0.124c-1.556,0.038-2.606,0.453-3.152,1.244c-0.331,0.48-0.491,0.924-0.481,1.332
				c0.012,0.51,0.297,0.955,0.854,1.337c0.435,0.296,0.994,0.436,1.678,0.419C366.205,100.997,367.267,100.716,368.521,100.175z"/>
			<path fill="#FFFFFF" d="M393.746,104.324l-6.375,0.596c-0.035-4.221-0.099-8.281-0.194-12.182
				c-0.133-5.48-0.328-10.647-0.583-15.501l6.282-0.229c0.007,3.125,0.052,6.331,0.132,9.619
				C393.145,92.3,393.392,98.198,393.746,104.324z"/>
			<path fill="#FFFFFF" d="M405.394,84.164c5.631,0.092,8.496,2.134,8.593,6.123l0.331,13.574l-5.974,0.223l-0.25-1.812
				c-1.206,1.075-2.826,1.638-4.861,1.687c-0.872,0.021-1.815-0.058-2.829-0.237c-3.041-0.486-4.596-2.195-4.667-5.128
				c-0.009-0.356,0.008-0.739,0.049-1.148c0.269-3.029,3.113-4.61,8.533-4.742c1.043-0.025,2.19,0.004,3.441,0.089l-0.054-2.219
				c-0.044-1.797-0.827-2.677-2.349-2.64l-0.103,0.003c-0.12-0.01-0.231-0.014-0.333-0.012c-1.659,0.041-2.464,1.068-2.415,3.082
				l0.007,0.286L396.4,91.06c-0.108-4.448,2.71-6.742,8.456-6.883L405.394,84.164z M407.917,99.216l-0.082-3.365
				c-0.738-0.097-1.406-0.138-2.005-0.123c-1.556,0.038-2.606,0.452-3.152,1.243c-0.331,0.48-0.491,0.925-0.481,1.332
				c0.013,0.51,0.297,0.956,0.854,1.338c0.435,0.295,0.994,0.435,1.678,0.418C405.601,100.037,406.664,99.757,407.917,99.216z"/>
			<path fill="#FFFFFF" d="M415.903,97.318l5.869-0.354l0.006,0.249c0.048,1.963,0.884,2.938,2.509,2.923l0.103-0.002
				c1.573-0.039,2.346-0.625,2.318-1.76l-0.003-0.134c-0.099-1.247-1.675-2.217-4.729-2.907c-3.054-0.69-4.91-1.934-5.57-3.729
				c-0.238-0.632-0.364-1.241-0.378-1.827c-0.026-1.071,0.317-2.074,1.03-3.01c1.094-1.43,2.785-2.274,5.071-2.534
				c0.614-0.065,1.212-0.105,1.794-0.12c1.521-0.037,2.869,0.128,4.041,0.495c1.604,0.509,2.726,1.266,3.366,2.271
				c0.427,0.691,0.651,1.464,0.672,2.317c0.01,0.408-0.023,0.83-0.098,1.266l-5.487,0.229c0.044-0.32,0.062-0.614,0.056-0.882
				c-0.031-1.274-0.595-1.943-1.691-2.006c-0.12-0.01-0.24-0.013-0.359-0.011c-1.128,0.028-1.879,0.474-2.251,1.337
				c-0.13,0.297-0.191,0.566-0.186,0.808c0.015,0.6,0.403,1.106,1.167,1.521c1.075,0.586,2.659,1.169,4.751,1.75
				c2.093,0.58,3.517,1.62,4.272,3.119c0.271,0.567,0.413,1.138,0.427,1.711c0.023,0.97-0.329,1.953-1.057,2.953
				c-1.159,1.597-2.992,2.554-5.5,2.87c-0.546,0.077-1.083,0.121-1.613,0.135c-1.881,0.046-3.634-0.275-5.259-0.963
				C417.099,102.155,416.008,100.249,415.903,97.318z"/>
			<path fill="#FFFFFF" d="M449.878,102.44c-2.296-8.54-4.985-17.459-8.069-26.759l7.476-0.756l4.896,20.849
				c2.062-7.384,3.729-14.062,5.004-20.037l7.12,0.477c-3.309,11.648-5.777,20.247-7.404,25.797L449.878,102.44z"/>
			<path fill="#FFFFFF" d="M467.88,102.939c-0.301-7.453-0.518-13.896-0.65-19.325l6.456-0.444
				c-0.079,5.206-0.055,10.377,0.07,15.514c0.034,1.376,0.076,2.746,0.126,4.109L467.88,102.939z M467.309,79.48
				c1.958-1.82,3.558-3.55,4.801-5.187l4.267,2.383c-1.781,1.37-3.759,3.044-5.935,5.022L467.309,79.48z"/>
			<path fill="#FFFFFF" d="M486.461,94.51l6.111,0.138c0.112,4.602-2.678,7.004-8.371,7.206c-0.068,0.015-0.128,0.022-0.179,0.023
				c-5.42,0.132-8.205-2.867-8.354-8.999l-0.014-0.573c0.01-6.581,2.819-9.972,8.426-10.172l0.205-0.005
				c5.164-0.126,7.8,2.017,7.907,6.426c0.006,0.256,0.003,0.511-0.007,0.766l-5.507,0.44l-0.011-0.459
				c-0.057-2.319-0.965-3.458-2.727-3.415c-1.795,0.043-2.647,1.945-2.556,5.705l0.015,0.631c0.202,4.064,1.157,6.075,2.868,6.033
				l0.154-0.004c1.485-0.125,2.208-0.991,2.169-2.597C486.583,95.31,486.54,94.929,486.461,94.51z"/>
			<path fill="#FFFFFF" d="M498.542,76.347l5.815-0.428l0.154,6.328l4.896-0.215l0.165,3.611l-4.972,0.293l0.212,8.7
				c0.049,2.026,1.228,3.012,3.537,2.955c0.479-0.012,0.999-0.068,1.561-0.172l-0.128,4.212c-0.819,0.097-1.596,0.153-2.331,0.172
				c-5.403,0.131-8.207-1.879-8.411-6.032l-0.228-9.349l-4.202,0.293l-0.207-4.261l4.31-0.066L498.542,76.347z"/>
			<path fill="#FFFFFF" d="M518.693,77.559c0.019,0.778-0.333,1.45-1.055,2.016c-0.722,0.566-1.604,0.861-2.647,0.887
				c-1.026,0.025-1.914-0.228-2.662-0.758c-0.749-0.529-1.132-1.184-1.151-1.961c-0.019-0.765,0.333-1.431,1.055-1.996
				c0.722-0.566,1.596-0.861,2.622-0.887c1.043-0.025,1.939,0.228,2.688,0.757C518.291,76.146,518.674,76.794,518.693,77.559z
				 M512.407,101.854c-0.302-7.453-0.519-13.895-0.65-19.325l6.456-0.443c-0.078,5.205-0.055,10.376,0.07,15.513
				c0.033,1.377,0.075,2.747,0.125,4.11L512.407,101.854z"/>
			<path fill="#FFFFFF" d="M524.33,81.42l0.177,3.057c0.888-1.488,1.934-2.426,3.139-2.812c0.713-0.221,1.438-0.341,2.173-0.358
				c0.547-0.014,1.095,0.024,1.645,0.112c1.34,0.223,2.314,1.22,2.922,2.99c0.411-1.4,1.157-2.346,2.24-2.838
				s2.292-0.761,3.625-0.806l0.103-0.003c1.299-0.031,2.553,0.174,3.762,0.616c1.226,0.455,2.176,1.341,2.85,2.657
				c0.673,1.316,1.056,3.134,1.146,5.452l0.271,11.108l-5.538,0.23c0.12-4.198,0.145-7.771,0.073-10.715s-0.863-4.513-2.373-4.705
				c-0.223-0.021-0.437-0.028-0.642-0.022c-1.197,0.028-2.106,0.625-2.728,1.788c-0.07,1.328-0.084,2.878-0.041,4.649
				c0.059,2.409,0.221,5.217,0.487,8.425l-6.411,0.194c0.119-4.938,0.151-8.536,0.096-10.792l-0.005-0.229
				c-0.072-2.229-0.69-3.389-1.855-3.475l-0.333,0.008c-1.043,0.025-2.041,0.496-2.994,1.412l0.392,13.994l-6.049,0.319
				l-0.076-3.136c-0.135-5.557-0.382-11.105-0.739-16.645L524.33,81.42z"/>
			<path fill="#FFFFFF" d="M559.362,80.414c5.631,0.092,8.496,2.133,8.592,6.122l0.331,13.575l-5.975,0.222l-0.249-1.811
				c-1.206,1.075-2.826,1.637-4.861,1.687c-0.872,0.021-1.815-0.058-2.829-0.237c-3.041-0.486-4.596-2.196-4.667-5.128
				c-0.009-0.356,0.007-0.739,0.049-1.149c0.268-3.028,3.113-4.609,8.533-4.741c1.043-0.025,2.19,0.004,3.441,0.088l-0.054-2.218
				c-0.044-1.797-0.827-2.677-2.349-2.64l-0.103,0.002c-0.12-0.01-0.231-0.014-0.334-0.011c-1.658,0.04-2.463,1.067-2.414,3.081
				l0.007,0.287l-6.114-0.233c-0.108-4.448,2.71-6.743,8.456-6.883L559.362,80.414z M561.885,95.466l-0.082-3.365
				c-0.738-0.097-1.407-0.138-2.005-0.123c-1.556,0.037-2.606,0.452-3.152,1.243c-0.331,0.48-0.491,0.924-0.481,1.332
				c0.013,0.51,0.297,0.956,0.854,1.337c0.435,0.296,0.994,0.436,1.678,0.419C559.569,96.287,560.631,96.006,561.885,95.466z"/>
			<path fill="#FFFFFF" d="M569.872,93.568l5.868-0.354l0.006,0.249c0.048,1.963,0.884,2.938,2.51,2.923l0.103-0.003
				c1.572-0.038,2.346-0.624,2.318-1.759l-0.004-0.134c-0.099-1.247-1.675-2.217-4.729-2.907c-3.054-0.691-4.91-1.934-5.57-3.729
				c-0.238-0.632-0.363-1.241-0.378-1.828c-0.026-1.07,0.317-2.073,1.03-3.009c1.094-1.43,2.784-2.274,5.071-2.534
				c0.614-0.065,1.212-0.106,1.793-0.12c1.521-0.037,2.869,0.128,4.042,0.494c1.604,0.51,2.725,1.267,3.365,2.271
				c0.428,0.691,0.652,1.464,0.673,2.317c0.01,0.408-0.023,0.83-0.098,1.265l-5.486,0.229c0.043-0.319,0.062-0.613,0.056-0.881
				c-0.031-1.274-0.596-1.943-1.691-2.006c-0.12-0.01-0.24-0.014-0.359-0.011c-1.129,0.027-1.88,0.474-2.252,1.337
				c-0.13,0.297-0.191,0.565-0.186,0.808c0.015,0.6,0.403,1.106,1.166,1.521c1.075,0.586,2.659,1.169,4.752,1.749
				c2.093,0.581,3.517,1.621,4.272,3.12c0.271,0.567,0.412,1.138,0.426,1.711c0.024,0.969-0.328,1.953-1.057,2.953
				c-1.159,1.597-2.992,2.554-5.499,2.869c-0.546,0.077-1.084,0.122-1.613,0.135c-1.882,0.046-3.635-0.274-5.26-0.962
				C571.067,98.405,569.977,96.499,569.872,93.568z"/>
			<path fill="#FFFFFF" d="M597.59,79.961l6.71-0.565c-0.061,3.828-0.062,6.978-0.001,9.45c0.022,0.931,0.061,1.766,0.112,2.504
				c0.135,2.726,0.989,4.108,2.565,4.146c0.103,0.01,0.196,0.014,0.282,0.012c1.401-0.034,2.276-0.654,2.624-1.862
				c0.188-0.705,0.25-2.371,0.186-4.997c-0.051-2.104-0.186-4.816-0.403-8.14l6.302-0.498c0.162,3.886,0.278,7.225,0.346,10.016
				c0.085,3.48,0.098,6.107,0.038,7.881c-0.093,3.19-1.257,5.643-3.49,7.355c-2.016,1.553-4.879,2.376-8.589,2.466
				c-0.428,0.011-0.864,0.009-1.309-0.006l-0.832-4.647c0.324,0.004,0.642,0.003,0.949-0.005c2.873-0.069,4.829-0.493,5.872-1.271
				c1.075-0.804,1.592-2.066,1.55-3.787l-0.008-0.306c-0.946,1.171-2.429,1.78-4.446,1.83l-0.358,0.009
				c-2.208-0.023-3.934-0.628-5.178-1.816c-1.244-1.188-1.947-2.879-2.112-5.075S597.965,86.227,597.59,79.961z"/>
			<path fill="#FFFFFF" d="M628.681,98.354c0.021-3.354-0.012-6.785-0.097-10.29c-0.131-5.379-0.387-10.946-0.767-16.701
				c2.917-0.378,5.495-0.594,7.735-0.648c3.521-0.085,6.182,0.232,7.979,0.954c2.781,1.118,4.218,3.513,4.307,7.184l0.016,0.631
				c-0.073,4.032-1.233,6.64-3.479,7.823c-2.247,1.184-5.036,1.854-8.368,2.012c-0.008,0.396-0.007,0.804,0.004,1.225
				c0.051,2.115,0.258,4.617,0.619,7.503L628.681,98.354z M634.698,75.633l0.406,9.345c3.178-0.205,5.021-1.098,5.53-2.679
				c0.239-0.721,0.35-1.456,0.331-2.208c-0.021-0.88-0.215-1.78-0.579-2.703c-0.546-1.351-1.846-2.002-3.897-1.952
				C635.942,75.449,635.344,75.515,634.698,75.633z"/>
			<path fill="#FFFFFF" d="M649.323,97.659c2.95-10.964,5.324-20.255,7.123-27.875l9.615-0.349
				c2.552,7.819,5.472,16.728,8.761,26.723l-6.541,1.154l-2.255-7.196l-7.977,0.194l-1.964,7.872L649.323,97.659z M665.69,84.749
				c-0.956-2.731-2.49-5.991-4.601-9.778c-1.478,3.263-2.713,6.634-3.706,10.114L665.69,84.749z"/>
			<path fill="#FFFFFF" d="M675.848,97.204c0.021-3.354-0.011-6.784-0.097-10.29c-0.131-5.378-0.386-10.945-0.766-16.701
				c2.916-0.377,5.494-0.593,7.734-0.647c3.522-0.086,6.182,0.232,7.979,0.953c2.781,1.119,4.217,3.514,4.307,7.185l0.016,0.631
				c-0.073,4.032-1.233,6.64-3.479,7.823c-2.247,1.183-5.036,1.854-8.369,2.012c-0.008,0.396-0.006,0.803,0.004,1.224
				c0.052,2.116,0.258,4.617,0.619,7.503L675.848,97.204z M681.865,74.483l0.407,9.346c3.178-0.205,5.021-1.099,5.529-2.68
				c0.239-0.72,0.35-1.456,0.332-2.208c-0.021-0.88-0.215-1.78-0.58-2.702c-0.546-1.352-1.845-2.002-3.896-1.952
				C683.109,74.3,682.512,74.366,681.865,74.483z"/>
			<path fill="#FFFFFF" d="M698.044,86.544l7.608-0.568c-0.083,0.793-0.117,1.508-0.102,2.146c0.07,2.894,1.071,4.316,3.004,4.27
				l0.103-0.003c2.341-0.107,3.49-1.066,3.446-2.877l-0.005-0.172c-0.132-1.923-2.393-3.755-6.78-5.498
				c-4.268-1.681-6.451-4.574-6.551-8.679c-0.003-0.127,0.002-0.255,0.017-0.383c0.015-4.298,3.193-6.562,9.535-6.794l0.205-0.005
				c5.729-0.14,8.659,2.512,8.791,7.954c0.011,0.434,0.005,0.894-0.018,1.378l-6.688,0.45c0.055-0.575,0.076-1.104,0.064-1.59
				c-0.056-2.281-0.827-3.404-2.315-3.367c-1.795,0.043-2.762,0.749-2.899,2.117c-0.013,0.191-0.017,0.383-0.012,0.574
				c0.028,1.135,0.507,2.182,1.437,3.141c1.07,1.109,2.888,2.104,5.449,2.985c2.562,0.882,4.368,2.132,5.417,3.752
				c0.747,1.168,1.137,2.421,1.17,3.759c0.012,0.511-0.026,1.034-0.116,1.572c-0.347,1.935-1.401,3.558-3.166,4.869
				c-1.765,1.312-4.159,2.062-7.183,2.251c-0.205,0.018-0.41,0.028-0.615,0.034c-2.753,0.066-5.071-0.629-6.954-2.088
				c-1.813-1.397-2.767-3.995-2.859-7.794C698.017,87.521,698.022,87.042,698.044,86.544z"/>
			<path fill="#FFFFFF" d="M728.483,95.023l-6.376,0.595c-0.228-9.355-0.646-18.132-1.257-26.331l7.299-0.637
				C728.171,77.31,728.283,86.101,728.483,95.023z"/>
			<path fill="#FFFFFF" d="M736.808,95.452c-2.295-8.54-4.984-17.46-8.068-26.759l7.476-0.756l4.896,20.848
				c2.062-7.384,3.729-14.062,5.004-20.037l7.12,0.478c-3.309,11.648-5.777,20.247-7.404,25.796L736.808,95.452z"/>
			<path fill="#FFFFFF" d="M761.672,94.215l-6.376,0.596c-0.228-9.356-0.647-18.133-1.257-26.332l7.298-0.637
				C761.36,76.501,761.471,85.292,761.672,94.215z"/>
		</g>
	</g>
</g>
</svg>
