<?xml version="1.0" encoding="utf-8"?>
<!-- Generator: Adobe Illustrator 16.0.0, SVG Export Plug-In . SVG Version: 6.00 Build 0)  -->
<!DOCTYPE svg PUBLIC "-//W3C//DTD SVG 1.1//EN" "http://www.w3.org/Graphics/SVG/1.1/DTD/svg11.dtd">
<svg version="1.1" id="Capa_1" xmlns="http://www.w3.org/2000/svg" xmlns:xlink="http://www.w3.org/1999/xlink" x="0px" y="0px"
	 width="196.376px" height="299.775px" viewBox="0 0 196.376 299.775" enable-background="new 0 0 196.376 299.775"
	 xml:space="preserve">
<g>
	<g>
		<g>
			<path d="M13.519,17.224L17.48,6.912h1.469l4.221,10.312h-1.555l-1.203-3.123h-4.311l-1.133,3.123H13.519z M16.495,12.989h3.495
				l-1.076-2.855c-0.328-0.867-0.572-1.58-0.73-2.138c-0.132,0.661-0.316,1.317-0.557,1.969L16.495,12.989z"/>
			<path d="M28.972,14.487l1.245,0.162c-0.136,0.858-0.484,1.529-1.044,2.015c-0.561,0.485-1.249,0.729-2.064,0.729
				c-1.023,0-1.845-0.334-2.466-1.002c-0.622-0.669-0.933-1.626-0.933-2.874c0-0.806,0.135-1.512,0.401-2.117
				c0.268-0.604,0.675-1.058,1.221-1.36s1.14-0.454,1.782-0.454c0.812,0,1.475,0.205,1.991,0.615
				c0.516,0.411,0.847,0.993,0.991,1.748l-1.23,0.19c-0.117-0.502-0.324-0.88-0.623-1.133c-0.297-0.253-0.657-0.38-1.079-0.38
				c-0.638,0-1.155,0.229-1.554,0.686c-0.399,0.458-0.599,1.181-0.599,2.17c0,1.004,0.192,1.733,0.577,2.188
				c0.385,0.455,0.886,0.683,1.505,0.683c0.497,0,0.912-0.152,1.245-0.457C28.671,15.59,28.882,15.121,28.972,14.487z"/>
			<path d="M36.174,14.487l1.245,0.162c-0.137,0.858-0.484,1.529-1.045,2.015s-1.248,0.729-2.064,0.729
				c-1.021,0-1.844-0.334-2.465-1.002c-0.621-0.669-0.932-1.626-0.932-2.874c0-0.806,0.133-1.512,0.4-2.117
				c0.268-0.604,0.674-1.058,1.221-1.36c0.546-0.303,1.141-0.454,1.783-0.454c0.811,0,1.475,0.205,1.99,0.615
				c0.516,0.411,0.846,0.993,0.992,1.748l-1.231,0.19c-0.117-0.502-0.325-0.88-0.622-1.133c-0.299-0.253-0.658-0.38-1.08-0.38
				c-0.638,0-1.156,0.229-1.555,0.686c-0.398,0.458-0.598,1.181-0.598,2.17c0,1.004,0.192,1.733,0.576,2.188
				c0.385,0.455,0.887,0.683,1.506,0.683c0.497,0,0.912-0.152,1.245-0.457S36.085,15.121,36.174,14.487z"/>
			<path d="M43.616,14.818l1.308,0.161c-0.206,0.765-0.588,1.358-1.146,1.78c-0.558,0.422-1.27,0.633-2.138,0.633
				c-1.093,0-1.959-0.337-2.599-1.01c-0.641-0.673-0.961-1.616-0.961-2.831c0-1.256,0.324-2.231,0.971-2.926
				c0.647-0.693,1.486-1.041,2.519-1.041c0.999,0,1.814,0.34,2.448,1.021c0.633,0.68,0.949,1.636,0.949,2.869
				c0,0.075-0.002,0.188-0.008,0.338h-5.57c0.047,0.82,0.279,1.449,0.697,1.885c0.416,0.437,0.938,0.654,1.561,0.654
				c0.465,0,0.861-0.122,1.189-0.366C43.164,15.742,43.423,15.353,43.616,14.818z M39.458,12.771h4.172
				c-0.057-0.628-0.217-1.1-0.479-1.414c-0.404-0.487-0.927-0.731-1.568-0.731c-0.582,0-1.07,0.195-1.467,0.584
				C39.72,11.6,39.501,12.12,39.458,12.771z"/>
			<path d="M46.007,14.994l1.252-0.197c0.07,0.502,0.266,0.887,0.587,1.153c0.321,0.268,0.771,0.401,1.347,0.401
				c0.582,0,1.014-0.118,1.295-0.355c0.281-0.236,0.422-0.515,0.422-0.833c0-0.286-0.125-0.512-0.373-0.676
				c-0.174-0.112-0.605-0.255-1.294-0.429c-0.929-0.234-1.572-0.438-1.931-0.608c-0.359-0.171-0.631-0.408-0.816-0.71
				c-0.186-0.303-0.277-0.637-0.277-1.003c0-0.333,0.076-0.641,0.229-0.925c0.152-0.283,0.359-0.52,0.623-0.707
				c0.196-0.146,0.465-0.269,0.805-0.369s0.705-0.151,1.094-0.151c0.586,0,1.101,0.085,1.544,0.254
				c0.442,0.168,0.771,0.397,0.981,0.686s0.355,0.674,0.436,1.157l-1.238,0.168c-0.056-0.384-0.219-0.685-0.488-0.899
				c-0.27-0.216-0.65-0.324-1.143-0.324c-0.582,0-0.997,0.097-1.246,0.289c-0.248,0.191-0.372,0.417-0.372,0.675
				c0,0.164,0.052,0.312,0.155,0.443c0.103,0.136,0.264,0.248,0.484,0.337c0.127,0.047,0.5,0.155,1.119,0.324
				c0.895,0.239,1.52,0.435,1.874,0.587s0.632,0.374,0.833,0.665c0.202,0.29,0.303,0.651,0.303,1.083
				c0,0.422-0.123,0.819-0.369,1.192c-0.246,0.372-0.602,0.661-1.065,0.865c-0.464,0.203-0.989,0.306-1.575,0.306
				c-0.971,0-1.711-0.202-2.219-0.605C46.472,16.385,46.148,15.786,46.007,14.994z"/>
			<path d="M53.245,13.489c0-1.384,0.384-2.408,1.153-3.074c0.643-0.553,1.426-0.83,2.35-0.83c1.026,0,1.865,0.337,2.518,1.01
				s0.978,1.603,0.978,2.789c0,0.961-0.144,1.717-0.433,2.268c-0.288,0.552-0.708,0.979-1.259,1.284
				c-0.552,0.305-1.152,0.457-1.804,0.457c-1.047,0-1.892-0.335-2.536-1.006S53.245,14.75,53.245,13.489z M54.545,13.489
				c0,0.956,0.209,1.673,0.626,2.148c0.418,0.476,0.943,0.714,1.576,0.714c0.628,0,1.15-0.239,1.568-0.718
				c0.417-0.478,0.625-1.207,0.625-2.188c0-0.924-0.209-1.623-0.629-2.1c-0.42-0.476-0.941-0.714-1.564-0.714
				c-0.633,0-1.158,0.237-1.576,0.711C54.754,11.817,54.545,12.532,54.545,13.489z"/>
			<path d="M70.576,17.224v-0.942c-0.475,0.741-1.17,1.111-2.09,1.111c-0.595,0-1.143-0.164-1.642-0.492s-0.886-0.787-1.161-1.375
				c-0.273-0.589-0.411-1.266-0.411-2.029c0-0.746,0.124-1.422,0.373-2.029s0.621-1.072,1.118-1.396
				c0.497-0.323,1.053-0.485,1.667-0.485c0.45,0,0.851,0.096,1.202,0.285s0.639,0.438,0.859,0.742v-3.7h1.258v10.312H70.576z
				 M66.574,13.496c0,0.956,0.201,1.672,0.604,2.145c0.403,0.475,0.88,0.711,1.428,0.711c0.554,0,1.023-0.227,1.41-0.679
				s0.581-1.143,0.581-2.071c0-1.022-0.197-1.772-0.592-2.251c-0.394-0.479-0.879-0.718-1.455-0.718c-0.562,0-1.033,0.23-1.41,0.689
				C66.762,11.782,66.574,12.507,66.574,13.496z"/>
			<path d="M78.853,14.818l1.309,0.161c-0.207,0.765-0.588,1.358-1.146,1.78s-1.271,0.633-2.139,0.633
				c-1.092,0-1.959-0.337-2.598-1.01c-0.641-0.673-0.961-1.616-0.961-2.831c0-1.256,0.324-2.231,0.971-2.926
				c0.646-0.693,1.486-1.041,2.518-1.041c0.999,0,1.814,0.34,2.448,1.021c0.633,0.68,0.949,1.636,0.949,2.869
				c0,0.075-0.002,0.188-0.007,0.338h-5.57c0.047,0.82,0.279,1.449,0.696,1.885c0.417,0.437,0.938,0.654,1.562,0.654
				c0.464,0,0.86-0.122,1.188-0.366C78.401,15.742,78.662,15.353,78.853,14.818z M74.697,12.771h4.171
				c-0.057-0.628-0.216-1.1-0.479-1.414c-0.403-0.487-0.927-0.731-1.568-0.731c-0.581,0-1.07,0.195-1.467,0.584
				C74.958,11.6,74.739,12.12,74.697,12.771z"/>
			<path d="M85.725,17.224V6.912h1.267v10.312H85.725z"/>
			<path d="M93.828,16.302c-0.469,0.399-0.92,0.681-1.354,0.845s-0.898,0.246-1.396,0.246c-0.82,0-1.451-0.2-1.892-0.602
				c-0.44-0.4-0.661-0.913-0.661-1.537c0-0.365,0.083-0.699,0.25-1.002c0.166-0.303,0.385-0.545,0.654-0.728
				c0.27-0.184,0.572-0.321,0.91-0.415c0.248-0.066,0.623-0.129,1.125-0.19c1.022-0.122,1.775-0.267,2.258-0.436
				c0.005-0.174,0.008-0.284,0.008-0.331c0-0.516-0.12-0.879-0.359-1.09c-0.323-0.286-0.804-0.43-1.441-0.43
				c-0.596,0-1.035,0.104-1.318,0.313c-0.284,0.209-0.494,0.578-0.63,1.107l-1.238-0.169c0.112-0.529,0.298-0.957,0.556-1.283
				s0.631-0.577,1.119-0.753c0.486-0.176,1.053-0.264,1.694-0.264c0.638,0,1.155,0.075,1.555,0.226
				c0.398,0.149,0.691,0.339,0.879,0.566s0.319,0.515,0.394,0.861c0.043,0.216,0.064,0.604,0.064,1.167v1.688
				c0,1.177,0.026,1.921,0.08,2.233c0.055,0.312,0.16,0.61,0.32,0.896h-1.322C93.951,16.961,93.866,16.654,93.828,16.302z
				 M93.722,13.475c-0.459,0.188-1.148,0.348-2.067,0.479c-0.521,0.075-0.889,0.159-1.104,0.253
				c-0.215,0.094-0.382,0.231-0.499,0.412c-0.117,0.18-0.176,0.381-0.176,0.601c0,0.338,0.128,0.619,0.384,0.845
				c0.255,0.225,0.629,0.337,1.121,0.337c0.488,0,0.922-0.106,1.301-0.319c0.381-0.214,0.659-0.506,0.838-0.876
				c0.136-0.286,0.203-0.708,0.203-1.266V13.475z"/>
			<path d="M104.076,17.224l-3.994-10.312h1.477l2.68,7.491c0.215,0.601,0.396,1.163,0.541,1.688
				c0.16-0.562,0.346-1.125,0.557-1.688l2.785-7.491h1.393l-4.037,10.312H104.076z"/>
			<path d="M110.955,8.825l0.936-1.969h1.66l-1.548,1.969H110.955z M111.017,17.224v-7.47h1.267v7.47H111.017z"/>
			<path d="M119.451,14.487l1.246,0.162c-0.137,0.858-0.484,1.529-1.045,2.015s-1.248,0.729-2.064,0.729
				c-1.022,0-1.844-0.334-2.465-1.002c-0.622-0.669-0.933-1.626-0.933-2.874c0-0.806,0.134-1.512,0.401-2.117
				c0.268-0.604,0.674-1.058,1.221-1.36c0.545-0.303,1.14-0.454,1.782-0.454c0.812,0,1.475,0.205,1.991,0.615
				c0.516,0.411,0.846,0.993,0.991,1.748l-1.231,0.19c-0.117-0.502-0.324-0.88-0.622-1.133s-0.657-0.38-1.079-0.38
				c-0.639,0-1.156,0.229-1.555,0.686c-0.398,0.458-0.598,1.181-0.598,2.17c0,1.004,0.191,1.733,0.576,2.188
				c0.385,0.455,0.887,0.683,1.506,0.683c0.496,0,0.912-0.152,1.244-0.457C119.151,15.59,119.362,15.121,119.451,14.487z"/>
			<path d="M124.543,16.091l0.183,1.119c-0.356,0.074-0.676,0.112-0.957,0.112c-0.459,0-0.815-0.073-1.068-0.218
				c-0.254-0.146-0.432-0.337-0.535-0.573c-0.103-0.237-0.154-0.735-0.154-1.495v-4.298h-0.928V9.754h0.928v-1.85l1.259-0.76v2.609
				h1.273v0.984h-1.273v4.368c0,0.361,0.022,0.594,0.067,0.696c0.044,0.104,0.117,0.186,0.218,0.246
				c0.101,0.062,0.245,0.092,0.433,0.092C124.128,16.141,124.314,16.124,124.543,16.091z"/>
			<path d="M125.789,8.368V6.912h1.266v1.456H125.789z M125.789,17.224v-7.47h1.266v7.47H125.789z"/>
			<path d="M128.982,17.224v-7.47h1.132v1.048c0.234-0.365,0.546-0.659,0.936-0.883c0.39-0.223,0.832-0.334,1.329-0.334
				c0.553,0,1.007,0.115,1.361,0.345c0.354,0.23,0.604,0.551,0.748,0.964c0.592-0.872,1.36-1.309,2.308-1.309
				c0.741,0,1.311,0.205,1.709,0.615c0.399,0.411,0.599,1.043,0.599,1.896v5.127h-1.26v-4.705c0-0.507-0.041-0.871-0.123-1.094
				s-0.23-0.402-0.446-0.538s-0.47-0.204-0.76-0.204c-0.525,0-0.962,0.175-1.308,0.523c-0.348,0.35-0.521,0.909-0.521,1.678v4.34
				h-1.266V12.37c0-0.562-0.104-0.984-0.31-1.266s-0.544-0.422-1.013-0.422c-0.356,0-0.686,0.094-0.988,0.281
				s-0.521,0.462-0.658,0.823c-0.135,0.36-0.203,0.881-0.203,1.562v3.875H128.982z"/>
			<path d="M145.855,16.302c-0.469,0.399-0.921,0.681-1.354,0.845s-0.899,0.246-1.396,0.246c-0.821,0-1.451-0.2-1.893-0.602
				c-0.441-0.4-0.661-0.913-0.661-1.537c0-0.365,0.083-0.699,0.249-1.002c0.167-0.303,0.385-0.545,0.654-0.728
				c0.27-0.184,0.574-0.321,0.911-0.415c0.249-0.066,0.624-0.129,1.126-0.19c1.021-0.122,1.774-0.267,2.258-0.436
				c0.004-0.174,0.006-0.284,0.006-0.331c0-0.516-0.119-0.879-0.357-1.09c-0.324-0.286-0.805-0.43-1.442-0.43
				c-0.596,0-1.035,0.104-1.319,0.313c-0.283,0.209-0.493,0.578-0.629,1.107l-1.238-0.169c0.113-0.529,0.298-0.957,0.556-1.283
				s0.631-0.577,1.118-0.753c0.488-0.176,1.053-0.264,1.695-0.264c0.638,0,1.156,0.075,1.555,0.226
				c0.398,0.149,0.691,0.339,0.879,0.566s0.318,0.515,0.395,0.861c0.041,0.216,0.062,0.604,0.062,1.167v1.688
				c0,1.177,0.027,1.921,0.081,2.233c0.054,0.312,0.161,0.61,0.32,0.896h-1.322C145.976,16.961,145.892,16.654,145.855,16.302z
				 M145.75,13.475c-0.46,0.188-1.149,0.348-2.068,0.479c-0.521,0.075-0.889,0.159-1.104,0.253s-0.382,0.231-0.499,0.412
				c-0.117,0.18-0.176,0.381-0.176,0.601c0,0.338,0.127,0.619,0.383,0.845c0.256,0.225,0.63,0.337,1.122,0.337
				c0.487,0,0.921-0.106,1.302-0.319c0.379-0.214,0.658-0.506,0.836-0.876c0.137-0.286,0.205-0.708,0.205-1.266V13.475z"/>
			<path d="M157.868,16.302c-0.469,0.399-0.921,0.681-1.354,0.845s-0.898,0.246-1.396,0.246c-0.821,0-1.451-0.2-1.892-0.602
				c-0.441-0.4-0.662-0.913-0.662-1.537c0-0.365,0.084-0.699,0.25-1.002s0.385-0.545,0.654-0.728c0.27-0.184,0.573-0.321,0.91-0.415
				c0.249-0.066,0.624-0.129,1.126-0.19c1.022-0.122,1.774-0.267,2.258-0.436c0.005-0.174,0.007-0.284,0.007-0.331
				c0-0.516-0.119-0.879-0.358-1.09c-0.323-0.286-0.804-0.43-1.442-0.43c-0.596,0-1.035,0.104-1.318,0.313s-0.494,0.578-0.629,1.107
				l-1.238-0.169c0.112-0.529,0.297-0.957,0.555-1.283s0.631-0.577,1.119-0.753c0.487-0.176,1.053-0.264,1.695-0.264
				c0.637,0,1.155,0.075,1.555,0.226c0.398,0.149,0.691,0.339,0.879,0.566s0.318,0.515,0.394,0.861
				c0.042,0.216,0.063,0.604,0.063,1.167v1.688c0,1.177,0.027,1.921,0.08,2.233c0.055,0.312,0.161,0.61,0.32,0.896h-1.322
				C157.99,16.961,157.906,16.654,157.868,16.302z M157.762,13.475c-0.46,0.188-1.149,0.348-2.067,0.479
				c-0.521,0.075-0.889,0.159-1.105,0.253c-0.215,0.094-0.381,0.231-0.498,0.412c-0.117,0.18-0.176,0.381-0.176,0.601
				c0,0.338,0.127,0.619,0.383,0.845c0.256,0.225,0.629,0.337,1.121,0.337c0.488,0,0.922-0.106,1.302-0.319
				c0.38-0.214,0.659-0.506,0.837-0.876c0.137-0.286,0.204-0.708,0.204-1.266V13.475z"/>
			<path d="M164.978,17.224V6.912h1.267v10.312H164.978z"/>
			<path d="M173.082,16.302c-0.469,0.399-0.92,0.681-1.354,0.845s-0.899,0.246-1.396,0.246c-0.82,0-1.451-0.2-1.893-0.602
				c-0.44-0.4-0.66-0.913-0.66-1.537c0-0.365,0.082-0.699,0.249-1.002s0.385-0.545,0.654-0.728c0.27-0.184,0.573-0.321,0.911-0.415
				c0.248-0.066,0.623-0.129,1.125-0.19c1.021-0.122,1.775-0.267,2.258-0.436c0.004-0.174,0.007-0.284,0.007-0.331
				c0-0.516-0.12-0.879-0.358-1.09c-0.324-0.286-0.805-0.43-1.441-0.43c-0.596,0-1.035,0.104-1.319,0.313s-0.493,0.578-0.63,1.107
				l-1.238-0.169c0.113-0.529,0.299-0.957,0.557-1.283s0.631-0.577,1.118-0.753s1.053-0.264,1.694-0.264
				c0.639,0,1.156,0.075,1.555,0.226c0.398,0.149,0.691,0.339,0.879,0.566s0.319,0.515,0.395,0.861
				c0.042,0.216,0.063,0.604,0.063,1.167v1.688c0,1.177,0.026,1.921,0.081,2.233c0.054,0.312,0.16,0.61,0.32,0.896h-1.322
				C173.204,16.961,173.119,16.654,173.082,16.302z M172.976,13.475c-0.459,0.188-1.148,0.348-2.068,0.479
				c-0.52,0.075-0.889,0.159-1.104,0.253c-0.216,0.094-0.383,0.231-0.5,0.412c-0.117,0.18-0.176,0.381-0.176,0.601
				c0,0.338,0.128,0.619,0.384,0.845c0.255,0.225,0.63,0.337,1.122,0.337c0.487,0,0.921-0.106,1.301-0.319
				c0.38-0.214,0.658-0.506,0.837-0.876c0.136-0.286,0.204-0.708,0.204-1.266V13.475z"/>
			<path d="M175.711,14.994l1.253-0.197c0.07,0.502,0.266,0.887,0.586,1.153c0.322,0.268,0.771,0.401,1.348,0.401
				c0.581,0,1.013-0.118,1.294-0.355c0.281-0.236,0.423-0.515,0.423-0.833c0-0.286-0.125-0.512-0.373-0.676
				c-0.174-0.112-0.605-0.255-1.295-0.429c-0.928-0.234-1.572-0.438-1.93-0.608c-0.359-0.171-0.631-0.408-0.816-0.71
				c-0.186-0.303-0.277-0.637-0.277-1.003c0-0.333,0.076-0.641,0.229-0.925c0.152-0.283,0.359-0.52,0.622-0.707
				c0.196-0.146,0.466-0.269,0.806-0.369s0.704-0.151,1.094-0.151c0.586,0,1.1,0.085,1.543,0.254
				c0.443,0.168,0.771,0.397,0.981,0.686s0.356,0.674,0.437,1.157l-1.238,0.168c-0.057-0.384-0.219-0.685-0.488-0.899
				c-0.27-0.216-0.651-0.324-1.144-0.324c-0.581,0-0.997,0.097-1.245,0.289c-0.248,0.191-0.373,0.417-0.373,0.675
				c0,0.164,0.053,0.312,0.155,0.443c0.103,0.136,0.265,0.248,0.485,0.337c0.127,0.047,0.5,0.155,1.118,0.324
				c0.896,0.239,1.521,0.435,1.874,0.587c0.354,0.152,0.633,0.374,0.834,0.665c0.201,0.29,0.303,0.651,0.303,1.083
				c0,0.422-0.123,0.819-0.369,1.192c-0.246,0.372-0.602,0.661-1.066,0.865c-0.464,0.203-0.989,0.306-1.575,0.306
				c-0.971,0-1.71-0.202-2.219-0.605C176.177,16.385,175.853,15.786,175.711,14.994z"/>
			<path d="M31.417,34.509V24.197h2.054l2.44,7.301c0.226,0.681,0.39,1.189,0.492,1.526c0.117-0.375,0.3-0.926,0.549-1.652
				l2.469-7.175h1.836v10.312h-1.315v-8.63l-2.996,8.63h-1.23l-2.982-8.777v8.777H31.417z"/>
			<path d="M48.41,32.104l1.308,0.161c-0.206,0.765-0.589,1.358-1.146,1.78s-1.271,0.633-2.138,0.633c-1.094,0-1.959-0.337-2.6-1.01
				c-0.64-0.673-0.96-1.616-0.96-2.831c0-1.256,0.323-2.231,0.971-2.926c0.647-0.693,1.486-1.041,2.519-1.041
				c0.998,0,1.814,0.34,2.447,1.021c0.633,0.68,0.949,1.636,0.949,2.869c0,0.075-0.002,0.188-0.007,0.338h-5.57
				c0.046,0.82,0.278,1.449,0.696,1.885c0.417,0.437,0.938,0.654,1.561,0.654c0.465,0,0.861-0.122,1.189-0.366
				C47.957,33.027,48.216,32.638,48.41,32.104z M44.252,30.057h4.171c-0.057-0.628-0.216-1.1-0.479-1.414
				c-0.403-0.487-0.926-0.731-1.568-0.731c-0.582,0-1.07,0.195-1.467,0.584C44.513,28.885,44.294,29.405,44.252,30.057z"/>
			<path d="M56.153,34.509v-0.942c-0.474,0.741-1.17,1.111-2.089,1.111c-0.596,0-1.143-0.164-1.643-0.492
				c-0.499-0.328-0.886-0.787-1.16-1.375c-0.274-0.589-0.412-1.266-0.412-2.029c0-0.746,0.125-1.422,0.373-2.029
				c0.249-0.607,0.621-1.072,1.119-1.396c0.496-0.323,1.053-0.485,1.666-0.485c0.451,0,0.852,0.096,1.203,0.285
				s0.638,0.438,0.858,0.742v-3.7h1.259v10.312H56.153z M52.151,30.781c0,0.956,0.202,1.672,0.604,2.145
				c0.404,0.475,0.88,0.711,1.428,0.711c0.554,0,1.023-0.227,1.41-0.679s0.581-1.143,0.581-2.071c0-1.022-0.197-1.772-0.591-2.251
				c-0.395-0.479-0.879-0.718-1.456-0.718c-0.562,0-1.032,0.23-1.41,0.689C52.339,29.067,52.151,29.792,52.151,30.781z"/>
			<path d="M59.326,25.653v-1.456h1.266v1.456H59.326z M59.326,34.509v-7.47h1.266v7.47H59.326z"/>
			<path d="M67.392,33.587c-0.469,0.399-0.92,0.681-1.354,0.845s-0.898,0.246-1.396,0.246c-0.82,0-1.451-0.2-1.892-0.602
				c-0.44-0.4-0.661-0.913-0.661-1.537c0-0.365,0.083-0.699,0.25-1.002c0.166-0.303,0.385-0.545,0.654-0.728
				c0.27-0.184,0.572-0.321,0.91-0.415c0.248-0.066,0.623-0.129,1.125-0.19c1.022-0.122,1.775-0.267,2.258-0.436
				c0.005-0.174,0.008-0.284,0.008-0.331c0-0.516-0.12-0.879-0.359-1.09c-0.323-0.286-0.804-0.43-1.441-0.43
				c-0.596,0-1.035,0.104-1.318,0.313c-0.284,0.209-0.494,0.578-0.63,1.107l-1.238-0.169c0.112-0.529,0.298-0.957,0.556-1.283
				s0.631-0.577,1.119-0.753c0.486-0.176,1.053-0.264,1.694-0.264c0.638,0,1.155,0.075,1.555,0.226
				c0.398,0.149,0.691,0.339,0.879,0.566s0.319,0.515,0.394,0.861c0.043,0.216,0.064,0.604,0.064,1.167v1.688
				c0,1.177,0.026,1.921,0.08,2.233c0.055,0.312,0.16,0.61,0.32,0.896h-1.322C67.515,34.246,67.43,33.939,67.392,33.587z
				 M67.287,30.76c-0.459,0.188-1.148,0.348-2.067,0.479c-0.521,0.075-0.889,0.159-1.104,0.253
				c-0.215,0.094-0.382,0.231-0.499,0.412c-0.117,0.18-0.176,0.381-0.176,0.601c0,0.338,0.128,0.619,0.384,0.845
				c0.255,0.225,0.629,0.337,1.121,0.337c0.488,0,0.922-0.106,1.301-0.319c0.381-0.214,0.659-0.506,0.838-0.876
				c0.136-0.286,0.203-0.708,0.203-1.266V30.76z"/>
			<path d="M70.023,32.279l1.252-0.197c0.07,0.502,0.266,0.887,0.588,1.153c0.32,0.268,0.77,0.401,1.347,0.401
				c0.581,0,1.013-0.118,1.294-0.355c0.281-0.236,0.422-0.515,0.422-0.833c0-0.286-0.124-0.512-0.373-0.676
				c-0.173-0.112-0.604-0.255-1.293-0.429c-0.93-0.234-1.572-0.438-1.932-0.608c-0.358-0.171-0.631-0.408-0.815-0.71
				c-0.186-0.303-0.278-0.637-0.278-1.003c0-0.333,0.076-0.641,0.229-0.925c0.152-0.283,0.36-0.52,0.623-0.707
				c0.197-0.146,0.465-0.269,0.805-0.369s0.705-0.151,1.094-0.151c0.586,0,1.102,0.085,1.545,0.254
				c0.442,0.168,0.77,0.397,0.98,0.686s0.356,0.674,0.436,1.157l-1.237,0.168c-0.056-0.384-0.22-0.685-0.489-0.899
				c-0.27-0.216-0.65-0.324-1.143-0.324c-0.582,0-0.996,0.097-1.245,0.289c-0.249,0.191-0.372,0.417-0.372,0.675
				c0,0.164,0.051,0.312,0.154,0.443c0.104,0.136,0.265,0.248,0.485,0.337c0.126,0.047,0.499,0.155,1.118,0.324
				c0.896,0.239,1.521,0.435,1.875,0.587c0.354,0.152,0.631,0.374,0.833,0.665c0.202,0.29,0.302,0.651,0.302,1.083
				c0,0.422-0.123,0.819-0.369,1.192c-0.246,0.372-0.601,0.661-1.064,0.865c-0.465,0.203-0.99,0.306-1.576,0.306
				c-0.971,0-1.711-0.202-2.219-0.605C70.488,33.67,70.164,33.071,70.023,32.279z"/>
			<path d="M86.58,34.509v-0.942c-0.474,0.741-1.17,1.111-2.089,1.111c-0.595,0-1.144-0.164-1.642-0.492
				c-0.5-0.328-0.887-0.787-1.161-1.375c-0.274-0.589-0.411-1.266-0.411-2.029c0-0.746,0.124-1.422,0.373-2.029
				c0.248-0.607,0.621-1.072,1.117-1.396c0.498-0.323,1.053-0.485,1.668-0.485c0.449,0,0.851,0.096,1.202,0.285
				s0.638,0.438,0.858,0.742v-3.7h1.259v10.312H86.58z M82.578,30.781c0,0.956,0.201,1.672,0.605,2.145
				c0.402,0.475,0.879,0.711,1.428,0.711c0.553,0,1.023-0.227,1.41-0.679s0.58-1.143,0.58-2.071c0-1.022-0.197-1.772-0.591-2.251
				s-0.88-0.718-1.456-0.718c-0.562,0-1.033,0.23-1.41,0.689C82.767,29.067,82.578,29.792,82.578,30.781z"/>
			<path d="M94.859,32.104l1.308,0.161c-0.206,0.765-0.589,1.358-1.146,1.78s-1.271,0.633-2.138,0.633
				c-1.094,0-1.959-0.337-2.6-1.01c-0.64-0.673-0.96-1.616-0.96-2.831c0-1.256,0.323-2.231,0.971-2.926
				c0.647-0.693,1.486-1.041,2.519-1.041c0.998,0,1.814,0.34,2.447,1.021c0.633,0.68,0.949,1.636,0.949,2.869
				c0,0.075-0.002,0.188-0.007,0.338h-5.57c0.046,0.82,0.278,1.449,0.696,1.885c0.417,0.437,0.938,0.654,1.561,0.654
				c0.465,0,0.861-0.122,1.189-0.366C94.406,33.027,94.666,32.638,94.859,32.104z M90.702,30.057h4.171
				c-0.057-0.628-0.216-1.1-0.479-1.414c-0.403-0.487-0.926-0.731-1.568-0.731c-0.582,0-1.07,0.195-1.467,0.584
				C90.962,28.885,90.744,29.405,90.702,30.057z"/>
			<path d="M99.994,34.509l3.959-10.312h1.471l4.22,10.312h-1.555l-1.202-3.123h-4.312l-1.132,3.123H99.994z M102.968,30.274h3.496
				l-1.076-2.855c-0.328-0.867-0.572-1.58-0.732-2.138c-0.131,0.661-0.316,1.317-0.555,1.969L102.968,30.274z"/>
			<path d="M110.064,32.279l1.253-0.197c0.07,0.502,0.266,0.887,0.587,1.153c0.321,0.268,0.771,0.401,1.348,0.401
				c0.58,0,1.012-0.118,1.293-0.355c0.281-0.236,0.423-0.515,0.423-0.833c0-0.286-0.124-0.512-0.373-0.676
				c-0.173-0.112-0.604-0.255-1.294-0.429c-0.929-0.234-1.572-0.438-1.931-0.608s-0.631-0.408-0.815-0.71
				c-0.186-0.303-0.278-0.637-0.278-1.003c0-0.333,0.076-0.641,0.229-0.925c0.152-0.283,0.36-0.52,0.622-0.707
				c0.197-0.146,0.466-0.269,0.806-0.369s0.704-0.151,1.094-0.151c0.586,0,1.101,0.085,1.544,0.254
				c0.443,0.168,0.77,0.397,0.98,0.686s0.357,0.674,0.437,1.157l-1.237,0.168c-0.057-0.384-0.22-0.685-0.489-0.899
				c-0.27-0.216-0.651-0.324-1.144-0.324c-0.581,0-0.996,0.097-1.244,0.289c-0.249,0.191-0.373,0.417-0.373,0.675
				c0,0.164,0.052,0.312,0.154,0.443c0.104,0.136,0.266,0.248,0.486,0.337c0.126,0.047,0.499,0.155,1.117,0.324
				c0.896,0.239,1.521,0.435,1.875,0.587s0.632,0.374,0.834,0.665c0.201,0.29,0.302,0.651,0.302,1.083
				c0,0.422-0.123,0.819-0.369,1.192c-0.246,0.372-0.601,0.661-1.065,0.865c-0.465,0.203-0.99,0.306-1.576,0.306
				c-0.971,0-1.71-0.202-2.219-0.605C110.53,33.67,110.206,33.071,110.064,32.279z"/>
			<path d="M117.781,25.653v-1.456h1.266v1.456H117.781z M117.781,34.509v-7.47h1.266v7.47H117.781z"/>
			<path d="M120.467,32.279l1.253-0.197c0.07,0.502,0.266,0.887,0.586,1.153c0.322,0.268,0.771,0.401,1.348,0.401
				c0.581,0,1.013-0.118,1.294-0.355c0.281-0.236,0.423-0.515,0.423-0.833c0-0.286-0.125-0.512-0.373-0.676
				c-0.174-0.112-0.605-0.255-1.295-0.429c-0.928-0.234-1.572-0.438-1.93-0.608c-0.359-0.171-0.631-0.408-0.816-0.71
				c-0.186-0.303-0.277-0.637-0.277-1.003c0-0.333,0.076-0.641,0.229-0.925c0.152-0.283,0.359-0.52,0.622-0.707
				c0.196-0.146,0.466-0.269,0.806-0.369s0.704-0.151,1.094-0.151c0.586,0,1.1,0.085,1.543,0.254
				c0.443,0.168,0.771,0.397,0.981,0.686s0.356,0.674,0.437,1.157l-1.238,0.168c-0.057-0.384-0.219-0.685-0.488-0.899
				c-0.27-0.216-0.651-0.324-1.144-0.324c-0.581,0-0.997,0.097-1.245,0.289c-0.248,0.191-0.373,0.417-0.373,0.675
				c0,0.164,0.053,0.312,0.155,0.443c0.103,0.136,0.265,0.248,0.485,0.337c0.127,0.047,0.5,0.155,1.118,0.324
				c0.896,0.239,1.521,0.435,1.874,0.587c0.354,0.152,0.633,0.374,0.834,0.665c0.201,0.29,0.303,0.651,0.303,1.083
				c0,0.422-0.123,0.819-0.369,1.192c-0.246,0.372-0.602,0.661-1.066,0.865c-0.464,0.203-0.989,0.306-1.575,0.306
				c-0.971,0-1.71-0.202-2.219-0.605C120.933,33.67,120.609,33.071,120.467,32.279z"/>
			<path d="M130.941,33.376l0.182,1.119c-0.355,0.074-0.675,0.112-0.956,0.112c-0.46,0-0.815-0.073-1.069-0.218
				c-0.253-0.146-0.432-0.337-0.534-0.573c-0.103-0.237-0.155-0.735-0.155-1.495v-4.298h-0.928v-0.984h0.928v-1.85l1.26-0.76v2.609
				h1.273v0.984h-1.273v4.368c0,0.361,0.021,0.594,0.066,0.696c0.045,0.104,0.117,0.186,0.219,0.246
				c0.1,0.062,0.244,0.092,0.432,0.092C130.525,33.426,130.71,33.409,130.941,33.376z"/>
			<path d="M137.292,32.104l1.308,0.161c-0.206,0.765-0.588,1.358-1.146,1.78c-0.558,0.422-1.27,0.633-2.138,0.633
				c-1.093,0-1.959-0.337-2.599-1.01c-0.641-0.673-0.961-1.616-0.961-2.831c0-1.256,0.324-2.231,0.971-2.926
				c0.647-0.693,1.486-1.041,2.519-1.041c0.999,0,1.814,0.34,2.448,1.021c0.633,0.68,0.949,1.636,0.949,2.869
				c0,0.075-0.002,0.188-0.008,0.338h-5.57c0.047,0.82,0.279,1.449,0.697,1.885c0.416,0.437,0.938,0.654,1.561,0.654
				c0.465,0,0.861-0.122,1.189-0.366C136.839,33.027,137.099,32.638,137.292,32.104z M133.134,30.057h4.172
				c-0.057-0.628-0.217-1.1-0.479-1.414c-0.404-0.487-0.927-0.731-1.568-0.731c-0.582,0-1.07,0.195-1.467,0.584
				C133.396,28.885,133.177,29.405,133.134,30.057z"/>
			<path d="M140.189,34.509v-7.47h1.14v1.062c0.549-0.82,1.341-1.231,2.378-1.231c0.449,0,0.863,0.081,1.24,0.243
				c0.378,0.161,0.66,0.374,0.848,0.637s0.319,0.574,0.395,0.935c0.047,0.235,0.07,0.646,0.07,1.231v4.593h-1.266v-4.544
				c0-0.516-0.05-0.901-0.148-1.156c-0.098-0.256-0.273-0.46-0.523-0.612c-0.252-0.152-0.545-0.229-0.883-0.229
				c-0.539,0-1.005,0.171-1.396,0.514c-0.392,0.342-0.588,0.991-0.588,1.948v4.079H140.189z"/>
			<path d="M153.075,31.772l1.245,0.162c-0.137,0.858-0.484,1.529-1.045,2.015s-1.248,0.729-2.064,0.729
				c-1.021,0-1.844-0.334-2.465-1.002c-0.621-0.669-0.932-1.626-0.932-2.874c0-0.806,0.133-1.512,0.4-2.117
				c0.268-0.604,0.674-1.058,1.221-1.36c0.546-0.303,1.141-0.454,1.783-0.454c0.811,0,1.475,0.205,1.99,0.615
				c0.516,0.411,0.846,0.993,0.992,1.748l-1.231,0.19c-0.117-0.502-0.325-0.88-0.622-1.133c-0.299-0.253-0.658-0.38-1.08-0.38
				c-0.638,0-1.156,0.229-1.555,0.686c-0.398,0.458-0.598,1.181-0.598,2.17c0,1.004,0.192,1.733,0.576,2.188
				c0.385,0.455,0.887,0.683,1.506,0.683c0.497,0,0.912-0.152,1.245-0.457S152.986,32.406,153.075,31.772z"/>
			<path d="M155.41,25.653v-1.456h1.266v1.456H155.41z M155.41,34.509v-7.47h1.266v7.47H155.41z"/>
			<path d="M163.477,33.587c-0.469,0.399-0.921,0.681-1.354,0.845s-0.898,0.246-1.396,0.246c-0.821,0-1.451-0.2-1.892-0.602
				c-0.441-0.4-0.662-0.913-0.662-1.537c0-0.365,0.084-0.699,0.25-1.002s0.385-0.545,0.654-0.728c0.27-0.184,0.573-0.321,0.91-0.415
				c0.249-0.066,0.624-0.129,1.126-0.19c1.022-0.122,1.774-0.267,2.258-0.436c0.005-0.174,0.007-0.284,0.007-0.331
				c0-0.516-0.119-0.879-0.358-1.09c-0.323-0.286-0.804-0.43-1.442-0.43c-0.596,0-1.035,0.104-1.318,0.313s-0.494,0.578-0.629,1.107
				l-1.238-0.169c0.112-0.529,0.297-0.957,0.555-1.283s0.631-0.577,1.119-0.753c0.487-0.176,1.053-0.264,1.695-0.264
				c0.637,0,1.155,0.075,1.555,0.226c0.398,0.149,0.691,0.339,0.879,0.566s0.318,0.515,0.394,0.861
				c0.042,0.216,0.063,0.604,0.063,1.167v1.688c0,1.177,0.027,1.921,0.08,2.233c0.055,0.312,0.161,0.61,0.32,0.896h-1.322
				C163.599,34.246,163.515,33.939,163.477,33.587z M163.372,30.76c-0.46,0.188-1.149,0.348-2.067,0.479
				c-0.521,0.075-0.889,0.159-1.105,0.253c-0.215,0.094-0.381,0.231-0.498,0.412c-0.117,0.18-0.176,0.381-0.176,0.601
				c0,0.338,0.127,0.619,0.383,0.845c0.256,0.225,0.629,0.337,1.121,0.337c0.488,0,0.922-0.106,1.302-0.319
				c0.38-0.214,0.659-0.506,0.837-0.876c0.137-0.286,0.204-0.708,0.204-1.266V30.76z"/>
			<path d="M56.462,54.672l-0.141-1.188c0.277,0.074,0.518,0.112,0.725,0.112c0.281,0,0.506-0.047,0.676-0.141
				c0.168-0.094,0.307-0.226,0.414-0.395c0.08-0.126,0.209-0.44,0.387-0.942c0.023-0.07,0.062-0.173,0.113-0.31l-2.835-7.483h1.364
				l1.555,4.326c0.201,0.548,0.383,1.125,0.541,1.729c0.146-0.581,0.319-1.148,0.521-1.702l1.596-4.354h1.267l-2.841,7.597
				c-0.306,0.82-0.543,1.385-0.711,1.694c-0.225,0.418-0.482,0.724-0.773,0.918s-0.639,0.292-1.041,0.292
				C57.035,54.826,56.763,54.774,56.462,54.672z"/>
			<path d="M67.906,51.795V41.483h4.572c0.919,0,1.617,0.093,2.096,0.278s0.861,0.513,1.146,0.981
				c0.286,0.469,0.43,0.986,0.43,1.554c0,0.731-0.237,1.349-0.711,1.851c-0.474,0.501-1.205,0.82-2.194,0.956
				c0.361,0.174,0.636,0.345,0.823,0.514c0.398,0.365,0.775,0.823,1.133,1.371l1.793,2.807h-1.717l-1.363-2.146
				c-0.399-0.619-0.728-1.092-0.985-1.421c-0.258-0.328-0.489-0.558-0.692-0.688c-0.205-0.132-0.412-0.223-0.623-0.274
				c-0.154-0.033-0.408-0.05-0.76-0.05h-1.582v4.579H67.906z M69.271,46.034h2.933c0.624,0,1.111-0.064,1.464-0.193
				c0.352-0.129,0.618-0.335,0.801-0.619c0.184-0.283,0.274-0.592,0.274-0.925c0-0.487-0.177-0.889-0.53-1.202
				c-0.354-0.314-0.914-0.472-1.678-0.472h-3.264V46.034z"/>
			<path d="M83.24,49.39l1.308,0.161c-0.206,0.765-0.589,1.358-1.146,1.78s-1.271,0.633-2.138,0.633c-1.094,0-1.959-0.337-2.6-1.01
				c-0.64-0.673-0.96-1.616-0.96-2.831c0-1.256,0.323-2.231,0.971-2.926c0.647-0.693,1.486-1.041,2.519-1.041
				c0.998,0,1.814,0.34,2.447,1.021c0.633,0.68,0.949,1.636,0.949,2.869c0,0.075-0.002,0.188-0.007,0.338h-5.57
				c0.046,0.82,0.278,1.449,0.696,1.885c0.417,0.437,0.938,0.654,1.561,0.654c0.465,0,0.861-0.122,1.189-0.366
				C82.787,50.313,83.046,49.924,83.24,49.39z M79.083,47.343h4.171c-0.057-0.628-0.216-1.1-0.479-1.414
				c-0.403-0.487-0.926-0.731-1.568-0.731c-0.582,0-1.07,0.195-1.467,0.584C79.343,46.171,79.125,46.691,79.083,47.343z"/>
			<path d="M86.137,54.657V44.325h1.153v0.971c0.271-0.38,0.579-0.665,0.922-0.854c0.342-0.189,0.757-0.285,1.244-0.285
				c0.638,0,1.201,0.164,1.688,0.492c0.487,0.329,0.855,0.792,1.104,1.39c0.248,0.598,0.373,1.253,0.373,1.966
				c0,0.765-0.138,1.452-0.412,2.064c-0.274,0.611-0.673,1.081-1.195,1.406c-0.523,0.326-1.072,0.489-1.65,0.489
				c-0.422,0-0.801-0.089-1.135-0.268c-0.336-0.178-0.611-0.403-0.827-0.675v3.636H86.137z M87.284,48.103
				c0,0.961,0.194,1.672,0.583,2.131c0.39,0.46,0.861,0.689,1.414,0.689c0.562,0,1.045-0.238,1.445-0.714
				c0.401-0.476,0.602-1.214,0.602-2.212c0-0.952-0.195-1.665-0.588-2.139c-0.391-0.474-0.858-0.71-1.402-0.71
				c-0.539,0-1.017,0.252-1.432,0.756C87.492,46.408,87.284,47.142,87.284,48.103z"/>
			<path d="M99.023,50.873c-0.469,0.399-0.921,0.681-1.354,0.845s-0.899,0.246-1.396,0.246c-0.821,0-1.451-0.2-1.893-0.602
				c-0.441-0.4-0.661-0.913-0.661-1.537c0-0.365,0.083-0.699,0.249-1.002c0.167-0.303,0.385-0.545,0.654-0.728
				c0.27-0.184,0.574-0.321,0.911-0.415c0.249-0.066,0.624-0.129,1.126-0.19c1.021-0.122,1.774-0.267,2.258-0.436
				c0.004-0.174,0.006-0.284,0.006-0.331c0-0.516-0.119-0.879-0.357-1.09c-0.324-0.286-0.805-0.43-1.442-0.43
				c-0.596,0-1.035,0.104-1.319,0.313c-0.283,0.209-0.493,0.578-0.629,1.107l-1.238-0.169c0.113-0.529,0.298-0.957,0.556-1.283
				s0.631-0.577,1.118-0.753c0.488-0.176,1.053-0.264,1.695-0.264c0.638,0,1.156,0.075,1.555,0.226
				c0.398,0.149,0.691,0.339,0.879,0.566s0.318,0.515,0.395,0.861c0.041,0.216,0.062,0.604,0.062,1.167v1.688
				c0,1.177,0.027,1.921,0.081,2.233c0.054,0.312,0.161,0.61,0.32,0.896h-1.322C99.144,51.532,99.06,51.226,99.023,50.873z
				 M98.917,48.046c-0.46,0.188-1.149,0.348-2.068,0.479c-0.521,0.075-0.889,0.159-1.104,0.253s-0.382,0.231-0.499,0.412
				c-0.117,0.18-0.176,0.381-0.176,0.601c0,0.338,0.127,0.619,0.383,0.845c0.256,0.225,0.63,0.337,1.122,0.337
				c0.487,0,0.921-0.106,1.302-0.319c0.379-0.214,0.658-0.506,0.836-0.876c0.137-0.286,0.205-0.708,0.205-1.266V48.046z"/>
			<path d="M102.145,51.795v-7.47h1.14v1.133c0.291-0.53,0.559-0.88,0.805-1.048c0.246-0.169,0.518-0.254,0.812-0.254
				c0.427,0,0.861,0.137,1.301,0.408l-0.436,1.175c-0.31-0.183-0.619-0.274-0.928-0.274c-0.277,0-0.525,0.083-0.746,0.25
				c-0.221,0.166-0.377,0.397-0.471,0.692c-0.141,0.45-0.211,0.942-0.211,1.478v3.91H102.145z"/>
			<path d="M111.83,50.873c-0.469,0.399-0.92,0.681-1.354,0.845s-0.898,0.246-1.396,0.246c-0.82,0-1.451-0.2-1.892-0.602
				c-0.44-0.4-0.661-0.913-0.661-1.537c0-0.365,0.083-0.699,0.25-1.002c0.166-0.303,0.385-0.545,0.654-0.728
				c0.27-0.184,0.572-0.321,0.91-0.415c0.248-0.066,0.623-0.129,1.125-0.19c1.022-0.122,1.775-0.267,2.258-0.436
				c0.005-0.174,0.008-0.284,0.008-0.331c0-0.516-0.12-0.879-0.359-1.09c-0.323-0.286-0.804-0.43-1.441-0.43
				c-0.596,0-1.035,0.104-1.318,0.313c-0.284,0.209-0.494,0.578-0.63,1.107l-1.238-0.169c0.112-0.529,0.298-0.957,0.556-1.283
				s0.631-0.577,1.119-0.753c0.486-0.176,1.053-0.264,1.694-0.264c0.638,0,1.155,0.075,1.555,0.226
				c0.398,0.149,0.691,0.339,0.879,0.566s0.319,0.515,0.394,0.861c0.043,0.216,0.064,0.604,0.064,1.167v1.688
				c0,1.177,0.026,1.921,0.08,2.233c0.055,0.312,0.16,0.61,0.32,0.896h-1.322C111.953,51.532,111.868,51.226,111.83,50.873z
				 M111.724,48.046c-0.459,0.188-1.148,0.348-2.067,0.479c-0.521,0.075-0.889,0.159-1.104,0.253
				c-0.215,0.094-0.382,0.231-0.499,0.412c-0.117,0.18-0.176,0.381-0.176,0.601c0,0.338,0.128,0.619,0.384,0.845
				c0.255,0.225,0.629,0.337,1.121,0.337c0.488,0,0.922-0.106,1.301-0.319c0.381-0.214,0.659-0.506,0.838-0.876
				c0.136-0.286,0.203-0.708,0.203-1.266V48.046z"/>
			<path d="M119.841,49.059l1.245,0.162c-0.136,0.858-0.484,1.529-1.044,2.015c-0.561,0.485-1.249,0.729-2.064,0.729
				c-1.023,0-1.845-0.334-2.466-1.002c-0.622-0.669-0.933-1.626-0.933-2.874c0-0.806,0.135-1.512,0.401-2.117
				c0.268-0.604,0.675-1.058,1.221-1.36s1.14-0.454,1.782-0.454c0.812,0,1.475,0.205,1.991,0.615
				c0.516,0.411,0.847,0.993,0.991,1.748l-1.23,0.19c-0.117-0.502-0.324-0.88-0.623-1.133c-0.297-0.253-0.657-0.38-1.079-0.38
				c-0.638,0-1.155,0.229-1.554,0.686c-0.399,0.458-0.599,1.181-0.599,2.17c0,1.004,0.192,1.733,0.577,2.188
				c0.385,0.455,0.886,0.683,1.505,0.683c0.497,0,0.912-0.152,1.245-0.457C119.541,50.161,119.751,49.692,119.841,49.059z"/>
			<path d="M122.177,42.939v-1.456h1.266v1.456H122.177z M122.177,51.795v-7.47h1.266v7.47H122.177z"/>
			<path d="M124.899,48.061c0-1.384,0.384-2.408,1.153-3.074c0.643-0.553,1.426-0.83,2.35-0.83c1.026,0,1.865,0.337,2.518,1.01
				s0.978,1.603,0.978,2.789c0,0.961-0.144,1.717-0.433,2.268c-0.288,0.552-0.708,0.979-1.259,1.284
				c-0.552,0.305-1.152,0.457-1.804,0.457c-1.047,0-1.892-0.335-2.536-1.006S124.899,49.321,124.899,48.061z M126.2,48.061
				c0,0.956,0.209,1.673,0.626,2.148c0.418,0.476,0.943,0.714,1.576,0.714c0.628,0,1.15-0.239,1.568-0.718
				c0.417-0.478,0.625-1.207,0.625-2.188c0-0.924-0.209-1.623-0.629-2.1c-0.42-0.476-0.941-0.714-1.564-0.714
				c-0.633,0-1.158,0.237-1.576,0.711C126.409,46.389,126.2,47.104,126.2,48.061z M127.699,43.396l0.935-1.969h1.66l-1.548,1.969
				H127.699z"/>
			<path d="M133.38,51.795v-7.47h1.14v1.062c0.549-0.82,1.341-1.231,2.378-1.231c0.449,0,0.863,0.081,1.24,0.243
				c0.378,0.161,0.66,0.374,0.848,0.637s0.319,0.574,0.395,0.935c0.047,0.235,0.07,0.646,0.07,1.231v4.593h-1.266v-4.544
				c0-0.516-0.05-0.901-0.148-1.156c-0.098-0.256-0.273-0.46-0.523-0.612c-0.252-0.152-0.545-0.229-0.883-0.229
				c-0.539,0-1.005,0.171-1.396,0.514c-0.392,0.342-0.588,0.991-0.588,1.948v4.079H133.38z"/>
			<path d="M141.75,51.795v-1.441h1.442v1.441H141.75z"/>
		</g>
		<path fill="none" stroke="#2A1945" stroke-width="3.9524" stroke-miterlimit="10" d="M194.4,41.456
			c0,9.62-5.712,17.418-12.758,17.418H14.733c-7.046,0-12.757-7.798-12.757-17.418V19.396c0-9.619,5.711-17.419,12.757-17.419
			h166.909c7.046,0,12.758,7.8,12.758,17.419V41.456z"/>
		<g>
			<path fill="#2B1C48" d="M6.276,39.917L5.83,36.125c2.439-3.978,5.264-8.093,8.472-12.345l6.854,0.285l-0.086,12.25l3.002,0.048
				v3.792h-2.916v6.681l-5.152-0.143l0.064-6.617L6.276,39.917z M16.153,36.363l0.063-8.188c-1.561,2.687-3.221,5.39-4.98,8.108
				L16.153,36.363z"/>
		</g>
	</g>
	<g>
		<polygon fill="#81AD38" points="189.898,299.775 1.798,299.775 7.798,269.775 192.898,265.775 		"/>
		<g>
			<path fill="#FFFFFF" d="M21.025,293.058c0.061-2.139,0.09-4.293,0.09-6.462c0-3.32-0.07-6.675-0.211-10.062
				c1.556-0.119,2.95-0.18,4.184-0.18c3.432,0,5.619,0.468,6.562,1.402c0.883,0.875,1.324,1.84,1.324,2.895
				c0,0.479-0.086,0.973-0.256,1.48c-0.582,1.646-1.807,2.688-3.672,3.13c1.304,0.135,2.292,0.658,2.965,1.57
				c0.641,0.883,0.963,3.104,0.963,6.664v0.482l-4.545,0.045c0.05-0.942,0.075-1.788,0.075-2.535c0-2.267-0.246-3.653-0.737-4.162
				c-0.562-0.568-1.229-0.853-2.002-0.853c-0.15,0-0.307,0.011-0.467,0.033c0.061,2.281,0.191,4.442,0.392,6.484L21.025,293.058z
				 M24.877,279.147l0.105,4.801c1.866-0.067,3.05-0.538,3.552-1.413c0.271-0.464,0.406-0.916,0.406-1.357
				c0-0.382-0.101-0.756-0.301-1.122c-0.361-0.636-1.26-0.953-2.694-0.953C25.615,279.103,25.258,279.117,24.877,279.147z"/>
			<path fill="#FFFFFF" d="M39.144,281.693c3.48,0,5.222,1.725,5.222,5.172c0,0.419-0.025,0.867-0.075,1.346h-6.727
				c0,1.923,0.496,2.884,1.489,2.884h0.105c0.873-0.053,1.31-0.55,1.31-1.492c0-0.202-0.021-0.427-0.061-0.673l3.582-0.057
				c0,2.85-1.671,4.293-5.012,4.33c-0.04,0.008-0.075,0.012-0.105,0.012c-3.18,0-4.77-1.799-4.77-5.396v-0.336
				C34.203,283.623,35.882,281.693,39.144,281.693z M37.203,286.147h3.4v-0.27c0-1.361-0.517-2.042-1.55-2.042
				C37.94,283.836,37.323,284.606,37.203,286.147z"/>
			<path fill="#FFFFFF" d="M51.65,288.593l3.581,0.168c0,2.7-1.671,4.068-5.011,4.106c-0.041,0.007-0.076,0.011-0.105,0.011
				c-3.181,0-4.771-1.799-4.771-5.396v-0.337c0.101-3.859,1.796-5.807,5.087-5.845h0.119c3.03,0,4.545,1.294,4.545,3.882
				c0,0.149-0.005,0.299-0.015,0.448l-3.235,0.18v-0.27c0-1.36-0.518-2.041-1.551-2.041c-1.053,0-1.58,1.103-1.58,3.309v0.371
				c0.061,2.386,0.592,3.578,1.596,3.578h0.09c0.873-0.053,1.311-0.55,1.311-1.492C51.71,289.063,51.689,288.84,51.65,288.593z"/>
			<path fill="#FFFFFF" d="M64.291,293.215l-0.15-1.829c-0.422,0.973-1.556,1.463-3.401,1.47c-0.021,0.008-0.035,0.012-0.046,0.012
				c-1.825,0-3.034-0.613-3.626-1.84c-0.401-0.815-0.603-2.502-0.603-5.06c0-1.316,0.056-2.868,0.166-4.655h3.656
				c-0.2,2.513-0.301,4.446-0.301,5.8c0,0.681,0.025,1.211,0.076,1.593c0.15,1.166,0.656,1.75,1.52,1.75s1.404-0.303,1.625-0.909
				l-0.15-7.785l3.537-0.022c0,3.216,0.154,6.963,0.466,11.24L64.291,293.215z"/>
			<path fill="#FFFFFF" d="M73.199,281.693c3.482,0,5.223,1.725,5.223,5.172c0,0.419-0.025,0.867-0.075,1.346h-6.728
				c0,1.923,0.497,2.884,1.49,2.884h0.105c0.873-0.053,1.31-0.55,1.31-1.492c0-0.202-0.021-0.427-0.061-0.673l3.581-0.057
				c0,2.85-1.67,4.293-5.011,4.33c-0.04,0.008-0.075,0.012-0.104,0.012c-3.182,0-4.771-1.799-4.771-5.396v-0.336
				C68.258,283.623,69.939,281.693,73.199,281.693z M71.258,286.147h3.401v-0.27c0-1.361-0.518-2.042-1.551-2.042
				C71.996,283.836,71.378,284.606,71.258,286.147z"/>
			<path fill="#FFFFFF" d="M83.552,285.171l0.15,8.134l-3.687,0.022c0-3.44-0.155-7.304-0.466-11.589l2.769-0.224l0.15,1.828
				c0.421-0.897,1.404-1.41,2.95-1.537c0.23-0.015,0.451-0.022,0.662-0.022c1.213,0,2.137,0.296,2.769,0.887
				c0.731,0.703,1.104,1.821,1.113,3.354l-3.341,0.247c0.01-0.127,0.016-0.25,0.016-0.37c0-1.196-0.417-1.795-1.25-1.795h-0.06
				C84.365,284.143,83.773,284.498,83.552,285.171z"/>
			<path fill="#FFFFFF" d="M102.349,277.341c-0.061,2.528-0.09,5.18-0.09,7.954c0,2.527,0.023,5.16,0.074,7.897l-3.566,0.011
				l-0.119-1.716c-0.744,0.83-1.732,1.245-2.965,1.245c-3.081,0-4.621-1.758-4.621-5.272c0-0.075,0.006-0.149,0.016-0.225
				c0.061-3.522,1.585-5.283,4.574-5.283c0.121,0,0.246,0.003,0.377,0.011c1.023,0.045,1.852,0.46,2.482,1.245
				c0-1.66-0.055-3.616-0.166-5.867H102.349z M98.587,289.188l-0.076-3.882c-0.582-0.591-1.178-0.886-1.791-0.886
				c-0.25,0-0.502,0.049-0.752,0.146c-0.793,0.307-1.189,1.167-1.189,2.58c0,0.165,0.006,0.333,0.016,0.505
				c0.1,1.713,0.611,2.617,1.535,2.715c0.09,0.008,0.18,0.011,0.271,0.011C97.404,290.376,98.066,289.98,98.587,289.188z"/>
			<path fill="#FFFFFF" d="M108.429,281.693c3.48,0,5.222,1.725,5.222,5.172c0,0.419-0.025,0.867-0.075,1.346h-6.727
				c0,1.923,0.496,2.884,1.489,2.884h0.105c0.873-0.053,1.31-0.55,1.31-1.492c0-0.202-0.021-0.427-0.061-0.673l3.582-0.057
				c0,2.85-1.671,4.293-5.012,4.33c-0.04,0.008-0.075,0.012-0.105,0.012c-3.181,0-4.771-1.799-4.771-5.396v-0.336
				C103.488,283.623,105.168,281.693,108.429,281.693z M106.488,286.147h3.4v-0.27c0-1.361-0.517-2.042-1.55-2.042
				C107.225,283.836,106.608,284.606,106.488,286.147z"/>
			<path fill="#FFFFFF" d="M127.992,298.251c0.011-2.4,0.016-4.431,0.016-6.091c-0.582,0.793-1.636,1.208-3.16,1.245
				c-2.939,0-4.415-1.907-4.425-5.722c-0.01-0.015-0.015-0.029-0.015-0.044c0-3.784,1.766-5.677,5.297-5.677
				c1.033,0,1.921,0.419,2.664,1.257l0.12-1.728l3.266,0.011c-0.051,2.954-0.075,5.751-0.075,8.391c0,2.902,0.03,5.613,0.09,8.134
				L127.992,298.251z M128.007,290.073v-4.555c-0.492-0.74-1.113-1.11-1.866-1.11c-0.15,0-0.306,0.016-0.467,0.045
				c-0.973,0.172-1.51,1.171-1.61,2.995c-0.01,0.194-0.015,0.382-0.015,0.562c0,1.488,0.371,2.4,1.113,2.736
				c0.251,0.12,0.517,0.18,0.798,0.18C126.583,290.926,127.264,290.642,128.007,290.073z"/>
			<path fill="#FFFFFF" d="M140.768,293.215l-0.15-1.829c-0.421,0.973-1.555,1.463-3.401,1.47c-0.02,0.008-0.035,0.012-0.045,0.012
				c-1.826,0-3.035-0.613-3.627-1.84c-0.401-0.815-0.602-2.502-0.602-5.06c0-1.316,0.055-2.868,0.166-4.655h3.656
				c-0.2,2.513-0.301,4.446-0.301,5.8c0,0.681,0.024,1.211,0.075,1.593c0.15,1.166,0.657,1.75,1.52,1.75
				c0.863,0,1.405-0.303,1.626-0.909l-0.15-7.785l3.536-0.022c0,3.216,0.155,6.963,0.467,11.24L140.768,293.215z"/>
			<path fill="#FFFFFF" d="M149.678,281.693c3.48,0,5.222,1.725,5.222,5.172c0,0.419-0.025,0.867-0.075,1.346h-6.727
				c0,1.923,0.496,2.884,1.489,2.884h0.105c0.873-0.053,1.31-0.55,1.31-1.492c0-0.202-0.021-0.427-0.061-0.673l3.582-0.057
				c0,2.85-1.671,4.293-5.012,4.33c-0.04,0.008-0.075,0.012-0.105,0.012c-3.181,0-4.771-1.799-4.771-5.396v-0.336
				C144.737,283.623,146.417,281.693,149.678,281.693z M147.737,286.147h3.4v-0.27c0-1.361-0.517-2.042-1.55-2.042
				C148.474,283.836,147.857,284.606,147.737,286.147z"/>
			<path fill="#FFFFFF" d="M158.225,293.271c-0.602,0-1.118-0.161-1.55-0.482s-0.647-0.707-0.647-1.155
				c0-0.456,0.216-0.845,0.647-1.167c0.432-0.321,0.948-0.482,1.55-0.482c0.612,0,1.134,0.161,1.565,0.482
				c0.432,0.322,0.647,0.711,0.647,1.167c0,0.448-0.216,0.834-0.647,1.155S158.837,293.271,158.225,293.271z"/>
			<path fill="#FFFFFF" d="M163.838,293.271c-0.602,0-1.118-0.161-1.55-0.482s-0.647-0.707-0.647-1.155
				c0-0.456,0.216-0.845,0.647-1.167c0.432-0.321,0.948-0.482,1.55-0.482c0.612,0,1.134,0.161,1.565,0.482
				c0.432,0.322,0.647,0.711,0.647,1.167c0,0.448-0.216,0.834-0.647,1.155S164.451,293.271,163.838,293.271z"/>
			<path fill="#FFFFFF" d="M169.452,293.271c-0.602,0-1.118-0.161-1.55-0.482s-0.647-0.707-0.647-1.155
				c0-0.456,0.216-0.845,0.647-1.167c0.432-0.321,0.948-0.482,1.55-0.482c0.612,0,1.134,0.161,1.565,0.482
				c0.432,0.322,0.647,0.711,0.647,1.167c0,0.448-0.216,0.834-0.647,1.155S170.064,293.271,169.452,293.271z"/>
			<path fill="#FFFFFF" d="M175.065,293.271c-0.602,0-1.118-0.161-1.55-0.482s-0.647-0.707-0.647-1.155
				c0-0.456,0.216-0.845,0.647-1.167c0.432-0.321,0.948-0.482,1.55-0.482c0.612,0,1.134,0.161,1.565,0.482
				c0.432,0.322,0.647,0.711,0.647,1.167c0,0.448-0.216,0.834-0.647,1.155S175.677,293.271,175.065,293.271z"/>
		</g>
	</g>
</g>
</svg>
