<?xml version="1.0" encoding="utf-8"?>
<!-- Generator: Adobe Illustrator 16.0.0, SVG Export Plug-In . SVG Version: 6.00 Build 0)  -->
<!DOCTYPE svg PUBLIC "-//W3C//DTD SVG 1.1//EN" "http://www.w3.org/Graphics/SVG/1.1/DTD/svg11.dtd">
<svg version="1.1" id="Capa_1" xmlns="http://www.w3.org/2000/svg" xmlns:xlink="http://www.w3.org/1999/xlink" x="0px" y="0px"
	 width="166.903px" height="39.242px" viewBox="0 0 166.903 39.242" enable-background="new 0 0 166.903 39.242"
	 xml:space="preserve">
<g>
	<g>
		<path d="M40.236,15.173V4.861h3.552c0.802,0,1.414,0.05,1.836,0.148c0.591,0.136,1.095,0.382,1.512,0.738
			c0.544,0.46,0.951,1.047,1.22,1.762s0.404,1.532,0.404,2.451c0,0.783-0.091,1.478-0.274,2.082
			c-0.183,0.604-0.417,1.105-0.704,1.502c-0.286,0.396-0.599,0.708-0.939,0.936s-0.75,0.399-1.231,0.517s-1.033,0.176-1.656,0.176
			H40.236z M41.601,13.956h2.202c0.68,0,1.213-0.063,1.6-0.189c0.387-0.127,0.695-0.306,0.925-0.535
			c0.324-0.323,0.576-0.758,0.756-1.305c0.18-0.546,0.271-1.208,0.271-1.987c0-1.078-0.177-1.906-0.531-2.486
			c-0.354-0.578-0.784-0.967-1.291-1.164c-0.366-0.141-0.955-0.211-1.766-0.211h-2.167V13.956z"/>
		<path d="M55.59,12.768l1.308,0.161c-0.207,0.765-0.588,1.358-1.146,1.78s-1.271,0.633-2.138,0.633
			c-1.093,0-1.959-0.337-2.599-1.01c-0.64-0.673-0.96-1.616-0.96-2.831c0-1.256,0.324-2.231,0.971-2.926
			c0.647-0.693,1.486-1.041,2.518-1.041c0.999,0,1.814,0.34,2.448,1.021c0.633,0.68,0.949,1.636,0.949,2.869
			c0,0.075-0.002,0.188-0.007,0.338h-5.57c0.046,0.82,0.279,1.449,0.696,1.885c0.417,0.437,0.938,0.654,1.561,0.654
			c0.464,0,0.861-0.122,1.189-0.366C55.138,13.691,55.398,13.302,55.59,12.768z M51.434,10.721h4.171
			c-0.057-0.628-0.216-1.1-0.479-1.414c-0.403-0.487-0.926-0.731-1.568-0.731c-0.582,0-1.07,0.195-1.467,0.584
			C51.695,9.549,51.476,10.069,51.434,10.721z"/>
		<path d="M63.362,12.437l1.245,0.162c-0.136,0.858-0.484,1.529-1.044,2.015c-0.561,0.485-1.249,0.729-2.064,0.729
			c-1.022,0-1.844-0.334-2.465-1.002c-0.622-0.669-0.932-1.626-0.932-2.874c0-0.806,0.134-1.512,0.401-2.117
			c0.268-0.604,0.674-1.058,1.221-1.36c0.546-0.303,1.14-0.454,1.783-0.454c0.811,0,1.475,0.205,1.991,0.615
			c0.516,0.411,0.846,0.993,0.992,1.748l-1.231,0.19c-0.117-0.502-0.325-0.88-0.623-1.133s-0.658-0.38-1.08-0.38
			c-0.638,0-1.156,0.229-1.554,0.686c-0.399,0.458-0.598,1.181-0.598,2.17c0,1.004,0.192,1.733,0.577,2.188
			c0.385,0.455,0.886,0.683,1.505,0.683c0.497,0,0.912-0.152,1.245-0.457C63.062,13.539,63.273,13.07,63.362,12.437z"/>
		<path d="M65.698,6.317V4.861h1.266v1.456H65.698z M65.698,15.173v-7.47h1.266v7.47H65.698z"/>
		<path d="M68.384,12.943l1.252-0.197c0.07,0.502,0.266,0.887,0.587,1.153c0.321,0.268,0.771,0.401,1.347,0.401
			c0.581,0,1.013-0.118,1.294-0.355c0.281-0.236,0.422-0.515,0.422-0.833c0-0.286-0.125-0.512-0.373-0.676
			c-0.173-0.112-0.605-0.255-1.294-0.429c-0.929-0.234-1.572-0.438-1.931-0.608c-0.359-0.171-0.631-0.408-0.816-0.71
			c-0.186-0.303-0.278-0.637-0.278-1.003c0-0.333,0.076-0.641,0.229-0.925c0.152-0.283,0.36-0.52,0.623-0.707
			c0.197-0.146,0.465-0.269,0.805-0.369s0.705-0.151,1.094-0.151c0.586,0,1.101,0.085,1.544,0.254
			c0.443,0.168,0.77,0.397,0.981,0.686s0.356,0.674,0.436,1.157l-1.238,0.168c-0.056-0.384-0.219-0.685-0.489-0.899
			c-0.27-0.216-0.651-0.324-1.143-0.324c-0.582,0-0.997,0.097-1.245,0.289c-0.249,0.191-0.373,0.417-0.373,0.675
			c0,0.164,0.052,0.312,0.155,0.443c0.103,0.136,0.265,0.248,0.485,0.337c0.126,0.047,0.5,0.155,1.118,0.324
			c0.896,0.239,1.521,0.435,1.875,0.587s0.632,0.374,0.833,0.665c0.202,0.29,0.302,0.651,0.302,1.083
			c0,0.422-0.123,0.819-0.369,1.192c-0.246,0.372-0.601,0.661-1.065,0.865c-0.464,0.203-0.99,0.306-1.576,0.306
			c-0.971,0-1.71-0.202-2.219-0.605C68.85,14.334,68.525,13.735,68.384,12.943z"/>
		<path d="M76.1,6.317V4.861h1.266v1.456H76.1z M76.1,15.173v-7.47h1.266v7.47H76.1z"/>
		<path d="M78.822,11.438c0-1.384,0.384-2.408,1.153-3.074c0.642-0.553,1.425-0.83,2.349-0.83c1.027,0,1.866,0.337,2.518,1.01
			s0.978,1.603,0.978,2.789c0,0.961-0.144,1.717-0.433,2.268c-0.288,0.552-0.708,0.979-1.259,1.284
			c-0.551,0.305-1.152,0.457-1.804,0.457c-1.046,0-1.891-0.335-2.536-1.006S78.822,12.699,78.822,11.438z M80.123,11.438
			c0,0.956,0.209,1.673,0.626,2.148c0.417,0.476,0.943,0.714,1.576,0.714c0.628,0,1.151-0.239,1.568-0.718
			c0.417-0.478,0.626-1.207,0.626-2.188c0-0.924-0.21-1.623-0.629-2.1c-0.42-0.476-0.941-0.714-1.565-0.714
			c-0.633,0-1.158,0.237-1.576,0.711C80.332,9.767,80.123,10.481,80.123,11.438z M81.622,6.774l0.935-1.969h1.66l-1.547,1.969
			H81.622z"/>
		<path d="M87.305,15.173v-7.47h1.139v1.062c0.549-0.82,1.341-1.231,2.377-1.231c0.45,0,0.864,0.081,1.241,0.243
			c0.377,0.161,0.66,0.374,0.848,0.637s0.319,0.574,0.394,0.935c0.047,0.235,0.07,0.646,0.07,1.231v4.593h-1.266v-4.544
			c0-0.516-0.049-0.901-0.148-1.156c-0.098-0.256-0.273-0.46-0.524-0.612s-0.545-0.229-0.882-0.229c-0.54,0-1.005,0.171-1.396,0.514
			c-0.392,0.342-0.587,0.991-0.587,1.948v4.079H87.305z"/>
		<path d="M98.811,12.943l1.252-0.197c0.07,0.502,0.266,0.887,0.587,1.153c0.321,0.268,0.771,0.401,1.347,0.401
			c0.581,0,1.013-0.118,1.294-0.355c0.281-0.236,0.422-0.515,0.422-0.833c0-0.286-0.125-0.512-0.373-0.676
			c-0.173-0.112-0.605-0.255-1.294-0.429c-0.929-0.234-1.572-0.438-1.931-0.608c-0.359-0.171-0.631-0.408-0.816-0.71
			c-0.186-0.303-0.278-0.637-0.278-1.003c0-0.333,0.076-0.641,0.229-0.925c0.152-0.283,0.36-0.52,0.623-0.707
			c0.197-0.146,0.465-0.269,0.805-0.369s0.705-0.151,1.094-0.151c0.586,0,1.101,0.085,1.544,0.254
			c0.443,0.168,0.77,0.397,0.981,0.686s0.356,0.674,0.436,1.157l-1.238,0.168c-0.056-0.384-0.219-0.685-0.489-0.899
			c-0.27-0.216-0.651-0.324-1.143-0.324c-0.582,0-0.997,0.097-1.245,0.289c-0.249,0.191-0.373,0.417-0.373,0.675
			c0,0.164,0.052,0.312,0.155,0.443c0.103,0.136,0.265,0.248,0.485,0.337c0.126,0.047,0.5,0.155,1.118,0.324
			c0.896,0.239,1.521,0.435,1.875,0.587s0.632,0.374,0.833,0.665c0.202,0.29,0.302,0.651,0.302,1.083
			c0,0.422-0.123,0.819-0.369,1.192c-0.246,0.372-0.601,0.661-1.065,0.865c-0.464,0.203-0.99,0.306-1.576,0.306
			c-0.971,0-1.71-0.202-2.219-0.605C99.276,14.334,98.952,13.735,98.811,12.943z"/>
		<path d="M106.049,11.438c0-1.384,0.384-2.408,1.153-3.074c0.642-0.553,1.425-0.83,2.349-0.83c1.027,0,1.866,0.337,2.518,1.01
			s0.978,1.603,0.978,2.789c0,0.961-0.144,1.717-0.433,2.268c-0.288,0.552-0.708,0.979-1.259,1.284
			c-0.551,0.305-1.152,0.457-1.804,0.457c-1.046,0-1.891-0.335-2.536-1.006S106.049,12.699,106.049,11.438z M107.35,11.438
			c0,0.956,0.209,1.673,0.626,2.148c0.417,0.476,0.943,0.714,1.576,0.714c0.628,0,1.151-0.239,1.568-0.718
			c0.417-0.478,0.626-1.207,0.626-2.188c0-0.924-0.21-1.623-0.629-2.1c-0.42-0.476-0.941-0.714-1.565-0.714
			c-0.633,0-1.158,0.237-1.576,0.711C107.559,9.767,107.35,10.481,107.35,11.438z"/>
		<path d="M115.699,15.173h-1.175V4.861h1.266V8.54c0.535-0.67,1.217-1.006,2.047-1.006c0.459,0,0.894,0.093,1.305,0.278
			c0.41,0.186,0.748,0.445,1.013,0.78c0.265,0.336,0.472,0.74,0.623,1.214c0.15,0.474,0.225,0.979,0.225,1.519
			c0,1.28-0.316,2.27-0.95,2.969c-0.633,0.698-1.393,1.048-2.279,1.048c-0.881,0-1.573-0.368-2.075-1.104V15.173z M115.685,11.382
			c0,0.896,0.122,1.543,0.366,1.941c0.398,0.651,0.938,0.978,1.618,0.978c0.553,0,1.032-0.24,1.435-0.721
			c0.403-0.48,0.604-1.197,0.604-2.149c0-0.975-0.193-1.694-0.58-2.159c-0.387-0.464-0.854-0.696-1.403-0.696
			c-0.553,0-1.031,0.24-1.435,0.721C115.886,9.777,115.685,10.472,115.685,11.382z"/>
		<path d="M122.528,15.173v-7.47h1.139v1.133c0.291-0.53,0.56-0.88,0.806-1.048c0.246-0.169,0.517-0.254,0.812-0.254
			c0.427,0,0.861,0.137,1.301,0.408l-0.436,1.175c-0.31-0.183-0.619-0.274-0.928-0.274c-0.277,0-0.525,0.083-0.746,0.25
			c-0.221,0.166-0.377,0.397-0.471,0.692c-0.141,0.45-0.211,0.942-0.211,1.478v3.91H122.528z"/>
		<path d="M132.453,12.768l1.308,0.161c-0.207,0.765-0.588,1.358-1.146,1.78s-1.271,0.633-2.138,0.633
			c-1.093,0-1.959-0.337-2.599-1.01c-0.64-0.673-0.96-1.616-0.96-2.831c0-1.256,0.324-2.231,0.971-2.926
			c0.647-0.693,1.486-1.041,2.518-1.041c0.999,0,1.814,0.34,2.448,1.021c0.633,0.68,0.949,1.636,0.949,2.869
			c0,0.075-0.002,0.188-0.007,0.338h-5.57c0.046,0.82,0.279,1.449,0.696,1.885c0.417,0.437,0.938,0.654,1.561,0.654
			c0.464,0,0.861-0.122,1.189-0.366C132,13.691,132.26,13.302,132.453,12.768z M128.296,10.721h4.171
			c-0.057-0.628-0.216-1.1-0.479-1.414c-0.403-0.487-0.926-0.731-1.568-0.731c-0.582,0-1.07,0.195-1.467,0.584
			C128.557,9.549,128.338,10.069,128.296,10.721z"/>
		<path d="M58.4,30.053l1.308,0.161c-0.207,0.765-0.588,1.358-1.146,1.78s-1.271,0.633-2.138,0.633c-1.093,0-1.959-0.337-2.599-1.01
			c-0.64-0.673-0.96-1.616-0.96-2.831c0-1.256,0.324-2.231,0.971-2.926c0.647-0.693,1.486-1.041,2.518-1.041
			c0.999,0,1.814,0.34,2.448,1.021c0.633,0.68,0.949,1.636,0.949,2.869c0,0.075-0.002,0.188-0.007,0.338h-5.57
			c0.046,0.82,0.279,1.449,0.696,1.885c0.417,0.437,0.938,0.654,1.561,0.654c0.464,0,0.861-0.122,1.189-0.366
			C57.948,30.977,58.208,30.587,58.4,30.053z M54.244,28.006h4.171c-0.057-0.628-0.216-1.1-0.479-1.414
			c-0.403-0.487-0.926-0.731-1.568-0.731c-0.582,0-1.07,0.195-1.467,0.584C54.505,26.834,54.286,27.354,54.244,28.006z"/>
		<path d="M61.27,32.458V22.146h1.266v10.312H61.27z"/>
		<path d="M68.683,32.458V22.146h4.572c0.919,0,1.618,0.093,2.096,0.278c0.478,0.186,0.86,0.513,1.146,0.981
			c0.286,0.469,0.429,0.986,0.429,1.554c0,0.731-0.237,1.349-0.71,1.851c-0.474,0.501-1.205,0.82-2.194,0.956
			c0.361,0.174,0.635,0.345,0.823,0.514c0.398,0.365,0.776,0.823,1.132,1.371l1.793,2.807h-1.716l-1.364-2.146
			c-0.399-0.619-0.727-1.092-0.985-1.421c-0.258-0.328-0.489-0.558-0.693-0.688c-0.204-0.132-0.411-0.223-0.623-0.274
			c-0.155-0.033-0.408-0.05-0.759-0.05h-1.583v4.579H68.683z M70.048,26.697h2.933c0.624,0,1.111-0.064,1.463-0.193
			c0.352-0.129,0.619-0.335,0.802-0.619c0.183-0.283,0.274-0.592,0.274-0.925c0-0.487-0.177-0.889-0.531-1.202
			c-0.354-0.314-0.913-0.472-1.678-0.472h-3.263V26.697z"/>
		<path d="M84.017,30.053l1.308,0.161c-0.207,0.765-0.588,1.358-1.146,1.78s-1.271,0.633-2.138,0.633
			c-1.093,0-1.959-0.337-2.599-1.01c-0.64-0.673-0.96-1.616-0.96-2.831c0-1.256,0.324-2.231,0.971-2.926
			c0.647-0.693,1.486-1.041,2.518-1.041c0.999,0,1.814,0.34,2.448,1.021c0.633,0.68,0.949,1.636,0.949,2.869
			c0,0.075-0.002,0.188-0.007,0.338h-5.57c0.046,0.82,0.279,1.449,0.696,1.885c0.417,0.437,0.938,0.654,1.561,0.654
			c0.464,0,0.861-0.122,1.189-0.366C83.564,30.977,83.824,30.587,84.017,30.053z M79.86,28.006h4.171
			c-0.057-0.628-0.216-1.1-0.479-1.414c-0.403-0.487-0.926-0.731-1.568-0.731c-0.582,0-1.07,0.195-1.467,0.584
			C80.121,26.834,79.902,27.354,79.86,28.006z"/>
		<path d="M86.682,33.077l1.231,0.183c0.052,0.38,0.194,0.656,0.429,0.83c0.314,0.234,0.743,0.352,1.287,0.352
			c0.586,0,1.039-0.117,1.357-0.352s0.535-0.562,0.647-0.984c0.065-0.259,0.096-0.8,0.091-1.625
			c-0.553,0.651-1.243,0.978-2.068,0.978c-1.027,0-1.821-0.37-2.384-1.111c-0.562-0.741-0.844-1.629-0.844-2.666
			c0-0.712,0.129-1.37,0.387-1.973s0.632-1.067,1.122-1.396c0.49-0.328,1.066-0.492,1.727-0.492c0.881,0,1.608,0.356,2.18,1.069
			v-0.9h1.167v6.457c0,1.163-0.118,1.987-0.355,2.472c-0.237,0.485-0.612,0.869-1.125,1.15c-0.513,0.281-1.145,0.422-1.896,0.422
			c-0.891,0-1.61-0.2-2.159-0.602C86.928,34.487,86.663,33.884,86.682,33.077z M87.73,28.59c0,0.979,0.194,1.694,0.583,2.145
			s0.877,0.676,1.463,0.676c0.582,0,1.069-0.224,1.463-0.672c0.394-0.447,0.591-1.15,0.591-2.106c0-0.914-0.203-1.604-0.608-2.068
			c-0.405-0.464-0.894-0.696-1.466-0.696c-0.562,0-1.041,0.229-1.435,0.687C87.927,27.011,87.73,27.689,87.73,28.59z"/>
		<path d="M94.932,23.603v-1.456h1.266v1.456H94.932z M94.932,32.458v-7.47h1.266v7.47H94.932z"/>
		<path d="M97.619,30.229l1.252-0.197c0.07,0.502,0.266,0.887,0.587,1.153c0.321,0.268,0.771,0.401,1.347,0.401
			c0.581,0,1.013-0.118,1.294-0.355c0.281-0.236,0.422-0.515,0.422-0.833c0-0.286-0.125-0.512-0.373-0.676
			c-0.173-0.112-0.605-0.255-1.294-0.429c-0.929-0.234-1.572-0.438-1.931-0.608c-0.359-0.171-0.631-0.408-0.816-0.71
			c-0.186-0.303-0.278-0.637-0.278-1.003c0-0.333,0.076-0.641,0.229-0.925c0.152-0.283,0.36-0.52,0.623-0.707
			c0.197-0.146,0.465-0.269,0.805-0.369s0.705-0.151,1.094-0.151c0.586,0,1.101,0.085,1.544,0.254
			c0.443,0.168,0.77,0.397,0.981,0.686s0.356,0.674,0.436,1.157l-1.238,0.168c-0.056-0.384-0.219-0.685-0.489-0.899
			c-0.27-0.216-0.651-0.324-1.143-0.324c-0.582,0-0.997,0.097-1.245,0.289c-0.249,0.191-0.373,0.417-0.373,0.675
			c0,0.164,0.052,0.312,0.155,0.443c0.103,0.136,0.265,0.248,0.485,0.337c0.126,0.047,0.5,0.155,1.118,0.324
			c0.896,0.239,1.521,0.435,1.875,0.587s0.632,0.374,0.833,0.665c0.202,0.29,0.302,0.651,0.302,1.083
			c0,0.422-0.123,0.819-0.369,1.192c-0.246,0.372-0.601,0.661-1.065,0.865c-0.464,0.203-0.99,0.306-1.576,0.306
			c-0.971,0-1.71-0.202-2.219-0.605C98.084,31.619,97.76,31.021,97.619,30.229z"/>
		<path d="M108.092,31.325l0.183,1.119c-0.356,0.074-0.675,0.112-0.957,0.112c-0.459,0-0.816-0.073-1.069-0.218
			c-0.253-0.146-0.432-0.337-0.535-0.573c-0.103-0.237-0.155-0.735-0.155-1.495v-4.298h-0.928v-0.984h0.928v-1.85l1.259-0.76v2.609
			h1.273v0.984h-1.273v4.368c0,0.361,0.022,0.594,0.067,0.696c0.044,0.104,0.117,0.186,0.218,0.246
			c0.101,0.062,0.245,0.092,0.433,0.092C107.677,31.375,107.862,31.358,108.092,31.325z"/>
		<path d="M109.316,32.458v-7.47h1.139v1.133c0.291-0.53,0.56-0.88,0.806-1.048c0.246-0.169,0.517-0.254,0.812-0.254
			c0.427,0,0.861,0.137,1.301,0.408l-0.436,1.175c-0.31-0.183-0.619-0.274-0.928-0.274c-0.277,0-0.525,0.083-0.746,0.25
			c-0.221,0.166-0.377,0.397-0.471,0.692c-0.141,0.45-0.211,0.942-0.211,1.478v3.91H109.316z"/>
		<path d="M113.656,28.724c0-1.384,0.384-2.408,1.153-3.074c0.642-0.553,1.425-0.83,2.349-0.83c1.027,0,1.866,0.337,2.518,1.01
			s0.978,1.603,0.978,2.789c0,0.961-0.144,1.717-0.433,2.268c-0.288,0.552-0.708,0.979-1.259,1.284
			c-0.551,0.305-1.152,0.457-1.804,0.457c-1.046,0-1.891-0.335-2.536-1.006S113.656,29.984,113.656,28.724z M114.957,28.724
			c0,0.956,0.209,1.673,0.626,2.148c0.417,0.476,0.943,0.714,1.576,0.714c0.628,0,1.151-0.239,1.568-0.718
			c0.417-0.478,0.626-1.207,0.626-2.188c0-0.924-0.21-1.623-0.629-2.1c-0.42-0.476-0.941-0.714-1.565-0.714
			c-0.633,0-1.158,0.237-1.576,0.711C115.166,27.052,114.957,27.767,114.957,28.724z"/>
		<path d="M122.497,32.458v-1.441h1.442v1.441H122.497z"/>
	</g>
	<path fill="none" stroke="#7CA439" stroke-width="3.9524" stroke-miterlimit="10" d="M164.927,26.463
		c0,5.967-4.836,10.804-10.803,10.804H12.779c-5.967,0-10.803-4.837-10.803-10.804V12.78c0-5.967,4.836-10.804,10.803-10.804
		h141.346c5.967,0,10.803,4.837,10.803,10.804V26.463z"/>
	<g>
		<path fill="#81AD38" d="M8.972,15.381c-0.057-0.561-0.085-1.084-0.085-1.571c0-1.682,0.34-2.978,1.021-3.888
			c0.866-1.163,2.285-1.883,4.257-2.157c0.965-0.138,1.887-0.207,2.768-0.207c0.894,0,1.746,0.074,2.554,0.223
			c1.575,0.285,2.834,0.926,3.778,1.92s1.451,2.359,1.522,4.094v0.477c0,1.502-0.312,2.597-0.937,3.284
			c-0.695,0.772-1.838,1.354-3.427,1.745c1.32,0.148,2.31,0.506,2.97,1.071c0.66,0.566,1.118,1.325,1.373,2.277
			c0.142,0.529,0.213,1.11,0.213,1.745c0,0.519-0.05,1.079-0.149,1.683c-0.213,1.322-0.934,2.465-2.161,3.427
			c-1.228,0.963-3.119,1.466-5.673,1.508h-0.341c-2.398,0-4.314-0.466-5.748-1.396c-1.49-0.952-2.235-2.999-2.235-6.141v-0.096
			l5.513-0.237c-0.014,0.18-0.021,0.354-0.021,0.523c0,2.222,0.78,3.369,2.342,3.443c0.113,0.011,0.22,0.016,0.319,0.016
			c1.476,0,2.363-0.582,2.661-1.745c0.085-0.328,0.128-0.641,0.128-0.937c0-0.836-0.319-1.561-0.958-2.174
			c-0.88-0.825-2.334-1.238-4.364-1.238l-0.255-3.015c0.241,0.011,0.468,0.016,0.681,0.016c1.774,0,2.994-0.38,3.661-1.142
			c0.625-0.709,0.937-1.629,0.937-2.762c0-0.222-0.014-0.449-0.042-0.682c-0.127-1.354-0.944-2.031-2.448-2.031H16.55
			c-1.49,0.074-2.235,1.185-2.235,3.332c0,0.254,0.007,0.523,0.021,0.81L8.972,15.381z"/>
	</g>
</g>
</svg>
