<?xml version="1.0" encoding="utf-8"?>
<!-- Generator: Adobe Illustrator 16.0.0, SVG Export Plug-In . SVG Version: 6.00 Build 0)  -->
<!DOCTYPE svg PUBLIC "-//W3C//DTD SVG 1.1//EN" "http://www.w3.org/Graphics/SVG/1.1/DTD/svg11.dtd">
<svg version="1.1" id="Capa_1" xmlns="http://www.w3.org/2000/svg" xmlns:xlink="http://www.w3.org/1999/xlink" x="0px" y="0px"
	 width="862.024px" height="367.721px" viewBox="0 0 862.024 367.721" enable-background="new 0 0 862.024 367.721"
	 xml:space="preserve">
<g>
	<g>
		<g>
			<path fill="#6F3A89" d="M232.937,16.314c-0.538,0.259-1.812,0.577-3.425,0.577c-4.64,0-7.029-2.907-7.029-6.73
				c0-4.58,3.266-7.108,7.327-7.108c1.573,0,2.769,0.299,3.306,0.598l-0.637,2.389c-0.598-0.259-1.454-0.497-2.549-0.497
				c-2.39,0-4.262,1.453-4.262,4.44c0,2.688,1.593,4.381,4.281,4.381c0.937,0,1.932-0.18,2.549-0.438L232.937,16.314z"/>
			<path fill="#6F3A89" d="M244.092,11.694c0,3.564-2.529,5.197-5.138,5.197c-2.848,0-5.038-1.871-5.038-5.018
				c0-3.166,2.071-5.178,5.217-5.178C242.1,6.696,244.092,8.748,244.092,11.694z M237.042,11.794c0,1.673,0.697,2.928,1.991,2.928
				c1.195,0,1.932-1.175,1.932-2.947c0-1.434-0.558-2.907-1.932-2.907C237.6,8.867,237.042,10.36,237.042,11.794z"/>
			<path fill="#6F3A89" d="M245.967,10.042c0-1.215-0.04-2.23-0.08-3.106h2.569l0.119,1.314h0.06
				c0.418-0.638,1.295-1.554,2.947-1.554c1.274,0,2.25,0.657,2.668,1.673h0.04c0.379-0.518,0.797-0.916,1.274-1.194
				c0.538-0.299,1.135-0.479,1.852-0.479c1.872,0,3.286,1.314,3.286,4.242v5.734h-2.947v-5.297c0-1.414-0.458-2.23-1.434-2.23
				c-0.717,0-1.194,0.479-1.414,1.056c-0.06,0.219-0.1,0.518-0.1,0.776v5.695h-2.947v-5.476c0-1.215-0.438-2.052-1.413-2.052
				c-0.777,0-1.234,0.598-1.414,1.075c-0.1,0.239-0.119,0.519-0.119,0.777v5.675h-2.947V10.042z"/>
			<path fill="#6F3A89" d="M263.097,10.201c0-1.274-0.04-2.35-0.08-3.266h2.629l0.14,1.354h0.039
				c0.717-1.016,1.832-1.573,3.246-1.573c2.131,0,4.042,1.852,4.042,4.958c0,3.544-2.25,5.217-4.42,5.217
				c-1.175,0-2.091-0.478-2.529-1.115h-0.04v4.839h-3.026V10.201z M266.123,12.491c0,0.239,0.021,0.438,0.06,0.637
				c0.199,0.816,0.896,1.435,1.772,1.435c1.314,0,2.091-1.096,2.091-2.748c0-1.554-0.697-2.729-2.051-2.729
				c-0.856,0-1.613,0.638-1.812,1.533c-0.039,0.159-0.06,0.358-0.06,0.538V12.491z"/>
			<path fill="#6F3A89" d="M284.686,11.694c0,3.564-2.528,5.197-5.137,5.197c-2.848,0-5.038-1.871-5.038-5.018
				c0-3.166,2.071-5.178,5.217-5.178C282.694,6.696,284.686,8.748,284.686,11.694z M277.637,11.794c0,1.673,0.697,2.928,1.991,2.928
				c1.195,0,1.932-1.175,1.932-2.947c0-1.434-0.558-2.907-1.932-2.907C278.194,8.867,277.637,10.36,277.637,11.794z"/>
			<path fill="#6F3A89" d="M286.562,10.042c0-1.215-0.04-2.23-0.08-3.106h2.629l0.14,1.354h0.06
				c0.398-0.638,1.374-1.573,3.007-1.573c1.991,0,3.484,1.334,3.484,4.201v5.755h-3.026v-5.396c0-1.254-0.438-2.11-1.533-2.11
				c-0.837,0-1.335,0.577-1.554,1.135c-0.079,0.199-0.1,0.478-0.1,0.757v5.615h-3.026V10.042z"/>
			<path fill="#6F3A89" d="M300.564,12.77c0.079,1.255,1.334,1.853,2.747,1.853c1.036,0,1.872-0.14,2.688-0.418l0.398,2.051
				c-0.996,0.418-2.21,0.617-3.524,0.617c-3.306,0-5.197-1.912-5.197-4.958c0-2.47,1.533-5.197,4.918-5.197
				c3.146,0,4.342,2.449,4.342,4.858c0,0.518-0.061,0.976-0.1,1.194H300.564z M304.128,10.699c0-0.737-0.318-1.972-1.712-1.972
				c-1.274,0-1.792,1.175-1.872,1.972H304.128z"/>
			<path fill="#6F3A89" d="M308.752,10.042c0-1.215-0.04-2.23-0.08-3.106h2.629l0.14,1.354h0.06
				c0.398-0.638,1.374-1.573,3.007-1.573c1.991,0,3.484,1.334,3.484,4.201v5.755h-3.026v-5.396c0-1.254-0.438-2.11-1.533-2.11
				c-0.837,0-1.335,0.577-1.554,1.135c-0.079,0.199-0.1,0.478-0.1,0.757v5.615h-3.026V10.042z"/>
			<path fill="#6F3A89" d="M323.689,4.307v2.629h2.171v2.23h-2.171v3.524c0,1.175,0.299,1.712,1.195,1.712
				c0.418,0,0.617-0.02,0.896-0.079l0.021,2.29c-0.379,0.14-1.115,0.259-1.952,0.259c-0.976,0-1.792-0.339-2.29-0.836
				c-0.557-0.578-0.836-1.514-0.836-2.888V9.166h-1.294v-2.23h1.294V5.123L323.689,4.307z"/>
			<path fill="#6F3A89" d="M329.846,12.77c0.079,1.255,1.334,1.853,2.747,1.853c1.036,0,1.872-0.14,2.688-0.418l0.398,2.051
				c-0.996,0.418-2.21,0.617-3.524,0.617c-3.306,0-5.197-1.912-5.197-4.958c0-2.47,1.533-5.197,4.918-5.197
				c3.146,0,4.342,2.449,4.342,4.858c0,0.518-0.061,0.976-0.1,1.194H329.846z M333.409,10.699c0-0.737-0.318-1.972-1.712-1.972
				c-1.274,0-1.792,1.175-1.872,1.972H333.409z"/>
			<path fill="#6F3A89" d="M351.495,2.535v11.23c0,1.095,0.04,2.25,0.08,2.907h-2.688l-0.12-1.414h-0.06
				c-0.597,1.075-1.792,1.633-3.046,1.633c-2.311,0-4.162-1.971-4.162-4.998c-0.021-3.285,2.031-5.197,4.36-5.197
				c1.215,0,2.131,0.438,2.569,1.096h0.04V2.535H351.495z M348.469,11.058c0-0.159,0-0.379-0.04-0.558
				c-0.18-0.797-0.837-1.474-1.772-1.474c-1.394,0-2.091,1.234-2.091,2.768c0,1.653,0.816,2.688,2.071,2.688
				c0.876,0,1.593-0.598,1.771-1.453c0.04-0.22,0.061-0.458,0.061-0.697V11.058z"/>
			<path fill="#6F3A89" d="M356.259,12.77c0.079,1.255,1.334,1.853,2.747,1.853c1.036,0,1.872-0.14,2.688-0.418l0.398,2.051
				c-0.996,0.418-2.21,0.617-3.524,0.617c-3.306,0-5.197-1.912-5.197-4.958c0-2.47,1.533-5.197,4.918-5.197
				c3.146,0,4.342,2.449,4.342,4.858c0,0.518-0.061,0.976-0.1,1.194H356.259z M359.822,10.699c0-0.737-0.318-1.972-1.712-1.972
				c-1.274,0-1.792,1.175-1.872,1.972H359.822z"/>
			<path fill="#6F3A89" d="M376.574,14.323c0,0.916,0.04,1.812,0.159,2.35h-2.729l-0.179-0.976h-0.06
				c-0.638,0.776-1.633,1.194-2.788,1.194c-1.972,0-3.146-1.434-3.146-2.986c0-2.529,2.271-3.724,5.715-3.724v-0.12
				c0-0.537-0.278-1.274-1.771-1.274c-0.996,0-2.052,0.339-2.688,0.737l-0.558-1.952c0.677-0.378,2.011-0.876,3.783-0.876
				c3.246,0,4.262,1.912,4.262,4.222V14.323z M373.646,12.073c-1.593,0-2.827,0.378-2.827,1.533c0,0.776,0.518,1.154,1.194,1.154
				c0.737,0,1.374-0.497,1.573-1.114c0.04-0.159,0.06-0.339,0.06-0.519V12.073z"/>
			<path fill="#6F3A89" d="M382.212,4.307v2.629h2.171v2.23h-2.171v3.524c0,1.175,0.299,1.712,1.195,1.712
				c0.418,0,0.617-0.02,0.896-0.079l0.021,2.29c-0.379,0.14-1.115,0.259-1.952,0.259c-0.976,0-1.792-0.339-2.29-0.836
				c-0.558-0.578-0.836-1.514-0.836-2.888V9.166h-1.294v-2.23h1.294V5.123L382.212,4.307z"/>
			<path fill="#6F3A89" d="M388.368,12.77c0.079,1.255,1.334,1.853,2.747,1.853c1.036,0,1.872-0.14,2.688-0.418l0.398,2.051
				c-0.996,0.418-2.21,0.617-3.524,0.617c-3.306,0-5.197-1.912-5.197-4.958c0-2.47,1.533-5.197,4.918-5.197
				c3.146,0,4.342,2.449,4.342,4.858c0,0.518-0.061,0.976-0.1,1.194H388.368z M391.932,10.699c0-0.737-0.318-1.972-1.712-1.972
				c-1.274,0-1.792,1.175-1.872,1.972H391.932z"/>
			<path fill="#6F3A89" d="M396.556,10.042c0-1.215-0.04-2.23-0.08-3.106h2.629l0.14,1.354h0.06
				c0.398-0.638,1.374-1.573,3.007-1.573c1.991,0,3.484,1.334,3.484,4.201v5.755h-3.026v-5.396c0-1.254-0.438-2.11-1.533-2.11
				c-0.837,0-1.335,0.577-1.554,1.135c-0.079,0.199-0.1,0.478-0.1,0.757v5.615h-3.026V10.042z"/>
			<path fill="#6F3A89" d="M415.536,16.414c-0.537,0.259-1.553,0.458-2.708,0.458c-3.146,0-5.157-1.932-5.157-4.979
				c0-2.848,1.951-5.177,5.575-5.177c0.797,0,1.673,0.139,2.311,0.378l-0.479,2.25c-0.358-0.159-0.896-0.299-1.692-0.299
				c-1.593,0-2.629,1.136-2.608,2.729c0,1.772,1.194,2.728,2.668,2.728c0.717,0,1.274-0.119,1.732-0.318L415.536,16.414z"/>
			<path fill="#6F3A89" d="M420.338,4.228c0,0.836-0.617,1.514-1.633,1.514c-0.956,0-1.573-0.678-1.573-1.514
				c0-0.856,0.638-1.514,1.613-1.514S420.318,3.371,420.338,4.228z M417.212,16.673V6.936h3.026v9.737H417.212z"/>
			<path fill="#6F3A89" d="M432.287,11.694c0,3.564-2.528,5.197-5.137,5.197c-2.848,0-5.038-1.871-5.038-5.018
				c0-3.166,2.071-5.178,5.217-5.178C430.296,6.696,432.287,8.748,432.287,11.694z M425.238,11.794c0,1.673,0.697,2.928,1.991,2.928
				c1.195,0,1.932-1.175,1.932-2.947c0-1.434-0.558-2.907-1.932-2.907C425.796,8.867,425.238,10.36,425.238,11.794z M430.356,2.694
				l-2.43,3.026h-2.071l1.713-3.026H430.356z"/>
			<path fill="#6F3A89" d="M434.163,10.042c0-1.215-0.04-2.23-0.08-3.106h2.629l0.14,1.354h0.06
				c0.398-0.638,1.374-1.573,3.007-1.573c1.991,0,3.484,1.334,3.484,4.201v5.755h-3.026v-5.396c0-1.254-0.438-2.11-1.533-2.11
				c-0.837,0-1.335,0.577-1.554,1.135c-0.079,0.199-0.1,0.478-0.1,0.757v5.615h-3.026V10.042z"/>
			<path fill="#6F3A89" d="M449.859,10.201c0-1.274-0.04-2.35-0.08-3.266h2.629l0.14,1.354h0.039
				c0.717-1.016,1.832-1.573,3.246-1.573c2.131,0,4.042,1.852,4.042,4.958c0,3.544-2.25,5.217-4.42,5.217
				c-1.175,0-2.091-0.478-2.529-1.115h-0.04v4.839h-3.026V10.201z M452.886,12.491c0,0.239,0.021,0.438,0.06,0.637
				c0.199,0.816,0.896,1.435,1.772,1.435c1.314,0,2.091-1.096,2.091-2.748c0-1.554-0.697-2.729-2.051-2.729
				c-0.856,0-1.613,0.638-1.812,1.533c-0.039,0.159-0.06,0.358-0.06,0.538V12.491z"/>
			<path fill="#6F3A89" d="M461.75,14.044c0.558,0.339,1.713,0.717,2.609,0.717c0.916,0,1.294-0.298,1.294-0.796
				c0-0.518-0.299-0.757-1.414-1.135c-2.031-0.678-2.808-1.772-2.787-2.928c0-1.832,1.553-3.206,3.962-3.206
				c1.136,0,2.131,0.279,2.729,0.578l-0.518,2.091c-0.438-0.239-1.295-0.558-2.111-0.558c-0.736,0-1.154,0.299-1.154,0.776
				s0.378,0.717,1.572,1.135c1.853,0.638,2.609,1.593,2.629,3.007c0,1.832-1.414,3.166-4.201,3.166c-1.274,0-2.41-0.299-3.146-0.696
				L461.75,14.044z"/>
			<path fill="#6F3A89" d="M473.541,4.228c0,0.836-0.617,1.514-1.633,1.514c-0.956,0-1.573-0.678-1.573-1.514
				c0-0.856,0.638-1.514,1.613-1.514S473.521,3.371,473.541,4.228z M470.415,16.673V6.936h3.026v9.737H470.415z"/>
			<path fill="#6F3A89" d="M483.181,16.414c-0.537,0.259-1.553,0.458-2.708,0.458c-3.146,0-5.157-1.932-5.157-4.979
				c0-2.848,1.951-5.177,5.575-5.177c0.797,0,1.673,0.139,2.311,0.378l-0.479,2.25c-0.358-0.159-0.896-0.299-1.692-0.299
				c-1.593,0-2.629,1.136-2.608,2.729c0,1.772,1.194,2.728,2.668,2.728c0.717,0,1.274-0.119,1.732-0.318L483.181,16.414z"/>
			<path fill="#6F3A89" d="M494.256,11.694c0,3.564-2.529,5.197-5.138,5.197c-2.848,0-5.038-1.871-5.038-5.018
				c0-3.166,2.071-5.178,5.217-5.178C492.264,6.696,494.256,8.748,494.256,11.694z M487.206,11.794c0,1.673,0.697,2.928,1.991,2.928
				c1.195,0,1.932-1.175,1.932-2.947c0-1.434-0.558-2.907-1.932-2.907C487.764,8.867,487.206,10.36,487.206,11.794z"/>
			<path fill="#6F3A89" d="M496.11,14.044c0.558,0.339,1.713,0.717,2.609,0.717c0.916,0,1.294-0.298,1.294-0.796
				c0-0.518-0.299-0.757-1.414-1.135c-2.031-0.678-2.808-1.772-2.787-2.928c0-1.832,1.553-3.206,3.962-3.206
				c1.136,0,2.131,0.279,2.729,0.578l-0.518,2.091c-0.438-0.239-1.295-0.558-2.111-0.558c-0.736,0-1.154,0.299-1.154,0.776
				s0.378,0.717,1.572,1.135c1.853,0.638,2.609,1.593,2.629,3.007c0,1.832-1.414,3.166-4.201,3.166c-1.274,0-2.41-0.299-3.146-0.696
				L496.11,14.044z"/>
			<path fill="#6F3A89" d="M514.393,11.694c0,3.564-2.528,5.197-5.137,5.197c-2.848,0-5.038-1.871-5.038-5.018
				c0-3.166,2.071-5.178,5.217-5.178C512.401,6.696,514.393,8.748,514.393,11.694z M507.344,11.794c0,1.673,0.697,2.928,1.991,2.928
				c1.195,0,1.932-1.175,1.932-2.947c0-1.434-0.558-2.907-1.932-2.907C507.901,8.867,507.344,10.36,507.344,11.794z"/>
			<path fill="#6F3A89" d="M523.637,16.414c-0.537,0.259-1.553,0.458-2.708,0.458c-3.146,0-5.157-1.932-5.157-4.979
				c0-2.848,1.951-5.177,5.575-5.177c0.797,0,1.673,0.139,2.311,0.378l-0.479,2.25c-0.358-0.159-0.896-0.299-1.692-0.299
				c-1.593,0-2.629,1.136-2.608,2.729c0,1.772,1.194,2.728,2.668,2.728c0.717,0,1.274-0.119,1.732-0.318L523.637,16.414z"/>
			<path fill="#6F3A89" d="M528.438,4.228c0,0.836-0.617,1.514-1.633,1.514c-0.956,0-1.573-0.678-1.573-1.514
				c0-0.856,0.638-1.514,1.613-1.514S528.419,3.371,528.438,4.228z M525.312,16.673V6.936h3.026v9.737H525.312z"/>
			<path fill="#6F3A89" d="M538.874,14.323c0,0.916,0.04,1.812,0.159,2.35h-2.729l-0.179-0.976h-0.06
				c-0.638,0.776-1.633,1.194-2.788,1.194c-1.972,0-3.146-1.434-3.146-2.986c0-2.529,2.271-3.724,5.715-3.724v-0.12
				c0-0.537-0.278-1.274-1.771-1.274c-0.996,0-2.052,0.339-2.688,0.737l-0.558-1.952c0.677-0.378,2.011-0.876,3.783-0.876
				c3.246,0,4.262,1.912,4.262,4.222V14.323z M535.946,12.073c-1.593,0-2.827,0.378-2.827,1.533c0,0.776,0.518,1.154,1.194,1.154
				c0.737,0,1.374-0.497,1.573-1.114c0.04-0.159,0.06-0.339,0.06-0.519V12.073z"/>
			<path fill="#6F3A89" d="M541.287,2.535h3.026v14.138h-3.026V2.535z"/>
			<path fill="#6F3A89" d="M558.933,10.679v1.872h-8.762v-1.872H558.933z"/>
			<path fill="#6F3A89" d="M572.855,10.998h-4.938v3.186h5.516v2.489h-8.543V3.252h8.264v2.489h-5.236v2.787h4.938V10.998z"/>
			<path fill="#6F3A89" d="M575.468,14.044c0.558,0.339,1.713,0.717,2.609,0.717c0.916,0,1.294-0.298,1.294-0.796
				c0-0.518-0.299-0.757-1.414-1.135c-2.031-0.678-2.808-1.772-2.787-2.928c0-1.832,1.553-3.206,3.962-3.206
				c1.136,0,2.131,0.279,2.729,0.578l-0.518,2.091c-0.438-0.239-1.295-0.558-2.111-0.558c-0.736,0-1.154,0.299-1.154,0.776
				s0.378,0.717,1.572,1.135c1.853,0.638,2.609,1.593,2.629,3.007c0,1.832-1.414,3.166-4.201,3.166c-1.274,0-2.41-0.299-3.146-0.696
				L575.468,14.044z"/>
			<path fill="#6F3A89" d="M587.518,4.307v2.629h2.171v2.23h-2.171v3.524c0,1.175,0.299,1.712,1.195,1.712
				c0.418,0,0.617-0.02,0.896-0.079l0.021,2.29c-0.379,0.14-1.115,0.259-1.952,0.259c-0.976,0-1.792-0.339-2.29-0.836
				c-0.557-0.578-0.836-1.514-0.836-2.888V9.166h-1.294v-2.23h1.294V5.123L587.518,4.307z"/>
			<path fill="#6F3A89" d="M591.443,10.142c0-1.434-0.021-2.37-0.08-3.206h2.589l0.119,1.792h0.08
				c0.498-1.434,1.673-2.031,2.629-2.031c0.278,0,0.418,0.021,0.637,0.06v2.848c-0.239-0.039-0.478-0.079-0.816-0.079
				c-1.115,0-1.872,0.597-2.071,1.533c-0.039,0.199-0.06,0.438-0.06,0.677v4.938h-3.026V10.142z"/>
			<path fill="#6F3A89" d="M606.898,14.323c0,0.916,0.04,1.812,0.159,2.35h-2.729l-0.179-0.976h-0.06
				c-0.638,0.776-1.633,1.194-2.788,1.194c-1.972,0-3.146-1.434-3.146-2.986c0-2.529,2.271-3.724,5.715-3.724v-0.12
				c0-0.537-0.278-1.274-1.771-1.274c-0.996,0-2.052,0.339-2.688,0.737l-0.558-1.952c0.677-0.378,2.011-0.876,3.783-0.876
				c3.246,0,4.262,1.912,4.262,4.222V14.323z M603.971,12.073c-1.593,0-2.827,0.378-2.827,1.533c0,0.776,0.518,1.154,1.194,1.154
				c0.737,0,1.374-0.497,1.573-1.114c0.04-0.159,0.06-0.339,0.06-0.519V12.073z"/>
			<path fill="#6F3A89" d="M612.536,4.307v2.629h2.171v2.23h-2.171v3.524c0,1.175,0.299,1.712,1.195,1.712
				c0.418,0,0.617-0.02,0.896-0.079l0.021,2.29c-0.379,0.14-1.115,0.259-1.952,0.259c-0.976,0-1.792-0.339-2.29-0.836
				c-0.558-0.578-0.836-1.514-0.836-2.888V9.166h-1.294v-2.23h1.294V5.123L612.536,4.307z"/>
			<path fill="#6F3A89" d="M618.692,12.77c0.079,1.255,1.334,1.853,2.747,1.853c1.036,0,1.872-0.14,2.688-0.418l0.398,2.051
				c-0.996,0.418-2.21,0.617-3.524,0.617c-3.306,0-5.197-1.912-5.197-4.958c0-2.47,1.533-5.197,4.918-5.197
				c3.146,0,4.342,2.449,4.342,4.858c0,0.518-0.061,0.976-0.1,1.194H618.692z M622.256,10.699c0-0.737-0.318-1.972-1.712-1.972
				c-1.274,0-1.792,1.175-1.872,1.972H622.256z"/>
			<path fill="#6F3A89" d="M636.1,15.259c0,1.872-0.379,3.405-1.494,4.381c-1.055,0.916-2.509,1.195-3.942,1.195
				c-1.294,0-2.629-0.259-3.505-0.737l0.598-2.31c0.617,0.358,1.673,0.736,2.827,0.736c1.435,0,2.529-0.757,2.529-2.568v-0.617
				h-0.04c-0.577,0.796-1.513,1.254-2.628,1.254c-2.41,0-4.122-1.951-4.122-4.739c0-3.146,2.011-5.137,4.421-5.137
				c1.334,0,2.17,0.577,2.668,1.394h0.04l0.1-1.175h2.628c-0.04,0.637-0.079,1.454-0.079,2.907V15.259z M633.072,10.898
				c0-0.18-0.02-0.379-0.06-0.558c-0.219-0.797-0.796-1.334-1.633-1.334c-1.115,0-1.991,0.995-1.991,2.768
				c0,1.453,0.717,2.589,1.972,2.589c0.796,0,1.413-0.518,1.612-1.215c0.08-0.239,0.1-0.558,0.1-0.816V10.898z"/>
			<path fill="#6F3A89" d="M641.658,4.228c0,0.836-0.617,1.514-1.633,1.514c-0.956,0-1.573-0.678-1.573-1.514
				c0-0.856,0.638-1.514,1.613-1.514S641.639,3.371,641.658,4.228z M638.532,16.673V6.936h3.026v9.737H638.532z"/>
			<path fill="#6F3A89" d="M652.095,14.323c0,0.916,0.04,1.812,0.159,2.35h-2.729l-0.179-0.976h-0.06
				c-0.638,0.776-1.633,1.194-2.788,1.194c-1.972,0-3.146-1.434-3.146-2.986c0-2.529,2.271-3.724,5.715-3.724v-0.12
				c0-0.537-0.278-1.274-1.771-1.274c-0.996,0-2.052,0.339-2.688,0.737l-0.558-1.952c0.677-0.378,2.011-0.876,3.783-0.876
				c3.246,0,4.262,1.912,4.262,4.222V14.323z M649.167,12.073c-1.593,0-2.827,0.378-2.827,1.533c0,0.776,0.518,1.154,1.194,1.154
				c0.737,0,1.374-0.497,1.573-1.114c0.04-0.159,0.06-0.339,0.06-0.519V12.073z"/>
			<path fill="#6F3A89" d="M667.97,2.535v11.23c0,1.095,0.04,2.25,0.08,2.907h-2.688l-0.12-1.414h-0.06
				c-0.597,1.075-1.792,1.633-3.046,1.633c-2.311,0-4.162-1.971-4.162-4.998c-0.021-3.285,2.031-5.197,4.36-5.197
				c1.215,0,2.131,0.438,2.569,1.096h0.04V2.535H667.97z M664.943,11.058c0-0.159,0-0.379-0.04-0.558
				c-0.18-0.797-0.837-1.474-1.772-1.474c-1.394,0-2.091,1.234-2.091,2.768c0,1.653,0.816,2.688,2.071,2.688
				c0.876,0,1.593-0.598,1.771-1.453c0.04-0.22,0.061-0.458,0.061-0.697V11.058z"/>
			<path fill="#6F3A89" d="M672.733,12.77c0.079,1.255,1.334,1.853,2.747,1.853c1.036,0,1.872-0.14,2.688-0.418l0.398,2.051
				c-0.996,0.418-2.21,0.617-3.524,0.617c-3.306,0-5.197-1.912-5.197-4.958c0-2.47,1.533-5.197,4.918-5.197
				c3.146,0,4.342,2.449,4.342,4.858c0,0.518-0.061,0.976-0.1,1.194H672.733z M676.297,10.699c0-0.737-0.318-1.972-1.712-1.972
				c-1.274,0-1.792,1.175-1.872,1.972H676.297z"/>
			<path fill="#6F3A89" d="M693.049,14.323c0,0.916,0.04,1.812,0.159,2.35h-2.729l-0.179-0.976h-0.06
				c-0.638,0.776-1.633,1.194-2.788,1.194c-1.972,0-3.146-1.434-3.146-2.986c0-2.529,2.271-3.724,5.715-3.724v-0.12
				c0-0.537-0.278-1.274-1.771-1.274c-0.996,0-2.052,0.339-2.688,0.737l-0.558-1.952c0.677-0.378,2.011-0.876,3.783-0.876
				c3.246,0,4.262,1.912,4.262,4.222V14.323z M690.121,12.073c-1.593,0-2.827,0.378-2.827,1.533c0,0.776,0.518,1.154,1.194,1.154
				c0.737,0,1.374-0.497,1.573-1.114c0.04-0.159,0.06-0.339,0.06-0.519V12.073z"/>
			<path fill="#6F3A89" d="M698.687,4.307v2.629h2.171v2.23h-2.171v3.524c0,1.175,0.299,1.712,1.195,1.712
				c0.418,0,0.617-0.02,0.896-0.079l0.021,2.29c-0.379,0.14-1.115,0.259-1.952,0.259c-0.976,0-1.792-0.339-2.29-0.836
				c-0.558-0.578-0.836-1.514-0.836-2.888V9.166h-1.294v-2.23h1.294V5.123L698.687,4.307z"/>
			<path fill="#6F3A89" d="M704.843,12.77c0.079,1.255,1.334,1.853,2.747,1.853c1.036,0,1.872-0.14,2.688-0.418l0.398,2.051
				c-0.996,0.418-2.21,0.617-3.524,0.617c-3.306,0-5.197-1.912-5.197-4.958c0-2.47,1.533-5.197,4.918-5.197
				c3.146,0,4.342,2.449,4.342,4.858c0,0.518-0.061,0.976-0.1,1.194H704.843z M708.406,10.699c0-0.737-0.318-1.972-1.712-1.972
				c-1.274,0-1.792,1.175-1.872,1.972H708.406z"/>
			<path fill="#6F3A89" d="M713.03,10.042c0-1.215-0.04-2.23-0.08-3.106h2.629l0.14,1.354h0.06c0.398-0.638,1.374-1.573,3.007-1.573
				c1.991,0,3.484,1.334,3.484,4.201v5.755h-3.026v-5.396c0-1.254-0.438-2.11-1.533-2.11c-0.837,0-1.335,0.577-1.554,1.135
				c-0.079,0.199-0.1,0.478-0.1,0.757v5.615h-3.026V10.042z"/>
			<path fill="#6F3A89" d="M732.011,16.414c-0.537,0.259-1.553,0.458-2.708,0.458c-3.146,0-5.157-1.932-5.157-4.979
				c0-2.848,1.951-5.177,5.575-5.177c0.797,0,1.673,0.139,2.311,0.378l-0.479,2.25c-0.358-0.159-0.896-0.299-1.692-0.299
				c-1.593,0-2.629,1.136-2.608,2.729c0,1.772,1.194,2.728,2.668,2.728c0.717,0,1.274-0.119,1.732-0.318L732.011,16.414z"/>
			<path fill="#6F3A89" d="M736.812,4.228c0,0.836-0.617,1.514-1.633,1.514c-0.956,0-1.573-0.678-1.573-1.514
				c0-0.856,0.638-1.514,1.613-1.514S736.793,3.371,736.812,4.228z M733.687,16.673V6.936h3.026v9.737H733.687z"/>
			<path fill="#6F3A89" d="M748.762,11.694c0,3.564-2.528,5.197-5.137,5.197c-2.848,0-5.038-1.871-5.038-5.018
				c0-3.166,2.071-5.178,5.217-5.178C746.771,6.696,748.762,8.748,748.762,11.694z M741.713,11.794c0,1.673,0.697,2.928,1.991,2.928
				c1.195,0,1.932-1.175,1.932-2.947c0-1.434-0.558-2.907-1.932-2.907C742.271,8.867,741.713,10.36,741.713,11.794z M746.831,2.694
				l-2.43,3.026h-2.071l1.713-3.026H746.831z"/>
			<path fill="#6F3A89" d="M750.638,10.042c0-1.215-0.04-2.23-0.08-3.106h2.629l0.14,1.354h0.06
				c0.398-0.638,1.374-1.573,3.007-1.573c1.991,0,3.484,1.334,3.484,4.201v5.755h-3.026v-5.396c0-1.254-0.438-2.11-1.533-2.11
				c-0.837,0-1.335,0.577-1.554,1.135c-0.079,0.199-0.1,0.478-0.1,0.757v5.615h-3.026V10.042z"/>
			<path fill="#6F3A89" d="M766.334,10.201c0-1.274-0.04-2.35-0.08-3.266h2.629l0.14,1.354h0.039
				c0.717-1.016,1.832-1.573,3.246-1.573c2.131,0,4.042,1.852,4.042,4.958c0,3.544-2.25,5.217-4.42,5.217
				c-1.175,0-2.091-0.478-2.529-1.115h-0.04v4.839h-3.026V10.201z M769.36,12.491c0,0.239,0.021,0.438,0.06,0.637
				c0.199,0.816,0.896,1.435,1.772,1.435c1.314,0,2.091-1.096,2.091-2.748c0-1.554-0.697-2.729-2.051-2.729
				c-0.856,0-1.613,0.638-1.812,1.533c-0.039,0.159-0.06,0.358-0.06,0.538V12.491z"/>
			<path fill="#6F3A89" d="M778.225,14.044c0.558,0.339,1.713,0.717,2.609,0.717c0.916,0,1.294-0.298,1.294-0.796
				c0-0.518-0.299-0.757-1.414-1.135c-2.031-0.678-2.808-1.772-2.787-2.928c0-1.832,1.553-3.206,3.962-3.206
				c1.136,0,2.131,0.279,2.729,0.578L784.1,9.365c-0.438-0.239-1.295-0.558-2.111-0.558c-0.736,0-1.154,0.299-1.154,0.776
				s0.378,0.717,1.572,1.135c1.853,0.638,2.609,1.593,2.629,3.007c0,1.832-1.414,3.166-4.201,3.166c-1.274,0-2.41-0.299-3.146-0.696
				L778.225,14.044z"/>
			<path fill="#6F3A89" d="M790.016,4.228c0,0.836-0.617,1.514-1.633,1.514c-0.956,0-1.573-0.678-1.573-1.514
				c0-0.856,0.638-1.514,1.613-1.514S789.996,3.371,790.016,4.228z M786.89,16.673V6.936h3.026v9.737H786.89z"/>
			<path fill="#6F3A89" d="M799.655,16.414c-0.537,0.259-1.553,0.458-2.708,0.458c-3.146,0-5.157-1.932-5.157-4.979
				c0-2.848,1.951-5.177,5.575-5.177c0.797,0,1.673,0.139,2.311,0.378l-0.479,2.25c-0.358-0.159-0.896-0.299-1.692-0.299
				c-1.593,0-2.629,1.136-2.608,2.729c0,1.772,1.194,2.728,2.668,2.728c0.717,0,1.274-0.119,1.732-0.318L799.655,16.414z"/>
			<path fill="#6F3A89" d="M810.73,11.694c0,3.564-2.529,5.197-5.138,5.197c-2.848,0-5.038-1.871-5.038-5.018
				c0-3.166,2.071-5.178,5.217-5.178C808.738,6.696,810.73,8.748,810.73,11.694z M803.681,11.794c0,1.673,0.697,2.928,1.991,2.928
				c1.195,0,1.932-1.175,1.932-2.947c0-1.434-0.558-2.907-1.932-2.907C804.238,8.867,803.681,10.36,803.681,11.794z"/>
			<path fill="#6F3A89" d="M812.585,14.044c0.558,0.339,1.713,0.717,2.609,0.717c0.916,0,1.294-0.298,1.294-0.796
				c0-0.518-0.299-0.757-1.414-1.135c-2.031-0.678-2.808-1.772-2.787-2.928c0-1.832,1.553-3.206,3.962-3.206
				c1.136,0,2.131,0.279,2.729,0.578l-0.518,2.091c-0.438-0.239-1.295-0.558-2.111-0.558c-0.736,0-1.154,0.299-1.154,0.776
				s0.378,0.717,1.572,1.135c1.853,0.638,2.609,1.593,2.629,3.007c0,1.832-1.414,3.166-4.201,3.166c-1.274,0-2.41-0.299-3.146-0.696
				L812.585,14.044z"/>
			<path fill="#6F3A89" d="M830.867,11.694c0,3.564-2.528,5.197-5.137,5.197c-2.848,0-5.038-1.871-5.038-5.018
				c0-3.166,2.071-5.178,5.217-5.178C828.876,6.696,830.867,8.748,830.867,11.694z M823.818,11.794c0,1.673,0.697,2.928,1.991,2.928
				c1.195,0,1.932-1.175,1.932-2.947c0-1.434-0.558-2.907-1.932-2.907C824.376,8.867,823.818,10.36,823.818,11.794z"/>
			<path fill="#6F3A89" d="M840.111,16.414c-0.537,0.259-1.553,0.458-2.708,0.458c-3.146,0-5.157-1.932-5.157-4.979
				c0-2.848,1.951-5.177,5.575-5.177c0.797,0,1.673,0.139,2.311,0.378l-0.479,2.25c-0.358-0.159-0.896-0.299-1.692-0.299
				c-1.593,0-2.629,1.136-2.608,2.729c0,1.772,1.194,2.728,2.668,2.728c0.717,0,1.274-0.119,1.732-0.318L840.111,16.414z"/>
			<path fill="#6F3A89" d="M844.913,4.228c0,0.836-0.617,1.514-1.633,1.514c-0.956,0-1.573-0.678-1.573-1.514
				c0-0.856,0.638-1.514,1.613-1.514S844.894,3.371,844.913,4.228z M841.787,16.673V6.936h3.026v9.737H841.787z"/>
			<path fill="#6F3A89" d="M855.349,14.323c0,0.916,0.04,1.812,0.159,2.35h-2.729l-0.179-0.976h-0.06
				c-0.638,0.776-1.633,1.194-2.788,1.194c-1.972,0-3.146-1.434-3.146-2.986c0-2.529,2.271-3.724,5.715-3.724v-0.12
				c0-0.537-0.278-1.274-1.771-1.274c-0.996,0-2.052,0.339-2.688,0.737l-0.558-1.952c0.677-0.378,2.011-0.876,3.783-0.876
				c3.246,0,4.262,1.912,4.262,4.222V14.323z M852.421,12.073c-1.593,0-2.827,0.378-2.827,1.533c0,0.776,0.518,1.154,1.194,1.154
				c0.737,0,1.374-0.497,1.573-1.114c0.04-0.159,0.06-0.339,0.06-0.519V12.073z"/>
			<path fill="#6F3A89" d="M857.762,2.535h3.026v14.138h-3.026V2.535z"/>
		</g>
	</g>
	<g>
		<rect y="89.152" fill="#81AD38" width="37.461" height="46.847"/>
		<rect y="145.824" fill="#81AD38" width="37.46" height="46.847"/>
		<g>
			<path fill="#FFFFFF" d="M18.214,103.201h-0.091l-5.134,2.789l-0.771-3.063l6.45-3.476h3.407v29.725h-3.861V103.201z"/>
		</g>
		<g>
			<path fill="#FFFFFF" d="M9.295,185.848v-2.47l3.135-3.063c7.54-7.226,10.993-11.067,10.993-15.549
				c0-3.018-1.408-5.808-5.814-5.808c-2.681,0-4.906,1.372-6.27,2.516l-1.271-2.836c1.999-1.691,4.951-3.018,8.312-3.018
				c6.36,0,9.04,4.39,9.04,8.643c0,5.487-3.952,9.924-10.176,15.96l-2.316,2.195v0.092h13.219v3.338H9.295z"/>
		</g>
		<rect y="202.567" fill="#81AD38" width="37.462" height="46.846"/>
		<g>
			<path fill="#FFFFFF" d="M10.251,238.019c1.136,0.687,3.725,1.829,6.541,1.829c5.088,0,6.724-3.246,6.678-5.762
				c-0.045-4.161-3.771-5.945-7.632-5.945h-2.226v-3.018h2.226c2.907,0,6.587-1.51,6.587-5.03c0-2.378-1.499-4.482-5.179-4.482
				c-2.361,0-4.633,1.052-5.905,1.967l-1.09-2.927c1.59-1.144,4.588-2.286,7.768-2.286c5.814,0,8.449,3.476,8.449,7.088
				c0,3.109-1.862,5.716-5.451,7.042v0.092c3.634,0.687,6.541,3.43,6.587,7.592c0,4.756-3.725,8.917-10.766,8.917
				c-3.316,0-6.224-1.052-7.677-2.012L10.251,238.019z"/>
		</g>
		<rect y="259.42" fill="#81AD38" width="37.462" height="46.846"/>
		<g>
			<path fill="#FFFFFF" d="M21.652,299.444v-8.14H7.935v-2.607l13.173-18.978h4.315v18.475h4.134v3.11h-4.134v8.14H21.652z
				 M21.652,288.194v-9.923c0-1.556,0.046-3.11,0.137-4.665h-0.137c-0.908,1.738-1.635,3.019-2.452,4.391l-7.223,10.106v0.091
				H21.652z"/>
		</g>
		<rect y="316.264" fill="#81AD38" width="37.462" height="46.846"/>
		<g>
			<path fill="#FFFFFF" d="M26.922,329.947H15.656l-1.135,7.637c0.681-0.091,1.316-0.137,2.407-0.137
				c2.316,0,4.542,0.457,6.359,1.601c2.316,1.28,4.225,3.887,4.225,7.591c0,5.808-4.588,10.152-10.993,10.152
				c-3.225,0-5.905-0.914-7.358-1.829l0.999-3.064c1.227,0.732,3.634,1.646,6.359,1.646c3.725,0,6.996-2.469,6.95-6.447
				c0-3.842-2.589-6.54-8.449-6.54c-1.726,0-3.043,0.138-4.134,0.274l1.908-14.268h14.127V329.947z"/>
		</g>
	</g>
</g>
</svg>
