<?xml version="1.0" encoding="utf-8"?>
<!-- Generator: Adobe Illustrator 16.0.0, SVG Export Plug-In . SVG Version: 6.00 Build 0)  -->
<!DOCTYPE svg PUBLIC "-//W3C//DTD SVG 1.1//EN" "http://www.w3.org/Graphics/SVG/1.1/DTD/svg11.dtd">
<svg version="1.1" id="Capa_1" xmlns="http://www.w3.org/2000/svg" xmlns:xlink="http://www.w3.org/1999/xlink" x="0px" y="0px"
	 width="413.241px" height="394.646px" viewBox="0 0 413.241 394.646" enable-background="new 0 0 413.241 394.646"
	 xml:space="preserve">
<g>
	<g>
		<g>
			<path fill="#2B1C48" d="M267.2,2.995v3.163l-5.944-0.168v4.207l5.343-0.102l0.135,3.04h-4.771v5.531l-4.169-0.146
				c0.111-2.102,0.166-4.218,0.166-6.35c0-2.953-0.105-5.934-0.316-8.94C259.911,3.156,263.097,3.077,267.2,2.995z"/>
			<path fill="#2B1C48" d="M280.925,2.938v11.095c0,3.418-2.098,5.127-6.291,5.127h-0.331c-3.511-0.299-5.327-1.731-5.447-4.297
				c0-5.122-0.07-9.161-0.211-12.115h4.003c-0.1,1.69-0.15,3.676-0.15,5.957c0,1.601,0.025,3.351,0.075,5.25
				c0.021,1.391,0.692,2.087,2.017,2.087c0,0.007,0.005,0.011,0.016,0.011c1.313,0,1.971-0.89,1.971-2.67L276.5,3.04L280.925,2.938z
				"/>
			<path fill="#2B1C48" d="M282.43,19.06c0.12-2.559,0.181-5.049,0.181-7.472c0-2.797-0.08-5.508-0.241-8.133l4.425-0.157
				l4.062,8.447c-0.04-2.901-0.15-5.871-0.33-8.907l4.649-0.045c-0.462,4.585-0.692,9.214-0.692,13.888
				c0,0.629,0.005,1.257,0.016,1.885l-4.078,0.033l-4.334-9.041c0.13,3.336,0.25,6.436,0.36,9.3L282.43,19.06z"/>
			<path fill="#2B1C48" d="M296.62,18.958c0.021-2.52,0.03-5.115,0.03-7.785c0-2.678-0.01-5.426-0.03-8.245
				c1.154-0.104,2.218-0.157,3.19-0.157c2.709,0,4.706,0.404,5.989,1.212c1.746,1.106,2.659,3.152,2.739,6.136v0.808
				c0,2.558-0.331,4.383-0.993,5.475c-0.732,1.204-2.072,2.005-4.018,2.4c-1.124,0.232-2.358,0.349-3.702,0.349
				C298.822,19.149,297.754,19.085,296.62,18.958z M300.353,6.136c-0.171,2.461-0.256,4.839-0.256,7.135
				c0,0.867,0.01,1.721,0.03,2.558c0.351,0.06,0.687,0.09,1.009,0.09c0.882,0,1.625-0.228,2.227-0.685
				c0.822-0.613,1.234-1.988,1.234-4.128v-0.045c-0.01-2.153-0.412-3.567-1.204-4.24c-0.612-0.509-1.339-0.763-2.183-0.763
				C300.939,6.058,300.653,6.084,300.353,6.136z"/>
			<path fill="#2B1C48" d="M308.795,18.936c1.886-6.387,3.411-11.801,4.575-16.243l5.643-0.067
				c1.385,4.622,2.971,9.887,4.756,15.795l-3.853,0.583l-1.219-4.252h-4.681l-1.264,4.589L308.795,18.936z M318.577,11.599
				c-0.522-1.615-1.375-3.548-2.559-5.799c-0.913,1.892-1.686,3.852-2.317,5.878L318.577,11.599z"/>
			<path fill="#2B1C48" d="M329.473,2.748l3.506,11.622l2.573-10.77l6.862,0.057c-0.12,2.43-0.181,4.883-0.181,7.358
				c0,2.76,0.076,5.553,0.227,8.38l-4.38,0.225c0-2.977-0.045-6.615-0.136-10.915l-2.452,9.86l-4.665,0.235l-3.01-10.634
				l-0.061,10.769l-3.672,0.19c0.07-2.46,0.105-4.902,0.105-7.325c0-3.021-0.056-6.005-0.166-8.952L329.473,2.748z"/>
			<path fill="#2B1C48" d="M353.46,3.23v3.163l-5.944-0.179v3.679l5.343-0.111l0.135,3.04h-4.771v2.849h6.245v3.187l-10.413-0.112
				c0.11-2.102,0.165-4.218,0.165-6.35c0-2.954-0.105-5.934-0.315-8.94C346.171,3.388,349.356,3.313,353.46,3.23z"/>
			<path fill="#2B1C48" d="M355.974,19.06c0.12-2.559,0.18-5.049,0.18-7.472c0-2.797-0.08-5.508-0.24-8.133l4.424-0.157l4.063,8.447
				c-0.04-2.901-0.15-5.871-0.331-8.907l4.65-0.045c-0.462,4.585-0.692,9.214-0.692,13.888c0,0.629,0.005,1.257,0.015,1.885
				l-4.078,0.033l-4.334-9.041c0.131,3.336,0.251,6.436,0.361,9.3L355.974,19.06z"/>
			<path fill="#2B1C48" d="M370.164,6.125v-2.95c1.475,0.029,2.935,0.045,4.38,0.045c2.247,0,4.449-0.034,6.605-0.102l0.136,3.142
				h-3.792c0,5.317,0.075,9.535,0.226,12.653l-4.243,0.157c0.22-5.31,0.381-9.64,0.48-12.99L370.164,6.125z"/>
			<path fill="#2B1C48" d="M389.638,2.849c4.224,0,6.336,2.693,6.336,8.077c0,5.393-2.263,8.089-6.787,8.089
				c-4.525,0-6.787-2.794-6.787-8.38C382.399,5.444,384.812,2.849,389.638,2.849z M386.628,11.229
				c-0.01,0.194-0.016,0.381-0.016,0.561c0,2.819,0.883,4.229,2.649,4.229c1.876,0,2.813-1.596,2.813-4.789
				s-0.873-4.791-2.618-4.791C387.701,6.438,386.758,8.036,386.628,11.229z"/>
			<path fill="#2B1C48" d="M397.117,13.113l4.47-0.224c-0.061,0.463-0.091,0.882-0.091,1.256c0,1.698,0.567,2.547,1.7,2.547h0.061
				c1.375-0.03,2.062-0.576,2.062-1.639v-0.101c-0.05-1.129-1.349-2.235-3.897-3.32c-2.479-1.047-3.717-2.774-3.717-5.183
				c0-0.074,0.005-0.149,0.015-0.225c0.07-2.52,1.967-3.803,5.688-3.848h0.121c3.36,0,5.041,1.597,5.041,4.79
				c0,0.255-0.01,0.523-0.03,0.808l-3.928,0.168c0.04-0.336,0.061-0.646,0.061-0.931c0-1.339-0.437-2.008-1.31-2.008
				c-1.054,0-1.631,0.399-1.73,1.2c-0.01,0.112-0.016,0.225-0.016,0.336c0,0.666,0.266,1.287,0.798,1.863
				c0.612,0.665,1.663,1.274,3.153,1.828c1.489,0.554,2.53,1.312,3.122,2.277c0.422,0.695,0.632,1.436,0.632,2.221
				c0,0.299-0.029,0.605-0.09,0.92c-0.23,1.129-0.873,2.066-1.926,2.811c-1.054,0.744-2.469,1.149-4.244,1.217
				c-0.121,0.008-0.241,0.012-0.361,0.012c-1.615,0-2.965-0.441-4.048-1.324c-1.044-0.845-1.565-2.382-1.565-4.61
				C397.087,13.686,397.097,13.405,397.117,13.113z"/>
			<path fill="#2B1C48" d="M265.974,38.795l-3.341,0.011v-0.303c0-1.757-0.662-2.636-1.986-2.636c-1.415,0-2.122,1.623-2.122,4.868
				c0,3.657,0.742,5.486,2.227,5.486h0.016c1.484-0.008,2.228-0.905,2.228-2.692v-1.11h3.731v0.841c0,3.725-2.052,5.673-6.154,5.845
				c-0.121,0.008-0.241,0.011-0.361,0.011c-3.863,0-5.794-2.767-5.794-8.301c0-5.415,1.986-8.122,5.959-8.122
				c3.742,0,5.613,1.811,5.613,5.43C265.988,38.339,265.983,38.563,265.974,38.795z"/>
			<path fill="#2B1C48" d="M274.642,32.67c4.224,0,6.336,2.692,6.336,8.077c0,5.392-2.263,8.088-6.787,8.088
				c-4.525,0-6.787-2.793-6.787-8.38C267.403,35.265,269.815,32.67,274.642,32.67z M271.632,41.05
				c-0.01,0.194-0.015,0.381-0.015,0.561c0,2.82,0.882,4.229,2.648,4.229c1.876,0,2.813-1.597,2.813-4.79s-0.872-4.79-2.618-4.79
				C272.705,36.26,271.763,37.856,271.632,41.05z"/>
			<path fill="#2B1C48" d="M282.121,48.88c0.12-2.558,0.181-5.048,0.181-7.471c0-2.797-0.08-5.509-0.241-8.134l4.425-0.157
				l4.062,8.447c-0.04-2.901-0.15-5.87-0.33-8.906l4.649-0.045c-0.462,4.584-0.692,9.213-0.692,13.888
				c0,0.628,0.005,1.256,0.016,1.884l-4.078,0.034l-4.334-9.042c0.13,3.336,0.25,6.436,0.36,9.3L282.121,48.88z"/>
			<path fill="#2B1C48" d="M307.869,38.795l-3.341,0.011v-0.303c0-1.757-0.662-2.636-1.986-2.636c-1.414,0-2.121,1.623-2.121,4.868
				c0,3.657,0.742,5.486,2.227,5.486h0.016c1.484-0.008,2.227-0.905,2.227-2.692v-1.11h3.732v0.841c0,3.725-2.052,5.673-6.155,5.845
				c-0.12,0.008-0.241,0.011-0.361,0.011c-3.862,0-5.794-2.767-5.794-8.301c0-5.415,1.986-8.122,5.96-8.122
				c3.741,0,5.613,1.811,5.613,5.43C307.885,38.339,307.88,38.563,307.869,38.795z"/>
			<path fill="#2B1C48" d="M319.187,33.052v3.163l-5.944-0.18v3.68l5.343-0.112l0.135,3.04h-4.771v2.85h6.245v3.186l-10.414-0.112
				c0.111-2.102,0.166-4.218,0.166-6.349c0-2.954-0.105-5.935-0.316-8.941C311.897,33.208,315.083,33.134,319.187,33.052z"/>
			<path fill="#2B1C48" d="M321.76,48.868c0.06-1.967,0.091-3.979,0.091-6.035c0-3.155-0.07-6.424-0.211-9.804
				c1.715-0.18,3.23-0.27,4.545-0.27c2.066,0,3.621,0.225,4.665,0.673c1.614,0.695,2.423,2.12,2.423,4.274v0.37
				c-0.101,2.363-0.818,3.876-2.152,4.537c-1.334,0.662-2.979,1.016-4.936,1.061c-0.011,0.232-0.016,0.471-0.016,0.718
				c0,1.241,0.085,2.711,0.256,4.409L321.76,48.868z M325.612,35.632l0.105,5.485c1.866-0.075,2.959-0.572,3.28-1.492
				c0.15-0.419,0.226-0.849,0.226-1.29c0-0.516-0.1-1.047-0.301-1.593c-0.301-0.8-1.053-1.2-2.257-1.2
				C326.345,35.542,325.993,35.571,325.612,35.632z"/>
			<path fill="#2B1C48" d="M334.867,35.945v-2.95c1.475,0.03,2.935,0.045,4.379,0.045c2.247,0,4.449-0.033,6.606-0.101l0.136,3.141
				h-3.792c0,5.317,0.075,9.535,0.226,12.654l-4.244,0.157c0.221-5.311,0.382-9.641,0.481-12.991L334.867,35.945z"/>
			<path fill="#2B1C48" d="M359.713,32.76v11.095c0,3.418-2.097,5.127-6.29,5.127h-0.332c-3.511-0.3-5.326-1.732-5.447-4.297
				c0-5.123-0.07-9.161-0.211-12.115h4.004c-0.101,1.689-0.15,3.676-0.15,5.956c0,1.601,0.024,3.351,0.074,5.25
				c0.021,1.392,0.692,2.087,2.018,2.087c0,0.008,0.004,0.012,0.015,0.012c1.313,0,1.972-0.891,1.972-2.67l-0.076-10.344
				L359.713,32.76z"/>
			<path fill="#2B1C48" d="M360.164,48.757c1.887-6.387,3.411-11.802,4.575-16.244l5.644-0.067c1.384,4.622,2.97,9.888,4.755,15.795
				l-3.852,0.583l-1.22-4.251h-4.68l-1.265,4.588L360.164,48.757z M369.946,41.42c-0.521-1.615-1.375-3.549-2.559-5.8
				c-0.913,1.893-1.686,3.852-2.317,5.879L369.946,41.42z"/>
			<path fill="#2B1C48" d="M380.134,32.333c-0.18,3.896-0.271,7.236-0.271,10.018c0,1.107,0.015,2.128,0.045,3.062l6.712-0.246
				l0.105,3.656l-10.745,0.18c0.01-0.986,0.015-1.971,0.015-2.95c0-4.494-0.13-8.967-0.391-13.417L380.134,32.333z"/>
			<path fill="#2B1C48" d="M397.831,33.052v3.163l-5.943-0.18v3.68l5.342-0.112l0.136,3.04h-4.771v2.85h6.245v3.186l-10.414-0.112
				c0.11-2.102,0.166-4.218,0.166-6.349c0-2.954-0.105-5.935-0.316-8.941C390.543,33.208,393.729,33.134,397.831,33.052z"/>
			<path fill="#2B1C48" d="M400.345,42.935l4.47-0.225c-0.061,0.464-0.091,0.883-0.091,1.257c0,1.697,0.567,2.546,1.701,2.546h0.06
				c1.375-0.029,2.062-0.576,2.062-1.638v-0.101c-0.05-1.129-1.349-2.236-3.897-3.32c-2.478-1.047-3.717-2.775-3.717-5.184
				c0-0.074,0.005-0.149,0.015-0.224c0.07-2.521,1.967-3.804,5.689-3.849h0.12c3.36,0,5.041,1.598,5.041,4.791
				c0,0.254-0.01,0.523-0.03,0.808l-3.928,0.168c0.04-0.337,0.061-0.646,0.061-0.931c0-1.339-0.437-2.009-1.31-2.009
				c-1.054,0-1.63,0.4-1.73,1.2c-0.01,0.112-0.015,0.225-0.015,0.337c0,0.666,0.266,1.286,0.797,1.862
				c0.612,0.666,1.663,1.275,3.153,1.828c1.489,0.554,2.53,1.312,3.122,2.277c0.422,0.695,0.633,1.437,0.633,2.222
				c0,0.299-0.03,0.605-0.091,0.92c-0.23,1.129-0.872,2.065-1.926,2.81s-2.468,1.15-4.244,1.217
				c-0.12,0.008-0.241,0.012-0.361,0.012c-1.615,0-2.964-0.441-4.048-1.324c-1.044-0.845-1.565-2.381-1.565-4.61
				C400.314,43.507,400.324,43.226,400.345,42.935z"/>
			<path fill="#2B1C48" d="M272.565,78.6c0.02-2.521,0.029-5.115,0.029-7.785c0-2.678-0.01-5.426-0.029-8.245
				c1.153-0.105,2.217-0.157,3.189-0.157c2.709,0,4.706,0.403,5.99,1.212c1.746,1.106,2.658,3.152,2.738,6.136v0.808
				c0,2.558-0.33,4.383-0.992,5.475c-0.733,1.204-2.072,2.004-4.019,2.4c-1.124,0.232-2.358,0.348-3.702,0.348
				C274.767,78.79,273.698,78.727,272.565,78.6z M276.298,65.777c-0.172,2.461-0.256,4.839-0.256,7.135
				c0,0.867,0.01,1.72,0.029,2.558c0.352,0.06,0.688,0.09,1.009,0.09c0.882,0,1.625-0.229,2.228-0.685
				c0.822-0.613,1.233-1.989,1.233-4.128v-0.045c-0.01-2.154-0.411-3.567-1.204-4.24c-0.611-0.509-1.339-0.764-2.182-0.764
				C276.884,65.698,276.599,65.726,276.298,65.777z"/>
			<path fill="#2B1C48" d="M295.289,62.872v3.163l-5.944-0.179v3.679l5.342-0.112l0.136,3.041h-4.771v2.849h6.245v3.187
				l-10.413-0.113c0.109-2.101,0.165-4.217,0.165-6.349c0-2.954-0.105-5.935-0.315-8.94C288,63.029,291.186,62.954,295.289,62.872z"
				/>
			<path fill="#2B1C48" d="M302.271,62.154c-0.181,3.896-0.271,7.235-0.271,10.018c0,1.106,0.015,2.128,0.045,3.062l6.712-0.247
				l0.105,3.657l-10.745,0.179c0.01-0.986,0.015-1.97,0.015-2.949c0-4.495-0.13-8.967-0.391-13.417L302.271,62.154z"/>
			<path fill="#2B1C48" d="M316.146,78.689c0.061-1.967,0.091-3.979,0.091-6.035c0-3.156-0.07-6.425-0.211-9.805
				c1.716-0.18,3.23-0.27,4.545-0.27c2.066,0,3.621,0.225,4.665,0.673c1.615,0.695,2.423,2.121,2.423,4.274v0.37
				c-0.101,2.363-0.818,3.876-2.152,4.538c-1.334,0.661-2.979,1.015-4.936,1.06c-0.01,0.232-0.016,0.472-0.016,0.719
				c0,1.241,0.086,2.711,0.256,4.408L316.146,78.689z M319.999,65.452l0.105,5.485c1.866-0.074,2.959-0.572,3.281-1.492
				c0.15-0.419,0.225-0.849,0.225-1.29c0-0.516-0.1-1.047-0.301-1.593c-0.301-0.8-1.053-1.2-2.257-1.2
				C320.731,65.362,320.38,65.393,319.999,65.452z"/>
			<path fill="#2B1C48" d="M328.261,78.577c1.887-6.387,3.411-11.801,4.575-16.244l5.644-0.066
				c1.384,4.621,2.969,9.887,4.755,15.795l-3.853,0.583l-1.219-4.252h-4.68l-1.265,4.589L328.261,78.577z M338.043,71.24
				c-0.522-1.615-1.375-3.548-2.559-5.8c-0.913,1.893-1.686,3.852-2.317,5.879L338.043,71.24z"/>
			<path fill="#2B1C48" d="M343.821,78.689c0.061-1.967,0.091-3.979,0.091-6.035c0-3.156-0.07-6.425-0.211-9.805
				c1.716-0.18,3.23-0.27,4.545-0.27c2.066,0,3.621,0.225,4.665,0.673c1.615,0.695,2.423,2.121,2.423,4.274v0.37
				c-0.101,2.363-0.817,3.876-2.152,4.538c-1.334,0.661-2.979,1.015-4.936,1.06c-0.011,0.232-0.016,0.472-0.016,0.719
				c0,1.241,0.085,2.711,0.256,4.408L343.821,78.689z M347.674,65.452l0.105,5.485c1.866-0.074,2.96-0.572,3.28-1.492
				c0.15-0.419,0.227-0.849,0.227-1.29c0-0.516-0.101-1.047-0.301-1.593c-0.302-0.8-1.054-1.2-2.258-1.2
				C348.406,65.362,348.056,65.393,347.674,65.452z"/>
			<path fill="#2B1C48" d="M356.989,72.755l4.47-0.225c-0.061,0.464-0.091,0.883-0.091,1.257c0,1.698,0.567,2.546,1.701,2.546h0.06
				c1.375-0.029,2.062-0.575,2.062-1.638v-0.101c-0.05-1.129-1.349-2.236-3.897-3.32c-2.478-1.047-3.717-2.774-3.717-5.183
				c0-0.075,0.005-0.149,0.015-0.225c0.07-2.521,1.967-3.803,5.689-3.848h0.12c3.36,0,5.041,1.597,5.041,4.79
				c0,0.254-0.01,0.523-0.03,0.808l-3.928,0.168c0.04-0.337,0.061-0.646,0.061-0.931c0-1.339-0.437-2.008-1.31-2.008
				c-1.054,0-1.63,0.399-1.73,1.2c-0.01,0.112-0.015,0.224-0.015,0.336c0,0.666,0.266,1.286,0.797,1.862
				c0.612,0.666,1.663,1.275,3.153,1.828c1.489,0.555,2.53,1.312,3.122,2.277c0.422,0.696,0.633,1.437,0.633,2.222
				c0,0.299-0.03,0.605-0.091,0.92c-0.23,1.129-0.872,2.065-1.926,2.81s-2.468,1.15-4.244,1.218
				c-0.12,0.007-0.241,0.011-0.361,0.011c-1.615,0-2.964-0.441-4.048-1.323c-1.044-0.845-1.565-2.382-1.565-4.61
				C356.959,73.327,356.969,73.047,356.989,72.755z"/>
			<path fill="#2B1C48" d="M374.717,78.162l-3.747,0.258c0-5.489-0.12-10.642-0.361-15.458l4.289-0.27
				C374.787,67.771,374.727,72.927,374.717,78.162z"/>
			<path fill="#2B1C48" d="M379.593,78.532c-1.225-5.041-2.674-10.31-4.35-15.807l4.395-0.336l2.573,12.295
				c1.314-4.301,2.388-8.193,3.221-11.678l4.169,0.381c-2.107,6.783-3.678,11.79-4.711,15.021L379.593,78.532z"/>
			<path fill="#2B1C48" d="M394.19,78.162l-3.748,0.258c0-5.489-0.12-10.642-0.36-15.458l4.288-0.27
				C394.261,67.771,394.2,72.927,394.19,78.162z"/>
		</g>
	</g>
	<g>
		<path fill="#6F3A89" d="M323.984,348.643c0,6.627-5.373,12-12,12H12c-6.629,0-12-5.373-12-12v-67.047c0-6.627,5.371-12,12-12
			h299.984c6.627,0,12,5.373,12,12V348.643z"/>
		<g id="OB1yQF_49_">
			<g>
				<g>
					<path fill-rule="evenodd" clip-rule="evenodd" fill="#3F2354" d="M340.054,375.172c-1.225,0.225-2.479,0.457-3.735,0.687
						c-7.808,1.417-15.608,2.831-23.415,4.259c-0.322,0.061-0.65,0.188-0.94,0.358c-7.758,4.625-15.515,9.259-23.27,13.89
						c-0.166,0.102-0.332,0.188-0.496,0.281c2.282-20.202,4.56-40.377,6.83-60.492C309.998,347.792,325.015,361.474,340.054,375.172
						z"/>
					<path fill-rule="evenodd" clip-rule="evenodd" fill="#3F2354" d="M319.944,351.797c-1.352-1.242-2.673-2.451-3.968-3.636
						c0.553-1.031,1.14-1.988,1.604-3c4.909-10.728,1.871-23.107-7.583-30.159c-11.154-8.323-26.531-5.914-34.508,5.058
						c-4.765,6.557-6.107,13.835-3.887,21.655c1.566,5.517,4.821,9.898,9.517,13.188c2.15,1.502,4.475,2.632,6.982,3.376
						c0.347,0.101,0.49,0.229,0.435,0.64c-0.217,1.652-0.387,3.31-0.575,4.97c-9.038-2.081-20.023-9.783-22.429-24.674
						c-2.205-13.657,5.455-27.077,18.201-32.238c13.13-5.314,27.936-1.066,36.047,10.413
						C328.204,329.31,325.962,343.336,319.944,351.797z"/>
					<path fill-rule="evenodd" clip-rule="evenodd" fill="#3F2354" d="M310.264,342.953c-1.332-1.228-2.629-2.418-3.913-3.629
						c-0.101-0.094-0.154-0.351-0.101-0.484c1.965-5.408-0.031-11.146-4.921-14.136c-5.389-3.288-12.491-1.683-15.975,3.61
						c-3.384,5.15-2.021,12.36,3.024,15.96c0.411,0.293,0.857,0.528,1.26,0.826c0.142,0.102,0.3,0.323,0.283,0.474
						c-0.176,1.692-0.386,3.38-0.592,5.068c-0.005,0.057-0.04,0.117-0.063,0.178c-5.548-1.989-11.03-7.694-11.188-15.703
						c-0.147-7.755,4.801-14.423,11.689-16.68c7.615-2.492,15.544,0.317,19.828,6.841
						C313.806,331.685,312.71,339.066,310.264,342.953z"/>
				</g>
			</g>
		</g>
		<g>
			<g>
				<path fill="#FFFFFF" d="M40.42,330.442c-2.558-10.53-5.586-21.537-9.086-33.021l9.181-0.703l5.376,25.686
					c2.745-8.982,4.988-17.115,6.728-24.396l8.709,0.797c-4.401,14.172-7.682,24.631-9.841,31.381L40.42,330.442z"/>
				<path fill="#FFFFFF" d="M82.297,297.726v6.609l-12.418-0.375v7.688l11.161-0.234l0.282,6.351h-9.966v5.952h13.047v6.656
					l-21.756-0.234c0.23-4.391,0.346-8.812,0.346-13.265c0-6.171-0.22-12.397-0.66-18.679
					C67.069,298.054,73.725,297.897,82.297,297.726z"/>
				<path fill="#FFFFFF" d="M87.674,331.146c0.126-4.469,0.188-8.968,0.188-13.499c0-6.937-0.146-13.944-0.44-21.022
					c3.249-0.249,6.162-0.375,8.74-0.375c7.168,0,11.737,0.977,13.708,2.93c1.844,1.828,2.767,3.844,2.767,6.047
					c0,1-0.179,2.031-0.535,3.094c-1.216,3.438-3.772,5.617-7.671,6.539c2.725,0.28,4.789,1.375,6.193,3.28
					c1.342,1.844,2.013,6.483,2.013,13.921v1.008l-9.495,0.094c0.104-1.969,0.157-3.734,0.157-5.297c0-4.734-0.514-7.632-1.54-8.694
					c-1.175-1.187-2.568-1.781-4.182-1.781c-0.314,0-0.64,0.023-0.975,0.07c0.126,4.766,0.397,9.28,0.817,13.546L87.674,331.146z
					 M95.722,302.085l0.221,10.031c3.898-0.141,6.371-1.125,7.42-2.953c0.565-0.969,0.849-1.914,0.849-2.836
					c0-0.797-0.21-1.578-0.629-2.344c-0.755-1.328-2.631-1.992-5.628-1.992C97.263,301.991,96.519,302.022,95.722,302.085z"/>
				<path fill="#FFFFFF" d="M138.228,296.718l7.325,24.28l5.376-22.499l14.336,0.117c-0.251,5.078-0.377,10.203-0.377,15.375
					c0,5.765,0.157,11.6,0.472,17.506l-9.148,0.469c0-6.219-0.095-13.818-0.283-22.803l-5.125,20.6l-9.746,0.492l-6.288-22.217
					l-0.125,22.498l-7.672,0.398c0.146-5.141,0.221-10.241,0.221-15.304c0-6.312-0.115-12.546-0.346-18.702L138.228,296.718z"/>
				<path fill="#FFFFFF" d="M166.303,330.536c3.939-13.343,7.125-24.654,9.557-33.936l11.79-0.141
					c2.893,9.656,6.204,20.656,9.935,32.998l-8.048,1.219l-2.547-8.882h-9.777l-2.642,9.585L166.303,330.536z M186.737,315.209
					c-1.09-3.374-2.871-7.413-5.344-12.116c-1.908,3.953-3.521,8.047-4.842,12.28L186.737,315.209z"/>
				<path fill="#FFFFFF" d="M198.811,330.771c0.126-4.109,0.188-8.312,0.188-12.608c0-6.593-0.146-13.421-0.44-20.483
					c3.584-0.375,6.749-0.562,9.495-0.562c4.317,0,7.565,0.469,9.746,1.406c3.374,1.453,5.062,4.43,5.062,8.93v0.773
					c-0.21,4.938-1.708,8.097-4.496,9.479c-2.787,1.383-6.225,2.121-10.312,2.215c-0.021,0.484-0.031,0.984-0.031,1.5
					c0,2.593,0.178,5.663,0.534,9.21L198.811,330.771z M206.858,303.116l0.221,11.461c3.898-0.156,6.183-1.195,6.854-3.117
					c0.314-0.875,0.472-1.773,0.472-2.695c0-1.078-0.21-2.188-0.629-3.328c-0.629-1.672-2.2-2.508-4.716-2.508
					C208.389,302.929,207.655,302.991,206.858,303.116z"/>
				<path fill="#FFFFFF" d="M224.12,330.536c3.939-13.343,7.125-24.654,9.557-33.936l11.79-0.141
					c2.893,9.656,6.204,20.656,9.935,32.998l-8.048,1.219l-2.547-8.882h-9.777l-2.642,9.585L224.12,330.536z M244.555,315.209
					c-1.09-3.374-2.871-7.413-5.344-12.116c-1.908,3.953-3.521,8.047-4.842,12.28L244.555,315.209z"/>
			</g>
		</g>
	</g>
</g>
</svg>
