<?xml version="1.0" encoding="utf-8"?>
<!-- Generator: Adobe Illustrator 16.0.0, SVG Export Plug-In . SVG Version: 6.00 Build 0)  -->
<!DOCTYPE svg PUBLIC "-//W3C//DTD SVG 1.1//EN" "http://www.w3.org/Graphics/SVG/1.1/DTD/svg11.dtd">
<svg version="1.1" id="Capa_1" xmlns="http://www.w3.org/2000/svg" xmlns:xlink="http://www.w3.org/1999/xlink" x="0px" y="0px"
	 width="166.904px" height="39.24px" viewBox="0 0 166.904 39.24" enable-background="new 0 0 166.904 39.24" xml:space="preserve">
<g>
	<g>
		<path d="M27.958,13.811l1.287-0.113c0.061,0.517,0.203,0.939,0.426,1.27c0.223,0.331,0.568,0.599,1.037,0.803
			c0.469,0.203,0.997,0.306,1.583,0.306c0.521,0,0.98-0.077,1.379-0.232c0.398-0.154,0.695-0.366,0.89-0.637
			c0.194-0.27,0.292-0.563,0.292-0.883c0-0.323-0.094-0.605-0.281-0.847c-0.188-0.242-0.497-0.444-0.929-0.608
			c-0.277-0.108-0.889-0.275-1.835-0.503c-0.947-0.228-1.611-0.442-1.991-0.644c-0.492-0.258-0.859-0.578-1.101-0.96
			c-0.242-0.383-0.362-0.811-0.362-1.284c0-0.521,0.147-1.007,0.443-1.459c0.295-0.453,0.727-0.796,1.294-1.031
			c0.567-0.234,1.198-0.352,1.892-0.352c0.764,0,1.438,0.123,2.022,0.369c0.584,0.247,1.033,0.608,1.347,1.087
			c0.314,0.479,0.483,1.021,0.507,1.625l-1.309,0.099c-0.07-0.652-0.308-1.145-0.714-1.478c-0.405-0.333-1.004-0.499-1.797-0.499
			c-0.825,0-1.427,0.151-1.804,0.454c-0.377,0.302-0.566,0.667-0.566,1.093c0,0.371,0.133,0.676,0.401,0.915
			c0.262,0.239,0.948,0.484,2.057,0.734c1.109,0.251,1.87,0.471,2.282,0.658c0.6,0.276,1.043,0.627,1.33,1.052
			c0.286,0.424,0.429,0.913,0.429,1.466c0,0.549-0.157,1.065-0.471,1.551c-0.314,0.485-0.766,0.863-1.354,1.133
			s-1.25,0.404-1.987,0.404c-0.933,0-1.715-0.136-2.346-0.408c-0.631-0.271-1.125-0.681-1.484-1.227
			C28.166,15.117,27.977,14.5,27.958,13.811z"/>
		<path d="M37.397,13.389c0-1.384,0.384-2.408,1.153-3.074c0.642-0.553,1.425-0.83,2.349-0.83c1.027,0,1.866,0.337,2.518,1.01
			s0.978,1.603,0.978,2.789c0,0.961-0.144,1.717-0.433,2.268c-0.288,0.552-0.708,0.979-1.259,1.284
			c-0.551,0.305-1.152,0.457-1.804,0.457c-1.046,0-1.891-0.335-2.536-1.006S37.397,14.649,37.397,13.389z M38.698,13.389
			c0,0.956,0.209,1.673,0.626,2.148c0.417,0.476,0.943,0.714,1.576,0.714c0.628,0,1.151-0.239,1.568-0.718
			c0.417-0.478,0.626-1.207,0.626-2.188c0-0.924-0.21-1.623-0.629-2.1c-0.42-0.476-0.941-0.714-1.565-0.714
			c-0.633,0-1.158,0.237-1.576,0.711C38.907,11.717,38.698,12.432,38.698,13.389z"/>
		<path d="M45.852,17.123V6.812h1.266v10.312H45.852z"/>
		<path d="M49.087,8.268V6.812h1.266v1.456H49.087z M49.087,17.123v-7.47h1.266v7.47H49.087z"/>
		<path d="M57.154,14.387l1.245,0.162c-0.136,0.858-0.484,1.529-1.044,2.015c-0.561,0.485-1.249,0.729-2.064,0.729
			c-1.022,0-1.844-0.334-2.465-1.002c-0.622-0.669-0.932-1.626-0.932-2.874c0-0.806,0.134-1.512,0.401-2.117
			c0.268-0.604,0.674-1.058,1.221-1.36c0.546-0.303,1.14-0.454,1.783-0.454c0.811,0,1.475,0.205,1.991,0.615
			c0.516,0.411,0.846,0.993,0.992,1.748l-1.231,0.19c-0.117-0.502-0.325-0.88-0.623-1.133s-0.658-0.38-1.08-0.38
			c-0.638,0-1.156,0.229-1.554,0.686c-0.399,0.458-0.598,1.181-0.598,2.17c0,1.004,0.192,1.733,0.577,2.188
			c0.385,0.455,0.886,0.683,1.505,0.683c0.497,0,0.912-0.152,1.245-0.457C56.854,15.489,57.065,15.021,57.154,14.387z"/>
		<path d="M59.489,8.268V6.812h1.266v1.456H59.489z M59.489,17.123v-7.47h1.266v7.47H59.489z"/>
		<path d="M65.447,15.99l0.183,1.119c-0.356,0.074-0.675,0.112-0.957,0.112c-0.459,0-0.816-0.073-1.069-0.218
			c-0.253-0.146-0.432-0.337-0.535-0.573c-0.103-0.237-0.155-0.735-0.155-1.495v-4.298h-0.928V9.653h0.928v-1.85l1.259-0.76v2.609
			h1.273v0.984h-1.273v4.368c0,0.361,0.022,0.594,0.067,0.696c0.044,0.104,0.117,0.186,0.218,0.246
			c0.101,0.062,0.245,0.092,0.433,0.092C65.032,16.04,65.217,16.023,65.447,15.99z"/>
		<path d="M71.58,17.123v-1.098c-0.582,0.845-1.372,1.267-2.37,1.267c-0.441,0-0.853-0.085-1.234-0.253
			c-0.382-0.169-0.666-0.381-0.851-0.637c-0.186-0.256-0.315-0.568-0.391-0.939c-0.051-0.248-0.077-0.643-0.077-1.182V9.653h1.266
			v4.143c0,0.661,0.026,1.107,0.077,1.337c0.08,0.333,0.249,0.594,0.506,0.784c0.258,0.189,0.577,0.284,0.957,0.284
			c0.38,0,0.736-0.097,1.069-0.291c0.333-0.195,0.568-0.46,0.707-0.795c0.138-0.335,0.208-0.822,0.208-1.46V9.653h1.266v7.47H71.58z
			"/>
		<path d="M79.542,17.123v-0.942c-0.474,0.741-1.17,1.111-2.089,1.111c-0.595,0-1.143-0.164-1.642-0.492
			c-0.5-0.328-0.886-0.787-1.161-1.375c-0.274-0.589-0.412-1.266-0.412-2.029c0-0.746,0.125-1.422,0.373-2.029
			s0.621-1.072,1.118-1.396c0.497-0.323,1.053-0.485,1.667-0.485c0.45,0,0.851,0.096,1.203,0.285s0.638,0.438,0.858,0.742v-3.7
			h1.259v10.312H79.542z M75.54,13.396c0,0.956,0.202,1.672,0.605,2.145c0.403,0.475,0.879,0.711,1.428,0.711
			c0.553,0,1.023-0.227,1.41-0.679s0.581-1.143,0.581-2.071c0-1.022-0.197-1.772-0.591-2.251c-0.394-0.479-0.879-0.718-1.456-0.718
			c-0.562,0-1.033,0.23-1.41,0.689C75.729,11.682,75.54,12.406,75.54,13.396z"/>
		<path d="M91.555,17.123v-0.942c-0.474,0.741-1.17,1.111-2.089,1.111c-0.595,0-1.143-0.164-1.642-0.492
			c-0.5-0.328-0.886-0.787-1.161-1.375c-0.274-0.589-0.412-1.266-0.412-2.029c0-0.746,0.125-1.422,0.373-2.029
			s0.621-1.072,1.118-1.396c0.497-0.323,1.053-0.485,1.667-0.485c0.45,0,0.851,0.096,1.203,0.285s0.638,0.438,0.858,0.742v-3.7
			h1.259v10.312H91.555z M87.553,13.396c0,0.956,0.202,1.672,0.605,2.145c0.403,0.475,0.879,0.711,1.428,0.711
			c0.553,0,1.023-0.227,1.41-0.679s0.581-1.143,0.581-2.071c0-1.022-0.197-1.772-0.591-2.251c-0.394-0.479-0.879-0.718-1.456-0.718
			c-0.562,0-1.033,0.23-1.41,0.689C87.742,11.682,87.553,12.406,87.553,13.396z"/>
		<path d="M99.833,14.718l1.308,0.161c-0.207,0.765-0.588,1.358-1.146,1.78s-1.271,0.633-2.138,0.633
			c-1.093,0-1.959-0.337-2.599-1.01c-0.64-0.673-0.96-1.616-0.96-2.831c0-1.256,0.324-2.231,0.971-2.926
			c0.647-0.693,1.486-1.041,2.518-1.041c0.999,0,1.814,0.34,2.448,1.021c0.633,0.68,0.949,1.636,0.949,2.869
			c0,0.075-0.002,0.188-0.007,0.338h-5.57c0.046,0.82,0.279,1.449,0.696,1.885c0.417,0.437,0.938,0.654,1.561,0.654
			c0.464,0,0.861-0.122,1.189-0.366C99.381,15.642,99.641,15.252,99.833,14.718z M95.677,12.671h4.171
			c-0.057-0.628-0.216-1.1-0.479-1.414c-0.403-0.487-0.926-0.731-1.568-0.731c-0.582,0-1.07,0.195-1.467,0.584
			C95.938,11.499,95.719,12.02,95.677,12.671z"/>
		<path d="M106.916,17.123V6.812h4.572c0.919,0,1.618,0.093,2.096,0.278c0.478,0.186,0.86,0.513,1.146,0.981
			c0.286,0.469,0.429,0.986,0.429,1.554c0,0.731-0.237,1.349-0.71,1.851c-0.474,0.501-1.205,0.82-2.194,0.956
			c0.361,0.174,0.635,0.345,0.823,0.514c0.398,0.365,0.776,0.823,1.132,1.371l1.793,2.807h-1.716l-1.364-2.146
			c-0.399-0.619-0.727-1.092-0.985-1.421c-0.258-0.328-0.489-0.558-0.693-0.688c-0.204-0.132-0.411-0.223-0.623-0.274
			c-0.155-0.033-0.408-0.05-0.759-0.05h-1.583v4.579H106.916z M108.281,11.362h2.933c0.624,0,1.111-0.064,1.463-0.193
			c0.352-0.129,0.619-0.335,0.802-0.619c0.183-0.283,0.274-0.592,0.274-0.925c0-0.487-0.177-0.889-0.531-1.202
			c-0.354-0.314-0.913-0.472-1.678-0.472h-3.263V11.362z"/>
		<path d="M122.25,14.718l1.308,0.161c-0.207,0.765-0.588,1.358-1.146,1.78s-1.271,0.633-2.138,0.633
			c-1.093,0-1.959-0.337-2.599-1.01c-0.64-0.673-0.96-1.616-0.96-2.831c0-1.256,0.324-2.231,0.971-2.926
			c0.647-0.693,1.486-1.041,2.518-1.041c0.999,0,1.814,0.34,2.448,1.021c0.633,0.68,0.949,1.636,0.949,2.869
			c0,0.075-0.002,0.188-0.007,0.338h-5.57c0.046,0.82,0.279,1.449,0.696,1.885c0.417,0.437,0.938,0.654,1.561,0.654
			c0.464,0,0.861-0.122,1.189-0.366C121.797,15.642,122.057,15.252,122.25,14.718z M118.093,12.671h4.171
			c-0.057-0.628-0.216-1.1-0.479-1.414c-0.403-0.487-0.926-0.731-1.568-0.731c-0.582,0-1.07,0.195-1.467,0.584
			C118.354,11.499,118.135,12.02,118.093,12.671z"/>
		<path d="M124.915,17.742l1.231,0.183c0.052,0.38,0.194,0.656,0.429,0.83c0.314,0.234,0.743,0.352,1.287,0.352
			c0.586,0,1.039-0.117,1.357-0.352s0.535-0.562,0.647-0.984c0.065-0.259,0.096-0.8,0.091-1.625
			c-0.553,0.651-1.243,0.978-2.068,0.978c-1.027,0-1.821-0.37-2.384-1.111c-0.562-0.741-0.844-1.629-0.844-2.666
			c0-0.712,0.129-1.37,0.387-1.973s0.632-1.067,1.122-1.396c0.49-0.328,1.066-0.492,1.727-0.492c0.881,0,1.608,0.356,2.18,1.069
			v-0.9h1.167v6.457c0,1.163-0.118,1.987-0.355,2.472c-0.237,0.485-0.612,0.869-1.125,1.15c-0.513,0.281-1.145,0.422-1.896,0.422
			c-0.891,0-1.61-0.2-2.159-0.602C125.161,19.152,124.896,18.549,124.915,17.742z M125.963,13.255c0,0.979,0.194,1.694,0.583,2.145
			s0.877,0.676,1.463,0.676c0.582,0,1.069-0.224,1.463-0.672c0.394-0.447,0.591-1.15,0.591-2.106c0-0.914-0.203-1.604-0.608-2.068
			c-0.405-0.464-0.894-0.696-1.466-0.696c-0.562,0-1.041,0.229-1.435,0.687C126.16,11.676,125.963,12.354,125.963,13.255z"/>
		<path d="M133.165,8.268V6.812h1.266v1.456H133.165z M133.165,17.123v-7.47h1.266v7.47H133.165z"/>
		<path d="M135.852,14.894l1.252-0.197c0.07,0.502,0.266,0.887,0.587,1.153c0.321,0.268,0.771,0.401,1.347,0.401
			c0.581,0,1.013-0.118,1.294-0.355c0.281-0.236,0.422-0.515,0.422-0.833c0-0.286-0.125-0.512-0.373-0.676
			c-0.173-0.112-0.605-0.255-1.294-0.429c-0.929-0.234-1.572-0.438-1.931-0.608c-0.359-0.171-0.631-0.408-0.816-0.71
			c-0.186-0.303-0.278-0.637-0.278-1.003c0-0.333,0.076-0.641,0.229-0.925c0.152-0.283,0.36-0.52,0.623-0.707
			c0.197-0.146,0.465-0.269,0.805-0.369s0.705-0.151,1.094-0.151c0.586,0,1.101,0.085,1.544,0.254
			c0.443,0.168,0.77,0.397,0.981,0.686s0.356,0.674,0.436,1.157l-1.238,0.168c-0.056-0.384-0.219-0.685-0.489-0.899
			c-0.27-0.216-0.651-0.324-1.143-0.324c-0.582,0-0.997,0.097-1.245,0.289c-0.249,0.191-0.373,0.417-0.373,0.675
			c0,0.164,0.052,0.312,0.155,0.443c0.103,0.136,0.265,0.248,0.485,0.337c0.126,0.047,0.5,0.155,1.118,0.324
			c0.896,0.239,1.521,0.435,1.875,0.587s0.632,0.374,0.833,0.665c0.202,0.29,0.302,0.651,0.302,1.083
			c0,0.422-0.123,0.819-0.369,1.192c-0.246,0.372-0.601,0.661-1.065,0.865c-0.464,0.203-0.99,0.306-1.576,0.306
			c-0.971,0-1.71-0.202-2.219-0.605C136.317,16.284,135.993,15.686,135.852,14.894z"/>
		<path d="M146.325,15.99l0.183,1.119c-0.356,0.074-0.675,0.112-0.957,0.112c-0.459,0-0.816-0.073-1.069-0.218
			c-0.253-0.146-0.432-0.337-0.535-0.573c-0.103-0.237-0.155-0.735-0.155-1.495v-4.298h-0.928V9.653h0.928v-1.85l1.259-0.76v2.609
			h1.273v0.984h-1.273v4.368c0,0.361,0.022,0.594,0.067,0.696c0.044,0.104,0.117,0.186,0.218,0.246
			c0.101,0.062,0.245,0.092,0.433,0.092C145.91,16.04,146.095,16.023,146.325,15.99z"/>
		<path d="M147.549,17.123v-7.47h1.139v1.133c0.291-0.53,0.56-0.88,0.806-1.048c0.246-0.169,0.517-0.254,0.812-0.254
			c0.427,0,0.861,0.137,1.301,0.408l-0.436,1.175c-0.31-0.183-0.619-0.274-0.928-0.274c-0.277,0-0.525,0.083-0.746,0.25
			c-0.221,0.166-0.377,0.397-0.471,0.692c-0.141,0.45-0.211,0.942-0.211,1.478v3.91H147.549z"/>
		<path d="M151.889,13.389c0-1.384,0.384-2.408,1.153-3.074c0.642-0.553,1.425-0.83,2.349-0.83c1.027,0,1.866,0.337,2.518,1.01
			s0.978,1.603,0.978,2.789c0,0.961-0.144,1.717-0.433,2.268c-0.288,0.552-0.708,0.979-1.259,1.284
			c-0.551,0.305-1.152,0.457-1.804,0.457c-1.046,0-1.891-0.335-2.536-1.006S151.889,14.649,151.889,13.389z M153.189,13.389
			c0,0.956,0.209,1.673,0.626,2.148c0.417,0.476,0.943,0.714,1.576,0.714c0.628,0,1.151-0.239,1.568-0.718
			c0.417-0.478,0.626-1.207,0.626-2.188c0-0.924-0.21-1.623-0.629-2.1c-0.42-0.476-0.941-0.714-1.565-0.714
			c-0.633,0-1.158,0.237-1.576,0.711C153.398,11.717,153.189,12.432,153.189,13.389z"/>
		<path d="M50.328,31.527v-0.942c-0.474,0.741-1.17,1.111-2.089,1.111c-0.595,0-1.143-0.164-1.642-0.492
			c-0.5-0.328-0.886-0.787-1.161-1.375c-0.274-0.589-0.412-1.266-0.412-2.029c0-0.746,0.125-1.422,0.373-2.029
			s0.621-1.072,1.118-1.396c0.497-0.323,1.053-0.485,1.667-0.485c0.45,0,0.851,0.096,1.203,0.285s0.638,0.438,0.858,0.742v-3.7
			h1.259v10.312H50.328z M46.326,27.8c0,0.956,0.202,1.672,0.605,2.145c0.403,0.475,0.879,0.711,1.428,0.711
			c0.553,0,1.023-0.227,1.41-0.679s0.581-1.143,0.581-2.071c0-1.022-0.197-1.772-0.591-2.251c-0.394-0.479-0.879-0.718-1.456-0.718
			c-0.562,0-1.033,0.23-1.41,0.689C46.515,26.086,46.326,26.811,46.326,27.8z"/>
		<path d="M58.607,29.122l1.308,0.161c-0.207,0.765-0.588,1.358-1.146,1.78s-1.271,0.633-2.138,0.633
			c-1.093,0-1.959-0.337-2.599-1.01c-0.64-0.673-0.96-1.616-0.96-2.831c0-1.256,0.324-2.231,0.971-2.926
			c0.647-0.693,1.486-1.041,2.518-1.041c0.999,0,1.814,0.34,2.448,1.021c0.633,0.68,0.949,1.636,0.949,2.869
			c0,0.075-0.002,0.188-0.007,0.338h-5.57c0.046,0.82,0.279,1.449,0.696,1.885c0.417,0.437,0.938,0.654,1.561,0.654
			c0.464,0,0.861-0.122,1.189-0.366C58.154,30.046,58.415,29.656,58.607,29.122z M54.45,27.075h4.171
			c-0.057-0.628-0.216-1.1-0.479-1.414c-0.403-0.487-0.926-0.731-1.568-0.731c-0.582,0-1.07,0.195-1.467,0.584
			C54.711,25.903,54.492,26.424,54.45,27.075z"/>
		<path d="M65.479,31.527V21.216h1.266v10.312H65.479z"/>
		<path d="M73.581,30.605c-0.469,0.399-0.92,0.681-1.354,0.845s-0.899,0.246-1.396,0.246c-0.821,0-1.451-0.2-1.892-0.602
			c-0.441-0.4-0.661-0.913-0.661-1.537c0-0.365,0.083-0.699,0.25-1.002s0.385-0.545,0.654-0.728c0.27-0.184,0.573-0.321,0.911-0.415
			c0.249-0.066,0.624-0.129,1.125-0.19c1.022-0.122,1.775-0.267,2.258-0.436c0.004-0.174,0.007-0.284,0.007-0.331
			c0-0.516-0.12-0.879-0.358-1.09c-0.324-0.286-0.804-0.43-1.442-0.43c-0.596,0-1.035,0.104-1.319,0.313s-0.494,0.578-0.629,1.107
			l-1.238-0.169c0.113-0.529,0.298-0.957,0.556-1.283s0.631-0.577,1.119-0.753c0.487-0.176,1.053-0.264,1.695-0.264
			c0.638,0,1.156,0.075,1.555,0.226c0.398,0.149,0.691,0.339,0.879,0.566s0.319,0.515,0.394,0.861
			c0.042,0.216,0.063,0.604,0.063,1.167v1.688c0,1.177,0.027,1.921,0.081,2.233c0.054,0.312,0.161,0.61,0.32,0.896h-1.322
			C73.703,31.265,73.619,30.958,73.581,30.605z M73.476,27.778c-0.459,0.188-1.149,0.348-2.068,0.479
			c-0.521,0.075-0.889,0.159-1.104,0.253c-0.215,0.094-0.382,0.231-0.499,0.412c-0.117,0.18-0.176,0.381-0.176,0.601
			c0,0.338,0.127,0.619,0.383,0.845c0.255,0.225,0.629,0.337,1.122,0.337c0.488,0,0.921-0.106,1.301-0.319
			c0.38-0.214,0.659-0.506,0.837-0.876c0.136-0.286,0.204-0.708,0.204-1.266V27.778z"/>
		<path d="M76.211,29.298l1.252-0.197c0.07,0.502,0.266,0.887,0.587,1.153c0.321,0.268,0.771,0.401,1.347,0.401
			c0.581,0,1.013-0.118,1.294-0.355c0.281-0.236,0.422-0.515,0.422-0.833c0-0.286-0.125-0.512-0.373-0.676
			c-0.173-0.112-0.605-0.255-1.294-0.429c-0.929-0.234-1.572-0.438-1.931-0.608c-0.359-0.171-0.631-0.408-0.816-0.71
			c-0.186-0.303-0.278-0.637-0.278-1.003c0-0.333,0.076-0.641,0.229-0.925c0.152-0.283,0.36-0.52,0.623-0.707
			c0.197-0.146,0.465-0.269,0.805-0.369s0.705-0.151,1.094-0.151c0.586,0,1.101,0.085,1.544,0.254
			c0.443,0.168,0.77,0.397,0.981,0.686s0.356,0.674,0.436,1.157l-1.238,0.168c-0.056-0.384-0.219-0.685-0.489-0.899
			c-0.27-0.216-0.651-0.324-1.143-0.324c-0.582,0-0.997,0.097-1.245,0.289c-0.249,0.191-0.373,0.417-0.373,0.675
			c0,0.164,0.052,0.312,0.155,0.443c0.103,0.136,0.265,0.248,0.485,0.337c0.126,0.047,0.5,0.155,1.118,0.324
			c0.896,0.239,1.521,0.435,1.875,0.587s0.632,0.374,0.833,0.665c0.202,0.29,0.302,0.651,0.302,1.083
			c0,0.422-0.123,0.819-0.369,1.192c-0.246,0.372-0.601,0.661-1.065,0.865c-0.464,0.203-0.99,0.306-1.576,0.306
			c-0.971,0-1.71-0.202-2.219-0.605C76.677,30.688,76.353,30.09,76.211,29.298z"/>
		<path d="M91.031,31.527l-3.995-10.312h1.477l2.68,7.491c0.215,0.601,0.396,1.163,0.542,1.688c0.159-0.562,0.345-1.125,0.556-1.688
			l2.785-7.491h1.393l-4.037,10.312H91.031z"/>
		<path d="M97.91,23.129l0.936-1.969h1.66l-1.547,1.969H97.91z M97.973,31.527v-7.47h1.266v7.47H97.973z"/>
		<path d="M106.406,28.791l1.245,0.162c-0.136,0.858-0.484,1.529-1.044,2.015c-0.561,0.485-1.249,0.729-2.064,0.729
			c-1.022,0-1.844-0.334-2.465-1.002c-0.622-0.669-0.932-1.626-0.932-2.874c0-0.806,0.134-1.512,0.401-2.117
			c0.268-0.604,0.674-1.058,1.221-1.36c0.546-0.303,1.14-0.454,1.783-0.454c0.811,0,1.475,0.205,1.991,0.615
			c0.516,0.411,0.846,0.993,0.992,1.748l-1.231,0.19c-0.117-0.502-0.325-0.88-0.623-1.133s-0.658-0.38-1.08-0.38
			c-0.638,0-1.156,0.229-1.554,0.686c-0.399,0.458-0.598,1.181-0.598,2.17c0,1.004,0.192,1.733,0.577,2.188
			c0.385,0.455,0.886,0.683,1.505,0.683c0.497,0,0.912-0.152,1.245-0.457C106.106,29.894,106.317,29.425,106.406,28.791z"/>
		<path d="M111.499,30.395l0.183,1.119c-0.356,0.074-0.675,0.112-0.957,0.112c-0.459,0-0.816-0.073-1.069-0.218
			c-0.253-0.146-0.432-0.337-0.535-0.573c-0.103-0.237-0.155-0.735-0.155-1.495v-4.298h-0.928v-0.984h0.928v-1.85l1.259-0.76v2.609
			h1.273v0.984h-1.273v4.368c0,0.361,0.022,0.594,0.067,0.696c0.044,0.104,0.117,0.186,0.218,0.246
			c0.101,0.062,0.245,0.092,0.433,0.092C111.084,30.444,111.269,30.428,111.499,30.395z"/>
		<path d="M112.744,22.672v-1.456h1.266v1.456H112.744z M112.744,31.527v-7.47h1.266v7.47H112.744z"/>
		<path d="M115.937,31.527v-7.47h1.132v1.048c0.234-0.365,0.546-0.659,0.936-0.883c0.389-0.223,0.832-0.334,1.329-0.334
			c0.553,0,1.007,0.115,1.361,0.345c0.354,0.23,0.604,0.551,0.749,0.964c0.591-0.872,1.36-1.309,2.307-1.309
			c0.741,0,1.311,0.205,1.709,0.615c0.399,0.411,0.598,1.043,0.598,1.896v5.127h-1.259v-4.705c0-0.507-0.041-0.871-0.123-1.094
			s-0.231-0.402-0.446-0.538c-0.216-0.136-0.469-0.204-0.76-0.204c-0.525,0-0.961,0.175-1.308,0.523
			c-0.347,0.35-0.521,0.909-0.521,1.678v4.34h-1.266v-4.854c0-0.562-0.103-0.984-0.31-1.266s-0.544-0.422-1.013-0.422
			c-0.356,0-0.686,0.094-0.988,0.281s-0.521,0.462-0.658,0.823c-0.136,0.36-0.204,0.881-0.204,1.562v3.875H115.937z"/>
		<path d="M132.81,30.605c-0.469,0.399-0.92,0.681-1.354,0.845s-0.899,0.246-1.396,0.246c-0.821,0-1.451-0.2-1.892-0.602
			c-0.441-0.4-0.661-0.913-0.661-1.537c0-0.365,0.083-0.699,0.25-1.002s0.385-0.545,0.654-0.728c0.27-0.184,0.573-0.321,0.911-0.415
			c0.249-0.066,0.624-0.129,1.125-0.19c1.022-0.122,1.775-0.267,2.258-0.436c0.004-0.174,0.007-0.284,0.007-0.331
			c0-0.516-0.12-0.879-0.358-1.09c-0.324-0.286-0.804-0.43-1.442-0.43c-0.596,0-1.035,0.104-1.319,0.313s-0.494,0.578-0.629,1.107
			l-1.238-0.169c0.113-0.529,0.298-0.957,0.556-1.283s0.631-0.577,1.119-0.753c0.487-0.176,1.053-0.264,1.695-0.264
			c0.638,0,1.156,0.075,1.555,0.226c0.398,0.149,0.691,0.339,0.879,0.566s0.319,0.515,0.394,0.861
			c0.042,0.216,0.063,0.604,0.063,1.167v1.688c0,1.177,0.027,1.921,0.081,2.233c0.054,0.312,0.161,0.61,0.32,0.896h-1.322
			C132.932,31.265,132.848,30.958,132.81,30.605z M132.705,27.778c-0.459,0.188-1.149,0.348-2.068,0.479
			c-0.521,0.075-0.889,0.159-1.104,0.253c-0.215,0.094-0.382,0.231-0.499,0.412c-0.117,0.18-0.176,0.381-0.176,0.601
			c0,0.338,0.127,0.619,0.383,0.845c0.255,0.225,0.629,0.337,1.122,0.337c0.488,0,0.921-0.106,1.301-0.319
			c0.38-0.214,0.659-0.506,0.837-0.876c0.136-0.286,0.204-0.708,0.204-1.266V27.778z"/>
		<path d="M135.44,29.298l1.252-0.197c0.07,0.502,0.266,0.887,0.587,1.153c0.321,0.268,0.771,0.401,1.347,0.401
			c0.581,0,1.013-0.118,1.294-0.355c0.281-0.236,0.422-0.515,0.422-0.833c0-0.286-0.125-0.512-0.373-0.676
			c-0.173-0.112-0.605-0.255-1.294-0.429c-0.929-0.234-1.572-0.438-1.931-0.608c-0.359-0.171-0.631-0.408-0.816-0.71
			c-0.186-0.303-0.278-0.637-0.278-1.003c0-0.333,0.076-0.641,0.229-0.925c0.152-0.283,0.36-0.52,0.623-0.707
			c0.197-0.146,0.465-0.269,0.805-0.369s0.705-0.151,1.094-0.151c0.586,0,1.101,0.085,1.544,0.254
			c0.443,0.168,0.77,0.397,0.981,0.686s0.356,0.674,0.436,1.157l-1.238,0.168c-0.056-0.384-0.219-0.685-0.489-0.899
			c-0.27-0.216-0.651-0.324-1.143-0.324c-0.582,0-0.997,0.097-1.245,0.289c-0.249,0.191-0.373,0.417-0.373,0.675
			c0,0.164,0.052,0.312,0.155,0.443c0.103,0.136,0.265,0.248,0.485,0.337c0.126,0.047,0.5,0.155,1.118,0.324
			c0.896,0.239,1.521,0.435,1.875,0.587s0.632,0.374,0.833,0.665c0.202,0.29,0.302,0.651,0.302,1.083
			c0,0.422-0.123,0.819-0.369,1.192c-0.246,0.372-0.601,0.661-1.065,0.865c-0.464,0.203-0.99,0.306-1.576,0.306
			c-0.971,0-1.71-0.202-2.219-0.605C135.906,30.688,135.582,30.09,135.44,29.298z"/>
		<path d="M143.508,31.527v-1.441h1.442v1.441H143.508z"/>
	</g>
	<path fill="none" stroke="#C85B2F" stroke-width="3.9524" stroke-miterlimit="10" d="M164.928,26.462
		c0,5.967-4.837,10.803-10.803,10.803H12.78c-5.967,0-10.804-4.836-10.804-10.803V12.778c0-5.966,4.837-10.803,10.804-10.803
		h141.346c5.966,0,10.803,4.837,10.803,10.803V26.462z"/>
	<g>
		<path fill="#C85B2F" d="M19.736,8.176c-0.1,4.993-0.149,9.96-0.149,14.9c0,2.475,0.014,4.945,0.042,7.41l-5.279,0.206
			c-0.099-6.357-0.22-12.244-0.362-17.661c-1.192,0.18-2.81,0.624-4.854,1.333L8.113,10.89l5.917-2.793L19.736,8.176z"/>
	</g>
</g>
</svg>
