<?xml version="1.0" encoding="utf-8"?>
<!-- Generator: Adobe Illustrator 16.0.0, SVG Export Plug-In . SVG Version: 6.00 Build 0)  -->
<!DOCTYPE svg PUBLIC "-//W3C//DTD SVG 1.1//EN" "http://www.w3.org/Graphics/SVG/1.1/DTD/svg11.dtd">
<svg version="1.1" id="Capa_1" xmlns="http://www.w3.org/2000/svg" xmlns:xlink="http://www.w3.org/1999/xlink" x="0px" y="0px"
	 width="246.695px" height="26.957px" viewBox="0 0 246.695 26.957" enable-background="new 0 0 246.695 26.957"
	 xml:space="preserve">
<g>
	<g>
		<path fill="#2B1C48" d="M0.843,21.55c0.061-2.139,0.09-4.293,0.09-6.462c0-3.32-0.07-6.675-0.21-10.062
			c1.555-0.119,2.949-0.18,4.184-0.18c3.431,0,5.618,0.468,6.561,1.402c0.883,0.875,1.325,1.84,1.325,2.895
			c0,0.479-0.086,0.973-0.256,1.48c-0.582,1.646-1.807,2.688-3.672,3.13c1.304,0.135,2.292,0.658,2.964,1.57
			c0.643,0.883,0.964,3.104,0.964,6.664v0.482l-4.545,0.045c0.05-0.942,0.075-1.788,0.075-2.535c0-2.267-0.246-3.653-0.737-4.162
			c-0.562-0.568-1.229-0.853-2.002-0.853c-0.15,0-0.306,0.011-0.467,0.033c0.061,2.281,0.19,4.442,0.392,6.484L0.843,21.55z
			 M4.695,7.64l0.105,4.801c1.866-0.067,3.05-0.538,3.552-1.413c0.271-0.464,0.406-0.916,0.406-1.357
			c0-0.382-0.101-0.756-0.302-1.122c-0.36-0.636-1.259-0.953-2.693-0.953C5.433,7.595,5.076,7.609,4.695,7.64z"/>
		<path fill="#2B1C48" d="M23.747,5.553v3.163l-5.944-0.179v3.679l5.343-0.111l0.135,3.04H18.51v2.849h6.246v3.187l-10.414-0.112
			c0.11-2.102,0.165-4.218,0.165-6.35c0-2.954-0.105-5.935-0.315-8.94C16.458,5.71,19.644,5.635,23.747,5.553z"/>
		<path fill="#2B1C48" d="M26.32,21.37c0.061-1.967,0.09-3.979,0.09-6.035c0-3.156-0.07-6.424-0.21-9.805
			c1.715-0.18,3.23-0.27,4.545-0.27c2.066,0,3.621,0.225,4.665,0.674c1.615,0.695,2.423,2.12,2.423,4.273v0.37
			c-0.101,2.363-0.818,3.876-2.152,4.538s-2.979,1.016-4.936,1.06c-0.011,0.232-0.016,0.472-0.016,0.719
			c0,1.241,0.085,2.711,0.256,4.408L26.32,21.37z M30.173,8.133l0.105,5.485c1.866-0.074,2.959-0.571,3.28-1.491
			c0.15-0.419,0.226-0.849,0.226-1.29c0-0.517-0.1-1.048-0.301-1.594c-0.301-0.8-1.054-1.2-2.257-1.2
			C30.905,8.043,30.554,8.073,30.173,8.133z"/>
		<path fill="#2B1C48" d="M38.436,21.258c1.886-6.387,3.41-11.801,4.574-16.243l5.644-0.067c1.385,4.622,2.97,9.887,4.756,15.795
			l-3.853,0.583l-1.22-4.252h-4.68l-1.265,4.589L38.436,21.258z M48.217,13.922c-0.521-1.616-1.374-3.549-2.559-5.8
			c-0.913,1.892-1.685,3.852-2.317,5.878L48.217,13.922z"/>
		<path fill="#2B1C48" d="M53.995,21.55c0.061-2.139,0.09-4.293,0.09-6.462c0-3.32-0.07-6.675-0.21-10.062
			c1.555-0.119,2.949-0.18,4.184-0.18c3.431,0,5.618,0.468,6.561,1.402c0.883,0.875,1.325,1.84,1.325,2.895
			c0,0.479-0.086,0.973-0.256,1.48c-0.582,1.646-1.807,2.688-3.672,3.13c1.304,0.135,2.292,0.658,2.964,1.57
			c0.643,0.883,0.964,3.104,0.964,6.664v0.482l-4.545,0.045c0.05-0.942,0.075-1.788,0.075-2.535c0-2.267-0.246-3.653-0.737-4.162
			c-0.562-0.568-1.229-0.853-2.002-0.853c-0.15,0-0.306,0.011-0.467,0.033c0.061,2.281,0.19,4.442,0.392,6.484L53.995,21.55z
			 M57.848,7.64l0.105,4.801c1.866-0.067,3.05-0.538,3.552-1.413c0.271-0.464,0.406-0.916,0.406-1.357
			c0-0.382-0.101-0.756-0.302-1.122c-0.36-0.636-1.259-0.953-2.693-0.953C58.585,7.595,58.229,7.609,57.848,7.64z"/>
		<path fill="#2B1C48" d="M66.351,21.258c1.886-6.387,3.41-11.801,4.574-16.243l5.644-0.067c1.385,4.622,2.97,9.887,4.756,15.795
			l-3.853,0.583l-1.22-4.252h-4.68l-1.265,4.589L66.351,21.258z M76.132,13.922c-0.521-1.616-1.374-3.549-2.559-5.8
			c-0.913,1.892-1.685,3.852-2.317,5.878L76.132,13.922z"/>
		<path fill="#2B1C48" d="M93.349,11.297l-3.341,0.011v-0.303c0-1.758-0.662-2.637-1.987-2.637c-1.414,0-2.121,1.623-2.121,4.869
			c0,3.657,0.742,5.485,2.227,5.485h0.016c1.484-0.007,2.227-0.904,2.227-2.692v-1.11h3.732v0.841c0,3.725-2.052,5.673-6.155,5.845
			c-0.12,0.008-0.24,0.012-0.36,0.012c-3.863,0-5.794-2.768-5.794-8.302c0-5.414,1.986-8.121,5.959-8.121
			c3.742,0,5.613,1.81,5.613,5.429C93.363,10.841,93.358,11.064,93.349,11.297z"/>
		<path fill="#2B1C48" d="M99.218,20.843l-3.747,0.258c0-5.489-0.121-10.642-0.361-15.458l4.289-0.27
			C99.287,10.451,99.228,15.608,99.218,20.843z"/>
		<path fill="#2B1C48" d="M107.75,5.172c4.224,0,6.336,2.691,6.336,8.076c0,5.393-2.263,8.089-6.787,8.089
			c-4.525,0-6.787-2.794-6.787-8.38C100.512,7.767,102.924,5.172,107.75,5.172z M104.74,13.551c-0.01,0.195-0.016,0.382-0.016,0.562
			c0,2.819,0.883,4.229,2.649,4.229c1.876,0,2.813-1.596,2.813-4.79c0-3.192-0.872-4.79-2.618-4.79
			C105.813,8.761,104.87,10.358,104.74,13.551z M105.508,2.973c1.174-1.039,2.137-2.03,2.89-2.973l2.468,1.458
			c-1.063,0.778-2.248,1.731-3.552,2.861L105.508,2.973z"/>
		<path fill="#2B1C48" d="M115.229,21.382c0.121-2.559,0.181-5.049,0.181-7.472c0-2.797-0.08-5.508-0.24-8.133l4.424-0.157
			l4.063,8.447c-0.04-2.901-0.15-5.871-0.331-8.907l4.65-0.045c-0.462,4.585-0.692,9.214-0.692,13.888
			c0,0.629,0.005,1.257,0.015,1.885l-4.078,0.034l-4.334-9.042c0.13,3.336,0.251,6.436,0.361,9.3L115.229,21.382z"/>
		<path fill="#2B1C48" d="M146.592,11.297l-3.341,0.011v-0.303c0-1.758-0.662-2.637-1.987-2.637c-1.414,0-2.121,1.623-2.121,4.869
			c0,3.657,0.742,5.485,2.227,5.485h0.016c1.484-0.007,2.227-0.904,2.227-2.692v-1.11h3.732v0.841c0,3.725-2.052,5.673-6.155,5.845
			c-0.12,0.008-0.24,0.012-0.36,0.012c-3.863,0-5.794-2.768-5.794-8.302c0-5.414,1.986-8.121,5.959-8.121
			c3.742,0,5.613,1.81,5.613,5.429C146.606,10.841,146.602,11.064,146.592,11.297z"/>
		<path fill="#2B1C48" d="M155.26,5.172c4.224,0,6.336,2.691,6.336,8.076c0,5.393-2.263,8.089-6.787,8.089
			c-4.525,0-6.787-2.794-6.787-8.38C148.021,7.767,150.434,5.172,155.26,5.172z M152.25,13.551c-0.01,0.195-0.016,0.382-0.016,0.562
			c0,2.819,0.883,4.229,2.649,4.229c1.876,0,2.813-1.596,2.813-4.79c0-3.192-0.872-4.79-2.618-4.79
			C153.323,8.761,152.38,10.358,152.25,13.551z"/>
		<path fill="#2B1C48" d="M167.208,4.835c-0.181,3.896-0.271,7.235-0.271,10.018c0,1.106,0.015,2.128,0.045,3.062l6.712-0.247
			l0.105,3.657l-10.745,0.18c0.01-0.987,0.015-1.971,0.015-2.95c0-4.495-0.13-8.967-0.391-13.417L167.208,4.835z"/>
		<path fill="#2B1C48" d="M184.905,5.553v3.163l-5.944-0.179v3.679l5.343-0.111l0.135,3.04h-4.771v2.849h6.246v3.187L175.5,21.067
			c0.11-2.102,0.165-4.218,0.165-6.35c0-2.954-0.105-5.935-0.315-8.94C177.616,5.71,180.802,5.635,184.905,5.553z"/>
		<path fill="#2B1C48" d="M198.916,11.297l-3.341,0.011v-0.303c0-1.758-0.662-2.637-1.987-2.637c-1.414,0-2.121,1.623-2.121,4.869
			c0,3.657,0.742,5.485,2.227,5.485h0.016c1.484-0.007,2.227-0.904,2.227-2.692v-1.11h3.732v0.841c0,3.725-2.052,5.673-6.155,5.845
			c-0.12,0.008-0.24,0.012-0.36,0.012c-3.863,0-5.794-2.768-5.794-8.302c0-5.414,1.986-8.121,5.959-8.121
			c3.742,0,5.613,1.81,5.613,5.429C198.931,10.841,198.926,11.064,198.916,11.297z"/>
		<path fill="#2B1C48" d="M200.677,8.447v-2.95c1.475,0.029,2.935,0.045,4.379,0.045c2.247,0,4.449-0.034,6.606-0.102l0.136,3.142
			h-3.793c0,5.317,0.075,9.535,0.227,12.653l-4.244,0.157c0.221-5.31,0.381-9.64,0.481-12.99L200.677,8.447z"/>
		<path fill="#2B1C48" d="M217.352,20.843l-3.747,0.258c0-5.489-0.121-10.642-0.361-15.458l4.289-0.27
			C217.421,10.451,217.361,15.608,217.352,20.843z"/>
		<path fill="#2B1C48" d="M222.227,21.213c-1.224-5.04-2.674-10.31-4.349-15.806l4.394-0.337l2.574,12.295
			c1.313-4.3,2.388-8.192,3.22-11.678l4.169,0.382c-2.106,6.782-3.677,11.79-4.71,15.021L222.227,21.213z"/>
		<path fill="#2B1C48" d="M231.723,21.258c1.886-6.387,3.41-11.801,4.574-16.243l5.644-0.067c1.385,4.622,2.97,9.887,4.756,15.795
			l-3.853,0.583l-1.22-4.252h-4.68l-1.265,4.589L231.723,21.258z M241.504,13.922c-0.521-1.616-1.374-3.549-2.559-5.8
			c-0.913,1.892-1.685,3.852-2.317,5.878L241.504,13.922z"/>
	</g>
</g>
</svg>
