<?xml version="1.0" encoding="utf-8"?>
<!-- Generator: Adobe Illustrator 16.0.0, SVG Export Plug-In . SVG Version: 6.00 Build 0)  -->
<!DOCTYPE svg PUBLIC "-//W3C//DTD SVG 1.1//EN" "http://www.w3.org/Graphics/SVG/1.1/DTD/svg11.dtd">
<svg version="1.1" id="Capa_1" xmlns="http://www.w3.org/2000/svg" xmlns:xlink="http://www.w3.org/1999/xlink" x="0px" y="0px"
	 width="308.33px" height="124.635px" viewBox="0 0 308.33 124.635" enable-background="new 0 0 308.33 124.635"
	 xml:space="preserve">
<g>
	<g>
		<g>
			<path fill="#2B1C48" d="M22.321,8.974L18.98,8.985V8.683c0-1.758-0.662-2.637-1.986-2.637c-1.415,0-2.122,1.623-2.122,4.869
				c0,3.657,0.742,5.485,2.228,5.485h0.015c1.484-0.007,2.228-0.905,2.228-2.692v-1.11h3.731v0.841c0,3.725-2.052,5.673-6.154,5.845
				c-0.121,0.008-0.241,0.012-0.361,0.012c-3.862,0-5.794-2.768-5.794-8.302c0-5.414,1.986-8.121,5.96-8.121
				c3.741,0,5.612,1.81,5.612,5.429C22.336,8.519,22.331,8.742,22.321,8.974z"/>
			<path fill="#2B1C48" d="M30.989,2.849c4.224,0,6.336,2.693,6.336,8.077c0,5.393-2.263,8.089-6.787,8.089
				c-4.525,0-6.787-2.794-6.787-8.38C23.751,5.444,26.164,2.849,30.989,2.849z M27.979,11.229c-0.01,0.194-0.015,0.381-0.015,0.561
				c0,2.819,0.883,4.229,2.648,4.229c1.876,0,2.814-1.596,2.814-4.789s-0.873-4.791-2.619-4.791
				C29.053,6.438,28.11,8.036,27.979,11.229z"/>
			<path fill="#2B1C48" d="M43.646,2.748l3.506,11.622L49.726,3.6l6.862,0.057c-0.121,2.43-0.181,4.883-0.181,7.358
				c0,2.76,0.075,5.553,0.226,8.38l-4.38,0.225c0-2.977-0.045-6.615-0.135-10.915l-2.453,9.86L45,18.801L41.99,8.167l-0.06,10.769
				l-3.672,0.19c0.07-2.46,0.105-4.902,0.105-7.325c0-3.021-0.056-6.005-0.165-8.952L43.646,2.748z"/>
			<path fill="#2B1C48" d="M58.198,19.048c0.06-1.967,0.09-3.979,0.09-6.035c0-3.156-0.07-6.424-0.211-9.805
				c1.716-0.18,3.23-0.27,4.545-0.27c2.066,0,3.621,0.225,4.665,0.674c1.615,0.695,2.423,2.12,2.423,4.273v0.37
				c-0.101,2.364-0.817,3.876-2.152,4.538c-1.334,0.662-2.979,1.016-4.936,1.061c-0.01,0.231-0.015,0.471-0.015,0.718
				c0,1.241,0.085,2.711,0.256,4.408L58.198,19.048z M62.05,5.811l0.105,5.485c1.866-0.074,2.96-0.572,3.281-1.492
				c0.15-0.418,0.226-0.848,0.226-1.289c0-0.517-0.101-1.047-0.301-1.594c-0.302-0.8-1.054-1.2-2.258-1.2
				C62.782,5.721,62.432,5.751,62.05,5.811z"/>
			<path fill="#2B1C48" d="M78.213,2.849c4.224,0,6.335,2.693,6.335,8.077c0,5.393-2.262,8.089-6.787,8.089
				c-4.524,0-6.786-2.794-6.786-8.38C70.975,5.444,73.387,2.849,78.213,2.849z M75.203,11.229c-0.011,0.194-0.015,0.381-0.015,0.561
				c0,2.819,0.882,4.229,2.648,4.229c1.875,0,2.813-1.596,2.813-4.789s-0.872-4.791-2.618-4.791
				C76.276,6.438,75.333,8.036,75.203,11.229z"/>
			<path fill="#2B1C48" d="M85.692,19.06c0.12-2.559,0.18-5.049,0.18-7.472c0-2.797-0.08-5.508-0.24-8.133l4.424-0.157l4.063,8.447
				c-0.04-2.901-0.15-5.871-0.331-8.907l4.65-0.045c-0.462,4.585-0.692,9.214-0.692,13.888c0,0.629,0.005,1.257,0.015,1.885
				l-4.078,0.033l-4.334-9.041c0.131,3.336,0.251,6.436,0.361,9.3L85.692,19.06z"/>
			<path fill="#2B1C48" d="M109.439,3.23v3.163l-5.944-0.179v3.679l5.342-0.111l0.136,3.04h-4.771v2.849h6.245v3.187l-10.413-0.112
				c0.109-2.102,0.165-4.218,0.165-6.35c0-2.954-0.105-5.934-0.315-8.94C102.15,3.388,105.336,3.313,109.439,3.23z"/>
			<path fill="#2B1C48" d="M111.952,19.06c0.12-2.559,0.181-5.049,0.181-7.472c0-2.797-0.08-5.508-0.241-8.133l4.425-0.157
				l4.063,8.447c-0.041-2.901-0.15-5.871-0.331-8.907l4.649-0.045c-0.461,4.585-0.691,9.214-0.691,13.888
				c0,0.629,0.004,1.257,0.015,1.885l-4.078,0.033l-4.334-9.041c0.13,3.336,0.251,6.436,0.36,9.3L111.952,19.06z"/>
			<path fill="#2B1C48" d="M126.144,6.125v-2.95c1.475,0.029,2.935,0.045,4.379,0.045c2.248,0,4.449-0.034,6.606-0.102l0.136,3.142
				h-3.792c0,5.317,0.075,9.535,0.226,12.653l-4.244,0.157c0.221-5.31,0.381-9.64,0.481-12.99L126.144,6.125z"/>
			<path fill="#2B1C48" d="M148.265,3.23v3.163l-5.943-0.179v3.679l5.342-0.111l0.136,3.04h-4.771v2.849h6.245v3.187l-10.414-0.112
				c0.11-2.102,0.166-4.218,0.166-6.35c0-2.954-0.105-5.934-0.316-8.94C140.977,3.388,144.162,3.313,148.265,3.23z"/>
			<path fill="#2B1C48" d="M150.778,13.113l4.47-0.224c-0.062,0.463-0.091,0.882-0.091,1.256c0,1.698,0.566,2.547,1.701,2.547h0.06
				c1.375-0.03,2.062-0.576,2.062-1.639v-0.101c-0.049-1.129-1.349-2.235-3.896-3.32c-2.478-1.047-3.717-2.774-3.717-5.183
				c0-0.074,0.005-0.149,0.015-0.225c0.07-2.52,1.967-3.803,5.688-3.848h0.121c3.359,0,5.041,1.597,5.041,4.79
				c0,0.255-0.01,0.523-0.03,0.808l-3.929,0.168c0.041-0.336,0.062-0.646,0.062-0.931c0-1.339-0.437-2.008-1.31-2.008
				c-1.055,0-1.631,0.399-1.73,1.2c-0.01,0.112-0.016,0.225-0.016,0.336c0,0.666,0.267,1.287,0.798,1.863
				c0.612,0.665,1.663,1.274,3.153,1.828c1.488,0.554,2.529,1.312,3.121,2.277c0.422,0.695,0.633,1.436,0.633,2.221
				c0,0.299-0.029,0.605-0.09,0.92c-0.23,1.129-0.873,2.066-1.927,2.811c-1.054,0.745-2.468,1.149-4.243,1.217
				c-0.121,0.008-0.242,0.012-0.361,0.012c-1.615,0-2.964-0.441-4.048-1.324c-1.044-0.845-1.565-2.382-1.565-4.61
				C150.748,13.686,150.758,13.405,150.778,13.113z"/>
			<path fill="#2B1C48" d="M170.011,18.958c0.021-2.52,0.03-5.115,0.03-7.785c0-2.678-0.01-5.426-0.03-8.245
				c1.154-0.104,2.217-0.157,3.19-0.157c2.709,0,4.705,0.404,5.989,1.212c1.746,1.106,2.658,3.152,2.738,6.136v0.808
				c0,2.558-0.33,4.383-0.992,5.475c-0.732,1.204-2.072,2.005-4.019,2.4c-1.124,0.232-2.358,0.349-3.703,0.349
				C172.213,19.149,171.146,19.085,170.011,18.958z M173.743,6.136c-0.172,2.461-0.256,4.839-0.256,7.135
				c0,0.867,0.01,1.721,0.029,2.558c0.352,0.06,0.688,0.09,1.008,0.09c0.884,0,1.627-0.228,2.229-0.685
				c0.822-0.613,1.234-1.988,1.234-4.128v-0.045c-0.012-2.153-0.412-3.567-1.204-4.24c-0.612-0.509-1.341-0.763-2.183-0.763
				C174.33,6.058,174.044,6.084,173.743,6.136z"/>
			<path fill="#2B1C48" d="M192.733,3.23v3.163l-5.943-0.179v3.679l5.343-0.111l0.136,3.04h-4.771v2.849h6.246v3.187l-10.414-0.112
				c0.11-2.102,0.166-4.218,0.166-6.35c0-2.954-0.104-5.934-0.315-8.94C185.446,3.388,188.632,3.313,192.733,3.23z"/>
			<path fill="#2B1C48" d="M199.718,2.513c-0.181,3.896-0.271,7.235-0.271,10.018c0,1.107,0.016,2.128,0.045,3.062l6.712-0.247
				l0.105,3.657l-10.746,0.18c0.011-0.987,0.017-1.971,0.017-2.95c0-4.495-0.131-8.967-0.392-13.417L199.718,2.513z"/>
			<path fill="#2B1C48" d="M213.593,19.048c0.061-1.967,0.09-3.979,0.09-6.035c0-3.156-0.07-6.424-0.211-9.805
				c1.717-0.18,3.23-0.27,4.545-0.27c2.066,0,3.623,0.225,4.666,0.674c1.614,0.695,2.422,2.12,2.422,4.273v0.37
				c-0.1,2.364-0.816,3.876-2.15,4.538c-1.335,0.662-2.979,1.016-4.938,1.061c-0.01,0.231-0.015,0.471-0.015,0.718
				c0,1.241,0.085,2.711,0.256,4.408L213.593,19.048z M217.444,5.811l0.104,5.485c1.867-0.074,2.96-0.572,3.281-1.492
				c0.149-0.418,0.226-0.848,0.226-1.289c0-0.517-0.101-1.047-0.301-1.594c-0.301-0.8-1.054-1.2-2.257-1.2
				C218.177,5.721,217.826,5.751,217.444,5.811z"/>
			<path fill="#2B1C48" d="M225.706,18.936c1.887-6.387,3.412-11.801,4.575-16.243l5.644-0.067
				c1.385,4.622,2.971,9.887,4.756,15.795l-3.853,0.583l-1.22-4.252h-4.681l-1.264,4.589L225.706,18.936z M235.487,11.599
				c-0.521-1.615-1.373-3.548-2.557-5.799c-0.914,1.892-1.687,3.852-2.318,5.878L235.487,11.599z"/>
			<path fill="#2B1C48" d="M241.269,19.048c0.06-1.967,0.09-3.979,0.09-6.035c0-3.156-0.07-6.424-0.211-9.805
				c1.715-0.18,3.229-0.27,4.545-0.27c2.066,0,3.621,0.225,4.664,0.674c1.615,0.695,2.425,2.12,2.425,4.273v0.37
				c-0.103,2.364-0.818,3.876-2.152,4.538c-1.335,0.662-2.979,1.016-4.937,1.061c-0.01,0.231-0.016,0.471-0.016,0.718
				c0,1.241,0.086,2.711,0.256,4.408L241.269,19.048z M245.12,5.811l0.105,5.485c1.864-0.074,2.959-0.572,3.279-1.492
				c0.15-0.418,0.227-0.848,0.227-1.289c0-0.517-0.102-1.047-0.301-1.594c-0.302-0.8-1.055-1.2-2.259-1.2
				C245.853,5.721,245.501,5.751,245.12,5.811z"/>
			<path fill="#2B1C48" d="M254.435,13.113l4.471-0.224c-0.061,0.463-0.09,0.882-0.09,1.256c0,1.698,0.565,2.547,1.699,2.547h0.062
				c1.374-0.03,2.062-0.576,2.062-1.639v-0.101c-0.051-1.129-1.35-2.235-3.896-3.32c-2.479-1.047-3.719-2.774-3.719-5.183
				c0-0.074,0.006-0.149,0.017-0.225c0.069-2.52,1.966-3.803,5.688-3.848h0.119c3.36,0,5.041,1.597,5.041,4.79
				c0,0.255-0.01,0.523-0.029,0.808l-3.928,0.168c0.041-0.336,0.061-0.646,0.061-0.931c0-1.339-0.438-2.008-1.309-2.008
				c-1.055,0-1.632,0.399-1.731,1.2c-0.011,0.112-0.015,0.225-0.015,0.336c0,0.666,0.266,1.287,0.797,1.863
				c0.611,0.665,1.664,1.274,3.152,1.828c1.49,0.554,2.53,1.312,3.123,2.277c0.422,0.695,0.633,1.436,0.633,2.221
				c0,0.299-0.031,0.605-0.091,0.92c-0.231,1.129-0.872,2.066-1.927,2.811c-1.055,0.745-2.468,1.149-4.244,1.217
				c-0.12,0.008-0.24,0.012-0.359,0.012c-1.617,0-2.965-0.441-4.049-1.324c-1.043-0.845-1.564-2.382-1.564-4.61
				C254.405,13.686,254.415,13.405,254.435,13.113z"/>
			<path fill="#2B1C48" d="M272.163,18.521l-3.748,0.258c0-5.489-0.12-10.642-0.359-15.458l4.287-0.27
				C272.233,8.129,272.173,13.286,272.163,18.521z"/>
			<path fill="#2B1C48" d="M277.038,18.891c-1.225-5.04-2.674-10.31-4.35-15.806l4.395-0.337l2.574,12.295
				c1.312-4.3,2.387-8.192,3.22-11.678l4.169,0.382c-2.107,6.783-3.678,11.789-4.711,15.021L277.038,18.891z"/>
			<path fill="#2B1C48" d="M291.636,18.521l-3.746,0.258c0-5.489-0.121-10.642-0.361-15.458l4.289-0.27
				C291.706,8.129,291.646,13.286,291.636,18.521z"/>
		</g>
	</g>
	<g>
		<g>
			<g>
				<path fill="#81AD38" d="M85.232,102.938c-0.07,3.529-0.105,7.041-0.105,10.533c0,1.75,0.01,3.496,0.03,5.239l-3.732,0.146
					c-0.07-4.494-0.155-8.656-0.256-12.484c-0.843,0.127-1.986,0.441-3.431,0.941l-0.723-2.457l4.184-1.975L85.232,102.938z"/>
			</g>
			<g>
				<path fill="#81AD38" d="M234.567,108.144c-0.051-0.447-0.074-0.862-0.074-1.244c0-1.338,0.326-2.303,0.979-2.895
					c0.832-0.756,1.896-1.208,3.189-1.357c0.462-0.053,0.913-0.078,1.354-0.078c0.793,0,1.557,0.082,2.288,0.246
					c1.144,0.263,2.007,0.778,2.589,1.549c0.471,0.644,0.707,1.466,0.707,2.468c0,0.194-0.006,0.399-0.016,0.617
					c-0.12,1.286-0.641,2.471-1.559,3.551c-0.918,1.081-2.506,2.627-4.762,4.64l6.575,0.032l-0.045,2.815
					c-2.88,0.098-6.592,0.146-11.137,0.146l-0.347-3.062c2.729-2.198,4.676-3.89,5.84-5.07c1.062-1.085,1.595-2.149,1.595-3.196
					v-0.281c-0.11-1.121-0.742-1.683-1.896-1.683h-0.062c-1.003,0.022-1.505,0.702-1.505,2.041c0,0.255,0.015,0.527,0.045,0.819
					L234.567,108.144z"/>
			</g>
		</g>
		<g>
			<g>
				<g>
					<path fill="#585858" d="M21.188,47.547c-0.372,0.192-1.151,0.384-2.135,0.384c-2.279,0-3.982-1.439-3.982-4.102
						c0-2.543,1.715-4.246,4.222-4.246c0.995,0,1.644,0.216,1.919,0.36l-0.264,0.852c-0.384-0.192-0.947-0.336-1.619-0.336
						c-1.895,0-3.154,1.211-3.154,3.334c0,1.991,1.14,3.25,3.095,3.25c0.647,0,1.295-0.132,1.715-0.336L21.188,47.547z"/>
					<path fill="#585858" d="M27.596,44.849c0,2.146-1.499,3.082-2.891,3.082c-1.56,0-2.782-1.151-2.782-2.986
						c0-1.931,1.283-3.07,2.878-3.07C26.468,41.874,27.596,43.085,27.596,44.849z M23.002,44.908c0,1.271,0.72,2.231,1.751,2.231
						c1.008,0,1.763-0.948,1.763-2.255c0-0.983-0.491-2.219-1.738-2.219C23.542,42.666,23.002,43.817,23.002,44.908z"/>
					<path fill="#585858" d="M28.931,43.565c0-0.612-0.024-1.092-0.049-1.571h0.924l0.048,0.947h0.036
						c0.324-0.552,0.863-1.067,1.835-1.067c0.779,0,1.379,0.479,1.631,1.163h0.024c0.18-0.336,0.42-0.575,0.659-0.755
						c0.348-0.265,0.72-0.408,1.271-0.408c0.779,0,1.919,0.504,1.919,2.519v3.406h-1.031v-3.274c0-1.127-0.42-1.787-1.26-1.787
						c-0.611,0-1.067,0.444-1.259,0.948c-0.048,0.155-0.084,0.335-0.084,0.527v3.586h-1.031V44.32c0-0.923-0.408-1.583-1.212-1.583
						c-0.647,0-1.139,0.528-1.307,1.056c-0.061,0.144-0.084,0.336-0.084,0.516v3.49H28.93L28.931,43.565L28.931,43.565z"/>
					<path fill="#585858" d="M38.938,43.889c0-0.743-0.024-1.343-0.049-1.895h0.936l0.061,0.995h0.023
						c0.42-0.707,1.115-1.115,2.063-1.115c1.415,0,2.471,1.188,2.471,2.938c0,2.087-1.283,3.118-2.651,3.118
						c-0.768,0-1.438-0.336-1.786-0.911h-0.024v3.154h-1.043L38.938,43.889L38.938,43.889z M39.981,45.437
						c0,0.155,0.012,0.3,0.048,0.432c0.192,0.731,0.828,1.235,1.583,1.235c1.115,0,1.764-0.912,1.764-2.243
						c0-1.151-0.612-2.146-1.728-2.146c-0.72,0-1.403,0.504-1.595,1.295c-0.036,0.132-0.072,0.288-0.072,0.42V45.437z"/>
					<path fill="#585858" d="M51.02,44.849c0,2.146-1.499,3.082-2.891,3.082c-1.56,0-2.782-1.151-2.782-2.986
						c0-1.931,1.283-3.07,2.878-3.07C49.892,41.874,51.02,43.085,51.02,44.849z M46.426,44.908c0,1.271,0.72,2.231,1.751,2.231
						c1.008,0,1.763-0.948,1.763-2.255c0-0.983-0.491-2.219-1.738-2.219C46.966,42.666,46.426,43.817,46.426,44.908z"/>
					<path fill="#585858" d="M52.354,43.565c0-0.612-0.013-1.092-0.049-1.571h0.936l0.061,0.959h0.023
						c0.288-0.539,0.96-1.079,1.919-1.079c0.804,0,2.051,0.479,2.051,2.471v3.454H56.24v-3.346c0-0.936-0.348-1.716-1.344-1.716
						c-0.684,0-1.224,0.492-1.415,1.08c-0.048,0.132-0.072,0.312-0.072,0.491v3.49h-1.055V43.565z"/>
					<path fill="#585858" d="M59.602,45.088c0.024,1.428,0.924,2.016,1.991,2.016c0.756,0,1.224-0.132,1.607-0.3l0.191,0.755
						c-0.372,0.168-1.02,0.372-1.942,0.372c-1.787,0-2.854-1.188-2.854-2.938s1.031-3.118,2.723-3.118
						c1.906,0,2.398,1.655,2.398,2.723c0,0.216-0.013,0.372-0.036,0.491L59.602,45.088L59.602,45.088z M62.696,44.333
						c0.012-0.66-0.276-1.703-1.463-1.703c-1.08,0-1.535,0.972-1.619,1.703H62.696z"/>
					<path fill="#585858" d="M65.026,43.565c0-0.612-0.013-1.092-0.049-1.571h0.936l0.061,0.959h0.023
						c0.288-0.539,0.96-1.079,1.919-1.079c0.804,0,2.051,0.479,2.051,2.471v3.454h-1.055v-3.346c0-0.936-0.348-1.716-1.344-1.716
						c-0.684,0-1.224,0.492-1.415,1.08c-0.048,0.132-0.072,0.312-0.072,0.491v3.49h-1.055V43.565z"/>
					<path fill="#585858" d="M72.909,40.603v1.392h1.512v0.804h-1.512v3.13c0,0.72,0.204,1.128,0.792,1.128
						c0.288,0,0.456-0.024,0.611-0.072l0.048,0.804c-0.203,0.071-0.527,0.144-0.936,0.144c-0.491,0-0.887-0.168-1.139-0.443
						c-0.288-0.324-0.408-0.84-0.408-1.523v-3.166h-0.899v-0.804h0.899v-1.079L72.909,40.603z"/>
					<path fill="#585858" d="M76.125,45.088c0.024,1.428,0.924,2.016,1.991,2.016c0.756,0,1.224-0.132,1.607-0.3l0.191,0.755
						c-0.372,0.168-1.02,0.372-1.942,0.372c-1.787,0-2.854-1.188-2.854-2.938s1.031-3.118,2.723-3.118
						c1.906,0,2.398,1.655,2.398,2.723c0,0.216-0.013,0.372-0.036,0.491L76.125,45.088L76.125,45.088z M79.22,44.333
						c0.012-0.66-0.276-1.703-1.463-1.703c-1.08,0-1.535,0.972-1.619,1.703H79.22z"/>
					<path fill="#585858" d="M89.095,39.283V46.3c0,0.516,0.023,1.104,0.048,1.499h-0.936l-0.048-1.008h-0.036
						c-0.312,0.648-1.008,1.14-1.955,1.14c-1.403,0-2.494-1.188-2.494-2.95c-0.013-1.931,1.199-3.106,2.603-3.106
						c0.899,0,1.487,0.42,1.751,0.876h0.023v-3.467L89.095,39.283L89.095,39.283z M88.051,44.356c0-0.132-0.012-0.312-0.048-0.443
						c-0.155-0.66-0.731-1.212-1.522-1.212c-1.092,0-1.739,0.96-1.739,2.231c0,1.175,0.587,2.146,1.715,2.146
						c0.708,0,1.355-0.479,1.547-1.259c0.036-0.145,0.048-0.288,0.048-0.456L88.051,44.356L88.051,44.356z"/>
					<path fill="#585858" d="M91.448,45.088c0.024,1.428,0.924,2.016,1.991,2.016c0.756,0,1.224-0.132,1.607-0.3l0.191,0.755
						c-0.372,0.168-1.02,0.372-1.942,0.372c-1.787,0-2.854-1.188-2.854-2.938s1.031-3.118,2.723-3.118
						c1.906,0,2.398,1.655,2.398,2.723c0,0.216-0.012,0.372-0.036,0.491L91.448,45.088L91.448,45.088z M94.543,44.333
						c0.012-0.66-0.276-1.703-1.463-1.703c-1.08,0-1.535,0.972-1.619,1.703H94.543z"/>
					<path fill="#585858" d="M100.76,45.256l-0.84,2.543h-1.079l2.759-8.084h1.247l2.759,8.084h-1.115l-0.864-2.543H100.76z
						 M103.422,44.44l-0.803-2.326c-0.181-0.528-0.3-1.008-0.42-1.476h-0.024c-0.12,0.468-0.239,0.972-0.407,1.463l-0.792,2.339
						H103.422z"/>
					<path fill="#585858" d="M107.911,40.603v1.392h1.512v0.804h-1.512v3.13c0,0.72,0.204,1.128,0.792,1.128
						c0.288,0,0.456-0.024,0.611-0.072l0.048,0.804c-0.203,0.071-0.527,0.144-0.936,0.144c-0.491,0-0.887-0.168-1.139-0.443
						c-0.288-0.324-0.408-0.84-0.408-1.523v-3.166h-0.899v-0.804h0.899v-1.079L107.911,40.603z"/>
					<path fill="#585858" d="M111.128,45.088c0.024,1.428,0.924,2.016,1.991,2.016c0.756,0,1.224-0.132,1.607-0.3l0.191,0.755
						c-0.372,0.168-1.02,0.372-1.942,0.372c-1.787,0-2.854-1.188-2.854-2.938s1.031-3.118,2.723-3.118
						c1.906,0,2.398,1.655,2.398,2.723c0,0.216-0.012,0.372-0.036,0.491L111.128,45.088L111.128,45.088z M114.223,44.333
						c0.012-0.66-0.276-1.703-1.463-1.703c-1.08,0-1.535,0.972-1.619,1.703H114.223z"/>
					<path fill="#585858" d="M116.553,43.565c0-0.612-0.013-1.092-0.049-1.571h0.936l0.061,0.959h0.023
						c0.288-0.539,0.96-1.079,1.919-1.079c0.804,0,2.051,0.479,2.051,2.471v3.454h-1.055v-3.346c0-0.936-0.349-1.716-1.344-1.716
						c-0.684,0-1.224,0.492-1.415,1.08c-0.048,0.132-0.072,0.312-0.072,0.491v3.49h-1.055V43.565L116.553,43.565z"/>
					<path fill="#585858" d="M127.351,47.595c-0.276,0.132-0.888,0.336-1.668,0.336c-1.751,0-2.89-1.188-2.89-2.962
						c0-1.787,1.223-3.095,3.118-3.095c0.623,0,1.175,0.156,1.463,0.312l-0.239,0.804c-0.252-0.132-0.648-0.275-1.224-0.275
						c-1.331,0-2.051,0.995-2.051,2.194c0,1.344,0.863,2.171,2.015,2.171c0.6,0,0.995-0.144,1.295-0.275L127.351,47.595z"/>
					<path fill="#585858" d="M129.764,40.363c0,0.359-0.252,0.647-0.672,0.647c-0.384,0-0.636-0.288-0.636-0.647
						c0-0.36,0.265-0.66,0.66-0.66C129.5,39.703,129.764,39.991,129.764,40.363z M128.589,47.799v-5.805h1.055v5.805H128.589z"/>
					<path fill="#585858" d="M136.649,44.849c0,2.146-1.499,3.082-2.891,3.082c-1.56,0-2.782-1.151-2.782-2.986
						c0-1.931,1.283-3.07,2.878-3.07C135.521,41.874,136.649,43.085,136.649,44.849z M132.056,44.908
						c0,1.271,0.72,2.231,1.751,2.231c1.008,0,1.763-0.948,1.763-2.255c0-0.983-0.491-2.219-1.738-2.219
						C132.596,42.666,132.056,43.817,132.056,44.908z M135.39,39.487l-1.463,1.715h-0.744l1.044-1.715H135.39z"/>
					<path fill="#585858" d="M137.984,43.565c0-0.612-0.013-1.092-0.049-1.571h0.936l0.061,0.959h0.023
						c0.288-0.539,0.96-1.079,1.919-1.079c0.804,0,2.051,0.479,2.051,2.471v3.454h-1.055v-3.346c0-0.936-0.349-1.716-1.344-1.716
						c-0.684,0-1.224,0.492-1.415,1.08c-0.048,0.132-0.072,0.312-0.072,0.491v3.49h-1.055V43.565L137.984,43.565z"/>
					<path fill="#585858" d="M6.923,54.115v8.084H5.867v-8.084H6.923z"/>
					<path fill="#585858" d="M8.832,57.966c0-0.612-0.013-1.092-0.049-1.571h0.936l0.061,0.959h0.023
						c0.288-0.539,0.96-1.079,1.919-1.079c0.804,0,2.051,0.479,2.051,2.471V62.2h-1.055v-3.346c0-0.936-0.349-1.716-1.344-1.716
						c-0.684,0-1.224,0.492-1.415,1.08c-0.048,0.132-0.072,0.312-0.072,0.491v3.49H8.832V57.966z"/>
					<path fill="#585858" d="M16.715,55.003v1.392h1.512v0.804h-1.512v3.13c0,0.72,0.204,1.128,0.792,1.128
						c0.288,0,0.456-0.024,0.611-0.072l0.048,0.804c-0.203,0.071-0.527,0.144-0.936,0.144c-0.491,0-0.887-0.168-1.139-0.443
						c-0.288-0.324-0.408-0.84-0.408-1.523v-3.166h-0.899v-0.804h0.899v-1.079L16.715,55.003z"/>
					<path fill="#585858" d="M19.931,59.488c0.024,1.428,0.924,2.016,1.991,2.016c0.756,0,1.224-0.132,1.607-0.3l0.191,0.755
						c-0.372,0.168-1.02,0.372-1.942,0.372c-1.787,0-2.854-1.188-2.854-2.938s1.031-3.118,2.723-3.118
						c1.906,0,2.398,1.655,2.398,2.723c0,0.216-0.012,0.372-0.036,0.491h-4.078V59.488z M23.025,58.733
						c0.012-0.66-0.276-1.703-1.463-1.703c-1.08,0-1.535,0.972-1.619,1.703H23.025z"/>
					<path fill="#585858" d="M30.32,61.348c0,1.344-0.275,2.146-0.827,2.662c-0.576,0.517-1.392,0.696-2.123,0.696
						c-0.696,0-1.464-0.168-1.931-0.479l0.264-0.816c0.384,0.252,0.983,0.468,1.703,0.468c1.079,0,1.871-0.563,1.871-2.038v-0.636
						h-0.024c-0.312,0.539-0.947,0.971-1.847,0.971c-1.439,0-2.471-1.223-2.471-2.83c0-1.967,1.283-3.07,2.626-3.07
						c1.008,0,1.548,0.516,1.812,0.995h0.023l0.036-0.875h0.936c-0.036,0.407-0.048,0.888-0.048,1.583V61.348z M29.265,58.686
						c0-0.181-0.012-0.336-0.06-0.468c-0.192-0.624-0.695-1.128-1.476-1.128c-1.007,0-1.727,0.852-1.727,2.195
						c0,1.139,0.587,2.087,1.715,2.087c0.659,0,1.247-0.408,1.463-1.08c0.061-0.18,0.084-0.384,0.084-0.563L29.265,58.686
						L29.265,58.686z"/>
					<path fill="#585858" d="M31.991,58.205c0-0.684-0.013-1.271-0.049-1.811h0.924l0.048,1.151h0.036
						c0.264-0.779,0.911-1.271,1.619-1.271c0.108,0,0.192,0.012,0.288,0.024v0.995c-0.108-0.024-0.216-0.024-0.36-0.024
						c-0.743,0-1.271,0.552-1.415,1.344c-0.023,0.144-0.036,0.323-0.036,0.491v3.095h-1.055V58.205z"/>
					<path fill="#585858" d="M39.933,60.808c0,0.504,0.024,0.996,0.084,1.392H39.07l-0.084-0.731H38.95
						c-0.324,0.456-0.947,0.863-1.775,0.863c-1.175,0-1.774-0.827-1.774-1.667c0-1.403,1.247-2.171,3.49-2.159v-0.119
						c0-0.468-0.132-1.344-1.319-1.332c-0.552,0-1.115,0.156-1.523,0.432l-0.24-0.707c0.48-0.3,1.188-0.504,1.919-0.504
						c1.775,0,2.207,1.211,2.207,2.362v2.17H39.933z M38.913,59.237c-1.151-0.024-2.458,0.18-2.458,1.307
						c0,0.695,0.455,1.008,0.983,1.008c0.768,0,1.259-0.479,1.427-0.972c0.036-0.12,0.048-0.24,0.048-0.336V59.237z"/>
					<path fill="#585858" d="M41.64,53.684h1.055V62.2H41.64V53.684z"/>
					<path fill="#585858" d="M47.603,59.488c0.024,1.428,0.924,2.016,1.991,2.016c0.756,0,1.224-0.132,1.607-0.3l0.191,0.755
						c-0.372,0.168-1.02,0.372-1.942,0.372c-1.787,0-2.854-1.188-2.854-2.938s1.031-3.118,2.723-3.118
						c1.906,0,2.398,1.655,2.398,2.723c0,0.216-0.012,0.372-0.036,0.491h-4.078V59.488z M50.697,58.733
						c0.012-0.66-0.276-1.703-1.463-1.703c-1.08,0-1.535,0.972-1.619,1.703H50.697z"/>
					<path fill="#585858" d="M53.027,57.966c0-0.612-0.013-1.092-0.049-1.571h0.936l0.061,0.959h0.023
						c0.288-0.539,0.96-1.079,1.919-1.079c0.804,0,2.051,0.479,2.051,2.471V62.2h-1.055v-3.346c0-0.936-0.349-1.716-1.344-1.716
						c-0.684,0-1.224,0.492-1.415,1.08c-0.048,0.132-0.072,0.312-0.072,0.491v3.49h-1.055V57.966L53.027,57.966z"/>
					<path fill="#585858" d="M62.135,60.928c0.468,0.3,1.14,0.528,1.859,0.528c1.067,0,1.691-0.564,1.691-1.38
						c0-0.743-0.433-1.188-1.523-1.595c-1.319-0.479-2.135-1.176-2.135-2.303c0-1.26,1.043-2.195,2.614-2.195
						c0.815,0,1.428,0.192,1.775,0.396l-0.288,0.852c-0.252-0.156-0.792-0.384-1.523-0.384c-1.104,0-1.523,0.659-1.523,1.211
						c0,0.756,0.492,1.127,1.607,1.56c1.367,0.527,2.051,1.187,2.051,2.374c0,1.247-0.911,2.339-2.818,2.339
						c-0.779,0-1.631-0.24-2.062-0.527L62.135,60.928z"/>
					<path fill="#585858" d="M72.261,60.808c0,0.504,0.024,0.996,0.084,1.392h-0.947l-0.084-0.731h-0.036
						c-0.324,0.456-0.947,0.863-1.775,0.863c-1.175,0-1.774-0.827-1.774-1.667c0-1.403,1.247-2.171,3.49-2.159v-0.119
						c0-0.468-0.132-1.344-1.319-1.332c-0.552,0-1.115,0.156-1.523,0.432l-0.24-0.707c0.48-0.3,1.188-0.504,1.919-0.504
						c1.775,0,2.207,1.211,2.207,2.362v2.17H72.261z M71.241,59.237c-1.151-0.024-2.458,0.18-2.458,1.307
						c0,0.695,0.455,1.008,0.983,1.008c0.768,0,1.259-0.479,1.427-0.972c0.036-0.12,0.048-0.24,0.048-0.336V59.237z"/>
					<path fill="#585858" d="M73.968,53.684h1.055V62.2h-1.055V53.684z"/>
					<path fill="#585858" d="M81.656,60.604c0,0.611,0.013,1.139,0.049,1.595H80.77l-0.061-0.947h-0.023
						c-0.265,0.468-0.888,1.079-1.919,1.079c-0.912,0-2.003-0.516-2.003-2.543v-3.394h1.055v3.202c0,1.104,0.349,1.859,1.296,1.859
						c0.707,0,1.199-0.492,1.391-0.972c0.061-0.145,0.097-0.336,0.097-0.54v-3.55h1.055v4.211H81.656z"/>
					<path fill="#585858" d="M88.413,53.684V60.7c0,0.516,0.023,1.104,0.048,1.499h-0.936l-0.048-1.008h-0.036
						c-0.312,0.648-1.008,1.14-1.955,1.14c-1.403,0-2.494-1.188-2.494-2.95c-0.013-1.931,1.199-3.106,2.603-3.106
						c0.899,0,1.487,0.42,1.751,0.876h0.023v-3.467H88.413z M87.369,58.757c0-0.132-0.012-0.312-0.048-0.443
						c-0.155-0.66-0.731-1.212-1.522-1.212c-1.092,0-1.739,0.96-1.739,2.231c0,1.175,0.587,2.146,1.715,2.146
						c0.708,0,1.355-0.479,1.547-1.259c0.036-0.145,0.048-0.288,0.048-0.456L87.369,58.757L87.369,58.757z"/>
					<path fill="#585858" d="M96.861,61.995c-0.276,0.132-0.888,0.336-1.668,0.336c-1.751,0-2.89-1.188-2.89-2.962
						c0-1.787,1.223-3.095,3.118-3.095c0.623,0,1.175,0.156,1.463,0.312l-0.24,0.804c-0.251-0.132-0.647-0.275-1.223-0.275
						c-1.331,0-2.051,0.995-2.051,2.194c0,1.344,0.863,2.171,2.015,2.171c0.6,0,0.995-0.144,1.295-0.275L96.861,61.995z"/>
					<path fill="#585858" d="M103.28,59.249c0,2.146-1.499,3.082-2.891,3.082c-1.56,0-2.782-1.151-2.782-2.986
						c0-1.931,1.283-3.07,2.878-3.07C102.152,56.274,103.28,57.485,103.28,59.249z M98.687,59.309c0,1.271,0.72,2.231,1.751,2.231
						c1.008,0,1.763-0.948,1.763-2.255c0-0.983-0.491-2.219-1.738-2.219C99.227,57.066,98.687,58.218,98.687,59.309z"/>
					<path fill="#585858" d="M104.615,57.966c0-0.612-0.013-1.092-0.049-1.571h0.936l0.061,0.959h0.023
						c0.288-0.539,0.96-1.079,1.919-1.079c0.804,0,2.051,0.479,2.051,2.471V62.2h-1.055v-3.346c0-0.936-0.349-1.716-1.344-1.716
						c-0.684,0-1.224,0.492-1.415,1.08c-0.048,0.132-0.072,0.312-0.072,0.491v3.49h-1.055V57.966z"/>
					<path fill="#585858" d="M114.406,59.488c0.024,1.428,0.924,2.016,1.991,2.016c0.756,0,1.224-0.132,1.607-0.3l0.191,0.755
						c-0.372,0.168-1.02,0.372-1.942,0.372c-1.787,0-2.854-1.188-2.854-2.938s1.031-3.118,2.723-3.118
						c1.906,0,2.398,1.655,2.398,2.723c0,0.216-0.013,0.372-0.036,0.491h-4.078V59.488z M117.501,58.733
						c0.012-0.66-0.276-1.703-1.463-1.703c-1.08,0-1.535,0.972-1.619,1.703H117.501z"/>
					<path fill="#585858" d="M119.831,57.966c0-0.612-0.013-1.092-0.049-1.571h0.936l0.061,0.959h0.023
						c0.288-0.539,0.96-1.079,1.919-1.079c0.804,0,2.051,0.479,2.051,2.471V62.2h-1.055v-3.346c0-0.936-0.348-1.716-1.344-1.716
						c-0.684,0-1.224,0.492-1.415,1.08c-0.048,0.132-0.072,0.312-0.072,0.491v3.49h-1.055V57.966z"/>
					<path fill="#585858" d="M126.599,62.199v-5.001h-0.804v-0.804h0.804v-0.276c0-0.815,0.192-1.559,0.672-2.026
						c0.396-0.384,0.923-0.54,1.415-0.54c0.384,0,0.695,0.084,0.899,0.168l-0.144,0.815c-0.156-0.071-0.36-0.132-0.672-0.132
						c-0.899,0-1.127,0.779-1.127,1.68v0.312h1.402v0.804h-1.402V62.2L126.599,62.199L126.599,62.199z"/>
					<path fill="#585858" d="M135.092,59.249c0,2.146-1.499,3.082-2.891,3.082c-1.56,0-2.782-1.151-2.782-2.986
						c0-1.931,1.283-3.07,2.878-3.07C133.964,56.274,135.092,57.485,135.092,59.249z M130.498,59.309
						c0,1.271,0.72,2.231,1.751,2.231c1.008,0,1.763-0.948,1.763-2.255c0-0.983-0.491-2.219-1.738-2.219
						C131.038,57.066,130.498,58.218,130.498,59.309z"/>
					<path fill="#585858" d="M140.384,61.312h-0.023c-0.324,0.563-0.96,1.02-1.896,1.02c-1.354,0-2.458-1.163-2.458-2.927
						c0-2.183,1.403-3.13,2.626-3.13c0.899,0,1.499,0.443,1.787,0.995h0.024l0.036-0.875h0.995
						c-0.024,0.479-0.048,0.995-0.048,1.595v6.585h-1.044L140.384,61.312L140.384,61.312z M140.384,58.745
						c0-0.144-0.012-0.3-0.048-0.432c-0.168-0.647-0.72-1.199-1.511-1.199c-1.092,0-1.751,0.923-1.751,2.219
						c0,1.163,0.552,2.158,1.715,2.158c0.684,0,1.271-0.419,1.511-1.139c0.048-0.156,0.084-0.36,0.084-0.516V58.745L140.384,58.745z
						"/>
					<path fill="#585858" d="M148.039,60.604c0,0.611,0.013,1.139,0.049,1.595h-0.936l-0.061-0.947h-0.023
						c-0.265,0.468-0.888,1.079-1.919,1.079c-0.912,0-2.003-0.516-2.003-2.543v-3.394h1.055v3.202c0,1.104,0.349,1.859,1.296,1.859
						c0.707,0,1.199-0.492,1.391-0.972c0.061-0.145,0.097-0.336,0.097-0.54v-3.55h1.055L148.039,60.604L148.039,60.604z"/>
					<path fill="#585858" d="M150.383,59.488c0.024,1.428,0.924,2.016,1.991,2.016c0.756,0,1.224-0.132,1.607-0.3l0.191,0.755
						c-0.372,0.168-1.02,0.372-1.942,0.372c-1.787,0-2.854-1.188-2.854-2.938s1.031-3.118,2.723-3.118
						c1.906,0,2.398,1.655,2.398,2.723c0,0.216-0.013,0.372-0.036,0.491h-4.078V59.488z M153.478,58.733
						c0.012-0.66-0.276-1.703-1.463-1.703c-1.08,0-1.535,0.972-1.619,1.703H153.478z"/>
					<path fill="#585858" d="M12.013,72.688c0-0.742-0.024-1.342-0.049-1.895H12.9l0.061,0.995h0.023
						c0.42-0.707,1.115-1.115,2.063-1.115c1.415,0,2.471,1.188,2.471,2.938c0,2.087-1.283,3.117-2.651,3.117
						c-0.768,0-1.438-0.336-1.786-0.91h-0.024v3.154h-1.043L12.013,72.688L12.013,72.688z M13.056,74.237
						c0,0.154,0.012,0.3,0.048,0.432c0.192,0.73,0.828,1.234,1.583,1.234c1.115,0,1.764-0.911,1.764-2.242
						c0-1.151-0.612-2.146-1.728-2.146c-0.72,0-1.403,0.504-1.595,1.295c-0.036,0.133-0.072,0.289-0.072,0.42V74.237z"/>
					<path fill="#585858" d="M18.696,75.532c0.324,0.191,0.876,0.408,1.403,0.408c0.756,0,1.115-0.373,1.115-0.864
						c0-0.504-0.3-0.769-1.067-1.056c-1.056-0.384-1.547-0.947-1.547-1.644c0-0.937,0.768-1.703,2.003-1.703
						c0.588,0,1.104,0.156,1.415,0.359l-0.252,0.768c-0.228-0.144-0.647-0.348-1.188-0.348c-0.623,0-0.959,0.36-0.959,0.792
						c0,0.479,0.336,0.695,1.091,0.995c0.996,0.372,1.523,0.876,1.523,1.739c0,1.03-0.804,1.75-2.158,1.75
						c-0.636,0-1.224-0.168-1.632-0.406L18.696,75.532z"/>
					<path fill="#585858" d="M24.768,69.164c0,0.358-0.252,0.647-0.672,0.647c-0.384,0-0.636-0.289-0.636-0.647
						c0-0.36,0.265-0.66,0.66-0.66C24.504,68.504,24.768,68.792,24.768,69.164z M23.593,76.601v-5.806h1.055v5.806H23.593z"/>
					<path fill="#585858" d="M30.538,76.396c-0.276,0.133-0.888,0.336-1.668,0.336c-1.751,0-2.89-1.188-2.89-2.961
						c0-1.787,1.223-3.096,3.118-3.096c0.623,0,1.175,0.156,1.463,0.312l-0.239,0.804c-0.252-0.132-0.648-0.274-1.224-0.274
						c-1.331,0-2.051,0.994-2.051,2.193c0,1.344,0.863,2.171,2.015,2.171c0.6,0,0.995-0.144,1.295-0.274L30.538,76.396z"/>
					<path fill="#585858" d="M36.957,73.649c0,2.146-1.499,3.082-2.891,3.082c-1.56,0-2.782-1.151-2.782-2.986
						c0-1.932,1.283-3.07,2.878-3.07C35.829,70.675,36.957,71.886,36.957,73.649z M32.363,73.709c0,1.271,0.72,2.231,1.751,2.231
						c1.008,0,1.763-0.948,1.763-2.256c0-0.982-0.491-2.219-1.738-2.219C32.903,71.467,32.363,72.618,32.363,73.709z"/>
					<path fill="#585858" d="M38.147,75.532c0.324,0.191,0.876,0.408,1.403,0.408c0.756,0,1.115-0.373,1.115-0.864
						c0-0.504-0.3-0.769-1.067-1.056c-1.056-0.384-1.547-0.947-1.547-1.644c0-0.937,0.768-1.703,2.003-1.703
						c0.588,0,1.104,0.156,1.415,0.359l-0.252,0.768c-0.228-0.144-0.647-0.348-1.188-0.348c-0.623,0-0.959,0.36-0.959,0.792
						c0,0.479,0.336,0.695,1.091,0.995c0.996,0.372,1.523,0.876,1.523,1.739c0,1.03-0.804,1.75-2.158,1.75
						c-0.636,0-1.224-0.168-1.632-0.406L38.147,75.532z"/>
					<path fill="#585858" d="M48.297,73.649c0,2.146-1.499,3.082-2.891,3.082c-1.56,0-2.782-1.151-2.782-2.986
						c0-1.932,1.283-3.07,2.878-3.07C47.169,70.675,48.297,71.886,48.297,73.649z M43.703,73.709c0,1.271,0.72,2.231,1.751,2.231
						c1.008,0,1.763-0.948,1.763-2.256c0-0.982-0.491-2.219-1.738-2.219C44.243,71.467,43.703,72.618,43.703,73.709z"/>
					<path fill="#585858" d="M53.77,76.396c-0.276,0.133-0.888,0.336-1.668,0.336c-1.751,0-2.89-1.188-2.89-2.961
						c0-1.787,1.223-3.096,3.118-3.096c0.623,0,1.175,0.156,1.463,0.312l-0.24,0.804c-0.251-0.132-0.647-0.274-1.223-0.274
						c-1.331,0-2.051,0.994-2.051,2.193c0,1.344,0.863,2.171,2.015,2.171c0.6,0,0.995-0.144,1.295-0.274L53.77,76.396z"/>
					<path fill="#585858" d="M56.183,69.164c0,0.358-0.252,0.647-0.672,0.647c-0.384,0-0.636-0.289-0.636-0.647
						c0-0.36,0.265-0.66,0.66-0.66C55.919,68.504,56.183,68.792,56.183,69.164z M55.008,76.601v-5.806h1.055v5.806H55.008z"/>
					<path fill="#585858" d="M61.893,75.208c0,0.504,0.024,0.996,0.084,1.393H61.03l-0.084-0.731H60.91
						c-0.323,0.456-0.947,0.862-1.775,0.862c-1.175,0-1.774-0.826-1.774-1.666c0-1.403,1.247-2.172,3.49-2.159v-0.119
						c0-0.468-0.132-1.345-1.319-1.332c-0.552,0-1.115,0.155-1.523,0.432l-0.24-0.706c0.48-0.301,1.188-0.505,1.919-0.505
						c1.775,0,2.207,1.211,2.207,2.362v2.17H61.893z M60.873,73.638c-1.151-0.023-2.458,0.18-2.458,1.307
						c0,0.695,0.455,1.009,0.983,1.009c0.768,0,1.259-0.479,1.427-0.972c0.036-0.121,0.048-0.24,0.048-0.336V73.638z"/>
					<path fill="#585858" d="M63.6,68.084h1.055v8.517H63.6V68.084z"/>
					<path fill="#585858" d="M68.976,72.688c0-0.742-0.024-1.342-0.049-1.895h0.936l0.061,0.995h0.023
						c0.42-0.707,1.115-1.115,2.063-1.115c1.415,0,2.471,1.188,2.471,2.938c0,2.087-1.283,3.117-2.651,3.117
						c-0.768,0-1.438-0.336-1.786-0.91H70.02v3.154h-1.043L68.976,72.688L68.976,72.688z M70.019,74.237
						c0,0.154,0.012,0.3,0.048,0.432c0.192,0.73,0.828,1.234,1.583,1.234c1.115,0,1.764-0.911,1.764-2.242
						c0-1.151-0.612-2.146-1.728-2.146c-0.72,0-1.403,0.504-1.595,1.295c-0.036,0.133-0.072,0.289-0.072,0.42V74.237z"/>
					<path fill="#585858" d="M79.881,75.208c0,0.504,0.024,0.996,0.084,1.393h-0.947l-0.084-0.731h-0.036
						c-0.323,0.456-0.947,0.862-1.775,0.862c-1.175,0-1.774-0.826-1.774-1.666c0-1.403,1.247-2.172,3.49-2.159v-0.119
						c0-0.468-0.132-1.345-1.319-1.332c-0.552,0-1.115,0.155-1.523,0.432l-0.24-0.706c0.48-0.301,1.188-0.505,1.919-0.505
						c1.775,0,2.207,1.211,2.207,2.362v2.17H79.881z M78.861,73.638c-1.151-0.023-2.458,0.18-2.458,1.307
						c0,0.695,0.455,1.009,0.983,1.009c0.768,0,1.259-0.479,1.427-0.972c0.036-0.121,0.048-0.24,0.048-0.336V73.638z"/>
					<path fill="#585858" d="M81.588,72.604c0-0.684-0.013-1.271-0.049-1.811h0.924l0.048,1.15h0.036
						c0.264-0.778,0.911-1.271,1.619-1.271c0.108,0,0.191,0.013,0.288,0.024v0.994c-0.108-0.023-0.216-0.023-0.36-0.023
						c-0.743,0-1.271,0.553-1.415,1.344c-0.023,0.145-0.036,0.323-0.036,0.491v3.097h-1.055V72.604z"/>
					<path fill="#585858" d="M89.529,75.208c0,0.504,0.024,0.996,0.084,1.393h-0.947l-0.084-0.731h-0.036
						c-0.323,0.456-0.947,0.862-1.775,0.862c-1.175,0-1.774-0.826-1.774-1.666c0-1.403,1.247-2.172,3.49-2.159v-0.119
						c0-0.468-0.132-1.345-1.319-1.332c-0.552,0-1.115,0.155-1.523,0.432l-0.24-0.706c0.48-0.301,1.188-0.505,1.919-0.505
						c1.775,0,2.207,1.211,2.207,2.362v2.17H89.529z M88.51,73.638c-1.151-0.023-2.458,0.18-2.458,1.307
						c0,0.695,0.455,1.009,0.983,1.009c0.768,0,1.259-0.479,1.427-0.972c0.036-0.121,0.048-0.24,0.048-0.336V73.638z"/>
					<path fill="#585858" d="M93.78,68.084h1.055v8.517H93.78V68.084z"/>
					<path fill="#585858" d="M100.689,75.208c0,0.504,0.024,0.996,0.084,1.393h-0.947l-0.084-0.731h-0.036
						c-0.323,0.456-0.947,0.862-1.775,0.862c-1.175,0-1.774-0.826-1.774-1.666c0-1.403,1.247-2.172,3.49-2.159v-0.119
						c0-0.468-0.132-1.345-1.319-1.332c-0.552,0-1.115,0.155-1.523,0.432l-0.24-0.706c0.48-0.301,1.188-0.505,1.919-0.505
						c1.775,0,2.207,1.211,2.207,2.362v2.17H100.689z M99.67,73.638c-1.151-0.023-2.458,0.18-2.458,1.307
						c0,0.695,0.455,1.009,0.983,1.009c0.768,0,1.259-0.479,1.427-0.972c0.036-0.121,0.048-0.24,0.048-0.336V73.638z"/>
					<path fill="#585858" d="M102.252,75.532c0.324,0.191,0.876,0.408,1.403,0.408c0.756,0,1.115-0.373,1.115-0.864
						c0-0.504-0.3-0.769-1.067-1.056c-1.056-0.384-1.547-0.947-1.547-1.644c0-0.937,0.768-1.703,2.003-1.703
						c0.588,0,1.104,0.156,1.415,0.359l-0.252,0.768c-0.228-0.144-0.647-0.348-1.188-0.348c-0.623,0-0.959,0.36-0.959,0.792
						c0,0.479,0.336,0.695,1.091,0.995c0.996,0.372,1.523,0.876,1.523,1.739c0,1.03-0.804,1.75-2.159,1.75
						c-0.635,0-1.223-0.168-1.631-0.406L102.252,75.532z"/>
					<path fill="#585858" d="M110.1,70.795l1.14,3.25c0.191,0.54,0.348,1.021,0.468,1.499h0.036c0.132-0.479,0.3-0.959,0.491-1.499
						l1.128-3.25h1.103l-2.278,5.806h-1.008l-2.206-5.806H110.1z"/>
					<path fill="#585858" d="M117.61,68.288l-1.463,1.715h-0.744l1.056-1.715H117.61z M115.464,76.601v-5.806h1.055v5.806H115.464z"
						/>
					<path fill="#585858" d="M122.409,76.396c-0.276,0.133-0.888,0.336-1.668,0.336c-1.751,0-2.89-1.188-2.89-2.961
						c0-1.787,1.223-3.096,3.118-3.096c0.623,0,1.175,0.156,1.463,0.312l-0.239,0.804c-0.252-0.132-0.648-0.274-1.224-0.274
						c-1.331,0-2.051,0.994-2.051,2.193c0,1.344,0.863,2.171,2.015,2.171c0.6,0,0.995-0.144,1.295-0.274L122.409,76.396z"/>
					<path fill="#585858" d="M125.074,69.403v1.392h1.512v0.804h-1.512v3.131c0,0.72,0.204,1.127,0.792,1.127
						c0.288,0,0.456-0.023,0.611-0.071l0.048,0.804c-0.203,0.071-0.527,0.145-0.936,0.145c-0.491,0-0.887-0.168-1.139-0.443
						c-0.288-0.324-0.408-0.84-0.408-1.523v-3.166h-0.899v-0.804h0.899v-1.079L125.074,69.403z"/>
					<path fill="#585858" d="M128.95,69.164c0,0.358-0.252,0.647-0.672,0.647c-0.384,0-0.636-0.289-0.636-0.647
						c0-0.36,0.265-0.66,0.66-0.66C128.687,68.504,128.95,68.792,128.95,69.164z M127.775,76.601v-5.806h1.055v5.806H127.775z"/>
					<path fill="#585858" d="M130.583,72.366c0-0.612-0.024-1.092-0.049-1.571h0.924l0.048,0.947h0.036
						c0.324-0.552,0.863-1.067,1.835-1.067c0.779,0,1.379,0.479,1.631,1.163h0.024c0.18-0.336,0.42-0.575,0.659-0.755
						c0.348-0.266,0.72-0.408,1.271-0.408c0.779,0,1.919,0.504,1.919,2.52v3.406h-1.031v-3.274c0-1.127-0.42-1.787-1.26-1.787
						c-0.611,0-1.067,0.444-1.259,0.948c-0.048,0.154-0.084,0.335-0.084,0.527v3.586h-1.031v-3.479c0-0.923-0.408-1.583-1.212-1.583
						c-0.647,0-1.139,0.527-1.307,1.056c-0.061,0.144-0.084,0.337-0.084,0.517v3.49h-1.031L130.583,72.366L130.583,72.366z"/>
					<path fill="#585858" d="M144.668,75.208c0,0.504,0.024,0.996,0.084,1.393h-0.947l-0.084-0.731h-0.036
						c-0.323,0.456-0.947,0.862-1.775,0.862c-1.175,0-1.774-0.826-1.774-1.666c0-1.403,1.247-2.172,3.49-2.159v-0.119
						c0-0.468-0.132-1.345-1.319-1.332c-0.552,0-1.115,0.155-1.523,0.432l-0.24-0.706c0.48-0.301,1.188-0.505,1.919-0.505
						c1.775,0,2.207,1.211,2.207,2.362v2.17H144.668z M143.648,73.638c-1.151-0.023-2.458,0.18-2.458,1.307
						c0,0.695,0.455,1.009,0.983,1.009c0.768,0,1.259-0.479,1.427-0.972c0.036-0.121,0.048-0.24,0.048-0.336V73.638L143.648,73.638z
						"/>
					<path fill="#585858" d="M146.23,75.532c0.324,0.191,0.876,0.408,1.403,0.408c0.756,0,1.115-0.373,1.115-0.864
						c0-0.504-0.3-0.769-1.067-1.056c-1.056-0.384-1.547-0.947-1.547-1.644c0-0.937,0.768-1.703,2.003-1.703
						c0.588,0,1.104,0.156,1.415,0.359l-0.252,0.768c-0.228-0.144-0.647-0.348-1.188-0.348c-0.623,0-0.959,0.36-0.959,0.792
						c0,0.479,0.336,0.695,1.091,0.995c0.996,0.372,1.523,0.876,1.523,1.739c0,1.03-0.804,1.75-2.159,1.75
						c-0.635,0-1.223-0.168-1.631-0.406L146.23,75.532z"/>
					<path fill="#585858" d="M34.587,82.483V89.5c0,0.517,0.023,1.104,0.048,1.499h-0.936l-0.048-1.008h-0.036
						c-0.312,0.648-1.008,1.14-1.955,1.14c-1.403,0-2.494-1.188-2.494-2.95c-0.013-1.931,1.199-3.105,2.603-3.105
						c0.899,0,1.487,0.42,1.751,0.876h0.023v-3.468H34.587L34.587,82.483z M33.543,87.558c0-0.133-0.012-0.312-0.048-0.443
						c-0.155-0.66-0.731-1.213-1.522-1.213c-1.092,0-1.739,0.961-1.739,2.231c0,1.175,0.587,2.146,1.715,2.146
						c0.708,0,1.355-0.479,1.547-1.258c0.036-0.146,0.048-0.289,0.048-0.457L33.543,87.558L33.543,87.558z"/>
					<path fill="#585858" d="M36.94,88.288c0.024,1.428,0.924,2.016,1.991,2.016c0.756,0,1.224-0.132,1.607-0.3l0.191,0.755
						c-0.372,0.168-1.02,0.372-1.942,0.372c-1.787,0-2.854-1.188-2.854-2.938s1.031-3.117,2.723-3.117
						c1.906,0,2.398,1.654,2.398,2.723c0,0.217-0.012,0.372-0.036,0.491L36.94,88.288L36.94,88.288z M40.035,87.533
						c0.012-0.66-0.276-1.703-1.463-1.703c-1.08,0-1.535,0.972-1.619,1.703H40.035z"/>
					<path fill="#585858" d="M42.365,82.483h1.055v8.516h-1.055V82.483z"/>
					<path fill="#585858" d="M51.879,90.795c-0.276,0.132-0.888,0.336-1.668,0.336c-1.751,0-2.89-1.188-2.89-2.962
						c0-1.787,1.223-3.095,3.118-3.095c0.623,0,1.175,0.155,1.463,0.312l-0.24,0.805c-0.251-0.133-0.647-0.275-1.223-0.275
						c-1.331,0-2.051,0.995-2.051,2.193c0,1.345,0.863,2.172,2.015,2.172c0.6,0,0.995-0.145,1.295-0.275L51.879,90.795z"/>
					<path fill="#585858" d="M58.298,88.049c0,2.146-1.499,3.082-2.891,3.082c-1.56,0-2.782-1.151-2.782-2.985
						c0-1.932,1.283-3.07,2.878-3.07C57.17,85.074,58.298,86.285,58.298,88.049z M53.704,88.108c0,1.271,0.72,2.23,1.751,2.23
						c1.008,0,1.763-0.947,1.763-2.255c0-0.983-0.491-2.219-1.738-2.219C54.244,85.866,53.704,87.019,53.704,88.108z"/>
					<path fill="#585858" d="M59.633,86.767c0-0.613-0.013-1.093-0.049-1.572h0.936l0.061,0.959h0.023
						c0.288-0.538,0.96-1.078,1.919-1.078c0.804,0,2.051,0.479,2.051,2.471V91h-1.055v-3.347c0-0.936-0.349-1.715-1.344-1.715
						c-0.684,0-1.224,0.492-1.415,1.08c-0.048,0.131-0.072,0.312-0.072,0.49v3.49h-1.055V86.767z"/>
					<path fill="#585858" d="M66.4,90.999v-5.001h-0.804v-0.804H66.4v-0.252c0-0.815,0.276-1.535,0.815-2.004
						c0.456-0.383,1.056-0.588,1.871-0.588c0.672,0,1.295,0.146,1.739,0.385v8.264h-1.056v-7.676
						c-0.18-0.096-0.456-0.156-0.863-0.156c-1.092,0-1.463,0.805-1.463,1.729v0.299h1.354v0.805h-1.354V91L66.4,90.999L66.4,90.999z
						"/>
					<path fill="#585858" d="M73.744,83.563c0,0.358-0.252,0.646-0.672,0.646c-0.384,0-0.636-0.288-0.636-0.646
						c0-0.36,0.265-0.66,0.66-0.66C73.48,82.903,73.744,83.19,73.744,83.563z M72.569,90.999v-5.805h1.055v5.805H72.569z"/>
					<path fill="#585858" d="M79.515,90.795c-0.276,0.132-0.888,0.336-1.668,0.336c-1.751,0-2.89-1.188-2.89-2.962
						c0-1.787,1.223-3.095,3.118-3.095c0.623,0,1.175,0.155,1.463,0.312l-0.239,0.805c-0.252-0.133-0.648-0.275-1.224-0.275
						c-1.331,0-2.051,0.995-2.051,2.193c0,1.345,0.863,2.172,2.015,2.172c0.6,0,0.995-0.145,1.295-0.275L79.515,90.795z"/>
					<path fill="#585858" d="M82.18,83.803v1.392h1.512v0.805H82.18v3.13c0,0.72,0.204,1.128,0.792,1.128
						c0.288,0,0.456-0.023,0.611-0.072l0.048,0.805c-0.203,0.07-0.527,0.144-0.936,0.144c-0.491,0-0.887-0.168-1.139-0.442
						c-0.288-0.324-0.408-0.84-0.408-1.523v-3.166h-0.899v-0.804h0.899v-1.079L82.18,83.803z"/>
					<path fill="#585858" d="M90.062,88.049c0,2.146-1.499,3.082-2.891,3.082c-1.56,0-2.782-1.151-2.782-2.985
						c0-1.932,1.283-3.07,2.878-3.07C88.934,85.074,90.062,86.285,90.062,88.049z M85.468,88.108c0,1.271,0.72,2.23,1.751,2.23
						c1.008,0,1.763-0.947,1.763-2.255c0-0.983-0.491-2.219-1.738-2.219C86.008,85.866,85.468,87.019,85.468,88.108z"/>
					<path fill="#585858" d="M98.018,89.606c0,0.504,0.024,0.996,0.084,1.393h-0.947l-0.084-0.73h-0.036
						c-0.323,0.455-0.947,0.862-1.775,0.862c-1.175,0-1.774-0.827-1.774-1.667c0-1.402,1.247-2.171,3.49-2.158v-0.119
						c0-0.469-0.132-1.345-1.319-1.332c-0.552,0-1.115,0.155-1.523,0.432l-0.24-0.707c0.48-0.301,1.188-0.504,1.919-0.504
						c1.775,0,2.207,1.211,2.207,2.361v2.17H98.018z M96.998,88.037c-1.151-0.024-2.458,0.18-2.458,1.307
						c0,0.696,0.455,1.009,0.983,1.009c0.768,0,1.259-0.479,1.427-0.973c0.036-0.12,0.048-0.24,0.048-0.336V88.037z"/>
					<path fill="#585858" d="M99.725,87.005c0-0.684-0.013-1.271-0.049-1.811h0.924l0.048,1.15h0.036
						c0.264-0.779,0.911-1.271,1.619-1.271c0.108,0,0.191,0.012,0.288,0.024v0.994c-0.108-0.023-0.216-0.023-0.36-0.023
						c-0.743,0-1.271,0.552-1.415,1.344c-0.023,0.145-0.036,0.324-0.036,0.49v3.096h-1.055V87.005z"/>
					<path fill="#585858" d="M103.696,86.767c0-0.613-0.024-1.093-0.049-1.572h0.924l0.048,0.947h0.036
						c0.324-0.552,0.863-1.066,1.835-1.066c0.779,0,1.379,0.479,1.631,1.162h0.024c0.18-0.336,0.42-0.574,0.659-0.754
						c0.348-0.266,0.72-0.408,1.271-0.408c0.779,0,1.919,0.504,1.919,2.519V91h-1.031v-3.274c0-1.127-0.42-1.787-1.26-1.787
						c-0.611,0-1.067,0.444-1.259,0.948c-0.048,0.155-0.084,0.335-0.084,0.527V91h-1.031v-3.479c0-0.922-0.408-1.582-1.212-1.582
						c-0.647,0-1.139,0.527-1.307,1.056c-0.061,0.144-0.084,0.336-0.084,0.516V91h-1.031L103.696,86.767L103.696,86.767z"/>
					<path fill="#585858" d="M117.781,89.606c0,0.504,0.024,0.996,0.084,1.393h-0.947l-0.084-0.73h-0.036
						c-0.323,0.455-0.947,0.862-1.775,0.862c-1.175,0-1.774-0.827-1.774-1.667c0-1.402,1.247-2.171,3.49-2.158v-0.119
						c0-0.469-0.132-1.345-1.319-1.332c-0.552,0-1.115,0.155-1.523,0.432l-0.24-0.707c0.48-0.301,1.188-0.504,1.919-0.504
						c1.775,0,2.207,1.211,2.207,2.361v2.17H117.781z M116.762,88.037c-1.151-0.024-2.458,0.18-2.458,1.307
						c0,0.696,0.455,1.009,0.983,1.009c0.768,0,1.259-0.479,1.427-0.973c0.036-0.12,0.048-0.24,0.048-0.336V88.037z"/>
					<path fill="#585858" d="M124.489,82.483V89.5c0,0.517,0.023,1.104,0.048,1.499h-0.936l-0.048-1.008h-0.036
						c-0.312,0.648-1.008,1.14-1.955,1.14c-1.403,0-2.494-1.188-2.494-2.95c-0.013-1.931,1.199-3.105,2.603-3.105
						c0.899,0,1.487,0.42,1.751,0.876h0.023v-3.468H124.489L124.489,82.483z M123.445,87.558c0-0.133-0.012-0.312-0.048-0.443
						c-0.155-0.66-0.731-1.213-1.522-1.213c-1.092,0-1.739,0.961-1.739,2.231c0,1.175,0.587,2.146,1.715,2.146
						c0.708,0,1.355-0.479,1.547-1.258c0.036-0.146,0.048-0.289,0.048-0.457L123.445,87.558L123.445,87.558z"/>
					<path fill="#585858" d="M131.509,88.049c0,2.146-1.499,3.082-2.891,3.082c-1.56,0-2.782-1.151-2.782-2.985
						c0-1.932,1.283-3.07,2.878-3.07C130.381,85.074,131.509,86.285,131.509,88.049z M126.915,88.108c0,1.271,0.72,2.23,1.751,2.23
						c1.008,0,1.763-0.947,1.763-2.255c0-0.983-0.491-2.219-1.738-2.219C127.455,85.866,126.915,87.019,126.915,88.108z"/>
					<path fill="#585858" d="M132.305,90.375c0-0.433,0.3-0.755,0.719-0.755c0.42,0,0.708,0.312,0.708,0.755
						c0,0.433-0.288,0.756-0.731,0.756C132.592,91.131,132.305,90.808,132.305,90.375z"/>
				</g>
			</g>
			<g>
				<path fill="#585858" d="M181.374,48.854c-0.372,0.192-1.15,0.384-2.137,0.384c-2.277,0-3.98-1.439-3.98-4.102
					c0-2.543,1.715-4.246,4.223-4.246c0.994,0,1.644,0.216,1.918,0.36l-0.264,0.852c-0.384-0.192-0.947-0.336-1.619-0.336
					c-1.895,0-3.154,1.211-3.154,3.334c0,1.991,1.141,3.25,3.096,3.25c0.646,0,1.295-0.132,1.715-0.336L181.374,48.854z"/>
				<path fill="#585858" d="M187.782,46.156c0,2.146-1.499,3.082-2.891,3.082c-1.561,0-2.783-1.151-2.783-2.986
					c0-1.931,1.283-3.07,2.879-3.07C186.653,43.182,187.782,44.393,187.782,46.156z M183.188,46.216c0,1.271,0.72,2.231,1.75,2.231
					c1.009,0,1.764-0.948,1.764-2.255c0-0.983-0.491-2.219-1.738-2.219C183.729,43.974,183.188,45.125,183.188,46.216z"/>
				<path fill="#585858" d="M189.117,44.873c0-0.612-0.024-1.092-0.05-1.571h0.925l0.048,0.947h0.036
					c0.323-0.552,0.862-1.067,1.835-1.067c0.779,0,1.379,0.479,1.631,1.163h0.023c0.181-0.336,0.42-0.575,0.66-0.755
					c0.349-0.265,0.719-0.408,1.271-0.408c0.778,0,1.919,0.504,1.919,2.519v3.406h-1.031v-3.274c0-1.127-0.42-1.787-1.26-1.787
					c-0.611,0-1.066,0.444-1.259,0.948c-0.048,0.155-0.084,0.335-0.084,0.527v3.586h-1.031v-3.479c0-0.923-0.408-1.583-1.212-1.583
					c-0.646,0-1.139,0.528-1.307,1.056c-0.062,0.144-0.084,0.336-0.084,0.516v3.49h-1.031L189.117,44.873L189.117,44.873z"/>
				<path fill="#585858" d="M199.125,45.196c0-0.743-0.024-1.343-0.049-1.895h0.937l0.061,0.995h0.023
					c0.42-0.707,1.114-1.115,2.062-1.115c1.415,0,2.471,1.188,2.471,2.938c0,2.087-1.283,3.118-2.65,3.118
					c-0.769,0-1.438-0.336-1.787-0.911h-0.023v3.154h-1.043L199.125,45.196L199.125,45.196z M200.168,46.744
					c0,0.155,0.013,0.3,0.048,0.432c0.192,0.731,0.828,1.235,1.583,1.235c1.115,0,1.765-0.912,1.765-2.243
					c0-1.151-0.612-2.146-1.729-2.146c-0.72,0-1.402,0.504-1.595,1.295c-0.036,0.132-0.072,0.288-0.072,0.42V46.744z"/>
				<path fill="#585858" d="M211.206,46.156c0,2.146-1.499,3.082-2.891,3.082c-1.561,0-2.782-1.151-2.782-2.986
					c0-1.931,1.282-3.07,2.878-3.07C210.078,43.182,211.206,44.393,211.206,46.156z M206.612,46.216c0,1.271,0.72,2.231,1.75,2.231
					c1.009,0,1.764-0.948,1.764-2.255c0-0.983-0.491-2.219-1.738-2.219C207.151,43.974,206.612,45.125,206.612,46.216z"/>
				<path fill="#585858" d="M212.541,44.873c0-0.612-0.013-1.092-0.049-1.571h0.937l0.061,0.959h0.023
					c0.287-0.539,0.959-1.079,1.918-1.079c0.805,0,2.051,0.479,2.051,2.471v3.454h-1.055v-3.346c0-0.936-0.349-1.716-1.344-1.716
					c-0.684,0-1.225,0.492-1.415,1.08c-0.048,0.132-0.071,0.312-0.071,0.491v3.49h-1.056V44.873z"/>
				<path fill="#585858" d="M219.788,46.396c0.023,1.428,0.924,2.016,1.99,2.016c0.757,0,1.225-0.132,1.607-0.3l0.191,0.755
					c-0.372,0.168-1.02,0.372-1.942,0.372c-1.786,0-2.854-1.188-2.854-2.938s1.031-3.118,2.724-3.118
					c1.906,0,2.397,1.655,2.397,2.723c0,0.216-0.012,0.372-0.035,0.491L219.788,46.396L219.788,46.396z M222.883,45.641
					c0.013-0.66-0.276-1.703-1.463-1.703c-1.08,0-1.535,0.972-1.619,1.703H222.883z"/>
				<path fill="#585858" d="M225.213,44.873c0-0.612-0.013-1.092-0.049-1.571h0.937l0.061,0.959h0.023
					c0.287-0.539,0.959-1.079,1.918-1.079c0.805,0,2.051,0.479,2.051,2.471v3.454h-1.055v-3.346c0-0.936-0.349-1.716-1.344-1.716
					c-0.684,0-1.224,0.492-1.415,1.08c-0.048,0.132-0.071,0.312-0.071,0.491v3.49h-1.056V44.873z"/>
				<path fill="#585858" d="M233.095,41.91v1.392h1.512v0.804h-1.512v3.13c0,0.72,0.204,1.128,0.793,1.128
					c0.287,0,0.455-0.024,0.61-0.072l0.048,0.804c-0.203,0.071-0.527,0.144-0.936,0.144c-0.491,0-0.887-0.168-1.139-0.443
					c-0.289-0.324-0.408-0.84-0.408-1.523v-3.166h-0.899v-0.804h0.899v-1.079L233.095,41.91z"/>
				<path fill="#585858" d="M236.312,46.396c0.024,1.428,0.924,2.016,1.991,2.016c0.757,0,1.224-0.132,1.607-0.3l0.19,0.755
					c-0.371,0.168-1.02,0.372-1.941,0.372c-1.787,0-2.854-1.188-2.854-2.938s1.03-3.118,2.723-3.118
					c1.906,0,2.397,1.655,2.397,2.723c0,0.216-0.012,0.372-0.036,0.491L236.312,46.396L236.312,46.396z M239.406,45.641
					c0.012-0.66-0.276-1.703-1.464-1.703c-1.08,0-1.534,0.972-1.618,1.703H239.406z"/>
				<path fill="#585858" d="M249.281,40.591v7.017c0,0.516,0.022,1.104,0.048,1.499h-0.936l-0.049-1.008h-0.035
					c-0.312,0.648-1.009,1.14-1.955,1.14c-1.403,0-2.494-1.188-2.494-2.95c-0.014-1.931,1.199-3.106,2.603-3.106
					c0.899,0,1.487,0.42,1.751,0.876h0.023v-3.467L249.281,40.591L249.281,40.591z M248.237,45.664c0-0.132-0.012-0.312-0.049-0.443
					c-0.154-0.66-0.73-1.212-1.522-1.212c-1.091,0-1.738,0.96-1.738,2.231c0,1.175,0.589,2.146,1.716,2.146
					c0.707,0,1.354-0.479,1.547-1.259c0.035-0.145,0.047-0.288,0.047-0.456V45.664L248.237,45.664z"/>
				<path fill="#585858" d="M251.635,46.396c0.024,1.428,0.925,2.016,1.991,2.016c0.756,0,1.225-0.132,1.607-0.3l0.19,0.755
					c-0.372,0.168-1.021,0.372-1.942,0.372c-1.787,0-2.854-1.188-2.854-2.938s1.031-3.118,2.723-3.118
					c1.906,0,2.398,1.655,2.398,2.723c0,0.216-0.014,0.372-0.036,0.491L251.635,46.396L251.635,46.396z M254.729,45.641
					c0.012-0.66-0.276-1.703-1.463-1.703c-1.08,0-1.535,0.972-1.619,1.703H254.729z"/>
				<path fill="#585858" d="M263.683,47.715c0,0.504,0.023,0.996,0.084,1.392h-0.947l-0.084-0.731h-0.036
					c-0.323,0.456-0.947,0.863-1.775,0.863c-1.175,0-1.774-0.827-1.774-1.667c0-1.403,1.248-2.171,3.49-2.159v-0.119
					c0-0.468-0.132-1.344-1.318-1.332c-0.553,0-1.115,0.156-1.523,0.432l-0.24-0.707c0.48-0.3,1.188-0.504,1.92-0.504
					c1.774,0,2.207,1.211,2.207,2.362v2.17H263.683z M262.662,46.145c-1.151-0.024-2.458,0.18-2.458,1.307
					c0,0.696,0.455,1.008,0.982,1.008c0.769,0,1.26-0.479,1.428-0.972c0.035-0.12,0.048-0.24,0.048-0.336V46.145z"/>
				<path fill="#585858" d="M266.61,41.91v1.392h1.512v0.804h-1.512v3.13c0,0.72,0.203,1.128,0.791,1.128
					c0.289,0,0.457-0.024,0.611-0.072l0.049,0.804c-0.203,0.071-0.527,0.144-0.937,0.144c-0.491,0-0.888-0.168-1.14-0.443
					c-0.287-0.324-0.407-0.84-0.407-1.523v-3.166h-0.899v-0.804h0.899v-1.079L266.61,41.91z"/>
				<path fill="#585858" d="M269.827,46.396c0.023,1.428,0.924,2.016,1.99,2.016c0.757,0,1.225-0.132,1.607-0.3l0.191,0.755
					c-0.372,0.168-1.02,0.372-1.942,0.372c-1.786,0-2.854-1.188-2.854-2.938s1.031-3.118,2.724-3.118
					c1.906,0,2.397,1.655,2.397,2.723c0,0.216-0.012,0.372-0.035,0.491L269.827,46.396L269.827,46.396z M272.922,45.641
					c0.013-0.66-0.276-1.703-1.463-1.703c-1.08,0-1.535,0.972-1.619,1.703H272.922z"/>
				<path fill="#585858" d="M275.252,44.873c0-0.612-0.013-1.092-0.049-1.571h0.937l0.061,0.959h0.023
					c0.287-0.539,0.959-1.079,1.918-1.079c0.805,0,2.051,0.479,2.051,2.471v3.454h-1.055v-3.346c0-0.936-0.349-1.716-1.344-1.716
					c-0.684,0-1.225,0.492-1.415,1.08c-0.048,0.132-0.071,0.312-0.071,0.491v3.49h-1.056V44.873L275.252,44.873z"/>
				<path fill="#585858" d="M286.05,48.902c-0.275,0.132-0.888,0.336-1.668,0.336c-1.751,0-2.89-1.188-2.89-2.962
					c0-1.787,1.223-3.095,3.118-3.095c0.623,0,1.175,0.156,1.463,0.312l-0.239,0.804c-0.252-0.132-0.647-0.275-1.224-0.275
					c-1.332,0-2.051,0.995-2.051,2.194c0,1.344,0.862,2.171,2.015,2.171c0.6,0,0.995-0.144,1.295-0.275L286.05,48.902z"/>
				<path fill="#585858" d="M288.463,41.671c0,0.359-0.252,0.647-0.672,0.647c-0.384,0-0.636-0.288-0.636-0.647
					c0-0.36,0.265-0.66,0.66-0.66C288.199,41.011,288.463,41.299,288.463,41.671z M287.288,49.106v-5.805h1.055v5.805H287.288z"/>
				<path fill="#585858" d="M295.349,46.156c0,2.146-1.498,3.082-2.891,3.082c-1.561,0-2.782-1.151-2.782-2.986
					c0-1.931,1.283-3.07,2.878-3.07C294.222,43.182,295.349,44.393,295.349,46.156z M290.755,46.216
					c0,1.271,0.721,2.231,1.751,2.231c1.009,0,1.763-0.948,1.763-2.255c0-0.983-0.49-2.219-1.737-2.219
					C291.295,43.974,290.755,45.125,290.755,46.216z M294.089,40.795l-1.463,1.715h-0.744l1.044-1.715H294.089z"/>
				<path fill="#585858" d="M296.685,44.873c0-0.612-0.014-1.092-0.05-1.571h0.937l0.061,0.959h0.023
					c0.287-0.539,0.96-1.079,1.919-1.079c0.804,0,2.051,0.479,2.051,2.471v3.454h-1.056v-3.346c0-0.936-0.348-1.716-1.344-1.716
					c-0.684,0-1.224,0.492-1.414,1.08c-0.049,0.132-0.072,0.312-0.072,0.491v3.49h-1.055V44.873L296.685,44.873z"/>
				<path fill="#585858" d="M175.694,59.597c0-0.743-0.024-1.343-0.049-1.895h0.936l0.061,0.995h0.023
					c0.42-0.707,1.115-1.115,2.062-1.115c1.416,0,2.472,1.188,2.472,2.938c0,2.087-1.283,3.118-2.651,3.118
					c-0.768,0-1.438-0.336-1.785-0.911h-0.025v3.154h-1.043V59.597L175.694,59.597z M176.737,61.145c0,0.155,0.012,0.3,0.048,0.432
					c0.192,0.731,0.827,1.235,1.583,1.235c1.115,0,1.764-0.912,1.764-2.243c0-1.151-0.611-2.146-1.729-2.146
					c-0.719,0-1.402,0.504-1.594,1.295c-0.037,0.132-0.072,0.288-0.072,0.42V61.145z"/>
				<path fill="#585858" d="M182.378,62.439c0.324,0.191,0.876,0.408,1.403,0.408c0.756,0,1.114-0.372,1.114-0.864
					c0-0.504-0.299-0.768-1.066-1.055c-1.057-0.384-1.547-0.948-1.547-1.644c0-0.936,0.768-1.703,2.003-1.703
					c0.588,0,1.104,0.156,1.415,0.36l-0.252,0.768c-0.229-0.145-0.647-0.349-1.188-0.349c-0.622,0-0.959,0.36-0.959,0.792
					c0,0.479,0.337,0.695,1.091,0.995c0.996,0.372,1.523,0.876,1.523,1.739c0,1.031-0.805,1.752-2.158,1.752
					c-0.636,0-1.224-0.169-1.632-0.408L182.378,62.439z"/>
				<path fill="#585858" d="M188.449,56.071c0,0.359-0.252,0.647-0.673,0.647c-0.383,0-0.635-0.288-0.635-0.647
					c0-0.36,0.265-0.66,0.659-0.66C188.187,55.411,188.449,55.699,188.449,56.071z M187.274,63.507v-5.805h1.055v5.805H187.274z"/>
				<path fill="#585858" d="M194.22,63.303c-0.275,0.132-0.888,0.337-1.668,0.337c-1.751,0-2.89-1.188-2.89-2.963
					c0-1.787,1.223-3.095,3.118-3.095c0.623,0,1.175,0.156,1.463,0.312l-0.239,0.804c-0.252-0.132-0.647-0.275-1.224-0.275
					c-1.331,0-2.051,0.995-2.051,2.194c0,1.344,0.862,2.171,2.015,2.171c0.6,0,0.995-0.144,1.295-0.275L194.22,63.303z"/>
				<path fill="#585858" d="M200.64,60.557c0,2.146-1.5,3.083-2.892,3.083c-1.56,0-2.782-1.152-2.782-2.987
					c0-1.931,1.283-3.07,2.878-3.07C199.511,57.582,200.64,58.793,200.64,60.557z M196.045,60.616c0,1.271,0.72,2.23,1.751,2.23
					c1.008,0,1.764-0.948,1.764-2.255c0-0.983-0.492-2.219-1.738-2.219C196.585,58.374,196.045,59.525,196.045,60.616z"/>
				<path fill="#585858" d="M201.829,62.439c0.324,0.191,0.876,0.408,1.402,0.408c0.756,0,1.115-0.372,1.115-0.864
					c0-0.504-0.3-0.768-1.066-1.055c-1.057-0.384-1.547-0.948-1.547-1.644c0-0.936,0.768-1.703,2.002-1.703
					c0.589,0,1.104,0.156,1.416,0.36l-0.252,0.768c-0.229-0.145-0.647-0.349-1.188-0.349c-0.623,0-0.959,0.36-0.959,0.792
					c0,0.479,0.336,0.695,1.091,0.995c0.996,0.372,1.523,0.876,1.523,1.739c0,1.031-0.805,1.752-2.158,1.752
					c-0.637,0-1.225-0.169-1.632-0.408L201.829,62.439z"/>
				<path fill="#585858" d="M211.979,60.557c0,2.146-1.5,3.083-2.892,3.083c-1.56,0-2.782-1.152-2.782-2.987
					c0-1.931,1.283-3.07,2.879-3.07C210.851,57.582,211.979,58.793,211.979,60.557z M207.385,60.616c0,1.271,0.72,2.23,1.751,2.23
					c1.008,0,1.764-0.948,1.764-2.255c0-0.983-0.491-2.219-1.738-2.219C207.925,58.374,207.385,59.525,207.385,60.616z"/>
				<path fill="#585858" d="M217.451,63.303c-0.276,0.132-0.888,0.337-1.668,0.337c-1.751,0-2.89-1.188-2.89-2.963
					c0-1.787,1.223-3.095,3.117-3.095c0.623,0,1.176,0.156,1.463,0.312l-0.24,0.804c-0.25-0.132-0.646-0.275-1.223-0.275
					c-1.33,0-2.051,0.995-2.051,2.194c0,1.344,0.863,2.171,2.016,2.171c0.6,0,0.994-0.144,1.295-0.275L217.451,63.303z"/>
				<path fill="#585858" d="M219.864,56.071c0,0.359-0.252,0.647-0.672,0.647c-0.385,0-0.637-0.288-0.637-0.647
					c0-0.36,0.266-0.66,0.66-0.66C219.601,55.411,219.864,55.699,219.864,56.071z M218.688,63.507v-5.805h1.056v5.805H218.688z"/>
				<path fill="#585858" d="M225.575,62.115c0,0.504,0.023,0.995,0.084,1.392h-0.947l-0.084-0.731h-0.036
					c-0.323,0.456-0.946,0.864-1.774,0.864c-1.176,0-1.774-0.828-1.774-1.667c0-1.403,1.247-2.171,3.49-2.159v-0.119
					c0-0.468-0.132-1.344-1.319-1.332c-0.552,0-1.115,0.156-1.523,0.432l-0.239-0.707c0.479-0.3,1.188-0.504,1.919-0.504
					c1.775,0,2.207,1.211,2.207,2.362v2.17H225.575z M224.556,60.545c-1.15-0.024-2.457,0.18-2.457,1.307
					c0,0.696,0.455,1.008,0.982,1.008c0.768,0,1.259-0.479,1.427-0.972c0.036-0.12,0.048-0.24,0.048-0.336V60.545L224.556,60.545z"
					/>
				<path fill="#585858" d="M227.282,54.991h1.055v8.516h-1.055V54.991z"/>
				<path fill="#585858" d="M237.418,60.101v0.72h-5.276v-0.72H237.418z"/>
				<path fill="#585858" d="M245.41,59.717h-3.13v2.914h3.502v0.876h-4.559v-8.084h4.379v0.876h-3.322v2.555h3.13V59.717z"/>
				<path fill="#585858" d="M246.961,62.439c0.324,0.191,0.876,0.408,1.403,0.408c0.756,0,1.115-0.372,1.115-0.864
					c0-0.504-0.301-0.768-1.067-1.055c-1.056-0.384-1.547-0.948-1.547-1.644c0-0.936,0.768-1.703,2.003-1.703
					c0.588,0,1.104,0.156,1.415,0.36l-0.252,0.768c-0.228-0.145-0.647-0.349-1.188-0.349c-0.623,0-0.959,0.36-0.959,0.792
					c0,0.479,0.336,0.695,1.092,0.995c0.996,0.372,1.522,0.876,1.522,1.739c0,1.031-0.804,1.752-2.159,1.752
					c-0.635,0-1.223-0.169-1.631-0.408L246.961,62.439z"/>
				<path fill="#585858" d="M253.128,56.311v1.392h1.512v0.804h-1.512v3.13c0,0.72,0.204,1.128,0.792,1.128
					c0.288,0,0.456-0.024,0.611-0.072l0.048,0.804c-0.203,0.07-0.527,0.145-0.936,0.145c-0.492,0-0.888-0.168-1.14-0.443
					c-0.288-0.324-0.407-0.84-0.407-1.523v-3.166h-0.9v-0.804h0.9v-1.079L253.128,56.311z"/>
				<path fill="#585858" d="M255.829,59.513c0-0.684-0.014-1.271-0.049-1.811h0.924l0.048,1.151h0.036
					c0.264-0.779,0.911-1.271,1.619-1.271c0.107,0,0.191,0.012,0.287,0.024v0.995c-0.107-0.024-0.215-0.024-0.359-0.024
					c-0.743,0-1.271,0.552-1.415,1.344c-0.022,0.144-0.036,0.324-0.036,0.491v3.095h-1.055V59.513L255.829,59.513z"/>
				<path fill="#585858" d="M263.771,62.115c0,0.504,0.024,0.995,0.084,1.392h-0.946l-0.084-0.731h-0.036
					c-0.324,0.456-0.947,0.864-1.775,0.864c-1.175,0-1.773-0.828-1.773-1.667c0-1.403,1.246-2.171,3.49-2.159v-0.119
					c0-0.468-0.133-1.344-1.319-1.332c-0.552,0-1.115,0.156-1.522,0.432l-0.24-0.707c0.479-0.3,1.188-0.504,1.918-0.504
					c1.775,0,2.207,1.211,2.207,2.362v2.17H263.771z M262.751,60.545c-1.15-0.024-2.458,0.18-2.458,1.307
					c0,0.696,0.455,1.008,0.983,1.008c0.768,0,1.259-0.479,1.427-0.972c0.036-0.12,0.048-0.24,0.048-0.336V60.545z"/>
				<path fill="#585858" d="M266.699,56.311v1.392h1.512v0.804h-1.512v3.13c0,0.72,0.204,1.128,0.792,1.128
					c0.287,0,0.455-0.024,0.611-0.072l0.047,0.804c-0.203,0.07-0.526,0.145-0.936,0.145c-0.49,0-0.887-0.168-1.139-0.443
					c-0.288-0.324-0.408-0.84-0.408-1.523v-3.166h-0.898v-0.804h0.898v-1.079L266.699,56.311z"/>
				<path fill="#585858" d="M269.916,60.796c0.024,1.428,0.924,2.016,1.991,2.016c0.756,0,1.224-0.132,1.607-0.3l0.19,0.754
					c-0.372,0.168-1.021,0.373-1.942,0.373c-1.787,0-2.854-1.188-2.854-2.938s1.031-3.118,2.723-3.118
					c1.906,0,2.398,1.655,2.398,2.723c0,0.216-0.014,0.372-0.036,0.491L269.916,60.796L269.916,60.796z M273.011,60.041
					c0.012-0.66-0.275-1.703-1.463-1.703c-1.08,0-1.535,0.972-1.619,1.703H273.011z"/>
				<path fill="#585858" d="M280.306,62.655c0,1.344-0.275,2.146-0.826,2.662c-0.576,0.517-1.393,0.695-2.123,0.695
					c-0.696,0-1.465-0.168-1.933-0.479l0.265-0.816c0.385,0.252,0.983,0.469,1.703,0.469c1.08,0,1.871-0.563,1.871-2.039v-0.635
					h-0.023c-0.312,0.539-0.947,0.971-1.848,0.971c-1.438,0-2.471-1.224-2.471-2.831c0-1.967,1.283-3.07,2.626-3.07
					c1.009,0,1.548,0.516,1.812,0.995h0.023l0.036-0.875h0.937c-0.037,0.407-0.049,0.888-0.049,1.583V62.655L280.306,62.655z
					 M279.25,59.993c0-0.181-0.013-0.336-0.06-0.468c-0.192-0.624-0.696-1.128-1.477-1.128c-1.007,0-1.727,0.852-1.727,2.195
					c0,1.139,0.588,2.087,1.715,2.087c0.658,0,1.247-0.408,1.463-1.08c0.061-0.18,0.084-0.384,0.084-0.563L279.25,59.993
					L279.25,59.993z"/>
				<path fill="#585858" d="M283.151,56.071c0,0.359-0.252,0.647-0.672,0.647c-0.385,0-0.637-0.288-0.637-0.647
					c0-0.36,0.266-0.66,0.66-0.66C282.888,55.411,283.151,55.699,283.151,56.071z M281.978,63.507v-5.805h1.055v5.805H281.978z"/>
				<path fill="#585858" d="M288.862,62.115c0,0.504,0.023,0.995,0.084,1.392h-0.947l-0.084-0.731h-0.036
					c-0.323,0.456-0.946,0.864-1.774,0.864c-1.176,0-1.774-0.828-1.774-1.667c0-1.403,1.247-2.171,3.489-2.159v-0.119
					c0-0.468-0.131-1.344-1.318-1.332c-0.552,0-1.115,0.156-1.523,0.432l-0.24-0.707c0.48-0.3,1.188-0.504,1.92-0.504
					c1.775,0,2.207,1.211,2.207,2.362v2.17H288.862z M287.843,60.545c-1.15-0.024-2.458,0.18-2.458,1.307
					c0,0.696,0.455,1.008,0.983,1.008c0.768,0,1.259-0.479,1.427-0.972c0.036-0.12,0.048-0.24,0.048-0.336V60.545z"/>
				<path fill="#585858" d="M298.569,54.991v7.017c0,0.516,0.023,1.104,0.049,1.499h-0.936l-0.049-1.008h-0.035
					c-0.312,0.648-1.009,1.141-1.955,1.141c-1.403,0-2.494-1.188-2.494-2.951c-0.014-1.931,1.199-3.106,2.603-3.106
					c0.899,0,1.487,0.42,1.751,0.876h0.023v-3.467L298.569,54.991L298.569,54.991z M297.526,60.064c0-0.132-0.012-0.312-0.049-0.443
					c-0.154-0.66-0.73-1.212-1.522-1.212c-1.091,0-1.738,0.96-1.738,2.231c0,1.175,0.589,2.146,1.716,2.146
					c0.707,0,1.354-0.479,1.547-1.259c0.035-0.145,0.047-0.288,0.047-0.456V60.064L297.526,60.064z"/>
				<path fill="#585858" d="M300.924,60.796c0.024,1.428,0.925,2.016,1.991,2.016c0.756,0,1.225-0.132,1.607-0.3l0.19,0.754
					c-0.372,0.168-1.021,0.373-1.942,0.373c-1.787,0-2.854-1.188-2.854-2.938s1.031-3.118,2.723-3.118
					c1.906,0,2.398,1.655,2.398,2.723c0,0.216-0.014,0.372-0.036,0.491L300.924,60.796L300.924,60.796z M304.019,60.041
					c0.013-0.66-0.275-1.703-1.463-1.703c-1.08,0-1.535,0.972-1.619,1.703H304.019z"/>
				<path fill="#585858" d="M194.521,76.515c0,0.504,0.023,0.996,0.084,1.393h-0.947l-0.084-0.731h-0.036
					c-0.323,0.456-0.947,0.863-1.774,0.863c-1.176,0-1.775-0.827-1.775-1.667c0-1.403,1.248-2.171,3.49-2.159v-0.119
					c0-0.468-0.131-1.344-1.318-1.332c-0.553,0-1.115,0.156-1.523,0.433l-0.24-0.707c0.48-0.301,1.188-0.504,1.92-0.504
					c1.774,0,2.207,1.211,2.207,2.361v2.17H194.521z M193.5,74.944c-1.151-0.024-2.458,0.18-2.458,1.307
					c0,0.695,0.455,1.008,0.982,1.008c0.769,0,1.26-0.479,1.428-0.972c0.035-0.12,0.048-0.24,0.048-0.336V74.944z"/>
				<path fill="#585858" d="M197.449,70.71v1.393h1.512v0.804h-1.512v3.13c0,0.72,0.204,1.128,0.792,1.128
					c0.287,0,0.456-0.024,0.611-0.072l0.047,0.804c-0.202,0.071-0.526,0.145-0.936,0.145c-0.49,0-0.887-0.168-1.139-0.443
					c-0.288-0.324-0.408-0.84-0.408-1.522v-3.166h-0.898v-0.804h0.898v-1.08L197.449,70.71z"/>
				<path fill="#585858" d="M200.665,75.194c0.023,1.429,0.924,2.017,1.991,2.017c0.756,0,1.224-0.132,1.606-0.3l0.191,0.755
					c-0.372,0.168-1.02,0.372-1.942,0.372c-1.786,0-2.854-1.188-2.854-2.938s1.03-3.119,2.723-3.119
					c1.906,0,2.397,1.655,2.397,2.724c0,0.216-0.012,0.372-0.035,0.491h-4.078V75.194z M203.76,74.44
					c0.013-0.66-0.276-1.703-1.463-1.703c-1.08,0-1.534,0.972-1.619,1.703H203.76z"/>
				<path fill="#585858" d="M206.09,73.673c0-0.611-0.013-1.092-0.049-1.57h0.937l0.061,0.959h0.023
					c0.287-0.539,0.959-1.08,1.918-1.08c0.805,0,2.052,0.479,2.052,2.472v3.454h-1.056v-3.346c0-0.937-0.349-1.717-1.344-1.717
					c-0.684,0-1.224,0.492-1.415,1.08c-0.048,0.133-0.071,0.312-0.071,0.491v3.49h-1.056V73.673L206.09,73.673z"/>
				<path fill="#585858" d="M216.888,77.702c-0.275,0.132-0.888,0.336-1.668,0.336c-1.751,0-2.89-1.188-2.89-2.962
					c0-1.787,1.224-3.095,3.118-3.095c0.623,0,1.175,0.156,1.463,0.312l-0.239,0.804c-0.252-0.132-0.647-0.274-1.224-0.274
					c-1.331,0-2.051,0.995-2.051,2.194c0,1.344,0.862,2.17,2.015,2.17c0.601,0,0.995-0.144,1.295-0.274L216.888,77.702z"/>
				<path fill="#585858" d="M219.301,70.472c0,0.358-0.252,0.646-0.672,0.646c-0.384,0-0.636-0.288-0.636-0.646
					c0-0.361,0.265-0.66,0.66-0.66C219.037,69.812,219.301,70.099,219.301,70.472z M218.126,77.906v-5.806h1.055v5.806H218.126z"/>
				<path fill="#585858" d="M226.187,74.956c0,2.146-1.498,3.082-2.891,3.082c-1.561,0-2.781-1.15-2.781-2.986
					c0-1.931,1.282-3.07,2.877-3.07C225.06,71.981,226.187,73.192,226.187,74.956z M221.593,75.017c0,1.271,0.721,2.23,1.751,2.23
					c1.009,0,1.763-0.948,1.763-2.255c0-0.983-0.49-2.22-1.737-2.22C222.133,72.772,221.593,73.925,221.593,75.017z M224.927,69.595
					l-1.463,1.715h-0.744l1.045-1.715H224.927z"/>
				<path fill="#585858" d="M227.522,73.673c0-0.611-0.014-1.092-0.049-1.57h0.936l0.061,0.959h0.023
					c0.288-0.539,0.96-1.08,1.919-1.08c0.804,0,2.051,0.479,2.051,2.472v3.454h-1.055v-3.346c0-0.937-0.349-1.717-1.345-1.717
					c-0.684,0-1.224,0.492-1.414,1.08c-0.049,0.133-0.072,0.312-0.072,0.491v3.49h-1.055V73.673L227.522,73.673z"/>
				<path fill="#585858" d="M236.726,73.996c0-0.743-0.023-1.343-0.049-1.896h0.936l0.062,0.996h0.023
					c0.42-0.707,1.114-1.115,2.062-1.115c1.415,0,2.472,1.188,2.472,2.938c0,2.087-1.283,3.118-2.651,3.118
					c-0.769,0-1.438-0.336-1.786-0.911h-0.023v3.154h-1.043v-6.284H236.726z M237.769,75.544c0,0.155,0.013,0.3,0.049,0.432
					c0.191,0.731,0.828,1.235,1.582,1.235c1.115,0,1.765-0.912,1.765-2.243c0-1.15-0.612-2.146-1.728-2.146
					c-0.721,0-1.403,0.504-1.596,1.295c-0.035,0.132-0.072,0.288-0.072,0.42V75.544z"/>
				<path fill="#585858" d="M243.409,76.839c0.324,0.191,0.876,0.408,1.402,0.408c0.756,0,1.115-0.372,1.115-0.864
					c0-0.504-0.3-0.768-1.066-1.055c-1.057-0.384-1.547-0.948-1.547-1.644c0-0.937,0.768-1.703,2.002-1.703
					c0.588,0,1.104,0.155,1.416,0.358l-0.252,0.769c-0.229-0.145-0.647-0.349-1.188-0.349c-0.623,0-0.959,0.36-0.959,0.792
					c0,0.479,0.336,0.695,1.091,0.995c0.996,0.372,1.523,0.876,1.523,1.739c0,1.031-0.805,1.751-2.158,1.751
					c-0.637,0-1.225-0.168-1.632-0.407L243.409,76.839z"/>
				<path fill="#585858" d="M249.479,70.472c0,0.358-0.252,0.646-0.672,0.646c-0.384,0-0.636-0.288-0.636-0.646
					c0-0.361,0.265-0.66,0.66-0.66C249.217,69.812,249.479,70.099,249.479,70.472z M248.306,77.906v-5.806h1.055v5.806H248.306z"/>
				<path fill="#585858" d="M255.251,77.702c-0.275,0.132-0.889,0.336-1.668,0.336c-1.751,0-2.891-1.188-2.891-2.962
					c0-1.787,1.224-3.095,3.119-3.095c0.623,0,1.174,0.156,1.463,0.312l-0.239,0.804c-0.252-0.132-0.647-0.274-1.224-0.274
					c-1.332,0-2.052,0.995-2.052,2.194c0,1.344,0.863,2.17,2.015,2.17c0.601,0,0.996-0.144,1.295-0.274L255.251,77.702z"/>
				<path fill="#585858" d="M261.67,74.956c0,2.146-1.499,3.082-2.892,3.082c-1.559,0-2.781-1.15-2.781-2.986
					c0-1.931,1.283-3.07,2.878-3.07C260.542,71.981,261.67,73.192,261.67,74.956z M257.076,75.017c0,1.271,0.72,2.23,1.751,2.23
					c1.008,0,1.763-0.948,1.763-2.255c0-0.983-0.491-2.22-1.737-2.22C257.616,72.772,257.076,73.925,257.076,75.017z"/>
				<path fill="#585858" d="M262.86,76.839c0.324,0.191,0.877,0.408,1.404,0.408c0.756,0,1.114-0.372,1.114-0.864
					c0-0.504-0.3-0.768-1.067-1.055c-1.056-0.384-1.547-0.948-1.547-1.644c0-0.937,0.769-1.703,2.004-1.703
					c0.588,0,1.104,0.155,1.414,0.358l-0.252,0.769c-0.228-0.145-0.646-0.349-1.188-0.349c-0.623,0-0.959,0.36-0.959,0.792
					c0,0.479,0.336,0.695,1.091,0.995c0.996,0.372,1.522,0.876,1.522,1.739c0,1.031-0.803,1.751-2.158,1.751
					c-0.635,0-1.223-0.168-1.631-0.407L262.86,76.839z"/>
				<path fill="#585858" d="M273.011,74.956c0,2.146-1.498,3.082-2.891,3.082c-1.561,0-2.782-1.15-2.782-2.986
					c0-1.931,1.283-3.07,2.878-3.07C271.883,71.981,273.011,73.192,273.011,74.956z M268.417,75.017c0,1.271,0.721,2.23,1.751,2.23
					c1.008,0,1.763-0.948,1.763-2.255c0-0.983-0.49-2.22-1.738-2.22C268.957,72.772,268.417,73.925,268.417,75.017z"/>
				<path fill="#585858" d="M278.483,77.702c-0.276,0.132-0.889,0.336-1.668,0.336c-1.752,0-2.891-1.188-2.891-2.962
					c0-1.787,1.223-3.095,3.118-3.095c0.623,0,1.175,0.156,1.463,0.312l-0.239,0.804c-0.252-0.132-0.647-0.274-1.224-0.274
					c-1.331,0-2.051,0.995-2.051,2.194c0,1.344,0.862,2.17,2.015,2.17c0.6,0,0.995-0.144,1.295-0.274L278.483,77.702z"/>
				<path fill="#585858" d="M280.896,70.472c0,0.358-0.252,0.646-0.672,0.646c-0.384,0-0.636-0.288-0.636-0.646
					c0-0.361,0.265-0.66,0.66-0.66C280.633,69.812,280.896,70.099,280.896,70.472z M279.722,77.906v-5.806h1.055v5.806H279.722z"/>
				<path fill="#585858" d="M286.606,76.515c0,0.504,0.023,0.996,0.084,1.393h-0.947l-0.084-0.731h-0.036
					c-0.324,0.456-0.947,0.863-1.774,0.863c-1.176,0-1.774-0.827-1.774-1.667c0-1.403,1.247-2.171,3.489-2.159v-0.119
					c0-0.468-0.131-1.344-1.318-1.332c-0.553,0-1.115,0.156-1.523,0.433l-0.24-0.707c0.48-0.301,1.188-0.504,1.92-0.504
					c1.774,0,2.207,1.211,2.207,2.361v2.17H286.606z M285.587,74.944c-1.15-0.024-2.458,0.18-2.458,1.307
					c0,0.695,0.455,1.008,0.983,1.008c0.768,0,1.259-0.479,1.427-0.972c0.036-0.12,0.048-0.24,0.048-0.336V74.944z"/>
				<path fill="#585858" d="M288.313,69.392h1.055v8.516h-1.055V69.392z"/>
			</g>
			<path fill="none" stroke="#81AD38" stroke-miterlimit="10" d="M159.813,85.392c0,6.627-5.373,12-12,12H12.5
				c-6.629,0-12-5.373-12-12V45.998c0-6.627,5.371-12,12-12h135.313c6.628,0,12,5.373,12,12V85.392z"/>
			<path fill="none" stroke="#81AD38" stroke-miterlimit="10" d="M307.41,85.392c0,6.627-5.372,12-12,12H180.478
				c-6.629,0-12-5.373-12-12V45.998c0-6.627,5.371-12,12-12H295.41c6.628,0,12,5.373,12,12V85.392z"/>
			<g id="OB1yQF_234_">
				<g>
					<path fill="#81AD38" d="M160.836,96.961c-0.312,0.058-0.633,0.115-0.953,0.174c-1.989,0.361-3.979,0.724-5.967,1.087
						c-0.084,0.016-0.168,0.049-0.24,0.092c-1.979,1.178-3.955,2.358-5.934,3.541c-0.041,0.024-0.083,0.047-0.125,0.069
						c0.581-5.147,1.162-10.291,1.74-15.42C153.174,89.979,157.003,93.469,160.836,96.961z"/>
					<path fill="#81AD38" d="M155.711,91.002c-0.346-0.315-0.685-0.625-1.012-0.928c0.141-0.263,0.288-0.507,0.407-0.765
						c1.252-2.733,0.478-5.891-1.934-7.688c-2.842-2.123-6.763-1.508-8.795,1.289c-1.215,1.672-1.558,3.525-0.99,5.52
						c0.398,1.406,1.229,2.523,2.425,3.361c0.548,0.383,1.14,0.672,1.78,0.861c0.088,0.024,0.125,0.059,0.109,0.162
						c-0.055,0.422-0.098,0.844-0.146,1.268c-2.305-0.531-5.105-2.494-5.717-6.289c-0.562-3.482,1.391-6.902,4.639-8.219
						c3.348-1.354,7.123-0.271,9.189,2.654C157.813,85.271,157.243,88.847,155.711,91.002z"/>
					<path fill="#81AD38" d="M153.242,88.748c-0.34-0.313-0.67-0.617-0.998-0.926c-0.025-0.023-0.038-0.091-0.025-0.123
						c0.502-1.38-0.008-2.843-1.254-3.604c-1.374-0.838-3.184-0.43-4.072,0.92c-0.863,1.312-0.514,3.15,0.771,4.068
						c0.104,0.074,0.219,0.135,0.321,0.211c0.034,0.025,0.075,0.082,0.071,0.121c-0.044,0.432-0.098,0.861-0.15,1.291
						c-0.001,0.016-0.01,0.031-0.018,0.045c-1.414-0.506-2.812-1.961-2.852-4.002c-0.037-1.977,1.225-3.676,2.98-4.252
						c1.941-0.635,3.961,0.08,5.053,1.744C154.145,85.875,153.865,87.756,153.242,88.748z"/>
				</g>
			</g>
			<g id="OB1yQF_235_">
				<g>
					<path fill="#81AD38" d="M308.33,96.961c-0.312,0.058-0.633,0.115-0.953,0.174c-1.989,0.361-3.979,0.724-5.969,1.087
						c-0.082,0.016-0.166,0.049-0.238,0.092c-1.979,1.178-3.955,2.358-5.935,3.541c-0.041,0.024-0.082,0.047-0.125,0.069
						c0.58-5.147,1.162-10.291,1.74-15.42C300.668,89.979,304.496,93.469,308.33,96.961z"/>
					<path fill="#81AD38" d="M303.205,91.002c-0.347-0.315-0.685-0.625-1.013-0.928c0.142-0.263,0.289-0.507,0.408-0.765
						c1.252-2.733,0.478-5.891-1.934-7.688c-2.842-2.123-6.764-1.508-8.795,1.289c-1.215,1.672-1.559,3.525-0.99,5.52
						c0.398,1.406,1.229,2.523,2.424,3.361c0.549,0.383,1.141,0.672,1.781,0.861c0.088,0.024,0.125,0.059,0.109,0.162
						c-0.055,0.422-0.098,0.844-0.146,1.268c-2.305-0.531-5.105-2.494-5.717-6.289c-0.562-3.482,1.391-6.902,4.639-8.219
						c3.348-1.354,7.123-0.271,9.189,2.654C305.31,85.271,304.737,88.847,303.205,91.002z"/>
					<path fill="#81AD38" d="M300.735,88.748c-0.34-0.313-0.67-0.617-0.998-0.926c-0.024-0.023-0.038-0.091-0.024-0.123
						c0.502-1.38-0.008-2.843-1.254-3.604c-1.373-0.838-3.185-0.43-4.071,0.92c-0.863,1.312-0.515,3.15,0.771,4.068
						c0.104,0.074,0.219,0.135,0.319,0.211c0.035,0.025,0.074,0.082,0.072,0.121c-0.045,0.432-0.1,0.861-0.15,1.291
						c-0.002,0.016-0.01,0.031-0.018,0.045c-1.414-0.506-2.812-1.961-2.852-4.002c-0.037-1.977,1.225-3.676,2.98-4.252
						c1.94-0.635,3.961,0.08,5.053,1.744C301.64,85.875,301.358,87.756,300.735,88.748z"/>
				</g>
			</g>
		</g>
	</g>
</g>
</svg>
