<?xml version="1.0" encoding="utf-8"?>
<!-- Generator: Adobe Illustrator 16.0.0, SVG Export Plug-In . SVG Version: 6.00 Build 0)  -->
<!DOCTYPE svg PUBLIC "-//W3C//DTD SVG 1.1//EN" "http://www.w3.org/Graphics/SVG/1.1/DTD/svg11.dtd">
<svg version="1.1" id="Capa_1" xmlns="http://www.w3.org/2000/svg" xmlns:xlink="http://www.w3.org/1999/xlink" x="0px" y="0px"
	 width="247.816px" height="52.335px" viewBox="0 0 247.816 52.335" enable-background="new 0 0 247.816 52.335"
	 xml:space="preserve">
<g>
	<g>
		<path fill="#331842" d="M0.12,21.55c0.061-2.139,0.09-4.293,0.09-6.462c0-3.32-0.07-6.675-0.21-10.062
			c1.555-0.119,2.949-0.18,4.184-0.18c3.431,0,5.618,0.468,6.561,1.402c0.883,0.875,1.325,1.84,1.325,2.895
			c0,0.479-0.086,0.973-0.256,1.48c-0.582,1.646-1.807,2.688-3.672,3.13c1.304,0.135,2.292,0.658,2.964,1.57
			c0.643,0.883,0.964,3.104,0.964,6.664v0.482l-4.545,0.045c0.05-0.942,0.075-1.788,0.075-2.535c0-2.267-0.246-3.653-0.737-4.162
			C6.3,15.249,5.633,14.965,4.86,14.965c-0.15,0-0.306,0.011-0.467,0.033c0.061,2.281,0.19,4.442,0.392,6.484L0.12,21.55z
			 M3.973,7.64l0.105,4.801c1.866-0.067,3.05-0.538,3.552-1.413C7.9,10.563,8.036,10.111,8.036,9.67
			c0-0.382-0.101-0.756-0.302-1.122c-0.36-0.636-1.259-0.953-2.693-0.953C4.71,7.595,4.354,7.609,3.973,7.64z"/>
		<path fill="#331842" d="M23.024,5.553v3.163L17.08,8.537v3.679l5.343-0.111l0.135,3.04h-4.771v2.849h6.246v3.187l-10.414-0.112
			c0.11-2.102,0.165-4.218,0.165-6.35c0-2.954-0.105-5.935-0.315-8.94C15.735,5.71,18.921,5.635,23.024,5.553z"/>
		<path fill="#331842" d="M25.598,21.37c0.061-1.967,0.09-3.979,0.09-6.035c0-3.156-0.07-6.424-0.21-9.805
			c1.715-0.18,3.23-0.27,4.545-0.27c2.066,0,3.621,0.225,4.665,0.674c1.615,0.695,2.423,2.12,2.423,4.273v0.37
			c-0.101,2.363-0.818,3.876-2.152,4.538s-2.979,1.016-4.936,1.06c-0.011,0.232-0.016,0.472-0.016,0.719
			c0,1.241,0.085,2.711,0.256,4.408L25.598,21.37z M29.45,8.133l0.105,5.485c1.866-0.074,2.959-0.571,3.28-1.491
			c0.15-0.419,0.226-0.849,0.226-1.29c0-0.517-0.1-1.048-0.301-1.594c-0.301-0.8-1.054-1.2-2.257-1.2
			C30.183,8.043,29.831,8.073,29.45,8.133z"/>
		<path fill="#331842" d="M37.713,21.258c1.886-6.387,3.41-11.801,4.574-16.243l5.644-0.067c1.385,4.622,2.97,9.887,4.756,15.795
			l-3.853,0.583l-1.22-4.252h-4.68l-1.265,4.589L37.713,21.258z M47.494,13.922c-0.521-1.616-1.374-3.549-2.559-5.8
			c-0.913,1.892-1.685,3.852-2.317,5.878L47.494,13.922z"/>
		<path fill="#331842" d="M53.272,21.55c0.061-2.139,0.09-4.293,0.09-6.462c0-3.32-0.07-6.675-0.21-10.062
			c1.555-0.119,2.949-0.18,4.184-0.18c3.431,0,5.618,0.468,6.561,1.402c0.883,0.875,1.325,1.84,1.325,2.895
			c0,0.479-0.086,0.973-0.256,1.48c-0.582,1.646-1.807,2.688-3.672,3.13c1.304,0.135,2.292,0.658,2.964,1.57
			c0.643,0.883,0.964,3.104,0.964,6.664v0.482l-4.545,0.045c0.05-0.942,0.075-1.788,0.075-2.535c0-2.267-0.246-3.653-0.737-4.162
			c-0.562-0.568-1.229-0.853-2.002-0.853c-0.15,0-0.306,0.011-0.467,0.033c0.061,2.281,0.19,4.442,0.392,6.484L53.272,21.55z
			 M57.125,7.64l0.105,4.801c1.866-0.067,3.05-0.538,3.552-1.413c0.271-0.464,0.406-0.916,0.406-1.357
			c0-0.382-0.101-0.756-0.302-1.122c-0.36-0.636-1.259-0.953-2.693-0.953C57.862,7.595,57.506,7.609,57.125,7.64z"/>
		<path fill="#331842" d="M65.628,21.258c1.886-6.387,3.41-11.801,4.574-16.243l5.644-0.067c1.385,4.622,2.97,9.887,4.756,15.795
			l-3.853,0.583l-1.22-4.252h-4.68l-1.265,4.589L65.628,21.258z M75.409,13.922c-0.521-1.616-1.374-3.549-2.559-5.8
			c-0.913,1.892-1.685,3.852-2.317,5.878L75.409,13.922z"/>
		<path fill="#331842" d="M92.626,11.297l-3.341,0.011v-0.303c0-1.758-0.662-2.637-1.987-2.637c-1.414,0-2.121,1.623-2.121,4.869
			c0,3.657,0.742,5.485,2.227,5.485h0.016c1.484-0.007,2.227-0.904,2.227-2.692v-1.11h3.732v0.841c0,3.725-2.052,5.673-6.155,5.845
			c-0.12,0.008-0.24,0.012-0.36,0.012c-3.863,0-5.794-2.768-5.794-8.302c0-5.414,1.986-8.121,5.959-8.121
			c3.742,0,5.613,1.81,5.613,5.429C92.641,10.841,92.636,11.064,92.626,11.297z"/>
		<path fill="#331842" d="M98.495,20.843l-3.747,0.258c0-5.489-0.121-10.642-0.361-15.458l4.289-0.27
			C98.564,10.451,98.505,15.608,98.495,20.843z"/>
		<path fill="#331842" d="M107.027,5.172c4.224,0,6.336,2.691,6.336,8.076c0,5.393-2.263,8.089-6.787,8.089
			c-4.525,0-6.787-2.794-6.787-8.38C99.789,7.767,102.201,5.172,107.027,5.172z M104.018,13.551
			c-0.01,0.195-0.016,0.382-0.016,0.562c0,2.819,0.883,4.229,2.649,4.229c1.876,0,2.813-1.596,2.813-4.79
			c0-3.192-0.872-4.79-2.618-4.79C105.091,8.761,104.147,10.358,104.018,13.551z M104.785,2.973c1.174-1.039,2.137-2.03,2.89-2.973
			l2.468,1.458c-1.063,0.778-2.248,1.731-3.552,2.861L104.785,2.973z"/>
		<path fill="#331842" d="M114.506,21.382c0.121-2.559,0.181-5.049,0.181-7.472c0-2.797-0.08-5.508-0.24-8.133l4.424-0.157
			l4.063,8.447c-0.04-2.901-0.15-5.871-0.331-8.907l4.65-0.045c-0.462,4.585-0.692,9.214-0.692,13.888
			c0,0.629,0.005,1.257,0.015,1.885l-4.078,0.034l-4.334-9.042c0.13,3.336,0.251,6.436,0.361,9.3L114.506,21.382z"/>
		<path fill="#331842" d="M145.869,11.297l-3.341,0.011v-0.303c0-1.758-0.662-2.637-1.987-2.637c-1.414,0-2.121,1.623-2.121,4.869
			c0,3.657,0.742,5.485,2.227,5.485h0.016c1.484-0.007,2.227-0.904,2.227-2.692v-1.11h3.732v0.841c0,3.725-2.052,5.673-6.155,5.845
			c-0.12,0.008-0.24,0.012-0.36,0.012c-3.863,0-5.794-2.768-5.794-8.302c0-5.414,1.986-8.121,5.959-8.121
			c3.742,0,5.613,1.81,5.613,5.429C145.884,10.841,145.879,11.064,145.869,11.297z"/>
		<path fill="#331842" d="M154.537,5.172c4.224,0,6.336,2.691,6.336,8.076c0,5.393-2.263,8.089-6.787,8.089
			c-4.525,0-6.787-2.794-6.787-8.38C147.299,7.767,149.711,5.172,154.537,5.172z M151.527,13.551
			c-0.01,0.195-0.016,0.382-0.016,0.562c0,2.819,0.883,4.229,2.649,4.229c1.876,0,2.813-1.596,2.813-4.79
			c0-3.192-0.872-4.79-2.618-4.79C152.601,8.761,151.657,10.358,151.527,13.551z"/>
		<path fill="#331842" d="M166.485,4.835c-0.181,3.896-0.271,7.235-0.271,10.018c0,1.106,0.015,2.128,0.045,3.062l6.712-0.247
			l0.105,3.657l-10.745,0.18c0.01-0.987,0.015-1.971,0.015-2.95c0-4.495-0.13-8.967-0.391-13.417L166.485,4.835z"/>
		<path fill="#331842" d="M184.183,5.553v3.163l-5.944-0.179v3.679l5.343-0.111l0.135,3.04h-4.771v2.849h6.246v3.187l-10.414-0.112
			c0.11-2.102,0.165-4.218,0.165-6.35c0-2.954-0.105-5.935-0.315-8.94C176.894,5.71,180.079,5.635,184.183,5.553z"/>
		<path fill="#331842" d="M198.193,11.297l-3.341,0.011v-0.303c0-1.758-0.662-2.637-1.987-2.637c-1.414,0-2.121,1.623-2.121,4.869
			c0,3.657,0.742,5.485,2.227,5.485h0.016c1.484-0.007,2.227-0.904,2.227-2.692v-1.11h3.732v0.841c0,3.725-2.052,5.673-6.155,5.845
			c-0.12,0.008-0.24,0.012-0.36,0.012c-3.863,0-5.794-2.768-5.794-8.302c0-5.414,1.986-8.121,5.959-8.121
			c3.742,0,5.613,1.81,5.613,5.429C198.208,10.841,198.203,11.064,198.193,11.297z"/>
		<path fill="#331842" d="M199.954,8.447v-2.95c1.475,0.029,2.935,0.045,4.379,0.045c2.247,0,4.449-0.034,6.606-0.102l0.136,3.142
			h-3.793c0,5.317,0.075,9.535,0.227,12.653l-4.244,0.157c0.221-5.31,0.381-9.64,0.481-12.99L199.954,8.447z"/>
		<path fill="#331842" d="M216.629,20.843l-3.747,0.258c0-5.489-0.121-10.642-0.361-15.458l4.289-0.27
			C216.698,10.451,216.639,15.608,216.629,20.843z"/>
		<path fill="#331842" d="M221.504,21.213c-1.224-5.04-2.674-10.31-4.349-15.806l4.394-0.337l2.574,12.295
			c1.313-4.3,2.388-8.192,3.22-11.678l4.169,0.382c-2.106,6.782-3.677,11.79-4.71,15.021L221.504,21.213z"/>
		<path fill="#331842" d="M231,21.258c1.886-6.387,3.41-11.801,4.574-16.243l5.644-0.067c1.385,4.622,2.97,9.887,4.756,15.795
			l-3.853,0.583l-1.22-4.252h-4.68l-1.265,4.589L231,21.258z M240.781,13.922c-0.521-1.616-1.374-3.549-2.559-5.8
			c-0.913,1.892-1.685,3.852-2.317,5.878L240.781,13.922z"/>
		<path fill="#331842" d="M2.941,51.19c0.061-1.967,0.09-3.979,0.09-6.035c0-3.156-0.07-6.424-0.21-9.805
			c1.715-0.18,3.23-0.27,4.545-0.27c2.066,0,3.621,0.225,4.665,0.674c1.615,0.695,2.423,2.12,2.423,4.273v0.37
			c-0.101,2.363-0.818,3.876-2.152,4.538s-2.979,1.016-4.936,1.06c-0.011,0.232-0.016,0.472-0.016,0.719
			c0,1.241,0.085,2.711,0.256,4.408L2.941,51.19z M6.794,37.953l0.105,5.485c1.866-0.074,2.959-0.571,3.28-1.491
			c0.15-0.419,0.226-0.849,0.226-1.29c0-0.517-0.1-1.048-0.301-1.594c-0.301-0.8-1.054-1.2-2.257-1.2
			C7.526,37.863,7.175,37.894,6.794,37.953z"/>
		<path fill="#331842" d="M15.056,51.078c1.886-6.387,3.41-11.801,4.574-16.243l5.644-0.067c1.385,4.622,2.97,9.887,4.756,15.795
			l-3.853,0.583l-1.22-4.252h-4.68l-1.265,4.589L15.056,51.078z M24.837,43.742c-0.521-1.616-1.374-3.549-2.559-5.8
			c-0.913,1.892-1.685,3.852-2.317,5.878L24.837,43.742z"/>
		<path fill="#331842" d="M30.616,51.37c0.061-2.139,0.09-4.293,0.09-6.462c0-3.32-0.07-6.675-0.21-10.062
			c1.555-0.119,2.949-0.18,4.184-0.18c3.431,0,5.618,0.468,6.561,1.402c0.883,0.875,1.325,1.84,1.325,2.895
			c0,0.479-0.086,0.973-0.256,1.48c-0.582,1.646-1.807,2.688-3.672,3.13c1.304,0.135,2.292,0.658,2.964,1.57
			c0.643,0.883,0.964,3.104,0.964,6.664v0.482l-4.545,0.045c0.05-0.942,0.075-1.788,0.075-2.535c0-2.267-0.246-3.653-0.737-4.162
			c-0.562-0.568-1.229-0.853-2.002-0.853c-0.15,0-0.306,0.011-0.467,0.033c0.061,2.281,0.19,4.442,0.392,6.484L30.616,51.37z
			 M34.469,37.46l0.105,4.801c1.866-0.067,3.05-0.538,3.552-1.413c0.271-0.464,0.406-0.916,0.406-1.357
			c0-0.382-0.101-0.756-0.302-1.122c-0.36-0.636-1.259-0.953-2.693-0.953C35.206,37.415,34.85,37.43,34.469,37.46z"/>
		<path fill="#331842" d="M42.972,51.078c1.886-6.387,3.41-11.801,4.574-16.243l5.644-0.067c1.385,4.622,2.97,9.887,4.756,15.795
			l-3.853,0.583l-1.22-4.252h-4.68l-1.265,4.589L42.972,51.078z M52.753,43.742c-0.521-1.616-1.374-3.549-2.559-5.8
			c-0.913,1.892-1.685,3.852-2.317,5.878L52.753,43.742z"/>
		<path fill="#331842" d="M64.085,45.256l4.47-0.224c-0.061,0.463-0.09,0.882-0.09,1.256c0,1.698,0.566,2.547,1.7,2.547h0.061
			c1.374-0.03,2.062-0.576,2.062-1.638v-0.102c-0.051-1.129-1.35-2.236-3.897-3.32c-2.479-1.047-3.718-2.774-3.718-5.183
			c0-0.075,0.005-0.149,0.016-0.225c0.069-2.52,1.966-3.803,5.688-3.848h0.12c3.361,0,5.041,1.597,5.041,4.79
			c0,0.255-0.01,0.523-0.029,0.808l-3.928,0.168c0.039-0.336,0.06-0.646,0.06-0.931c0-1.339-0.437-2.008-1.31-2.008
			c-1.053,0-1.63,0.4-1.73,1.2c-0.01,0.112-0.015,0.225-0.015,0.337c0,0.665,0.266,1.286,0.798,1.861
			c0.611,0.666,1.662,1.275,3.152,1.829s2.53,1.312,3.123,2.277c0.421,0.695,0.632,1.436,0.632,2.221c0,0.3-0.03,0.606-0.091,0.92
			c-0.23,1.13-0.872,2.066-1.926,2.811s-2.468,1.149-4.244,1.217c-0.12,0.008-0.24,0.012-0.361,0.012
			c-1.615,0-2.964-0.441-4.048-1.324c-1.043-0.845-1.564-2.382-1.564-4.61C64.056,45.828,64.065,45.548,64.085,45.256z"/>
		<path fill="#331842" d="M89.983,35.081v11.095c0,3.418-2.097,5.127-6.29,5.127h-0.331c-3.512-0.299-5.327-1.731-5.448-4.297
			c0-5.122-0.07-9.161-0.21-12.115h4.003c-0.101,1.69-0.15,3.676-0.15,5.957c0,1.601,0.024,3.351,0.075,5.25
			c0.02,1.391,0.692,2.086,2.017,2.086c0,0.008,0.005,0.012,0.015,0.012c1.314,0,1.972-0.89,1.972-2.67L85.56,35.183L89.983,35.081z
			"/>
		<path fill="#331842" d="M91.669,44.358l3.958-0.201c-0.01,0.217-0.015,0.422-0.015,0.616c0,1.668,0.271,2.678,0.812,3.029
			c0.331,0.231,0.687,0.348,1.068,0.348c0.301,0,0.611-0.067,0.933-0.202c0.702-0.291,1.054-1.312,1.054-3.062v-0.258
			c-0.04-1.907-0.15-5.003-0.331-9.288l4.289-0.191c0.07,2.102,0.105,3.957,0.105,5.564c0,4.001-0.221,6.495-0.662,7.482
			c-0.622,1.398-1.646,2.266-3.07,2.603c-0.853,0.202-1.681,0.303-2.483,0.303c-0.541,0-1.073-0.049-1.595-0.146
			c-1.294-0.225-2.245-0.709-2.852-1.453c-0.607-0.744-0.966-1.531-1.076-2.361c-0.091-0.695-0.136-1.466-0.136-2.311V44.358z"/>
		<path fill="#331842" d="M114.709,35.373v3.163l-5.944-0.179v3.679l5.343-0.111l0.135,3.04h-4.771v2.849h6.246V51l-10.414-0.112
			c0.11-2.102,0.165-4.218,0.165-6.35c0-2.954-0.105-5.935-0.315-8.94C107.42,35.53,110.605,35.455,114.709,35.373z"/>
		<path fill="#331842" d="M117.162,38.268v-2.95c1.475,0.029,2.935,0.045,4.379,0.045c2.247,0,4.449-0.034,6.606-0.102l0.136,3.142
			h-3.793c0,5.317,0.075,9.535,0.227,12.653l-4.244,0.157c0.221-5.31,0.381-9.64,0.481-12.99L117.162,38.268z"/>
		<path fill="#331842" d="M136.636,34.992c4.224,0,6.336,2.691,6.336,8.076c0,5.393-2.263,8.089-6.787,8.089
			c-4.525,0-6.787-2.794-6.787-8.38C129.397,37.587,131.81,34.992,136.636,34.992z M133.626,43.371
			c-0.01,0.195-0.016,0.382-0.016,0.562c0,2.819,0.883,4.229,2.649,4.229c1.876,0,2.813-1.596,2.813-4.79
			c0-3.192-0.872-4.79-2.618-4.79C134.699,38.581,133.756,40.179,133.626,43.371z"/>
		<path fill="#331842" d="M144.114,45.256l4.47-0.224c-0.061,0.463-0.09,0.882-0.09,1.256c0,1.698,0.566,2.547,1.7,2.547h0.061
			c1.374-0.03,2.062-0.576,2.062-1.638v-0.102c-0.051-1.129-1.35-2.236-3.897-3.32c-2.479-1.047-3.718-2.774-3.718-5.183
			c0-0.075,0.005-0.149,0.016-0.225c0.069-2.52,1.966-3.803,5.688-3.848h0.12c3.361,0,5.041,1.597,5.041,4.79
			c0,0.255-0.01,0.523-0.029,0.808l-3.928,0.168c0.039-0.336,0.06-0.646,0.06-0.931c0-1.339-0.437-2.008-1.31-2.008
			c-1.053,0-1.63,0.4-1.73,1.2c-0.01,0.112-0.015,0.225-0.015,0.337c0,0.665,0.266,1.286,0.798,1.861
			c0.611,0.666,1.662,1.275,3.152,1.829s2.53,1.312,3.123,2.277c0.421,0.695,0.632,1.436,0.632,2.221c0,0.3-0.03,0.606-0.091,0.92
			c-0.23,1.13-0.872,2.066-1.926,2.811s-2.468,1.149-4.244,1.217c-0.12,0.008-0.24,0.012-0.361,0.012
			c-1.615,0-2.964-0.441-4.048-1.324c-1.043-0.845-1.564-2.382-1.564-4.61C144.085,45.828,144.095,45.548,144.114,45.256z"/>
		<path fill="#331842" d="M172.903,35.373v3.163l-5.944-0.179v3.679l5.343-0.111l0.135,3.04h-4.771v2.849h6.246V51l-10.414-0.112
			c0.11-2.102,0.165-4.218,0.165-6.35c0-2.954-0.105-5.935-0.315-8.94C165.614,35.53,168.8,35.455,172.903,35.373z M166.839,33.242
			c1.174-1.04,2.137-2.031,2.89-2.974l2.468,1.459c-1.063,0.777-2.248,1.731-3.552,2.86L166.839,33.242z"/>
		<path fill="#331842" d="M175.356,38.268v-2.95c1.475,0.029,2.935,0.045,4.379,0.045c2.247,0,4.449-0.034,6.606-0.102l0.136,3.142
			h-3.793c0,5.317,0.075,9.535,0.227,12.653l-4.244,0.157c0.221-5.31,0.381-9.64,0.481-12.99L175.356,38.268z"/>
		<path fill="#331842" d="M187.982,51.202c0.121-2.559,0.181-5.049,0.181-7.472c0-2.797-0.08-5.508-0.24-8.133l4.424-0.157
			l4.063,8.447c-0.04-2.901-0.15-5.871-0.331-8.907l4.65-0.045c-0.462,4.585-0.692,9.214-0.692,13.888
			c0,0.629,0.005,1.257,0.015,1.885l-4.078,0.034L191.64,41.7c0.13,3.336,0.251,6.436,0.361,9.3L187.982,51.202z"/>
		<path fill="#331842" d="M206.282,50.663l-3.747,0.258c0-5.489-0.121-10.642-0.361-15.458l4.289-0.27
			C206.352,40.271,206.292,45.429,206.282,50.663z"/>
		<path fill="#331842" d="M219.465,41.117l-3.341,0.011v-0.303c0-1.758-0.662-2.637-1.987-2.637c-1.414,0-2.121,1.623-2.121,4.869
			c0,3.657,0.742,5.485,2.227,5.485h0.016c1.484-0.007,2.227-0.904,2.227-2.692v-1.11h3.732v0.841c0,3.725-2.052,5.673-6.155,5.845
			c-0.12,0.008-0.24,0.012-0.36,0.012c-3.863,0-5.794-2.768-5.794-8.302c0-5.414,1.986-8.121,5.959-8.121
			c3.742,0,5.613,1.81,5.613,5.429C219.479,40.661,219.475,40.885,219.465,41.117z"/>
		<path fill="#331842" d="M228.133,34.992c4.224,0,6.336,2.691,6.336,8.076c0,5.393-2.263,8.089-6.787,8.089
			c-4.525,0-6.787-2.794-6.787-8.38C220.895,37.587,223.307,34.992,228.133,34.992z M225.123,43.371
			c-0.01,0.195-0.016,0.382-0.016,0.562c0,2.819,0.883,4.229,2.649,4.229c1.876,0,2.813-1.596,2.813-4.79
			c0-3.192-0.872-4.79-2.618-4.79C226.196,38.581,225.253,40.179,225.123,43.371z"/>
		<path fill="#331842" d="M235.611,45.256l4.47-0.224c-0.061,0.463-0.09,0.882-0.09,1.256c0,1.698,0.566,2.547,1.7,2.547h0.061
			c1.374-0.03,2.062-0.576,2.062-1.638v-0.102c-0.051-1.129-1.35-2.236-3.897-3.32c-2.479-1.047-3.718-2.774-3.718-5.183
			c0-0.075,0.005-0.149,0.016-0.225c0.069-2.52,1.966-3.803,5.688-3.848h0.12c3.361,0,5.041,1.597,5.041,4.79
			c0,0.255-0.01,0.523-0.029,0.808l-3.928,0.168c0.039-0.336,0.06-0.646,0.06-0.931c0-1.339-0.437-2.008-1.31-2.008
			c-1.053,0-1.63,0.4-1.73,1.2c-0.01,0.112-0.015,0.225-0.015,0.337c0,0.665,0.266,1.286,0.798,1.861
			c0.611,0.666,1.662,1.275,3.152,1.829s2.53,1.312,3.123,2.277c0.421,0.695,0.632,1.436,0.632,2.221c0,0.3-0.03,0.606-0.091,0.92
			c-0.23,1.13-0.872,2.066-1.926,2.811s-2.468,1.149-4.244,1.217c-0.12,0.008-0.24,0.012-0.361,0.012
			c-1.615,0-2.964-0.441-4.048-1.324c-1.043-0.845-1.564-2.382-1.564-4.61C235.582,45.828,235.592,45.548,235.611,45.256z"/>
	</g>
</g>
</svg>
