<?xml version="1.0" encoding="utf-8"?>
<!-- Generator: Adobe Illustrator 16.0.0, SVG Export Plug-In . SVG Version: 6.00 Build 0)  -->
<!DOCTYPE svg PUBLIC "-//W3C//DTD SVG 1.1//EN" "http://www.w3.org/Graphics/SVG/1.1/DTD/svg11.dtd">
<svg version="1.1" id="Capa_1" xmlns="http://www.w3.org/2000/svg" xmlns:xlink="http://www.w3.org/1999/xlink" x="0px" y="0px"
	 width="166.905px" height="39.242px" viewBox="0 0 166.905 39.242" enable-background="new 0 0 166.905 39.242"
	 xml:space="preserve">
<g>
	<g>
		<path d="M37.476,16.162L33.481,5.851h1.477l2.68,7.491c0.215,0.601,0.396,1.163,0.542,1.688c0.159-0.562,0.345-1.125,0.556-1.688
			l2.785-7.491h1.393l-4.037,10.312H37.476z"/>
		<path d="M48.293,13.757l1.308,0.161c-0.207,0.765-0.588,1.358-1.146,1.78s-1.271,0.633-2.138,0.633
			c-1.093,0-1.959-0.337-2.599-1.01c-0.64-0.673-0.96-1.616-0.96-2.831c0-1.256,0.324-2.231,0.971-2.926
			c0.647-0.693,1.486-1.041,2.518-1.041c0.999,0,1.814,0.34,2.448,1.021c0.633,0.68,0.949,1.636,0.949,2.869
			c0,0.075-0.002,0.188-0.007,0.338h-5.57c0.046,0.82,0.279,1.449,0.696,1.885c0.417,0.437,0.938,0.654,1.561,0.654
			c0.464,0,0.861-0.122,1.189-0.366C47.841,14.681,48.101,14.291,48.293,13.757z M44.137,11.71h4.171
			c-0.057-0.628-0.216-1.1-0.479-1.414c-0.403-0.487-0.926-0.731-1.568-0.731c-0.582,0-1.07,0.195-1.467,0.584
			C44.398,10.538,44.179,11.059,44.137,11.71z"/>
		<path d="M51.177,16.162v-7.47h1.139v1.133c0.291-0.53,0.56-0.88,0.806-1.048c0.246-0.169,0.517-0.254,0.812-0.254
			c0.427,0,0.861,0.137,1.301,0.408l-0.436,1.175c-0.31-0.183-0.619-0.274-0.928-0.274c-0.277,0-0.525,0.083-0.746,0.25
			c-0.221,0.166-0.377,0.397-0.471,0.692c-0.141,0.45-0.211,0.942-0.211,1.478v3.91H51.177z"/>
		<path d="M55.995,7.307V5.851h1.266v1.456H55.995z M55.995,16.162v-7.47h1.266v7.47H55.995z"/>
		<path d="M59.491,16.162V9.677h-1.118V8.692h1.118V7.897c0-0.501,0.044-0.874,0.134-1.118c0.122-0.328,0.336-0.594,0.644-0.798
			s0.737-0.307,1.291-0.307c0.356,0,0.75,0.043,1.182,0.127l-0.19,1.104c-0.263-0.047-0.511-0.07-0.746-0.07
			c-0.384,0-0.656,0.082-0.816,0.246C60.83,7.246,60.75,7.553,60.75,8.003v0.689h1.456v0.984H60.75v6.485H59.491z"/>
		<path d="M63.197,7.307V5.851h1.266v1.456H63.197z M63.197,16.162v-7.47h1.266v7.47H63.197z"/>
		<path d="M71.265,13.426l1.245,0.162c-0.136,0.858-0.484,1.529-1.044,2.015c-0.561,0.485-1.249,0.729-2.064,0.729
			c-1.022,0-1.844-0.334-2.465-1.002c-0.622-0.669-0.932-1.626-0.932-2.874c0-0.806,0.134-1.512,0.401-2.117
			c0.268-0.604,0.674-1.058,1.221-1.36c0.546-0.303,1.14-0.454,1.783-0.454c0.811,0,1.475,0.205,1.991,0.615
			c0.516,0.411,0.846,0.993,0.992,1.748l-1.231,0.19c-0.117-0.502-0.325-0.88-0.623-1.133s-0.658-0.38-1.08-0.38
			c-0.638,0-1.156,0.229-1.554,0.686c-0.399,0.458-0.598,1.181-0.598,2.17c0,1.004,0.192,1.733,0.577,2.188
			c0.385,0.455,0.886,0.683,1.505,0.683c0.497,0,0.912-0.152,1.245-0.457C70.964,14.528,71.175,14.06,71.265,13.426z"/>
		<path d="M78.467,15.24c-0.469,0.399-0.92,0.681-1.354,0.845s-0.899,0.246-1.396,0.246c-0.821,0-1.451-0.2-1.892-0.602
			c-0.441-0.4-0.661-0.913-0.661-1.537c0-0.365,0.083-0.699,0.25-1.002s0.385-0.545,0.654-0.728c0.27-0.184,0.573-0.321,0.911-0.415
			c0.249-0.066,0.624-0.129,1.125-0.19c1.022-0.122,1.775-0.267,2.258-0.436c0.004-0.174,0.007-0.284,0.007-0.331
			c0-0.516-0.12-0.879-0.358-1.09c-0.324-0.286-0.804-0.43-1.442-0.43c-0.596,0-1.035,0.104-1.319,0.313s-0.494,0.578-0.629,1.107
			l-1.238-0.169c0.113-0.529,0.298-0.957,0.556-1.283s0.631-0.577,1.119-0.753c0.487-0.176,1.053-0.264,1.695-0.264
			c0.638,0,1.156,0.075,1.555,0.226c0.398,0.149,0.691,0.339,0.879,0.566s0.319,0.515,0.394,0.861
			c0.042,0.216,0.063,0.604,0.063,1.167v1.688c0,1.177,0.027,1.921,0.081,2.233c0.054,0.312,0.161,0.61,0.32,0.896H78.72
			C78.589,15.899,78.504,15.593,78.467,15.24z M78.361,12.413c-0.459,0.188-1.149,0.348-2.068,0.479
			c-0.521,0.075-0.889,0.159-1.104,0.253c-0.215,0.094-0.382,0.231-0.499,0.412c-0.117,0.18-0.176,0.381-0.176,0.601
			c0,0.338,0.127,0.619,0.383,0.845c0.255,0.225,0.629,0.337,1.122,0.337c0.488,0,0.921-0.106,1.301-0.319
			c0.38-0.214,0.659-0.506,0.837-0.876c0.136-0.286,0.204-0.708,0.204-1.266V12.413z"/>
		<path d="M86.478,13.426l1.245,0.162c-0.136,0.858-0.484,1.529-1.044,2.015c-0.561,0.485-1.249,0.729-2.064,0.729
			c-1.022,0-1.844-0.334-2.465-1.002c-0.622-0.669-0.932-1.626-0.932-2.874c0-0.806,0.134-1.512,0.401-2.117
			c0.268-0.604,0.674-1.058,1.221-1.36c0.546-0.303,1.14-0.454,1.783-0.454c0.811,0,1.475,0.205,1.991,0.615
			c0.516,0.411,0.846,0.993,0.992,1.748l-1.231,0.19c-0.117-0.502-0.325-0.88-0.623-1.133s-0.658-0.38-1.08-0.38
			c-0.638,0-1.156,0.229-1.554,0.686c-0.399,0.458-0.598,1.181-0.598,2.17c0,1.004,0.192,1.733,0.577,2.188
			c0.385,0.455,0.886,0.683,1.505,0.683c0.497,0,0.912-0.152,1.245-0.457C86.178,14.528,86.389,14.06,86.478,13.426z"/>
		<path d="M88.813,7.307V5.851h1.266v1.456H88.813z M88.813,16.162v-7.47h1.266v7.47H88.813z"/>
		<path d="M91.536,12.428c0-1.384,0.384-2.408,1.153-3.074c0.642-0.553,1.425-0.83,2.349-0.83c1.027,0,1.866,0.337,2.518,1.01
			s0.978,1.603,0.978,2.789c0,0.961-0.144,1.717-0.433,2.268c-0.288,0.552-0.708,0.979-1.259,1.284
			c-0.551,0.305-1.152,0.457-1.804,0.457c-1.046,0-1.891-0.335-2.536-1.006S91.536,13.688,91.536,12.428z M92.836,12.428
			c0,0.956,0.209,1.673,0.626,2.148c0.417,0.476,0.943,0.714,1.576,0.714c0.628,0,1.151-0.239,1.568-0.718
			c0.417-0.478,0.626-1.207,0.626-2.188c0-0.924-0.21-1.623-0.629-2.1c-0.42-0.476-0.941-0.714-1.565-0.714
			c-0.633,0-1.158,0.237-1.576,0.711C93.045,10.756,92.836,11.471,92.836,12.428z M94.335,7.764l0.935-1.969h1.66l-1.547,1.969
			H94.335z"/>
		<path d="M100.018,16.162v-7.47h1.139v1.062c0.549-0.82,1.341-1.231,2.377-1.231c0.45,0,0.864,0.081,1.241,0.243
			c0.377,0.161,0.66,0.374,0.848,0.637s0.319,0.574,0.394,0.935c0.047,0.235,0.07,0.646,0.07,1.231v4.593h-1.266v-4.544
			c0-0.516-0.049-0.901-0.148-1.156c-0.098-0.256-0.273-0.46-0.524-0.612s-0.545-0.229-0.882-0.229c-0.54,0-1.005,0.171-1.396,0.514
			c-0.392,0.342-0.587,0.991-0.587,1.948v4.079H100.018z"/>
		<path d="M116.877,16.162V15.22c-0.474,0.741-1.17,1.111-2.089,1.111c-0.595,0-1.143-0.164-1.642-0.492
			c-0.5-0.328-0.886-0.787-1.161-1.375c-0.274-0.589-0.412-1.266-0.412-2.029c0-0.746,0.125-1.422,0.373-2.029
			s0.621-1.072,1.118-1.396c0.497-0.323,1.053-0.485,1.667-0.485c0.45,0,0.851,0.096,1.203,0.285s0.638,0.438,0.858,0.742v-3.7
			h1.259v10.312H116.877z M112.875,12.435c0,0.956,0.202,1.672,0.605,2.145c0.403,0.475,0.879,0.711,1.428,0.711
			c0.553,0,1.023-0.227,1.41-0.679s0.581-1.143,0.581-2.071c0-1.022-0.197-1.772-0.591-2.251c-0.394-0.479-0.879-0.718-1.456-0.718
			c-0.562,0-1.033,0.23-1.41,0.689C113.064,10.721,112.875,11.445,112.875,12.435z"/>
		<path d="M125.155,13.757l1.308,0.161c-0.207,0.765-0.588,1.358-1.146,1.78s-1.271,0.633-2.138,0.633
			c-1.093,0-1.959-0.337-2.599-1.01c-0.64-0.673-0.96-1.616-0.96-2.831c0-1.256,0.324-2.231,0.971-2.926
			c0.647-0.693,1.486-1.041,2.518-1.041c0.999,0,1.814,0.34,2.448,1.021c0.633,0.68,0.949,1.636,0.949,2.869
			c0,0.075-0.002,0.188-0.007,0.338h-5.57c0.046,0.82,0.279,1.449,0.696,1.885c0.417,0.437,0.938,0.654,1.561,0.654
			c0.464,0,0.861-0.122,1.189-0.366C124.703,14.681,124.963,14.291,125.155,13.757z M120.999,11.71h4.171
			c-0.057-0.628-0.216-1.1-0.479-1.414c-0.403-0.487-0.926-0.731-1.568-0.731c-0.582,0-1.07,0.195-1.467,0.584
			C121.26,10.538,121.041,11.059,120.999,11.71z"/>
		<path d="M132.027,16.162V5.851h1.266v10.312H132.027z"/>
		<path d="M134.785,12.428c0-1.384,0.384-2.408,1.153-3.074c0.642-0.553,1.425-0.83,2.349-0.83c1.027,0,1.866,0.337,2.518,1.01
			s0.978,1.603,0.978,2.789c0,0.961-0.144,1.717-0.433,2.268c-0.288,0.552-0.708,0.979-1.259,1.284
			c-0.551,0.305-1.152,0.457-1.804,0.457c-1.046,0-1.891-0.335-2.536-1.006S134.785,13.688,134.785,12.428z M136.085,12.428
			c0,0.956,0.209,1.673,0.626,2.148c0.417,0.476,0.943,0.714,1.576,0.714c0.628,0,1.151-0.239,1.568-0.718
			c0.417-0.478,0.626-1.207,0.626-2.188c0-0.924-0.21-1.623-0.629-2.1c-0.42-0.476-0.941-0.714-1.565-0.714
			c-0.633,0-1.158,0.237-1.576,0.711C136.294,10.756,136.085,11.471,136.085,12.428z"/>
		<path d="M142.76,13.933l1.252-0.197c0.07,0.502,0.266,0.887,0.587,1.153c0.321,0.268,0.771,0.401,1.347,0.401
			c0.581,0,1.013-0.118,1.294-0.355c0.281-0.236,0.422-0.515,0.422-0.833c0-0.286-0.125-0.512-0.373-0.676
			c-0.173-0.112-0.605-0.255-1.294-0.429c-0.929-0.234-1.572-0.438-1.931-0.608c-0.359-0.171-0.631-0.408-0.816-0.71
			c-0.186-0.303-0.278-0.637-0.278-1.003c0-0.333,0.076-0.641,0.229-0.925c0.152-0.283,0.36-0.52,0.623-0.707
			c0.197-0.146,0.465-0.269,0.805-0.369s0.705-0.151,1.094-0.151c0.586,0,1.101,0.085,1.544,0.254
			c0.443,0.168,0.77,0.397,0.981,0.686s0.356,0.674,0.436,1.157l-1.238,0.168c-0.056-0.384-0.219-0.685-0.489-0.899
			c-0.27-0.216-0.651-0.324-1.143-0.324c-0.582,0-0.997,0.097-1.245,0.289c-0.249,0.191-0.373,0.417-0.373,0.675
			c0,0.164,0.052,0.312,0.155,0.443c0.103,0.136,0.265,0.248,0.485,0.337c0.126,0.047,0.5,0.155,1.118,0.324
			c0.896,0.239,1.521,0.435,1.875,0.587s0.632,0.374,0.833,0.665c0.202,0.29,0.302,0.651,0.302,1.083
			c0,0.422-0.123,0.819-0.369,1.192c-0.246,0.372-0.601,0.661-1.065,0.865c-0.464,0.203-0.99,0.306-1.576,0.306
			c-0.971,0-1.71-0.202-2.219-0.605C143.225,15.323,142.901,14.725,142.76,13.933z"/>
		<path d="M23.905,30.566V20.255h1.365v4.234h5.359v-4.234h1.365v10.312h-1.365v-4.86H25.27v4.86H23.905z"/>
		<path d="M39.217,28.161l1.308,0.161c-0.207,0.765-0.588,1.358-1.146,1.78s-1.271,0.633-2.138,0.633
			c-1.093,0-1.959-0.337-2.599-1.01c-0.64-0.673-0.96-1.616-0.96-2.831c0-1.256,0.324-2.231,0.971-2.926
			c0.647-0.693,1.486-1.041,2.518-1.041c0.999,0,1.814,0.34,2.448,1.021c0.633,0.68,0.949,1.636,0.949,2.869
			c0,0.075-0.002,0.188-0.007,0.338h-5.57c0.046,0.82,0.279,1.449,0.696,1.885c0.417,0.437,0.938,0.654,1.561,0.654
			c0.464,0,0.861-0.122,1.189-0.366C38.764,29.085,39.024,28.695,39.217,28.161z M35.06,26.114h4.171
			c-0.057-0.628-0.216-1.1-0.479-1.414c-0.403-0.487-0.926-0.731-1.568-0.731c-0.582,0-1.07,0.195-1.467,0.584
			C35.321,24.942,35.102,25.463,35.06,26.114z"/>
		<path d="M46.989,27.83l1.245,0.162c-0.136,0.858-0.484,1.529-1.044,2.015c-0.561,0.485-1.249,0.729-2.064,0.729
			c-1.022,0-1.844-0.334-2.465-1.002c-0.622-0.669-0.932-1.626-0.932-2.874c0-0.806,0.134-1.512,0.401-2.117
			c0.268-0.604,0.674-1.058,1.221-1.36c0.546-0.303,1.14-0.454,1.783-0.454c0.811,0,1.475,0.205,1.991,0.615
			c0.516,0.411,0.846,0.993,0.992,1.748l-1.231,0.19c-0.117-0.502-0.325-0.88-0.623-1.133s-0.658-0.38-1.08-0.38
			c-0.638,0-1.156,0.229-1.554,0.686c-0.399,0.458-0.598,1.181-0.598,2.17c0,1.004,0.192,1.733,0.577,2.188
			c0.385,0.455,0.886,0.683,1.505,0.683c0.497,0,0.912-0.152,1.245-0.457C46.688,28.933,46.899,28.464,46.989,27.83z"/>
		<path d="M49.317,30.566V20.255h1.266v3.7c0.591-0.685,1.336-1.027,2.237-1.027c0.553,0,1.034,0.109,1.442,0.327
			c0.408,0.218,0.7,0.52,0.875,0.904c0.176,0.384,0.264,0.942,0.264,1.674v4.733h-1.266v-4.733c0-0.633-0.137-1.094-0.412-1.382
			c-0.274-0.289-0.662-0.433-1.164-0.433c-0.375,0-0.728,0.097-1.059,0.292c-0.331,0.194-0.566,0.458-0.707,0.791
			c-0.141,0.333-0.211,0.792-0.211,1.378v4.087H49.317z"/>
		<path d="M56.857,26.832c0-1.384,0.384-2.408,1.153-3.074c0.642-0.553,1.425-0.83,2.349-0.83c1.027,0,1.866,0.337,2.518,1.01
			s0.978,1.603,0.978,2.789c0,0.961-0.144,1.717-0.433,2.268c-0.288,0.552-0.708,0.979-1.259,1.284
			c-0.551,0.305-1.152,0.457-1.804,0.457c-1.046,0-1.891-0.335-2.536-1.006S56.857,28.093,56.857,26.832z M58.158,26.832
			c0,0.956,0.209,1.673,0.626,2.148c0.417,0.476,0.943,0.714,1.576,0.714c0.628,0,1.151-0.239,1.568-0.718
			c0.417-0.478,0.626-1.207,0.626-2.188c0-0.924-0.21-1.623-0.629-2.1c-0.42-0.476-0.941-0.714-1.565-0.714
			c-0.633,0-1.158,0.237-1.576,0.711C58.367,25.16,58.158,25.875,58.158,26.832z"/>
		<path d="M64.833,28.337l1.252-0.197c0.07,0.502,0.266,0.887,0.587,1.153c0.321,0.268,0.771,0.401,1.347,0.401
			c0.581,0,1.013-0.118,1.294-0.355c0.281-0.236,0.422-0.515,0.422-0.833c0-0.286-0.125-0.512-0.373-0.676
			c-0.173-0.112-0.605-0.255-1.294-0.429c-0.929-0.234-1.572-0.438-1.931-0.608c-0.359-0.171-0.631-0.408-0.816-0.71
			c-0.186-0.303-0.278-0.637-0.278-1.003c0-0.333,0.076-0.641,0.229-0.925c0.152-0.283,0.36-0.52,0.623-0.707
			c0.197-0.146,0.465-0.269,0.805-0.369s0.705-0.151,1.094-0.151c0.586,0,1.101,0.085,1.544,0.254
			c0.443,0.168,0.77,0.397,0.981,0.686s0.356,0.674,0.436,1.157l-1.238,0.168c-0.056-0.384-0.219-0.685-0.489-0.899
			c-0.27-0.216-0.651-0.324-1.143-0.324c-0.582,0-0.997,0.097-1.245,0.289c-0.249,0.191-0.373,0.417-0.373,0.675
			c0,0.164,0.052,0.312,0.155,0.443c0.103,0.136,0.265,0.248,0.485,0.337c0.126,0.047,0.5,0.155,1.118,0.324
			c0.896,0.239,1.521,0.435,1.875,0.587s0.632,0.374,0.833,0.665c0.202,0.29,0.302,0.651,0.302,1.083
			c0,0.422-0.123,0.819-0.369,1.192c-0.246,0.372-0.601,0.661-1.065,0.865c-0.464,0.203-0.99,0.306-1.576,0.306
			c-0.971,0-1.71-0.202-2.219-0.605C65.298,29.728,64.974,29.129,64.833,28.337z"/>
		<path d="M79.652,30.566l-3.995-10.312h1.477l2.68,7.491c0.215,0.601,0.396,1.163,0.542,1.688c0.159-0.562,0.345-1.125,0.556-1.688
			l2.785-7.491h1.393l-4.037,10.312H79.652z"/>
		<path d="M85.898,21.711v-1.456h1.266v1.456H85.898z M85.898,30.566v-7.47h1.266v7.47H85.898z"/>
		<path d="M93.966,27.83l1.245,0.162c-0.136,0.858-0.484,1.529-1.044,2.015c-0.561,0.485-1.249,0.729-2.064,0.729
			c-1.022,0-1.844-0.334-2.465-1.002c-0.622-0.669-0.932-1.626-0.932-2.874c0-0.806,0.134-1.512,0.401-2.117
			c0.268-0.604,0.674-1.058,1.221-1.36c0.546-0.303,1.14-0.454,1.783-0.454c0.811,0,1.475,0.205,1.991,0.615
			c0.516,0.411,0.846,0.993,0.992,1.748l-1.231,0.19c-0.117-0.502-0.325-0.88-0.623-1.133s-0.658-0.38-1.08-0.38
			c-0.638,0-1.156,0.229-1.554,0.686c-0.399,0.458-0.598,1.181-0.598,2.17c0,1.004,0.192,1.733,0.577,2.188
			c0.385,0.455,0.886,0.683,1.505,0.683c0.497,0,0.912-0.152,1.245-0.457C93.666,28.933,93.876,28.464,93.966,27.83z"/>
		<path d="M99.058,29.434l0.183,1.119c-0.356,0.074-0.675,0.112-0.957,0.112c-0.459,0-0.816-0.073-1.069-0.218
			c-0.253-0.146-0.432-0.337-0.535-0.573c-0.103-0.237-0.155-0.735-0.155-1.495v-4.298h-0.928v-0.984h0.928v-1.85l1.259-0.76v2.609
			h1.273v0.984h-1.273v4.368c0,0.361,0.022,0.594,0.067,0.696c0.044,0.104,0.117,0.186,0.218,0.246
			c0.101,0.062,0.245,0.092,0.433,0.092C98.643,29.483,98.828,29.467,99.058,29.434z"/>
		<path d="M100.303,21.711v-1.456h1.266v1.456H100.303z M100.303,30.566v-7.47h1.266v7.47H100.303z"/>
		<path d="M103.496,30.566v-7.47h1.132v1.048c0.234-0.365,0.546-0.659,0.936-0.883c0.389-0.223,0.832-0.334,1.329-0.334
			c0.553,0,1.007,0.115,1.361,0.345c0.354,0.23,0.604,0.551,0.749,0.964c0.591-0.872,1.36-1.309,2.307-1.309
			c0.741,0,1.311,0.205,1.709,0.615c0.399,0.411,0.598,1.043,0.598,1.896v5.127h-1.259v-4.705c0-0.507-0.041-0.871-0.123-1.094
			s-0.231-0.402-0.446-0.538c-0.216-0.136-0.469-0.204-0.76-0.204c-0.525,0-0.961,0.175-1.308,0.523
			c-0.347,0.35-0.521,0.909-0.521,1.678v4.34h-1.266v-4.854c0-0.562-0.103-0.984-0.31-1.266s-0.544-0.422-1.013-0.422
			c-0.356,0-0.686,0.094-0.988,0.281s-0.521,0.462-0.658,0.823c-0.136,0.36-0.204,0.881-0.204,1.562v3.875H103.496z"/>
		<path d="M115.502,21.711v-1.456h1.266v1.456H115.502z M115.502,30.566v-7.47h1.266v7.47H115.502z"/>
		<path d="M118.027,30.566v-1.027l4.755-5.458c-0.54,0.028-1.016,0.043-1.428,0.043h-3.046v-1.027h6.105v0.837l-4.044,4.741
			l-0.781,0.864c0.567-0.042,1.1-0.062,1.597-0.062h3.454v1.09H118.027z"/>
		<path d="M130.772,29.645c-0.469,0.399-0.92,0.681-1.354,0.845s-0.899,0.246-1.396,0.246c-0.821,0-1.451-0.2-1.892-0.602
			c-0.441-0.4-0.661-0.913-0.661-1.537c0-0.365,0.083-0.699,0.25-1.002s0.385-0.545,0.654-0.728c0.27-0.184,0.573-0.321,0.911-0.415
			c0.249-0.066,0.624-0.129,1.125-0.19c1.022-0.122,1.775-0.267,2.258-0.436c0.004-0.174,0.007-0.284,0.007-0.331
			c0-0.516-0.12-0.879-0.358-1.09c-0.324-0.286-0.804-0.43-1.442-0.43c-0.596,0-1.035,0.104-1.319,0.313s-0.494,0.578-0.629,1.107
			l-1.238-0.169c0.113-0.529,0.298-0.957,0.556-1.283s0.631-0.577,1.119-0.753c0.487-0.176,1.053-0.264,1.695-0.264
			c0.638,0,1.156,0.075,1.555,0.226c0.398,0.149,0.691,0.339,0.879,0.566s0.319,0.515,0.394,0.861
			c0.042,0.216,0.063,0.604,0.063,1.167v1.688c0,1.177,0.027,1.921,0.081,2.233c0.054,0.312,0.161,0.61,0.32,0.896h-1.322
			C130.894,30.304,130.81,29.997,130.772,29.645z M130.667,26.817c-0.459,0.188-1.149,0.348-2.068,0.479
			c-0.521,0.075-0.889,0.159-1.104,0.253c-0.215,0.094-0.382,0.231-0.499,0.412c-0.117,0.18-0.176,0.381-0.176,0.601
			c0,0.338,0.127,0.619,0.383,0.845c0.255,0.225,0.629,0.337,1.122,0.337c0.488,0,0.921-0.106,1.301-0.319
			c0.38-0.214,0.659-0.506,0.837-0.876c0.136-0.286,0.204-0.708,0.204-1.266V26.817z"/>
		<path d="M133.909,30.566v-7.47h1.139v1.062c0.549-0.82,1.341-1.231,2.377-1.231c0.45,0,0.864,0.081,1.241,0.243
			c0.377,0.161,0.66,0.374,0.848,0.637s0.319,0.574,0.394,0.935c0.047,0.235,0.07,0.646,0.07,1.231v4.593h-1.266v-4.544
			c0-0.516-0.049-0.901-0.148-1.156c-0.098-0.256-0.273-0.46-0.524-0.612s-0.545-0.229-0.882-0.229c-0.54,0-1.005,0.171-1.396,0.514
			c-0.392,0.342-0.587,0.991-0.587,1.948v4.079H133.909z"/>
		<path d="M144.685,29.434l0.183,1.119c-0.356,0.074-0.675,0.112-0.957,0.112c-0.459,0-0.816-0.073-1.069-0.218
			c-0.253-0.146-0.432-0.337-0.535-0.573c-0.103-0.237-0.155-0.735-0.155-1.495v-4.298h-0.928v-0.984h0.928v-1.85l1.259-0.76v2.609
			h1.273v0.984h-1.273v4.368c0,0.361,0.022,0.594,0.067,0.696c0.044,0.104,0.117,0.186,0.218,0.246
			c0.101,0.062,0.245,0.092,0.433,0.092C144.27,29.483,144.455,29.467,144.685,29.434z"/>
		<path d="M151.036,28.161l1.308,0.161c-0.207,0.765-0.588,1.358-1.146,1.78s-1.271,0.633-2.138,0.633
			c-1.093,0-1.959-0.337-2.599-1.01c-0.64-0.673-0.96-1.616-0.96-2.831c0-1.256,0.324-2.231,0.971-2.926
			c0.647-0.693,1.486-1.041,2.518-1.041c0.999,0,1.814,0.34,2.448,1.021c0.633,0.68,0.949,1.636,0.949,2.869
			c0,0.075-0.002,0.188-0.007,0.338h-5.57c0.046,0.82,0.279,1.449,0.696,1.885c0.417,0.437,0.938,0.654,1.561,0.654
			c0.464,0,0.861-0.122,1.189-0.366C150.583,29.085,150.843,28.695,151.036,28.161z M146.879,26.114h4.171
			c-0.057-0.628-0.216-1.1-0.479-1.414c-0.403-0.487-0.926-0.731-1.568-0.731c-0.582,0-1.07,0.195-1.467,0.584
			C147.14,24.942,146.921,25.463,146.879,26.114z"/>
		<path d="M153.427,28.337l1.252-0.197c0.07,0.502,0.266,0.887,0.587,1.153c0.321,0.268,0.771,0.401,1.347,0.401
			c0.581,0,1.013-0.118,1.294-0.355c0.281-0.236,0.422-0.515,0.422-0.833c0-0.286-0.125-0.512-0.373-0.676
			c-0.173-0.112-0.605-0.255-1.294-0.429c-0.929-0.234-1.572-0.438-1.931-0.608c-0.359-0.171-0.631-0.408-0.816-0.71
			c-0.186-0.303-0.278-0.637-0.278-1.003c0-0.333,0.076-0.641,0.229-0.925c0.152-0.283,0.36-0.52,0.623-0.707
			c0.197-0.146,0.465-0.269,0.805-0.369s0.705-0.151,1.094-0.151c0.586,0,1.101,0.085,1.544,0.254
			c0.443,0.168,0.77,0.397,0.981,0.686s0.356,0.674,0.436,1.157l-1.238,0.168c-0.056-0.384-0.219-0.685-0.489-0.899
			c-0.27-0.216-0.651-0.324-1.143-0.324c-0.582,0-0.997,0.097-1.245,0.289c-0.249,0.191-0.373,0.417-0.373,0.675
			c0,0.164,0.052,0.312,0.155,0.443c0.103,0.136,0.265,0.248,0.485,0.337c0.126,0.047,0.5,0.155,1.118,0.324
			c0.896,0.239,1.521,0.435,1.875,0.587s0.632,0.374,0.833,0.665c0.202,0.29,0.302,0.651,0.302,1.083
			c0,0.422-0.123,0.819-0.369,1.192c-0.246,0.372-0.601,0.661-1.065,0.865c-0.464,0.203-0.99,0.306-1.576,0.306
			c-0.971,0-1.71-0.202-2.219-0.605C153.892,29.728,153.568,29.129,153.427,28.337z"/>
		<path d="M161.494,30.566v-1.441h1.442v1.441H161.494z"/>
	</g>
	<path fill="none" stroke="#60A0D7" stroke-width="3.9524" stroke-miterlimit="10" d="M164.929,26.462
		c0,5.968-4.838,10.804-10.805,10.804H12.779c-5.966,0-10.803-4.836-10.803-10.804V12.779c0-5.966,4.837-10.804,10.803-10.804
		h141.346c5.967,0,10.805,4.838,10.805,10.804V26.462z"/>
	<g>
		<path fill="#60A0D7" d="M5.743,15.538c-0.071-0.634-0.106-1.222-0.106-1.761c0-1.894,0.461-3.258,1.384-4.094
			c1.178-1.068,2.682-1.709,4.513-1.92c0.652-0.074,1.291-0.111,1.916-0.111c1.121,0,2.2,0.116,3.236,0.349
			c1.618,0.371,2.838,1.101,3.661,2.19c0.667,0.909,1,2.073,1,3.49c0,0.275-0.007,0.566-0.021,0.873
			c-0.17,1.819-0.904,3.494-2.203,5.022c-1.298,1.528-3.544,3.716-6.737,6.562l9.303,0.047l-0.064,3.983
			c-4.073,0.138-9.324,0.206-15.752,0.206l-0.489-4.332c3.86-3.11,6.613-5.501,8.259-7.172c1.504-1.534,2.256-3.041,2.256-4.522
			v-0.396c-0.156-1.587-1.05-2.381-2.682-2.381h-0.085C11.71,11.604,11,12.566,11,14.46c0,0.359,0.021,0.745,0.064,1.158
			L5.743,15.538z"/>
	</g>
</g>
</svg>
