<?xml version="1.0" encoding="utf-8"?>
<!-- Generator: Adobe Illustrator 16.0.0, SVG Export Plug-In . SVG Version: 6.00 Build 0)  -->
<!DOCTYPE svg PUBLIC "-//W3C//DTD SVG 1.1//EN" "http://www.w3.org/Graphics/SVG/1.1/DTD/svg11.dtd">
<svg version="1.1" id="Layer_1" xmlns="http://www.w3.org/2000/svg" xmlns:xlink="http://www.w3.org/1999/xlink" x="0px" y="0px"
	 width="99.346px" height="105.031px" viewBox="0 0 99.346 105.031" enable-background="new 0 0 99.346 105.031"
	 xml:space="preserve">
<g>
	<path fill="#7DA43B" d="M99.346,52.518c0-0.113-0.003-0.227-0.007-0.34c-0.036-1.927-0.456-3.819-1.271-5.457
		c-0.312-0.661-0.674-1.293-1.099-1.876c-0.482-0.664-1.101-1.25-1.812-1.757c-3.109-2.563-7.327-3.228-11.658-1.704
		c-2.011,0.709-2.983,0.604-3.36-0.637c-0.078-0.426-0.115-0.944-0.117-1.582c-0.01-4.946,0.048-9.894,0.056-14.838
		c0.002-1.541-0.041-2.426-0.408-2.938c-0.394-0.858-1.225-1.194-2.613-1.171c-5.291,0.087-10.586,0.039-15.879,0.103
		c-0.281,0.004-0.533,0.016-0.768,0.033c-1.399-0.524-1.504-1.754-0.65-4.171c1.857-5.265,0.281-10.76-4.006-13.965
		c-3.854-2.883-9.733-2.964-13.672-0.191c-4.407,3.103-6.115,8.464-4.41,13.844c0.924,2.908,0.878,4.103-0.827,4.525
		c-4.832-0.032-9.666-0.051-14.495,0.024c-0.555-0.01-1.106-0.021-1.662-0.029c-0.44-0.009-0.836,0.017-1.186,0.079
		c-0.019,0-0.035,0-0.053,0.001c-0.099,0.002-0.203,0.035-0.314,0.085c-1.035,0.312-1.562,1.113-1.497,2.846
		c0.011,0.249,0.016,0.498,0.023,0.749c-0.064,2.323,0,4.653,0.001,6.979c0.002,2.751-0.09,5.506,0.026,8.252
		c0,0.294-0.003,0.56-0.01,0.794c-0.099,1.144-0.616,1.673-1.491,1.825c-0.463-0.01-1.063-0.073-1.854-0.158
		c-0.67-0.072-1.344-0.092-2.021-0.104c-0.813-0.062-1.627-0.084-2.434-0.045c-0.01,0.002-0.021,0.004-0.029,0.004
		c-1.64,0.086-3.254,0.438-4.819,1.287c-3.173,1.723-5.08,5.471-5.027,9.421c0,0.037,0,0.073,0,0.111c0,0.036,0,0.073,0,0.11
		c-0.053,3.95,1.854,7.698,5.027,9.421c1.565,0.85,3.181,1.201,4.819,1.287c0.01,0.002,0.021,0.002,0.029,0.003
		c0.807,0.04,1.618,0.017,2.434-0.043c0.677-0.015,1.352-0.031,2.021-0.105c0.792-0.085,1.393-0.146,1.854-0.157
		c0.875,0.152,1.394,0.682,1.491,1.824c0.007,0.235,0.01,0.502,0.01,0.795c-0.116,2.745-0.024,5.5-0.026,8.252
		c-0.001,2.325-0.065,4.656-0.001,6.979c-0.01,0.25-0.014,0.499-0.023,0.749c-0.064,1.731,0.462,2.534,1.497,2.845
		c0.111,0.051,0.217,0.083,0.314,0.085c0.018,0,0.034,0,0.053,0.001c0.35,0.063,0.744,0.088,1.186,0.079
		c0.556-0.009,1.107-0.019,1.662-0.028c4.829,0.074,9.663,0.057,14.495,0.023c1.705,0.423,1.751,1.617,0.827,4.527
		c-1.705,5.377,0.003,10.738,4.41,13.842c3.938,2.771,9.817,2.689,13.672-0.19c4.287-3.206,5.863-8.7,4.006-13.965
		c-0.854-2.418-0.749-3.647,0.65-4.171c0.233,0.018,0.485,0.029,0.768,0.032c5.293,0.063,10.588,0.016,15.879,0.104
		c1.39,0.022,2.222-0.312,2.613-1.171c0.367-0.512,0.41-1.396,0.408-2.939c-0.008-4.944-0.064-9.891-0.056-14.836
		c0.002-0.639,0.039-1.157,0.117-1.582c0.377-1.241,1.351-1.346,3.36-0.637c4.331,1.522,8.549,0.858,11.658-1.705
		c0.712-0.506,1.329-1.093,1.812-1.757c0.425-0.583,0.787-1.215,1.099-1.876c0.814-1.638,1.234-3.529,1.271-5.455
		C99.343,52.744,99.346,52.629,99.346,52.518z"/>
	<g>
		<g>
			<path fill="#FFFFFF" d="M32.613,35.816v8.099c0,2.496-1.531,3.742-4.593,3.742h-0.241c-2.563-0.218-3.89-1.264-3.978-3.136
				c0-3.739-0.051-6.688-0.153-8.844h2.923c-0.073,1.233-0.109,2.683-0.109,4.349c0,1.168,0.018,2.445,0.055,3.831
				c0.016,1.017,0.505,1.523,1.473,1.523c0,0.006,0.004,0.008,0.011,0.008c0.96,0,1.438-0.649,1.438-1.948l-0.055-7.55
				L32.613,35.816z"/>
			<path fill="#FFFFFF" d="M35.602,39.198l0.109,1.336c0.308-0.709,1.117-1.069,2.428-1.082h0.044c1.289,0,2.168,0.377,2.638,1.131
				c0.321,0.514,0.482,1.715,0.482,3.604c0,0.928-0.041,2.025-0.121,3.292h-2.658c0.096-1.688,0.144-2.993,0.144-3.923
				c0-0.464-0.011-0.835-0.033-1.113c-0.073-0.818-0.425-1.229-1.055-1.229s-1.025,0.219-1.187,0.654l0.109,5.938l-2.581,0.018
				c0-2.513-0.114-5.332-0.341-8.459L35.602,39.198z"/>
			<path fill="#FFFFFF" d="M45.29,37.528c0,0.334-0.158,0.617-0.474,0.853c-0.314,0.233-0.695,0.352-1.143,0.352
				c-0.439,0-0.816-0.116-1.132-0.352c-0.314-0.234-0.472-0.519-0.472-0.853c0-0.328,0.156-0.607,0.472-0.844
				c0.314-0.234,0.691-0.352,1.132-0.352c0.446,0,0.827,0.117,1.143,0.352C45.132,36.92,45.29,37.2,45.29,37.528z M42.346,47.862
				c-0.052-3.192-0.077-5.953-0.077-8.279l2.77-0.121c-0.088,2.227-0.132,4.439-0.132,6.641c0,0.59,0.004,1.178,0.011,1.762h-2.571
				V47.862z"/>
			<path fill="#FFFFFF" d="M54.198,36.235c-0.044,1.846-0.066,3.779-0.066,5.805c0,1.846,0.019,3.768,0.056,5.766l-2.604,0.008
				l-0.088-1.253c-0.542,0.606-1.265,0.909-2.164,0.909c-2.249,0-3.373-1.282-3.373-3.85c0-0.055,0.004-0.108,0.012-0.162
				c0.044-2.571,1.156-3.857,3.339-3.857c0.088,0,0.181,0.003,0.274,0.01c0.747,0.031,1.352,0.334,1.812,0.907
				c0-1.212-0.04-2.639-0.12-4.282H54.198L54.198,36.235z M51.452,44.882l-0.057-2.834c-0.425-0.432-0.859-0.646-1.307-0.646
				c-0.184,0-0.366,0.035-0.55,0.106c-0.578,0.224-0.867,0.853-0.867,1.883c0,0.12,0.003,0.243,0.011,0.369
				c0.073,1.25,0.446,1.91,1.12,1.981c0.066,0.006,0.132,0.008,0.198,0.008C50.588,45.749,51.071,45.46,51.452,44.882z"/>
			<path fill="#FFFFFF" d="M59.316,39.174c2.409,0.099,3.614,1.002,3.614,2.711v5.813l-2.56,0.032l-0.088-0.778
				c-0.527,0.447-1.228,0.672-2.099,0.672c-0.374,0-0.775-0.043-1.209-0.131c-1.296-0.24-1.943-0.987-1.943-2.244
				c0-0.152,0.011-0.315,0.032-0.49c0.146-1.294,1.381-1.939,3.702-1.939c0.446,0,0.938,0.023,1.473,0.072v-0.95
				c0-0.77-0.326-1.153-0.979-1.153h-0.044c-0.052-0.006-0.099-0.008-0.143-0.008c-0.711,0-1.065,0.43-1.065,1.293v0.123
				l-2.615-0.164c0-1.904,1.23-2.857,3.691-2.857L59.316,39.174L59.316,39.174z M60.24,45.643v-1.44
				c-0.315-0.049-0.602-0.073-0.856-0.073c-0.667,0-1.121,0.167-1.362,0.5c-0.146,0.2-0.22,0.39-0.22,0.563
				c0,0.219,0.117,0.412,0.353,0.582c0.183,0.131,0.421,0.196,0.714,0.196C59.24,45.971,59.698,45.862,60.24,45.643z"/>
			<path fill="#FFFFFF" d="M72.114,36.235c-0.044,1.846-0.066,3.779-0.066,5.805c0,1.846,0.019,3.768,0.056,5.766L69.5,47.813
				l-0.088-1.253c-0.542,0.606-1.265,0.909-2.164,0.909c-2.249,0-3.373-1.282-3.373-3.85c0-0.055,0.004-0.108,0.012-0.162
				c0.044-2.571,1.156-3.857,3.339-3.857c0.088,0,0.181,0.003,0.274,0.01c0.747,0.031,1.352,0.334,1.812,0.907
				c0-1.212-0.04-2.639-0.12-4.282H72.114L72.114,36.235z M69.368,44.882l-0.057-2.834c-0.425-0.432-0.859-0.646-1.307-0.646
				c-0.184,0-0.366,0.035-0.55,0.106c-0.578,0.224-0.867,0.853-0.867,1.883c0,0.12,0.003,0.243,0.011,0.369
				c0.073,1.25,0.446,1.91,1.12,1.981c0.066,0.006,0.132,0.008,0.198,0.008C68.504,45.749,68.987,45.46,69.368,44.882z"/>
		</g>
	</g>
	<g>
		<g>
			<path fill="#FFFFFF" d="M40.653,61.182c-0.067-0.604-0.103-1.159-0.103-1.671c0-1.796,0.438-3.091,1.313-3.884
				c1.116-1.014,2.545-1.62,4.28-1.821c0.619-0.069,1.226-0.104,1.817-0.104c1.063,0,2.086,0.11,3.069,0.332
				c1.533,0.351,2.691,1.043,3.473,2.076c0.633,0.862,0.949,1.967,0.949,3.313c0,0.261-0.007,0.535-0.021,0.826
				c-0.162,1.728-0.857,3.314-2.091,4.766c-1.23,1.45-3.361,3.523-6.391,6.225l8.823,0.045l-0.061,3.777
				c-3.863,0.131-8.845,0.196-14.942,0.196l-0.465-4.109c3.662-2.95,6.273-5.218,7.835-6.804c1.428-1.455,2.142-2.885,2.142-4.29
				v-0.376c-0.148-1.506-0.996-2.258-2.545-2.258h-0.08c-1.348,0.029-2.021,0.943-2.021,2.738c0,0.342,0.021,0.707,0.062,1.1
				L40.653,61.182z"/>
		</g>
	</g>
</g>
</svg>
