<?xml version="1.0" encoding="utf-8"?>
<!-- Generator: Adobe Illustrator 16.0.0, SVG Export Plug-In . SVG Version: 6.00 Build 0)  -->
<!DOCTYPE svg PUBLIC "-//W3C//DTD SVG 1.1//EN" "http://www.w3.org/Graphics/SVG/1.1/DTD/svg11.dtd">
<svg version="1.1" id="Capa_1" xmlns="http://www.w3.org/2000/svg" xmlns:xlink="http://www.w3.org/1999/xlink" x="0px" y="0px"
	 width="443.752px" height="280.088px" viewBox="0 0 443.752 280.088" enable-background="new 0 0 443.752 280.088"
	 xml:space="preserve">
<g>
	<g>
		<path fill-rule="evenodd" clip-rule="evenodd" fill="#2B1C48" d="M219.379,60.109c-0.043-0.137-0.09-0.262-0.135-0.389
			c-0.252-0.604-0.572-1.094-0.959-1.529c0,0-0.023-0.012-0.035-0.033c-1.232-1.291-3.197-1.873-6.098-1.816
			c-13.416,0.24-26.832,0.068-40.259,0.045c-0.821,0-1.61-0.01-2.328-0.045h-0.013c-7.82-0.307-8.46-2.307-5.399-10.834
			c6.097-17.014-2.661-34.699-19.616-39.668c-2.443-0.721-4.863-1.154-7.25-1.336c-4.785-0.365-9.385,0.285-13.588,1.76
			c-13.975,4.91-23.485,18.906-20.071,34.744c3.334,15.449,3.334,15.414-13.245,15.334C78.202,56.285,66.03,56.33,54.281,56.33
			v51.162c-0.981,4.955-4.122,5.756-10.778,3.461c-16.316-5.617-32.688,0.238-39.984,14.283
			c-5.949,11.451-4.225,26.078,4.201,35.715c8.198,9.373,22.801,12.959,34.961,8.562c7.193-2.602,10.287-2.535,11.453,1.816
			c-0.012,0-0.023-0.012-0.035-0.012v51.002c0.914,0.15,1.805,0.424,2.695,0.424h0.547c13.689,0.09,27.402,0.057,41.093,0.25
			c2.204,0.035,3.837,0.24,5.001,0.709c2.797,1.107,2.854,3.699,1.656,8.791c-1.474,6.326-2.82,13.439-1.394,19.535
			c3.63,15.518,17.915,24.434,33.522,22.926c2.648-0.25,5.344-0.809,8.037-1.689c16.934-5.523,24.537-22.697,17.904-40.428
			c-2.764-7.434-1.645-9.135,6.314-9.135c0.98,0,1.883-0.287,2.716-0.754c2.616,0,5.196,0,7.765,0.012h6.107
			c1.576,0.012,3.141,0.012,4.693,0h1.713c1.301,0,2.604,0,3.904-0.012c0.674,0,1.348,0,2.021-0.012
			c1.245,0,2.479-0.012,3.723-0.023c0.674,0,1.357,0,2.031-0.012c1.303-0.012,2.604-0.021,3.895-0.045
			c0.592-0.012,1.199-0.012,1.793-0.023c1.266-0.012,2.533-0.033,3.801-0.066c0.617,0,1.223-0.023,1.838-0.035
			c1.383-0.023,3.861-3.084,3.904-4.762c0.32-13.621,0.184-27.266,0.184-42.074c-4.521-0.252-8.391-0.629-12.285-0.639
			c-1.93,0-3.768-0.127-5.537-0.354c-22.961-2.936-32.232-23.771-28.464-42.896c2.91-14.811,15.608-26.262,29.902-27.791
			c2.763-0.297,5.583-0.217,8.403,0.273c4.979,0.857,7.889-0.182,8.197-5.297v-2.137c-0.023-10.959-0.023-21.91,0.139-32.871
			C219.952,62.564,219.78,61.207,219.379,60.109z"/>
		<g>
			<g>
				<path fill="#FFFFFF" d="M67.764,181.546H89.36c6.653,0,9.979,4.082,9.979,12.245v0.644c-0.583,6.836-3.37,10.37-8.364,10.604
					c-9.972,0-17.833,0.137-23.583,0.41v-7.792c3.29,0.195,7.155,0.293,11.595,0.293c3.115,0,6.522-0.049,10.219-0.146
					c2.708-0.039,4.062-1.348,4.062-3.925c0.015,0,0.022-0.01,0.022-0.029c0-2.559-1.732-3.838-5.197-3.838l-20.133,0.146
					L67.764,181.546z"/>
				<path fill="#FFFFFF" d="M76.782,173.578l3.559-0.293c-1.892-0.82-2.853-2.979-2.882-6.474v-0.117
					c0-3.438,1.004-5.781,3.014-7.031c1.368-0.858,4.571-1.288,9.608-1.288c2.475,0,5.401,0.107,8.778,0.322v7.089
					c-4.499-0.254-7.985-0.381-10.46-0.381c-1.237,0-2.227,0.029-2.97,0.088c-2.184,0.195-3.275,1.133-3.275,2.812
					c0,1.681,0.583,2.734,1.747,3.164l15.832-0.293l0.043,6.884c-6.696,0-14.215,0.304-22.557,0.908L76.782,173.578z"/>
				<path fill="#FFFFFF" d="M72.328,147.741c0.888,0,1.645,0.42,2.271,1.26s0.939,1.855,0.939,3.047
					c0,1.171-0.313,2.178-0.939,3.017c-0.626,0.84-1.383,1.26-2.271,1.26c-0.874,0-1.623-0.42-2.249-1.26
					c-0.626-0.839-0.939-1.846-0.939-3.017c0-1.191,0.313-2.207,0.939-3.047S71.454,147.741,72.328,147.741z M99.885,155.592
					c-8.517,0.137-15.875,0.205-22.077,0.205l-0.328-7.382c5.939,0.234,11.843,0.352,17.709,0.352c1.572,0,3.137-0.01,4.695-0.029
					V155.592z"/>
				<path fill="#FFFFFF" d="M68.877,123.984c4.92,0.117,10.081,0.176,15.482,0.176c4.921,0,10.045-0.049,15.373-0.146l0.021,6.942
					l-3.341,0.234c1.616,1.445,2.424,3.369,2.424,5.771c0,5.996-3.421,8.993-10.263,8.993c-0.146,0-0.291-0.01-0.437-0.029
					c-6.857-0.117-10.285-3.085-10.285-8.905c0-0.234,0.008-0.479,0.022-0.732c0.087-1.991,0.895-3.603,2.424-4.833
					c-3.232,0-7.039,0.107-11.42,0.322V123.984z M91.937,131.308l-7.555,0.146c-1.15,1.133-1.725,2.295-1.725,3.485
					c0,0.489,0.095,0.978,0.284,1.465c0.597,1.543,2.271,2.314,5.022,2.314c0.32,0,0.648-0.01,0.982-0.029
					c3.334-0.195,5.096-1.191,5.285-2.988c0.015-0.176,0.022-0.352,0.022-0.527C94.251,133.612,93.48,132.323,91.937,131.308z"/>
				<path fill="#FFFFFF" d="M76.717,110.333c0.262-6.425,2.671-9.637,7.228-9.637h15.504l0.087,6.825l-2.074,0.234
					c1.194,1.406,1.791,3.271,1.791,5.595c0,0.996-0.117,2.07-0.35,3.223c-0.64,3.456-2.635,5.185-5.983,5.185
					c-0.408,0-0.844-0.029-1.311-0.088c-3.45-0.391-5.175-3.681-5.175-9.872c0-1.19,0.065-2.499,0.196-3.925h-2.533
					c-2.052,0-3.079,0.869-3.079,2.606v0.117c-0.015,0.138-0.022,0.264-0.022,0.381c0,1.895,1.15,2.842,3.45,2.842h0.328
					l-0.437,6.972c-5.08,0-7.621-3.28-7.621-9.843V110.333z M93.967,107.873h-3.843c-0.131,0.84-0.196,1.602-0.196,2.285
					c0,1.776,0.444,2.987,1.332,3.632c0.539,0.391,1.041,0.586,1.507,0.586c0.582,0,1.099-0.312,1.55-0.938
					c0.349-0.488,0.524-1.123,0.524-1.904C94.841,110.538,94.55,109.318,93.967,107.873z"/>
				<path fill="#FFFFFF" d="M68.877,76.207c4.92,0.117,10.081,0.176,15.482,0.176c4.921,0,10.045-0.049,15.373-0.146l0.021,6.942
					l-3.341,0.234c1.616,1.445,2.424,3.369,2.424,5.771c0,5.996-3.421,8.993-10.263,8.993c-0.146,0-0.291-0.01-0.437-0.029
					c-6.857-0.117-10.285-3.085-10.285-8.905c0-0.234,0.008-0.479,0.022-0.732c0.087-1.991,0.895-3.603,2.424-4.833
					c-3.232,0-7.039,0.107-11.42,0.322V76.207z M91.937,83.53l-7.555,0.146c-1.15,1.133-1.725,2.295-1.725,3.485
					c0,0.489,0.095,0.978,0.284,1.465c0.597,1.543,2.271,2.314,5.022,2.314c0.32,0,0.648-0.01,0.982-0.029
					c3.334-0.195,5.096-1.191,5.285-2.988c0.015-0.176,0.022-0.352,0.022-0.527C94.251,85.835,93.48,84.546,91.937,83.53z"/>
			</g>
		</g>
		<g>
			<g>
				<path fill="#FFFFFF" d="M145.851,114.981c-0.252,12.631-0.377,25.194-0.377,37.691c0,6.262,0.035,12.511,0.107,18.746
					l-13.354,0.521c-0.252-16.082-0.557-30.975-0.916-44.676c-3.016,0.455-7.108,1.579-12.277,3.371l-2.585-8.79l14.97-7.065
					L145.851,114.981z"/>
			</g>
		</g>
	</g>
	<g>
		<path fill-rule="evenodd" clip-rule="evenodd" fill="#81AD38" d="M443.752,140.045c0-0.301-0.008-0.604-0.018-0.906
			c-0.096-5.135-1.217-10.182-3.389-14.553c-0.832-1.762-1.797-3.445-2.93-5c-1.289-1.771-2.936-3.334-4.834-4.684
			c-8.291-6.838-19.539-8.609-31.09-4.545c-5.361,1.889-7.951,1.611-8.962-1.699c-0.208-1.133-0.304-2.52-0.31-4.219
			c-0.025-13.189,0.123-26.379,0.144-39.568c0.005-4.111-0.11-6.471-1.087-7.834c-1.047-2.291-3.268-3.186-6.971-3.125
			c-14.111,0.234-28.229,0.107-42.342,0.275c-0.752,0.012-1.422,0.043-2.051,0.088c-3.73-1.398-4.009-4.676-1.732-11.123
			c4.955-14.037,0.752-28.691-10.682-37.24c-10.275-7.686-25.957-7.902-36.459-0.51c-11.754,8.275-16.309,22.572-11.761,36.916
			c2.462,7.758,2.341,10.941-2.208,12.068c-12.885-0.084-25.773-0.133-38.654,0.064c-1.479-0.023-2.955-0.051-4.432-0.076
			c-1.176-0.021-2.227,0.045-3.16,0.211c-0.047,0.002-0.096,0.002-0.145,0.004c-0.254,0.004-0.539,0.092-0.836,0.227
			c-2.762,0.83-4.168,2.967-3.992,7.588c0.027,0.664,0.039,1.33,0.062,1.996c-0.172,6.195,0,12.408,0.002,18.611
			c0.004,7.336-0.24,14.684,0.074,22.006c0,0.783-0.01,1.49-0.027,2.115c-0.264,3.051-1.643,4.463-3.977,4.869
			c-1.234-0.025-2.836-0.197-4.949-0.424c-1.785-0.191-3.584-0.242-5.387-0.279c-2.172-0.16-4.338-0.221-6.488-0.113
			c-0.027,0.002-0.055,0.004-0.081,0.004c-4.37,0.23-8.676,1.17-12.849,3.436c-8.463,4.596-13.553,14.59-13.41,25.123
			c-0.002,0.1,0,0.197-0.002,0.297c0.002,0.098,0,0.195,0.002,0.295c-0.143,10.533,4.947,20.531,13.41,25.125
			c4.173,2.266,8.479,3.203,12.849,3.434c0.026,0.002,0.054,0.002,0.081,0.004c2.15,0.107,4.314,0.047,6.488-0.113
			c1.801-0.035,3.602-0.086,5.387-0.279c2.113-0.227,3.715-0.396,4.949-0.424c2.334,0.408,3.713,1.816,3.977,4.869
			c0.018,0.627,0.027,1.334,0.027,2.115c-0.314,7.322-0.07,14.668-0.074,22.006c-0.002,6.203-0.174,12.42-0.002,18.611
			c-0.023,0.666-0.035,1.332-0.062,1.998c-0.176,4.619,1.23,6.758,3.992,7.588c0.297,0.133,0.582,0.221,0.836,0.227
			c0.049,0,0.098,0,0.145,0.002c0.934,0.168,1.984,0.232,3.16,0.211c1.477-0.023,2.953-0.049,4.432-0.076
			c12.881,0.199,25.77,0.148,38.654,0.064c4.549,1.127,4.67,4.311,2.208,12.072c-4.548,14.34,0.007,28.637,11.761,36.912
			c10.502,7.393,26.184,7.174,36.459-0.508c11.434-8.551,15.637-23.203,10.682-37.242c-2.276-6.447-1.998-9.725,1.732-11.123
			c0.629,0.045,1.299,0.078,2.051,0.088c14.113,0.17,28.23,0.041,42.342,0.275c3.703,0.061,5.924-0.834,6.971-3.123
			c0.977-1.365,1.092-3.723,1.087-7.836c-0.021-13.189-0.169-26.377-0.144-39.566c0.006-1.701,0.102-3.088,0.31-4.221
			c1.011-3.309,3.601-3.588,8.962-1.699c11.551,4.064,22.799,2.295,31.09-4.545c1.898-1.348,3.545-2.912,4.834-4.684
			c1.133-1.555,2.098-3.238,2.93-5c2.172-4.369,3.293-9.416,3.389-14.551C443.745,140.648,443.752,140.346,443.752,140.045z"/>
		<g>
			<g>
				<path fill="#FFFFFF" d="M265.793,95.512v21.596c0,6.653-4.082,9.979-12.245,9.979h-0.644c-6.836-0.582-10.37-3.37-10.604-8.363
					c0-9.972-0.137-17.833-0.41-23.584h7.792c-0.195,3.291-0.293,7.155-0.293,11.596c0,3.115,0.049,6.521,0.146,10.22
					c0.039,2.707,1.348,4.062,3.925,4.062c0,0.015,0.01,0.021,0.029,0.021c2.559,0,3.838-1.732,3.838-5.197l-0.146-20.133
					L265.793,95.512z"/>
				<path fill="#FFFFFF" d="M273.761,104.529l0.293,3.56c0.82-1.892,2.979-2.853,6.474-2.882h0.117c3.438,0,5.781,1.004,7.031,3.013
					c0.858,1.369,1.288,4.571,1.288,9.608c0,2.475-0.107,5.401-0.322,8.778h-7.089c0.254-4.498,0.381-7.984,0.381-10.46
					c0-1.237-0.029-2.228-0.088-2.97c-0.195-2.184-1.133-3.275-2.812-3.275c-1.681,0-2.734,0.582-3.164,1.747l0.293,15.831
					l-6.884,0.044c0-6.696-0.304-14.216-0.908-22.557L273.761,104.529z"/>
				<path fill="#FFFFFF" d="M299.598,100.075c0,0.888-0.42,1.646-1.26,2.271c-0.84,0.627-1.855,0.939-3.047,0.939
					c-1.171,0-2.178-0.312-3.017-0.939c-0.84-0.625-1.26-1.383-1.26-2.271c0-0.874,0.42-1.623,1.26-2.249
					c0.839-0.626,1.846-0.939,3.017-0.939c1.191,0,2.207,0.313,3.047,0.939S299.598,99.201,299.598,100.075z M291.748,127.633
					c-0.137-8.517-0.205-15.875-0.205-22.077l7.382-0.327c-0.234,5.939-0.352,11.843-0.352,17.709c0,1.572,0.01,3.138,0.029,4.695
					H291.748z"/>
				<path fill="#FFFFFF" d="M323.355,96.625c-0.117,4.921-0.176,10.081-0.176,15.482c0,4.92,0.049,10.044,0.146,15.372l-6.942,0.022
					l-0.234-3.342c-1.445,1.616-3.369,2.424-5.771,2.424c-5.996,0-8.993-3.42-8.993-10.263c0-0.146,0.01-0.291,0.029-0.437
					c0.117-6.856,3.085-10.285,8.905-10.285c0.234,0,0.479,0.008,0.732,0.021c1.991,0.088,3.603,0.896,4.833,2.424
					c0-3.231-0.107-7.038-0.322-11.42H323.355z M316.032,119.685l-0.146-7.556c-1.133-1.15-2.295-1.726-3.485-1.726
					c-0.489,0-0.978,0.096-1.465,0.284c-1.543,0.597-2.314,2.271-2.314,5.022c0,0.32,0.01,0.647,0.029,0.982
					c0.195,3.334,1.191,5.096,2.988,5.284c0.176,0.015,0.352,0.022,0.527,0.022C313.727,121.999,315.016,121.228,316.032,119.685z"
					/>
				<path fill="#FFFFFF" d="M337.006,104.464c6.425,0.263,9.637,2.672,9.637,7.229v15.504l-6.825,0.087l-0.234-2.074
					c-1.406,1.193-3.271,1.79-5.595,1.79c-0.996,0-2.07-0.116-3.223-0.349c-3.456-0.641-5.185-2.635-5.185-5.983
					c0-0.407,0.029-0.845,0.088-1.311c0.391-3.45,3.681-5.175,9.872-5.175c1.19,0,2.499,0.065,3.925,0.196v-2.533
					c0-2.053-0.869-3.079-2.606-3.079h-0.117c-0.138-0.014-0.264-0.021-0.381-0.021c-1.895,0-2.842,1.15-2.842,3.45v0.327
					l-6.972-0.437c0-5.08,3.28-7.621,9.843-7.621H337.006z M339.466,121.715v-3.843c-0.84-0.131-1.602-0.197-2.285-0.197
					c-1.776,0-2.987,0.444-3.632,1.332c-0.391,0.539-0.586,1.041-0.586,1.507c0,0.583,0.312,1.1,0.938,1.551
					c0.488,0.35,1.123,0.524,1.904,0.524C336.801,122.589,338.021,122.297,339.466,121.715z"/>
				<path fill="#FFFFFF" d="M371.132,96.625c-0.117,4.921-0.176,10.081-0.176,15.482c0,4.92,0.049,10.044,0.146,15.372l-6.942,0.022
					l-0.234-3.342c-1.445,1.616-3.369,2.424-5.771,2.424c-5.996,0-8.993-3.42-8.993-10.263c0-0.146,0.01-0.291,0.029-0.437
					c0.117-6.856,3.085-10.285,8.905-10.285c0.234,0,0.479,0.008,0.732,0.021c1.991,0.088,3.603,0.896,4.833,2.424
					c0-3.231-0.107-7.038-0.322-11.42H371.132z M363.809,119.685l-0.146-7.556c-1.133-1.15-2.295-1.726-3.485-1.726
					c-0.489,0-0.978,0.096-1.465,0.284c-1.543,0.597-2.314,2.271-2.314,5.022c0,0.32,0.01,0.647,0.029,0.982
					c0.195,3.334,1.191,5.096,2.988,5.284c0.176,0.015,0.352,0.022,0.527,0.022C361.504,121.999,362.793,121.228,363.809,119.685z"
					/>
			</g>
		</g>
		<g>
			<g>
				<path fill="#FFFFFF" d="M287.236,163.151c-0.18-1.605-0.27-3.091-0.27-4.456c0-4.789,1.167-8.241,3.501-10.355
					c2.979-2.703,6.784-4.321,11.415-4.857c1.651-0.187,3.267-0.281,4.847-0.281c2.836,0,5.564,0.295,8.185,0.884
					c4.093,0.937,7.18,2.783,9.263,5.539c1.687,2.302,2.53,5.245,2.53,8.831c0,0.696-0.019,1.432-0.054,2.208
					c-0.431,4.603-2.288,8.837-5.573,12.704s-8.966,9.399-17.043,16.598l23.531,0.121l-0.161,10.075
					c-10.304,0.348-23.586,0.521-39.848,0.521l-1.238-10.958c9.764-7.868,16.728-13.915,20.893-18.144
					c3.805-3.88,5.708-7.693,5.708-11.44v-1.003c-0.396-4.015-2.657-6.021-6.785-6.021h-0.215c-3.59,0.08-5.385,2.516-5.385,7.306
					c0,0.91,0.054,1.887,0.161,2.93L287.236,163.151z"/>
			</g>
		</g>
	</g>
</g>
</svg>
