<?xml version="1.0" encoding="utf-8"?>
<!-- Generator: Adobe Illustrator 16.0.0, SVG Export Plug-In . SVG Version: 6.00 Build 0)  -->
<!DOCTYPE svg PUBLIC "-//W3C//DTD SVG 1.1//EN" "http://www.w3.org/Graphics/SVG/1.1/DTD/svg11.dtd">
<svg version="1.1" id="Capa_1" xmlns="http://www.w3.org/2000/svg" xmlns:xlink="http://www.w3.org/1999/xlink" x="0px" y="0px"
	 width="616.42px" height="71.678px" viewBox="0 0 616.42 71.678" enable-background="new 0 0 616.42 71.678" xml:space="preserve">
<g>
	<g>
		<path fill="#81AD38" d="M616.42,62.898c0,4.849-3.93,8.779-8.778,8.779H8.779C3.93,71.678,0,67.747,0,62.898V8.779
			C0,3.93,3.93,0,8.779,0h598.862c4.849,0,8.778,3.93,8.778,8.779V62.898z"/>
		<g id="OB1yQF_233_">
			<g>
				<path fill-rule="evenodd" clip-rule="evenodd" fill="#FFFFFF" d="M611.583,51.787c-0.806,0.148-1.634,0.301-2.461,0.453
					c-5.141,0.933-10.283,1.865-15.424,2.805c-0.214,0.039-0.432,0.125-0.619,0.236c-5.116,3.047-10.226,6.102-15.336,9.151
					c-0.107,0.065-0.218,0.124-0.324,0.185c1.504-13.31,3.004-26.603,4.499-39.855C591.784,33.749,601.676,42.762,611.583,51.787z"
					/>
				<path fill-rule="evenodd" clip-rule="evenodd" fill="#FFFFFF" d="M598.337,36.385c-0.894-0.816-1.764-1.613-2.616-2.395
					c0.364-0.678,0.752-1.309,1.057-1.977c3.234-7.067,1.232-15.225-4.993-19.869c-7.351-5.485-17.484-3.896-22.736,3.33
					c-3.142,4.32-4.025,9.117-2.562,14.269c1.031,3.635,3.175,6.521,6.271,8.69c1.415,0.989,2.946,1.734,4.6,2.223
					c0.229,0.068,0.322,0.152,0.287,0.422c-0.145,1.09-0.256,2.182-0.381,3.274c-5.953-1.37-13.191-6.446-14.777-16.256
					c-1.453-8.999,3.596-17.841,11.99-21.24c8.653-3.502,18.408-0.704,23.752,6.86C603.777,21.57,602.301,30.812,598.337,36.385z"/>
				<path fill-rule="evenodd" clip-rule="evenodd" fill="#FFFFFF" d="M591.958,30.56c-0.876-0.809-1.734-1.594-2.578-2.393
					c-0.068-0.061-0.101-0.229-0.068-0.319c1.294-3.561-0.02-7.343-3.241-9.312c-3.55-2.167-8.229-1.108-10.526,2.38
					c-2.229,3.391-1.33,8.142,1.994,10.515c0.27,0.191,0.564,0.347,0.831,0.544c0.093,0.067,0.198,0.212,0.187,0.312
					c-0.117,1.113-0.254,2.227-0.389,3.338c-0.006,0.04-0.029,0.078-0.043,0.117c-3.656-1.31-7.27-5.069-7.372-10.346
					c-0.098-5.108,3.161-9.504,7.702-10.99c5.018-1.641,10.238,0.209,13.063,4.508C594.29,23.134,593.568,27.998,591.958,30.56z"/>
			</g>
		</g>
	</g>
	<g>
		<g>
			<path fill="#FFFFFF" d="M24.943,11.978h1.353v9.234h4.425v1.122h-5.777V11.978z"/>
			<path fill="#FFFFFF" d="M38.679,18.554c0,2.751-1.921,3.949-3.703,3.949c-1.997,0-3.564-1.475-3.564-3.826
				c0-2.474,1.644-3.934,3.688-3.934C37.234,14.743,38.679,16.295,38.679,18.554z M32.794,18.631c0,1.629,0.922,2.858,2.243,2.858
				c1.291,0,2.259-1.214,2.259-2.889c0-1.261-0.63-2.843-2.228-2.843C33.485,15.758,32.794,17.232,32.794,18.631z"/>
			<path fill="#FFFFFF" d="M45.146,12.808c0,0.461-0.323,0.829-0.861,0.829c-0.491,0-0.813-0.368-0.813-0.829
				s0.338-0.846,0.845-0.846C44.807,11.962,45.146,12.331,45.146,12.808z M43.64,22.334v-7.437h1.352v7.437H43.64z"/>
			<path fill="#FFFFFF" d="M47.234,16.91c0-0.784-0.016-1.398-0.062-2.013h1.198l0.077,1.229h0.03
				c0.369-0.691,1.229-1.383,2.459-1.383c1.029,0,2.627,0.615,2.627,3.166v4.425h-1.352v-4.287c0-1.198-0.446-2.197-1.722-2.197
				c-0.876,0-1.567,0.63-1.812,1.383c-0.062,0.169-0.093,0.399-0.093,0.63v4.472h-1.352V16.91z"/>
			<path fill="#FFFFFF" d="M56.083,14.897l1.459,4.164c0.246,0.691,0.446,1.306,0.6,1.92h0.046c0.169-0.614,0.385-1.229,0.63-1.92
				l1.444-4.164h1.414l-2.92,7.437h-1.29l-2.827-7.437H56.083z"/>
			<path fill="#FFFFFF" d="M64.456,12.808c0,0.461-0.323,0.829-0.861,0.829c-0.491,0-0.813-0.368-0.813-0.829
				s0.338-0.846,0.845-0.846C64.117,11.962,64.456,12.331,64.456,12.808z M62.95,22.334v-7.437h1.352v7.437H62.95z"/>
			<path fill="#FFFFFF" d="M68.173,13.114v1.783h1.937v1.029h-1.937v4.01c0,0.922,0.262,1.445,1.015,1.445
				c0.369,0,0.584-0.031,0.783-0.093l0.062,1.029c-0.261,0.093-0.676,0.185-1.198,0.185c-0.63,0-1.137-0.215-1.46-0.568
				c-0.368-0.415-0.522-1.076-0.522-1.951v-4.057h-1.152v-1.029h1.152v-1.383L68.173,13.114z"/>
			<path fill="#FFFFFF" d="M76.854,20.552c0,0.646,0.031,1.275,0.107,1.782h-1.214l-0.107-0.938h-0.046
				c-0.415,0.584-1.214,1.106-2.274,1.106c-1.506,0-2.273-1.061-2.273-2.136c0-1.798,1.598-2.781,4.471-2.766v-0.153
				c0-0.6-0.169-1.722-1.689-1.706c-0.707,0-1.43,0.2-1.952,0.553l-0.307-0.906c0.614-0.384,1.521-0.646,2.458-0.646
				c2.274,0,2.827,1.552,2.827,3.027V20.552z M75.548,18.539c-1.476-0.031-3.15,0.23-3.15,1.675c0,0.891,0.584,1.29,1.261,1.29
				c0.983,0,1.613-0.614,1.828-1.244c0.046-0.153,0.062-0.308,0.062-0.431V18.539z"/>
			<path fill="#FFFFFF" d="M79.034,16.91c0-0.784-0.031-1.398-0.062-2.013h1.183l0.062,1.214h0.046
				c0.415-0.707,1.106-1.368,2.352-1.368c0.998,0,1.767,0.615,2.09,1.49h0.03c0.23-0.43,0.538-0.737,0.845-0.968
				c0.446-0.338,0.923-0.522,1.629-0.522c0.999,0,2.459,0.646,2.459,3.227v4.364h-1.321V18.14c0-1.445-0.538-2.29-1.613-2.29
				c-0.784,0-1.368,0.568-1.614,1.214c-0.062,0.2-0.107,0.431-0.107,0.676v4.595h-1.321v-4.456c0-1.184-0.522-2.028-1.552-2.028
				c-0.83,0-1.46,0.676-1.675,1.353c-0.077,0.184-0.107,0.43-0.107,0.66v4.472h-1.321V16.91z"/>
			<path fill="#FFFFFF" d="M98.576,18.554c0,2.751-1.921,3.949-3.703,3.949c-1.997,0-3.564-1.475-3.564-3.826
				c0-2.474,1.644-3.934,3.688-3.934C97.132,14.743,98.576,16.295,98.576,18.554z M92.691,18.631c0,1.629,0.922,2.858,2.243,2.858
				c1.291,0,2.259-1.214,2.259-2.889c0-1.261-0.63-2.843-2.228-2.843C93.383,15.758,92.691,17.232,92.691,18.631z"/>
			<path fill="#FFFFFF" d="M100.096,20.967c0.415,0.245,1.121,0.522,1.798,0.522c0.968,0,1.429-0.477,1.429-1.106
				c0-0.646-0.384-0.983-1.367-1.353c-1.353-0.491-1.982-1.214-1.982-2.105c0-1.198,0.983-2.182,2.566-2.182
				c0.753,0,1.413,0.2,1.812,0.461l-0.322,0.983c-0.292-0.185-0.83-0.445-1.521-0.445c-0.799,0-1.229,0.461-1.229,1.014
				c0,0.615,0.431,0.892,1.398,1.275c1.275,0.477,1.951,1.122,1.951,2.229c0,1.321-1.029,2.243-2.766,2.243
				c-0.814,0-1.567-0.215-2.09-0.522L100.096,20.967z"/>
			<path fill="#FFFFFF" d="M114.845,20.552c0,0.646,0.031,1.275,0.107,1.782h-1.214l-0.107-0.938h-0.046
				c-0.415,0.584-1.214,1.106-2.274,1.106c-1.506,0-2.273-1.061-2.273-2.136c0-1.798,1.598-2.781,4.471-2.766v-0.153
				c0-0.6-0.169-1.722-1.689-1.706c-0.707,0-1.43,0.2-1.952,0.553l-0.307-0.906c0.614-0.384,1.521-0.646,2.458-0.646
				c2.274,0,2.827,1.552,2.827,3.027V20.552z M113.539,18.539c-1.476-0.031-3.15,0.23-3.15,1.675c0,0.891,0.584,1.29,1.261,1.29
				c0.983,0,1.613-0.614,1.828-1.244c0.046-0.153,0.062-0.308,0.062-0.431V18.539z"/>
			<path fill="#FFFFFF" d="M120.805,14.897l1.459,4.164c0.246,0.691,0.446,1.306,0.6,1.92h0.046c0.169-0.614,0.385-1.229,0.63-1.92
				l1.444-4.164h1.414l-2.92,7.437h-1.29l-2.827-7.437H120.805z"/>
			<path fill="#FFFFFF" d="M128.271,18.861c0.03,1.828,1.183,2.581,2.551,2.581c0.968,0,1.566-0.169,2.059-0.384l0.246,0.968
				c-0.477,0.216-1.307,0.477-2.489,0.477c-2.29,0-3.657-1.521-3.657-3.765s1.321-3.995,3.488-3.995
				c2.442,0,3.072,2.121,3.072,3.488c0,0.276-0.015,0.477-0.046,0.63H128.271z M132.234,17.894c0.016-0.846-0.354-2.182-1.875-2.182
				c-1.383,0-1.967,1.244-2.074,2.182H132.234z"/>
			<path fill="#FFFFFF" d="M135.214,17.218c0-0.876-0.016-1.629-0.062-2.32h1.183l0.062,1.475h0.046
				c0.339-0.999,1.168-1.629,2.074-1.629c0.139,0,0.246,0.016,0.369,0.031v1.275c-0.138-0.031-0.276-0.031-0.461-0.031
				c-0.952,0-1.629,0.707-1.813,1.721c-0.03,0.185-0.046,0.415-0.046,0.631v3.964h-1.352V17.218z"/>
			<path fill="#FFFFFF" d="M144.247,18.861c0.03,1.828,1.183,2.581,2.551,2.581c0.968,0,1.566-0.169,2.059-0.384l0.246,0.968
				c-0.477,0.216-1.307,0.477-2.489,0.477c-2.29,0-3.657-1.521-3.657-3.765s1.321-3.995,3.488-3.995
				c2.442,0,3.072,2.121,3.072,3.488c0,0.276-0.015,0.477-0.046,0.63H144.247z M148.211,17.894c0.016-0.846-0.354-2.182-1.875-2.182
				c-1.383,0-1.967,1.244-2.074,2.182H148.211z"/>
			<path fill="#FFFFFF" d="M151.19,11.425h1.352v10.909h-1.352V11.425z"/>
			<path fill="#FFFFFF" d="M158.596,14.897l1.459,4.164c0.246,0.691,0.446,1.306,0.6,1.92h0.046c0.169-0.614,0.385-1.229,0.63-1.92
				l1.444-4.164h1.414l-2.92,7.437h-1.29l-2.827-7.437H158.596z"/>
			<path fill="#FFFFFF" d="M166.968,12.808c0,0.461-0.323,0.829-0.861,0.829c-0.491,0-0.813-0.368-0.813-0.829
				s0.338-0.846,0.845-0.846C166.629,11.962,166.968,12.331,166.968,12.808z M165.462,22.334v-7.437h1.352v7.437H165.462z"/>
			<path fill="#FFFFFF" d="M175.464,11.425v8.988c0,0.661,0.03,1.414,0.062,1.921h-1.198l-0.062-1.291h-0.047
				c-0.399,0.83-1.29,1.46-2.504,1.46c-1.798,0-3.196-1.521-3.196-3.78c-0.016-2.474,1.536-3.979,3.334-3.979
				c1.152,0,1.905,0.538,2.243,1.122h0.031v-4.44H175.464z M174.127,17.924c0-0.169-0.016-0.399-0.062-0.568
				c-0.2-0.845-0.938-1.552-1.951-1.552c-1.398,0-2.229,1.229-2.229,2.857c0,1.506,0.753,2.751,2.197,2.751
				c0.907,0,1.736-0.614,1.982-1.613c0.046-0.185,0.062-0.369,0.062-0.584V17.924z"/>
			<path fill="#FFFFFF" d="M178.475,18.861c0.03,1.828,1.183,2.581,2.55,2.581c0.969,0,1.567-0.169,2.06-0.384l0.246,0.968
				c-0.477,0.216-1.307,0.477-2.489,0.477c-2.29,0-3.657-1.521-3.657-3.765s1.321-3.995,3.488-3.995
				c2.442,0,3.072,2.121,3.072,3.488c0,0.276-0.015,0.477-0.046,0.63H178.475z M182.438,17.894c0.016-0.846-0.354-2.182-1.875-2.182
				c-1.383,0-1.967,1.244-2.074,2.182H182.438z"/>
			<path fill="#FFFFFF" d="M192.147,18.554c0,2.751-1.921,3.949-3.703,3.949c-1.997,0-3.564-1.475-3.564-3.826
				c0-2.474,1.644-3.934,3.688-3.934C190.703,14.743,192.147,16.295,192.147,18.554z M186.263,18.631
				c0,1.629,0.922,2.858,2.243,2.858c1.291,0,2.259-1.214,2.259-2.889c0-1.261-0.63-2.843-2.228-2.843
				C186.954,15.758,186.263,17.232,186.263,18.631z"/>
			<path fill="#FFFFFF" d="M196.985,20.705c0.599,0.384,1.459,0.677,2.382,0.677c1.367,0,2.166-0.723,2.166-1.768
				c0-0.953-0.553-1.521-1.951-2.044c-1.69-0.614-2.735-1.506-2.735-2.95c0-1.613,1.337-2.812,3.35-2.812
				c1.045,0,1.829,0.246,2.274,0.507l-0.369,1.091c-0.322-0.199-1.014-0.491-1.951-0.491c-1.414,0-1.951,0.845-1.951,1.552
				c0,0.968,0.63,1.444,2.059,1.997c1.752,0.677,2.628,1.521,2.628,3.043c0,1.598-1.168,2.996-3.611,2.996
				c-0.999,0-2.09-0.308-2.643-0.676L196.985,20.705z"/>
			<path fill="#FFFFFF" d="M211.504,18.554c0,2.751-1.921,3.949-3.703,3.949c-1.997,0-3.564-1.475-3.564-3.826
				c0-2.474,1.644-3.934,3.688-3.934C210.06,14.743,211.504,16.295,211.504,18.554z M205.619,18.631
				c0,1.629,0.922,2.858,2.243,2.858c1.291,0,2.259-1.214,2.259-2.889c0-1.261-0.63-2.843-2.228-2.843
				C206.311,15.758,205.619,17.232,205.619,18.631z"/>
			<path fill="#FFFFFF" d="M213.208,16.91c0-0.784-0.031-1.398-0.062-2.013h1.183l0.062,1.214h0.046
				c0.415-0.707,1.106-1.368,2.352-1.368c0.998,0,1.767,0.615,2.09,1.49h0.03c0.23-0.43,0.538-0.737,0.845-0.968
				c0.446-0.338,0.923-0.522,1.629-0.522c0.999,0,2.459,0.646,2.459,3.227v4.364h-1.321V18.14c0-1.445-0.538-2.29-1.613-2.29
				c-0.784,0-1.368,0.568-1.614,1.214c-0.062,0.2-0.107,0.431-0.107,0.676v4.595h-1.321v-4.456c0-1.184-0.522-2.028-1.552-2.028
				c-0.83,0-1.46,0.676-1.675,1.353c-0.077,0.184-0.107,0.43-0.107,0.66v4.472h-1.321V16.91z"/>
			<path fill="#FFFFFF" d="M232.75,18.554c0,2.751-1.921,3.949-3.703,3.949c-1.997,0-3.564-1.475-3.564-3.826
				c0-2.474,1.644-3.934,3.688-3.934C231.306,14.743,232.75,16.295,232.75,18.554z M226.865,18.631c0,1.629,0.922,2.858,2.243,2.858
				c1.291,0,2.259-1.214,2.259-2.889c0-1.261-0.63-2.843-2.228-2.843C227.557,15.758,226.865,17.232,226.865,18.631z"/>
			<path fill="#FFFFFF" d="M234.27,20.967c0.415,0.245,1.121,0.522,1.798,0.522c0.968,0,1.429-0.477,1.429-1.106
				c0-0.646-0.384-0.983-1.367-1.353c-1.353-0.491-1.982-1.214-1.982-2.105c0-1.198,0.983-2.182,2.566-2.182
				c0.753,0,1.413,0.2,1.812,0.461l-0.322,0.983c-0.292-0.185-0.83-0.445-1.521-0.445c-0.799,0-1.229,0.461-1.229,1.014
				c0,0.615,0.431,0.892,1.398,1.275c1.275,0.477,1.951,1.122,1.951,2.229c0,1.321-1.029,2.243-2.766,2.243
				c-0.814,0-1.567-0.215-2.09-0.522L234.27,20.967z"/>
			<path fill="#FFFFFF" d="M243.795,17.325c0-0.953-0.031-1.722-0.062-2.428h1.198l0.077,1.275h0.03
				c0.538-0.907,1.429-1.43,2.643-1.43c1.813,0,3.166,1.521,3.166,3.765c0,2.674-1.645,3.995-3.396,3.995
				c-0.983,0-1.844-0.43-2.289-1.168h-0.03v4.041h-1.337V17.325z M245.132,19.307c0,0.2,0.015,0.385,0.061,0.554
				c0.246,0.938,1.061,1.582,2.028,1.582c1.43,0,2.259-1.167,2.259-2.873c0-1.475-0.783-2.75-2.212-2.75
				c-0.922,0-1.798,0.645-2.044,1.659c-0.046,0.169-0.092,0.368-0.092,0.538V19.307z"/>
			<path fill="#FFFFFF" d="M257.759,20.552c0,0.646,0.031,1.275,0.107,1.782h-1.214l-0.107-0.938h-0.046
				c-0.415,0.584-1.214,1.106-2.274,1.106c-1.506,0-2.273-1.061-2.273-2.136c0-1.798,1.598-2.781,4.471-2.766v-0.153
				c0-0.6-0.169-1.722-1.689-1.706c-0.707,0-1.43,0.2-1.952,0.553l-0.307-0.906c0.614-0.384,1.521-0.646,2.458-0.646
				c2.274,0,2.827,1.552,2.827,3.027V20.552z M256.453,18.539c-1.476-0.031-3.15,0.23-3.15,1.675c0,0.891,0.584,1.29,1.261,1.29
				c0.983,0,1.613-0.614,1.828-1.244c0.046-0.153,0.062-0.308,0.062-0.431V18.539z"/>
			<path fill="#FFFFFF" d="M259.94,17.218c0-0.876-0.016-1.629-0.062-2.32h1.183l0.062,1.475h0.046
				c0.339-0.999,1.168-1.629,2.074-1.629c0.139,0,0.246,0.016,0.369,0.031v1.275c-0.138-0.031-0.276-0.031-0.461-0.031
				c-0.952,0-1.629,0.707-1.813,1.721c-0.03,0.185-0.046,0.415-0.046,0.631v3.964h-1.352V17.218z"/>
			<path fill="#FFFFFF" d="M266.96,13.114v1.783h1.937v1.029h-1.937v4.01c0,0.922,0.262,1.445,1.015,1.445
				c0.369,0,0.584-0.031,0.783-0.093l0.062,1.029c-0.261,0.093-0.676,0.185-1.198,0.185c-0.63,0-1.137-0.215-1.46-0.568
				c-0.368-0.415-0.522-1.076-0.522-1.951v-4.057h-1.152v-1.029h1.152v-1.383L266.96,13.114z"/>
			<path fill="#FFFFFF" d="M271.078,18.861c0.03,1.828,1.183,2.581,2.55,2.581c0.969,0,1.567-0.169,2.06-0.384l0.246,0.968
				c-0.477,0.216-1.307,0.477-2.489,0.477c-2.29,0-3.657-1.521-3.657-3.765s1.321-3.995,3.488-3.995
				c2.442,0,3.072,2.121,3.072,3.488c0,0.276-0.015,0.477-0.046,0.63H271.078z M275.042,17.894c0.016-0.846-0.354-2.182-1.875-2.182
				c-1.383,0-1.967,1.244-2.074,2.182H275.042z"/>
			<path fill="#FFFFFF" d="M287.686,11.425v8.988c0,0.661,0.03,1.414,0.062,1.921h-1.199l-0.061-1.291h-0.047
				c-0.399,0.83-1.29,1.46-2.504,1.46c-1.798,0-3.196-1.521-3.196-3.78c-0.016-2.474,1.536-3.979,3.334-3.979
				c1.152,0,1.905,0.538,2.243,1.122h0.031v-4.44H287.686z M286.349,17.924c0-0.169-0.016-0.399-0.062-0.568
				c-0.2-0.845-0.938-1.552-1.951-1.552c-1.398,0-2.229,1.229-2.229,2.857c0,1.506,0.753,2.751,2.197,2.751
				c0.907,0,1.736-0.614,1.982-1.613c0.046-0.185,0.062-0.369,0.062-0.584V17.924z"/>
			<path fill="#FFFFFF" d="M290.695,18.861c0.03,1.828,1.183,2.581,2.55,2.581c0.969,0,1.567-0.169,2.06-0.384l0.246,0.968
				c-0.477,0.216-1.307,0.477-2.489,0.477c-2.29,0-3.657-1.521-3.657-3.765s1.321-3.995,3.488-3.995
				c2.442,0,3.072,2.121,3.072,3.488c0,0.276-0.015,0.477-0.046,0.63H290.695z M294.659,17.894c0.016-0.846-0.354-2.182-1.875-2.182
				c-1.383,0-1.967,1.244-2.074,2.182H294.659z"/>
			<path fill="#FFFFFF" d="M300.896,11.425h1.352v10.909h-1.352V11.425z"/>
			<path fill="#FFFFFF" d="M309.745,20.552c0,0.646,0.031,1.275,0.107,1.782h-1.214l-0.107-0.938h-0.046
				c-0.415,0.584-1.214,1.106-2.274,1.106c-1.506,0-2.273-1.061-2.273-2.136c0-1.798,1.598-2.781,4.471-2.766v-0.153
				c0-0.6-0.169-1.722-1.689-1.706c-0.707,0-1.43,0.2-1.952,0.553l-0.307-0.906c0.614-0.384,1.521-0.646,2.458-0.646
				c2.274,0,2.827,1.552,2.827,3.027V20.552z M308.439,18.539c-1.476-0.031-3.15,0.23-3.15,1.675c0,0.891,0.584,1.29,1.261,1.29
				c0.983,0,1.613-0.614,1.828-1.244c0.046-0.153,0.062-0.308,0.062-0.431V18.539z"/>
			<path fill="#FFFFFF" d="M316.811,13.114v1.783h1.937v1.029h-1.937v4.01c0,0.922,0.262,1.445,1.015,1.445
				c0.369,0,0.584-0.031,0.783-0.093l0.062,1.029c-0.261,0.093-0.676,0.185-1.198,0.185c-0.63,0-1.137-0.215-1.46-0.568
				c-0.368-0.415-0.522-1.076-0.522-1.951v-4.057h-1.152v-1.029h1.152v-1.383L316.811,13.114z"/>
			<path fill="#FFFFFF" d="M320.268,17.218c0-0.876-0.016-1.629-0.062-2.32h1.183l0.062,1.475h0.046
				c0.339-0.999,1.168-1.629,2.075-1.629c0.138,0,0.245,0.016,0.368,0.031v1.275c-0.138-0.031-0.276-0.031-0.461-0.031
				c-0.952,0-1.629,0.707-1.813,1.721c-0.03,0.185-0.046,0.415-0.046,0.631v3.964h-1.352V17.218z"/>
			<path fill="#FFFFFF" d="M330.438,20.552c0,0.646,0.031,1.275,0.107,1.782h-1.214l-0.107-0.938h-0.046
				c-0.415,0.584-1.214,1.106-2.274,1.106c-1.506,0-2.273-1.061-2.273-2.136c0-1.798,1.598-2.781,4.471-2.766v-0.153
				c0-0.6-0.169-1.722-1.689-1.706c-0.707,0-1.43,0.2-1.952,0.553l-0.307-0.906c0.614-0.384,1.521-0.646,2.458-0.646
				c2.274,0,2.827,1.552,2.827,3.027V20.552z M329.132,18.539c-1.476-0.031-3.15,0.23-3.15,1.675c0,0.891,0.584,1.29,1.261,1.29
				c0.983,0,1.613-0.614,1.828-1.244c0.046-0.153,0.062-0.308,0.062-0.431V18.539z"/>
			<path fill="#FFFFFF" d="M332.619,16.91c0-0.784-0.016-1.398-0.062-2.013h1.198l0.077,1.229h0.03
				c0.369-0.691,1.229-1.383,2.459-1.383c1.029,0,2.627,0.615,2.627,3.166v4.425h-1.352v-4.287c0-1.198-0.446-2.197-1.722-2.197
				c-0.876,0-1.567,0.63-1.812,1.383c-0.062,0.169-0.093,0.399-0.093,0.63v4.472h-1.352V16.91z"/>
			<path fill="#FFFFFF" d="M340.96,20.967c0.415,0.245,1.121,0.522,1.798,0.522c0.968,0,1.429-0.477,1.429-1.106
				c0-0.646-0.384-0.983-1.367-1.353c-1.353-0.491-1.982-1.214-1.982-2.105c0-1.198,0.983-2.182,2.566-2.182
				c0.753,0,1.413,0.2,1.812,0.461l-0.322,0.983c-0.292-0.185-0.83-0.445-1.521-0.445c-0.799,0-1.229,0.461-1.229,1.014
				c0,0.615,0.431,0.892,1.398,1.275c1.275,0.477,1.951,1.122,1.951,2.229c0,1.321-1.029,2.243-2.766,2.243
				c-0.814,0-1.567-0.215-2.09-0.522L340.96,20.967z"/>
			<path fill="#FFFFFF" d="M347.366,22.334v-6.407h-1.029v-1.029h1.029v-0.354c0-1.045,0.246-1.998,0.86-2.598
				c0.508-0.491,1.184-0.691,1.813-0.691c0.492,0,0.892,0.108,1.152,0.216l-0.185,1.045c-0.199-0.093-0.461-0.169-0.86-0.169
				c-1.152,0-1.444,0.998-1.444,2.15v0.4h1.798v1.029h-1.798v6.407H347.366z"/>
			<path fill="#FFFFFF" d="M358.244,18.554c0,2.751-1.921,3.949-3.703,3.949c-1.997,0-3.564-1.475-3.564-3.826
				c0-2.474,1.644-3.934,3.688-3.934C356.8,14.743,358.244,16.295,358.244,18.554z M352.359,18.631c0,1.629,0.922,2.858,2.243,2.858
				c1.291,0,2.259-1.214,2.259-2.889c0-1.261-0.63-2.843-2.228-2.843C353.051,15.758,352.359,17.232,352.359,18.631z"/>
			<path fill="#FFFFFF" d="M359.948,17.218c0-0.876-0.016-1.629-0.062-2.32h1.183l0.062,1.475h0.046
				c0.339-0.999,1.168-1.629,2.074-1.629c0.139,0,0.246,0.016,0.369,0.031v1.275c-0.138-0.031-0.276-0.031-0.461-0.031
				c-0.952,0-1.629,0.707-1.813,1.721c-0.03,0.185-0.046,0.415-0.046,0.631v3.964h-1.352V17.218z"/>
			<path fill="#FFFFFF" d="M365.033,16.91c0-0.784-0.031-1.398-0.062-2.013h1.183l0.062,1.214h0.046
				c0.415-0.707,1.106-1.368,2.352-1.368c0.998,0,1.767,0.615,2.09,1.49h0.03c0.23-0.43,0.538-0.737,0.845-0.968
				c0.446-0.338,0.923-0.522,1.629-0.522c0.999,0,2.459,0.646,2.459,3.227v4.364h-1.321V18.14c0-1.445-0.538-2.29-1.613-2.29
				c-0.784,0-1.368,0.568-1.614,1.214c-0.062,0.2-0.107,0.431-0.107,0.676v4.595h-1.321v-4.456c0-1.184-0.522-2.028-1.552-2.028
				c-0.83,0-1.46,0.676-1.675,1.353c-0.077,0.184-0.107,0.43-0.107,0.66v4.472h-1.321V16.91z"/>
			<path fill="#FFFFFF" d="M383.069,20.552c0,0.646,0.031,1.275,0.107,1.782h-1.214l-0.107-0.938h-0.046
				c-0.415,0.584-1.214,1.106-2.274,1.106c-1.506,0-2.273-1.061-2.273-2.136c0-1.798,1.598-2.781,4.471-2.766v-0.153
				c0-0.6-0.169-1.722-1.689-1.706c-0.707,0-1.43,0.2-1.952,0.553l-0.307-0.906c0.614-0.384,1.521-0.646,2.458-0.646
				c2.274,0,2.827,1.552,2.827,3.027V20.552z M381.764,18.539c-1.476-0.031-3.15,0.23-3.15,1.675c0,0.891,0.584,1.29,1.261,1.29
				c0.983,0,1.613-0.614,1.828-1.244c0.046-0.153,0.062-0.308,0.062-0.431V18.539z"/>
			<path fill="#FFFFFF" d="M390.551,22.073c-0.354,0.169-1.137,0.43-2.136,0.43c-2.243,0-3.703-1.521-3.703-3.795
				c0-2.29,1.567-3.965,3.995-3.965c0.799,0,1.506,0.2,1.874,0.399l-0.307,1.03c-0.323-0.17-0.83-0.354-1.567-0.354
				c-1.706,0-2.628,1.275-2.628,2.812c0,1.721,1.106,2.781,2.582,2.781c0.768,0,1.275-0.185,1.659-0.354L390.551,22.073z"/>
			<path fill="#FFFFFF" d="M393.639,12.808c0,0.461-0.323,0.829-0.861,0.829c-0.491,0-0.813-0.368-0.813-0.829
				s0.338-0.846,0.845-0.846C393.3,11.962,393.639,12.331,393.639,12.808z M392.133,22.334v-7.437h1.352v7.437H392.133z"/>
			<path fill="#FFFFFF" d="M402.457,18.554c0,2.751-1.921,3.949-3.703,3.949c-1.997,0-3.564-1.475-3.564-3.826
				c0-2.474,1.644-3.934,3.688-3.934C401.013,14.743,402.457,16.295,402.457,18.554z M396.572,18.631
				c0,1.629,0.922,2.858,2.243,2.858c1.291,0,2.259-1.214,2.259-2.889c0-1.261-0.63-2.843-2.228-2.843
				C397.264,15.758,396.572,17.232,396.572,18.631z M400.844,11.686l-1.874,2.197h-0.953l1.337-2.197H400.844z"/>
			<path fill="#FFFFFF" d="M404.161,16.91c0-0.784-0.016-1.398-0.062-2.013h1.198l0.077,1.229h0.03
				c0.369-0.691,1.229-1.383,2.459-1.383c1.029,0,2.627,0.615,2.627,3.166v4.425h-1.352v-4.287c0-1.198-0.446-2.197-1.722-2.197
				c-0.876,0-1.567,0.63-1.812,1.383c-0.062,0.169-0.093,0.399-0.093,0.63v4.472h-1.352V16.91z"/>
			<path fill="#FFFFFF" d="M411.812,24.239c0.338-0.922,0.753-2.566,0.922-3.688l1.506-0.154c-0.369,1.307-1.045,3.012-1.476,3.734
				L411.812,24.239z"/>
			<path fill="#FFFFFF" d="M418.939,20.967c0.415,0.245,1.121,0.522,1.798,0.522c0.968,0,1.429-0.477,1.429-1.106
				c0-0.646-0.384-0.983-1.367-1.353c-1.353-0.491-1.982-1.214-1.982-2.105c0-1.198,0.983-2.182,2.566-2.182
				c0.753,0,1.413,0.2,1.812,0.461l-0.322,0.983c-0.292-0.185-0.83-0.445-1.521-0.445c-0.799,0-1.229,0.461-1.229,1.014
				c0,0.615,0.431,0.892,1.398,1.275c1.275,0.477,1.951,1.122,1.951,2.229c0,1.321-1.029,2.243-2.766,2.243
				c-0.814,0-1.567-0.215-2.09-0.522L418.939,20.967z"/>
			<path fill="#FFFFFF" d="M431.937,18.554c0,2.751-1.921,3.949-3.703,3.949c-1.997,0-3.564-1.475-3.564-3.826
				c0-2.474,1.644-3.934,3.688-3.934C430.492,14.743,431.937,16.295,431.937,18.554z M426.052,18.631
				c0,1.629,0.922,2.858,2.243,2.858c1.291,0,2.259-1.214,2.259-2.889c0-1.261-0.63-2.843-2.228-2.843
				C426.743,15.758,426.052,17.232,426.052,18.631z"/>
			<path fill="#FFFFFF" d="M433.642,16.91c0-0.784-0.031-1.398-0.062-2.013h1.183l0.062,1.214h0.046
				c0.415-0.707,1.106-1.368,2.352-1.368c0.998,0,1.767,0.615,2.09,1.49h0.03c0.23-0.43,0.538-0.737,0.845-0.968
				c0.446-0.338,0.923-0.522,1.629-0.522c0.999,0,2.459,0.646,2.459,3.227v4.364h-1.321V18.14c0-1.445-0.538-2.29-1.613-2.29
				c-0.784,0-1.368,0.568-1.614,1.214c-0.062,0.2-0.107,0.431-0.107,0.676v4.595h-1.321v-4.456c0-1.184-0.522-2.028-1.552-2.028
				c-0.83,0-1.46,0.676-1.675,1.353c-0.077,0.184-0.107,0.43-0.107,0.66v4.472h-1.321V16.91z"/>
			<path fill="#FFFFFF" d="M453.184,18.554c0,2.751-1.921,3.949-3.703,3.949c-1.997,0-3.564-1.475-3.564-3.826
				c0-2.474,1.644-3.934,3.688-3.934C451.739,14.743,453.184,16.295,453.184,18.554z M447.299,18.631
				c0,1.629,0.922,2.858,2.243,2.858c1.291,0,2.259-1.214,2.259-2.889c0-1.261-0.63-2.843-2.228-2.843
				C447.99,15.758,447.299,17.232,447.299,18.631z"/>
			<path fill="#FFFFFF" d="M454.703,20.967c0.415,0.245,1.121,0.522,1.798,0.522c0.968,0,1.429-0.477,1.429-1.106
				c0-0.646-0.384-0.983-1.367-1.353c-1.353-0.491-1.982-1.214-1.982-2.105c0-1.198,0.983-2.182,2.566-2.182
				c0.753,0,1.413,0.2,1.812,0.461l-0.322,0.983c-0.292-0.185-0.83-0.445-1.521-0.445c-0.799,0-1.229,0.461-1.229,1.014
				c0,0.615,0.431,0.892,1.398,1.275c1.275,0.477,1.951,1.122,1.951,2.229c0,1.321-1.029,2.243-2.766,2.243
				c-0.814,0-1.567-0.215-2.09-0.522L454.703,20.967z"/>
			<path fill="#FFFFFF" d="M464.273,12.101c0.646-0.107,1.49-0.2,2.565-0.2c1.322,0,2.29,0.308,2.904,0.86
				c0.554,0.492,0.907,1.245,0.907,2.167c0,0.938-0.277,1.675-0.8,2.213c-0.722,0.753-1.858,1.137-3.165,1.137
				c-0.399,0-0.769-0.016-1.075-0.092v4.148h-1.337V12.101z M465.61,17.095c0.292,0.076,0.66,0.107,1.106,0.107
				c1.613,0,2.597-0.799,2.597-2.197c0-1.383-0.983-2.044-2.443-2.044c-0.584,0-1.029,0.046-1.26,0.107V17.095z"/>
			<path fill="#FFFFFF" d="M477.226,20.552c0,0.646,0.031,1.275,0.107,1.782h-1.214l-0.107-0.938h-0.046
				c-0.415,0.584-1.214,1.106-2.274,1.106c-1.506,0-2.273-1.061-2.273-2.136c0-1.798,1.598-2.781,4.471-2.766v-0.153
				c0-0.6-0.169-1.722-1.689-1.706c-0.707,0-1.43,0.2-1.952,0.553l-0.307-0.906c0.614-0.384,1.521-0.646,2.458-0.646
				c2.274,0,2.827,1.552,2.827,3.027V20.552z M475.92,18.539c-1.476-0.031-3.15,0.23-3.15,1.675c0,0.891,0.584,1.29,1.261,1.29
				c0.983,0,1.613-0.614,1.828-1.244c0.046-0.153,0.062-0.308,0.062-0.431V18.539z"/>
			<path fill="#FFFFFF" d="M479.406,17.325c0-0.953-0.031-1.722-0.062-2.428h1.198l0.077,1.275h0.03
				c0.538-0.907,1.429-1.43,2.643-1.43c1.813,0,3.166,1.521,3.166,3.765c0,2.674-1.645,3.995-3.396,3.995
				c-0.983,0-1.844-0.43-2.289-1.168h-0.03v4.041h-1.337V17.325z M480.743,19.307c0,0.2,0.015,0.385,0.061,0.554
				c0.246,0.938,1.061,1.582,2.028,1.582c1.43,0,2.259-1.167,2.259-2.873c0-1.475-0.783-2.75-2.212-2.75
				c-0.922,0-1.798,0.645-2.044,1.659c-0.046,0.169-0.092,0.368-0.092,0.538V19.307z"/>
			<path fill="#FFFFFF" d="M487.963,20.967c0.415,0.245,1.121,0.522,1.798,0.522c0.968,0,1.429-0.477,1.429-1.106
				c0-0.646-0.384-0.983-1.367-1.353c-1.353-0.491-1.982-1.214-1.982-2.105c0-1.198,0.983-2.182,2.566-2.182
				c0.753,0,1.413,0.2,1.812,0.461l-0.322,0.983c-0.292-0.185-0.83-0.445-1.521-0.445c-0.799,0-1.229,0.461-1.229,1.014
				c0,0.615,0.431,0.892,1.398,1.275c1.275,0.477,1.951,1.122,1.951,2.229c0,1.321-1.029,2.243-2.766,2.243
				c-0.814,0-1.567-0.215-2.09-0.522L487.963,20.967z"/>
			<path fill="#FFFFFF" d="M495.736,12.808c0,0.461-0.323,0.829-0.861,0.829c-0.491,0-0.813-0.368-0.813-0.829
				s0.338-0.846,0.845-0.846C495.397,11.962,495.736,12.331,495.736,12.808z M494.23,22.334v-7.437h1.352v7.437H494.23z"/>
			<path fill="#FFFFFF" d="M498.348,14.897l1.459,4.164c0.246,0.691,0.446,1.306,0.6,1.92h0.046c0.169-0.614,0.385-1.229,0.63-1.92
				l1.444-4.164h1.414l-2.92,7.437h-1.29l-2.827-7.437H498.348z"/>
			<path fill="#FFFFFF" d="M506.721,12.808c0,0.461-0.323,0.829-0.861,0.829c-0.491,0-0.813-0.368-0.813-0.829
				s0.338-0.846,0.845-0.846C506.382,11.962,506.721,12.331,506.721,12.808z M505.215,22.334v-7.437h1.352v7.437H505.215z"/>
			<path fill="#FFFFFF" d="M512.819,18.861c0.03,1.828,1.183,2.581,2.551,2.581c0.968,0,1.566-0.169,2.059-0.384l0.246,0.968
				c-0.477,0.216-1.307,0.477-2.489,0.477c-2.29,0-3.657-1.521-3.657-3.765s1.321-3.995,3.488-3.995
				c2.442,0,3.072,2.121,3.072,3.488c0,0.276-0.015,0.477-0.046,0.63H512.819z M516.783,17.894c0.016-0.846-0.354-2.182-1.875-2.182
				c-1.383,0-1.967,1.244-2.074,2.182H516.783z"/>
			<path fill="#FFFFFF" d="M519.763,16.91c0-0.784-0.016-1.398-0.062-2.013h1.198l0.077,1.229h0.03
				c0.369-0.691,1.229-1.383,2.459-1.383c1.029,0,2.627,0.615,2.627,3.166v4.425h-1.352v-4.287c0-1.198-0.446-2.197-1.722-2.197
				c-0.876,0-1.567,0.63-1.812,1.383c-0.062,0.169-0.093,0.399-0.093,0.63v4.472h-1.352V16.91z"/>
			<path fill="#FFFFFF" d="M116.356,29.859h1.352v4.656h0.031c0.215-0.385,0.553-0.738,0.968-0.969
				c0.399-0.23,0.876-0.368,1.383-0.368c0.999,0,2.597,0.614,2.597,3.165v4.425h-1.352v-4.271c0-1.198-0.446-2.197-1.722-2.197
				c-0.876,0-1.552,0.615-1.812,1.337c-0.077,0.2-0.093,0.399-0.093,0.646v4.486h-1.352V29.859z"/>
			<path fill="#FFFFFF" d="M126.449,31.55v1.782h1.937v1.029h-1.937v4.011c0,0.922,0.262,1.444,1.015,1.444
				c0.369,0,0.584-0.03,0.783-0.093l0.062,1.03c-0.261,0.092-0.676,0.185-1.198,0.185c-0.63,0-1.137-0.216-1.46-0.569
				c-0.368-0.414-0.522-1.075-0.522-1.951v-4.057h-1.152v-1.029h1.152v-1.383L126.449,31.55z"/>
			<path fill="#FFFFFF" d="M131.534,31.55v1.782h1.937v1.029h-1.937v4.011c0,0.922,0.262,1.444,1.015,1.444
				c0.369,0,0.584-0.03,0.783-0.093l0.062,1.03c-0.261,0.092-0.676,0.185-1.198,0.185c-0.63,0-1.137-0.216-1.46-0.569
				c-0.368-0.414-0.522-1.075-0.522-1.951v-4.057h-1.152v-1.029h1.152v-1.383L131.534,31.55z"/>
			<path fill="#FFFFFF" d="M134.991,35.76c0-0.952-0.031-1.721-0.062-2.428h1.198l0.077,1.275h0.03
				c0.538-0.906,1.429-1.429,2.643-1.429c1.813,0,3.166,1.521,3.166,3.765c0,2.673-1.645,3.995-3.396,3.995
				c-0.983,0-1.844-0.431-2.289-1.168h-0.031v4.041h-1.336V35.76z M136.327,37.742c0,0.199,0.016,0.384,0.062,0.553
				c0.246,0.938,1.061,1.583,2.028,1.583c1.43,0,2.259-1.168,2.259-2.873c0-1.476-0.783-2.751-2.212-2.751
				c-0.922,0-1.798,0.646-2.044,1.659c-0.046,0.17-0.093,0.369-0.093,0.538V37.742z"/>
			<path fill="#FFFFFF" d="M143.547,39.401c0.415,0.246,1.121,0.522,1.798,0.522c0.968,0,1.429-0.477,1.429-1.106
				c0-0.646-0.384-0.983-1.367-1.352c-1.353-0.492-1.982-1.214-1.982-2.105c0-1.198,0.983-2.182,2.566-2.182
				c0.753,0,1.413,0.199,1.812,0.461l-0.322,0.983c-0.292-0.185-0.83-0.446-1.521-0.446c-0.799,0-1.229,0.461-1.229,1.015
				c0,0.614,0.431,0.892,1.398,1.275c1.275,0.477,1.951,1.122,1.951,2.228c0,1.322-1.029,2.244-2.766,2.244
				c-0.814,0-1.567-0.216-2.09-0.522L143.547,39.401z"/>
			<path fill="#FFFFFF" d="M149.508,34.562c0-0.568,0.384-0.969,0.906-0.969c0.554,0,0.907,0.4,0.907,0.969
				c0,0.537-0.354,0.952-0.922,0.952C149.877,35.514,149.508,35.099,149.508,34.562z M149.508,39.985
				c0-0.568,0.384-0.968,0.906-0.968c0.554,0,0.907,0.399,0.907,0.968c0,0.538-0.354,0.953-0.922,0.953
				C149.877,40.938,149.508,40.523,149.508,39.985z"/>
			<path fill="#FFFFFF" d="M151.857,41.368l4.271-11.14h1.061l-4.303,11.14H151.857z"/>
			<path fill="#FFFFFF" d="M157.127,41.368l4.271-11.14h1.061l-4.303,11.14H157.127z"/>
			<path fill="#FFFFFF" d="M164.07,33.332l0.999,3.78c0.2,0.829,0.399,1.598,0.538,2.366h0.046c0.169-0.753,0.415-1.552,0.661-2.351
				l1.214-3.796h1.137l1.152,3.719c0.276,0.891,0.491,1.675,0.661,2.428h0.046c0.123-0.753,0.322-1.537,0.568-2.413l1.061-3.733
				h1.336l-2.396,7.437h-1.229l-1.137-3.549c-0.262-0.83-0.477-1.567-0.661-2.443h-0.03c-0.185,0.892-0.415,1.659-0.677,2.459
				l-1.198,3.533h-1.229l-2.243-7.437H164.07z"/>
			<path fill="#FFFFFF" d="M175.562,33.332l0.999,3.78c0.2,0.829,0.399,1.598,0.538,2.366h0.046
				c0.169-0.753,0.415-1.552,0.661-2.351l1.214-3.796h1.137l1.152,3.719c0.276,0.891,0.491,1.675,0.661,2.428h0.046
				c0.123-0.753,0.322-1.537,0.568-2.413l1.061-3.733h1.336l-2.396,7.437h-1.229l-1.137-3.549c-0.262-0.83-0.477-1.567-0.661-2.443
				h-0.03c-0.185,0.892-0.415,1.659-0.677,2.459l-1.198,3.533h-1.229l-2.243-7.437H175.562z"/>
			<path fill="#FFFFFF" d="M187.053,33.332l0.999,3.78c0.2,0.829,0.399,1.598,0.538,2.366h0.046
				c0.169-0.753,0.415-1.552,0.661-2.351l1.214-3.796h1.137l1.152,3.719c0.276,0.891,0.491,1.675,0.661,2.428h0.046
				c0.123-0.753,0.322-1.537,0.568-2.413l1.061-3.733h1.336l-2.396,7.437h-1.229l-1.137-3.549c-0.262-0.83-0.477-1.567-0.661-2.443
				h-0.03c-0.185,0.892-0.415,1.659-0.677,2.459l-1.198,3.533h-1.229l-2.243-7.437H187.053z"/>
			<path fill="#FFFFFF" d="M196.899,39.97c0-0.553,0.385-0.968,0.922-0.968c0.538,0,0.907,0.399,0.907,0.968
				c0,0.554-0.369,0.969-0.938,0.969C197.269,40.938,196.899,40.523,196.899,39.97z"/>
			<path fill="#FFFFFF" d="M200.894,33.332l1.613,4.395c0.185,0.492,0.369,1.075,0.492,1.521h0.03
				c0.139-0.446,0.292-1.015,0.477-1.552l1.475-4.364h1.43l-2.028,5.301c-0.968,2.551-1.629,3.842-2.551,4.656
				c-0.676,0.568-1.321,0.799-1.659,0.86l-0.339-1.121c0.339-0.108,0.784-0.323,1.184-0.661c0.369-0.292,0.814-0.814,1.137-1.506
				c0.062-0.139,0.107-0.246,0.107-0.323c0-0.076-0.03-0.184-0.107-0.353l-2.734-6.854H200.894z"/>
			<path fill="#FFFFFF" d="M214.214,36.989c0,2.75-1.921,3.949-3.703,3.949c-1.997,0-3.564-1.476-3.564-3.826
				c0-2.475,1.644-3.934,3.688-3.934C212.77,33.179,214.214,34.73,214.214,36.989z M208.329,37.065c0,1.629,0.922,2.858,2.243,2.858
				c1.291,0,2.259-1.214,2.259-2.889c0-1.26-0.63-2.843-2.228-2.843C209.021,34.192,208.329,35.668,208.329,37.065z"/>
			<path fill="#FFFFFF" d="M222.142,38.726c0,0.783,0.016,1.46,0.062,2.043h-1.198l-0.077-1.213h-0.03
				c-0.339,0.599-1.138,1.383-2.459,1.383c-1.168,0-2.566-0.661-2.566-3.258v-4.349h1.353v4.103c0,1.414,0.445,2.382,1.659,2.382
				c0.907,0,1.537-0.63,1.783-1.245c0.076-0.184,0.122-0.43,0.122-0.691v-4.548h1.353V38.726z"/>
			<path fill="#FFFFFF" d="M226.012,31.55v1.782h1.937v1.029h-1.937v4.011c0,0.922,0.262,1.444,1.015,1.444
				c0.369,0,0.584-0.03,0.783-0.093l0.062,1.03c-0.261,0.092-0.676,0.185-1.198,0.185c-0.63,0-1.137-0.216-1.46-0.569
				c-0.368-0.414-0.522-1.075-0.522-1.951v-4.057h-1.152v-1.029h1.152v-1.383L226.012,31.55z"/>
			<path fill="#FFFFFF" d="M235.691,38.726c0,0.783,0.016,1.46,0.062,2.043h-1.198l-0.077-1.213h-0.03
				c-0.339,0.599-1.138,1.383-2.459,1.383c-1.168,0-2.566-0.661-2.566-3.258v-4.349h1.353v4.103c0,1.414,0.445,2.382,1.659,2.382
				c0.907,0,1.537-0.63,1.783-1.245c0.076-0.184,0.122-0.43,0.122-0.691v-4.548h1.353V38.726z"/>
			<path fill="#FFFFFF" d="M237.933,29.859h1.336v4.671h0.031c0.477-0.829,1.337-1.352,2.535-1.352c1.859,0,3.15,1.536,3.15,3.779
				c0,2.658-1.69,3.98-3.35,3.98c-1.076,0-1.937-0.415-2.505-1.383H239.1l-0.076,1.213h-1.152c0.03-0.507,0.062-1.26,0.062-1.92
				V29.859z M239.269,37.788c0,0.169,0.016,0.338,0.062,0.492c0.246,0.937,1.045,1.582,2.028,1.582c1.43,0,2.259-1.152,2.259-2.857
				c0-1.491-0.768-2.767-2.228-2.767c-0.906,0-1.768,0.646-2.044,1.66c-0.046,0.169-0.077,0.354-0.077,0.568V37.788z"/>
			<path fill="#FFFFFF" d="M247.427,37.296c0.03,1.829,1.183,2.582,2.551,2.582c0.968,0,1.566-0.169,2.059-0.385l0.246,0.969
				c-0.477,0.215-1.307,0.477-2.489,0.477c-2.29,0-3.657-1.521-3.657-3.765s1.321-3.995,3.488-3.995c2.442,0,3.072,2.12,3.072,3.487
				c0,0.277-0.015,0.477-0.046,0.63H247.427z M251.391,36.328c0.016-0.845-0.354-2.182-1.875-2.182
				c-1.383,0-1.967,1.245-2.074,2.182H251.391z"/>
			<path fill="#FFFFFF" d="M253.863,39.97c0-0.553,0.385-0.968,0.922-0.968c0.538,0,0.907,0.399,0.907,0.968
				c0,0.554-0.369,0.969-0.938,0.969C254.232,40.938,253.863,40.523,253.863,39.97z"/>
			<path fill="#FFFFFF" d="M262.667,40.508c-0.354,0.169-1.137,0.431-2.136,0.431c-2.243,0-3.703-1.521-3.703-3.796
				c0-2.289,1.567-3.964,3.995-3.964c0.799,0,1.506,0.199,1.874,0.399l-0.307,1.029c-0.323-0.169-0.83-0.354-1.567-0.354
				c-1.706,0-2.628,1.275-2.628,2.812c0,1.722,1.106,2.781,2.582,2.781c0.768,0,1.275-0.184,1.659-0.354L262.667,40.508z"/>
			<path fill="#FFFFFF" d="M270.886,36.989c0,2.75-1.921,3.949-3.703,3.949c-1.997,0-3.564-1.476-3.564-3.826
				c0-2.475,1.644-3.934,3.688-3.934C269.441,33.179,270.886,34.73,270.886,36.989z M265.001,37.065
				c0,1.629,0.922,2.858,2.243,2.858c1.291,0,2.259-1.214,2.259-2.889c0-1.26-0.63-2.843-2.228-2.843
				C265.692,34.192,265.001,35.668,265.001,37.065z"/>
			<path fill="#FFFFFF" d="M272.59,35.345c0-0.783-0.031-1.398-0.062-2.013h1.183l0.062,1.214h0.046
				c0.415-0.707,1.106-1.367,2.352-1.367c0.998,0,1.767,0.614,2.09,1.49h0.03c0.23-0.431,0.538-0.737,0.845-0.968
				c0.446-0.339,0.923-0.522,1.629-0.522c0.999,0,2.459,0.645,2.459,3.227v4.363h-1.321v-4.194c0-1.444-0.538-2.289-1.613-2.289
				c-0.784,0-1.368,0.568-1.614,1.214c-0.062,0.199-0.107,0.43-0.107,0.676v4.594h-1.321v-4.455c0-1.184-0.522-2.028-1.552-2.028
				c-0.83,0-1.46,0.676-1.675,1.352c-0.077,0.185-0.107,0.431-0.107,0.661v4.471h-1.321V35.345z"/>
			<path fill="#FFFFFF" d="M284.265,41.368l4.271-11.14h1.061l-4.303,11.14H284.265z"/>
			<path fill="#FFFFFF" d="M291.209,33.332l0.999,3.78c0.2,0.829,0.399,1.598,0.538,2.366h0.046
				c0.169-0.753,0.415-1.552,0.661-2.351l1.214-3.796h1.137l1.152,3.719c0.276,0.891,0.491,1.675,0.661,2.428h0.046
				c0.123-0.753,0.322-1.537,0.568-2.413l1.061-3.733h1.336l-2.396,7.437h-1.229l-1.137-3.549c-0.262-0.83-0.477-1.567-0.661-2.443
				h-0.03c-0.185,0.892-0.415,1.659-0.677,2.459l-1.198,3.533h-1.229l-2.243-7.437H291.209z"/>
			<path fill="#FFFFFF" d="M307.141,38.986c0,0.646,0.031,1.275,0.107,1.782h-1.214l-0.107-0.937h-0.046
				c-0.415,0.584-1.214,1.106-2.274,1.106c-1.506,0-2.273-1.061-2.273-2.137c0-1.797,1.598-2.78,4.471-2.766v-0.153
				c0-0.6-0.169-1.721-1.689-1.706c-0.707,0-1.43,0.2-1.952,0.554l-0.307-0.907c0.614-0.384,1.521-0.645,2.458-0.645
				c2.274,0,2.827,1.552,2.827,3.026V38.986z M305.835,36.974c-1.476-0.03-3.15,0.23-3.15,1.675c0,0.892,0.584,1.291,1.261,1.291
				c0.983,0,1.613-0.614,1.828-1.245c0.046-0.153,0.062-0.307,0.062-0.43V36.974z"/>
			<path fill="#FFFFFF" d="M310.888,31.55v1.782h1.937v1.029h-1.937v4.011c0,0.922,0.262,1.444,1.015,1.444
				c0.369,0,0.584-0.03,0.783-0.093l0.062,1.03c-0.261,0.092-0.676,0.185-1.198,0.185c-0.63,0-1.137-0.216-1.46-0.569
				c-0.368-0.414-0.522-1.075-0.522-1.951v-4.057h-1.152v-1.029h1.152v-1.383L310.888,31.55z"/>
			<path fill="#FFFFFF" d="M319.554,40.508c-0.354,0.169-1.137,0.431-2.136,0.431c-2.243,0-3.703-1.521-3.703-3.796
				c0-2.289,1.567-3.964,3.995-3.964c0.799,0,1.506,0.199,1.874,0.399l-0.307,1.029c-0.323-0.169-0.83-0.354-1.567-0.354
				c-1.706,0-2.628,1.275-2.628,2.812c0,1.722,1.106,2.781,2.582,2.781c0.768,0,1.275-0.184,1.659-0.354L319.554,40.508z"/>
			<path fill="#FFFFFF" d="M321.136,29.859h1.352v4.656h0.031c0.215-0.385,0.553-0.738,0.968-0.969
				c0.399-0.23,0.876-0.368,1.383-0.368c0.999,0,2.597,0.614,2.597,3.165v4.425h-1.352v-4.271c0-1.198-0.446-2.197-1.722-2.197
				c-0.876,0-1.552,0.615-1.812,1.337c-0.077,0.2-0.093,0.399-0.093,0.646v4.486h-1.352V29.859z"/>
			<path fill="#FFFFFF" d="M330.706,37.819l-0.031-0.4c-0.092-0.814,0.185-1.736,0.953-2.658c0.691-0.814,1.075-1.413,1.075-2.104
				c0-0.784-0.491-1.307-1.46-1.321c-0.553,0-1.168,0.184-1.552,0.476l-0.369-0.968c0.522-0.369,1.384-0.614,2.197-0.614
				c1.768,0,2.566,1.091,2.566,2.259c0,1.045-0.584,1.798-1.321,2.674c-0.676,0.799-0.922,1.49-0.876,2.273l0.031,0.385H330.706z
				 M330.383,39.985c0-0.568,0.384-0.968,0.906-0.968c0.554,0,0.907,0.399,0.907,0.968c0,0.538-0.354,0.953-0.922,0.953
				C330.752,40.938,330.383,40.523,330.383,39.985z"/>
			<path fill="#FFFFFF" d="M336.421,33.332l1.459,4.164c0.246,0.691,0.446,1.306,0.6,1.921h0.046
				c0.169-0.615,0.385-1.229,0.63-1.921l1.444-4.164h1.414l-2.92,7.437h-1.29l-2.827-7.437H336.421z"/>
			<path fill="#FFFFFF" d="M342.78,35.591v-0.922h7.929v0.922H342.78z M342.78,38.603v-0.922h7.929v0.922H342.78z"/>
			<path fill="#FFFFFF" d="M353.949,31.242c0,0.461-0.323,0.83-0.861,0.83c-0.491,0-0.813-0.369-0.813-0.83s0.338-0.845,0.845-0.845
				C353.61,30.397,353.949,30.766,353.949,31.242z M352.443,40.769v-7.437h1.352v7.437H352.443z"/>
			<path fill="#FFFFFF" d="M355.607,40.769v-0.829l1.061-1.029c2.551-2.428,3.718-3.719,3.718-5.225
				c0-1.015-0.476-1.951-1.967-1.951c-0.906,0-1.659,0.461-2.12,0.845l-0.43-0.953c0.676-0.568,1.675-1.014,2.812-1.014
				c2.151,0,3.058,1.476,3.058,2.904c0,1.844-1.337,3.334-3.441,5.362l-0.784,0.737v0.031h4.472v1.121H355.607z"/>
			<path fill="#FFFFFF" d="M370.142,38.726c0,0.783,0.016,1.46,0.062,2.043h-1.198l-0.077-1.213h-0.03
				c-0.339,0.599-1.138,1.383-2.459,1.383c-1.168,0-2.566-0.661-2.566-3.258v-4.349h1.353v4.103c0,1.414,0.445,2.382,1.659,2.382
				c0.907,0,1.537-0.63,1.783-1.245c0.076-0.184,0.122-0.43,0.122-0.691v-4.548h1.353V38.726z"/>
			<path fill="#FFFFFF" d="M378.791,29.859v8.989c0,0.66,0.03,1.413,0.062,1.92h-1.199l-0.061-1.29h-0.047
				c-0.399,0.829-1.29,1.46-2.504,1.46c-1.798,0-3.196-1.521-3.196-3.78c-0.016-2.474,1.536-3.979,3.334-3.979
				c1.152,0,1.905,0.537,2.243,1.121h0.031v-4.44H378.791z M377.454,36.359c0-0.169-0.016-0.399-0.062-0.569
				c-0.2-0.845-0.938-1.552-1.951-1.552c-1.398,0-2.229,1.229-2.229,2.858c0,1.506,0.753,2.75,2.197,2.75
				c0.907,0,1.736-0.614,1.982-1.613c0.046-0.184,0.062-0.368,0.062-0.584V36.359z"/>
			<path fill="#FFFFFF" d="M384.182,36.129v0.983h-3.795v-0.983H384.182z"/>
			<path fill="#FFFFFF" d="M387.915,40.769l-3.396-10.355h1.46l1.613,5.101c0.431,1.398,0.814,2.658,1.106,3.872h0.03
				c0.292-1.198,0.707-2.504,1.184-3.856l1.752-5.116h1.429l-3.703,10.355H387.915z"/>
			<path fill="#FFFFFF" d="M394.214,30.566c0.814-0.139,1.782-0.23,2.843-0.23c1.92,0,3.288,0.461,4.194,1.29
				c0.938,0.846,1.476,2.044,1.476,3.719c0,1.69-0.538,3.073-1.491,4.026c-0.983,0.968-2.581,1.49-4.594,1.49
				c-0.968,0-1.752-0.046-2.428-0.123V30.566z M395.551,39.724c0.338,0.047,0.829,0.062,1.352,0.062c2.874,0,4.41-1.599,4.41-4.395
				c0.016-2.443-1.367-3.996-4.194-3.996c-0.691,0-1.214,0.062-1.567,0.139V39.724z"/>
			<path fill="#FFFFFF" d="M410.853,39.678c0,1.722-0.354,2.751-1.061,3.411c-0.737,0.661-1.782,0.892-2.72,0.892
				c-0.892,0-1.875-0.215-2.474-0.614l0.338-1.045c0.491,0.322,1.26,0.599,2.182,0.599c1.383,0,2.397-0.722,2.397-2.612v-0.814
				h-0.031c-0.399,0.692-1.214,1.245-2.366,1.245c-1.844,0-3.165-1.567-3.165-3.626c0-2.521,1.644-3.934,3.365-3.934
				c1.29,0,1.981,0.66,2.32,1.275h0.03l0.046-1.122h1.199c-0.047,0.522-0.062,1.137-0.062,2.028V39.678z M409.5,36.267
				c0-0.23-0.016-0.43-0.077-0.599c-0.245-0.8-0.891-1.444-1.89-1.444c-1.291,0-2.213,1.091-2.213,2.812
				c0,1.46,0.753,2.674,2.197,2.674c0.846,0,1.599-0.522,1.875-1.383c0.077-0.23,0.107-0.492,0.107-0.723V36.267z"/>
			<path fill="#FFFFFF" d="M413.124,30.566c0.584-0.139,1.521-0.23,2.443-0.23c1.336,0,2.197,0.23,2.827,0.753
				c0.537,0.399,0.876,1.014,0.876,1.828c0,1.015-0.677,1.891-1.752,2.274v0.046c0.983,0.23,2.136,1.045,2.136,2.582
				c0,0.891-0.354,1.582-0.892,2.074c-0.706,0.66-1.874,0.968-3.564,0.968c-0.922,0-1.629-0.062-2.074-0.123V30.566z
				 M414.461,34.808h1.214c1.398,0,2.228-0.753,2.228-1.752c0-1.199-0.906-1.69-2.259-1.69c-0.614,0-0.968,0.046-1.183,0.093V34.808
				z M414.461,39.755c0.276,0.046,0.646,0.062,1.121,0.062c1.383,0,2.658-0.507,2.658-2.013c0-1.398-1.214-1.998-2.673-1.998h-1.106
				V39.755z"/>
			<path fill="#FFFFFF" d="M421.436,30.413h5.578v1.121h-4.226v3.442h3.902v1.106h-3.902v4.686h-1.353V30.413z"/>
			<path fill="#FFFFFF" d="M435.14,36.989c0,2.75-1.921,3.949-3.703,3.949c-1.997,0-3.564-1.476-3.564-3.826
				c0-2.475,1.644-3.934,3.688-3.934C433.695,33.179,435.14,34.73,435.14,36.989z M429.255,37.065c0,1.629,0.922,2.858,2.243,2.858
				c1.291,0,2.259-1.214,2.259-2.889c0-1.26-0.63-2.843-2.228-2.843C429.946,34.192,429.255,35.668,429.255,37.065z"/>
			<path fill="#FFFFFF" d="M76.622,51.767l1.613,4.395c0.185,0.492,0.369,1.076,0.492,1.521h0.03
				c0.139-0.445,0.292-1.014,0.477-1.552l1.475-4.364h1.43l-2.028,5.302c-0.968,2.551-1.629,3.841-2.551,4.655
				c-0.676,0.568-1.321,0.799-1.659,0.861l-0.339-1.122c0.339-0.107,0.784-0.323,1.184-0.661c0.369-0.292,0.814-0.814,1.137-1.506
				c0.062-0.138,0.107-0.246,0.107-0.322c0-0.077-0.03-0.185-0.107-0.354l-2.734-6.854H76.622z"/>
			<path fill="#FFFFFF" d="M86.623,54.087c0-0.875-0.016-1.629-0.062-2.32h1.183l0.062,1.476h0.046
				c0.339-0.999,1.168-1.629,2.075-1.629c0.138,0,0.245,0.016,0.368,0.03v1.275c-0.138-0.03-0.276-0.03-0.461-0.03
				c-0.952,0-1.629,0.707-1.813,1.721c-0.03,0.185-0.046,0.415-0.046,0.63v3.965h-1.352V54.087z"/>
			<path fill="#FFFFFF" d="M92.246,55.731c0.03,1.828,1.183,2.581,2.55,2.581c0.969,0,1.567-0.169,2.06-0.384l0.246,0.968
				c-0.477,0.216-1.307,0.477-2.489,0.477c-2.29,0-3.657-1.521-3.657-3.765s1.321-3.995,3.488-3.995c2.442,0,3.072,2.12,3.072,3.488
				c0,0.276-0.015,0.476-0.046,0.63H92.246z M96.21,54.764c0.016-0.846-0.354-2.183-1.875-2.183c-1.383,0-1.967,1.245-2.074,2.183
				H96.21z"/>
			<path fill="#FFFFFF" d="M99.327,59.204v-6.407h-1.029v-1.03h1.029v-0.322c0-1.045,0.354-1.967,1.045-2.566
				c0.584-0.491,1.353-0.753,2.397-0.753c0.86,0,1.659,0.185,2.228,0.492v10.587h-1.352V49.37c-0.23-0.123-0.584-0.2-1.106-0.2
				c-1.398,0-1.875,1.03-1.875,2.213v0.384h1.736v1.03h-1.736v6.407H99.327z"/>
			<path fill="#FFFFFF" d="M107.977,55.731c0.03,1.828,1.183,2.581,2.55,2.581c0.969,0,1.567-0.169,2.06-0.384l0.246,0.968
				c-0.477,0.216-1.307,0.477-2.489,0.477c-2.29,0-3.657-1.521-3.657-3.765s1.321-3.995,3.488-3.995c2.442,0,3.072,2.12,3.072,3.488
				c0,0.276-0.015,0.476-0.046,0.63H107.977z M111.94,54.764c0.016-0.846-0.354-2.183-1.875-2.183c-1.383,0-1.967,1.245-2.074,2.183
				H111.94z"/>
			<path fill="#FFFFFF" d="M115.505,51.767l1.06,1.599c0.292,0.415,0.522,0.783,0.769,1.198h0.031
				c0.245-0.43,0.491-0.814,0.753-1.214l1.029-1.583h1.475l-2.535,3.596l2.597,3.842h-1.521l-1.105-1.675
				c-0.292-0.431-0.538-0.845-0.8-1.291h-0.03c-0.246,0.446-0.492,0.845-0.783,1.291l-1.076,1.675h-1.49l2.643-3.795l-2.52-3.643
				H115.505z"/>
			<path fill="#FFFFFF" d="M123.493,49.677c0,0.462-0.323,0.83-0.861,0.83c-0.491,0-0.813-0.368-0.813-0.83
				c0-0.461,0.338-0.845,0.845-0.845C123.154,48.832,123.493,49.201,123.493,49.677z M121.987,59.204v-7.438h1.352v7.438H121.987z"
				/>
			<path fill="#FFFFFF" d="M132.312,55.424c0,2.751-1.921,3.949-3.703,3.949c-1.997,0-3.564-1.476-3.564-3.826
				c0-2.474,1.644-3.934,3.688-3.934C130.867,51.613,132.312,53.165,132.312,55.424z M126.427,55.501
				c0,1.629,0.922,2.857,2.243,2.857c1.291,0,2.259-1.213,2.259-2.889c0-1.26-0.63-2.842-2.228-2.842
				C127.118,52.628,126.427,54.103,126.427,55.501z"/>
			<path fill="#FFFFFF" d="M134.016,53.78c0-0.784-0.016-1.398-0.062-2.014h1.198l0.077,1.229h0.03
				c0.369-0.691,1.229-1.383,2.459-1.383c1.029,0,2.627,0.614,2.627,3.165v4.426h-1.352v-4.287c0-1.198-0.446-2.197-1.722-2.197
				c-0.876,0-1.567,0.63-1.812,1.383c-0.062,0.169-0.093,0.399-0.093,0.63v4.472h-1.352V53.78z"/>
			<path fill="#FFFFFF" d="M147.766,57.422c0,0.646,0.031,1.275,0.107,1.782h-1.214l-0.107-0.938h-0.046
				c-0.415,0.584-1.214,1.106-2.274,1.106c-1.506,0-2.273-1.061-2.273-2.136c0-1.798,1.598-2.781,4.471-2.766v-0.154
				c0-0.599-0.169-1.721-1.689-1.705c-0.707,0-1.43,0.199-1.952,0.553l-0.307-0.906c0.614-0.384,1.521-0.646,2.458-0.646
				c2.274,0,2.827,1.552,2.827,3.027V57.422z M146.46,55.409c-1.476-0.031-3.15,0.23-3.15,1.674c0,0.892,0.584,1.291,1.261,1.291
				c0.983,0,1.613-0.614,1.828-1.244c0.046-0.154,0.062-0.308,0.062-0.431V55.409z"/>
			<path fill="#FFFFFF" d="M149.947,54.087c0-0.875-0.016-1.629-0.062-2.32h1.183l0.062,1.476h0.046
				c0.339-0.999,1.168-1.629,2.075-1.629c0.138,0,0.245,0.016,0.368,0.03v1.275c-0.138-0.03-0.276-0.03-0.461-0.03
				c-0.952,0-1.629,0.707-1.813,1.721c-0.03,0.185-0.046,0.415-0.046,0.63v3.965h-1.352V54.087z"/>
			<path fill="#FFFFFF" d="M158.042,57.837c0.415,0.245,1.121,0.521,1.798,0.521c0.968,0,1.429-0.476,1.429-1.105
				c0-0.646-0.384-0.983-1.367-1.353c-1.353-0.491-1.982-1.214-1.982-2.105c0-1.198,0.983-2.182,2.566-2.182
				c0.753,0,1.413,0.2,1.812,0.461l-0.322,0.983c-0.292-0.185-0.83-0.445-1.521-0.445c-0.799,0-1.229,0.461-1.229,1.014
				c0,0.615,0.431,0.892,1.398,1.275c1.275,0.477,1.951,1.122,1.951,2.229c0,1.321-1.029,2.243-2.766,2.243
				c-0.814,0-1.567-0.215-2.09-0.522L158.042,57.837z"/>
			<path fill="#FFFFFF" d="M171.04,55.424c0,2.751-1.921,3.949-3.703,3.949c-1.997,0-3.564-1.476-3.564-3.826
				c0-2.474,1.644-3.934,3.688-3.934C169.596,51.613,171.04,53.165,171.04,55.424z M165.155,55.501c0,1.629,0.922,2.857,2.243,2.857
				c1.291,0,2.259-1.213,2.259-2.889c0-1.26-0.63-2.842-2.228-2.842C165.847,52.628,165.155,54.103,165.155,55.501z"/>
			<path fill="#FFFFFF" d="M172.744,48.294h1.337v4.672h0.03c0.477-0.83,1.337-1.353,2.535-1.353c1.859,0,3.15,1.536,3.15,3.78
				c0,2.658-1.69,3.979-3.35,3.979c-1.076,0-1.937-0.415-2.505-1.383h-0.031l-0.076,1.214h-1.152c0.03-0.507,0.062-1.26,0.062-1.921
				V48.294z M174.081,56.223c0,0.169,0.015,0.339,0.061,0.492c0.246,0.938,1.045,1.583,2.028,1.583c1.43,0,2.259-1.152,2.259-2.858
				c0-1.49-0.768-2.766-2.228-2.766c-0.906,0-1.768,0.646-2.044,1.659c-0.046,0.169-0.076,0.354-0.076,0.568V56.223z"/>
			<path fill="#FFFFFF" d="M181.485,54.087c0-0.875-0.016-1.629-0.062-2.32h1.183l0.062,1.476h0.046
				c0.339-0.999,1.168-1.629,2.074-1.629c0.139,0,0.246,0.016,0.369,0.03v1.275c-0.138-0.03-0.276-0.03-0.461-0.03
				c-0.952,0-1.629,0.707-1.813,1.721c-0.03,0.185-0.046,0.415-0.046,0.63v3.965h-1.352V54.087z"/>
			<path fill="#FFFFFF" d="M187.108,55.731c0.03,1.828,1.183,2.581,2.551,2.581c0.968,0,1.566-0.169,2.059-0.384l0.246,0.968
				c-0.477,0.216-1.307,0.477-2.489,0.477c-2.29,0-3.657-1.521-3.657-3.765s1.321-3.995,3.488-3.995c2.442,0,3.072,2.12,3.072,3.488
				c0,0.276-0.015,0.476-0.046,0.63H187.108z M191.072,54.764c0.016-0.846-0.354-2.183-1.875-2.183
				c-1.383,0-1.967,1.245-2.074,2.183H191.072z"/>
			<path fill="#FFFFFF" d="M197.309,48.294h1.352v10.91h-1.352V48.294z"/>
			<path fill="#FFFFFF" d="M207.663,55.424c0,2.751-1.921,3.949-3.703,3.949c-1.997,0-3.564-1.476-3.564-3.826
				c0-2.474,1.644-3.934,3.688-3.934C206.219,51.613,207.663,53.165,207.663,55.424z M201.778,55.501
				c0,1.629,0.922,2.857,2.243,2.857c1.291,0,2.259-1.213,2.259-2.889c0-1.26-0.63-2.842-2.228-2.842
				C202.47,52.628,201.778,54.103,201.778,55.501z"/>
			<path fill="#FFFFFF" d="M217.695,58.067h-0.031c-0.414,0.722-1.229,1.306-2.428,1.306c-1.736,0-3.149-1.49-3.149-3.749
				c0-2.797,1.798-4.011,3.365-4.011c1.152,0,1.921,0.568,2.289,1.275h0.031l0.046-1.122h1.275
				c-0.031,0.615-0.062,1.275-0.062,2.044v8.436h-1.337V58.067z M217.695,54.778c0-0.184-0.016-0.384-0.062-0.553
				c-0.215-0.83-0.922-1.537-1.937-1.537c-1.397,0-2.243,1.184-2.243,2.843c0,1.491,0.707,2.767,2.197,2.767
				c0.876,0,1.629-0.538,1.937-1.46c0.062-0.2,0.107-0.461,0.107-0.661V54.778z"/>
			<path fill="#FFFFFF" d="M227.496,57.16c0,0.784,0.016,1.46,0.062,2.044h-1.198l-0.077-1.214h-0.03
				c-0.339,0.599-1.138,1.383-2.459,1.383c-1.168,0-2.566-0.661-2.566-3.258v-4.349h1.353v4.104c0,1.413,0.445,2.381,1.659,2.381
				c0.907,0,1.537-0.63,1.783-1.244c0.076-0.185,0.122-0.431,0.122-0.691v-4.549h1.353V57.16z"/>
			<path fill="#FFFFFF" d="M230.491,55.731c0.03,1.828,1.183,2.581,2.551,2.581c0.968,0,1.566-0.169,2.059-0.384l0.246,0.968
				c-0.477,0.216-1.307,0.477-2.489,0.477c-2.29,0-3.657-1.521-3.657-3.765s1.321-3.995,3.488-3.995c2.442,0,3.072,2.12,3.072,3.488
				c0,0.276-0.015,0.476-0.046,0.63H230.491z M234.455,54.764c0.016-0.846-0.354-2.183-1.875-2.183
				c-1.383,0-1.967,1.245-2.074,2.183H234.455z"/>
			<path fill="#FFFFFF" d="M240.507,57.837c0.415,0.245,1.121,0.521,1.798,0.521c0.968,0,1.429-0.476,1.429-1.105
				c0-0.646-0.384-0.983-1.367-1.353c-1.353-0.491-1.982-1.214-1.982-2.105c0-1.198,0.983-2.182,2.566-2.182
				c0.753,0,1.413,0.2,1.812,0.461l-0.322,0.983c-0.292-0.185-0.83-0.445-1.521-0.445c-0.799,0-1.229,0.461-1.229,1.014
				c0,0.615,0.431,0.892,1.398,1.275c1.275,0.477,1.951,1.122,1.951,2.229c0,1.321-1.029,2.243-2.766,2.243
				c-0.814,0-1.567-0.215-2.09-0.522L240.507,57.837z"/>
			<path fill="#FFFFFF" d="M248.28,49.677c0,0.462-0.323,0.83-0.861,0.83c-0.491,0-0.813-0.368-0.813-0.83
				c0-0.461,0.338-0.845,0.845-0.845C247.941,48.832,248.28,49.201,248.28,49.677z M246.774,59.204v-7.438h1.352v7.438H246.774z"/>
			<path fill="#FFFFFF" d="M256.73,58.113c0,1.721-0.354,2.75-1.061,3.411c-0.737,0.66-1.782,0.891-2.72,0.891
				c-0.892,0-1.875-0.215-2.474-0.614l0.338-1.045c0.491,0.323,1.26,0.6,2.182,0.6c1.383,0,2.397-0.723,2.397-2.612v-0.814h-0.031
				c-0.399,0.691-1.214,1.244-2.366,1.244c-1.844,0-3.165-1.566-3.165-3.626c0-2.52,1.644-3.934,3.365-3.934
				c1.29,0,1.981,0.661,2.32,1.275h0.03l0.046-1.122h1.199c-0.047,0.522-0.062,1.138-0.062,2.028V58.113z M255.378,54.702
				c0-0.23-0.016-0.431-0.077-0.6c-0.245-0.799-0.891-1.444-1.89-1.444c-1.291,0-2.213,1.091-2.213,2.812
				c0,1.46,0.753,2.674,2.197,2.674c0.846,0,1.599-0.522,1.875-1.383c0.077-0.23,0.107-0.491,0.107-0.722V54.702z"/>
			<path fill="#FFFFFF" d="M258.865,53.78c0-0.784-0.016-1.398-0.062-2.014h1.198l0.077,1.229h0.03
				c0.369-0.691,1.229-1.383,2.459-1.383c1.029,0,2.627,0.614,2.627,3.165v4.426h-1.352v-4.287c0-1.198-0.446-2.197-1.722-2.197
				c-0.876,0-1.567,0.63-1.812,1.383c-0.062,0.169-0.093,0.399-0.093,0.63v4.472h-1.352V53.78z"/>
			<path fill="#FFFFFF" d="M268.896,49.677c0,0.462-0.323,0.83-0.861,0.83c-0.491,0-0.813-0.368-0.813-0.83
				c0-0.461,0.338-0.845,0.845-0.845C268.558,48.832,268.896,49.201,268.896,49.677z M267.391,59.204v-7.438h1.352v7.438H267.391z"
				/>
			<path fill="#FFFFFF" d="M271.123,59.204v-6.407h-1.029v-1.03h1.029v-0.414c0-1.952,1.152-3.228,3.242-3.228
				c0.691,0,1.506,0.216,1.89,0.492l-0.384,1.029c-0.338-0.23-0.906-0.431-1.567-0.431c-1.429,0-1.844,0.999-1.844,2.183v0.368
				h4.317v7.438h-1.352v-6.407h-2.966v6.407H271.123z"/>
			<path fill="#FFFFFF" d="M284.321,58.942c-0.354,0.17-1.137,0.431-2.136,0.431c-2.243,0-3.703-1.521-3.703-3.796
				c0-2.289,1.567-3.964,3.995-3.964c0.799,0,1.506,0.2,1.874,0.399l-0.307,1.029c-0.323-0.169-0.83-0.354-1.567-0.354
				c-1.706,0-2.628,1.275-2.628,2.812c0,1.721,1.106,2.781,2.582,2.781c0.768,0,1.275-0.185,1.659-0.354L284.321,58.942z"/>
			<path fill="#FFFFFF" d="M291.126,57.422c0,0.646,0.031,1.275,0.107,1.782h-1.214l-0.107-0.938h-0.046
				c-0.415,0.584-1.214,1.106-2.274,1.106c-1.506,0-2.273-1.061-2.273-2.136c0-1.798,1.598-2.781,4.471-2.766v-0.154
				c0-0.599-0.169-1.721-1.689-1.705c-0.707,0-1.43,0.199-1.952,0.553l-0.307-0.906c0.614-0.384,1.521-0.646,2.458-0.646
				c2.274,0,2.827,1.552,2.827,3.027V57.422z M289.82,55.409c-1.476-0.031-3.15,0.23-3.15,1.674c0,0.892,0.584,1.291,1.261,1.291
				c0.983,0,1.613-0.614,1.828-1.244c0.046-0.154,0.062-0.308,0.062-0.431V55.409z"/>
			<path fill="#FFFFFF" d="M294.705,52.32c0.354-1.291,1.014-2.95,1.429-3.657l0.86-0.092c-0.322,0.906-0.737,2.489-0.906,3.596
				L294.705,52.32z M296.979,52.32c0.354-1.291,1.015-2.95,1.43-3.657l0.86-0.092c-0.338,0.906-0.737,2.489-0.907,3.596
				L296.979,52.32z"/>
			<path fill="#FFFFFF" d="M303.478,59.204l-3.396-10.356h1.46l1.613,5.102c0.431,1.397,0.814,2.658,1.106,3.872h0.03
				c0.292-1.199,0.707-2.505,1.184-3.857l1.752-5.116h1.429l-3.703,10.356H303.478z"/>
			<path fill="#FFFFFF" d="M309.976,55.731c0.03,1.828,1.183,2.581,2.551,2.581c0.968,0,1.566-0.169,2.059-0.384l0.246,0.968
				c-0.477,0.216-1.307,0.477-2.489,0.477c-2.29,0-3.657-1.521-3.657-3.765s1.321-3.995,3.488-3.995c2.442,0,3.072,2.12,3.072,3.488
				c0,0.276-0.015,0.476-0.046,0.63H309.976z M313.939,54.764c0.016-0.846-0.354-2.183-1.875-2.183
				c-1.383,0-1.967,1.245-2.074,2.183H313.939z"/>
			<path fill="#FFFFFF" d="M316.919,54.087c0-0.875-0.016-1.629-0.062-2.32h1.183l0.062,1.476h0.046
				c0.339-0.999,1.168-1.629,2.074-1.629c0.139,0,0.246,0.016,0.369,0.03v1.275c-0.138-0.03-0.276-0.03-0.461-0.03
				c-0.952,0-1.629,0.707-1.813,1.721c-0.03,0.185-0.046,0.415-0.046,0.63v3.965h-1.352V54.087z"/>
			<path fill="#FFFFFF" d="M325.199,53.78c0-0.784-0.031-1.398-0.062-2.014h1.183l0.062,1.215h0.046
				c0.415-0.707,1.106-1.368,2.352-1.368c0.998,0,1.767,0.614,2.09,1.49h0.03c0.23-0.43,0.538-0.737,0.845-0.968
				c0.446-0.338,0.923-0.522,1.629-0.522c0.999,0,2.459,0.646,2.459,3.227v4.364h-1.321v-4.195c0-1.444-0.538-2.289-1.613-2.289
				c-0.784,0-1.368,0.568-1.614,1.214c-0.062,0.2-0.107,0.431-0.107,0.676v4.595h-1.321v-4.456c0-1.184-0.522-2.028-1.552-2.028
				c-0.83,0-1.46,0.676-1.675,1.353c-0.077,0.184-0.107,0.43-0.107,0.66v4.472h-1.321V53.78z"/>
			<path fill="#FFFFFF" d="M343.235,57.422c0,0.646,0.031,1.275,0.107,1.782h-1.214l-0.107-0.938h-0.046
				c-0.415,0.584-1.214,1.106-2.274,1.106c-1.506,0-2.273-1.061-2.273-2.136c0-1.798,1.598-2.781,4.471-2.766v-0.154
				c0-0.599-0.169-1.721-1.689-1.705c-0.707,0-1.43,0.199-1.952,0.553l-0.307-0.906c0.614-0.384,1.521-0.646,2.458-0.646
				c2.274,0,2.827,1.552,2.827,3.027V57.422z M341.93,55.409c-1.476-0.031-3.15,0.23-3.15,1.674c0,0.892,0.584,1.291,1.261,1.291
				c0.983,0,1.613-0.614,1.828-1.244c0.046-0.154,0.062-0.308,0.062-0.431V55.409z M342.605,48.556l-1.874,2.197h-0.953l1.337-2.197
				H342.605z"/>
			<path fill="#FFFFFF" d="M345.231,57.837c0.415,0.245,1.121,0.521,1.798,0.521c0.968,0,1.429-0.476,1.429-1.105
				c0-0.646-0.384-0.983-1.367-1.353c-1.353-0.491-1.982-1.214-1.982-2.105c0-1.198,0.983-2.182,2.566-2.182
				c0.753,0,1.413,0.2,1.812,0.461l-0.322,0.983c-0.292-0.185-0.83-0.445-1.521-0.445c-0.799,0-1.229,0.461-1.229,1.014
				c0,0.615,0.431,0.892,1.398,1.275c1.275,0.477,1.951,1.122,1.951,2.229c0,1.321-1.029,2.243-2.766,2.243
				c-0.814,0-1.567-0.215-2.09-0.522L345.231,57.837z"/>
			<path fill="#FFFFFF" d="M359.98,57.422c0,0.646,0.031,1.275,0.107,1.782h-1.214l-0.107-0.938h-0.046
				c-0.415,0.584-1.214,1.106-2.274,1.106c-1.506,0-2.273-1.061-2.273-2.136c0-1.798,1.598-2.781,4.471-2.766v-0.154
				c0-0.599-0.169-1.721-1.689-1.705c-0.707,0-1.43,0.199-1.952,0.553l-0.307-0.906c0.614-0.384,1.521-0.646,2.458-0.646
				c2.274,0,2.827,1.552,2.827,3.027V57.422z M358.675,55.409c-1.476-0.031-3.15,0.23-3.15,1.674c0,0.892,0.584,1.291,1.261,1.291
				c0.983,0,1.613-0.614,1.828-1.244c0.046-0.154,0.062-0.308,0.062-0.431V55.409z"/>
			<path fill="#FFFFFF" d="M362.161,48.294h1.352v10.91h-1.352V48.294z"/>
			<path fill="#FFFFFF" d="M365.786,48.294h1.352v10.91h-1.352V48.294z"/>
			<path fill="#FFFFFF" d="M374.636,57.422c0,0.646,0.031,1.275,0.107,1.782h-1.214l-0.107-0.938h-0.046
				c-0.415,0.584-1.214,1.106-2.274,1.106c-1.506,0-2.273-1.061-2.273-2.136c0-1.798,1.598-2.781,4.471-2.766v-0.154
				c0-0.599-0.169-1.721-1.689-1.705c-0.707,0-1.43,0.199-1.952,0.553l-0.307-0.906c0.614-0.384,1.521-0.646,2.458-0.646
				c2.274,0,2.827,1.552,2.827,3.027V57.422z M373.33,55.409c-1.476-0.031-3.15,0.23-3.15,1.674c0,0.892,0.584,1.291,1.261,1.291
				c0.983,0,1.613-0.614,1.828-1.244c0.046-0.154,0.062-0.308,0.062-0.431V55.409z M374.006,48.556l-1.874,2.197h-0.953l1.337-2.197
				H374.006z"/>
			<path fill="#FFFFFF" d="M386.48,48.294v8.989c0,0.661,0.03,1.414,0.062,1.921h-1.199l-0.061-1.291h-0.047
				c-0.399,0.83-1.29,1.46-2.504,1.46c-1.798,0-3.196-1.521-3.196-3.78c-0.016-2.474,1.536-3.979,3.334-3.979
				c1.152,0,1.905,0.538,2.243,1.122h0.031v-4.441H386.48z M385.144,54.794c0-0.169-0.016-0.399-0.062-0.568
				c-0.2-0.846-0.938-1.552-1.951-1.552c-1.398,0-2.229,1.229-2.229,2.857c0,1.506,0.753,2.751,2.197,2.751
				c0.907,0,1.736-0.615,1.982-1.613c0.046-0.185,0.062-0.369,0.062-0.584V54.794z"/>
			<path fill="#FFFFFF" d="M389.49,55.731c0.03,1.828,1.183,2.581,2.55,2.581c0.969,0,1.567-0.169,2.06-0.384l0.246,0.968
				c-0.477,0.216-1.307,0.477-2.489,0.477c-2.29,0-3.657-1.521-3.657-3.765s1.321-3.995,3.488-3.995c2.442,0,3.072,2.12,3.072,3.488
				c0,0.276-0.015,0.476-0.046,0.63H389.49z M393.454,54.764c0.016-0.846-0.354-2.183-1.875-2.183c-1.383,0-1.967,1.245-2.074,2.183
				H393.454z"/>
			<path fill="#FFFFFF" d="M399.69,48.294h1.352v10.91h-1.352V48.294z"/>
			<path fill="#FFFFFF" d="M410.046,55.424c0,2.751-1.921,3.949-3.703,3.949c-1.997,0-3.564-1.476-3.564-3.826
				c0-2.474,1.644-3.934,3.688-3.934C408.602,51.613,410.046,53.165,410.046,55.424z M404.161,55.501
				c0,1.629,0.922,2.857,2.243,2.857c1.291,0,2.259-1.213,2.259-2.889c0-1.26-0.63-2.842-2.228-2.842
				C404.853,52.628,404.161,54.103,404.161,55.501z"/>
			<path fill="#FFFFFF" d="M415.76,55.731c0.03,1.828,1.183,2.581,2.55,2.581c0.969,0,1.567-0.169,2.06-0.384l0.246,0.968
				c-0.477,0.216-1.307,0.477-2.489,0.477c-2.29,0-3.657-1.521-3.657-3.765s1.321-3.995,3.488-3.995c2.442,0,3.072,2.12,3.072,3.488
				c0,0.276-0.015,0.476-0.046,0.63H415.76z M419.724,54.764c0.016-0.846-0.354-2.183-1.875-2.183c-1.383,0-1.967,1.245-2.074,2.183
				H419.724z"/>
			<path fill="#FFFFFF" d="M423.226,51.767l1.459,4.164c0.246,0.691,0.446,1.307,0.6,1.921h0.046
				c0.169-0.614,0.385-1.229,0.63-1.921l1.444-4.164h1.414l-2.92,7.438h-1.29l-2.827-7.438H423.226z"/>
			<path fill="#FFFFFF" d="M431.599,49.677c0,0.462-0.323,0.83-0.861,0.83c-0.491,0-0.813-0.368-0.813-0.83
				c0-0.461,0.338-0.845,0.845-0.845C431.26,48.832,431.599,49.201,431.599,49.677z M430.093,59.204v-7.438h1.352v7.438H430.093z"/>
			<path fill="#FFFFFF" d="M440.095,48.294v8.989c0,0.661,0.03,1.414,0.062,1.921h-1.198l-0.062-1.291h-0.047
				c-0.399,0.83-1.29,1.46-2.504,1.46c-1.798,0-3.196-1.521-3.196-3.78c-0.016-2.474,1.536-3.979,3.334-3.979
				c1.152,0,1.905,0.538,2.243,1.122h0.031v-4.441H440.095z M438.758,54.794c0-0.169-0.016-0.399-0.062-0.568
				c-0.2-0.846-0.938-1.552-1.951-1.552c-1.398,0-2.229,1.229-2.229,2.857c0,1.506,0.753,2.751,2.197,2.751
				c0.907,0,1.736-0.615,1.982-1.613c0.046-0.185,0.062-0.369,0.062-0.584V54.794z"/>
			<path fill="#FFFFFF" d="M443.104,55.731c0.03,1.828,1.183,2.581,2.551,2.581c0.968,0,1.566-0.169,2.059-0.384l0.246,0.968
				c-0.477,0.216-1.307,0.477-2.489,0.477c-2.29,0-3.657-1.521-3.657-3.765s1.321-3.995,3.488-3.995c2.442,0,3.072,2.12,3.072,3.488
				c0,0.276-0.015,0.476-0.046,0.63H443.104z M447.068,54.764c0.016-0.846-0.354-2.183-1.875-2.183
				c-1.383,0-1.967,1.245-2.074,2.183H447.068z"/>
			<path fill="#FFFFFF" d="M450.048,53.78c0-0.784-0.016-1.398-0.062-2.014h1.198l0.077,1.229h0.03
				c0.369-0.691,1.229-1.383,2.459-1.383c1.029,0,2.627,0.614,2.627,3.165v4.426h-1.352v-4.287c0-1.198-0.446-2.197-1.722-2.197
				c-0.876,0-1.567,0.63-1.812,1.383c-0.062,0.169-0.093,0.399-0.093,0.63v4.472h-1.352V53.78z"/>
			<path fill="#FFFFFF" d="M460.141,49.984v1.782h1.937v1.03h-1.937v4.01c0,0.922,0.262,1.444,1.015,1.444
				c0.369,0,0.584-0.03,0.783-0.092L462,59.188c-0.261,0.092-0.676,0.185-1.198,0.185c-0.63,0-1.137-0.215-1.46-0.568
				c-0.368-0.415-0.522-1.076-0.522-1.952v-4.056h-1.152v-1.03h1.152v-1.383L460.141,49.984z"/>
			<path fill="#FFFFFF" d="M464.259,55.731c0.03,1.828,1.183,2.581,2.551,2.581c0.968,0,1.566-0.169,2.059-0.384l0.246,0.968
				c-0.477,0.216-1.307,0.477-2.489,0.477c-2.29,0-3.657-1.521-3.657-3.765s1.321-3.995,3.488-3.995c2.442,0,3.072,2.12,3.072,3.488
				c0,0.276-0.015,0.476-0.046,0.63H464.259z M468.223,54.764c0.016-0.846-0.354-2.183-1.875-2.183
				c-1.383,0-1.967,1.245-2.074,2.183H468.223z"/>
			<path fill="#FFFFFF" d="M472.508,48.571c-0.353,1.29-1.014,2.95-1.429,3.656l-0.86,0.093c0.338-0.907,0.737-2.489,0.906-3.596
				L472.508,48.571z M474.782,48.571c-0.354,1.29-1.014,2.95-1.429,3.656l-0.86,0.093c0.322-0.907,0.737-2.489,0.906-3.596
				L474.782,48.571z"/>
			<path fill="#FFFFFF" d="M473.567,58.405c0-0.554,0.385-0.969,0.922-0.969c0.538,0,0.907,0.4,0.907,0.969
				c0,0.553-0.369,0.968-0.938,0.968C473.937,59.373,473.567,58.958,473.567,58.405z"/>
		</g>
	</g>
</g>
</svg>
