<?xml version="1.0" encoding="utf-8"?>
<!-- Generator: Adobe Illustrator 16.0.0, SVG Export Plug-In . SVG Version: 6.00 Build 0)  -->
<!DOCTYPE svg PUBLIC "-//W3C//DTD SVG 1.1//EN" "http://www.w3.org/Graphics/SVG/1.1/DTD/svg11.dtd">
<svg version="1.1" id="Capa_1" xmlns="http://www.w3.org/2000/svg" xmlns:xlink="http://www.w3.org/1999/xlink" x="0px" y="0px"
	 width="224.943px" height="206.329px" viewBox="0 0 224.943 206.329" enable-background="new 0 0 224.943 206.329"
	 xml:space="preserve">
<g>
	<g>
		<path fill="#6F3A89" d="M224.943,198.91c0,4.098-3.323,7.419-7.422,7.419H7.42c-4.099,0-7.42-3.321-7.42-7.419V7.421
			C0,3.321,3.321,0,7.42,0h210.102c4.099,0,7.422,3.321,7.422,7.421V198.91z"/>
		<g id="OB1yQF_238_">
			<g>
				<path fill-rule="evenodd" clip-rule="evenodd" fill="#FFFFFF" d="M133.324,183.79c-0.68,0.126-1.381,0.254-2.079,0.384
					c-4.345,0.787-8.692,1.576-13.036,2.369c-0.182,0.035-0.365,0.106-0.523,0.201c-4.324,2.575-8.643,5.156-12.961,7.734
					c-0.092,0.055-0.187,0.104-0.273,0.156c1.27-11.25,2.536-22.484,3.801-33.686C116.591,168.545,124.951,176.162,133.324,183.79z"
					/>
				<path fill-rule="evenodd" clip-rule="evenodd" fill="#FFFFFF" d="M122.129,170.772c-0.754-0.69-1.491-1.364-2.212-2.022
					c0.31-0.574,0.636-1.107,0.896-1.672c2.732-5.974,1.041-12.867-4.222-16.793c-6.212-4.637-14.777-3.295-19.217,2.814
					c-2.654,3.652-3.402,7.705-2.165,12.059c0.873,3.072,2.684,5.513,5.301,7.346c1.194,0.836,2.49,1.465,3.887,1.879
					c0.194,0.059,0.272,0.129,0.244,0.355c-0.123,0.921-0.217,1.844-0.322,2.768c-5.032-1.158-11.15-5.447-12.489-13.738
					c-1.229-7.606,3.038-15.08,10.133-17.953c7.313-2.959,15.56-0.594,20.076,5.799C126.729,158.25,125.48,166.062,122.129,170.772z
					"/>
				<path fill-rule="evenodd" clip-rule="evenodd" fill="#FFFFFF" d="M116.737,165.849c-0.739-0.683-1.464-1.347-2.179-2.021
					c-0.058-0.052-0.087-0.194-0.058-0.269c1.093-3.012-0.015-6.208-2.739-7.872c-3-1.831-6.956-0.937-8.896,2.012
					c-1.883,2.866-1.124,6.882,1.685,8.888c0.229,0.16,0.478,0.293,0.702,0.46c0.08,0.056,0.168,0.178,0.158,0.263
					c-0.098,0.941-0.215,1.883-0.328,2.822c-0.003,0.033-0.023,0.065-0.037,0.098c-3.091-1.105-6.143-4.283-6.23-8.743
					c-0.082-4.317,2.672-8.033,6.512-9.289c4.239-1.388,8.652,0.177,11.039,3.81C118.709,159.572,118.101,163.684,116.737,165.849z"
					/>
			</g>
		</g>
	</g>
	<g>
		<g>
			<path fill="#FFFFFF" d="M69.555,64.658l-9.769-29.794h4.199l4.642,14.676c1.237,4.022,2.343,7.647,3.183,11.14h0.089
				c0.84-3.448,2.033-7.205,3.403-11.096l5.039-14.72h4.111L73.799,64.658H69.555z"/>
			<path fill="#FFFFFF" d="M91.169,37.251c0,1.326-0.928,2.388-2.475,2.388c-1.415,0-2.344-1.062-2.344-2.388
				s0.973-2.431,2.432-2.431C90.197,34.82,91.169,35.881,91.169,37.251z M86.837,64.658V43.263h3.891v21.396H86.837z"/>
			<path fill="#FFFFFF" d="M115.612,33.272v25.86c0,1.9,0.089,4.066,0.177,5.525h-3.447l-0.178-3.713h-0.132
				c-1.149,2.387-3.714,4.199-7.206,4.199c-5.172,0-9.194-4.376-9.194-10.874c-0.044-7.117,4.421-11.449,9.593-11.449
				c3.315,0,5.481,1.547,6.454,3.227h0.088V33.272H115.612z M111.767,51.972c0-0.486-0.044-1.149-0.177-1.636
				c-0.574-2.432-2.696-4.465-5.614-4.465c-4.022,0-6.409,3.536-6.409,8.223c0,4.332,2.166,7.912,6.321,7.912
				c2.607,0,4.995-1.769,5.702-4.642c0.133-0.53,0.177-1.061,0.177-1.68V51.972z"/>
			<path fill="#FFFFFF" d="M124.273,54.668c0.089,5.261,3.404,7.427,7.338,7.427c2.785,0,4.51-0.486,5.924-1.105l0.707,2.785
				c-1.37,0.618-3.757,1.37-7.161,1.37c-6.586,0-10.521-4.376-10.521-10.83s3.802-11.493,10.034-11.493
				c7.029,0,8.842,6.1,8.842,10.034c0,0.796-0.045,1.37-0.133,1.812H124.273z M135.679,51.883c0.044-2.431-1.017-6.276-5.393-6.276
				c-3.979,0-5.658,3.58-5.968,6.276H135.679z"/>
			<path fill="#FFFFFF" d="M163.614,53.784c0,7.912-5.525,11.36-10.653,11.36c-5.747,0-10.256-4.244-10.256-11.007
				c0-7.117,4.73-11.316,10.609-11.316C159.459,42.821,163.614,47.286,163.614,53.784z M146.684,54.005
				c0,4.686,2.652,8.222,6.454,8.222c3.713,0,6.498-3.492,6.498-8.311c0-3.624-1.812-8.178-6.41-8.178
				C148.673,45.738,146.684,49.982,146.684,54.005z"/>
			<path fill="#FFFFFF" d="M26.725,88.258c1.856-0.31,4.288-0.574,7.383-0.574c3.801,0,6.586,0.884,8.354,2.476
				c1.591,1.414,2.607,3.58,2.607,6.232c0,2.696-0.795,4.818-2.298,6.365c-2.078,2.166-5.35,3.271-9.106,3.271
				c-1.149,0-2.21-0.044-3.095-0.266v11.936h-3.846V88.258z M30.57,102.624c0.84,0.222,1.901,0.31,3.183,0.31
				c4.642,0,7.471-2.299,7.471-6.321c0-3.979-2.829-5.879-7.028-5.879c-1.68,0-2.962,0.133-3.625,0.31V102.624z"/>
			<path fill="#FFFFFF" d="M49.399,102.979c0-2.521-0.044-4.687-0.177-6.676h3.404l0.177,4.244h0.133
				c0.972-2.873,3.359-4.686,5.968-4.686c0.397,0,0.707,0.044,1.061,0.088v3.669c-0.398-0.088-0.796-0.088-1.326-0.088
				c-2.741,0-4.686,2.033-5.216,4.951c-0.089,0.53-0.133,1.193-0.133,1.812v11.405h-3.891V102.979z"/>
			<path fill="#FFFFFF" d="M82.773,106.824c0,7.912-5.525,11.36-10.653,11.36c-5.747,0-10.256-4.244-10.256-11.007
				c0-7.117,4.73-11.316,10.609-11.316C78.618,95.861,82.773,100.326,82.773,106.824z M65.843,107.045
				c0,4.686,2.652,8.222,6.454,8.222c3.713,0,6.498-3.492,6.498-8.311c0-3.624-1.812-8.178-6.41-8.178
				C67.832,98.778,65.843,103.022,65.843,107.045z"/>
			<path fill="#FFFFFF" d="M92.363,91.176v5.127h5.569v2.962h-5.569v11.538c0,2.652,0.751,4.155,2.917,4.155
				c1.061,0,1.68-0.089,2.255-0.266l0.177,2.962c-0.752,0.265-1.945,0.53-3.448,0.53c-1.812,0-3.271-0.619-4.199-1.636
				c-1.062-1.193-1.503-3.094-1.503-5.614v-11.67h-3.315v-2.962h3.315v-3.978L92.363,91.176z"/>
			<path fill="#FFFFFF" d="M121.403,106.824c0,7.912-5.525,11.36-10.653,11.36c-5.747,0-10.256-4.244-10.256-11.007
				c0-7.117,4.73-11.316,10.609-11.316C117.248,95.861,121.403,100.326,121.403,106.824z M104.473,107.045
				c0,4.686,2.652,8.222,6.454,8.222c3.713,0,6.498-3.492,6.498-8.311c0-3.624-1.812-8.178-6.41-8.178
				C106.462,98.778,104.473,103.022,104.473,107.045z"/>
			<path fill="#FFFFFF" d="M141.558,116.946c-1.017,0.486-3.271,1.238-6.145,1.238c-6.454,0-10.653-4.376-10.653-10.919
				c0-6.586,4.509-11.404,11.493-11.404c2.299,0,4.332,0.574,5.394,1.149l-0.885,2.961c-0.928-0.485-2.387-1.017-4.509-1.017
				c-4.906,0-7.559,3.669-7.559,8.09c0,4.951,3.183,8.001,7.426,8.001c2.211,0,3.669-0.53,4.774-1.017L141.558,116.946z"/>
			<path fill="#FFFFFF" d="M165.206,106.824c0,7.912-5.525,11.36-10.653,11.36c-5.747,0-10.256-4.244-10.256-11.007
				c0-7.117,4.73-11.316,10.609-11.316C161.051,95.861,165.206,100.326,165.206,106.824z M148.275,107.045
				c0,4.686,2.652,8.222,6.454,8.222c3.713,0,6.498-3.492,6.498-8.311c0-3.624-1.812-8.178-6.41-8.178
				C150.265,98.778,148.275,103.022,148.275,107.045z"/>
			<path fill="#FFFFFF" d="M170.109,86.312H174v31.386h-3.891V86.312z"/>
			<path fill="#FFFFFF" d="M199.902,106.824c0,7.912-5.525,11.36-10.653,11.36c-5.747,0-10.256-4.244-10.256-11.007
				c0-7.117,4.73-11.316,10.609-11.316C195.747,95.861,199.902,100.326,199.902,106.824z M182.972,107.045
				c0,4.686,2.652,8.222,6.454,8.222c3.713,0,6.498-3.492,6.498-8.311c0-3.624-1.812-8.178-6.41-8.178
				C184.961,98.778,182.972,103.022,182.972,107.045z"/>
		</g>
	</g>
</g>
</svg>
